<svg width="41" height="21" viewBox="0 0 41 21" fill="none" xmlns="http://www.w3.org/2000/svg">
<path d="M33.5437 13.2496C35.5588 15.1977 37.5074 17.0952 39.4781 18.9675C39.6302 19.1098 39.966 19.0465 40.1498 19.173C40.3906 19.3406 40.7359 19.6095 40.7264 19.8213C40.7169 20.0427 40.3431 20.4191 40.1181 20.4254C38.5688 20.4791 37.0131 20.4791 35.4637 20.4222C35.2325 20.4127 34.8776 20.0554 34.8237 19.8055C34.7318 19.3691 35.1247 19.1793 35.5113 19.1635C36.2305 19.1351 36.9497 19.154 37.7703 19.0149C36.0847 17.383 34.396 15.7512 32.6692 14.0814C30.9678 15.7164 29.3297 17.2913 27.6917 18.8663C27.7202 18.9611 27.7455 19.056 27.7741 19.154C28.1986 19.154 28.62 19.154 29.0446 19.154C29.3139 19.154 29.6181 19.0845 29.8462 19.1857C30.1092 19.3027 30.4387 19.5462 30.4957 19.7897C30.5908 20.2072 30.2486 20.4412 29.8367 20.4538C28.9812 20.476 28.1258 20.4697 27.2703 20.4697C26.5511 20.4697 25.8287 20.4728 25.1094 20.457C24.6817 20.4475 24.349 20.2736 24.3522 19.7866C24.3554 19.3248 24.688 19.2015 25.0809 19.1604C25.3344 19.1351 25.5879 19.0876 26.0536 19.0181C24.0987 17.0099 22.2769 15.1408 20.4646 13.2781C19.2257 13.8125 18.7853 14.4577 18.7885 15.6974C18.7917 17.0446 18.7948 18.3919 18.7948 19.7391C18.7948 19.9573 18.7695 20.1787 18.7505 20.457C17.6511 20.457 16.596 20.4981 15.5472 20.4254C15.2969 20.4064 14.9231 20.0332 14.8724 19.7739C14.79 19.3438 15.2019 19.1762 15.5853 19.1604C16.1904 19.1351 16.7988 19.154 17.4578 19.154C17.4578 13.354 17.4578 7.60133 17.4578 1.75065C16.7956 1.75065 16.1429 1.80441 15.5092 1.72219C15.2621 1.69056 15.0561 1.34584 14.8312 1.14344C15.0308 0.937878 15.2241 0.5647 15.4332 0.555212C16.5263 0.495124 17.6257 0.526749 18.7758 0.526749C18.7758 4.59692 18.7758 8.61334 18.7758 12.6266C18.8297 12.6677 18.8804 12.712 18.9343 12.7531C20.7656 11.2224 22.5969 9.69176 24.5486 8.05989C24.2476 8.01878 24.1209 7.99032 23.9942 7.99032C23.5094 7.99032 23.0246 7.93023 23.0468 7.31354C23.0722 6.67787 23.6045 6.71898 24.0575 6.71898C25.835 6.71582 27.6125 6.71898 29.3899 6.71898C29.5705 6.71898 29.7923 6.65573 29.9191 6.74112C30.1694 6.90241 30.3626 7.14909 30.5813 7.36098C30.3753 7.56338 30.1915 7.89861 29.9602 7.93656C29.4248 8.02194 28.864 7.96502 28.3127 7.96502C28.2683 8.05357 28.224 8.13896 28.1764 8.22751C28.6073 8.60385 29.0478 8.96754 29.4628 9.35969C30.3785 10.2231 31.2941 11.0864 32.1845 11.9751C32.5171 12.3072 32.7326 12.3736 33.1128 12.0004C34.4182 10.7038 35.7616 9.45141 37.0923 8.18007C37.0765 8.11366 37.0638 8.05041 37.0479 7.98399C36.579 7.98399 36.1069 7.98399 35.6348 7.98399C35.1627 7.98399 34.7382 7.87014 34.7667 7.29772C34.792 6.75061 35.242 6.72214 35.6665 6.72214C36.8357 6.71898 38.008 6.71898 39.1771 6.72214C39.6048 6.72214 40.0421 6.76958 40.0642 7.31354C40.0896 7.84168 39.7062 7.96502 39.2531 7.99664C39.0915 8.00613 38.9014 8.09468 38.7842 8.20853C37.0479 9.86254 35.3243 11.5324 33.5437 13.2496ZM21.3898 12.3325C21.4278 12.4558 21.4278 12.4811 21.4404 12.4969C23.1419 14.2521 24.8401 16.0137 26.5637 17.7499C26.6524 17.8384 27.0263 17.791 27.1531 17.6803C27.9388 16.9751 28.7024 16.2477 29.447 15.4982C30.1979 14.7423 30.9171 13.9517 31.687 13.1421C30.0521 11.5798 28.3887 9.97955 26.7063 8.40145C26.6018 8.30341 26.2627 8.29076 26.1518 8.37931C24.5486 9.67911 22.9739 11.0074 21.3898 12.3325Z" fill="#D9CBCB"/>
<path d="M5.83307 2.03823C4.44848 2.47149 3.12727 2.88262 1.80605 3.29692C1.69832 3.3317 1.59376 3.36649 1.48604 3.4076C1.02662 3.58154 0.605224 3.54675 0.440468 3.0281C0.27888 2.51893 0.659087 2.29756 1.06781 2.16789C2.67102 1.65873 4.27422 1.16221 5.8806 0.659365C6.26397 0.539189 6.64735 0.419013 7.12261 0.267212C7.12261 6.57013 7.12261 12.813 7.12261 19.1507C8.32026 19.1507 9.4387 19.1475 10.5571 19.1507C11.0514 19.1507 11.5583 19.1001 12.0368 19.1981C12.2712 19.2456 12.6007 19.5776 12.6039 19.7863C12.6071 20.0014 12.2997 20.2734 12.0653 20.4188C11.9005 20.5232 11.628 20.4663 11.4031 20.4663C8.11748 20.4694 4.83503 20.4663 1.54941 20.4663C1.46069 20.4663 1.36881 20.4663 1.28009 20.4663C0.811169 20.4536 0.3771 20.3303 0.39611 19.7737C0.411952 19.2645 0.823843 19.1507 1.27376 19.1507C2.77874 19.1538 4.28373 19.1507 5.83941 19.1507C5.83307 13.4613 5.83307 7.81617 5.83307 2.03823Z" fill="#D9CBCB"/>
</svg>
