<svg width="405" height="405" fill="none" xmlns="http://www.w3.org/2000/svg"><path d="M24.2492 237.616c.6161.553 1.5645.503 2.1183-.113l9.0255-10.04c.5538-.616.5034-1.564-.1127-2.118-.6161-.554-1.5645-.503-2.1183.113l-8.0227 8.924-8.9239-8.023c-.6161-.554-1.5645-.503-2.1184.113-.5538.616-.5034 1.564.1127 2.118l10.0395 9.026zM123.424 70.154c.26-.786-.167-1.635-.953-1.895l-12.818-4.2364c-.787-.26-1.635.1669-1.895.9535-.26.7869.167 1.6349.953 1.8949l11.394 3.766-3.766 11.394c-.26.786.167 1.635.953 1.895.787.26 1.635-.167 1.895-.954l4.237-12.818zM26.7499 236.42c-.1659-3.119-.2499-6.259-.2499-9.42h-3c0 3.214.0854 6.408.2541 9.58l2.9958-.16zM26.5 227c0-68.206 39.131-127.275 96.174-155.976l-1.348-2.68C63.3092 97.535 23.5 157.617 23.5 227h3zM303.477 371.413c.143-.816-.402-1.593-1.218-1.736l-13.298-2.329c-.816-.143-1.593.403-1.736 1.219-.143.816.403 1.593 1.219 1.736l11.82 2.07-2.07 11.82c-.143.816.402 1.594 1.218 1.736.816.143 1.594-.402 1.737-1.218l2.328-13.298zm-203.736-1.736c-.816.143-1.361.92-1.219 1.736l2.329 13.298c.143.816.921 1.361 1.737 1.218.816-.142 1.361-.92 1.218-1.736l-2.07-11.82 11.82-2.07c.816-.143 1.362-.92 1.219-1.736-.143-.816-.92-1.362-1.736-1.219l-13.298 2.329zm201.397.25c-28.344 19.896-62.875 31.574-100.138 31.574v3c37.9 0 73.029-11.88 101.862-32.119l-1.724-2.455zM201 401.501c-37.263 0-71.794-11.678-100.138-31.574l-1.724 2.455C127.971 392.621 163.1 404.501 201 404.501v-3zM276.059 66.586c-.781.278-1.189 1.135-.912 1.916l4.516 12.722c.277.781 1.134 1.189 1.915.912.781-.277 1.189-1.135.912-1.915l-4.014-11.309 11.309-4.0141c.78-.2771 1.189-1.1347.911-1.9154-.277-.7807-1.134-1.1889-1.915-.9118l-12.722 4.5153zm99.573 170.917c.554.616 1.502.666 2.118.112l10.04-9.025c.616-.554.666-1.502.113-2.118-.554-.616-1.503-.667-2.119-.113l-8.924 8.023-8.022-8.924c-.554-.616-1.503-.667-2.119-.113-.616.554-.666 1.502-.112 2.118l9.025 10.04zM275.916 69.354C334.803 97.389 375.5 157.444 375.5 227h3c0-70.757-41.402-131.841-101.295-160.354l-1.289 2.708zM375.5 227c0 3.161-.084 6.301-.25 9.42l2.995.16c.169-3.172.255-6.366.255-9.58h-3z" fill="#2C2C2C"/><mask id="a" mask-type="alpha" maskUnits="userSpaceOnUse" x="282" y="244" width="123" height="123"><path d="M343.817 366.69c33.589 0 60.817-27.241 60.817-60.845S377.406 245 343.817 245 283 272.241 283 305.845s27.228 60.845 60.817 60.845z" fill="#2C2C2C"/></mask><g mask="url(#a)"><path d="M403.547 305.845c0 33.004-26.742 59.758-59.73 59.758-32.987 0-59.729-26.754-59.729-59.758 0-33.003 26.742-59.757 59.729-59.757 32.988 0 59.73 26.754 59.73 59.757z" fill="#fff" stroke="#F3F4F7" stroke-width="2.17516"/><path d="M345.221 252.392h-3.118c-.275.01-.547.059-.808.145-.341.148-.668.326-.977.534l-.129.097-.372.097c-.25.08-.485.203-.694.363-.28.188-.55.39-.808.606-.245.216-.474.448-.687.695-.221.258-.429.528-.622.808-.174.259-.331.529-.468.809-.166.283-.306.581-.42.888-.084.265-.149.535-.194.809 0 .193-.048.387-.065.581-.016.194 0 .275 0 .421 0 .145-.072.371-.113.549h-.113a.7234.7234 0 01-.234-.048c-.22-.102-.45-.18-.686-.235-.221-.047-.446-.071-.671-.073h-.331c-.135.005-.268.03-.396.073-.138.047-.271.11-.396.186l-.161.097c-.181.101-.356.211-.525.331-.195.163-.378.338-.549.526l-.323.331-.081.081c-.129.137-.267.274-.388.412l-.065.073c-.247.251-.474.521-.678.808-.25.355-.412.573-.541.808-.121.213-.227.434-.315.662l-.057.13c-.131.276-.239.562-.323.856-.219.726-.328 1.48-.323 2.239.002.375.023.75.065 1.123 0 .178.048.355.08.541v.372c.013.08.031.158.057.234l.04.138.073.234.065.226c.064.194.129.388.202.582l.048.146.04.113c.049.113.089.234.138.355l.04.105c.037.115.086.226.146.332.059.099.155.171.266.202.03.083.065.164.105.242l.081.154c.081.169.161.331.25.501.178.282.375.552.59.808l.097.113c.202.275.447.515.727.711.232.145.486.254.751.323.258.089.493.17.727.267l.145.081c.046.051.084.108.113.169 0 .081.057.154.081.235a.15028.15028 0 00-.073 0l-.088.056-.59.348-.444.25-.178.105-.501.267c-.371.21-.735.444-1.09.679l-.679.557-.42.259c-.142.092-.28.192-.412.299-.182.139-.354.291-.517.452l-.654.671-.153.17c-.285.285-.554.584-.808.897-.25.315-.477.646-.695.978-.218.331-.355.525-.517.808l-.121.194c-.079.145-.168.286-.266.42-.14.169-.297.324-.469.46l-.517.437-.193.169c-.235.17-.469.316-.719.469-.065.04-.119.096-.157.162-.038.067-.059.141-.061.218-.121.012-.236.05-.34.113-.12.079-.234.168-.339.267-.17.161-.331.323-.493.493l-.21.218-.428.485-.266.315c-.234.283-.493.582-.727.921-.101.145-.193.296-.275.453l-.113.21-.194.396c-.064.129-.129.258-.202.388-.072.129-.25.501-.371.751-.202.412-.364.752-.517 1.099-.154.347-.372.881-.541 1.333l-.065.186c-.048.121-.089.251-.129.38l-.121.412-.073.267c-.073.266-.129.485-.178.703-.048.218-.056.25-.08.372v.153l-.049.234c-.105.51-.194 1.011-.266 1.52-.073.509-.178 1.398-.227 2.198V300.982c0 .396 0 .808.057 1.188.056.38.065.808.121 1.196.057.388.121.808.202 1.22.04.202.081.404.129.606l.089.38c.129.606.267 1.212.428 1.818.134.479.298.949.493 1.406l.048.121c.081.194.146.396.218.59.073.194.154.428.227.614l.048.122v.088c.035.104.096.196.176.27.081.073.178.125.284.151h.34c.063-.018.125-.04.185-.065l.162-.081.113-.056c.159-.053.321-.096.485-.13.173-.043.348-.079.525-.105.174-.012.35-.012.525 0 .148-.012.296-.012.444 0 .481.007.946.178 1.317.485l.169.17c.106.104.247.164.396.169.102-.006.201-.039.287-.094.086-.055.157-.131.206-.221.081-.125.143-.261.185-.404.038-.119.068-.24.089-.363.038-.165.065-.333.081-.501.097-.674.21-1.344.339-2.012 0-.178.057-.348.081-.526v-.153c0-.154.048-.307.081-.461v-.202c.067-.307.118-.617.153-.929.03-.247.043-.495.041-.744v-.452c0-.404.04-.808.048-1.22.008-.412 0-.655.049-.986v-.138c0-.404.048-.808.064-1.204V299.681v-.897-.477c.178.148.399.233.63.243.251.04.501.056.759.072h1.341c.486-.032.967-.124 1.43-.274.347-.114.678-.251 1.018-.388l.436-.138h.081l.339-.129c.173-.062.336-.15.484-.259.184-.128.36-.269.525-.42.293-.295.563-.611.808-.945l.065-.097.072-.089c.035.045.083.079.138.097l.129.073.162.08c.204.111.398.238.581.38l.477.356.452.291.242.145c.172.115.35.22.533.315.6.289 1.232.506 1.882.647h.299l.242.056.267.065.275.073c.282.072.573.129.864.177h.25c.34.057.663.13.994.203.331.072.807.169 1.219.218.13 0 .275 0 .42.048h.493c.251 0 .509.041.767.049h2.06c.218 0 .42-.049.63-.081.21-.032.501-.105.751-.17 0 .049 0 .105.081.178.079.076.182.122.291.129.419-.046.833-.133 1.236-.258l.759-.259.388-.137h.097c.203-.073.411-.135.621-.186l.186-.049.356-.097c.361-.146.703-.336 1.017-.565.218-.154.445-.307.655-.477l.347-.251.097-.072c.145-.105.299-.218.436-.34.137-.121.283-.274.42-.42.279-.324.535-.667.767-1.026.226-.342.413-.708.558-1.091.04-.089.072-.178.105-.267l.088.121c.138.181.26.373.364.574l.073.13c.129.226.282.436.436.654l.218.299c.234.315.468.638.711.946.122.176.257.344.404.501.164.169.351.313.557.428.381.229.784.419 1.203.565.233.091.47.169.711.235.31.084.626.14.945.169h1.212c.134.008.269.008.404 0h.129c-.021.41-.021.82 0 1.229V305.548c0 .387.056.808.121 1.22.048.296.105.595.17.897.105.501.242.986.379 1.446.111.362.24.718.388 1.067l.04.073c.033.164.108.318.218.444.168.145.385.22.606.21.081.008.162.008.242 0 .253-.045.496-.132.719-.258l.509-.227c.328-.132.669-.226 1.018-.283H368.733c.091.013.18.035.267.065.135.039.272.066.412.081h.153c.078.011.157.011.234 0 .087-.035.169-.081.243-.137.111-.096.206-.207.282-.332.065-.097.114-.169.154-.242.125-.213.228-.437.307-.671.065-.186.113-.339.153-.485l.041-.137c.064-.259.121-.485.169-.719.049-.235.049-.356.073-.534v-.121l.065-.444c.08-.534.161-1.067.226-1.616.064-.55.089-.865.121-1.301 0-.308.04-.607.065-.906.024-.299 0-.573.056-.864v-.582l.049-.929v-1.544V297.402c0-.21 0-.42-.041-.63 0-.372-.04-.744-.056-1.107-.016-.364-.073-.808-.13-1.22-.056-.413-.113-.712-.193-1.051-.081-.339-.138-.501-.218-.743v-.114c-.081-.258-.17-.517-.267-.808l-.137-.355c-.101-.233-.19-.47-.267-.711-.073-.243-.137-.485-.202-.728l-.072-.299c-.077-.279-.183-.55-.316-.808-.069-.148-.15-.292-.242-.428l-.089-.153c-.08-.138-.153-.267-.242-.396l-.153-.219-.049-.072-.129-.17c-.285-.379-.595-.738-.929-1.075l-.234-.371c-.138-.146-.275-.299-.42-.445l-.162-.178-.081-.08c-.185-.203-.323-.356-.452-.518-.129-.161-.291-.396-.428-.598l-.194-.282-.081-.114c-.097-.153-.202-.299-.307-.436-.105-.137-.298-.372-.436-.533l-.129-.146-.129-.153-.194-.243-.275-.307-.064-.064c-.113-.13-.234-.251-.331-.38l-.412-.542-.291-.412-.137-.202c-.114-.169-.243-.331-.372-.493l-.178-.226c-.177-.226-.307-.388-.436-.533l-.218-.235c-.107-.098-.206-.203-.299-.315-.241-.296-.512-.566-.807-.808l-.356-.275-.081-.129c-.169-.137-.339-.267-.509-.412l-.185-.154c-.234-.202-.469-.396-.719-.573l-.356-.243c-.153-.097-.298-.202-.444-.307-.516-.356-1.056-.677-1.615-.961l-.461-.227-.177-.08c-.21-.097-.412-.203-.622-.316l-.154-.08c-.274-.138-.549-.251-.807-.364l-.218-.081c.067-.055.123-.124.161-.202l.137-.25.081-.138.121-.21.146-.234.185-.291.146-.251c.105-.169.202-.331.291-.501.101-.193.191-.393.266-.598l.081-.21.048-.121.17-.388.081-.194v-.081c.044-.093.079-.19.105-.29.072-.219.137-.445.194-.663l.072-.291c.079-.301.141-.606.186-.913.049-.331.097-.663.121-1.01v-.13a2.283 2.283 0 000-.234v-.557-2.247c-.039-.368-.107-.733-.202-1.091-.08-.283-.185-.566-.282-.848-.154-.421-.291-.76-.437-1.099l-.193-.437c-.073-.141-.138-.287-.194-.436l-.113-.242-.073-.186-.105-.267-.137-.347-.049-.097c-.079-.182-.177-.355-.291-.518l-.088-.137c-.162-.25-.291-.453-.437-.646l-.525-.534-.153-.202-.194-.226-.121-.137v-.073l-.145-.17c-.235-.299-.388-.485-.542-.646-.122-.109-.251-.209-.387-.299-.147-.118-.304-.224-.469-.315-.283-.168-.577-.316-.88-.445l-.501-.194-.307-.089-.129-.056h-.097l-.129-.065-1.075-.501-.185-.129c-.353-.2-.723-.365-1.107-.493-.297-.08-.599-.137-.904-.17-.21-.012-.421-.012-.631 0h-.589v-.008z" fill="#2C2C2C"/><path d="M346.302 309.183c.194.622.436 1.22.687 1.818.25.598.557 1.317.807 1.988.25.639.445 1.299.582 1.972.064.303.104.611.121.921.016.294 0 .59-.048.881-.076.481-.299.927-.639 1.276-.334.317-.747.54-1.195.647-.239.059-.482.103-.727.129-.255.016-.512.016-.767 0-.525-.008-1.048-.048-1.567-.121a.47193.47193 0 01-.299-.121.4411.4411 0 01-.121-.291c.001-.112.044-.219.121-.299.038-.041.085-.072.136-.093.052-.021.107-.031.163-.028.831.126 1.675.148 2.512.064h-.105c.261-.04.518-.105.767-.194.123-.062.242-.132.355-.21.09-.074.174-.155.251-.242.064-.092.121-.19.169-.291.062-.162.108-.33.138-.501.036-.333.036-.669 0-1.002-.194-1.057-.511-2.088-.945-3.071-.404-1.01-.864-2.004-1.196-3.046-.029-.107-.016-.222.039-.319.054-.097.145-.168.252-.198h.113c.091.001.18.032.253.087.072.055.125.132.151.22l-.008.024zm1.341 6.246c-.004.016-.004.033 0 .049v-.049zm-.808 2.311h-.056.056zM348.57 323.301h.076c.466.026.915.181 1.299.447.367.244.66.586.843.987.326.796.326 1.687 0 2.482-.076.192-.166.378-.27.557-.097.173-.21.336-.337.489-.266.329-.582.613-.936.844-.324.228-.672.417-1.038.566-.418.174-.85.313-1.291.413-.576.126-1.165.189-1.754.186h-.903c-.885-.108-1.741-.383-2.522-.81a4.9063 4.9063 0 01-.979-.667c-.33-.281-.614-.611-.844-.979-.192-.301-.34-.628-.438-.971-.103-.347-.137-.711-.102-1.071.032-.349.135-.687.303-.993.169-.307.399-.575.676-.788.584-.446 1.298-.689 2.033-.692h.245c.633.088 1.242.297 1.797.616l.632.295.22.085h.109c.25-.039.494-.11.726-.211.194-.076.379-.169.573-.262l.583-.27c.41-.189.855-.293 1.307-.304l-.008.051zm-3.468 6.017c.347.002.694-.018 1.038-.059.554-.085 1.097-.229 1.62-.43l.261-.118c-.153-.181-.323-.348-.506-.498-.261-.193-.544-.355-.843-.481-.294-.104-.596-.183-.903-.237h-.54c-.197-.012-.394-.012-.59 0-.314.052-.622.134-.92.245-.268.119-.522.266-.759.439-.21.169-.402.358-.574.565l.135.093c.52.202 1.06.347 1.611.431.323.033.646.05.97.05zM334.477 315.817c1.107 0 2.003-1.252 2.003-2.788 0-1.535-.896-2.787-2.003-2.787-1.106 0-2.003 1.244-2.003 2.787 0 1.544.897 2.788 2.003 2.788zM355.722 315.397c-1.107 0-2.004-1.252-2.004-2.788 0-1.535.897-2.796 2.004-2.796 1.106 0 2.003 1.253 2.003 2.796 0 1.544-.897 2.788-2.003 2.788zM334.251 303.058c-.311-.003-.622.019-.929.064-.352.058-.7.136-1.042.235-1.214.358-2.304 1.046-3.15 1.988-.065.085-.112.183-.138.287-.026.104-.032.213-.016.319.033.224.152.427.332.565.18.122.397.177.613.154.223-.036.423-.158.558-.339l.056-.057c.32-.307.672-.578 1.05-.808.437-.237.897-.426 1.373-.566.398-.096.804-.155 1.212-.178.345.006.688.044 1.026.114l.242.08c.208.078.438.071.642-.018.203-.088.364-.253.448-.458.044-.102.067-.212.066-.323 0-.111-.023-.221-.068-.323-.045-.101-.11-.193-.192-.268-.081-.075-.177-.133-.282-.169a5.4891 5.4891 0 00-1.769-.299h-.032zm-1.317 1.85h-.097c.032-.007.065-.007.097 0zm-2.302 1.261l-.081.089.081-.089zM355.323 302.669c.311-.002.622.019.929.065.352.057.7.135 1.042.234 1.214.357 2.305 1.046 3.15 1.988.065.086.111.184.138.288.026.104.031.212.015.318-.032.225-.151.428-.331.566-.18.122-.397.176-.614.154a.86223.86223 0 01-.557-.34.37058.37058 0 01-.056-.056c-.321-.306-.673-.576-1.05-.809-.437-.236-.897-.426-1.374-.565-.397-.096-.803-.156-1.211-.178-.345.005-.688.043-1.026.113l-.242.081c-.208.08-.439.074-.643-.015-.204-.089-.365-.255-.448-.462-.043-.102-.066-.212-.065-.323 0-.111.023-.22.068-.322.045-.102.11-.193.191-.268.082-.075.178-.133.283-.17a5.4891 5.4891 0 011.769-.299h.032zm1.317 1.843h.097-.097zm2.31 1.228l.081.089-.081-.089z" fill="#2C2C2C"/><path d="M340.075 252.569c-.733.293-1.425.678-2.06 1.147-.307.217-.599.454-.872.711-.263.273-.506.565-.727.873-.444.621-.767 1.32-.953 2.061a6.2602 6.2602 0 00-.202 1.818.81868.81868 0 00-.259-.138 2.6813 2.6813 0 00-1.058-.202c-.761.03-1.496.289-2.108.744-.677.473-1.274 1.052-1.769 1.713-.506.653-.947 1.354-1.316 2.093-.16.316-.302.639-.429.97-.13.353-.235.715-.315 1.082-.387 1.876-.212 3.824.501 5.6.164.421.358.829.582 1.221.242.416.512.815.808 1.196.665.808 1.479 1.48 2.398 1.979-1.411.664-2.722 1.524-3.893 2.554-1.47 1.297-2.738 2.806-3.764 4.477l-.363.598c-.727.481-1.414 1.021-2.052 1.616-.625.606-1.206 1.257-1.736 1.947-1.066 1.426-1.935 2.989-2.585 4.647-.677 1.7-1.152 3.474-1.413 5.285-.271 1.818-.353 3.66-.243 5.495.159 3.103.985 6.135 2.423 8.889-.203.143-.392.305-.565.484-.469.487-.876 1.03-1.212 1.617-.353.61-.625 1.265-.807 1.947-.399 1.369-.336 2.831.177 4.162.106.278.233.548.38.808.155.261.33.51.525.743.512.605 1.127 1.114 1.817 1.503.752.416 1.573.69 2.423.808.372.059.747.089 1.123.089.422-.001.843-.034 1.26-.097-.02.377-.02.755 0 1.131.079 1.096.277 2.18.59 3.233.154.482.343.952.565 1.406.252.483.549.94.889 1.366 1.074 1.472 2.416 2.728 3.958 3.701 1.582.998 3.294 1.773 5.088 2.303.63.193 1.276.363 1.922.509.032.753 0 1.507-.096 2.254-.162 1.109-.458 2.195-.881 3.233-.401.941-.913 1.831-1.526 2.65-.505.639-1.079 1.219-1.713 1.729-.543.415-1.134.762-1.761 1.035-.355.145-.727.274-1.09.396l-.218.072-1.672.542-1.793.549-1.373.42c-2.054.616-4.066 1.361-6.026 2.231-4.102 1.834-7.524 4.912-9.781 8.8-1.144 1.912-2.061 3.951-2.73 6.077-.694 2.139-1.216 4.33-1.559 6.553-.364 2.287-.557 4.533-.808 7.232-.25 2.699-.371 5.39-.484 8.081-.21 5.212-.202 10.368 0 15.354h.856c-.194-4.639-.21-9.471-.041-14.384.089-2.465.226-5.018.412-7.588.089-1.277.202-2.545.315-3.822.138-1.406.235-2.36.356-3.289a40.4996 40.4996 0 012.649-10.327c.843-1.99 1.928-3.868 3.231-5.592 1.072-1.385 2.312-2.631 3.691-3.709.771-.592 1.581-1.132 2.423-1.617.892-.499 1.811-.947 2.754-1.341 1.975-.797 3.989-1.493 6.034-2.085 1.026-.315 2.052-.63 3.069-.961l1.067 21.244c.005.114.051.223.129.307.084.082.197.128.315.129.037.009.076.009.113 0l1.874-.751 3.99-1.616 5.613-2.255h.041c.137-.064.283-.113.42-.17l.388-.137c.395-.145.807-.315 1.227-.485v38.457h.856v-38.723l13.618 6.101c.075.03.154.047.235.048.071.001.141-.018.202-.056.064-.039.118-.094.156-.159.038-.065.059-.138.062-.213l.048-.566.049-.566 1.009-11.272.768-8.574c.436.162.896.299 1.357.444 2.046.59 4.059 1.286 6.033 2.085.944.392 1.864.84 2.754 1.342.844.483 1.653 1.023 2.424 1.616 1.381 1.076 2.621 2.322 3.691 3.709 1.302 1.724 2.387 3.602 3.231 5.592a40.8929 40.8929 0 012.641 10.327c.153 1.115.258 2.239.355 3.289.113 1.277.226 2.546.323 3.822.186 2.659.331 5.204.412 7.588.162 4.849.146 9.616-.056 14.101h.856c.234-4.768.242-9.842 0-15.087-.105-2.658-.267-5.373-.485-8.081-.218-2.707-.42-4.945-.807-7.272-.345-2.222-.864-4.413-1.551-6.554-.646-2.078-1.521-4.078-2.609-5.963-1.154-1.943-2.594-3.7-4.273-5.213a22.83882 22.83882 0 00-5.484-3.539c-1.962-.871-3.977-1.616-6.034-2.23l-1.373-.42-.339-.105-1.454-.445-1.664-.541-.218-.073c-.364-.121-.735-.251-1.099-.396-.624-.276-1.215-.623-1.76-1.034-.633-.506-1.205-1.083-1.705-1.722-.614-.821-1.127-1.714-1.526-2.658-.428-1.037-.727-2.123-.889-3.232-.106-.842-.128-1.692-.064-2.538 1.848-.376 3.659-.917 5.411-1.616 1.831-.694 3.543-1.67 5.073-2.893.332-.272.645-.566.937-.881.368-.391.688-.825.953-1.293.244-.433.449-.888.614-1.357.189-.528.34-1.068.452-1.616.153-.736.25-1.463.331-2.134.081-.67.121-1.228.17-1.834l.089.048c.48.085.966.128 1.453.13.379-.001.757-.031 1.131-.089.854-.128 1.676-.415 2.423-.849.692-.387 1.308-.896 1.818-1.503.194-.233.37-.482.525-.743.146-.261.275-.531.387-.808.503-1.333.563-2.793.17-4.162-.185-.681-.457-1.335-.808-1.947-.333-.589-.74-1.132-1.211-1.617-.392-.403-.834-.753-1.317-1.042.553-.88.951-1.847 1.179-2.861.252-1.03.441-2.074.566-3.127.218-1.625.302-3.266.25-4.905-.047-1.839-.244-3.671-.589-5.479-.331-1.795-.874-3.544-1.616-5.212-.417-.929-.934-1.809-1.542-2.626-.282-.389-.59-.759-.921-1.107-.362-.361-.751-.693-1.163-.994-.031-.024-.067-.041-.105-.049-.065-.145-.146-.299-.218-.452-.753-1.426-1.673-2.758-2.739-3.968-1.246-1.445-2.656-2.741-4.2-3.862-1.341-.997-2.836-1.767-4.426-2.279.51-.628.939-1.317 1.276-2.053.415-.907.714-1.862.889-2.844.341-2.001.281-4.051-.178-6.028-.219-.995-.524-1.968-.913-2.909-.371-.935-.834-1.831-1.381-2.675a11.4876 11.4876 0 00-4.499-3.928c-1.598-.804-3.343-1.274-5.129-1.381h-.808c-1.425 0-2.837.274-4.159.808h-.008zm.185.808c.804-.326 1.645-.552 2.504-.671.488-.055.979-.082 1.47-.081.584 0 1.166.035 1.745.105 1.071.141 2.121.412 3.126.808h.081c.86.382 1.673.862 2.423 1.431.707.548 1.344 1.18 1.898 1.883.674.918 1.235 1.913 1.672 2.965.566 1.377.959 2.818 1.171 4.291.149 1.221.149 2.456 0 3.677-.143 1.021-.414 2.021-.808 2.974-.337.771-.763 1.5-1.268 2.173l-.258.316c-.593-.138-1.201-.205-1.81-.202-.713-.005-1.423.096-2.108.299-.315-.243-.654-.485-.993-.712-1.304-.859-2.731-1.516-4.233-1.947h-.105a.34124.34124 0 00-.177.04c-.824.049-1.627.281-2.351.679-.882.453-1.715.994-2.487 1.616-.348.283-.695.574-1.034.873h-.186c-1.818.001-3.619.35-5.307 1.026-.523-.25-1.021-.55-1.486-.897-.465-.371-.89-.791-1.268-1.252-.437-.581-.805-1.21-1.098-1.875-.302-.75-.508-1.534-.614-2.335-.081-.725-.081-1.457 0-2.182.054-.395.132-.786.234-1.172.075-.275.166-.544.275-.808.394-.911.901-1.769 1.51-2.553.393-.508.842-.969 1.341-1.374.277-.207.575-.386.888-.534.231-.092.473-.157.719-.193H334.275c.18.026.356.072.525.137.21.107.41.231.598.372.089.087.207.139.331.145.04.007.081.007.121 0 .089-.015.171-.058.235-.121.042-.039.076-.086.098-.139.022-.053.033-.111.031-.168-.064-.553-.064-1.112 0-1.665.075-.48.199-.951.371-1.406.201-.465.456-.904.76-1.309.364-.45.779-.856 1.235-1.212h-.096c.56-.387 1.155-.723 1.776-1.002zm2.294 45.462c-1.746-.206-3.459-.635-5.096-1.276-.837-.359-1.629-.814-2.359-1.358-.518-.41-.987-.879-1.397-1.398-.394-.518-.722-1.082-.977-1.681-.254-.67-.432-1.367-.534-2.076-.116-.991-.116-1.992 0-2.982.294-1.9.837-3.754 1.616-5.511.788-1.872 1.806-3.639 3.029-5.261.592-.743 1.234-1.445 1.922-2.101l.469-.436c.065-.038.12-.091.161-.154.404-.355.808-.695 1.236-1.026.791-.641 1.656-1.183 2.577-1.616.392-.168.805-.285 1.227-.348.129-.008.259-.008.388 0 .534.136 1.057.309 1.567.517 1.175.508 2.282 1.159 3.295 1.94 1.115.888 2.121 1.905 2.997 3.03.993 1.316 1.825 2.746 2.48 4.259.737 1.782 1.247 3.65 1.518 5.559.189 1.339.208 2.697.057 4.041-.12.896-.353 1.773-.695 2.61-.264.597-.597 1.161-.993 1.681-.426.522-.908.997-1.438 1.414-.668.498-1.388.921-2.149 1.26h-.089c-1.104.446-2.26.752-3.44.913-.823.105-1.651.156-2.48.154-.953 0-1.906-.062-2.851-.186l-.041.032zm8.683-24.775h.138c.292-.032.586-.049.88-.049.34-.002.68.02 1.018.065.849.131 1.68.367 2.471.703 1.311.582 2.545 1.323 3.675 2.206 1.633 1.279 3.103 2.752 4.378 4.388.467.608.898 1.242 1.292 1.899.405.695.764 1.416 1.075 2.157.667 1.549 1.126 3.179 1.365 4.849.116.936.116 1.884 0 2.82-.099.69-.281 1.366-.541 2.012l.064-.089c-.219.44-.473.861-.759 1.261l-.04.081c-.309.368-.653.707-1.026 1.01-.324.238-.67.444-1.034.614-.332.125-.676.217-1.026.275h-.517c-.188.012-.377.012-.565 0-.435-.066-.861-.183-1.268-.348h-.065c-.461-.235-.904-.505-1.325-.808a7.89265 7.89265 0 01-2.423-3.087l-.04-.105c-.026-.061-.056-.12-.089-.178.198-.511.352-1.038.46-1.575.219-.99.319-2.001.299-3.014-.013-1.027-.108-2.051-.282-3.063-.174-.992-.411-1.972-.711-2.933-.851-2.816-2.297-5.414-4.241-7.621-.451-.509-.934-.989-1.445-1.438h.258l.024-.032zm-18.036 1.907c1.165-.496 2.39-.835 3.643-1.01.347-.041.678-.073 1.026-.089-.825.786-1.569 1.652-2.222 2.586a25.55178 25.55178 0 00-3.287 6.367c-.622 1.706-1.003 3.49-1.131 5.301-.04.81 0 1.623.121 2.425.122.747.334 1.477.63 2.173.299.688.693 1.33 1.172 1.907l.161.202c-.048 0-.105.049-.153.13-.074.123-.155.242-.243.355-.237.3-.508.571-.807.808-.373.28-.777.516-1.204.703-.609.25-1.246.424-1.898.518-.361.053-.725.08-1.09.08-.284.002-.567-.017-.848-.056-.441-.066-.873-.185-1.285-.356-.351-.157-.684-.352-.993-.582-.326-.265-.624-.563-.889-.888-.319-.416-.59-.866-.807-1.342-.238-.601-.406-1.227-.501-1.867v-.105c-.051-.472-.072-.947-.065-1.422.01-.503.051-1.005.121-1.503.227-1.589.656-3.142 1.277-4.622.652-1.521 1.488-2.956 2.487-4.275l.041-.089c.951-1.196 2.035-2.28 3.231-3.232l.064-.073c1.055-.797 2.199-1.469 3.409-2.004l.04-.04zm-11.954 11.095c.642-.834 1.368-1.6 2.165-2.287-.473.969-.852 1.981-1.131 3.022-.229.903-.391 1.821-.485 2.748-.113.92-.113 1.851 0 2.771.175 1.705.941 3.294 2.165 4.493.55.473 1.187.835 1.874 1.067l-.089 1.236v.17c-.113 1.762-.226 3.58-.46 5.358-.13.969-.291 1.858-.485 2.723-.194.864-.396 1.616-.646 2.367v.089c-.3-.279-.641-.51-1.01-.687-.476-.221-.994-.336-1.518-.339h-.235c-.704.054-1.384.282-1.979.663-.218-.445-.452-.922-.678-1.455-.696-1.713-1.171-3.508-1.414-5.341-.29-2.213-.29-4.454 0-6.667.282-2.028.825-4.011 1.616-5.899.608-1.438 1.392-2.796 2.334-4.04l-.024.008zm44.473 23.685c-.02-.027-.041-.051-.065-.073-.222-.327-.414-.673-.574-1.034-.394-.976-.666-1.996-.807-3.039a30.6237 30.6237 0 01-.162-4.04c0-.539.016-1.078.049-1.616 0-.703.04-1.382.048-2.061.317-.095.621-.227.905-.396.425-.244.819-.54 1.171-.881.958-.942 1.625-2.14 1.922-3.45.212-.875.299-1.776.259-2.675-.03-.928-.149-1.851-.356-2.756-.209-.974-.496-1.931-.856-2.86.218.275.461.549.711.864.705.956 1.293 1.992 1.753 3.087.806 2.026 1.349 4.147 1.615 6.311.188 1.437.285 2.883.291 4.332.007 1.283-.072 2.565-.234 3.838-.164 1.603-.522 3.179-1.067 4.695v.081c-.168.373-.365.732-.589 1.075-.363-.148-.748-.235-1.139-.259h-.226c-.528.001-1.049.117-1.527.339-.288.131-.559.297-.807.493-.054.048-.123.077-.194.081-.029.001-.057-.005-.082-.018a.1549.1549 0 01-.064-.055l.025.017zm-19.652-10.845c1.004-.027 2.003-.138 2.988-.331.966-.195 1.909-.493 2.811-.889.871-.394 1.686-.902 2.423-1.511a8.1839 8.1839 0 001.955-2.255c.049-.072.089-.153.137-.234.081.21.178.412.291.606.261.43.555.838.881 1.22.625.739 1.377 1.36 2.221 1.835.802.466 1.7.742 2.625.808h.283c.221 0 .443-.017.662-.049l-.049 1.204v4.865c.146 2.707.703 4.679 1.761 6.198.044.061.098.113.162.153v4.275c0 1.948-.041 3.62-.121 5.123-.049.881-.105 1.754-.186 2.635-.057.662-.121 1.325-.21 1.979-.126 1.13-.398 2.238-.808 3.297-.22.496-.491.967-.808 1.406-.477.583-1.019 1.109-1.615 1.568-1.23.912-2.568 1.669-3.982 2.255-2.737 1.115-5.607 1.872-8.538 2.254-3.101.415-6.244.415-9.345 0-2.217-.291-4.388-.861-6.461-1.697-1.365-.569-2.656-1.302-3.845-2.182l-.089-.056c-.874-.693-1.666-1.485-2.359-2.36-.21-.274-.403-.549-.589-.808-.235-.375-.443-.766-.622-1.171v-.081c-.367-.932-.614-1.907-.735-2.901-.168-1.692-.206-3.394-.113-5.091v-.332c0-.719 0-1.43.048-2.141 0-1.075 0-2.149.073-3.232.073-1.083.105-2.222.161-3.33.28-.857.515-1.728.703-2.61.202-.953.364-1.947.509-3.127.194-1.616.299-3.232.404-4.8v-.153l.073-1.116c.409.1.83.146 1.252.138.307 0 .605 0 .912-.049 1.007-.094 1.989-.367 2.9-.808.896-.449 1.651-1.137 2.181-1.988.311.294.643.564.993.808.738.51 1.532.933 2.367 1.261.919.375 1.871.664 2.843.865 1.743.402 3.526.608 5.315.614h.622l-.081-.065zm-25.742 11.039c.295-.126.604-.213.921-.259H321.966c.235.039.465.104.686.194.238.107.462.24.671.396.268.217.515.461.735.727 0 .517-.057 1.043-.081 1.616v.235c-.124-.163-.265-.311-.42-.445-.414-.326-.881-.578-1.381-.743-.341-.115-.699-.173-1.058-.17-.159-.012-.318-.012-.477 0-.586.083-1.142.314-1.615.671-.094.06-.163.152-.194.258-.017.056-.021.114-.013.171.009.058.03.112.061.161.04.068.096.125.164.164.068.04.145.061.224.062.072-.001.143-.023.202-.065.212-.155.439-.287.678-.396.206-.073.416-.13.63-.169h.348c.121-.008.242-.008.363 0 .255.042.504.112.743.21.249.117.486.255.711.412.24.195.459.415.654.654.102.138.196.281.283.429.022.036.049.069.081.097v2.44c0 .695 0 1.39-.049 2.093 0 .848-.048 1.689-.048 2.521H322.677c-.27-.001-.54-.017-.808-.048-.553-.075-1.096-.216-1.616-.421-.498-.219-.971-.489-1.413-.808-.393-.257-.756-.558-1.082-.897-.241-.316-.446-.657-.614-1.018-.182-.448-.307-.918-.372-1.398-.06-.515-.06-1.036 0-1.551.096-.602.261-1.19.493-1.754.257-.591.582-1.15.969-1.664a7.039 7.039 0 011.179-1.18h-.096c.321-.21.655-.399 1.001-.566l.008.041zm45.765.872c.157-.166.324-.323.501-.468.213-.156.44-.292.678-.404.224-.091.457-.156.695-.194.126-.009.253-.009.38 0h.331c.312.048.619.132.912.25.351.166.684.366.994.598l-.049-.089c.408.36.786.752 1.131 1.172.396.525.73 1.094.994 1.697.229.564.392 1.152.484 1.753.065.516.065 1.037 0 1.552-.06.462-.176.915-.347 1.349-.169.367-.375.717-.614 1.043-.297.371-.636.707-1.009 1.002-.881.685-1.93 1.117-3.037 1.252-.283 0-.558.041-.808.041-.294 0-.588-.017-.881-.049l-.282-.048a.73125.73125 0 00-.162 0 .29651.29651 0 00-.145 0c.129-1.568.202-3.321.226-5.511v-1.681c.081-.129.17-.267.267-.396.196-.242.418-.462.662-.655.219-.161.454-.3.703-.412.236-.097.482-.168.735-.21h.718c.215.04.425.096.63.17.236.115.463.247.679.396.059.041.13.064.202.064.078 0 .154-.021.222-.059.068-.038.125-.093.166-.159.031-.05.052-.106.06-.164.008-.059.004-.118-.012-.175a.4699.4699 0 00-.202-.259c-.473-.356-1.029-.587-1.615-.67-.159-.013-.318-.013-.477 0-.36-.003-.717.054-1.058.169-.502.166-.97.42-1.381.752-.111.088-.216.182-.315.283v-1.891l.024-.049zm-27.898 44.13l-6.624-7.758c.131-.04.256-.097.372-.17.755-.422 1.448-.947 2.06-1.559.618-.629 1.161-1.329 1.615-2.085.955-1.554 1.584-3.286 1.85-5.091.125-.802.171-1.614.137-2.424.937.197 1.883.345 2.835.444 1.253.134 2.512.201 3.772.202h1.753c1.684-.079 3.361-.282 5.016-.606-.062.896-.024 1.796.113 2.683.136.903.361 1.791.67 2.65.311.846.706 1.658 1.18 2.425.459.752 1.001 1.451 1.615 2.085.613.614 1.309 1.139 2.068 1.559.323.183.661.34 1.009.469l-3.659 4.258-1.978 2.311-1.188 1.471c-1.615 1.87-3.212 3.739-4.79 5.608l-1.147 1.342-6.679-7.814z" fill="#2C2C2C"/><path d="M314.584 359.962c-.076-.002-.152.018-.218.057-.099.06-.171.155-.202.267-.016.055-.021.113-.012.171.008.057.029.112.061.16.196.337.374.685.533 1.042.025.051.061.096.106.131s.097.059.152.071c.038.008.076.008.113 0 .077.003.153-.017.218-.056.099-.057.171-.15.202-.259.03-.111.016-.23-.04-.331-.151-.365-.332-.716-.541-1.051-.037-.066-.091-.121-.156-.16-.065-.038-.14-.058-.216-.058M315.941 363.146c-.077.002-.153.024-.218.065-.099.057-.171.149-.202.259-.037.107-.037.223 0 .331.048.097.089.194.129.299v-.105c.081.25.186.501.283.743.034.108.105.2.202.259.065.042.14.064.218.064h.113c.109-.031.202-.103.258-.202.032-.049.053-.105.061-.164.009-.059.004-.118-.012-.175-.154-.38-.315-.76-.477-1.139a.39992.39992 0 00-.105-.126c-.043-.035-.092-.061-.145-.076h-.121M316.901 366.169h-.113c-.059.017-.113.046-.161.085-.047.038-.086.087-.113.141a.3927.3927 0 00-.033.158c0 .054.011.108.033.158.129.331.266.662.404.985.027.051.066.095.111.13.046.034.099.059.155.072.037.008.076.008.113 0 .079.002.157-.018.226-.056.048-.028.09-.065.124-.11a.4083.4083 0 00.07-.149c.03-.111.016-.23-.04-.331l-.129-.299v.105c-.065-.202-.146-.404-.218-.606-.026-.092-.08-.173-.157-.23-.076-.057-.168-.087-.263-.085M372.683 363.874h-.097c-.055.013-.107.037-.152.07-.046.033-.085.075-.114.124-.201.399-.358.819-.469 1.252-.032.11-.02.229.034.331.055.101.147.177.257.21h.113c.095.004.189-.024.267-.079.078-.056.134-.136.161-.228.079-.327.187-.646.323-.953l.049-.097c.06-.098.08-.215.054-.327-.026-.112-.095-.21-.192-.271-.07-.043-.151-.068-.234-.073M373.806 360.359a.38712.38712 0 00-.211.049c-.064.036-.117.088-.153.153-.227.4-.419.819-.573 1.252-.022.051-.033.106-.033.162 0 .055.011.11.033.161.026.053.062.101.106.139.044.039.096.069.152.088.043.008.087.008.129 0 .093-.001.182-.032.256-.087.074-.055.129-.132.156-.221.073-.193.154-.387.234-.581l.243-.469c.06-.098.08-.215.054-.327-.026-.112-.095-.209-.192-.271-.07-.043-.151-.065-.234-.065" fill="#2C2C2C"/></g><mask id="b" mask-type="alpha" maskUnits="userSpaceOnUse" x="0" y="248" width="120" height="120"><path d="M59.6045 367.264c32.9187 0 59.6045-26.698 59.6045-59.632S92.5232 248 59.6045 248 0 274.698 0 307.632s26.6858 59.632 59.6045 59.632z" fill="#2C2C2C"/></mask><g mask="url(#b)"><path d="M118.121 307.632c0 32.333-26.199 58.544-58.5165 58.544-32.3175 0-58.51691-26.211-58.51691-58.544 0-32.334 26.19941-58.544 58.51691-58.544s58.5165 26.21 58.5165 58.544z" fill="#fff" stroke="#F3F4F7" stroke-width="2.17516"/><path d="M45.4611 345.723c-.1194-.001-.2345.045-.3213.127l-.2452.22-.1015.059-.4228.135-.1691.051c-.1776.051-.3467.101-.5243.169-.1611.059-.3167.133-.465.22-.1271.067-.237.162-.3214.279-.0774.163-.115.343-.1099.524.0159.226.0556.45.1184.668.0761.271.1522.541.2452.803.093.263.2537.643.3975.964l.1352.296c.1776.432.3129.795.4397 1.159l.1269.406.2452.71.1268.355c.0846.211.1607.423.2368.643.0761.22.2198.625.3382.938.1304.352.28.696.4482 1.032l.3382.736.1184.262c.1776.363.3552.718.5581 1.065l.296.55c.1014.177.1944.363.3044.541.2029.338.4058.685.6341 1.015.2283.329.3552.499.5412.752l.0761.102.1353.177c.203.279.4059.558.6257.846l.482.549.2875.33c.2622.305.5412.592.8456.846.3044.253.4566.397.6934.592l.2029.169c.3298.27.6342.516.964.736l.5327.346.4651.296.2705.186c.2537.169.4989.338.7695.491.3658.204.7511.371 1.15.499l.2283.076.6681.203c.331.098.6669.18 1.0062.245l.5496.118c.1861.034.3721.059.5581.076h.1353c.3298.043.6595.068.9893.093h.2875c.5705-.012 1.1379-.088 1.6912-.228.4778-.098.9471-.234 1.4037-.406l.7356-.271c.1542-.049.3042-.111.4482-.186l.5155-.296.66-.346c.242-.126.474-.27.693-.431l.288-.195c.186-.118.372-.237.549-.372.339-.245.66-.507.981-.778.611-.515 1.176-1.081 1.691-1.691.266-.302.503-.628.711-.972l.076-.119c.186-.313.38-.626.592-.922l.084-.109c.228-.292.434-.6.618-.922l.566-1.04c.189-.371.401-.73.634-1.074.217-.322.417-.655.601-.998.355-.692.671-1.403.947-2.131l.177-.49.178-.491c.093-.253.169-.515.253-.786v-.118l.06-.203c.084-.288.169-.567.236-.846l.178-.651.051-.211.11-.398.11-.389c.05-.211.101-.423.143-.634v-.271c.041-.181.069-.364.085-.549.001-.135-.019-.269-.059-.398-.074-.212-.217-.394-.406-.515-.172-.112-.365-.187-.567-.22l-.329-.068h-.161c-.094-.025-.191-.042-.288-.051h-.169c-.078-.011-.154-.031-.228-.059l-.152-.068h-.152c-.08 0-.159.02-.229.06a.6555.6555 0 00-.203.203c-.039.068-.073.138-.101.211-.082.225-.144.457-.186.693v.279c-.051.229-.102.457-.161.685-.059.229-.186.618-.296.914-.11.296-.169.541-.237.845v.127c-.051.24-.116.477-.194.71-.068.186-.144.364-.211.533l-.119.296-.127.304-.127.313v.059c-.36.851-.778 1.676-1.251 2.47l-.355.617c-.119.211-.228.414-.355.617-.219.374-.459.736-.719 1.082-.254.322-.533.635-.803.931-.271.296-.296.355-.44.541-.144.186-.245.296-.364.439-.118.144-.414.44-.634.66l-.279.279-.118.118-.305.305c-.127.118-.262.228-.389.33l-.549.405c-.1863.119-.3723.237-.5583.339-.1861.101-.2875.152-.4228.22l-.2875.143-.4059.195a4.5523 4.5523 0 01-.6342.203c-.2889.087-.5714.195-.8456.321h-.1437c-.2439.07-.4926.12-.7441.152l-.4905.085-.2875.051c-.4497.042-.9012.062-1.3529.059h-1.353c-.0867-.018-.1716-.043-.2536-.076l-.4397-.237c-.1269-.076-.2537-.152-.389-.22l-.2368-.118c-.206-.093-.4065-.197-.6003-.313l-.4651-.279c-.1945-.119-.389-.254-.5834-.389l-.1184-.093c-.4228-.288-.8456-.575-1.243-.846-.1408-.124-.2736-.256-.3975-.397l-.2114-.22-.1691-.169c-.155-.144-.3018-.296-.4397-.457-.1099-.161-.2029-.33-.3044-.499-.1014-.169-.1775-.287-.2536-.397l-.0931-.135c-.1522-.22-.2959-.449-.4481-.685-.1522-.237-.3805-.592-.5835-.846l-.2367-.33c-.1438-.194-.296-.389-.4228-.592l-.2368-.38c-.1268-.195-.2537-.398-.3721-.601-.1183-.202-.2113-.346-.3043-.524l-.3045-.524-.0676-.11a9.2432 9.2432 0 01-.4905-.905c-.0422-.11-.093-.27-.1522-.431l-.1099-.313c-.1099-.304-.2283-.617-.3551-.922-.1269-.304-.1607-.38-.2452-.575l-.1776-.38c-.1099-.262-.2199-.516-.3383-.778l-.0422-.093c-.1776-.423-.3721-.922-.5412-1.454-.0677-.203-.1268-.406-.1776-.618v-.143c-.0204-.1-.0457-.199-.0761-.296a.7502.7502 0 00-.0761-.144c.056-.042.1096-.087.1607-.135l.0761-.068c.0412-.039.0739-.086.0957-.139a.402.402 0 00.0311-.165c.0018-.061-.0084-.122-.0302-.178-.0218-.057-.0546-.108-.0966-.152-.041-.041-.0898-.074-.1435-.096-.0538-.021-.1114-.032-.1694-.031" fill="#2C2C2C"/><path d="M56.2678 362.236c-.0792.083-.1233.194-.1233.309 0 .115.0441.225.1233.308.1192.13.2493.248.3889.356.201.129.4168.234.6427.312.2537.076.5143.127.7779.153.2283 0 .4651 0 .7018.059.0961.014.194-.004.2791-.051.05-.027.0939-.065.1288-.11a.41417.41417 0 00.0741-.152c.0163-.056.021-.115.0137-.174-.0073-.058-.0263-.114-.056-.164a.4133.4133 0 00-.2621-.203c-.296-.051-.5919-.059-.8963-.093-.2221-.035-.4402-.092-.6511-.169l-.2368-.136a2.32027 2.32027 0 01-.2537-.245.39782.39782 0 00-.1376-.1c-.0525-.024-.1093-.035-.1668-.035-.1206.002-.2358.05-.3213.135M58.6012 305.482c-.2114.651-.4651 1.277-.7272 1.902-.2622.626-.575 1.379-.8456 2.081-.2605.67-.4669 1.36-.6173 2.063-.0644.318-.104.64-.1184.964-.0213.308-.0042.618.0508.921.075.505.309.973.668 1.336.3493.334.7814.567 1.2514.677.2504.062.5047.107.7611.135.2647.017.5302.017.7948 0 .5659-.007 1.1307-.049 1.6912-.127.1151-.007.2248-.052.3129-.126.0769-.086.119-.198.1183-.313a.48279.48279 0 00-.1183-.313c-.0414-.04-.0905-.071-.1443-.092-.0538-.02-.1111-.029-.1686-.027-.8732.133-1.7595.156-2.6382.068h.1184c-.2748-.04-.5443-.111-.8034-.211a1.9844 1.9844 0 01-.372-.212c-.0955-.075-.1833-.16-.2621-.253a2.2238 2.2238 0 01-.1776-.305c-.0674-.169-.1183-.345-.1522-.524-.0339-.349-.0339-.7 0-1.049.2043-1.104.5333-2.182.9809-3.213.4312-1.057.9132-2.097 1.2599-3.188a.44808.44808 0 00-.0465-.334c-.0585-.101-.154-.175-.2664-.207h-.1099a.45668.45668 0 00-.2641.091.4496.4496 0 00-.1587.231l-.0169.025zm-1.3783 6.511zm.854 2.418h.0592-.0592zM48.0399 313.1c1.1585 0 2.0971-1.311 2.0971-2.917 0-1.607-.9386-2.918-2.0971-2.918-1.1584 0-2.097 1.303-2.097 2.918 0 1.615.9386 2.917 2.097 2.917zM70.296 312.66c-1.159 0-2.097-1.31-2.097-2.917 0-1.607.938-2.917 2.097-2.917 1.158 0 2.105 1.302 2.105 2.917 0 1.615-.947 2.917-2.105 2.917zM47.8129 298.827c-.3251-.002-.6499.018-.9724.059-.3656.062-.7271.147-1.0824.253-1.271.37-2.4133 1.087-3.2978 2.072-.0701.09-.1212.194-.1503.304a.84863.84863 0 00-.0188.339c.0122.115.048.227.1052.328s.1347.189.2275.259c.0928.07.199.12.312.147.113.027.2303.03.3447.01.2342-.036.4459-.16.5919-.347l.0507-.059c.3316-.324.7007-.608 1.0993-.846.4552-.251.9374-.449 1.4374-.592.4156-.103.8405-.166 1.2684-.186.3609.006.7205.046 1.0739.119l.2621.084c.2176.086.46.081.6741-.013.2141-.093.3822-.268.4675-.485.0852-.218.0805-.46-.013-.675a.87997.87997 0 00-.4859-.467c-.5995-.202-1.2278-.304-1.8603-.304h-.0338zm-1.3783 1.927h-.093.093zm-2.4015 1.328l-.093.093.093-.093zM69.899 298.378c.327-.001.655.018.98.059.366.064.727.148 1.083.254 1.27.371 2.412 1.089 3.298 2.072.068.09.118.194.145.304.028.111.033.226.015.338-.012.116-.048.227-.105.329-.057.101-.135.189-.227.259-.093.069-.199.119-.312.146-.113.027-.231.031-.345.01-.232-.034-.442-.159-.584-.346l-.059-.06c-.33-.326-.699-.61-1.099-.845-.454-.253-.937-.451-1.437-.592-.413-.104-.835-.166-1.26-.186-.361.005-.721.045-1.074.118l-.262.085c-.218.079-.458.071-.671-.022-.212-.093-.381-.263-.471-.477-.047-.107-.072-.223-.072-.34 0-.117.024-.233.071-.34.047-.108.115-.204.201-.284.087-.079.188-.14.299-.178.599-.201 1.228-.304 1.86-.304h.026zm1.378 1.928h.101-.101zm2.41 1.327l.084.094-.084-.094zM63.1503 317.556v.169c.0039.016.0039.034 0 .051v.135c0 .11 0 .22-.0423.33-.0681.418-.1786.829-.3298 1.226-.1625.346-.3609.675-.5919.981-.2162.269-.4599.516-.7272.735-.2432.178-.5039.331-.7779.457-.2517.096-.5123.167-.778.211-.295.034-.5929.034-.8878 0-.2657-.044-.5263-.115-.778-.211a4.497 4.497 0 01-.7779-.457c-.2586-.208-.494-.443-.7019-.702a5.20873 5.20873 0 01-.5919-1.006 6.10016 6.10016 0 01-.3551-1.294v-.135a.44884.44884 0 00-.1268-.313c-.0852-.079-.1966-.124-.3129-.127-.1143.001-.2238.046-.3044.127-.0423.041-.076.089-.0992.143a.44136.44136 0 00-.0361.17c.047.421.1319.837.2537 1.243.073.247.1664.487.279.719.2601.567.6244 1.081 1.0739 1.513.7015.721 1.6442 1.157 2.6474 1.226 1.0033.069 1.9966-.235 2.7897-.853.518-.398.9544-.892 1.2853-1.455.2524-.435.4458-.901.575-1.387.1024-.39.1675-.789.1945-1.192a.40635.40635 0 010-.101v-.186a.44313.44313 0 00-.158-.231.4428.4428 0 00-.2648-.088c-.0956 0-.1885.031-.2648.088a.44256.44256 0 00-.158.231l-.0338-.017zm-.3552 1.961zm-6.0882.931v.042-.042zm1.5559 1.243h.0423-.0423z" fill="#2C2C2C"/><path d="M63.6497 258.611c-1.0709-.001-2.14.086-3.1963.262-1.1241.183-2.2207.507-3.264.964-.9566.409-1.8349.982-2.596 1.691-.3519.343-.6691.72-.947 1.125-.1514.218-.287.447-.4059.685-.1566-.218-.3351-.419-.5327-.601-.3467-.324-.7298-.608-1.1415-.845a8.12441 8.12441 0 00-2.6129-.914c-.6895-.12-1.3885-.18-2.0886-.177-1.1979.012-2.3911.151-3.5599.414-1.9952.452-3.8937 1.257-5.6062 2.376a15.17913 15.17913 0 00-4.4308 4.304 10.99634 10.99634 0 00-1.4967 3.383c-.1413.594-.229 1.199-.2621 1.809-.0307.565-.0109 1.131.0591 1.691h-.4058l-.6004.085c-.1832.029-.364.072-.5412.127-1.1031.331-2.1413.848-3.0694 1.53a12.36054 12.36054 0 00-3.1033 3.298 12.77536 12.77536 0 00-1.7504 4.118c-.3383 1.4-.3701 2.857-.093 4.27.1296.624.3369 1.229.6173 1.801.2822.578.6405 1.116 1.0654 1.599a8.19814 8.19814 0 003.3401 2.223c-.8729 1.232-1.4889 2.626-1.8114 4.101a11.24447 11.24447 0 00-.0658 4.482c.2701 1.491.8726 2.903 1.7626 4.129.89 1.227 2.0447 2.237 3.3785 2.957-.3059.572-.547 1.176-.7187 1.801-.4083 1.431-.3431 2.956.186 4.346.1136.292.2493.575.4059.846.1645.272.3482.532.5496.778a6.80476 6.80476 0 001.8941 1.564c.7837.452 1.6435.755 2.5368.897.3862.058.7763.086 1.1669.084.4416-.001.8825-.035 1.3191-.101 0 .397 0 .803.0507 1.2.0766 1.147.2808 2.281.6088 3.383.1657.505.3634.999.5919 1.479.2424.494.5252.966.8456 1.413 1.1263 1.539 2.5318 2.852 4.1434 3.872 1.6574 1.041 3.4499 1.849 5.3272 2.402.6511.203 1.3275.38 2.0124.541.0356.79.0045 1.582-.093 2.368a14.22232 14.22232 0 01-.9301 3.382c-.4166.989-.9533 1.924-1.5982 2.782-.5249.666-1.1235 1.27-1.7842 1.801-.573.434-1.1944.8-1.8518 1.091-.372.152-.761.279-1.1415.406l-.2283.076-1.7419.566-1.8857.575-1.4459.457c-2.1509.638-4.258 1.414-6.3081 2.325-2.0788.953-4.0096 2.201-5.733 3.704a23.28923 23.28923 0 00-4.4816 5.454c-1.1909 2.004-2.1498 4.138-2.8581 6.359a43.9674 43.9674 0 00-1.615 6.857c-.389 2.436-.6089 4.863-.8456 7.611-.2368 2.748-.3974 5.657-.5074 8.455-.2198 5.471-.2114 10.866 0 16.067h.8879c-.2114-4.812-.2368-9.868-.0592-15.035.093-2.537.2368-5.217.4312-7.94.1015-1.336.2114-2.672.3383-4 .1268-1.327.2283-2.367.372-3.449a42.40973 42.40973 0 012.7735-10.799c.8809-2.085 2.017-4.054 3.3824-5.859 1.1198-1.451 2.4182-2.755 3.8643-3.882a22.6013 22.6013 0 012.5367-1.691c.9312-.524 1.891-.996 2.875-1.412 1.9956-.846 4.0419-1.48 6.3165-2.182l.3552-.101 1.8264-.567a45.3392 45.3392 0 002.0886 6.579l.0423.085c.8442 2.113 1.895 4.138 3.1371 6.046a21.5608 21.5608 0 004.8537 5.344c.5128.39 1.0494.749 1.6066 1.073.5426.323 1.1078.605 1.6911.846 1.1343.451 2.333.72 3.5515.795h.6088c1.0861-.01 2.1653-.175 3.2047-.491 1.234-.386 2.4027-.956 3.4667-1.691 1.805-1.248 3.384-2.795 4.668-4.574 2.146-2.972 3.812-6.262 4.938-9.75l.059-.194.059-.169v-.093c.195-.609.381-1.201.542-1.793l.05-.161v-.237c0-.084 0-.143.051-.202l.051-.195.051-.203.067-.245.051-.22 1.201.381c2.274.701 4.321 1.344 6.316 2.181.987.41 1.948.881 2.875 1.412.884.504 1.732 1.069 2.537 1.691 1.444 1.129 2.742 2.433 3.864 3.882 1.366 1.806 2.502 3.774 3.383 5.86 1.395 3.461 2.328 7.092 2.773 10.798.144 1.09.254 2.181.372 3.467.118 1.285.237 2.663.338 3.999.195 2.723.339 5.395.432 7.94.169 5.074.152 10.046-.06 14.756h.888c.237-5.074.245-10.359 0-15.779-.11-2.774-.279-5.606-.507-8.456-.228-2.849-.44-5.133-.846-7.61-.354-2.325-.894-4.619-1.615-6.858-.711-2.22-1.67-4.353-2.858-6.359-2.373-4.035-5.943-7.232-10.214-9.149-2.052-.91-4.159-1.689-6.308-2.334l-1.438-.439-1.877-.584-1.751-.558-.228-.076c-.38-.135-.769-.262-1.141-.414-.658-.288-1.279-.651-1.852-1.083-.661-.534-1.26-1.141-1.784-1.809-.645-.855-1.182-1.787-1.599-2.774-.444-1.086-.757-2.221-.93-3.382-.11-.881-.133-1.77-.067-2.655 1.933-.4 3.829-.966 5.665-1.691 1.915-.725 3.704-1.746 5.302-3.027.346-.289.677-.597.989-.922.386-.408.718-.862.99-1.353.259-.45.476-.923.651-1.412.194-.552.349-1.117.465-1.691.153-.738.268-1.483.346-2.233.076-.634.136-1.276.186-1.919.027.028.063.046.102.051.502.089 1.012.134 1.522.135.396-.001.792-.032 1.184-.093.893-.135 1.754-.436 2.537-.888.721-.405 1.363-.938 1.894-1.573.201-.243.385-.5.549-.769.156-.272.292-.554.406-.846.531-1.388.593-2.911.178-4.338-.188-.715-.472-1.4-.846-2.038 1.285-.455 2.43-1.236 3.323-2.266.566-.601 1.072-1.255 1.514-1.953.459-.709.858-1.456 1.192-2.232.567-1.336 2.216-5.919-.634-8.6-.169-.163-.35-.313-.541-.448.101-.036.198-.084.287-.144.303-.186.586-.401.846-.642.464-.457.84-.996 1.108-1.59.573-1.308.805-2.739.676-4.16-.094-1.504-.473-2.976-1.116-4.338-.568-1.266-1.457-2.362-2.579-3.18-.317-.218-.657-.399-1.015-.541-.152-.059-.313-.11-.465-.152.354-.567.638-1.175.846-1.81.239-.754.351-1.542.329-2.333-.054-1.542-.55-3.036-1.429-4.304-.919-1.353-2.104-2.504-3.483-3.383-1.408-.926-2.973-1.587-4.617-1.953-.819-.185-1.656-.278-2.495-.279-.304 0-.609 0-.913.042-.968.078-1.916.315-2.807.702a6.0093 6.0093 0 00-.457-1.26c-.277-.539-.621-1.042-1.023-1.497-.414-.486-.882-.923-1.395-1.302-.536-.4-1.101-.759-1.691-1.074-1.281-.673-2.642-1.181-4.051-1.513-1.472-.351-2.977-.547-4.4899-.584h-.4312l.2368-.008zm1.0738 34.026c1.0565.004 2.1075-.162 3.1115-.49 1.423-.464 2.68-1.33 3.619-2.495.352-.441.652-.921.897-1.429.104-.211.194-.428.27-.651.182.305.398.589.643.846.575.65 1.255 1.199 2.012 1.623.703.407 1.479.675 2.283.787h.525c.374.001.747-.051 1.107-.153-.393 1.295-.523 2.655-.38 4 .044.379.111.754.203 1.125.111.407.252.806.423 1.192.287.642.668 1.238 1.133 1.767-.933 1.276-1.49 2.787-1.607 4.363-.017.407.005.815.068 1.218.069.424.197.837.38 1.226.359.714.925 1.304 1.624 1.691v4.828c0 2.005-.051 3.763-.127 5.362-.051.921-.118 1.834-.194 2.756-.068.693-.136 1.378-.229 2.072-.147 1.186-.446 2.348-.888 3.458-.227.52-.511 1.013-.845 1.472-.497.611-1.065 1.162-1.691 1.64-1.287.957-2.687 1.749-4.169 2.359-2.868 1.17-5.875 1.966-8.9464 2.368-1.6121.21-3.2363.315-4.8621.313-1.6428-.002-3.2839-.109-4.9128-.322-2.3406-.305-4.6333-.905-6.8239-1.784-1.4321-.594-2.7866-1.361-4.0334-2.283l-.0677-.051c-.9248-.723-1.7594-1.555-2.486-2.477-.2198-.288-.4312-.575-.6257-.846a8.68892 8.68892 0 01-.6426-1.226v-.076c-.389-.977-.6478-2-.7695-3.044-.1826-1.773-.225-3.557-.1269-5.336v-.33c0-.752.0508-1.496.0592-2.24 0-1.125 0-2.25.0677-3.383.0676-1.133.093-2.029.1522-3.044.2419-.154.4735-.323.6934-.507.3156-.284.5991-.602.8455-.947.4981-.694.8228-1.497.9471-2.342.0689-.451.0972-.906.0845-1.362-.0177-.382-.0859-.76-.2029-1.124-.0845-.279-.186-.55-.2875-.846l-.1353-.389c-.1303-.331-.2293-.674-.2959-1.023a2.12926 2.12926 0 010-.237c.0374-.094.0887-.183.1522-.262.2198-.279.465-.541.7103-.803.2996-.294.5819-.604.8455-.93.1036-.155.1914-.319.2622-.491.1067-.225.1999-.457.279-.693.1726-.486.2972-.987.3721-1.497.21-1.292.1174-2.614-.2706-3.864l.2198.169c.6251.419 1.2978.763 2.0041 1.023 1.1683.423 2.4019.638 3.6444.634.3129 0 .6342 0 .9555-.042 1.516-.114 2.9748-.628 4.228-1.488.5958-.427 1.1135-.953 1.5305-1.556.2183-.314.4052-.648.558-.998.1198.151.2299.309.3298.474.2485.364.5317.704.8456 1.014.5405.575 1.1481 1.083 1.8096 1.514 1.3256.848 2.8205 1.396 4.3801 1.606.4677.068.9396.101 1.4121.102l-.0677.059zm-30.6101 14.316c.3021-.121.6171-.206.9386-.254.1154-.008.2313-.008.3467 0 .1324-.008.2651-.008.3975 0 .2509.049.4971.119.7356.212.244.115.4762.254.6934.414.2817.226.5421.478.7779.752 0 .584-.0676 1.125-.093 1.692v.236a3.83103 3.83103 0 00-.4482-.448c-.4296-.344-.9161-.61-1.4374-.786a3.5902 3.5902 0 00-1.1078-.169 3.30428 3.30428 0 00-.5073 0 3.7827 3.7827 0 00-1.6912.702c-.0981.058-.1705.152-.2029.262a.44446.44446 0 00-.014.177c.0072.06.0264.117.0563.169.0428.07.1025.127.1735.167.071.04.1509.061.2324.062.0757-.001.1494-.024.2114-.068.2198-.165.4582-.304.7102-.414.2122-.085.4336-.145.6596-.178.1154-.008.2313-.008.3467 0h.3974c.265.051.5252.125.7779.22.2612.123.5103.27.7442.44.2536.204.4859.433.6933.685.1064.144.2052.293.296.448.0183.036.0443.068.0761.093V313.937c0 .728 0 1.455-.0507 2.182 0 .888-.0592 1.767-.0592 2.647l-.2875.042h-.0846c-.2283 0-.5412.042-.8456.042a7.4683 7.4683 0 01-.8456-.051c-.5787-.085-1.146-.236-1.6911-.448-.9921-.398-1.8655-1.045-2.5368-1.877a6.2484 6.2484 0 01-.6511-1.125 5.9109 5.9109 0 01-.3636-1.344 7.05463 7.05463 0 010-1.691c.099-.633.2722-1.251.5158-1.844.2701-.617.6106-1.202 1.0147-1.741.3636-.457.7778-.871 1.2346-1.235l-.093.059c.3249-.229.6669-.432 1.0231-.609h.0592l-.1015.009zm48.5446.456c.222-.164.46-.306.711-.422.234-.095.478-.163.727-.203.132-.009.265-.009.397 0h.347c.328.046.65.134.955.262.371.17.723.38 1.049.626l-.068-.077c.439.36.839.766 1.193 1.21.417.547.766 1.144 1.04 1.775.246.592.422 1.211.524 1.844.059.539.059 1.084 0 1.623-.067.485-.194.96-.381 1.412-.172.388-.384.756-.634 1.1-.313.386-.668.738-1.057 1.048-.462.333-.958.616-1.48.846-.545.212-1.112.362-1.691.448h-.845c-.308 0-.616-.017-.922-.051H82.058a.2803.2803 0 00-.152 0c.127-1.691.194-3.534.22-5.775v-1.759l.287-.423c.207-.249.436-.478.685-.685.238-.166.489-.31.753-.431.248-.101.506-.178.769-.228h.753c.225.037.446.096.659.177.251.112.489.251.711.415.061.045.135.069.211.067.08 0 .159-.021.229-.061.069-.04.127-.098.168-.167.059-.105.077-.229.051-.347-.036-.11-.111-.203-.211-.262-.496-.372-1.078-.613-1.691-.702-.167-.013-.333-.013-.499 0-.377-.003-.751.057-1.108.178-.524.171-1.011.438-1.438.786-.12.093-.233.195-.338.305v-1.92c.164-.177.339-.343.524-.499h.043l-.026-.11zm-23.5999 27.414c.6088 0 1.2177 0 1.8265-.042 1.7657-.084 3.5233-.293 5.2594-.626-.058.941-.016 1.885.127 2.816.28 1.885.939 3.695 1.936 5.319.474.792 1.042 1.525 1.691 2.181.641.643 1.366 1.195 2.157 1.641.33.173.668.328 1.014.465-.056.044-.095.107-.109.177l-.051.195v.389c-.021.061-.038.123-.051.186l-.051.186c-.004.042-.004.085 0 .127v.186c-.127.423-.245.845-.38 1.251l-.042.127v.085l-.11.346v.085c-.195.583-.406 1.15-.635 1.691l-.194.482v.093c-.882 1.955-2.004 3.793-3.34 5.471-.79 1.039-1.704 1.976-2.723 2.79-.7456.586-1.5642 1.072-2.4352 1.446-.6959.282-1.4224.48-2.1647.592-.337.037-.6756.057-1.0147.059-.3305-.002-.6608-.022-.9893-.059h-.1015c-.7331-.129-1.4503-.335-2.1393-.617h-.093c-.8057-.384-1.5706-.849-2.2831-1.387a16.9545 16.9545 0 01-2.6974-2.739l-.0592-.077c-1.2851-1.722-2.353-3.597-3.1794-5.58v-.085c-.8151-2.006-1.4628-4.077-1.9364-6.19a9.41216 9.41216 0 002.0886-1.581c.6477-.658 1.2153-1.39 1.6912-2.181.4955-.803.9091-1.652 1.2345-2.537.3309-.897.5661-1.827.7019-2.774.1255-.839.1764-1.688.1522-2.536.9217.186 1.8941.338 2.9595.456 1.3146.138 2.6356.205 3.9574.203l-.017-.034zm-13.783 19.33l-.1775-.423c-.8698-2.171-1.5791-4.404-2.1224-6.68l.3128-.093.2114-.067c.6426-.203 1.2938-.423 1.9195-.685.421 1.867.9865 3.699 1.6912 5.479.8182 2.141 1.9035 4.169 3.2301 6.038 1.3739 2.004 3.2211 3.64 5.3779 4.76.5315.252 1.083.458 1.6489.618.5523.156 1.1187.258 1.6911.304h.6765c.9784-.008 1.9491-.174 2.875-.491 1.1899-.409 2.3-1.021 3.2804-1.809a16.0513 16.0513 0 002.825-2.875c1.461-1.928 2.645-4.052 3.517-6.308.246-.609.448-1.175.643-1.742l.076-.203.042-.161.051-.135c.178-.558.321-1.032.457-1.513v-.28l.067-.253V347.405l.068-.287.042-.152c.008-.045.008-.091 0-.135.288.109.584.202.888.304l.203.068c.423.135.846.279 1.285.405l-.093.372v.508c0 .101-.042.144-.05.194l-.127.465c-.178.609-.355 1.193-.541 1.768l-.051.152-.119.363c-.312.914-.659 1.844-1.048 2.774-.98 2.346-2.229 4.571-3.721 6.629l-.203.262c-1.001 1.31-2.159 2.492-3.45 3.518-.903.675-1.8823 1.242-2.9168 1.691h-.0423c-.8745.331-1.7814.57-2.7059.711-.4293.05-.8613.076-1.2937.076-.4152-.002-.8301-.024-1.243-.068h-.1099c-.922-.152-1.824-.407-2.689-.761-1.0273-.448-1.998-1.015-2.8919-1.691h-.0422c-1.2824-1.045-2.44-2.233-3.45-3.543-1.6211-2.156-2.9622-4.508-3.9912-7.002v.127z" fill="#2C2C2C"/></g><mask id="c" mask-type="alpha" maskUnits="userSpaceOnUse" x="141" y="0" width="119" height="118"><path d="M200.788 117.63c32.468 0 58.788-26.3324 58.788-58.815S233.256 0 200.788 0C168.32 0 142 26.3324 142 58.815s26.32 58.815 58.788 58.815z" fill="#2C2C2C"/></mask><g mask="url(#c)"><path d="M258.489 58.815c0 31.8821-25.834 57.727-57.701 57.727s-57.7-25.8449-57.7-57.727c0-31.8824 25.833-57.72735 57.7-57.72735 31.867 0 57.701 25.84495 57.701 57.72735z" fill="#fff" stroke="#F3F4F7" stroke-width="2.17516"/><path d="M187.324 9.3547h-.888c-.547.012-1.093.0665-1.631.1632-.517.1139-1.024.2666-1.517.4568h-.179c-.351.1142-.702.2285-1.052.3672l-.229.0897a.33647.33647 0 00-.112-.0734.34174.34174 0 00-.132-.0245h-.098c-.424.1142-.881.2447-1.321.3998-.418.1574-.819.3541-1.199.5873l-.506.3182-.603.3753-.53.31-.139.0734c-.168.0883-.332.1864-.489.2937-.17.1132-.333.2357-.489.3672l-.253.2121-.253.2121-.424.3589c-.204.1551-.399.3182-.595.4895-.318.2693-.644.563-.979.9056l-.236.2448-.237.2447c-.203.1632-.391.3345-.587.514-.195.1795-.342.3018-.513.465-.172.1632-.31.3182-.465.4813l-.212.2285c-.082.0897-.172.1794-.253.2773-.114.1167-.203.2555-.261.408a.58863.58863 0 000 .2365c-.131.1958-.261.3998-.383.6038l-.106.1713-.155.2366c-.139.2366-.286.465-.416.7097-.158.2757-.297.5619-.416.8567-.133.3239-.245.6564-.334.9953-.082.3263-.155.6608-.229.9871-.081.3739-.139.7527-.171 1.134V25.1736c.002.3415.029.6823.082 1.0198.057.3671.122.7342.203 1.0932.078.3748.176.7452.294 1.1095l.106.3508.057.1713c.057.1876.114.3753.188.5548.163.3916.367.7668.554 1.1177.188.3508.367.6526.571.9545.098.1387.196.2773.302.4079l.065.0816c.13.1631.261.3181.4.465.281.2964.587.5692.913.8158l.351.2529.342.2611a.21258.21258 0 000 .1224c.035.1059.104.1976.196.261l.22.155c.011.0836.046.162.101.2258.055.0638.128.1101.209.1332.103.0358.21.063.318.0816l.147.0408c.334.1975.68.3746 1.035.5302.204.0898.408.1714.62.2448.276.1051.563.1763.856.2121.197.0308.396.0498.595.0571h.482l-.343.2937c-.236.2203-.465.4569-.693.6935l-.073.0815-.416.4243-.359.3671c-.22.2284-.424.465-.62.7016l-.122.155-.114.1305c-.229.2693-.457.5385-.669.8159-.114.155-.22.31-.318.4732l-.147.2937-.122.2284-.228.4324c-.115.2039-.221.3997-.319.6037-.097.2039-.114.2284-.171.3508l-.065.1632-.13.3018-.131.3019c-.236.5466-.44 1.1176-.612 1.6316-.171.514-.334.9627-.497 1.4359-.156.4832-.279.9766-.367 1.4766-.09.4732-.358 1.3216-.423 1.8111-.057.4079-.098.8159-.115 1.2156-.016.3998 0 .5792 0 .8729v1.3951c0 .4324-.345 1.015-.385 1.4555l.345 1.4815v.5629c0 .8158.073 1.6316.122 2.5127 0 .4977.301.6364.375 1.1259l.073.4895v.1795c0 .2366.057.4732.098.7016l.098.5384.073.6608v.204c0 .1876 0 .3508.155.4569.085.0781.195.1243.31.1305.075-.0017.149-.0243.212-.0653.126-.0814.23-.1937.302-.3263l.195-.2855c.129-.1382.268-.2664.416-.3835.168-.1108.345-.2064.53-.2855l.514-.2203c.023.0667.061.1268.112.1751.052.0484.114.0835.182.1023h.13c.088-.0022.176-.0159.261-.0408l.546-.0979a4.169 4.169 0 01.612-.0571H176.577c.043.0075.087.0075.13 0 .096-.003.19-.0252.277-.0653.203-.1273.355-.3202.433-.5466.105-.2043.184-.4207.236-.6445.055-.2253.093-.4544.114-.6853 0-.155.049-.31.066-.4568v-.3264c0-.1876.048-.3752.065-.5629v-1.5337-.6853c0-.2285 0-.3998-.049-.6037v-.204c0-.3182-.082-.6363-.131-.9545 0-.1795-.057-.359-.081-.5385l-.098-.8158c-.041-.3589-.049-.7179-.057-1.0687v-.465-.4569c-.003-.317.022-.6336.073-.9464l.066-.3752.057-.31.04-.253c0-.1958.066-.3916.106-.5874.117-.5575.284-1.1036.498-1.6316.18-.3848.385-.7581.611-1.1177l.115-.1958.318-.5303c.155-.2366.318-.4731.489-.6934.356-.4377.743-.8493 1.158-1.2319l.049.2366c.008.0814.008.1633 0 .2447-.025.1351-.066.2666-.123.3916-.187.4569-.334.9301-.473 1.3951l-.065.2284-.065.1958c-.065.204-.13.4079-.179.6119-.049.2039-.123.4568-.188.6853l-.057.1631c-.09.3345-.155.6609-.212 1.0035-.034.175-.056.3522-.065.5303v2.7004c-.001.0567.009.1131.03.1656.022.0525.054.1001.094.1398.041.0398.089.0708.142.0912.053.0205.109.0298.166.0276.062.0123.126.0123.187 0h.473l.661-.0979c.408-.0571.815-.1387 1.223-.2203.408-.0816.579-.0897.816-.1223l.766-.0653c.343 0 .693-.049 1.036-.0734h.595l1.46-.0898h.146c.196 0 .4 0 .588-.0408l.913-.1387c.113-.0102.22-.0592.302-.1386.04-.0477.071-.1032.089-.1632h5.717c.399.0489.815.0816 1.255.106l.522.0572.408.0407c.318 0 .636.0572.962.0735.326.0163.767.0734 1.134.1223l.897.0979h1.109l.416-.0407h.579c.13 0 .252 0 .375.0734.114.0477.226.1022.334.1631.093.0935.219.1463.351.1469.059.0006.119-.0114.173-.0353.055-.0239.104-.0592.145-.1034.251-.3178.474-.6562.668-1.0116.19-.3567.35-.7276.481-1.1095.1-.0071.195-.0469.27-.1132a.44996.44996 0 00.146-.254l.09-.5874.171-1.1748c0-.2284.082-.4568.131-.6771v-.1142l.171-.8158c.122-.5466.253-1.0851.391-1.6317.061-.2313.11-.4654.147-.7016.041-.1721.071-.3464.09-.5221a1.2 1.2 0 000-.1469l.473.669c.179.2611.351.5058.489.7506.304.5496.576 1.1161.816 1.6969.264.6407.468 1.3043.611 1.9824.065.2937.098.6038.139.9056v.1958c0 .1795.057.359.081.5303v.2937l.049.4079c0 .204 0 .4079.074.62.012.2732.116.5344.293.7424.059.055.128.0972.204.1239.076.0267.156.0373.237.0311h.44c.139 0 .269 0 .399-.0489H215.221c.171 0 .334 0 .497.0489h.71c.174-.0121.348-.0121.522 0h.212l.326.0571c.128.0085.256.0085.383 0 .298.065.606.0706.905.0164l.09-.0408c.101.0085.202-.0175.287-.0738a.45042.45042 0 00.178-.2362c.042-.146.063-.2969.065-.4487v-.8893l.049-.4569c0-.3671.057-.726.057-1.085s0-.7506-.057-1.1258v-.2448-.2529c0-.0816 0-.3998-.065-.6037-.049-.359-.122-.7098-.188-1.0687v-.1306l-.089-.4405c-.049-.2448-.098-.4895-.139-.7424-.041-.2529-.082-.3427-.131-.5221-.048-.1795-.106-.2856-.163-.4324.069.031.135.0693.196.1142.113.0957.217.2023.31.3182.201.2982.378.6119.53.9381.114.253.236.4977.342.7506l.139.2855c.18.3835.351.7669.522 1.1504.171.3834.212.5466.302.8158.089.2692.122.4487.171.669l.073.2855c.145.5618.259 1.131.343 1.7051V52.1692c-.013.3633-.045.7255-.098 1.0851v.0897c0 .2121-.057.4243-.073.6445l-.049.4487-.066.3998c0 .2611-.089.5303-.114.8158-.017.2717-.017.5442 0 .8158v3.1328c0 .2284 0 .465.074.6935.037.2804.111.5547.22.8158.036.0734.077.1443.122.2121.087.1518.204.2849.343.3916.136.0924.3.1356.464.1224h.685c.172 0 .343 0 .514-.0571h.114c.196.0284.389.0693.579.1223h.098l.335.0898c.251.0534.499.1242.742.2121.228.0929.446.2077.652.3426.137.1155.263.2439.375.3835.037.0411.082.0735.133.0946.051.0212.106.0307.161.0278a.4427.4427 0 00.171-.0292c.055-.021.104-.0527.147-.0932.039-.0395.071-.0866.092-.1385.021-.0518.031-.1074.03-.1634.057-.1876.114-.3589.163-.5303.035-.1535.062-.3087.082-.465v-.1142c0-.2366.065-.4732.089-.7179.025-.2448 0-.3182.049-.4732v-.1795c.041-.3018.09-.6037.106-.9055.017-.3019.057-.7751.098-1.1422 0-.1632 0-.3263.057-.4895s.057-.4569.074-.6935c0-.3671.048-.7424.048-1.1095v-2.2435c0-.3997-.048-.8158-.089-1.2156-.037-.3969-.094-.7918-.171-1.1829v-.155l-.155-.9301c0-.1958-.066-.3834-.09-.571l-.008-.5222v-.2774c-.114-.6689-.229-1.3624-.4-2.0395-.212-.8158-.432-1.5256-.669-2.1701-.081-.2203-.163-.4324-.252-.6445l-.147-.3671c-.147-.3672-.294-.7343-.457-1.0851-.163-.3508-.318-.7016-.497-1.0361l-.595-1.0198-.563-.979c-.155-.2529-.318-.5058-.481-.7587l-.155-.2284-.188-.2856c-.179-.2692-.359-.5384-.546-.8158-.188-.2774-.383-.5058-.579-.7505l-.188-.2285a16.56456 16.56456 0 00-1.63-1.7377c-.319-.2937-.653-.5792-.987-.8566-.335-.2774-.473-.3671-.71-.5466-.236-.1795-.269-.1876-.391-.2855l.073.0815-.163-.1468-.693-.5058-.081-.049-.376-.2855-.366-.2855c-.297-.2199-.604-.4241-.922-.6119-.326-.1958-.652-.3753-.978-.5548-.295-.1591-.6-.2982-.914-.416l-.122-.0572.09.0653-.115-.0734-.228-.1224-.579-.2937-.44-.2121c-.404-.2014-.821-.3758-1.248-.5221l-1.566-.5303-.725-.2448-1.199-.3834-.815-.2366-.327-.0897c-.391-.1077-.789-.1921-1.19-.2529-.277-.049-.538-.0735-.816-.0979h-.252l-.588-.0898h-.195l-.938-.106h-.457c-.465-.0408-.937-.0816-1.402-.1061h-.628c-.367 0-.742-.0653-1.125-.0653h-1.167l.294-.3263c.204-.2366.408-.4813.603-.7342.196-.2529.196-.2856.294-.4324l.073-.1224c.181-.2942.318-.613.408-.9463.082-.2937.155-.5874.22-.8893.062-.3171.092-.6396.09-.9627v-1.0198-.8403c-.025-.3897-.08-.7769-.163-1.1584v-.1387c-.072-.3008-.167-.5954-.286-.8811 0-.1142-.089-.2203-.13-.3345v-.0408c-.16-.516-.362-1.018-.603-1.5011l-.106-.2284c-.106-.2285-.212-.4487-.335-.6772-.122-.2284-.318-.6118-.473-.9219a4.79908 4.79908 0 00-.742-1.1503c-.187-.2121-.375-.4405-.571-.6526a6.071 6.071 0 00-.815-.8159c-.257-.2061-.529-.3916-.816-.5547l-.391-.2529-.538-.3264c-.237-.1305-.481-.2447-.726-.3589l-.204-.0979a6.6689 6.6689 0 00-.913-.3671c-.315-.106-.637-.1932-.962-.2611-.424-.0979-.816-.1632-1.15-.2203-.334-.0571-.693-.0734-1.044-.0979-.351-.0245-.815-.0408-1.231-.0408M179.5 72.5l-4 .5c2.148 2.5384 3.5 4.5 5.5 6.5 2.538 1.7574 3.962 2.7426 6.5 4.5l1.5-.5c-4-3.5-6.5-5.5-9.5-11zM219.674 72.435c-.067-.001-.134.013-.194.041-.061.028-.115.07-.157.122-.061.072-.113.152-.155.237.003.019.003.038 0 .057v.049l-.318.465c-.305.45-.578.922-.815 1.411-.245.49-.506.963-.816 1.428-.31.465-.554.881-.815 1.313-.261.433-.498.71-.759 1.053-.297.361-.612.707-.946 1.036-.309.326-.627.661-.954.979-.326.318-.668.628-1.019.93l.09-.074c-.22.188-.449.367-.661.563-.169.153-.322.322-.456.506-.036.062-.053.133-.049.204l-.155.073c-.205.093-.415.174-.628.245-.054.016-.104.042-.147.078-.043.035-.078.079-.104.129-.026.049-.042.103-.046.159-.005.056.002.112.02.165.035.105.11.193.209.245.099.051.214.063.321.032.187-.065.367-.122.546-.204l.644-.31c.383-.212.767-.432 1.142-.661.375-.228.677-.416.995-.644.318-.229.66-.49.995-.726.334-.237.595-.425.88-.661.286-.237.653-.563.971-.816l.864-.816c.294-.285.595-.563.881-.816.473-.489.921-1.011 1.378-1.517.212-.237.432-.465.628-.71.195-.245.424-.53.644-.816.359-.432.709-.865 1.036-1.321.065-.096.11-.204.13-.319.015-.064.016-.13.003-.195a.48717.48717 0 00-.076-.18l-.09-.106a.38872.38872 0 00-.119-.174c-.054-.046-.12-.076-.191-.087-.125-.012-.25-.012-.375 0-.177-.012-.354-.012-.53 0h-.343l-.342-.065c-.106 0-.212-.09-.326-.123l-.294-.098c-.084-.038-.171-.068-.261-.089h-.081a.45319.45319 0 00-.147 0l-.008.008zm.399.032h.074-.074zm.636.221h.057-.057zM213.011 100.14c-.109.019-.21.073-.285.155-.09.091-.17.193-.236.302-.218.336-.452.66-.702.971l-.163.22c-.159.122-.309.256-.448.4-.056.078-.085.173-.082.269l-.155.196-.546.457c-.261.22-.522.424-.816.636-.293.212-.505.376-.758.563-.106.082-.22.155-.334.229l-.514.342-.718.465h.041l-.073.049-.139.082-.351.106c-1.403.397-2.827.718-4.264.963-1.325.223-2.662.37-4.004.44h-.661c-.318-.139-.644-.245-.97-.351l-.612-.253-1.631-.693-1.631-.742-.815-.4-.473-.204c-.157-.066-.318-.123-.481-.172l-.22-.065h-.147l-.628-.457c-.44-.326-.864-.669-1.28-1.019-.416-.351-.726-.629-1.077-.955-.35-.326-.701-.71-1.06-1.052-.139-.14-.298-.258-.473-.351-.096-.043-.197-.074-.301-.09-.126-.009-.251.029-.351.106-.084.056-.163.119-.237.188-.133.111-.254.237-.358.375-.07-.02-.143-.02-.212 0-.103.045-.183.128-.224.232-.042.104-.04.22.004.323.094.258.223.502.383.726.122.171.261.326.391.481.253.302.489.62.726.93.114.147.22.294.342.433.145.182.303.354.473.514.302.302.636.571.971.815.616.514 1.277.973 1.973 1.371.678.395 1.378.752 2.096 1.069l1.06.432c.375.155.758.302 1.142.424.383.123.709.213 1.06.31.35.098.815.196 1.174.286.359.09.766.147 1.15.212.383.065.815.122 1.166.163l1.117.139c.36.034.723.047 1.085.041.386.001.773-.018 1.157-.057.367-.049.743-.123 1.11-.204.815-.18 1.59-.376 2.364-.629l.514-.171c.184-.069.363-.148.538-.236l1.011-.474c.359-.179.718-.375 1.061-.579.342-.204.709-.432 1.043-.677.335-.245.612-.489.93-.734.318-.245.571-.433.815-.686.245-.252.563-.505.816-.766l.685-.653c.206-.197.402-.404.587-.62.147-.171.318-.335.465-.506.146-.171.261-.31.383-.457.124-.143.236-.295.334-.457.073-.146.09-.314.049-.473-.034-.13-.089-.254-.163-.367-.06-.083-.131-.157-.212-.22l-.212-.163-.179-.155c-.089-.074-.188-.135-.294-.18-.106-.05-.219-.086-.334-.106l-.237-.049H212.873l.138.008zm-25.262 1.444h.04-.04z" fill="#2C2C2C"/><path d="M204.914 90.595a.55254.55254 0 010-.115c.125 1.001.374 1.982.742 2.921.114.261.237.514.375.767.17.284.358.556.563.816l-.049-.057.049.057c.547.669 1.171 1.271 1.859 1.795 1.731 1.213 3.561 2.277 5.472 3.181.937.49 1.851 1.004 2.748 1.559.897.554 1.769 1.158 2.609 1.786 1.655 1.247 3.196 2.636 4.608 4.153 1.393 1.513 2.643 3.151 3.734 4.895 1.105 1.77 2.047 3.638 2.814 5.58.826 2.166 1.496 4.388 2.006 6.649 1.168 4.952 1.905 9.997 2.201 15.076.163 2.709.204 5.417.139 8.118 0 1.305-.106 2.61-.188 3.908-.048.644-.097 1.289-.163 1.925-.065.636-.098 1.036-.163 1.558h-.815c.122-.905.196-1.827.269-2.741.073-.914.122-1.787.171-2.684.093-1.876.125-3.753.098-5.629-.052-3.744-.324-7.482-.815-11.193v.114c-.369-2.765-.878-5.51-1.525-8.224-.564-2.487-1.325-4.926-2.275-7.293-1.109-2.618-2.545-5.086-4.273-7.343l.065.082c-1.74-2.237-3.753-4.246-5.994-5.98-1.655-1.258-3.411-2.377-5.251-3.345-1.914-.919-3.762-1.972-5.529-3.149-.845-.598-1.61-1.303-2.275-2.097-.301-.356-.574-.735-.816-1.134-.232-.426-.428-.871-.587-1.329-.321-.952-.532-1.938-.628-2.937-.106-1.036-.13-2.078-.073-3.117 0-.255.016-.508.049-.759.21-.055.417-.123.62-.204l.261-.122c-.176 1.518-.176 3.051 0 4.569M195.225 86.1571l.253.066c0 .285.049.571.065.816.054 1.042.027 2.086-.082 3.124-.095 1-.306 1.986-.628 2.937-.158.459-.355.904-.587 1.33-.223.399-.479.778-.766 1.134-.668.792-1.432 1.496-2.275 2.097-1.77 1.173-3.617 2.226-5.529 3.1489-1.845.964-3.604 2.083-5.26 3.345-2.258 1.746-4.288 3.768-6.042 6.02l.065-.081c-1.729 2.257-3.165 4.724-4.273 7.342v.065c-.951 2.364-1.71 4.8-2.267 7.286-.658 2.716-1.178 5.463-1.558 8.232v-.115c-.499 3.711-.771 7.449-.815 11.193 0 1.877.03 3.753.09 5.63.049.897.106 1.786.171 2.684.065.897.155 1.835.269 2.741h-.815c-.066-.514-.123-1.036-.163-1.558-.058-.645-.115-1.281-.155-1.926-.09-1.305-.155-2.602-.188-3.908-.065-2.708 0-5.408.139-8.117.29-5.08 1.023-10.125 2.193-15.076.499-2.263 1.156-4.487 1.965-6.658.764-1.941 1.703-3.809 2.806-5.58 1.091-1.743 2.341-3.382 3.734-4.895 1.411-1.516 2.953-2.906 4.608-4.152.815-.629 1.712-1.232 2.609-1.787.897-.555 1.81-1.069 2.748-1.5579 1.912-.906 3.745-1.97 5.48-3.182.683-.526 1.304-1.128 1.851-1.795.199-.26.381-.533.546-.816.139-.244.261-.497.384-.758.364-.94.613-1.921.742-2.921v.114c.167-1.513.167-3.039 0-4.552.199.063.404.11.611.139M200.021 61.3467c.079.078.126.1828.131.2937.05.2997.135.5926.253.8729.348.748.735 1.4778 1.158 2.1864.195.3504.375.7014.546 1.0604.159.353.279.723.359 1.102.061.323.061.655 0 .979-.073.329-.24.629-.481.864-.134.137-.288.253-.457.343-.194.112-.399.205-.612.277-.288.098-.586.164-.888.196-.144.008-.289.008-.433 0-.186 0-.371-.016-.554-.049-.105-.032-.195-.102-.253-.196-.029-.048-.047-.102-.054-.159-.007-.056-.002-.113.013-.167.031-.106.101-.197.196-.253a.4474.4474 0 01.326 0h.065c.212.021.425.021.636 0 .301-.05.596-.129.881-.236.15-.063.292-.142.424-.237.075-.064.146-.132.212-.204.036-.058.069-.118.098-.179.03-.074.052-.151.065-.229.012-.127.012-.256 0-.383-.053-.306-.141-.604-.261-.89-.358-.815-.815-1.6312-1.255-2.3736a8.66875 8.66875 0 01-.563-1.1503c-.074-.1795-.139-.3508-.196-.5385a3.83532 3.83532 0 01-.114-.62c-.002-.0549.007-.1097.028-.1605.022-.0507.054-.0962.094-.1332.04-.0396.087-.0709.139-.0919a.41413.41413 0 01.163-.0305c.055-.0013.109.009.16.03.05.0211.096.0526.134.0924l.04-.0163zm.351 1.1993v.0407a.07052.07052 0 010-.0407zm.465 5.9151h-.049.049z" fill="#2C2C2C"/><path d="M221.583 61.8291c0 .1958-.049.3998-.082.6037.004.0189.004.0383 0 .0572-.38 2.829-1.103 5.602-2.153 8.256v.049c-.017.062-.038.122-.065.18l-.049.122c-.017.031-.031.064-.041.098l-.057.122c-.342.816-.717 1.632-1.125 2.382v.058l-.073.146-.107.188c-.733 1.342-1.567 2.626-2.495 3.843l-.342.424c-1.183 1.469-2.529 2.799-4.012 3.965-.375.285-.767.571-1.158.816l-.106.073h-.049l-.082.057-.057.041h-.065l-.082.057h-.049l-.097.057-.115.073-.122.074-.122.073c-.762.447-1.552.845-2.365 1.191l-.196.082h-.22c-.473.179-.946.343-1.427.489h-.196c-.756.219-1.528.386-2.307.498h-.351l-.424.049h-.367c-1.315.114-2.639.081-3.947-.098h-.318c-1.413-.238-2.794-.635-4.118-1.183h-.049c-1.572-.693-3.056-1.572-4.419-2.619-1.643-1.178-3.14-2.547-4.461-4.079l-.057-.073c-.025-.037-.053-.072-.082-.106l-.065-.09c-.025-.037-.052-.072-.081-.106l-.058-.057c-.031-.032-.059-.067-.081-.106l-.065-.082-.074-.114c-.024-.028-.046-.058-.065-.09 0 0-.057-.073-.073-.106-.02-.031-.042-.061-.066-.089l-.081-.115c-.014-.03-.034-.058-.057-.081l-.082-.123c-.014-.025-.03-.05-.049-.073l-.089-.131-.049-.081-.082-.123-.049-.073-.089-.131c-.011-.026-.025-.05-.041-.073l-.09-.139v-.057c-.033-.047-.063-.096-.09-.147-.016-.019-.03-.041-.04-.065-.033-.047-.063-.096-.09-.147v-.057l-.098-.155c.002-.016.002-.033 0-.049a.96174.96174 0 00-.09-.155v-.049l-.097-.163v-.049l-.098-.163v-.057l-.261-.22-.057-.049-.074-.131c-.014-.038-.033-.073-.057-.106 0-.041-.041-.073-.057-.106l-.073-.139c-.011-.026-.024-.05-.041-.073 0-.074-.073-.139-.106-.212-.367-.702-.693-1.412-1.003-2.146 0 0-.098-.236-.147-.367v-.065a.46234.46234 0 01-.073-.196c-.026-.053-.047-.107-.066-.163-.876-2.284-1.515-4.651-1.908-7.0652-.049-.2937-.098-.5874-.138-.8893l-.098-.8158h-.041l-.13-.0408a.17405.17405 0 01-.07.0147c-.024 0-.047-.005-.069-.0147-.196-.0734-.383-.155-.571-.2447.139 1.24.326 2.4474.571 3.6878.004.049.004.098 0 .147v.089c.311 1.466.717 2.911 1.215 4.324.691 1.985 1.573 3.897 2.634 5.711.31.522.636 1.028.97 1.534.796 1.184 1.682 2.305 2.651 3.353l.277.293c.781.818 1.621 1.579 2.511 2.277.951.756 1.966 1.428 3.034 2.007l.448.236.115.057c1.414.737 2.919 1.286 4.476 1.632l.938.179.514.082c2.304.322 4.648.2 6.907-.359.416-.098.815-.22 1.223-.351l.155-.049.147-.049c1.514-.507 2.961-1.201 4.305-2.064l.742-.497.163-.106c.253-.172.49-.351.734-.539l.114-.09.09-.073.065-.049.147-.122c.31-.245.612-.506.905-.767l.123-.115c.897-.816 1.732-1.7 2.495-2.643.073-.09.147-.171.212-.261s.179-.228.269-.342c1.519-1.958 2.788-4.099 3.776-6.372.073-.171.146-.335.212-.506l.057-.13c.663-1.59 1.208-3.226 1.631-4.895.106-.441.212-.89.301-1.338.271-1.2802.473-2.5738.604-3.8755l-.881.3997.188-.0571zM179.864 71.3091l.008.008-.008-.008zM177.058 57.7664c.024.0279.046.058.065.0898-.023-.0941-.082-.1758-.163-.2286l.082.1225" fill="#2C2C2C"/><path d="M223.825 61.2251a5.5556 5.5556 0 00-1.509.2448l-.522.2365c-.05.0503-.086.1133-.103.1823-.017.0689-.015.1413.005.2093.031.1081.103.1997.201.2548.097.0551.213.0691.321.0389.35-.1248.71-.2176 1.077-.2773.314-.0368.631-.0368.945 0 .28.0389.553.1101.816.2121.224.0994.434.2254.628.3752.212.1644.403.3534.571.563.227.3031.419.6316.57.979.179.4546.305.9284.376 1.4114v.073c.069.583.069 1.172 0 1.754v-.114c-.08.579-.23 1.147-.449 1.689-.188.434-.426.845-.709 1.224-.266.335-.57.639-.906.905-.325.247-.678.455-1.051.62-.454.184-.927.313-1.411.384-.593.073-1.193.073-1.786 0-.346-.055-.685-.148-1.011-.278-.068-.023-.134-.053-.196-.089a.4474.4474 0 00-.326 0c-.053.013-.103.037-.147.071-.043.034-.079.076-.106.124-.057.097-.073.212-.046.32.028.109.097.202.193.26.295.145.603.26.921.342.268.069.541.118.816.147.542.06 1.089.06 1.631 0 .364-.035.724-.103 1.076-.204 1.439-.423 2.66-1.384 3.409-2.684.584-1.013.914-2.152.962-3.32.066-1.102-.141-2.2039-.603-3.2065-.415-.921-1.143-1.6642-2.055-2.0967-.492-.2141-1.022-.3252-1.558-.3263l-.024-.0245zm-3.98 10.712h.057-.057zM175.085 61.3316c-.534.0011-1.061.1122-1.55.3263a4.2154 4.2154 0 00-2.054 2.0885c-.467 1.0216-.674 2.1426-.604 3.2636.047 1.166.377 2.303.962 3.312.613 1.017 1.516 1.827 2.593 2.325.289.129.586.238.889.326.352.101.712.17 1.077.204.542.06 1.089.06 1.631 0 .274-.033.546-.082.815-.146.317-.089.625-.207.922-.351.095-.058.165-.151.194-.259.029-.108.014-.223-.04-.32a.4339.4339 0 00-.261-.188c-.102-.041-.215-.041-.318 0-.062.036-.127.067-.195.09-.329.128-.671.221-1.02.277-.571.065-1.148.065-1.72 0h-.065c-.485-.074-.958-.205-1.411-.392-.373-.166-.726-.374-1.052-.62-.334-.268-.637-.572-.905-.905-.285-.383-.525-.796-.718-1.232-.218-.543-.368-1.11-.448-1.689a.543.543 0 000 .114 7.0202 7.0202 0 010-1.762v-.065c.072-.483.197-.9565.375-1.4115.153-.3464.345-.6748.571-.979.312-.3984.715-.7171 1.174-.93.263-.1009.536-.1721.815-.2121.315-.0367.632-.0367.946 0 .37.0586.734.1542 1.085.2855.108.0274.222.0111.319-.0454a.42572.42572 0 00.195-.2564c.024-.0804.023-.1666-.005-.2459-.028-.0794-.081-.1476-.15-.1947l-.367-.155a5.70812 5.70812 0 00-1.631-.2692l-.049.0163zm-2.389 2.0233c.002.0162.002.0327 0 .0489v-.0489zm-.482 5.8171v.049-.049zm6.875 2.912h-.057.057zM172.939 70.4121l-.007-.008.007.008z" fill="#2C2C2C"/><path d="M175.166 64.4151c-.369.028-.731.1105-1.076.2447-.386.1524-.741.3702-1.052.6442-.04.039-.071.085-.093.137-.021.051-.033.106-.033.161 0 .056.012.111.033.162.022.051.053.097.093.136.037.04.083.071.134.092.05.021.105.032.159.03.113-.002.22-.046.302-.122l.074-.057c.2-.151.416-.28.644-.384.24-.087.489-.15.742-.187.271-.026.544-.026.815 0 .28.051.554.133.816.244l.171.082c.103.036.215.036.318 0 .107-.033.199-.103.261-.196.056-.097.071-.213.042-.321a.42414.42414 0 00-.197-.258 4.97768 4.97768 0 00-1.06-.3753c-.267-.0619-.541-.092-.816-.0897h-.285l.008.0571zM202.801 70.7701h.073c.451.026.885.175 1.256.433.355.236.638.566.815.954.315.769.315 1.63 0 2.399-.073.185-.161.365-.261.538-.094.167-.203.325-.326.473-.257.318-.563.593-.905.816-.312.22-.649.403-1.003.547-.404.168-.821.302-1.248.399-.557.122-1.125.182-1.696.18h-.872c-.855-.104-1.683-.37-2.438-.783-.341-.176-.658-.393-.946-.645-.319-.272-.594-.591-.816-.946-.186-.291-.329-.607-.424-.938-.099-.336-.132-.688-.098-1.036.031-.337.13-.664.293-.96.163-.297.385-.556.653-.762.565-.431 1.255-.666 1.965-.669h.237c.612.086 1.201.288 1.737.596l.611.285.212.082h.106c.242-.038.478-.106.702-.204.187-.074.367-.163.554-.253l.563-.261c.397-.183.827-.283 1.264-.294l-.008.049zm-3.352 5.817c.335.001.67-.018 1.003-.057.535-.083 1.06-.222 1.566-.416l.253-.114c-.149-.175-.313-.336-.49-.482-.252-.186-.526-.342-.815-.465-.284-.1-.576-.176-.873-.228h-.522a4.517 4.517 0 00-.57 0c-.303.05-.601.129-.889.236-.259.116-.505.258-.734.425-.203.163-.388.346-.555.546l.131.09c.502.195 1.025.335 1.557.416.312.033.625.049.938.049zM181.519 33.854c-.79.1599-1.559.4118-2.291.7506-1.426.6778-2.699 1.6381-3.743 2.8228-1.085 1.2277-1.993 2.6006-2.699 4.0791a26.19893 26.19893 0 00-1.729 4.8134 31.446 31.446 0 00-.816 4.9439 33.27233 33.27233 0 000 5.9718c.225 2.5699.714 5.1097 1.46 7.579v-.0571c.103-.4045.231-.8023.383-1.1911.007-.0262.019-.0507.036-.0719a.18882.18882 0 01.062-.0504 38.20938 38.20938 0 01-.946-4.6666c.004.0161.004.0329 0 .049-.399-2.9224-.416-5.8844-.049-8.8109v.1142c.326-2.488.973-4.9232 1.925-7.2446.615-1.4751 1.412-2.8674 2.373-4.1444l-.065.0816c.66-.8552 1.421-1.6277 2.267-2.3006h.048-.04c.675-.5076 1.405-.9372 2.177-1.2809a10.2604 10.2604 0 012.552-.6771c.542-.0634 1.087-.0879 1.631-.0734.06.0044.12-.0034.177-.023a.43411.43411 0 00.153-.0911c.044-.0405.08-.0896.104-.1444.025-.0547.038-.1139.039-.1739 0-.0557-.011-.1109-.032-.1623-.021-.0515-.053-.0983-.092-.1377-.039-.0394-.086-.0706-.138-.0919-.051-.0214-.106-.0323-.162-.0323h-.318c-.759-.0016-1.516.0749-2.259.2284l-.008-.0082zM177.001 75.74c1.135 1.611 2.442 3.093 3.897 4.422a21.2213 21.2213 0 004.665 3.149c1.762.86 3.633 1.475 5.561 1.827.052.022.107.033.163.033.056 0 .112-.011.163-.033.064-.042.117-.097.155-.163-.092-.073-.176-.155-.252-.245l-.098-.13c-.139-.106-.269-.221-.4-.335-1.329-.287-2.628-.696-3.881-1.224-1.586-.676-3.082-1.547-4.453-2.594-.785-.616-1.529-1.284-2.226-1.999-.709-.728-1.376-1.496-1.998-2.3-.89-1.172-1.707-2.398-2.446-3.671-.334-.082-.661-.188-.979-.319l-.147-.065h.017c.687 1.25 1.45 2.457 2.283 3.614M177.67 36.5379l.007-.0076-.007.0076zM171.252 58.9109zM224.485 71.733l-.228.123-.457.302c-.263.169-.535.324-.815.465-.514.816-1.052 1.566-1.631 2.317-1.607 2.085-3.463 3.965-5.529 5.596-.681.523-1.389 1.01-2.12 1.461-.786.471-1.604.888-2.447 1.248h.049-.081c-1.631.693-3.384 1.248-5.056 1.892-.104.031-.193.098-.253.188-.056.102-.073.221-.049.335.033.106.105.197.202.252.097.054.212.069.32.041 2.318-.773 4.591-1.674 6.809-2.7 1.055-.561 2.059-1.214 3.001-1.95.94-.724 1.838-1.5 2.691-2.325a33.86 33.86 0 004.599-5.515c.367-.563.718-1.134 1.052-1.721h-.065l.008-.009zm-3.123 3.223v.049-.049z" fill="#2C2C2C"/><path d="M180.915 43.0818c-.105.0278-.196.095-.253.1877a25.83882 25.83882 0 00-1.476 4.3483 13.034 13.034 0 00-.293 2.2517c-.03.8214.041 1.6435.212 2.4475.014.0532.038.103.072.1467.034.0436.075.0802.123.1075.048.0273.101.0449.155.0516.055.0068.11.0027.163-.0121.109-.0306.201-.1023.257-.1998a.42776.42776 0 00.045-.3224c-.041-.1794-.073-.3671-.106-.5466a10.8329 10.8329 0 010-2.7167c.3-1.7199.81-3.3967 1.517-4.9928l.065-.1387c.054-.0999.068-.2163.041-.3263-.031-.1063-.101-.1968-.196-.2529a.3917.3917 0 00-.212-.0572c-.037-.0079-.076-.0079-.114 0v.0245zm.432.7016zM218.386 42.3471c-.096.0577-.165.1509-.193.2594-.027.1085-.011.2235.046.3199l.245.5384v.0653-.0408c.398.9678.672 1.982.815 3.0185.151 1.1454.151 2.3056 0 3.451a.4366.4366 0 000-.1142c-.088.6222-.227 1.2361-.416 1.8356a.4311.4311 0 00.042.3202c.055.0973.145.1696.252.2019.108.0259.222.01.318-.0444.097-.0545.17-.1435.204-.2493.468-1.525.64-3.1258.505-4.7155-.12-1.6244-.549-3.2109-1.264-4.6746a.39756.39756 0 00-.153-.1588c-.064-.0375-.139-.056-.213-.0534-.075.0025-.147.022-.212.0572l.024-.0164zm.93 4.1934v.0652a.14358.14358 0 010-.0652z" fill="#2C2C2C"/><path d="M180.621 42.9759c-.501.5034-.956 1.0493-1.362 1.6317-.405.5908-.746 1.2224-1.019 1.8845-.275.6602-.493 1.3425-.653 2.0396-.159.7091-.265 1.429-.318 2.1538-.071.691-.099 1.3858-.081 2.0803 0 .7098.098 1.4114.179 2.113.231 1.4593.291 2.9404.179 4.4136-.068.482-.188.9552-.358 1.4114-.112.245-.24.4821-.384.7098-.056.0964-.073.2113-.045.3198.027.1085.096.2018.192.2594.099.0545.215.0688.325.04a.43942.43942 0 00.262-.195c.114-.1876.22-.3753.318-.5711.103-.2174.193-.4408.269-.6689.148-.4671.247-.9483.294-1.4359.09-1.0356.065-2.078-.073-3.1083-.098-1.0198-.245-2.0314-.294-3.0512v-1.5256c0-.5058.065-.9953.122-1.4848.132-1.1181.406-2.2148.816-3.2633v-.0571c.332-.7421.745-1.4453 1.231-2.0967.294-.3723.61-.7265.946-1.0605a.43159.43159 0 00.123-.3019c0-.1128-.044-.2211-.123-.3019a.4482.4482 0 00-.302-.1142c-.108.0006-.213.0413-.293.1142l.049.0653zm-2.496 6.8611zm-.619 9.276v0zM218.343 42.3877c-.077.0788-.12.1838-.122.2937.002.1122.046.2197.122.3018.082.0898.155.1877.237.2856v-.0408l.057.0652c.544.7123.996 1.4909 1.345 2.317.48 1.2216.803 2.499.962 3.8017a.72566.72566 0 010-.1142c.066.4977.114.9953.155 1.5011.029.5027.029 1.0066 0 1.5093 0 1.0932-.155 2.1864-.244 3.2633-.108 1.0844-.129 2.1755-.066 3.2633.035.5031.112 1.0025.229 1.493.058.2401.129.477.212.7098.091.2376.203.4669.334.6853.056.0973.149.1683.257.1973.109.0291.225.0139.322-.0423.096-.0578.165-.1504.194-.2584.029-.108.015-.223-.039-.3209-.082-.1414-.155-.2801-.22-.416-.198-.5261-.332-1.0739-.4-1.6317-.119-1.4539-.092-2.9162.082-4.3647.172-1.4426.219-2.8976.138-4.3483-.108-1.4755-.381-2.9341-.815-4.3484a12.4682 12.4682 0 00-.816-1.9172c-.365-.6739-.8-1.3082-1.296-1.8927a.35142.35142 0 00-.129-.0937.3592.3592 0 00-.156-.0287c-.118-.0017-.232.0421-.319.1224l-.024.0082zm3.335 16.912z" fill="#2C2C2C"/><path d="M191.589 50.4976c-4.067-.0011-8.123.4254-12.101 1.2727-.109.0218-.205.0849-.269.1761a.43057.43057 0 00-.073.3134c.02.1107.082.2092.173.2747.092.0654.205.0928.316.0761 3.413-.743 6.889-1.1582 10.381-1.24 2.25-.0653 4.501-.0408 6.752.0489 1.1.0408 2.201.0979 3.302.1632 1.101.0653 2.365.155 3.547.3018.113.0092.224-.0257.311-.0973.086-.0716.142-.1742.154-.2861.009-.1113-.026-.2217-.098-.3072-.071-.0855-.174-.1393-.285-.1497-1.011-.1305-2.039-.2039-3.058-.2692-1.019-.0652-2.006-.1142-3.001-.1631-1.631-.0735-3.311-.1224-4.966-.1224h-1.085" fill="#2C2C2C"/><path d="M206.334 42.5433c-.112.0124-.215.0679-.286.1547a.43186.43186 0 00-.098.3103V43.8323c-.059 1.2808-.275 2.5493-.644 3.7773v.0734c-.267.8846-.645 1.7316-1.125 2.5209-.203.3179-.432.6181-.685.8974-.041.0422-.072.0922-.092.147-.02.0547-.029.1131-.025.1714.003.0582.018.1152.045.1672.026.0521.063.0981.108.1353a.4234.4234 0 00.153.0806c.056.0161.115.0203.173.0126.058-.0077.113-.0273.163-.0575.05-.0303.093-.0705.127-.1181.987-1.1866 1.692-2.5812 2.063-4.0792.232-.8009.398-1.6195.498-2.4474.093-.744.126-1.4943.097-2.2436-.008-.1046-.055-.2022-.132-.2733-.077-.0711-.179-.1104-.283-.1101l-.057.0571zm-.987 5.0745v-.049.0653-.0163z" fill="#2C2C2C"/><path d="M206.129 42.5186a.40658.40658 0 00-.094.1419c-.021.0534-.031.1107-.028.1681.003.1095.047.214.122.2937.09.0979.171.2039.261.31.625.8289 1.148 1.7301 1.558 2.6841.381.903.654 1.8477.815 2.8146.1.6614.12 1.3326.057 1.9987 0 .1632-.057.3264-.09.4895-.025.1092-.006.2237.052.3196.057.0958.15.1655.258.1944.054.0146.111.018.166.0102a.41257.41257 0 00.157-.0557c.048-.029.09-.0673.123-.1128.032-.0454.056-.097.068-.1517a9.24445 9.24445 0 00-.432-4.7726c-.274-.8194-.623-1.6115-1.044-2.3659-.386-.7001-.842-1.3589-1.362-1.9661a.37124.37124 0 00-.13-.0914.37998.37998 0 00-.155-.031c-.057-.0016-.114.0084-.168.0295-.053.021-.101.0526-.142.0929" fill="#2C2C2C"/><path d="M209.335 51.0849c-.088.0253-.166.0788-.222.1524a.42716.42716 0 00-.085.2555c0 .0922.03.1819.085.2555.056.0736.134.1271.222.1524a59.4879 59.4879 0 017.91.0979h-.081c.636.0734 1.272.1632 1.908.2774.109.0228.222.0036.318-.054.095-.0575.165-.149.195-.256.025-.1092.007-.2237-.051-.3196-.058-.0958-.15-.1655-.258-.1944a31.47536 31.47536 0 00-4.95-.4569h-1.077c-1.312 0-2.625.049-3.938.0898M184.984 8.96326c-1.905.2879-3.756.8542-5.496 1.68064a23.00074 23.00074 0 00-5.138 3.3449c-1.563 1.3372-2.913 2.9053-4.004 4.6502-1.018 1.6191-1.706 3.4243-2.022 5.311-.141.9395-.176 1.8917-.106 2.8391.037.4713.102.9399.196 1.4032.101.447.234.886.399 1.3135.353.9028.822 1.7558 1.395 2.5372.575.8068 1.249 1.5386 2.006 2.1783.738.6274 1.562 1.1466 2.446 1.5419.864.3771 1.79.5928 2.732.6363a.43036.43036 0 00.297-.1265c.079-.0792.125-.1859.127-.2977a.43928.43928 0 00-.129-.2955c-.078-.0787-.184-.1247-.295-.1287-.196 0-.392 0-.579-.049a7.79223 7.79223 0 01-1.802-.5058c-.674-.3179-1.312-.7092-1.9-1.1666a11.93705 11.93705 0 01-2.014-1.9743c-.569-.7388-1.046-1.5443-1.419-2.3986-.139-.3426-.253-.6934-.359-1.0442-.088-.333-.156-.6708-.204-1.0116a12.06708 12.06708 0 010-3.1083.72566.72566 0 000 .1142c.159-1.1206.458-2.2168.889-3.2633v.0408c.562-1.306 1.285-2.5366 2.153-3.6631 1.067-1.3456 2.29-2.5589 3.645-3.6141 1.475-1.1301 3.082-2.0754 4.786-2.8146 1.52-.6481 3.119-1.0925 4.755-1.32164h-.106a16.5753 16.5753 0 014.403 0 13.3484 13.3484 0 013.082.81584h.074c.801.348 1.56.7888 2.259 1.3135.674.5283 1.282 1.1364 1.81 1.8111.551.7402 1.013 1.5425 1.378 2.3904v.106c.465 1.1532.788 2.3585.962 3.5897v-.1061c.135 1.059.135 2.1309 0 3.1899a7.92005 7.92005 0 01-.456 1.7051v.0734-.0653c-.162.3576-.362.6967-.596 1.0116a4.013 4.013 0 01-.35.3916c-.042.0392-.074.0863-.097.1384a.40932.40932 0 00-.035.1652c-.001.0568.01.1132.032.1657.022.0526.054.1002.094.1402.041.0399.089.0713.141.0922.053.021.11.0312.167.0299.056-.0013.112-.014.164-.0374.052-.0233.099-.0569.137-.0986 1.443-1.444 1.794-3.5815 1.729-5.5558-.047-1.029-.195-2.0509-.44-3.0512-.222-.9193-.53-1.8154-.922-2.6759-.403-.875-.913-1.697-1.517-2.4475-.57-.6913-1.224-1.3081-1.949-1.8356a11.95195 11.95195 0 00-4.835-2.04774 15.0971 15.0971 0 00-2.683-.2039h-.245c-.848.005-1.696.0677-2.536.1876h-.024zM199.23 22.8323zm-30.131 4.4544zm.897-6.135v-.0571.0571zm28.231-4.9602v.0571-.0571zm-5.472-5.5476h-.073.057M186.526 99.8961c-.078.081-.122.1889-.123.3019.002.11.046.215.123.293 1.431 1.677 3.108 3.127 4.974 4.3 1.907 1.185 4.03 1.981 6.246 2.341 2.354.361 4.759.162 7.021-.579 2.067-.707 3.974-1.816 5.611-3.263.375-.327.733-.669 1.084-1.028.334-.343.652-.694.962-1.061l.09-.098h.041l.049-.057.049-.049v-.049l.106-.13c.09-.031.168-.089.224-.167.056-.077.085-.17.086-.266a.4193.4193 0 00-.123-.293c-.039-.041-.086-.074-.137-.0959a.4426.4426 0 00-.164-.035c-.057-.001-.113.01-.165.033-.052.0219-.099.0559-.137.0979l-.123.155v.049l-.089.114-.09.106-.081.098c-.286.334-.579.661-.889.979-.367.367-.751.718-1.142 1.06l-.644.523h-.049c-1.054.795-2.198 1.463-3.409 1.99h.049H205.77c-1.198.498-2.456.835-3.743 1.004-1.232.151-2.478.151-3.71 0h.114c-1.425-.108-2.829-.408-4.175-.89-1.419-.614-2.756-1.403-3.979-2.349-1.153-.907-2.215-1.924-3.172-3.0349-.036-.041-.08-.073-.129-.094-.05-.021-.103-.031-.157-.028-.115-.002-.226.042-.31.122h.017zm22.473 3.4589h-.048.048z" fill="#2C2C2C"/><path d="M184.266 101.062c-.039.038-.07.084-.091.134-.021.051-.032.105-.031.16.002.112.046.219.122.302.756.954 1.574 1.859 2.447 2.708.743.722 1.53 1.398 2.356 2.023 1.422 1.076 2.976 1.964 4.624 2.644 1.184.483 2.417.839 3.678 1.06 1.441.258 2.91.33 4.37.212 2.655-.23 5.222-1.068 7.503-2.447.35-.212.693-.433 1.027-.669h.049l.098-.065.09-.066c.497-.359.97-.734 1.427-1.125h.04c.375-.335.742-.678 1.093-1.037.359-.367.709-.742 1.044-1.142l.098-.114.098-.122.057-.074.065-.081v-.049c.253-.318.505-.645.742-.971.019-.032.041-.062.065-.09l.065-.098c.054-.098.068-.213.04-.321-.029-.108-.099-.2-.195-.258-.051-.022-.107-.033-.163-.033-.056 0-.111.011-.163.033-.102.038-.19.106-.253.196l-.106.139-.375.513v.049c-.089.123-.187.237-.285.359-.023.034-.05.064-.082.09l-.097.123c-.343.399-.694.815-1.061 1.166l-.048.057c-.359.359-.718.702-1.093 1.036-.294.253-.587.506-.889.743l-.53.399-.237.164c-.375.261-.758.514-1.149.742-.626.369-1.274.699-1.941.987h-.082c-1.307.547-2.676.931-4.077 1.142-1.489.196-2.996.196-4.485 0h.057c-1.462-.214-2.893-.6-4.265-1.15l-.212-.09h.106c-1.543-.664-2.999-1.514-4.338-2.529l-.098-.081v.04l-.073-.057c-1.65-1.298-3.134-2.794-4.42-4.454-.036-.042-.081-.074-.132-.096a.35492.35492 0 00-.161-.026c-.056-.001-.112.009-.164.03-.052.021-.099.052-.138.092l.073-.098zm22.352 7.269h.049-.057.008zm-17.329-2.806h-.04.04zm25.002-3.337v.049-.049zM188.522 66.7161c1.118 0 2.031-1.257 2.031-2.8148 0-1.5582-.913-2.8146-2.031-2.8146-1.117 0-2.022 1.2646-2.022 2.8146 0 1.5498.905 2.8148 2.022 2.8148zM187.48 53.6229c-.524.0673-1.035.2102-1.517.4242-.46.2168-.89.4909-1.28.8158-.188.155-.376.3182-.547.4895-.189.1961-.364.4061-.522.6282-.029.0472-.047.0999-.054.1547-.007.0549-.003.1106.014.1635.033.1091.106.202.203.2611.103.036.215.036.318 0 .108-.0356.201-.1077.261-.204l.041-.0571c.242-.3005.515-.5741.816-.8158.374-.2791.779-.5145 1.206-.7016.363-.1441.74-.2481 1.126-.3101.271-.0239.544-.0239.815 0l.31.0572c.108.0246.222.006.316-.0519.095-.058.163-.1506.19-.2582.027-.1081.011-.2227-.046-.3189a.42112.42112 0 00-.256-.195c-.3-.0653-.606-.0981-.913-.0979a3.5904 3.5904 0 00-.506 0M209.995 66.292c-1.118 0-2.031-1.256-2.031-2.8143 0-1.5582.913-2.8146 2.031-2.8146 1.117 0 2.022 1.2645 2.022 2.8146 0 1.5503-.905 2.8143-2.022 2.8143zM211.037 53.1896c.523.0739 1.034.2194 1.517.4324.459.201.889.4616 1.28.775.188.155.375.3182.547.4895.189.1961.364.4061.522.6282.022.0501.033.1043.033.1591 0 .0548-.011.109-.033.1591a.46955.46955 0 01-.204.261.43134.43134 0 01-.318 0c-.105-.0333-.195-.1027-.253-.1958l-.049-.0571c-.24-.3024-.513-.5761-.815-.8158-.373-.282-.778-.5176-1.207-.7016-.363-.1451-.74-.2491-1.126-.31-.271-.028-.544-.028-.815 0l-.31.0571c-.108.0247-.221.006-.316-.0519-.094-.058-.162-.1506-.19-.2581-.027-.1082-.011-.2228.046-.319.056-.0962.148-.1662.256-.195.3-.0653.606-.0981.913-.0979h.506" fill="#2C2C2C"/></g><path d="M156.44 213.56h-5.324v16.449c0 5.606 4.143 9.432 10.665 9.432 6.506 0 10.649-3.826 10.649-9.432V213.56h-5.324v15.92c0 3.261-1.922 5.395-5.325 5.395-3.42 0-5.341-2.134-5.341-5.395v-15.92zM178.043 239h5.148v-10.842c0-2.451 1.463-4.143 3.773-4.143 2.309 0 3.473 1.41 3.473 3.878V239h5.148v-12.182c0-4.425-2.363-7.07-6.559-7.07-2.909 0-4.901 1.376-5.906 3.72h-.105v-3.367h-4.972V239zm22.696 0h5.148v-18.899h-5.148V239zm2.574-20.979c1.552 0 2.751-1.181 2.751-2.662 0-1.499-1.199-2.662-2.751-2.662-1.551 0-2.75 1.163-2.75 2.662 0 1.481 1.199 2.662 2.75 2.662zm16.491 21.384c5.712 0 9.361-3.649 9.361-9.872 0-6.135-3.702-9.837-9.361-9.837-5.659 0-9.361 3.719-9.361 9.837 0 6.206 3.649 9.872 9.361 9.872zm0-3.931c-2.539 0-4.143-2.133-4.143-5.923 0-3.756 1.64-5.924 4.143-5.924 2.504 0 4.125 2.168 4.125 5.924 0 3.79-1.604 5.923-4.125 5.923zM233.633 239h5.148v-10.842c0-2.451 1.463-4.143 3.772-4.143 2.31 0 3.473 1.41 3.473 3.878V239h5.148v-12.182c0-4.425-2.362-7.07-6.558-7.07-2.909 0-4.901 1.376-5.906 3.72h-.106v-3.367h-4.971V239z" fill="#2C2C2C"/></svg>