<svg width="405" height="405" fill="none" xmlns="http://www.w3.org/2000/svg"><path d="M24.2492 237.616c.6161.553 1.5645.503 2.1183-.113l9.0255-10.04c.5538-.616.5034-1.564-.1127-2.118-.6161-.554-1.5645-.503-2.1183.113l-8.0227 8.924-8.9239-8.023c-.6161-.554-1.5645-.503-2.1184.113-.5538.616-.5034 1.564.1127 2.118l10.0395 9.026zM123.424 70.154c.26-.786-.167-1.635-.953-1.895l-12.818-4.2364c-.787-.26-1.635.1669-1.895.9535-.26.7869.167 1.6349.953 1.8949l11.394 3.766-3.766 11.394c-.26.786.167 1.635.953 1.895.787.26 1.635-.167 1.895-.954l4.237-12.818zM26.7499 236.42A177.3202 177.3202 0 0126.5 227h-3c0 3.214.0854 6.408.2541 9.58l2.9958-.16zM26.5 227c0-68.206 39.131-127.275 96.174-155.976l-1.348-2.68C63.3092 97.535 23.5 157.617 23.5 227h3zM303.477 371.413c.143-.816-.402-1.593-1.218-1.736l-13.298-2.329c-.816-.143-1.593.403-1.736 1.219-.143.816.403 1.593 1.219 1.736l11.82 2.07-2.07 11.82c-.143.816.402 1.594 1.218 1.736.816.143 1.594-.402 1.737-1.218l2.328-13.298zm-203.736-1.736c-.816.143-1.361.92-1.219 1.736l2.329 13.298c.143.816.921 1.361 1.737 1.218.816-.142 1.361-.92 1.218-1.736l-2.07-11.82 11.82-2.07c.816-.143 1.362-.92 1.219-1.736-.143-.816-.92-1.362-1.736-1.219l-13.298 2.329zm201.397.25c-28.344 19.896-62.875 31.574-100.138 31.574v3c37.9 0 73.029-11.88 101.862-32.119l-1.724-2.455zM201 401.501c-37.263 0-71.794-11.678-100.138-31.574l-1.724 2.455C127.971 392.621 163.1 404.501 201 404.501v-3zM276.059 66.586c-.781.278-1.189 1.135-.912 1.916l4.516 12.722c.277.781 1.134 1.189 1.915.912.781-.277 1.189-1.135.912-1.915l-4.014-11.309 11.309-4.0141c.78-.2771 1.189-1.1347.911-1.9154-.277-.7807-1.134-1.1889-1.915-.9118l-12.722 4.5153zm99.573 170.917c.554.616 1.502.666 2.118.112l10.04-9.025c.616-.554.666-1.502.113-2.118-.554-.616-1.503-.667-2.119-.113l-8.924 8.023-8.022-8.924c-.554-.616-1.503-.667-2.119-.113-.616.554-.666 1.502-.112 2.118l9.025 10.04zM275.916 69.354C334.803 97.389 375.5 157.444 375.5 227h3c0-70.757-41.402-131.841-101.295-160.354l-1.289 2.708zM375.5 227c0 3.161-.084 6.301-.25 9.42l2.995.16c.169-3.172.255-6.366.255-9.58h-3z" fill="#2C2C2C"/><mask id="a" mask-type="alpha" maskUnits="userSpaceOnUse" x="282" y="244" width="123" height="123"><path d="M343.817 366.69c33.589 0 60.817-27.241 60.817-60.845S377.406 245 343.817 245 283 272.241 283 305.845s27.228 60.845 60.817 60.845z" fill="#2C2C2C"/></mask><g mask="url(#a)"><path d="M403.547 305.845c0 33.004-26.742 59.758-59.73 59.758-32.987 0-59.729-26.754-59.729-59.758 0-33.003 26.742-59.757 59.729-59.757 32.988 0 59.73 26.754 59.73 59.757z" fill="#fff" stroke="#F3F4F7" stroke-width="2.1752"/><path d="M345.221 252.392h-3.118c-.275.01-.547.059-.808.145a6.09 6.09 0 00-.977.534l-.129.097-.372.097c-.25.08-.485.203-.694.363-.28.188-.55.39-.808.606-.245.216-.474.448-.687.695-.221.258-.429.528-.622.808-.174.259-.331.529-.468.809-.166.283-.306.581-.42.888-.084.265-.149.535-.194.809 0 .193-.048.387-.065.581-.016.194 0 .275 0 .421 0 .145-.072.371-.113.549h-.113a.7234.7234 0 01-.234-.048c-.22-.102-.45-.18-.686-.235a3.3705 3.3705 0 00-.671-.073h-.331c-.135.005-.268.03-.396.073-.138.047-.271.11-.396.186l-.161.097c-.181.101-.356.211-.525.331-.195.163-.378.338-.549.526l-.323.331-.081.081c-.129.137-.267.274-.388.412l-.065.073c-.247.251-.474.521-.678.808-.25.355-.412.573-.541.808a4.95 4.95 0 00-.315.662l-.057.13c-.131.276-.239.562-.323.856-.219.726-.328 1.48-.323 2.239.002.375.023.75.065 1.123 0 .178.048.355.08.541v.372c.013.08.031.158.057.234l.04.138.073.234.065.226c.064.194.129.388.202.582l.048.146.04.113c.049.113.089.234.138.355l.04.105c.037.115.086.226.146.332.059.099.155.171.266.202.03.083.065.164.105.242l.081.154c.081.169.161.331.25.501.178.282.375.552.59.808l.097.113c.202.275.447.515.727.711.232.145.486.254.751.323.258.089.493.17.727.267l.145.081c.046.051.084.108.113.169 0 .081.057.154.081.235a.1503.1503 0 00-.073 0l-.088.056-.59.348-.444.25-.178.105-.501.267c-.371.21-.735.444-1.09.679l-.679.557-.42.259c-.142.092-.28.192-.412.299-.182.139-.354.291-.517.452l-.654.671-.153.17c-.285.285-.554.584-.808.897-.25.315-.477.646-.695.978-.218.331-.355.525-.517.808l-.121.194c-.079.145-.168.286-.266.42-.14.169-.297.324-.469.46l-.517.437-.193.169c-.235.17-.469.316-.719.469a.4596.4596 0 00-.218.38.806.806 0 00-.34.113c-.12.079-.234.168-.339.267-.17.161-.331.323-.493.493l-.21.218-.428.485-.266.315c-.234.283-.493.582-.727.921-.101.145-.193.296-.275.453l-.113.21-.194.396c-.064.129-.129.258-.202.388-.072.129-.25.501-.371.751-.202.412-.364.752-.517 1.099-.154.347-.372.881-.541 1.333l-.065.186c-.048.121-.089.251-.129.38l-.121.412-.073.267c-.073.266-.129.485-.178.703-.048.218-.056.25-.08.372v.153l-.049.234c-.105.51-.194 1.011-.266 1.52-.073.509-.178 1.398-.227 2.198V300.982c0 .396 0 .808.057 1.188.056.38.065.808.121 1.196.057.388.121.808.202 1.22.04.202.081.404.129.606l.089.38c.129.606.267 1.212.428 1.818.134.479.298.949.493 1.406l.048.121c.081.194.146.396.218.59.073.194.154.428.227.614l.048.122v.088c.035.104.096.196.176.27.081.073.178.125.284.151h.34c.063-.018.125-.04.185-.065l.162-.081.113-.056c.159-.053.321-.096.485-.13.173-.043.348-.079.525-.105.174-.012.35-.012.525 0 .148-.012.296-.012.444 0 .481.007.946.178 1.317.485l.169.17c.106.104.247.164.396.169a.5995.5995 0 00.287-.094.607.607 0 00.206-.221c.081-.125.143-.261.185-.404.038-.119.068-.24.089-.363.038-.165.065-.333.081-.501.097-.674.21-1.344.339-2.012 0-.178.057-.348.081-.526v-.153c0-.154.048-.307.081-.461v-.202c.067-.307.118-.617.153-.929.03-.247.043-.495.041-.744v-.452c0-.404.04-.808.048-1.22.008-.412 0-.655.049-.986v-.138c0-.404.048-.808.064-1.204V299.681v-.897-.477c.178.148.399.233.63.243.251.04.501.056.759.072h1.341c.486-.032.967-.124 1.43-.274.347-.114.678-.251 1.018-.388l.436-.138h.081l.339-.129c.173-.062.336-.15.484-.259.184-.128.36-.269.525-.42.293-.295.563-.611.808-.945l.065-.097.072-.089c.035.045.083.079.138.097l.129.073.162.08c.204.111.398.238.581.38l.477.356.452.291.242.145c.172.115.35.22.533.315.6.289 1.232.506 1.882.647h.299l.242.056.267.065.275.073c.282.072.573.129.864.177h.25c.34.057.663.13.994.203.331.072.807.169 1.219.218.13 0 .275 0 .42.048h.493c.251 0 .509.041.767.049h2.06c.218 0 .42-.049.63-.081.21-.032.501-.105.751-.17 0 .049 0 .105.081.178a.463.463 0 00.291.129c.419-.046.833-.133 1.236-.258l.759-.259.388-.137h.097c.203-.073.411-.135.621-.186l.186-.049.356-.097c.361-.146.703-.336 1.017-.565.218-.154.445-.307.655-.477l.347-.251.097-.072c.145-.105.299-.218.436-.34.137-.121.283-.274.42-.42.279-.324.535-.667.767-1.026.226-.342.413-.708.558-1.091.04-.089.072-.178.105-.267l.088.121c.138.181.26.373.364.574l.073.13c.129.226.282.436.436.654l.218.299c.234.315.468.638.711.946.122.176.257.344.404.501.164.169.351.313.557.428.381.229.784.419 1.203.565.233.091.47.169.711.235.31.084.626.14.945.169h1.212c.134.008.269.008.404 0h.129c-.021.41-.021.82 0 1.229V305.548c0 .387.056.808.121 1.22.048.296.105.595.17.897.105.501.242.986.379 1.446.111.362.24.718.388 1.067l.04.073c.033.164.108.318.218.444.168.145.385.22.606.21.081.008.162.008.242 0 .253-.045.496-.132.719-.258l.509-.227c.328-.132.669-.226 1.018-.283H368.733c.091.013.18.035.267.065.135.039.272.066.412.081h.153c.078.011.157.011.234 0 .087-.035.169-.081.243-.137.111-.096.206-.207.282-.332.065-.097.114-.169.154-.242.125-.213.228-.437.307-.671.065-.186.113-.339.153-.485l.041-.137c.064-.259.121-.485.169-.719.049-.235.049-.356.073-.534v-.121l.065-.444c.08-.534.161-1.067.226-1.616.064-.55.089-.865.121-1.301 0-.308.04-.607.065-.906.024-.299 0-.573.056-.864v-.582l.049-.929v-1.544V297.402c0-.21 0-.42-.041-.63 0-.372-.04-.744-.056-1.107-.016-.364-.073-.808-.13-1.22-.056-.413-.113-.712-.193-1.051-.081-.339-.138-.501-.218-.743v-.114c-.081-.258-.17-.517-.267-.808l-.137-.355c-.101-.233-.19-.47-.267-.711-.073-.243-.137-.485-.202-.728l-.072-.299c-.077-.279-.183-.55-.316-.808-.069-.148-.15-.292-.242-.428l-.089-.153c-.08-.138-.153-.267-.242-.396l-.153-.219-.049-.072-.129-.17c-.285-.379-.595-.738-.929-1.075l-.234-.371c-.138-.146-.275-.299-.42-.445l-.162-.178-.081-.08c-.185-.203-.323-.356-.452-.518-.129-.161-.291-.396-.428-.598l-.194-.282-.081-.114a6.019 6.019 0 00-.307-.436c-.105-.137-.298-.372-.436-.533l-.129-.146-.129-.153-.194-.243-.275-.307-.064-.064c-.113-.13-.234-.251-.331-.38l-.412-.542-.291-.412-.137-.202c-.114-.169-.243-.331-.372-.493l-.178-.226c-.177-.226-.307-.388-.436-.533l-.218-.235a3.1805 3.1805 0 01-.299-.315 5.7066 5.7066 0 00-.807-.808l-.356-.275-.081-.129c-.169-.137-.339-.267-.509-.412l-.185-.154c-.234-.202-.469-.396-.719-.573l-.356-.243c-.153-.097-.298-.202-.444-.307-.516-.356-1.056-.677-1.615-.961l-.461-.227-.177-.08c-.21-.097-.412-.203-.622-.316l-.154-.08c-.274-.138-.549-.251-.807-.364l-.218-.081a.6078.6078 0 00.161-.202l.137-.25.081-.138.121-.21.146-.234.185-.291.146-.251c.105-.169.202-.331.291-.501.101-.193.191-.393.266-.598l.081-.21.048-.121.17-.388.081-.194v-.081c.044-.093.079-.19.105-.29.072-.219.137-.445.194-.663l.072-.291c.079-.301.141-.606.186-.913.049-.331.097-.663.121-1.01v-.13a2.283 2.283 0 000-.234v-.557-2.247a7.2246 7.2246 0 00-.202-1.091c-.08-.283-.185-.566-.282-.848-.154-.421-.291-.76-.437-1.099l-.193-.437a4.0447 4.0447 0 01-.194-.436l-.113-.242-.073-.186-.105-.267-.137-.347-.049-.097a2.9624 2.9624 0 00-.291-.518l-.088-.137c-.162-.25-.291-.453-.437-.646l-.525-.534-.153-.202-.194-.226-.121-.137v-.073l-.145-.17c-.235-.299-.388-.485-.542-.646a3.3833 3.3833 0 00-.387-.299 3.2849 3.2849 0 00-.469-.315 7.4039 7.4039 0 00-.88-.445l-.501-.194-.307-.089-.129-.056h-.097l-.129-.065-1.075-.501-.185-.129c-.353-.2-.723-.365-1.107-.493-.297-.08-.599-.137-.904-.17-.21-.012-.421-.012-.631 0h-.589v-.008z" fill="#2C2C2C"/><path d="M346.302 309.183c.194.622.436 1.22.687 1.818.25.598.557 1.317.807 1.988.25.639.445 1.299.582 1.972.064.303.104.611.121.921.016.294 0 .59-.048.881-.076.481-.299.927-.639 1.276-.334.317-.747.54-1.195.647-.239.059-.482.103-.727.129a6.134 6.134 0 01-.767 0c-.525-.008-1.048-.048-1.567-.121a.472.472 0 01-.299-.121.4411.4411 0 01-.121-.291.436.436 0 01.121-.299.3839.3839 0 01.136-.093.3793.3793 0 01.163-.028c.831.126 1.675.148 2.512.064h-.105c.261-.04.518-.105.767-.194a3.01 3.01 0 00.355-.21c.09-.074.174-.155.251-.242.064-.092.121-.19.169-.291.062-.162.108-.33.138-.501.036-.333.036-.669 0-1.002a13.7495 13.7495 0 00-.945-3.071c-.404-1.01-.864-2.004-1.196-3.046a.4228.4228 0 01.039-.319.4168.4168 0 01.252-.198h.113c.091.001.18.032.253.087a.43.43 0 01.151.22l-.008.024zm1.341 6.246a.1015.1015 0 000 .049v-.049zm-.808 2.311h-.056.056zM348.57 323.301h.076c.466.026.915.181 1.299.447.367.244.66.586.843.987.326.796.326 1.687 0 2.482-.076.192-.166.378-.27.557-.097.173-.21.336-.337.489-.266.329-.582.613-.936.844-.324.228-.672.417-1.038.566-.418.174-.85.313-1.291.413a8.023 8.023 0 01-1.754.186h-.903a7.0337 7.0337 0 01-2.522-.81 4.9063 4.9063 0 01-.979-.667c-.33-.281-.614-.611-.844-.979a3.693 3.693 0 01-.438-.971 2.8094 2.8094 0 01-.102-1.071c.032-.349.135-.687.303-.993.169-.307.399-.575.676-.788a3.3724 3.3724 0 012.033-.692h.245c.633.088 1.242.297 1.797.616l.632.295.22.085h.109c.25-.039.494-.11.726-.211.194-.076.379-.169.573-.262l.583-.27c.41-.189.855-.293 1.307-.304l-.008.051zm-3.468 6.017c.347.002.694-.018 1.038-.059a7.8215 7.8215 0 001.62-.43l.261-.118a3.9029 3.9029 0 00-.506-.498 4.091 4.091 0 00-.843-.481 5.6333 5.6333 0 00-.903-.237h-.54a4.8392 4.8392 0 00-.59 0 4.954 4.954 0 00-.92.245c-.268.119-.522.266-.759.439-.21.169-.402.358-.574.565l.135.093c.52.202 1.06.347 1.611.431.323.033.646.05.97.05zM334.477 315.817c1.107 0 2.003-1.252 2.003-2.788 0-1.535-.896-2.787-2.003-2.787-1.106 0-2.003 1.244-2.003 2.787 0 1.544.897 2.788 2.003 2.788zM355.722 315.397c-1.107 0-2.004-1.252-2.004-2.788 0-1.535.897-2.796 2.004-2.796 1.106 0 2.003 1.253 2.003 2.796 0 1.544-.897 2.788-2.003 2.788zM334.251 303.058c-.311-.003-.622.019-.929.064-.352.058-.7.136-1.042.235a6.8295 6.8295 0 00-3.15 1.988.7874.7874 0 00-.138.287.8166.8166 0 00-.016.319c.033.224.152.427.332.565.18.122.397.177.613.154a.8696.8696 0 00.558-.339l.056-.057c.32-.307.672-.578 1.05-.808.437-.237.897-.426 1.373-.566a6.803 6.803 0 011.212-.178c.345.006.688.044 1.026.114l.242.08c.208.078.438.071.642-.018a.8512.8512 0 00.448-.458.798.798 0 00.066-.323.8.8 0 00-.068-.323.8097.8097 0 00-.192-.268.7954.7954 0 00-.282-.169 5.4891 5.4891 0 00-1.769-.299h-.032zm-1.317 1.85h-.097a.2266.2266 0 01.097 0zm-2.302 1.261l-.081.089.081-.089zM355.323 302.669c.311-.002.622.019.929.065.352.057.7.135 1.042.234a6.8164 6.8164 0 013.15 1.988c.065.086.111.184.138.288.026.104.031.212.015.318a.867.867 0 01-.331.566.9263.9263 0 01-.614.154.8622.8622 0 01-.557-.34.3706.3706 0 01-.056-.056 6.3828 6.3828 0 00-1.05-.809 7.0314 7.0314 0 00-1.374-.565 6.6894 6.6894 0 00-1.211-.178c-.345.005-.688.043-1.026.113l-.242.081a.8474.8474 0 01-.643-.015.8485.8485 0 01-.448-.462.8141.8141 0 01-.065-.323c0-.111.023-.22.068-.322a.811.811 0 01.191-.268.8262.8262 0 01.283-.17 5.4891 5.4891 0 011.769-.299h.032zm1.317 1.843h.097-.097zm2.31 1.228l.081.089-.081-.089z" fill="#2C2C2C"/><path d="M340.075 252.569c-.733.293-1.425.678-2.06 1.147-.307.217-.599.454-.872.711-.263.273-.506.565-.727.873-.444.621-.767 1.32-.953 2.061a6.2602 6.2602 0 00-.202 1.818.8187.8187 0 00-.259-.138 2.6813 2.6813 0 00-1.058-.202c-.761.03-1.496.289-2.108.744a7.7736 7.7736 0 00-1.769 1.713c-.506.653-.947 1.354-1.316 2.093-.16.316-.302.639-.429.97-.13.353-.235.715-.315 1.082a9.7469 9.7469 0 00.501 5.6c.164.421.358.829.582 1.221.242.416.512.815.808 1.196.665.808 1.479 1.48 2.398 1.979a16.5925 16.5925 0 00-3.893 2.554 19.7526 19.7526 0 00-3.764 4.477l-.363.598c-.727.481-1.414 1.021-2.052 1.616-.625.606-1.206 1.257-1.736 1.947a19.8778 19.8778 0 00-2.585 4.647c-.677 1.7-1.152 3.474-1.413 5.285-.271 1.818-.353 3.66-.243 5.495.159 3.103.985 6.135 2.423 8.889-.203.143-.392.305-.565.484-.469.487-.876 1.03-1.212 1.617-.353.61-.625 1.265-.807 1.947a6.5083 6.5083 0 00.177 4.162c.106.278.233.548.38.808.155.261.33.51.525.743a6.6747 6.6747 0 001.817 1.503c.752.416 1.573.69 2.423.808.372.059.747.089 1.123.089a8.57 8.57 0 001.26-.097c-.02.377-.02.755 0 1.131.079 1.096.277 2.18.59 3.233.154.482.343.952.565 1.406.252.483.549.94.889 1.366a14.4352 14.4352 0 003.958 3.701 20.333 20.333 0 005.088 2.303c.63.193 1.276.363 1.922.509.032.753 0 1.507-.096 2.254a13.8882 13.8882 0 01-.881 3.233c-.401.941-.913 1.831-1.526 2.65a10.858 10.858 0 01-1.713 1.729c-.543.415-1.134.762-1.761 1.035-.355.145-.727.274-1.09.396l-.218.072-1.672.542-1.793.549-1.373.42a50.8688 50.8688 0 00-6.026 2.231 21.4171 21.4171 0 00-9.781 8.8 28.4947 28.4947 0 00-2.73 6.077 41.973 41.973 0 00-1.559 6.553c-.364 2.287-.557 4.533-.808 7.232-.25 2.699-.371 5.39-.484 8.081-.21 5.212-.202 10.368 0 15.354h.856c-.194-4.639-.21-9.471-.041-14.384.089-2.465.226-5.018.412-7.588.089-1.277.202-2.545.315-3.822.138-1.406.235-2.36.356-3.289a40.4996 40.4996 0 012.649-10.327c.843-1.99 1.928-3.868 3.231-5.592a21.1029 21.1029 0 013.691-3.709 22.051 22.051 0 012.423-1.617c.892-.499 1.811-.947 2.754-1.341a62.7561 62.7561 0 016.034-2.085c1.026-.315 2.052-.63 3.069-.961l1.067 21.244c.005.114.051.223.129.307.084.082.197.128.315.129.037.009.076.009.113 0l1.874-.751 3.99-1.616 5.613-2.255h.041c.137-.064.283-.113.42-.17l.388-.137c.395-.145.807-.315 1.227-.485v38.457h.856v-38.723l13.618 6.101c.075.03.154.047.235.048.071.001.141-.018.202-.056a.4567.4567 0 00.218-.372l.048-.566.049-.566 1.009-11.272.768-8.574c.436.162.896.299 1.357.444 2.046.59 4.059 1.286 6.033 2.085.944.392 1.864.84 2.754 1.342.844.483 1.653 1.023 2.424 1.616a20.8335 20.8335 0 013.691 3.709 26.3497 26.3497 0 013.231 5.592 40.8929 40.8929 0 012.641 10.327c.153 1.115.258 2.239.355 3.289.113 1.277.226 2.546.323 3.822.186 2.659.331 5.204.412 7.588.162 4.849.146 9.616-.056 14.101h.856c.234-4.768.242-9.842 0-15.087-.105-2.658-.267-5.373-.485-8.081-.218-2.707-.42-4.945-.807-7.272a43.0868 43.0868 0 00-1.551-6.554 29.3698 29.3698 0 00-2.609-5.963 22.444 22.444 0 00-4.273-5.213 22.8388 22.8388 0 00-5.484-3.539 50.3952 50.3952 0 00-6.034-2.23l-1.373-.42-.339-.105-1.454-.445-1.664-.541-.218-.073c-.364-.121-.735-.251-1.099-.396a8.909 8.909 0 01-1.76-1.034 10.4423 10.4423 0 01-1.705-1.722 12.6877 12.6877 0 01-1.526-2.658 13.643 13.643 0 01-.889-3.232c-.106-.842-.128-1.692-.064-2.538a31.61 31.61 0 005.411-1.616c1.831-.694 3.543-1.67 5.073-2.893.332-.272.645-.566.937-.881.368-.391.688-.825.953-1.293.244-.433.449-.888.614-1.357.189-.528.34-1.068.452-1.616.153-.736.25-1.463.331-2.134.081-.67.121-1.228.17-1.834l.089.048c.48.085.966.128 1.453.13a7.509 7.509 0 001.131-.089 6.8389 6.8389 0 002.423-.849 6.5493 6.5493 0 001.818-1.503c.194-.233.37-.482.525-.743.146-.261.275-.531.387-.808a6.618 6.618 0 00.17-4.162 8.2733 8.2733 0 00-.808-1.947 7.9051 7.9051 0 00-1.211-1.617 6.4722 6.4722 0 00-1.317-1.042c.553-.88.951-1.847 1.179-2.861.252-1.03.441-2.074.566-3.127.218-1.625.302-3.266.25-4.905a33.841 33.841 0 00-.589-5.479 23.1538 23.1538 0 00-1.616-5.212c-.417-.929-.934-1.809-1.542-2.626-.282-.389-.59-.759-.921-1.107-.362-.361-.751-.693-1.163-.994a.2596.2596 0 00-.105-.049c-.065-.145-.146-.299-.218-.452a20.4477 20.4477 0 00-2.739-3.968 24.734 24.734 0 00-4.2-3.862 15.2551 15.2551 0 00-4.426-2.279c.51-.628.939-1.317 1.276-2.053.415-.907.714-1.862.889-2.844.341-2.001.281-4.051-.178-6.028-.219-.995-.524-1.968-.913-2.909a15.284 15.284 0 00-1.381-2.675 11.4876 11.4876 0 00-4.499-3.928 13.1628 13.1628 0 00-5.129-1.381h-.808c-1.425 0-2.837.274-4.159.808h-.008zm.185.808a10.499 10.499 0 012.504-.671c.488-.055.979-.082 1.47-.081.584 0 1.166.035 1.745.105 1.071.141 2.121.412 3.126.808h.081c.86.382 1.673.862 2.423 1.431.707.548 1.344 1.18 1.898 1.883a14.237 14.237 0 011.672 2.965c.566 1.377.959 2.818 1.171 4.291.149 1.221.149 2.456 0 3.677a12.2228 12.2228 0 01-.808 2.974c-.337.771-.763 1.5-1.268 2.173l-.258.316a7.818 7.818 0 00-1.81-.202 7.2391 7.2391 0 00-2.108.299c-.315-.243-.654-.485-.993-.712a15.4334 15.4334 0 00-4.233-1.947h-.105a.3412.3412 0 00-.177.04c-.824.049-1.627.281-2.351.679-.882.453-1.715.994-2.487 1.616-.348.283-.695.574-1.034.873h-.186c-1.818.001-3.619.35-5.307 1.026-.523-.25-1.021-.55-1.486-.897-.465-.371-.89-.791-1.268-1.252a9.4713 9.4713 0 01-1.098-1.875 9.6322 9.6322 0 01-.614-2.335 9.827 9.827 0 010-2.182c.054-.395.132-.786.234-1.172.075-.275.166-.544.275-.808.394-.911.901-1.769 1.51-2.553a8.341 8.341 0 011.341-1.374c.277-.207.575-.386.888-.534.231-.092.473-.157.719-.193H334.275c.18.026.356.072.525.137.21.107.41.231.598.372.089.087.207.139.331.145.04.007.081.007.121 0a.4405.4405 0 00.235-.121.3995.3995 0 00.098-.139.4045.4045 0 00.031-.168 7.2433 7.2433 0 010-1.665c.075-.48.199-.951.371-1.406.201-.465.456-.904.76-1.309.364-.45.779-.856 1.235-1.212h-.096c.56-.387 1.155-.723 1.776-1.002zm2.294 45.462a20.5973 20.5973 0 01-5.096-1.276 11.596 11.596 0 01-2.359-1.358 8.514 8.514 0 01-1.397-1.398 7.8628 7.8628 0 01-.977-1.681 9.7899 9.7899 0 01-.534-2.076c-.116-.991-.116-1.992 0-2.982.294-1.9.837-3.754 1.616-5.511a24.5784 24.5784 0 013.029-5.261 20.886 20.886 0 011.922-2.101l.469-.436a.484.484 0 00.161-.154c.404-.355.808-.695 1.236-1.026.791-.641 1.656-1.183 2.577-1.616.392-.168.805-.285 1.227-.348.129-.008.259-.008.388 0 .534.136 1.057.309 1.567.517 1.175.508 2.282 1.159 3.295 1.94 1.115.888 2.121 1.905 2.997 3.03a20.7689 20.7689 0 012.48 4.259c.737 1.782 1.247 3.65 1.518 5.559.189 1.339.208 2.697.057 4.041-.12.896-.353 1.773-.695 2.61a8.3433 8.3433 0 01-.993 1.681c-.426.522-.908.997-1.438 1.414-.668.498-1.388.921-2.149 1.26h-.089c-1.104.446-2.26.752-3.44.913-.823.105-1.651.156-2.48.154-.953 0-1.906-.062-2.851-.186l-.041.032zm8.683-24.775h.138c.292-.032.586-.049.88-.049.34-.002.68.02 1.018.065.849.131 1.68.367 2.471.703 1.311.582 2.545 1.323 3.675 2.206a25.4263 25.4263 0 014.378 4.388c.467.608.898 1.242 1.292 1.899.405.695.764 1.416 1.075 2.157a19.1013 19.1013 0 011.365 4.849c.116.936.116 1.884 0 2.82-.099.69-.281 1.366-.541 2.012l.064-.089c-.219.44-.473.861-.759 1.261l-.04.081c-.309.368-.653.707-1.026 1.01-.324.238-.67.444-1.034.614-.332.125-.676.217-1.026.275h-.517c-.188.012-.377.012-.565 0a5.621 5.621 0 01-1.268-.348h-.065c-.461-.235-.904-.505-1.325-.808a7.8927 7.8927 0 01-2.423-3.087l-.04-.105c-.026-.061-.056-.12-.089-.178a9.597 9.597 0 00.46-1.575c.219-.99.319-2.001.299-3.014a19.5349 19.5349 0 00-.282-3.063 23.422 23.422 0 00-.711-2.933 20.4992 20.4992 0 00-4.241-7.621c-.451-.509-.934-.989-1.445-1.438h.258l.024-.032zm-18.036 1.907a14.375 14.375 0 013.643-1.01c.347-.041.678-.073 1.026-.089-.825.786-1.569 1.652-2.222 2.586a25.5518 25.5518 0 00-3.287 6.367 19.486 19.486 0 00-1.131 5.301c-.04.81 0 1.623.121 2.425.122.747.334 1.477.63 2.173.299.688.693 1.33 1.172 1.907l.161.202c-.048 0-.105.049-.153.13-.074.123-.155.242-.243.355-.237.3-.508.571-.807.808-.373.28-.777.516-1.204.703-.609.25-1.246.424-1.898.518-.361.053-.725.08-1.09.08a5.864 5.864 0 01-.848-.056 5.461 5.461 0 01-1.285-.356 5.2593 5.2593 0 01-.993-.582 6.1672 6.1672 0 01-.889-.888c-.319-.416-.59-.866-.807-1.342a8.4312 8.4312 0 01-.501-1.867v-.105a11.641 11.641 0 01-.065-1.422c.01-.503.051-1.005.121-1.503.227-1.589.656-3.142 1.277-4.622a20.3824 20.3824 0 012.487-4.275l.041-.089c.951-1.196 2.035-2.28 3.231-3.232l.064-.073a17.1799 17.1799 0 013.409-2.004l.04-.04zm-11.954 11.095c.642-.834 1.368-1.6 2.165-2.287-.473.969-.852 1.981-1.131 3.022-.229.903-.391 1.821-.485 2.748-.113.92-.113 1.851 0 2.771a7.3375 7.3375 0 002.165 4.493c.55.473 1.187.835 1.874 1.067l-.089 1.236v.17c-.113 1.762-.226 3.58-.46 5.358-.13.969-.291 1.858-.485 2.723-.194.864-.396 1.616-.646 2.367v.089c-.3-.279-.641-.51-1.01-.687a3.6545 3.6545 0 00-1.518-.339h-.235c-.704.054-1.384.282-1.979.663-.218-.445-.452-.922-.678-1.455a21.8008 21.8008 0 01-1.414-5.341 25.654 25.654 0 010-6.667c.282-2.028.825-4.011 1.616-5.899a18.859 18.859 0 012.334-4.04l-.024.008zm44.473 23.685a.5057.5057 0 00-.065-.073 6.6066 6.6066 0 01-.574-1.034 12.641 12.641 0 01-.807-3.039 30.6237 30.6237 0 01-.162-4.04c0-.539.016-1.078.049-1.616 0-.703.04-1.382.048-2.061.317-.095.621-.227.905-.396.425-.244.819-.54 1.171-.881a7.0138 7.0138 0 001.922-3.45c.212-.875.299-1.776.259-2.675-.03-.928-.149-1.851-.356-2.756-.209-.974-.496-1.931-.856-2.86.218.275.461.549.711.864.705.956 1.293 1.992 1.753 3.087a25.4845 25.4845 0 011.615 6.311c.188 1.437.285 2.883.291 4.332.007 1.283-.072 2.565-.234 3.838a19.8456 19.8456 0 01-1.067 4.695v.081a7.896 7.896 0 01-.589 1.075 3.6015 3.6015 0 00-1.139-.259h-.226c-.528.001-1.049.117-1.527.339-.288.131-.559.297-.807.493a.3213.3213 0 01-.194.081.1644.1644 0 01-.082-.018.1549.1549 0 01-.064-.055l.025.017zm-19.652-10.845c1.004-.027 2.003-.138 2.988-.331.966-.195 1.909-.493 2.811-.889.871-.394 1.686-.902 2.423-1.511a8.1839 8.1839 0 001.955-2.255c.049-.072.089-.153.137-.234.081.21.178.412.291.606.261.43.555.838.881 1.22.625.739 1.377 1.36 2.221 1.835.802.466 1.7.742 2.625.808h.283c.221 0 .443-.017.662-.049l-.049 1.204v4.865c.146 2.707.703 4.679 1.761 6.198.044.061.098.113.162.153v4.275c0 1.948-.041 3.62-.121 5.123-.049.881-.105 1.754-.186 2.635-.057.662-.121 1.325-.21 1.979a13.176 13.176 0 01-.808 3.297c-.22.496-.491.967-.808 1.406a9.8597 9.8597 0 01-1.615 1.568c-1.23.912-2.568 1.669-3.982 2.255a34.4225 34.4225 0 01-8.538 2.254c-3.101.415-6.244.415-9.345 0a26.4933 26.4933 0 01-6.461-1.697 18.2987 18.2987 0 01-3.845-2.182l-.089-.056a14.5078 14.5078 0 01-2.359-2.36c-.21-.274-.403-.549-.589-.808a9.2367 9.2367 0 01-.622-1.171v-.081c-.367-.932-.614-1.907-.735-2.901a33.1606 33.1606 0 01-.113-5.091v-.332c0-.719 0-1.43.048-2.141 0-1.075 0-2.149.073-3.232.073-1.083.105-2.222.161-3.33.28-.857.515-1.728.703-2.61.202-.953.364-1.947.509-3.127.194-1.616.299-3.232.404-4.8v-.153l.073-1.116c.409.1.83.146 1.252.138.307 0 .605 0 .912-.049a8.4583 8.4583 0 002.9-.808 5.4417 5.4417 0 002.181-1.988c.311.294.643.564.993.808.738.51 1.532.933 2.367 1.261.919.375 1.871.664 2.843.865a24.01 24.01 0 005.315.614h.622l-.081-.065zm-25.742 11.039c.295-.126.604-.213.921-.259H321.966c.235.039.465.104.686.194.238.107.462.24.671.396.268.217.515.461.735.727 0 .517-.057 1.043-.081 1.616v.235a2.9481 2.9481 0 00-.42-.445 4.5252 4.5252 0 00-1.381-.743 3.229 3.229 0 00-1.058-.17 3.1646 3.1646 0 00-.477 0c-.586.083-1.142.314-1.615.671a.46.46 0 00-.194.258.3968.3968 0 00-.013.171c.009.058.03.112.061.161.04.068.096.125.164.164.068.04.145.061.224.062a.357.357 0 00.202-.065c.212-.155.439-.287.678-.396.206-.073.416-.13.63-.169h.348c.121-.008.242-.008.363 0 .255.042.504.112.743.21.249.117.486.255.711.412.24.195.459.415.654.654.102.138.196.281.283.429.022.036.049.069.081.097v2.44c0 .695 0 1.39-.049 2.093 0 .848-.048 1.689-.048 2.521H322.677c-.27-.001-.54-.017-.808-.048a6.956 6.956 0 01-1.616-.421 7.7273 7.7273 0 01-1.413-.808 6.2381 6.2381 0 01-1.082-.897 5.51 5.51 0 01-.614-1.018 5.774 5.774 0 01-.372-1.398c-.06-.515-.06-1.036 0-1.551.096-.602.261-1.19.493-1.754.257-.591.582-1.15.969-1.664a7.039 7.039 0 011.179-1.18h-.096c.321-.21.655-.399 1.001-.566l.008.041zm45.765.872c.157-.166.324-.323.501-.468.213-.156.44-.292.678-.404.224-.091.457-.156.695-.194.126-.009.253-.009.38 0h.331c.312.048.619.132.912.25.351.166.684.366.994.598l-.049-.089c.408.36.786.752 1.131 1.172.396.525.73 1.094.994 1.697.229.564.392 1.152.484 1.753.065.516.065 1.037 0 1.552-.06.462-.176.915-.347 1.349-.169.367-.375.717-.614 1.043-.297.371-.636.707-1.009 1.002a6.1606 6.1606 0 01-3.037 1.252c-.283 0-.558.041-.808.041-.294 0-.588-.017-.881-.049l-.282-.048a.7312.7312 0 00-.162 0 .2965.2965 0 00-.145 0c.129-1.568.202-3.321.226-5.511v-1.681c.081-.129.17-.267.267-.396.196-.242.418-.462.662-.655.219-.161.454-.3.703-.412.236-.097.482-.168.735-.21h.718c.215.04.425.096.63.17.236.115.463.247.679.396.059.041.13.064.202.064a.455.455 0 00.222-.059.46.46 0 00.166-.159.422.422 0 00.06-.164.4304.4304 0 00-.012-.175.4699.4699 0 00-.202-.259 3.5044 3.5044 0 00-1.615-.67 2.922 2.922 0 00-.477 0c-.36-.003-.717.054-1.058.169-.502.166-.97.42-1.381.752-.111.088-.216.182-.315.283v-1.891l.024-.049zm-27.898 44.13l-6.624-7.758c.131-.04.256-.097.372-.17a9.4 9.4 0 002.06-1.559c.618-.629 1.161-1.329 1.615-2.085a13.475 13.475 0 001.85-5.091c.125-.802.171-1.614.137-2.424.937.197 1.883.345 2.835.444 1.253.134 2.512.201 3.772.202h1.753c1.684-.079 3.361-.282 5.016-.606-.062.896-.024 1.796.113 2.683.136.903.361 1.791.67 2.65.311.846.706 1.658 1.18 2.425.459.752 1.001 1.451 1.615 2.085a9.2535 9.2535 0 002.068 1.559c.323.183.661.34 1.009.469l-3.659 4.258-1.978 2.311-1.188 1.471c-1.615 1.87-3.212 3.739-4.79 5.608l-1.147 1.342-6.679-7.814z" fill="#2C2C2C"/><path d="M314.584 359.962a.409.409 0 00-.218.057.4525.4525 0 00-.202.267.3942.3942 0 00-.012.171c.008.057.029.112.061.16.196.337.374.685.533 1.042a.3744.3744 0 00.258.202.269.269 0 00.113 0 .395.395 0 00.218-.056c.099-.057.171-.15.202-.259.03-.111.016-.23-.04-.331a7.145 7.145 0 00-.541-1.051.4352.4352 0 00-.156-.16.429.429 0 00-.216-.058M315.941 363.146a.4304.4304 0 00-.218.065.4333.4333 0 00-.202.259.5074.5074 0 000 .331c.048.097.089.194.129.299v-.105c.081.25.186.501.283.743.034.108.105.2.202.259.065.042.14.064.218.064h.113a.4313.4313 0 00.258-.202.3977.3977 0 00.061-.164.4137.4137 0 00-.012-.175c-.154-.38-.315-.76-.477-1.139a.4.4 0 00-.105-.126.4038.4038 0 00-.145-.076h-.121M316.901 366.169h-.113a.454.454 0 00-.161.085.4297.4297 0 00-.113.141.3927.3927 0 00-.033.158c0 .054.011.108.033.158.129.331.266.662.404.985a.409.409 0 00.111.13.423.423 0 00.155.072.269.269 0 00.113 0 .446.446 0 00.226-.056.4083.4083 0 00.194-.259c.03-.111.016-.23-.04-.331l-.129-.299v.105c-.065-.202-.146-.404-.218-.606a.4295.4295 0 00-.157-.23.4224.4224 0 00-.263-.085M372.683 363.874h-.097a.4219.4219 0 00-.152.07.4095.4095 0 00-.114.124c-.201.399-.358.819-.469 1.252-.032.11-.02.229.034.331.055.101.147.177.257.21h.113c.095.004.189-.024.267-.079a.4277.4277 0 00.161-.228c.079-.327.187-.646.323-.953l.049-.097a.4366.4366 0 00-.138-.598.5064.5064 0 00-.234-.073M373.806 360.359a.3871.3871 0 00-.211.049.3948.3948 0 00-.153.153c-.227.4-.419.819-.573 1.252a.4082.4082 0 00-.033.162c0 .055.011.11.033.161.026.053.062.101.106.139.044.039.096.069.152.088.043.008.087.008.129 0a.4364.4364 0 00.256-.087.4314.4314 0 00.156-.221c.073-.193.154-.387.234-.581l.243-.469c.06-.098.08-.215.054-.327a.4397.4397 0 00-.192-.271.4462.4462 0 00-.234-.065" fill="#2C2C2C"/></g><mask id="b" mask-type="alpha" maskUnits="userSpaceOnUse" x="0" y="248" width="120" height="120"><path d="M59.6045 367.264c32.9187 0 59.6045-26.698 59.6045-59.632S92.5232 248 59.6045 248 0 274.698 0 307.632s26.6858 59.632 59.6045 59.632z" fill="#2C2C2C"/></mask><g mask="url(#b)"><path d="M118.121 307.632c0 32.333-26.199 58.544-58.5165 58.544-32.3175 0-58.517-26.211-58.517-58.544 0-32.334 26.1995-58.544 58.517-58.544s58.5165 26.21 58.5165 58.544z" fill="#fff" stroke="#F3F4F7" stroke-width="2.1752"/><path d="M45.4611 345.723a.463.463 0 00-.3213.127l-.2452.22-.1015.059-.4228.135-.1691.051c-.1776.051-.3467.101-.5243.169a2.8711 2.8711 0 00-.465.22.9307.9307 0 00-.3214.279c-.0774.163-.115.343-.1099.524.0159.226.0556.45.1184.668.0761.271.1522.541.2452.803.093.263.2537.643.3975.964l.1352.296c.1776.432.3129.795.4397 1.159l.1269.406.2452.71.1268.355c.0846.211.1607.423.2368.643.0761.22.2198.625.3382.938.1304.352.28.696.4482 1.032l.3382.736.1184.262c.1776.363.3552.718.5581 1.065l.296.55c.1014.177.1944.363.3044.541.2029.338.4058.685.6341 1.015.2283.329.3552.499.5412.752l.0761.102.1353.177c.203.279.4059.558.6257.846l.482.549.2875.33c.2622.305.5412.592.8456.846.3044.253.4566.397.6934.592l.2029.169c.3298.27.6342.516.964.736l.5327.346.4651.296.2705.186c.2537.169.4989.338.7695.491.3658.204.7511.371 1.15.499l.2283.076.6681.203c.331.098.6669.18 1.0062.245l.5496.118c.1861.034.3721.059.5581.076h.1353c.3298.043.6595.068.9893.093h.2875a7.5404 7.5404 0 001.6912-.228 9.2606 9.2606 0 001.4037-.406l.7356-.271c.1542-.049.3042-.111.4482-.186l.5155-.296.66-.346c.242-.126.474-.27.693-.431l.288-.195c.186-.118.372-.237.549-.372.339-.245.66-.507.981-.778.611-.515 1.176-1.081 1.691-1.691.266-.302.503-.628.711-.972l.076-.119c.186-.313.38-.626.592-.922l.084-.109c.228-.292.434-.6.618-.922l.566-1.04c.189-.371.401-.73.634-1.074.217-.322.417-.655.601-.998.355-.692.671-1.403.947-2.131l.177-.49.178-.491c.093-.253.169-.515.253-.786v-.118l.06-.203c.084-.288.169-.567.236-.846l.178-.651.051-.211.11-.398.11-.389c.05-.211.101-.423.143-.634v-.271c.041-.181.069-.364.085-.549a1.31 1.31 0 00-.059-.398 1.005 1.005 0 00-.406-.515 1.475 1.475 0 00-.567-.22l-.329-.068h-.161a1.7548 1.7548 0 00-.288-.051h-.169a1.0622 1.0622 0 01-.228-.059l-.152-.068h-.152c-.08 0-.159.02-.229.06a.6555.6555 0 00-.203.203c-.039.068-.073.138-.101.211-.082.225-.144.457-.186.693v.279c-.051.229-.102.457-.161.685-.059.229-.186.618-.296.914-.11.296-.169.541-.237.845v.127c-.051.24-.116.477-.194.71-.068.186-.144.364-.211.533l-.119.296-.127.304-.127.313v.059c-.36.851-.778 1.676-1.251 2.47l-.355.617c-.119.211-.228.414-.355.617-.219.374-.459.736-.719 1.082-.254.322-.533.635-.803.931-.271.296-.296.355-.44.541-.144.186-.245.296-.364.439-.118.144-.414.44-.634.66l-.279.279-.118.118-.305.305c-.127.118-.262.228-.389.33l-.549.405c-.1863.119-.3723.237-.5583.339-.1861.101-.2875.152-.4228.22l-.2875.143-.4059.195a4.5523 4.5523 0 01-.6342.203 6.5506 6.5506 0 00-.8456.321h-.1437c-.2439.07-.4926.12-.7441.152l-.4905.085-.2875.051c-.4497.042-.9012.062-1.3529.059h-1.353a1.4893 1.4893 0 01-.2536-.076l-.4397-.237c-.1269-.076-.2537-.152-.389-.22l-.2368-.118a5.873 5.873 0 01-.6003-.313l-.4651-.279c-.1945-.119-.389-.254-.5834-.389l-.1184-.093c-.4228-.288-.8456-.575-1.243-.846a4.3934 4.3934 0 01-.3975-.397l-.2114-.22-.1691-.169a5.5651 5.5651 0 01-.4397-.457c-.1099-.161-.2029-.33-.3044-.499-.1014-.169-.1775-.287-.2536-.397l-.0931-.135c-.1522-.22-.2959-.449-.4481-.685-.1522-.237-.3805-.592-.5835-.846l-.2367-.33c-.1438-.194-.296-.389-.4228-.592l-.2368-.38a14.6722 14.6722 0 01-.3721-.601c-.1183-.202-.2113-.346-.3043-.524l-.3045-.524-.0676-.11a9.2432 9.2432 0 01-.4905-.905c-.0422-.11-.093-.27-.1522-.431l-.1099-.313c-.1099-.304-.2283-.617-.3551-.922-.1269-.304-.1607-.38-.2452-.575l-.1776-.38a30.7788 30.7788 0 00-.3383-.778l-.0422-.093c-.1776-.423-.3721-.922-.5412-1.454a7.3623 7.3623 0 01-.1776-.618v-.143a2.9866 2.9866 0 00-.0761-.296.7502.7502 0 00-.0761-.144 1.897 1.897 0 00.1607-.135l.0761-.068a.4014.4014 0 00.0957-.139.402.402 0 00.0311-.165.4553.4553 0 00-.1268-.33.439.439 0 00-.1435-.096.4456.4456 0 00-.1694-.031" fill="#2C2C2C"/><path d="M56.2678 362.236a.448.448 0 000 .617c.1192.13.2493.248.3889.356.201.129.4168.234.6427.312a4.12 4.12 0 00.7779.153c.2283 0 .4651 0 .7018.059a.4445.4445 0 00.2791-.051.4115.4115 0 00.1288-.11.4142.4142 0 00.0741-.152.4318.4318 0 00.0137-.174.4254.4254 0 00-.056-.164.4143.4143 0 00-.2621-.203c-.296-.051-.5919-.059-.8963-.093a3.4782 3.4782 0 01-.6511-.169l-.2368-.136a2.3203 2.3203 0 01-.2537-.245.3978.3978 0 00-.1376-.1.3996.3996 0 00-.1668-.035.4662.4662 0 00-.3213.135M58.6012 305.482c-.2114.651-.4651 1.277-.7272 1.902-.2622.626-.575 1.379-.8456 2.081-.2605.67-.4669 1.36-.6173 2.063-.0644.318-.104.64-.1184.964-.0213.308-.0042.618.0508.921.075.505.309.973.668 1.336.3493.334.7814.567 1.2514.677.2504.062.5047.107.7611.135.2647.017.5302.017.7948 0a13.4782 13.4782 0 001.6912-.127.5386.5386 0 00.3129-.126.466.466 0 00.1183-.313.4828.4828 0 00-.1183-.313.4346.4346 0 00-.1443-.092.4398.4398 0 00-.1686-.027 10.543 10.543 0 01-2.6382.068h.1184a3.72 3.72 0 01-.8034-.211 1.9844 1.9844 0 01-.372-.212 1.8065 1.8065 0 01-.2621-.253 2.2238 2.2238 0 01-.1776-.305 2.8454 2.8454 0 01-.1522-.524 5.4227 5.4227 0 010-1.049c.2043-1.104.5333-2.182.9809-3.213.4312-1.057.9132-2.097 1.2599-3.188a.448.448 0 00-.3129-.541h-.1099a.4567.4567 0 00-.2641.091.4496.4496 0 00-.1587.231l-.0169.025zm-1.3783 6.511zm.854 2.418h.0592-.0592zM48.0399 313.1c1.1585 0 2.0971-1.311 2.0971-2.917 0-1.607-.9386-2.918-2.0971-2.918-1.1584 0-2.097 1.303-2.097 2.918 0 1.615.9386 2.917 2.097 2.917zM70.296 312.66c-1.159 0-2.097-1.31-2.097-2.917 0-1.607.938-2.917 2.097-2.917 1.158 0 2.105 1.302 2.105 2.917 0 1.615-.947 2.917-2.105 2.917zM47.8129 298.827a7.3516 7.3516 0 00-.9724.059 9.1227 9.1227 0 00-1.0824.253 7.0972 7.0972 0 00-3.2978 2.072.849.849 0 00-.1503.304.8486.8486 0 00-.0188.339.848.848 0 00.1052.328.848.848 0 00.5395.406c.113.027.2303.03.3447.01a.9301.9301 0 00.5919-.347l.0507-.059a5.9039 5.9039 0 011.0993-.846 6.9113 6.9113 0 011.4374-.592 6.5446 6.5446 0 011.2684-.186c.3609.006.7205.046 1.0739.119l.2621.084c.2176.086.46.081.6741-.013a.8796.8796 0 00.4675-.485.8836.8836 0 00-.013-.675.88.88 0 00-.4859-.467 5.825 5.825 0 00-1.8603-.304h-.0338zm-1.3783 1.927h-.093.093zm-2.4015 1.328l-.093.093.093-.093zM69.899 298.378c.327-.001.655.018.98.059.366.064.727.148 1.083.254a7.1344 7.1344 0 013.298 2.072c.068.09.118.194.145.304.028.111.033.226.015.338a.8524.8524 0 01-.105.329.8544.8544 0 01-.227.259.859.859 0 01-.312.146.8361.8361 0 01-.345.01.8985.8985 0 01-.584-.346l-.059-.06c-.33-.326-.699-.61-1.099-.845a6.6725 6.6725 0 00-1.437-.592 6.3886 6.3886 0 00-1.26-.186c-.361.005-.721.045-1.074.118l-.262.085a.9054.9054 0 01-1.142-.499.8469.8469 0 01-.072-.34c0-.117.024-.233.071-.34a.8495.8495 0 01.201-.284c.087-.079.188-.14.299-.178a5.851 5.851 0 011.86-.304h.026zm1.378 1.928h.101-.101zm2.41 1.327l.084.094-.084-.094zM63.1503 317.556v.169a.1126.1126 0 010 .051v.135c0 .11 0 .22-.0423.33a6.2852 6.2852 0 01-.3298 1.226 5.5317 5.5317 0 01-.5919.981 4.9979 4.9979 0 01-.7272.735 4.5008 4.5008 0 01-.7779.457 4.0323 4.0323 0 01-.778.211c-.295.034-.5929.034-.8878 0a4.0323 4.0323 0 01-.778-.211 4.497 4.497 0 01-.7779-.457 4.5814 4.5814 0 01-.7019-.702 5.2087 5.2087 0 01-.5919-1.006 6.1002 6.1002 0 01-.3551-1.294v-.135a.4488.4488 0 00-.1268-.313.4783.4783 0 00-.3129-.127.434.434 0 00-.3044.127.4413.4413 0 00-.1353.313c.047.421.1319.837.2537 1.243.073.247.1664.487.279.719a4.9771 4.9771 0 001.0739 1.513 4.084 4.084 0 005.4371.373 5.083 5.083 0 001.2853-1.455c.2524-.435.4458-.901.575-1.387.1024-.39.1675-.789.1945-1.192a.4064.4064 0 010-.101v-.186a.4431.4431 0 00-.158-.231.4428.4428 0 00-.5296 0 .4426.4426 0 00-.158.231l-.0338-.017zm-.3552 1.961zm-6.0882.931v.042-.042zm1.5559 1.243h.0423-.0423z" fill="#2C2C2C"/><path d="M63.6497 258.611c-1.0709-.001-2.14.086-3.1963.262a13.5694 13.5694 0 00-3.264.964 9.0025 9.0025 0 00-2.596 1.691c-.3519.343-.6691.72-.947 1.125-.1514.218-.287.447-.4059.685a3.9506 3.9506 0 00-.5327-.601 6.2115 6.2115 0 00-1.1415-.845 8.1244 8.1244 0 00-2.6129-.914 11.886 11.886 0 00-2.0886-.177 16.9914 16.9914 0 00-3.5599.414 17.195 17.195 0 00-5.6062 2.376 15.1791 15.1791 0 00-4.4308 4.304 10.9963 10.9963 0 00-1.4967 3.383 10.203 10.203 0 00-.2621 1.809 9.4852 9.4852 0 00.0591 1.691h-.4058l-.6004.085c-.1832.029-.364.072-.5412.127a10.07 10.07 0 00-3.0694 1.53 12.3605 12.3605 0 00-3.1033 3.298 12.7754 12.7754 0 00-1.7504 4.118 9.9938 9.9938 0 00-.093 4.27c.1296.624.3369 1.229.6173 1.801a7.2107 7.2107 0 001.0654 1.599 8.1981 8.1981 0 003.3401 2.223 11.2484 11.2484 0 00-1.8772 8.583 10.0987 10.0987 0 005.1411 7.086 8.7138 8.7138 0 00-.7187 1.801 6.8982 6.8982 0 00.186 4.346c.1136.292.2493.575.4059.846.1645.272.3482.532.5496.778a6.8048 6.8048 0 001.8941 1.564 7.4013 7.4013 0 002.5368.897c.3862.058.7763.086 1.1669.084a8.9613 8.9613 0 001.3191-.101c0 .397 0 .803.0507 1.2.0766 1.147.2808 2.281.6088 3.383.1657.505.3634.999.5919 1.479.2424.494.5252.966.8456 1.413a15.2203 15.2203 0 004.1434 3.872 21.3666 21.3666 0 005.3272 2.402c.6511.203 1.3275.38 2.0124.541.0356.79.0045 1.582-.093 2.368a14.2223 14.2223 0 01-.9301 3.382 13.0853 13.0853 0 01-1.5982 2.782 11.2238 11.2238 0 01-1.7842 1.801c-.573.434-1.1944.8-1.8518 1.091-.372.152-.761.279-1.1415.406l-.2283.076-1.7419.566-1.8857.575-1.4459.457a51.8248 51.8248 0 00-6.3081 2.325 23.8371 23.8371 0 00-5.733 3.704 23.2892 23.2892 0 00-4.4816 5.454 30.7183 30.7183 0 00-2.8581 6.359 43.9674 43.9674 0 00-1.615 6.857c-.389 2.436-.6089 4.863-.8456 7.611-.2368 2.748-.3974 5.657-.5074 8.455-.2198 5.471-.2114 10.866 0 16.067h.8879c-.2114-4.812-.2368-9.868-.0592-15.035.093-2.537.2368-5.217.4312-7.94.1015-1.336.2114-2.672.3383-4 .1268-1.327.2283-2.367.372-3.449a42.4097 42.4097 0 012.7735-10.799 27.368 27.368 0 013.3824-5.859 21.8352 21.8352 0 013.8643-3.882 22.6013 22.6013 0 012.5367-1.691c.9312-.524 1.891-.996 2.875-1.412 1.9956-.846 4.0419-1.48 6.3165-2.182l.3552-.101 1.8264-.567a45.3392 45.3392 0 002.0886 6.579l.0423.085a34.635 34.635 0 003.1371 6.046 21.5608 21.5608 0 004.8537 5.344c.5128.39 1.0494.749 1.6066 1.073.5426.323 1.1078.605 1.6911.846 1.1343.451 2.333.72 3.5515.795h.6088a11.377 11.377 0 003.2047-.491 12.8475 12.8475 0 003.4667-1.691 19.2779 19.2779 0 004.668-4.574 35.0457 35.0457 0 004.938-9.75l.059-.194.059-.169v-.093c.195-.609.381-1.201.542-1.793l.05-.161v-.237c0-.084 0-.143.051-.202l.051-.195.051-.203.067-.245.051-.22 1.201.381c2.274.701 4.321 1.344 6.316 2.181.987.41 1.948.881 2.875 1.412.884.504 1.732 1.069 2.537 1.691a22.1136 22.1136 0 013.864 3.882 27.3565 27.3565 0 013.383 5.86 42.4115 42.4115 0 012.773 10.798c.144 1.09.254 2.181.372 3.467.118 1.285.237 2.663.338 3.999.195 2.723.339 5.395.432 7.94.169 5.074.152 10.046-.06 14.756h.888c.237-5.074.245-10.359 0-15.779-.11-2.774-.279-5.606-.507-8.456-.228-2.849-.44-5.133-.846-7.61a43.9682 43.9682 0 00-1.615-6.858 31.088 31.088 0 00-2.858-6.359 22.5715 22.5715 0 00-10.214-9.149 53.4896 53.4896 0 00-6.308-2.334l-1.438-.439-1.877-.584-1.751-.558-.228-.076c-.38-.135-.769-.262-1.141-.414a9.2068 9.2068 0 01-1.852-1.083 11.264 11.264 0 01-1.784-1.809 13.0205 13.0205 0 01-1.599-2.774 14.6371 14.6371 0 01-.93-3.382c-.11-.881-.133-1.77-.067-2.655 1.933-.4 3.829-.966 5.665-1.691a19.533 19.533 0 005.302-3.027c.346-.289.677-.597.989-.922.386-.408.718-.862.99-1.353.259-.45.476-.923.651-1.412.194-.552.349-1.117.465-1.691.153-.738.268-1.483.346-2.233.076-.634.136-1.276.186-1.919a.172.172 0 00.102.051c.502.089 1.012.134 1.522.135.396-.001.792-.032 1.184-.093a7.2403 7.2403 0 002.537-.888 6.8288 6.8288 0 001.894-1.573c.201-.243.385-.5.549-.769.156-.272.292-.554.406-.846.531-1.388.593-2.911.178-4.338-.188-.715-.472-1.4-.846-2.038a7.8791 7.8791 0 003.323-2.266c.566-.601 1.072-1.255 1.514-1.953.459-.709.858-1.456 1.192-2.232.567-1.336 2.216-5.919-.634-8.6-.169-.163-.35-.313-.541-.448.101-.036.198-.084.287-.144.303-.186.586-.401.846-.642a5.28 5.28 0 001.108-1.59c.573-1.308.805-2.739.676-4.16a11.9002 11.9002 0 00-1.116-4.338A7.9765 7.9765 0 0093 279.86a5.1228 5.1228 0 00-1.015-.541c-.152-.059-.313-.11-.465-.152.354-.567.638-1.175.846-1.81.239-.754.351-1.542.329-2.333a8.0491 8.0491 0 00-1.429-4.304 12.0217 12.0217 0 00-3.483-3.383 13.8987 13.8987 0 00-4.617-1.953c-.819-.185-1.656-.278-2.495-.279-.304 0-.609 0-.913.042a8.823 8.823 0 00-2.807.702 6.0093 6.0093 0 00-.457-1.26 7.3049 7.3049 0 00-1.023-1.497 8.3536 8.3536 0 00-1.395-1.302c-.536-.4-1.101-.759-1.691-1.074a17.1817 17.1817 0 00-4.051-1.513 21.6396 21.6396 0 00-4.4899-.584h-.4312l.2368-.008zm1.0738 34.026a9.9021 9.9021 0 003.1115-.49 7.7206 7.7206 0 003.619-2.495c.352-.441.652-.921.897-1.429.104-.211.194-.428.27-.651.182.305.398.589.643.846.575.65 1.255 1.199 2.012 1.623.703.407 1.479.675 2.283.787h.525c.374.001.747-.051 1.107-.153a10.0976 10.0976 0 00-.38 4c.044.379.111.754.203 1.125.111.407.252.806.423 1.192.287.642.668 1.238 1.133 1.767a8.4516 8.4516 0 00-1.607 4.363c-.017.407.005.815.068 1.218.069.424.197.837.38 1.226.359.714.925 1.304 1.624 1.691v4.828c0 2.005-.051 3.763-.127 5.362-.051.921-.118 1.834-.194 2.756-.068.693-.136 1.378-.229 2.072a14.0043 14.0043 0 01-.888 3.458c-.227.52-.511 1.013-.845 1.472-.497.611-1.065 1.162-1.691 1.64a19.2902 19.2902 0 01-4.169 2.359 36.0826 36.0826 0 01-8.9464 2.368 37.286 37.286 0 01-4.8621.313 38.2495 38.2495 0 01-4.9128-.322 28.0624 28.0624 0 01-6.8239-1.784 19.077 19.077 0 01-4.0334-2.283l-.0677-.051a14.6692 14.6692 0 01-2.486-2.477 36.056 36.056 0 01-.6257-.846 8.689 8.689 0 01-.6426-1.226v-.076c-.389-.977-.6478-2-.7695-3.044a33.876 33.876 0 01-.1269-5.336v-.33c0-.752.0508-1.496.0592-2.24 0-1.125 0-2.25.0677-3.383.0676-1.133.093-2.029.1522-3.044.2419-.154.4735-.323.6934-.507.3156-.284.5991-.602.8455-.947a5.3524 5.3524 0 00.9471-2.342 7.608 7.608 0 00.0845-1.362 4.3278 4.3278 0 00-.2029-1.124c-.0845-.279-.186-.55-.2875-.846l-.1353-.389a5.7234 5.7234 0 01-.2959-1.023 2.1293 2.1293 0 010-.237c.0374-.094.0887-.183.1522-.262.2198-.279.465-.541.7103-.803.2996-.294.5819-.604.8455-.93.1036-.155.1914-.319.2622-.491.1067-.225.1999-.457.279-.693.1726-.486.2972-.987.3721-1.497a8.4551 8.4551 0 00-.2706-3.864l.2198.169a9.4863 9.4863 0 002.0041 1.023c1.1683.423 2.4019.638 3.6444.634.3129 0 .6342 0 .9555-.042a8.6151 8.6151 0 004.228-1.488 6.376 6.376 0 001.5305-1.556c.2183-.314.4052-.648.558-.998.1198.151.2299.309.3298.474.2485.364.5317.704.8456 1.014a9.901 9.901 0 001.8096 1.514 10.8032 10.8032 0 004.3801 1.606c.4677.068.9396.101 1.4121.102l-.0677.059zm-30.6101 14.316c.3021-.121.6171-.206.9386-.254.1154-.008.2313-.008.3467 0 .1324-.008.2651-.008.3975 0 .2509.049.4971.119.7356.212.244.115.4762.254.6934.414.2817.226.5421.478.7779.752 0 .584-.0676 1.125-.093 1.692v.236a3.831 3.831 0 00-.4482-.448 4.7101 4.7101 0 00-1.4374-.786 3.5902 3.5902 0 00-1.1078-.169 3.3043 3.3043 0 00-.5073 0 3.7827 3.7827 0 00-1.6912.702.4526.4526 0 00-.2029.262.4445.4445 0 00-.014.177.444.444 0 00.0563.169c.0428.07.1025.127.1735.167a.485.485 0 00.2324.062.3727.3727 0 00.2114-.068c.2198-.165.4582-.304.7102-.414a2.902 2.902 0 01.6596-.178c.1154-.008.2313-.008.3467 0h.3974c.265.051.5252.125.7779.22.2612.123.5103.27.7442.44.2536.204.4859.433.6933.685.1064.144.2052.293.296.448a.2797.2797 0 00.0761.093V313.937c0 .728 0 1.455-.0507 2.182 0 .888-.0592 1.767-.0592 2.647l-.2875.042h-.0846c-.2283 0-.5412.042-.8456.042a7.4683 7.4683 0 01-.8456-.051 7.7903 7.7903 0 01-1.6911-.448 6.2519 6.2519 0 01-2.5368-1.877 6.2484 6.2484 0 01-.6511-1.125 5.9109 5.9109 0 01-.3636-1.344 7.0546 7.0546 0 010-1.691 8.174 8.174 0 01.5158-1.844 8.759 8.759 0 011.0147-1.741 7.745 7.745 0 011.2346-1.235l-.093.059a7.7971 7.7971 0 011.0231-.609h.0592l-.1015.009zm48.5446.456c.222-.164.46-.306.711-.422.234-.095.478-.163.727-.203.132-.009.265-.009.397 0h.347c.328.046.65.134.955.262.371.17.723.38 1.049.626l-.068-.077c.439.36.839.766 1.193 1.21.417.547.766 1.144 1.04 1.775.246.592.422 1.211.524 1.844.059.539.059 1.084 0 1.623-.067.485-.194.96-.381 1.412a6.017 6.017 0 01-.634 1.1c-.313.386-.668.738-1.057 1.048-.462.333-.958.616-1.48.846-.545.212-1.112.362-1.691.448h-.845c-.308 0-.616-.017-.922-.051H82.058a.2803.2803 0 00-.152 0c.127-1.691.194-3.534.22-5.775v-1.759l.287-.423c.207-.249.436-.478.685-.685.238-.166.489-.31.753-.431.248-.101.506-.178.769-.228h.753c.225.037.446.096.659.177.251.112.489.251.711.415.061.045.135.069.211.067.08 0 .159-.021.229-.061.069-.04.127-.098.168-.167a.493.493 0 00.051-.347.4763.4763 0 00-.211-.262 3.7064 3.7064 0 00-1.691-.702 3.1972 3.1972 0 00-.499 0c-.377-.003-.751.057-1.108.178-.524.171-1.011.438-1.438.786-.12.093-.233.195-.338.305v-1.92c.164-.177.339-.343.524-.499h.043l-.026-.11zm-23.5999 27.414c.6088 0 1.2177 0 1.8265-.042a37.3389 37.3389 0 005.2594-.626c-.058.941-.016 1.885.127 2.816.28 1.885.939 3.695 1.936 5.319.474.792 1.042 1.525 1.691 2.181a9.9351 9.9351 0 002.157 1.641c.33.173.668.328 1.014.465a.3008.3008 0 00-.109.177l-.051.195v.389c-.021.061-.038.123-.051.186l-.051.186a.6735.6735 0 000 .127v.186c-.127.423-.245.845-.38 1.251l-.042.127v.085l-.11.346v.085c-.195.583-.406 1.15-.635 1.691l-.194.482v.093a25.8519 25.8519 0 01-3.34 5.471 15.8412 15.8412 0 01-2.723 2.79 10.9012 10.9012 0 01-2.4352 1.446 9.5598 9.5598 0 01-2.1647.592 9.828 9.828 0 01-1.0147.059 9.3456 9.3456 0 01-.9893-.059h-.1015a10.4076 10.4076 0 01-2.1393-.617h-.093a13.2487 13.2487 0 01-2.2831-1.387 16.9545 16.9545 0 01-2.6974-2.739l-.0592-.077a26.1495 26.1495 0 01-3.1794-5.58v-.085a39.2486 39.2486 0 01-1.9364-6.19 9.4122 9.4122 0 002.0886-1.581 11.7268 11.7268 0 001.6912-2.181c.4955-.803.9091-1.652 1.2345-2.537.3309-.897.5661-1.827.7019-2.774.1255-.839.1764-1.688.1522-2.536.9217.186 1.8941.338 2.9595.456 1.3146.138 2.6356.205 3.9574.203l-.017-.034zm-13.783 19.33l-.1775-.423a47.8115 47.8115 0 01-2.1224-6.68l.3128-.093.2114-.067c.6426-.203 1.2938-.423 1.9195-.685a36.99 36.99 0 001.6912 5.479 27.2164 27.2164 0 003.2301 6.038 14.7815 14.7815 0 005.3779 4.76c.5315.252 1.083.458 1.6489.618a8.8215 8.8215 0 001.6911.304h.6765a9.1057 9.1057 0 002.875-.491c1.1899-.409 2.3-1.021 3.2804-1.809a16.0513 16.0513 0 002.825-2.875 25.9162 25.9162 0 003.517-6.308c.246-.609.448-1.175.643-1.742l.076-.203.042-.161.051-.135c.178-.558.321-1.032.457-1.513v-.28l.067-.253V347.405l.068-.287.042-.152a.3827.3827 0 000-.135c.288.109.584.202.888.304l.203.068c.423.135.846.279 1.285.405l-.093.372v.508c0 .101-.042.144-.05.194l-.127.465c-.178.609-.355 1.193-.541 1.768l-.051.152-.119.363c-.312.914-.659 1.844-1.048 2.774a32.9018 32.9018 0 01-3.721 6.629l-.203.262a20.0143 20.0143 0 01-3.45 3.518 14.5403 14.5403 0 01-2.9168 1.691h-.0423a13.317 13.317 0 01-2.7059.711c-.4293.05-.8613.076-1.2937.076a12.2885 12.2885 0 01-1.243-.068h-.1099c-.922-.152-1.824-.407-2.689-.761a14.211 14.211 0 01-2.8919-1.691h-.0422a21.5213 21.5213 0 01-3.45-3.543 31.8866 31.8866 0 01-3.9912-7.002v.127z" fill="#2C2C2C"/></g><mask id="c" mask-type="alpha" maskUnits="userSpaceOnUse" x="141" y="0" width="119" height="118"><path d="M200.788 117.63c32.468 0 58.788-26.3324 58.788-58.815S233.256 0 200.788 0C168.32 0 142 26.3324 142 58.815s26.32 58.815 58.788 58.815z" fill="#2C2C2C"/></mask><g mask="url(#c)"><path d="M258.489 58.815c0 31.882-25.834 57.727-57.701 57.727s-57.7-25.845-57.7-57.727c0-31.8824 25.833-57.7274 57.7-57.7274 31.867 0 57.701 25.845 57.701 57.7274z" fill="#fff" stroke="#F3F4F7" stroke-width="2.1752"/><path d="M187.324 9.3547h-.888c-.547.012-1.093.0665-1.631.1632-.517.1139-1.024.2666-1.517.4568h-.179c-.351.1142-.702.2285-1.052.3672l-.229.0897a.3417.3417 0 00-.244-.0979h-.098c-.424.1142-.881.2447-1.321.3998a7.0236 7.0236 0 00-1.199.5873l-.506.3182-.603.3753-.53.31-.139.0734a4.945 4.945 0 00-.489.2937c-.17.1132-.333.2357-.489.3672l-.253.2121-.253.2121-.424.3589c-.204.1551-.399.3182-.595.4895-.318.2693-.644.563-.979.9056l-.236.2448-.237.2447c-.203.1632-.391.3345-.587.514-.195.1795-.342.3018-.513.465-.172.1632-.31.3182-.465.4813l-.212.2285c-.082.0897-.172.1794-.253.2773a1.189 1.189 0 00-.261.408.5886.5886 0 000 .2365 14.213 14.213 0 00-.383.6038l-.106.1713-.155.2366c-.139.2366-.286.465-.416.7097a6.9702 6.9702 0 00-.416.8567 7.912 7.912 0 00-.334.9953c-.082.3263-.155.6608-.229.9871a8.8559 8.8559 0 00-.171 1.134V25.1736a6.83 6.83 0 00.082 1.0198c.057.3671.122.7342.203 1.0932.078.3748.176.7452.294 1.1095l.106.3508.057.1713c.057.1876.114.3753.188.5548.163.3916.367.7668.554 1.1177.188.3508.367.6526.571.9545.098.1387.196.2773.302.4079l.065.0816c.13.1631.261.3181.4.465.281.2964.587.5692.913.8158l.351.2529.342.2611a.2126.2126 0 000 .1224.5128.5128 0 00.196.261l.22.155c.011.0836.046.162.101.2258a.433.433 0 00.209.1332c.103.0358.21.063.318.0816l.147.0408c.334.1975.68.3746 1.035.5302.204.0898.408.1714.62.2448.276.1051.563.1763.856.2121.197.0308.396.0498.595.0571h.482l-.343.2937c-.236.2203-.465.4569-.693.6935l-.073.0815-.416.4243-.359.3671c-.22.2284-.424.465-.62.7016l-.122.155-.114.1305c-.229.2693-.457.5385-.669.8159-.114.155-.22.31-.318.4732l-.147.2937-.122.2284-.228.4324c-.115.2039-.221.3997-.319.6037-.097.2039-.114.2284-.171.3508l-.065.1632-.13.3018-.131.3019c-.236.5466-.44 1.1176-.612 1.6316-.171.514-.334.9627-.497 1.4359-.156.4832-.279.9766-.367 1.4766-.09.4732-.171.9545-.236 1.444-.057.4079-.098.8159-.115 1.2156-.016.3998 0 .5792 0 .8729v1.3951c0 .4324 0 .8648-.04 1.3053v2.1946c0 .8158.073 1.6316.122 2.5127 0 .4977.114 1.0035.188 1.493l.073.4895v.1795c0 .2366.057.4732.098.7016l.098.5384.073.6608v.204c0 .1876 0 .3508.155.4569a.4986.4986 0 00.31.1305.4069.4069 0 00.212-.0653.8995.8995 0 00.302-.3263l.195-.2855c.129-.1382.268-.2664.416-.3835.168-.1108.345-.2064.53-.2855l.514-.2203a.4361.4361 0 00.112.1751.4382.4382 0 00.182.1023h.13c.088-.0022.176-.0159.261-.0408l.546-.0979a4.169 4.169 0 01.612-.0571H176.577a.3784.3784 0 00.13 0 .7144.7144 0 00.277-.0653 1.046 1.046 0 00.433-.5466c.105-.2043.184-.4207.236-.6445.055-.2253.093-.4544.114-.6853 0-.155.049-.31.066-.4568v-.3264c0-.1876.048-.3752.065-.5629v-1.5337-.6853c0-.2285 0-.3998-.049-.6037v-.204c0-.3182-.082-.6363-.131-.9545 0-.1795-.057-.359-.081-.5385l-.098-.8158c-.041-.3589-.049-.7179-.057-1.0687v-.465-.4569c-.003-.317.022-.6336.073-.9464l.066-.3752.057-.31.04-.253c0-.1958.066-.3916.106-.5874a9.5868 9.5868 0 01.498-1.6316c.18-.3848.385-.7581.611-1.1177l.115-.1958.318-.5303c.155-.2366.318-.4731.489-.6934.356-.4377.743-.8493 1.158-1.2319l.049.2366c.008.0814.008.1633 0 .2447a1.68 1.68 0 01-.123.3916c-.187.4569-.334.9301-.473 1.3951l-.065.2284-.065.1958c-.065.204-.13.4079-.179.6119-.049.2039-.123.4568-.188.6853l-.057.1631c-.09.3345-.155.6609-.212 1.0035-.034.175-.056.3522-.065.5303v2.7004a.4257.4257 0 00.03.1656.4326.4326 0 00.094.1398.4205.4205 0 00.142.0912.4139.4139 0 00.166.0276.4784.4784 0 00.187 0h.473l.661-.0979c.408-.0571.815-.1387 1.223-.2203.408-.0816.579-.0897.816-.1223l.766-.0653c.343 0 .693-.049 1.036-.0734h.595l1.46-.0898h.146c.196 0 .4 0 .588-.0408l.913-.1387a.4996.4996 0 00.302-.1386.4617.4617 0 00.089-.1632h5.717c.399.0489.815.0816 1.255.106l.522.0572.408.0407c.318 0 .636.0572.962.0735.326.0163.767.0734 1.134.1223l.897.0979h1.109l.416-.0407h.579c.13 0 .252 0 .375.0734a3.18 3.18 0 01.334.1631.4979.4979 0 00.351.1469.4203.4203 0 00.173-.0353.4334.4334 0 00.145-.1034c.251-.3178.474-.6562.668-1.0116a7.61 7.61 0 00.481-1.1095.4567.4567 0 00.27-.1132.45.45 0 00.146-.254l.09-.5874.171-1.1748c0-.2284.082-.4568.131-.6771v-.1142l.171-.8158c.122-.5466.253-1.0851.391-1.6317.061-.2313.11-.4654.147-.7016.041-.1721.071-.3464.09-.5221a1.2 1.2 0 000-.1469l.473.669c.179.2611.351.5058.489.7506.304.5496.576 1.1161.816 1.6969.264.6407.468 1.3043.611 1.9824.065.2937.098.6038.139.9056v.1958c0 .1795.057.359.081.5303v.2937l.049.4079c0 .204 0 .4079.074.62.012.2732.116.5344.293.7424a.5787.5787 0 00.441.155h.44c.139 0 .269 0 .399-.0489H215.221c.171 0 .334 0 .497.0489h.71c.174-.0121.348-.0121.522 0h.212l.326.0571c.128.0085.256.0085.383 0 .298.065.606.0706.905.0164l.09-.0408a.451.451 0 00.287-.0738.4504.4504 0 00.178-.2362c.042-.146.063-.2969.065-.4487v-.8893l.049-.4569c0-.3671.057-.726.057-1.085s0-.7506-.057-1.1258v-.2448-.2529c0-.0816 0-.3998-.065-.6037-.049-.359-.122-.7098-.188-1.0687v-.1306l-.089-.4405c-.049-.2448-.098-.4895-.139-.7424-.041-.2529-.082-.3427-.131-.5221-.048-.1795-.106-.2856-.163-.4324.069.031.135.0693.196.1142a2.32 2.32 0 01.31.3182c.201.2982.378.6119.53.9381.114.253.236.4977.342.7506l.139.2855c.18.3835.351.7669.522 1.1504.171.3834.212.5466.302.8158.089.2692.122.4487.171.669l.073.2855c.145.5618.259 1.131.343 1.7051V52.1692a9.8576 9.8576 0 01-.098 1.0851v.0897c0 .2121-.057.4243-.073.6445l-.049.4487-.066.3998c0 .2611-.089.5303-.114.8158a6.5312 6.5312 0 000 .8158v3.1328c0 .2284 0 .465.074.6935.037.2804.111.5547.22.8158.036.0734.077.1443.122.2121.087.1518.204.2849.343.3916a.723.723 0 00.464.1224h.685c.172 0 .343 0 .514-.0571h.114c.196.0284.389.0693.579.1223h.098l.335.0898c.251.0534.499.1242.742.2121.228.0929.446.2077.652.3426.137.1155.263.2439.375.3835a.3683.3683 0 00.294.1224.4427.4427 0 00.318-.1224.4258.4258 0 00.092-.1385.415.415 0 00.03-.1634c.057-.1876.114-.3589.163-.5303.035-.1535.062-.3087.082-.465v-.1142c0-.2366.065-.4732.089-.7179.025-.2448 0-.3182.049-.4732v-.1795c.041-.3018.09-.6037.106-.9055.017-.3019.057-.7751.098-1.1422 0-.1632 0-.3263.057-.4895s.057-.4569.074-.6935c0-.3671.048-.7424.048-1.1095v-2.2435c0-.3997-.048-.8158-.089-1.2156a11.7885 11.7885 0 00-.171-1.1829v-.155l-.155-.9301c0-.1958-.066-.3834-.09-.571l-.008-.5222v-.2774c-.114-.6689-.229-1.3624-.4-2.0395-.212-.8158-.432-1.5256-.669-2.1701a15.2963 15.2963 0 00-.252-.6445l-.147-.3671c-.147-.3672-.294-.7343-.457-1.0851-.163-.3508-.318-.7016-.497-1.0361l-.595-1.0198-.563-.979c-.155-.2529-.318-.5058-.481-.7587l-.155-.2284-.188-.2856c-.179-.2692-.359-.5384-.546-.8158-.188-.2774-.383-.5058-.579-.7505l-.188-.2285a16.5646 16.5646 0 00-1.63-1.7377c-.319-.2937-.653-.5792-.987-.8566-.335-.2774-.473-.3671-.71-.5466-.236-.1795-.269-.1876-.391-.2855l.073.0815-.163-.1468-.693-.5058-.081-.049-.376-.2855-.366-.2855a10.6482 10.6482 0 00-.922-.6119c-.326-.1958-.652-.3753-.978-.5548a7.4029 7.4029 0 00-.914-.416l-.122-.0572.09.0653-.115-.0734-.228-.1224-.579-.2937-.44-.2121a10.2282 10.2282 0 00-1.248-.5221l-1.566-.5303-.725-.2448-1.199-.3834-.815-.2366-.327-.0897a10.297 10.297 0 00-1.19-.2529c-.277-.049-.538-.0735-.816-.0979h-.252l-.588-.0898h-.195l-.938-.106h-.457c-.465-.0408-.937-.0816-1.402-.1061h-.628c-.367 0-.742-.0653-1.125-.0653h-1.167l.294-.3263c.204-.2366.408-.4813.603-.7342.196-.2529.196-.2856.294-.4324l.073-.1224c.181-.2942.318-.613.408-.9463.082-.2937.155-.5874.22-.8893a4.86 4.86 0 00.09-.9627v-1.0198-.8403a7.7983 7.7983 0 00-.163-1.1584v-.1387a5.8036 5.8036 0 00-.286-.8811c0-.1142-.089-.2203-.13-.3345v-.0408a9.994 9.994 0 00-.603-1.5011l-.106-.2284c-.106-.2285-.212-.4487-.335-.6772-.122-.2284-.318-.6118-.473-.9219a4.799 4.799 0 00-.742-1.1503c-.187-.2121-.375-.4405-.571-.6526a6.071 6.071 0 00-.815-.8159 6.1997 6.1997 0 00-.816-.5547l-.391-.2529-.538-.3264c-.237-.1305-.481-.2447-.726-.3589l-.204-.0979a6.6689 6.6689 0 00-.913-.3671 8.416 8.416 0 00-.962-.2611c-.424-.0979-.816-.1632-1.15-.2203-.334-.0571-.693-.0734-1.044-.0979-.351-.0245-.815-.0408-1.231-.0408M219.674 72.435a.445.445 0 00-.194.041.4363.4363 0 00-.157.122c-.061.072-.113.152-.155.237.003.019.003.038 0 .057v.049l-.318.465c-.305.45-.578.922-.815 1.411-.245.49-.506.963-.816 1.428-.31.465-.554.881-.815 1.313-.261.433-.498.71-.759 1.053-.297.361-.612.707-.946 1.036-.309.326-.627.661-.954.979-.326.318-.668.628-1.019.93l.09-.074c-.22.188-.449.367-.661.563-.169.153-.322.322-.456.506a.3656.3656 0 00-.049.204l-.155.073c-.205.093-.415.174-.628.245a.4087.4087 0 00-.147.078.4083.4083 0 00-.104.129.4.4 0 00-.046.159c-.005.056.002.112.02.165.035.105.11.193.209.245.099.051.214.063.321.032.187-.065.367-.122.546-.204l.644-.31c.383-.212.767-.432 1.142-.661.375-.228.677-.416.995-.644.318-.229.66-.49.995-.726.334-.237.595-.425.88-.661.286-.237.653-.563.971-.816l.864-.816c.294-.285.595-.563.881-.816.473-.489.921-1.011 1.378-1.517.212-.237.432-.465.628-.71.195-.245.424-.53.644-.816.359-.432.709-.865 1.036-1.321a.819.819 0 00.13-.319c.015-.064.016-.13.003-.195a.4872.4872 0 00-.076-.18l-.09-.106a.3887.3887 0 00-.119-.174.3848.3848 0 00-.191-.087c-.125-.012-.25-.012-.375 0a3.9059 3.9059 0 00-.53 0h-.343l-.342-.065c-.106 0-.212-.09-.326-.123l-.294-.098a1.4095 1.4095 0 00-.261-.089h-.081a.4532.4532 0 00-.147 0l-.008.008zm.399.032h.074-.074zm.636.221h.057-.057zM213.011 100.14a.5035.5035 0 00-.285.155c-.09.091-.17.193-.236.302-.218.336-.452.66-.702.971l-.163.22c-.159.122-.309.256-.448.4a.439.439 0 00-.082.269l-.155.196-.546.457c-.261.22-.522.424-.816.636-.293.212-.505.376-.758.563-.106.082-.22.155-.334.229l-.514.342-.718.465h.041l-.073.049-.139.082-.351.106c-1.403.397-2.827.718-4.264.963-1.325.223-2.662.37-4.004.44h-.661c-.318-.139-.644-.245-.97-.351l-.612-.253-1.631-.693-1.631-.742-.815-.4-.473-.204a4.8283 4.8283 0 00-.481-.172l-.22-.065h-.147l-.628-.457c-.44-.326-.864-.669-1.28-1.019-.416-.351-.726-.629-1.077-.955-.35-.326-.701-.71-1.06-1.052-.139-.14-.298-.258-.473-.351a1.1736 1.1736 0 00-.301-.09.5156.5156 0 00-.351.106c-.084.056-.163.119-.237.188-.133.111-.254.237-.358.375a.382.382 0 00-.212 0 .4211.4211 0 00-.224.232c-.042.104-.04.22.004.323.094.258.223.502.383.726.122.171.261.326.391.481.253.302.489.62.726.93.114.147.22.294.342.433.145.182.303.354.473.514.302.302.636.571.971.815.616.514 1.277.973 1.973 1.371.678.395 1.378.752 2.096 1.069l1.06.432c.375.155.758.302 1.142.424.383.123.709.213 1.06.31.35.098.815.196 1.174.286.359.09.766.147 1.15.212.383.065.815.122 1.166.163l1.117.139c.36.034.723.047 1.085.041.386.001.773-.018 1.157-.057.367-.049.743-.123 1.11-.204.815-.18 1.59-.376 2.364-.629l.514-.171c.184-.069.363-.148.538-.236l1.011-.474c.359-.179.718-.375 1.061-.579.342-.204.709-.432 1.043-.677.335-.245.612-.489.93-.734.318-.245.571-.433.815-.686.245-.252.563-.505.816-.766l.685-.653c.206-.197.402-.404.587-.62.147-.171.318-.335.465-.506.146-.171.261-.31.383-.457.124-.143.236-.295.334-.457.073-.146.09-.314.049-.473a1.245 1.245 0 00-.163-.367c-.06-.083-.131-.157-.212-.22l-.212-.163-.179-.155a1.1849 1.1849 0 00-.294-.18c-.106-.05-.219-.086-.334-.106l-.237-.049H212.873l.138.008zm-25.262 1.444h.04-.04z" fill="#2C2C2C"/><path d="M204.914 90.595a.5525.5525 0 010-.115c.125 1.001.374 1.982.742 2.921.114.261.237.514.375.767.17.284.358.556.563.816l-.049-.057.049.057c.547.669 1.171 1.271 1.859 1.795a37.4096 37.4096 0 005.472 3.181c.937.49 1.851 1.004 2.748 1.559.897.554 1.769 1.158 2.609 1.786a35.3802 35.3802 0 014.608 4.153 33.3013 33.3013 0 013.734 4.895 34.3982 34.3982 0 012.814 5.58 48.7866 48.7866 0 012.006 6.649 87.9736 87.9736 0 012.201 15.076c.163 2.709.204 5.417.139 8.118 0 1.305-.106 2.61-.188 3.908-.048.644-.097 1.289-.163 1.925-.065.636-.098 1.036-.163 1.558h-.815c.122-.905.196-1.827.269-2.741.073-.914.122-1.787.171-2.684.093-1.876.125-3.753.098-5.629a95.4459 95.4459 0 00-.815-11.193v.114c-.369-2.765-.878-5.51-1.525-8.224a48.204 48.204 0 00-2.275-7.293 33.7098 33.7098 0 00-4.273-7.343l.065.082a33.7927 33.7927 0 00-5.994-5.98 37.6264 37.6264 0 00-5.251-3.345 45.5038 45.5038 0 01-5.529-3.149c-.845-.598-1.61-1.303-2.275-2.097a8.9254 8.9254 0 01-.816-1.134 8.8425 8.8425 0 01-.587-1.329c-.321-.952-.532-1.938-.628-2.937-.106-1.036-.13-2.078-.073-3.117 0-.255.016-.508.049-.759.21-.055.417-.123.62-.204l.261-.122a19.8347 19.8347 0 000 4.569M195.225 86.1571l.253.066c0 .285.049.571.065.816.054 1.042.027 2.086-.082 3.124-.095 1-.306 1.986-.628 2.937a8.71 8.71 0 01-.587 1.33c-.223.399-.479.778-.766 1.134-.668.792-1.432 1.496-2.275 2.097a46.9772 46.9772 0 01-5.529 3.1489 36.7704 36.7704 0 00-5.26 3.345 34.0872 34.0872 0 00-6.042 6.02l.065-.081a33.6225 33.6225 0 00-4.273 7.342v.065a47.133 47.133 0 00-2.267 7.286 82.7286 82.7286 0 00-1.558 8.232v-.115a92.113 92.113 0 00-.815 11.193c0 1.877.03 3.753.09 5.63.049.897.106 1.786.171 2.684.065.897.155 1.835.269 2.741h-.815c-.066-.514-.123-1.036-.163-1.558-.058-.645-.115-1.281-.155-1.926-.09-1.305-.155-2.602-.188-3.908-.065-2.708 0-5.408.139-8.117a87.152 87.152 0 012.193-15.076 49.7366 49.7366 0 011.965-6.658 34.3593 34.3593 0 012.806-5.58 33.3542 33.3542 0 013.734-4.895 35.3077 35.3077 0 014.608-4.152c.815-.629 1.712-1.232 2.609-1.787.897-.555 1.81-1.069 2.748-1.5579 1.912-.906 3.745-1.97 5.48-3.182a11.349 11.349 0 001.851-1.795c.199-.26.381-.533.546-.816.139-.244.261-.497.384-.758.364-.94.613-1.921.742-2.921v.114a20.742 20.742 0 000-4.552c.199.063.404.11.611.139M200.021 61.3467c.079.078.126.1828.131.2937.05.2997.135.5926.253.8729.348.748.735 1.4778 1.158 2.1864.195.3504.375.7014.546 1.0604.159.353.279.723.359 1.102.061.323.061.655 0 .979-.073.329-.24.629-.481.864-.134.137-.288.253-.457.343-.194.112-.399.205-.612.277-.288.098-.586.164-.888.196a3.909 3.909 0 01-.433 0c-.186 0-.371-.016-.554-.049a.4534.4534 0 01-.253-.196.4006.4006 0 01-.054-.159.4276.4276 0 01.013-.167.4356.4356 0 01.196-.253.4474.4474 0 01.326 0h.065c.212.021.425.021.636 0 .301-.05.596-.129.881-.236.15-.063.292-.142.424-.237.075-.064.146-.132.212-.204.036-.058.069-.118.098-.179.03-.074.052-.151.065-.229.012-.127.012-.256 0-.383a4.114 4.114 0 00-.261-.89c-.358-.815-.815-1.6312-1.255-2.3736a8.6687 8.6687 0 01-.563-1.1503c-.074-.1795-.139-.3508-.196-.5385a3.8353 3.8353 0 01-.114-.62.3831.3831 0 01.028-.1605.3961.3961 0 01.094-.1332.4223.4223 0 01.139-.0919.4141.4141 0 01.163-.0305.3942.3942 0 01.16.03c.05.0211.096.0526.134.0924l.04-.0163zm.351 1.1993v.0407a.0705.0705 0 010-.0407zm.465 5.9151h-.049.049z" fill="#2C2C2C"/><path d="M221.583 61.8291c0 .1958-.049.3998-.082.6037a.1378.1378 0 010 .0572 35.1716 35.1716 0 01-2.153 8.256v.049c-.017.062-.038.122-.065.18l-.049.122a.4954.4954 0 00-.041.098l-.057.122c-.342.816-.717 1.632-1.125 2.382v.058l-.073.146-.107.188a30.2561 30.2561 0 01-2.495 3.843l-.342.424a24.9534 24.9534 0 01-4.012 3.965c-.375.285-.767.571-1.158.816l-.106.073h-.049l-.082.057-.057.041h-.065l-.082.057h-.049l-.097.057-.115.073-.122.074-.122.073c-.762.447-1.552.845-2.365 1.191l-.196.082h-.22c-.473.179-.946.343-1.427.489h-.196c-.756.219-1.528.386-2.307.498h-.351l-.424.049h-.367c-1.315.114-2.639.081-3.947-.098h-.318a19.0332 19.0332 0 01-4.118-1.183h-.049a21.4727 21.4727 0 01-4.419-2.619 25.5414 25.5414 0 01-4.461-4.079l-.057-.073a1.1984 1.1984 0 00-.082-.106l-.065-.09a1.1875 1.1875 0 00-.081-.106l-.058-.057a.5225.5225 0 01-.081-.106l-.065-.082-.074-.114a.6436.6436 0 01-.065-.09s-.057-.073-.073-.106a.8194.8194 0 00-.066-.089l-.081-.115a.2893.2893 0 00-.057-.081l-.082-.123a.4902.4902 0 00-.049-.073l-.089-.131-.049-.081-.082-.123-.049-.073-.089-.131a.402.402 0 00-.041-.073l-.09-.139v-.057a1.3757 1.3757 0 01-.09-.147.2526.2526 0 01-.04-.065 1.3757 1.3757 0 01-.09-.147v-.057l-.098-.155a.2008.2008 0 000-.049.9617.9617 0 00-.09-.155v-.049l-.097-.163v-.049l-.098-.163v-.057l-.261-.22-.057-.049-.074-.131a.4341.4341 0 00-.057-.106c0-.041-.041-.073-.057-.106l-.073-.139a.35.35 0 00-.041-.073c0-.074-.073-.139-.106-.212-.367-.702-.693-1.412-1.003-2.146 0 0-.098-.236-.147-.367v-.065a.4623.4623 0 01-.073-.196 1.3553 1.3553 0 01-.066-.163 35.7816 35.7816 0 01-1.908-7.0652c-.049-.2937-.098-.5874-.138-.8893l-.098-.8158h-.041l-.13-.0408a.174.174 0 01-.07.0147.1694.1694 0 01-.069-.0147 7.0975 7.0975 0 01-.571-.2447c.139 1.24.326 2.4474.571 3.6878.004.049.004.098 0 .147v.089c.311 1.466.717 2.911 1.215 4.324a32.4228 32.4228 0 002.634 5.711c.31.522.636 1.028.97 1.534a27.7167 27.7167 0 002.651 3.353l.277.293c.781.818 1.621 1.579 2.511 2.277.951.756 1.966 1.428 3.034 2.007l.448.236.115.057c1.414.737 2.919 1.286 4.476 1.632l.938.179.514.082c2.304.322 4.648.2 6.907-.359.416-.098.815-.22 1.223-.351l.155-.049.147-.049a19.3327 19.3327 0 004.305-2.064l.742-.497.163-.106c.253-.172.49-.351.734-.539l.114-.09.09-.073.065-.049.147-.122c.31-.245.612-.506.905-.767l.123-.115c.897-.816 1.732-1.7 2.495-2.643.073-.09.147-.171.212-.261s.179-.228.269-.342a29.7348 29.7348 0 003.776-6.372c.073-.171.146-.335.212-.506l.057-.13c.663-1.59 1.208-3.226 1.631-4.895.106-.441.212-.89.301-1.338.271-1.2802.473-2.5738.604-3.8755l-.881.3997.188-.0571zM179.864 71.3091l.008.008-.008-.008zM177.058 57.7664c.024.0279.046.058.065.0898a.3824.3824 0 00-.163-.2286l.082.1225" fill="#2C2C2C"/><path d="M223.825 61.2251a5.5556 5.5556 0 00-1.509.2448l-.522.2365a.3924.3924 0 00-.103.1823.4017.4017 0 00.005.2093.427.427 0 00.201.2548.4214.4214 0 00.321.0389c.35-.1248.71-.2176 1.077-.2773.314-.0368.631-.0368.945 0 .28.0389.553.1101.816.2121.224.0994.434.2254.628.3752.212.1644.403.3534.571.563.227.3031.419.6316.57.979.179.4546.305.9284.376 1.4114v.073a7.457 7.457 0 010 1.754v-.114a7.105 7.105 0 01-.449 1.689c-.188.434-.426.845-.709 1.224-.266.335-.57.639-.906.905-.325.247-.678.455-1.051.62-.454.184-.927.313-1.411.384a7.31 7.31 0 01-1.786 0 4.736 4.736 0 01-1.011-.278 1.0815 1.0815 0 01-.196-.089.4474.4474 0 00-.326 0 .3935.3935 0 00-.147.071.4213.4213 0 00-.106.124.4271.4271 0 00-.046.32c.028.109.097.202.193.26.295.145.603.26.921.342.268.069.541.118.816.147.542.06 1.089.06 1.631 0 .364-.035.724-.103 1.076-.204a5.8325 5.8325 0 003.409-2.684c.584-1.013.914-2.152.962-3.32a6.7052 6.7052 0 00-.603-3.2065 4.2534 4.2534 0 00-2.055-2.0967 3.9241 3.9241 0 00-1.558-.3263l-.024-.0245zm-3.98 10.712h.057-.057zM175.085 61.3316a3.8824 3.8824 0 00-1.55.3263 4.2154 4.2154 0 00-2.054 2.0885 6.8261 6.8261 0 00-.604 3.2636c.047 1.166.377 2.303.962 3.312a5.9381 5.9381 0 002.593 2.325c.289.129.586.238.889.326.352.101.712.17 1.077.204.542.06 1.089.06 1.631 0 .274-.033.546-.082.815-.146.317-.089.625-.207.922-.351a.437.437 0 00.194-.259.4298.4298 0 00-.04-.32.4339.4339 0 00-.261-.188.4264.4264 0 00-.318 0c-.062.036-.127.067-.195.09-.329.128-.671.221-1.02.277a7.61 7.61 0 01-1.72 0h-.065a6.109 6.109 0 01-1.411-.392 5.3743 5.3743 0 01-1.052-.62 5.9119 5.9119 0 01-.905-.905 6.4037 6.4037 0 01-.718-1.232 7.1634 7.1634 0 01-.448-1.689.543.543 0 000 .114 7.0202 7.0202 0 010-1.762v-.065c.072-.483.197-.9565.375-1.4115.153-.3464.345-.6748.571-.979a3.2036 3.2036 0 011.174-.93c.263-.1009.536-.1721.815-.2121.315-.0367.632-.0367.946 0 .37.0586.734.1542 1.085.2855a.4249.4249 0 00.319-.0454.4257.4257 0 00.195-.2564.3974.3974 0 00-.005-.2459.3956.3956 0 00-.15-.1947l-.367-.155a5.7081 5.7081 0 00-1.631-.2692l-.049.0163zm-2.389 2.0233a.2.2 0 010 .0489v-.0489zm-.482 5.8171v.049-.049zm6.875 2.912h-.057.057zM172.939 70.4121l-.007-.008.007.008z" fill="#2C2C2C"/><path d="M175.166 64.4151c-.369.028-.731.1105-1.076.2447a3.5771 3.5771 0 00-1.052.6442.416.416 0 00-.093.137.4252.4252 0 00-.033.161c0 .056.012.111.033.162.022.051.053.097.093.136.037.04.083.071.134.092.05.021.105.032.159.03.113-.002.22-.046.302-.122l.074-.057c.2-.151.416-.28.644-.384.24-.087.489-.15.742-.187.271-.026.544-.026.815 0 .28.051.554.133.816.244l.171.082c.103.036.215.036.318 0a.4876.4876 0 00.261-.196.4237.4237 0 00.042-.321.4241.4241 0 00-.197-.258 4.9777 4.9777 0 00-1.06-.3753 3.4846 3.4846 0 00-.816-.0897h-.285l.008.0571zM202.801 70.7701h.073c.451.026.885.175 1.256.433.355.236.638.566.815.954.315.769.315 1.63 0 2.399-.073.185-.161.365-.261.538-.094.167-.203.325-.326.473-.257.318-.563.593-.905.816-.312.22-.649.403-1.003.547-.404.168-.821.302-1.248.399-.557.122-1.125.182-1.696.18h-.872a6.7906 6.7906 0 01-2.438-.783 4.7338 4.7338 0 01-.946-.645 4.0992 4.0992 0 01-.816-.946 3.5721 3.5721 0 01-.424-.938 2.7281 2.7281 0 01-.098-1.036c.031-.337.13-.664.293-.96.163-.297.385-.556.653-.762a3.263 3.263 0 011.965-.669h.237c.612.086 1.201.288 1.737.596l.611.285.212.082h.106c.242-.038.478-.106.702-.204.187-.074.367-.163.554-.253l.563-.261c.397-.183.827-.283 1.264-.294l-.008.049zm-3.352 5.817c.335.001.67-.018 1.003-.057.535-.083 1.06-.222 1.566-.416l.253-.114a3.9142 3.9142 0 00-.49-.482 4.031 4.031 0 00-.815-.465c-.284-.1-.576-.176-.873-.228h-.522a4.517 4.517 0 00-.57 0c-.303.05-.601.129-.889.236-.259.116-.505.258-.734.425-.203.163-.388.346-.555.546l.131.09c.502.195 1.025.335 1.557.416.312.033.625.049.938.049zM181.519 33.854c-.79.1599-1.559.4118-2.291.7506a11.6612 11.6612 0 00-3.743 2.8228 17.6322 17.6322 0 00-2.699 4.0791 26.199 26.199 0 00-1.729 4.8134 31.446 31.446 0 00-.816 4.9439 33.2723 33.2723 0 000 5.9718 37.5227 37.5227 0 001.46 7.579v-.0571c.103-.4045.231-.8023.383-1.1911a.1949.1949 0 01.036-.0719.1888.1888 0 01.062-.0504 38.2094 38.2094 0 01-.946-4.6666.1015.1015 0 010 .049 33.9266 33.9266 0 01-.049-8.8109v.1142a29.035 29.035 0 011.925-7.2446 19.1428 19.1428 0 012.373-4.1444l-.065.0816a13.4007 13.4007 0 012.267-2.3006h.048-.04a11.2022 11.2022 0 012.177-1.2809 10.2604 10.2604 0 012.552-.6771 11.4188 11.4188 0 011.631-.0734c.06.0044.12-.0034.177-.023a.4341.4341 0 00.153-.0911.434.434 0 00.104-.1444.4354.4354 0 00.039-.1739.4296.4296 0 00-.032-.1623.4256.4256 0 00-.092-.1377.4156.4156 0 00-.138-.0919.4182.4182 0 00-.162-.0323h-.318a11.0502 11.0502 0 00-2.259.2284l-.008-.0082zM177.001 75.74a27.2301 27.2301 0 003.897 4.422 21.2213 21.2213 0 004.665 3.149c1.762.86 3.633 1.475 5.561 1.827.052.022.107.033.163.033a.413.413 0 00.163-.033.4833.4833 0 00.155-.163 1.7684 1.7684 0 01-.252-.245l-.098-.13c-.139-.106-.269-.221-.4-.335a21.892 21.892 0 01-3.881-1.224 20.7259 20.7259 0 01-4.453-2.594 22.5508 22.5508 0 01-2.226-1.999 26.8049 26.8049 0 01-1.998-2.3 35.7394 35.7394 0 01-2.446-3.671 6.8657 6.8657 0 01-.979-.319l-.147-.065h.017c.687 1.25 1.45 2.457 2.283 3.614M177.67 36.5379l.007-.0076-.007.0076zM171.252 58.9109zM224.485 71.733l-.228.123-.457.302a8.969 8.969 0 01-.815.465c-.514.816-1.052 1.566-1.631 2.317a32.0734 32.0734 0 01-5.529 5.596 25.224 25.224 0 01-2.12 1.461c-.786.471-1.604.888-2.447 1.248h.049-.081c-1.631.693-3.384 1.248-5.056 1.892a.4638.4638 0 00-.253.188.4875.4875 0 00-.049.335c.033.106.105.197.202.252.097.054.212.069.32.041a65.7905 65.7905 0 006.809-2.7 20.5348 20.5348 0 003.001-1.95c.94-.724 1.838-1.5 2.691-2.325a33.86 33.86 0 004.599-5.515c.367-.563.718-1.134 1.052-1.721h-.065l.008-.009zm-3.123 3.223v.049-.049z" fill="#2C2C2C"/><path d="M180.915 43.0818a.425.425 0 00-.253.1877 25.8388 25.8388 0 00-1.476 4.3483 13.034 13.034 0 00-.293 2.2517c-.03.8214.041 1.6435.212 2.4475.014.0532.038.103.072.1467a.418.418 0 00.123.1075.4147.4147 0 00.318.0395.4299.4299 0 00.257-.1998.4278.4278 0 00.045-.3224c-.041-.1794-.073-.3671-.106-.5466a10.8329 10.8329 0 010-2.7167c.3-1.7199.81-3.3967 1.517-4.9928l.065-.1387a.457.457 0 00.041-.3263.4348.4348 0 00-.196-.2529.3917.3917 0 00-.212-.0572.2771.2771 0 00-.114 0v.0245zm.432.7016zM218.386 42.3471a.4264.4264 0 00-.193.2594.4262.4262 0 00.046.3199l.245.5384v.0653-.0408c.398.9678.672 1.982.815 3.0185a13.2017 13.2017 0 010 3.451.4366.4366 0 000-.1142 11.4262 11.4262 0 01-.416 1.8356.4311.4311 0 00.042.3202.4331.4331 0 00.252.2019.441.441 0 00.522-.2937c.468-1.525.64-3.1258.505-4.7155a12.7982 12.7982 0 00-1.264-4.6746.3976.3976 0 00-.153-.1588.3967.3967 0 00-.213-.0534.4767.4767 0 00-.212.0572l.024-.0164zm.93 4.1934v.0652a.1436.1436 0 010-.0652z" fill="#2C2C2C"/><path d="M180.621 42.9759a12.2106 12.2106 0 00-1.362 1.6317 10.2257 10.2257 0 00-1.019 1.8845 12.6808 12.6808 0 00-.653 2.0396c-.159.7091-.265 1.429-.318 2.1538-.071.691-.099 1.3858-.081 2.0803 0 .7098.098 1.4114.179 2.113.231 1.4593.291 2.9404.179 4.4136a6.737 6.737 0 01-.358 1.4114c-.112.245-.24.4821-.384.7098a.4256.4256 0 00-.045.3198.421.421 0 00.192.2594.4394.4394 0 00.587-.155 7.93 7.93 0 00.318-.5711c.103-.2174.193-.4408.269-.6689.148-.4671.247-.9483.294-1.4359.09-1.0356.065-2.078-.073-3.1083-.098-1.0198-.245-2.0314-.294-3.0512v-1.5256c0-.5058.065-.9953.122-1.4848.132-1.1181.406-2.2148.816-3.2633v-.0571c.332-.7421.745-1.4453 1.231-2.0967.294-.3723.61-.7265.946-1.0605a.4316.4316 0 000-.6038.4482.4482 0 00-.302-.1142.4397.4397 0 00-.293.1142l.049.0653zm-2.496 6.8611zm-.619 9.276v0zM218.343 42.3877a.4305.4305 0 00-.122.2937.4571.4571 0 00.122.3018c.082.0898.155.1877.237.2856v-.0408l.057.0652c.544.7123.996 1.4909 1.345 2.317.48 1.2216.803 2.499.962 3.8017a.7257.7257 0 010-.1142c.066.4977.114.9953.155 1.5011.029.5027.029 1.0066 0 1.5093 0 1.0932-.155 2.1864-.244 3.2633a20.795 20.795 0 00-.066 3.2633c.035.5031.112 1.0025.229 1.493.058.2401.129.477.212.7098.091.2376.203.4669.334.6853a.4237.4237 0 00.579.155.4314.4314 0 00.194-.2584.4323.4323 0 00-.039-.3209 5.9259 5.9259 0 01-.22-.416 7.0561 7.0561 0 01-.4-1.6317 21.732 21.732 0 01.082-4.3647c.172-1.4426.219-2.8976.138-4.3483a19.7317 19.7317 0 00-.815-4.3484 12.4682 12.4682 0 00-.816-1.9172 11.089 11.089 0 00-1.296-1.8927.3592.3592 0 00-.285-.1224.4603.4603 0 00-.319.1224l-.024.0082zm3.335 16.912z" fill="#2C2C2C"/><path d="M191.589 50.4976a58.0124 58.0124 0 00-12.101 1.2727.4321.4321 0 00-.342.4895c.02.1107.082.2092.173.2747a.4337.4337 0 00.316.0761 54.839 54.839 0 0110.381-1.24c2.25-.0653 4.501-.0408 6.752.0489 1.1.0408 2.201.0979 3.302.1632 1.101.0653 2.365.155 3.547.3018a.433.433 0 00.311-.0973.4334.4334 0 00.154-.2861.4236.4236 0 00-.098-.3072.422.422 0 00-.285-.1497c-1.011-.1305-2.039-.2039-3.058-.2692-1.019-.0652-2.006-.1142-3.001-.1631-1.631-.0735-3.311-.1224-4.966-.1224h-1.085" fill="#2C2C2C"/><path d="M206.334 42.5433a.4308.4308 0 00-.286.1547.4319.4319 0 00-.098.3103V43.8323a15.6227 15.6227 0 01-.644 3.7773v.0734a10.9296 10.9296 0 01-1.125 2.5209 6.7379 6.7379 0 01-.685.8974.414.414 0 00-.092.147.4167.4167 0 00-.025.1714.4078.4078 0 00.045.1672.4234.4234 0 00.597.171.4299.4299 0 00.127-.1181 10.2206 10.2206 0 002.063-4.0792c.232-.8009.398-1.6195.498-2.4474.093-.744.126-1.4943.097-2.2436a.4147.4147 0 00-.415-.3834l-.057.0571zm-.987 5.0745v-.049.0653-.0163z" fill="#2C2C2C"/><path d="M206.129 42.5186a.4066.4066 0 00-.094.1419.4024.4024 0 00-.028.1681c.003.1095.047.214.122.2937.09.0979.171.2039.261.31a12.9537 12.9537 0 011.558 2.6841c.381.903.654 1.8477.815 2.8146.1.6614.12 1.3326.057 1.9987 0 .1632-.057.3264-.09.4895a.4315.4315 0 00.052.3196c.057.0958.15.1655.258.1944a.4155.4155 0 00.323-.0455.4205.4205 0 00.123-.1128.4218.4218 0 00.068-.1517 9.2444 9.2444 0 00-.432-4.7726 13.899 13.899 0 00-1.044-2.3659 11.7253 11.7253 0 00-1.362-1.9661.3712.3712 0 00-.13-.0914.38.38 0 00-.155-.031.4282.4282 0 00-.168.0295.4267.4267 0 00-.142.0929" fill="#2C2C2C"/><path d="M209.335 51.0849a.428.428 0 00-.222.1524.4272.4272 0 00-.085.2555c0 .0922.03.1819.085.2555a.428.428 0 00.222.1524 59.4879 59.4879 0 017.91.0979h-.081c.636.0734 1.272.1632 1.908.2774a.4411.4411 0 00.318-.054.4378.4378 0 00.195-.256.4322.4322 0 00-.309-.514 31.4754 31.4754 0 00-4.95-.4569h-1.077c-1.312 0-2.625.049-3.938.0898M184.984 8.9633a19.6532 19.6532 0 00-5.496 1.6806 23.0007 23.0007 0 00-5.138 3.3449 20.2422 20.2422 0 00-4.004 4.6502 14.47 14.47 0 00-2.022 5.311 12.7822 12.7822 0 00-.106 2.8391c.037.4713.102.9399.196 1.4032.101.447.234.886.399 1.3135.353.9028.822 1.7558 1.395 2.5372a11.8768 11.8768 0 002.006 2.1783 10.2147 10.2147 0 002.446 1.5419c.864.3771 1.79.5928 2.732.6363a.4333.4333 0 00.424-.4242.4393.4393 0 00-.129-.2955.4381.4381 0 00-.295-.1287c-.196 0-.392 0-.579-.049a7.7922 7.7922 0 01-1.802-.5058 10.1418 10.1418 0 01-1.9-1.1666 11.937 11.937 0 01-2.014-1.9743 11.4227 11.4227 0 01-1.419-2.3986c-.139-.3426-.253-.6934-.359-1.0442a8.7183 8.7183 0 01-.204-1.0116 12.067 12.067 0 010-3.1083.7257.7257 0 000 .1142c.159-1.1206.458-2.2168.889-3.2633v.0408a17.0297 17.0297 0 012.153-3.6631 21.5503 21.5503 0 013.645-3.6141 22.7672 22.7672 0 014.786-2.8146 18.7576 18.7576 0 014.755-1.3216h-.106a16.5753 16.5753 0 014.403 0c1.056.1478 2.091.4217 3.082.8158h.074c.801.348 1.56.7888 2.259 1.3135a10.6086 10.6086 0 011.81 1.8111 11.847 11.847 0 011.378 2.3904v.106c.465 1.1532.788 2.3585.962 3.5897v-.1061a12.613 12.613 0 010 3.1899 7.92 7.92 0 01-.456 1.7051v.0734-.0653a5.5051 5.5051 0 01-.596 1.0116 4.013 4.013 0 01-.35.3916.419.419 0 00-.097.1384.4093.4093 0 00-.035.1652.4101.4101 0 00.032.1657.4365.4365 0 00.094.1402.4357.4357 0 00.141.0922.4246.4246 0 00.468-.1061c1.443-1.444 1.794-3.5815 1.729-5.5558a15.871 15.871 0 00-.44-3.0512 14.8778 14.8778 0 00-.922-2.6759 11.734 11.734 0 00-1.517-2.4475 10.6375 10.6375 0 00-1.949-1.8356 11.952 11.952 0 00-4.835-2.0477 15.0971 15.0971 0 00-2.683-.204h-.245c-.848.005-1.696.0678-2.536.1877h-.024zm14.246 13.869zm-30.131 4.4544zm.897-6.135v-.0571.0571zm28.231-4.9602v.0571-.0571zm-5.472-5.5476h-.073.057M186.526 99.8961a.4405.4405 0 00-.123.3019c.002.11.046.215.123.293a21.7695 21.7695 0 004.974 4.3 17 17 0 006.246 2.341c2.354.361 4.759.162 7.021-.579a16.569 16.569 0 005.611-3.263c.375-.327.733-.669 1.084-1.028.334-.343.652-.694.962-1.061l.09-.098h.041l.049-.057.049-.049v-.049l.106-.13c.09-.031.168-.089.224-.167.056-.077.085-.17.086-.266a.4193.4193 0 00-.123-.293.418.418 0 00-.137-.0959.4426.4426 0 00-.164-.035.3896.3896 0 00-.165.033.3905.3905 0 00-.137.0979l-.123.155v.049l-.089.114-.09.106-.081.098c-.286.334-.579.661-.889.979-.367.367-.751.718-1.142 1.06l-.644.523h-.049a16.78 16.78 0 01-3.409 1.99h.049H205.77c-1.198.498-2.456.835-3.743 1.004-1.232.151-2.478.151-3.71 0h.114a15.9624 15.9624 0 01-4.175-.89 18.5315 18.5315 0 01-3.979-2.349 22.7668 22.7668 0 01-3.172-3.0349.361.361 0 00-.129-.094.353.353 0 00-.157-.028.4385.4385 0 00-.31.122h.017zm22.473 3.4589h-.048.048z" fill="#2C2C2C"/><path d="M184.266 101.062a.4083.4083 0 00-.091.134.4002.4002 0 00-.031.16c.002.112.046.219.122.302a28.275 28.275 0 002.447 2.708c.743.722 1.53 1.398 2.356 2.023a20.8275 20.8275 0 004.624 2.644c1.184.483 2.417.839 3.678 1.06 1.441.258 2.91.33 4.37.212a17.408 17.408 0 007.503-2.447c.35-.212.693-.433 1.027-.669h.049l.098-.065.09-.066c.497-.359.97-.734 1.427-1.125h.04c.375-.335.742-.678 1.093-1.037.359-.367.709-.742 1.044-1.142l.098-.114.098-.122.057-.074.065-.081v-.049c.253-.318.505-.645.742-.971a.6436.6436 0 01.065-.09l.065-.098a.4377.4377 0 00.04-.321.4327.4327 0 00-.195-.258.413.413 0 00-.163-.033c-.056 0-.111.011-.163.033a.5375.5375 0 00-.253.196l-.106.139-.375.513v.049c-.089.123-.187.237-.285.359a.4126.4126 0 01-.082.09l-.097.123c-.343.399-.694.815-1.061 1.166l-.048.057c-.359.359-.718.702-1.093 1.036-.294.253-.587.506-.889.743l-.53.399-.237.164c-.375.261-.758.514-1.149.742-.626.369-1.274.699-1.941.987h-.082c-1.307.547-2.676.931-4.077 1.142-1.489.196-2.996.196-4.485 0h.057a18.764 18.764 0 01-4.265-1.15l-.212-.09h.106a20.7786 20.7786 0 01-4.338-2.529l-.098-.081v.04l-.073-.057a25.6627 25.6627 0 01-4.42-4.454.36.36 0 00-.132-.096.355.355 0 00-.161-.026.4186.4186 0 00-.164.03.4026.4026 0 00-.138.092l.073-.098zm22.352 7.269h.049-.057.008zm-17.329-2.806h-.04.04zm25.002-3.337v.049-.049zM188.522 66.7161c1.118 0 2.031-1.257 2.031-2.8148 0-1.5582-.913-2.8146-2.031-2.8146-1.117 0-2.022 1.2646-2.022 2.8146 0 1.5498.905 2.8148 2.022 2.8148zM187.48 53.6229a5.4488 5.4488 0 00-1.517.4242c-.46.2168-.89.4909-1.28.8158-.188.155-.376.3182-.547.4895a5.5038 5.5038 0 00-.522.6282.3889.3889 0 00-.054.1547.3772.3772 0 00.014.1635c.033.1091.106.202.203.2611.103.036.215.036.318 0a.4872.4872 0 00.261-.204l.041-.0571c.242-.3005.515-.5741.816-.8158a6.1315 6.1315 0 011.206-.7016c.363-.1441.74-.2481 1.126-.3101a4.641 4.641 0 01.815 0l.31.0572c.108.0246.222.006.316-.0519a.4238.4238 0 00.144-.5771.4211.4211 0 00-.256-.195 4.279 4.279 0 00-.913-.0979 3.5904 3.5904 0 00-.506 0M209.995 66.292c-1.118 0-2.031-1.256-2.031-2.8143 0-1.5582.913-2.8146 2.031-2.8146 1.117 0 2.022 1.2645 2.022 2.8146 0 1.5503-.905 2.8143-2.022 2.8143zM211.037 53.1896a5.7577 5.7577 0 011.517.4324c.459.201.889.4616 1.28.775.188.155.375.3182.547.4895.189.1961.364.4061.522.6282a.3954.3954 0 01.033.1591c0 .0548-.011.109-.033.1591a.4695.4695 0 01-.204.261.4313.4313 0 01-.318 0 .4628.4628 0 01-.253-.1958l-.049-.0571a5.0434 5.0434 0 00-.815-.8158 5.7774 5.7774 0 00-1.207-.7016 5.2253 5.2253 0 00-1.126-.31 3.9642 3.9642 0 00-.815 0l-.31.0571a.4245.4245 0 01-.316-.0519.4305.4305 0 01-.19-.2581.424.424 0 01.046-.319.4215.4215 0 01.256-.195c.3-.0653.606-.0981.913-.0979h.506" fill="#2C2C2C"/></g><path d="M156.44 213.56h-5.324v16.449c0 5.606 4.143 9.432 10.665 9.432 6.506 0 10.649-3.826 10.649-9.432V213.56h-5.324v15.92c0 3.261-1.922 5.395-5.325 5.395-3.42 0-5.341-2.134-5.341-5.395v-15.92zM178.043 239h5.148v-10.842c0-2.451 1.463-4.143 3.773-4.143 2.309 0 3.473 1.41 3.473 3.878V239h5.148v-12.182c0-4.425-2.363-7.07-6.559-7.07-2.909 0-4.901 1.376-5.906 3.72h-.105v-3.367h-4.972V239zm22.696 0h5.148v-18.899h-5.148V239zm2.574-20.979c1.552 0 2.751-1.181 2.751-2.662 0-1.499-1.199-2.662-2.751-2.662-1.551 0-2.75 1.163-2.75 2.662 0 1.481 1.199 2.662 2.75 2.662zm16.491 21.384c5.712 0 9.361-3.649 9.361-9.872 0-6.135-3.702-9.837-9.361-9.837-5.659 0-9.361 3.719-9.361 9.837 0 6.206 3.649 9.872 9.361 9.872zm0-3.931c-2.539 0-4.143-2.133-4.143-5.923 0-3.756 1.64-5.924 4.143-5.924 2.504 0 4.125 2.168 4.125 5.924 0 3.79-1.604 5.923-4.125 5.923zM233.633 239h5.148v-10.842c0-2.451 1.463-4.143 3.772-4.143 2.31 0 3.473 1.41 3.473 3.878V239h5.148v-12.182c0-4.425-2.362-7.07-6.558-7.07-2.909 0-4.901 1.376-5.906 3.72h-.106v-3.367h-4.971V239z" fill="#2C2C2C"/></svg>