<svg width="86" height="16" viewBox="0 0 86 16" fill="none" xmlns="http://www.w3.org/2000/svg">
<path d="M82.7338 6.44363C82.7338 5.53882 82.7338 4.65291 82.7338 3.76463C82.7338 2.71099 82.7456 1.65971 82.7267 0.606062C82.722 0.298946 82.7952 0.18555 83.1231 0.197362C83.8661 0.220986 84.6116 0.216261 85.357 0.199724C85.6613 0.192637 85.7722 0.268235 85.7722 0.598975C85.7628 5.4018 85.7628 10.207 85.7698 15.0098C85.7698 15.298 85.6849 15.3972 85.3971 15.3854C84.9819 15.3665 84.5644 15.3807 84.1492 15.3807C83.0546 15.3807 83.0546 15.3807 82.8777 14.3176C82.5852 14.5586 82.321 14.8137 82.0214 15.0145C79.8676 16.4556 76.6877 15.4421 75.6333 12.9639C74.8737 11.1827 74.9657 9.40375 75.855 7.70044C77.1949 5.12775 80.2852 4.54423 82.5357 6.39638C82.564 6.42237 82.6135 6.41764 82.7338 6.44363ZM80.5494 12.9876C82.0143 12.9946 82.9273 12.0639 82.9508 10.5424C82.9744 9.03285 82.0568 8.04299 80.6202 8.02646C79.134 8.00992 78.1763 8.98088 78.1739 10.5046C78.1739 12.0001 79.1104 12.9805 80.5494 12.9876Z" fill="#D9CBCB"/>
<path d="M41.9503 8.21072C41.9503 6.03729 41.9621 3.86385 41.9408 1.69041C41.9361 1.27463 42.0258 1.1376 42.4716 1.14233C45.3 1.16359 48.1285 1.16595 50.9545 1.14233C51.4145 1.1376 51.4948 1.29825 51.4759 1.69986C51.4452 2.26921 51.4381 2.84328 51.4782 3.41026C51.5136 3.89929 51.3957 4.07883 50.8531 4.06702C49.1452 4.02686 47.4326 4.06702 45.7247 4.04103C45.2717 4.03394 45.0429 4.093 45.0995 4.62928C45.1797 5.38289 44.7952 6.40346 45.2481 6.83106C45.6492 7.20905 46.6588 6.9421 47.3995 6.94918C48.4304 6.95627 49.4613 6.97281 50.4898 6.93973C50.9074 6.92792 51.0159 7.06022 50.9946 7.45711C50.9616 8.02645 50.9498 8.60052 50.997 9.16751C51.0418 9.69669 50.9074 9.88096 50.3341 9.86442C48.756 9.81954 47.1778 9.86442 45.5996 9.83844C45.1797 9.83135 45.0948 9.95892 45.1019 10.3534C45.1255 11.8016 45.0877 13.2521 45.1231 14.7003C45.1349 15.2224 45.0453 15.4492 44.4626 15.3972C43.8328 15.3382 43.1911 15.3523 42.5565 15.3949C42.0824 15.4256 41.929 15.3122 41.9361 14.7995C41.9691 12.6001 41.9503 10.4054 41.9503 8.21072Z" fill="#D9CBCB"/>
<path d="M59.3576 14.1829C58.1781 15.6854 56.7438 15.8744 55.1822 15.4988C53.8753 15.1846 53.2525 14.2231 53.026 12.9615C52.7878 11.6338 52.9175 10.2896 52.8939 8.95483C52.8774 7.98859 52.9057 7.02236 52.8821 6.05848C52.8727 5.70884 52.9812 5.61198 53.3209 5.6238C54.0428 5.64742 54.767 5.64978 55.4912 5.6238C55.8427 5.60962 55.9276 5.72538 55.9252 6.06557C55.9087 7.57989 55.9158 9.09421 55.9182 10.6085C55.9182 10.9818 55.9229 11.3503 56.0125 11.7189C56.2201 12.5788 56.6117 12.9568 57.3642 12.9875C58.2748 13.0229 58.8339 12.6331 59.0934 11.7992C59.2207 11.3929 59.2231 10.9771 59.2255 10.5613C59.2302 9.11311 59.2443 7.66258 59.216 6.2144C59.2066 5.77263 59.2892 5.58836 59.7775 5.62143C60.4545 5.66632 61.1362 5.64978 61.8156 5.62616C62.1459 5.61435 62.2638 5.69467 62.2638 6.05376C62.2497 9.01625 62.2497 11.9811 62.2615 14.9436C62.2638 15.2791 62.1907 15.4066 61.8322 15.3901C61.2188 15.3594 60.6031 15.3476 59.9921 15.3925C59.4779 15.4303 59.2656 15.2743 59.3552 14.7522C59.3764 14.6247 59.3576 14.4924 59.3576 14.1829Z" fill="#D9CBCB"/>
<path d="M67.2321 6.84509C68.4352 5.26226 70.0676 5.11343 71.568 5.5552C72.7309 5.89539 73.3183 6.80493 73.5448 7.96015C73.8302 9.41541 73.6651 10.8896 73.6981 12.3566C73.717 13.2118 73.6816 14.067 73.7099 14.9222C73.7217 15.3026 73.6014 15.4042 73.2334 15.39C72.5328 15.3616 71.8322 15.3593 71.1315 15.39C70.7447 15.4065 70.6621 15.2695 70.6645 14.9057C70.6763 13.174 70.6904 11.44 70.6409 9.70835C70.6031 8.34523 69.6926 7.71446 68.4848 8.12316C67.9304 8.30979 67.645 8.71849 67.494 9.2524C67.3171 9.87609 67.3666 10.5139 67.3642 11.1494C67.3595 12.3992 67.3524 13.6489 67.369 14.901C67.3737 15.2435 67.3241 15.4113 66.9207 15.3924C66.1989 15.3569 65.4747 15.3616 64.7528 15.3924C64.3848 15.4089 64.3282 15.2648 64.3306 14.9435C64.34 11.9834 64.3424 9.02089 64.3282 6.06076C64.3259 5.71112 64.4273 5.6119 64.767 5.62607C65.378 5.65206 65.996 5.67096 66.6046 5.62135C67.1189 5.58119 67.3194 5.74419 67.2345 6.25684C67.2109 6.40331 67.2321 6.55687 67.2321 6.84509Z" fill="#D9CBCB"/>
<path d="M13.3007 3.09602C12.8454 3.44802 12.3925 3.78821 11.9514 4.14494C11.7674 4.29377 11.6447 4.32212 11.4678 4.11423C9.41308 1.72817 4.27284 2.26208 3.19007 6.91135C2.65693 9.19818 3.12401 11.2795 5.01828 12.8505C6.7144 14.2561 10.0029 14.4782 11.7273 12.3426C11.7414 12.326 11.7556 12.3071 11.7697 12.293C12.3807 11.7567 12.9186 12.6946 13.3856 13.1482C13.6381 13.3915 13.4092 13.5474 13.2842 13.6892C11.239 15.9665 7.39143 16.4745 4.58659 14.8468C0.0313776 12.2056 -0.400316 5.30962 3.8671 2.255C6.3346 0.485536 9.03564 0.407575 11.7579 1.73762C12.3713 2.03765 12.8667 2.51014 13.3007 3.09602Z" fill="#D9CBCB"/>
<path d="M14.5844 10.6132C14.5891 7.75234 16.783 5.62379 19.7199 5.63088C22.4965 5.63796 24.6856 7.86101 24.6762 10.6699C24.6667 13.5261 22.4705 15.6523 19.5336 15.6476C16.7358 15.6405 14.5797 13.4458 14.5844 10.6132ZM19.661 7.36726C17.795 7.35545 16.5046 8.7044 16.5212 10.6558C16.5353 12.5646 17.7761 13.8899 19.5619 13.9088C21.4326 13.9277 22.7276 12.6024 22.7418 10.6558C22.756 8.74692 21.4727 7.37908 19.661 7.36726Z" fill="#D9CBCB"/>
<path d="M32.7175 7.07438C33.8238 5.72779 35.1897 5.39705 36.7254 5.73015C38.1974 6.04908 39.1551 7.14053 39.1999 8.65012C39.2636 10.7787 39.2212 12.9096 39.2401 15.0381C39.2424 15.3523 39.1103 15.3996 38.8508 15.3854C38.5677 15.3689 38.2776 15.3523 37.9969 15.3878C37.518 15.4492 37.3623 15.3027 37.3741 14.7901C37.4118 13.1435 37.3882 11.4968 37.3882 9.85023C37.3859 8.33828 36.7442 7.49016 35.5152 7.36968C34.1328 7.23266 33.0619 8.03825 32.7623 9.4439C32.5618 10.3794 32.6797 11.3268 32.6608 12.267C32.642 13.1671 32.6467 14.0672 32.6632 14.9673C32.6679 15.2578 32.6255 15.3807 32.281 15.3949C30.8114 15.4539 30.8114 15.4681 30.8114 14.0081C30.8114 11.4827 30.8208 8.95724 30.802 6.43416C30.7996 6.01128 30.901 5.81756 31.3398 5.89552C31.3823 5.90261 31.4271 5.89552 31.4719 5.89552C32.5853 5.8908 32.5853 5.8908 32.7175 7.07438Z" fill="#D9CBCB"/>
<path d="M26.4686 10.5708C26.4686 9.16752 26.4804 7.76424 26.4592 6.36096C26.4545 5.98297 26.57 5.89083 26.9381 5.88611C28.3133 5.86957 28.3133 5.8554 28.3133 7.22088C28.3133 9.76522 28.3039 12.3096 28.3228 14.8539C28.3251 15.2815 28.2166 15.3996 27.7849 15.3949C26.4663 15.3807 26.4663 15.3996 26.4663 14.0578C26.4686 12.8954 26.4686 11.7331 26.4686 10.5708Z" fill="#D9CBCB"/>
<path d="M28.7092 2.49353C28.7021 3.27785 28.1761 3.79286 27.3905 3.78814C26.638 3.78341 26.0577 3.21643 26.053 2.47699C26.0483 1.71629 26.6545 1.13513 27.4377 1.1493C28.2091 1.16348 28.7163 1.69975 28.7092 2.49353Z" fill="#D9CBCB"/>
</svg>
