<svg width="282" height="130" fill="none" xmlns="http://www.w3.org/2000/svg"><g clip-path="url(#clip0)"><path d="M137.87 10.0127a6.9916 6.9916 0 00-1.117 0c-.367.06-.749.0824-1.153.1424l-.263.0374c-.329.045-.659.0974-.989.1724l-.704.1723-.599.1498-.165.075-.442.1049h-.09c-.187.0449-.367.0899-.547.1498l-.554.1873h-.368a2.4098 2.4098 0 00-.457.1199c-.187.0674-.359.1424-.539.2248-.39.1798-.749.3821-1.139.5919l-.307.1648c-.225.1274-.45.2473-.667.3821-.217.1349-.547.3447-.809.5245l-.195.1349-.097.0674c-.285.1873-.577.3821-.862.5844a8.138 8.138 0 00-.682.562l-.135.1198a14.8184 14.8184 0 00-1.573 1.5735c-.232.2847-.465.5694-.674.8616l-.293.4196-.292.4195-.607.8692c-.12.1873-.254.3671-.382.5394l-.217.2997-.405.5545c-.299.4046-.592.8092-.876 1.2212-.188.2773-.382.562-.585.8392-.112.1573-.239.3147-.359.4645l-.218.2772c-.387.4999-.8.98-1.236 1.4386l-.345.3671c-.328.3681-.675.7182-1.041 1.049l-.067.0749c-.173.1274-.36.2847-.555.4346l-.202.1648-.854.6968c-.3.2323-.615.4421-.922.6518l-.921.6219-.75.4571-.277.1648-.974.5994-.614.3671-.42.2623c-.345.2097-.674.427-1.004.6518l-1.034.6668c-.36.2248-.749.4571-1.071.6968-.322.2398-.75.532-1.094.8092-.269.2052-.52.4334-.749.6818a.3462.3462 0 00-.263.1049c-.15.1649-.299.3297-.449.4795l-.195.2023-.42.3896a2.5666 2.5666 0 00-.344.4646c-.248.2922-.465.5394-.675.8092l-.389.5619-.188.2772-.082.1124c-.367.5395-.749 1.0939-1.064 1.6708-.142.2698-.285.5395-.4194.8167-.1349.2772-.2922.6594-.4271.9965a41.8465 41.8465 0 00-.3746.974c-.1199.3222-.1948.6219-.2773.9291l-.0599.2098c-.0674.2472-.1349.4945-.1873.7492a11.2299 11.2299 0 00-.1873 1.1689c-.045.4195 0 .5619-.045.8466v1.0864c.0108.3613.0433.7216.0974 1.0789.0299.3255.0825.6484.1574.9666.0192.1329.0596.262.1198.3821l.0675.2247c.0824.2473.1648.502.2547.7493.0689.2026.1567.3983.2623.5844l.1573.3372.2248.472c.0674.1573.1348.3147.2098.4645.0749.1499.1649.3072.2549.4571l.09.1423c.105.1948.224.3896.329.5919l.225.4421.105.2248c.21.4345.435.8616.652 1.2887.217.427.337.6968.502 1.0489l.112.2473c.156.3852.277.784.36 1.1913l.09.3746c.052.1873.097.3821.135.5769.007.1273.007.2549 0 .3821v.9291c-.015.134-.04.2667-.075.3971l-.053.2697-.045.2398-.067.3446c-.045.2623-.097.517-.15.7493l-.09.3971a6.0218 6.0218 0 01-.142.6368c-.09.3263-.2.6467-.33.9591a4.8785 4.8785 0 01-.367.6368c-.082.1349-.15.2473-.21.3597-.06.1124-.157.2697-.24.3971-.179.2697-.352.5469-.509.8316-.09.1574-.172.3297-.255.4945l-.217.4271-.3672.6818c-.1873.3746-.3746.7493-.5844 1.1089l-.4196.7043-.0674.1199-.2173.3671c-.1049.1798-.2098.3596-.3072.5395-.1798.3221-.3446.6593-.5095.989l-.0674.1423-.1049.2173-.1423.3072a.398.398 0 000-.1873.3902.3902 0 00-.3222-.2098h-.1274c-.2248.0524-.3072.2622-.3746.4495-.0674.1874-.1424.3897-.1948.5545-.1199.3821-.2098.7492-.2997 1.1538a14.2495 14.2495 0 00-.3147 1.7757v.2098a5.7173 5.7173 0 01-.0974.5919 17.3128 17.3128 0 00-.1573 2.3302c-.0052.4405.0174.881.0674 1.3187 0 .2697.0449.5469.0599.8241.015.2773.075.7493.1274 1.1314.0597.3837.1499.762.2697 1.1314.1029.3737.2331.7393.3896 1.0939.1562.3172.3391.6205.547.9066.2168.3143.4681.6033.7492.8616l.2323.2173.1499.1273.1273.1199.2623.2398a6.6197 6.6197 0 001.7753 1.1463c.328.1507.669.2687 1.019.3522l.57.1348.547.1274.599.1573.405.1049.382.0825.195.0449c.216.0399.428.095.637.1648.2.1004.393.2156.576.3447.184.1499.359.31.525.4795l.15.1649.165.1648c.142.1423.292.2772.442.4121.08.0675.18.107.284.1124a.381.381 0 00.27-.1124.4364.4364 0 00.082-.1124c.15.1573.308.3222.458.502.157.2068.3.4246.427.6518.115.1865.24.3666.374.5395l.083.1199c.303.4707.554.9732.749 1.4985.082.2097.157.4195.232.6293.113.3573.254.7055.42 1.0415.053.1244.116.2446.187.3596l.045.0824.045.0899c.045.0825.09.1649.142.2473.142.2267.297.4444.465.6518.136.1789.289.3445.457.4945.225.1948.457.3897.689.5695.239.1835.489.3512.749.502.209.118.427.2183.652.2997l.143.0524c.218.1033.426.2262.622.3671.06.053.137.0823.217.0825a.4456.4456 0 00.204-.0575.442.442 0 00.155-.1448.39.39 0 00.034-.1611.3893.3893 0 00-.034-.1611c.15-.3522.315-.7493.45-1.1464l.135-.427c.067-.2398.135-.4646.225-.6968.157-.3747.277-.6968.382-1.0265l.067-.2023c.083-.2547.158-.5095.255-.7492a30.3636 30.3636 0 011.753-3.5814c.36-.6144.749-1.2213 1.102-1.8357.299-.4945.621-.9815.966-1.446l-.112-.1874.209-.2023c.188-.1873.368-.3821.547-.5769l.075-.0824.465-.4795.142-.1573c.113-.1199.225-.2398.345-.3522l.277-.2772.517-.5095.869-.9066c0-.0662.024-.1302.068-.1798a.3018.3018 0 01.097-.06h.06a.1927.1927 0 01.069-.0819.1888.1888 0 01.103-.0304.2.2 0 01.115.0381.2013.2013 0 01.073.0967l.569-.4495c.247-.2023.487-.3971.749-.5994.263-.2023.412-.3447.622-.5095l.54-.3971.636-.472c.285-.2248.577-.4346.877-.6444.3-.2098.577-.4196.884-.6069.307-.1873.592-.3371.892-.502.3-.1648.667-.3746.996-.5769.188-.1124.367-.2472.547-.3746l.322-.2248.068-.0599h.082c.184-.0095.364-.0527.532-.1274.226-.0757.446-.1658.66-.2697a7.974 7.974 0 00.839-.487l.337-.1724c.187-.1049.367-.2172.547-.3296l.157-.0974c.472-.2946.927-.6147 1.364-.9591l.689-.5544.315-.2622c.142-.1349.277-.2548.277-.4496l.097-.1498.143-.2623.135-.2622c.112-.1873.232-.3746.352-.5545a6.547 6.547 0 00.24-.3821c.075-.1273.217-.3446.314-.5245.106-.2413.189-.4922.248-.7492.082-.3372.164-.6818.224-1.019.06-.3371.135-.7492.195-1.0939.06-.3446.112-.7492.142-1.1313a8.3283 8.3283 0 000-1.0715 1.8274 1.8274 0 00-.164-.6818 1.5918 1.5918 0 00-.293-.4121.5598.5598 0 00-.314-.1348.3213.3213 0 00-.113-.1499 1.3908 1.3908 0 00-.367-.1798h-.09l-.217-.0899-.225-.0824-.749-.3222c-.502-.2323-.982-.502-1.498-.7492a12.2598 12.2598 0 01-1.289-.8467c-.465-.3596-.922-.7492-1.371-1.1089-.27-.2247-.532-.457-.795-.6968l-.449-.3971c-.382-.3371-.749-.6743-1.109-1.0339-.36-.3597-.892-.9965-1.453-1.7008l-.353-.4346-.344-.4945c-.195-.2397-.375-.487-.555-.7492l-.187-.2623a.4272.4272 0 00-.143-.1148.4218.4218 0 00-.179-.0425h-.098c-.12-.1948-.247-.4046-.367-.6144l-.045-.0599a21.7211 21.7211 0 01-.562-1.0939 7.1153 7.1153 0 01-.404-1.1614v-.1648a.4043.4043 0 00-.158-.1836.4001.4001 0 00-.236-.0576.399.399 0 00-.225.0899.398.398 0 00-.13.2037l-.54.0675-.247.0449a2.4943 2.4943 0 01-.465.0675l-.614-.045h-.217a5.4369 5.4369 0 01-.989-.1573c-.3-.0899-.6-.1948-.892-.2997a5.5561 5.5561 0 01-.809-.3597 7.0423 7.0423 0 01-1.259-1.004l.068.0825a4.8336 4.8336 0 01-.607-.8167 5.5248 5.5248 0 01-.502-1.2363 6.8962 6.8962 0 01-.143-1.0414v-.2922-.5919c.009-.1983.029-.396.06-.5919l.045-.3822v-.2098c.014-.2518.047-.5022.098-.7492.037-.1049.074-.2173.119-.3222l.068-.1648.052-.1648c.039-.1364.089-.2692.15-.3971l.09-.1124.367-.3372c.195-.1798.39-.3521.577-.5394l-.082.0599c.232-.1959.483-.369.749-.517.215-.0974.438-.1752.667-.2323h.434c.305.0227.606.0754.899.1574.116.0325.229.0751.338.1274l.112.0674.472.2997.337.2323.202.1498c.093.0637.19.1189.293.1648l.097.045c.049.015.101.015.15 0a.3447.3447 0 00.308-.1189.3395.3395 0 00.074-.1531.35.35 0 00-.007-.1701h.112c.332-.0414.662-.0989.989-.1723h.187c.168-.0097.334-.0399.495-.0899l.539-.1424c.292-.0824.577-.1798.854-.2847.332-.1283.655-.2785.967-.4495.315-.1649.622-.3447.921-.5395l.075-.0524c.262-.1709.512-.3586.75-.562l.09-.0674c.247-.2023.494-.3971.749-.6144.233-.2109.456-.4334.667-.6668l.09-.0974.224-.2323.45-.4645.135-.1499c.187-.2022.374-.3971.547-.6068a5.988 5.988 0 00.532-.7493c.105-.1498.217-.2847.329-.4196l.15-.1948c.128-.1498.247-.3072.382-.4495.135-.1424.382-.3971.585-.5844l.082-.075.3-.2772.404-.3671c.076-.0754.159-.1432.248-.2023l.322-.2023c.202-.1199.419-.2323.629-.3447a7.6396 7.6396 0 011.559-.5769h-.105c.592-.0974 1.363-.2322 2.158-.3147.344 0 .681-.0449 1.019-.0524.337-.0075.614-.045.921-.0749h3.379l.337-.0375h.158l.554-.0824a6.302 6.302 0 00.967-.2398c.228-.0839.448-.1867.659-.3072l.487-.3296.12-.0824c.255-.1948.509-.3971.749-.6144.365-.3361.699-.7048.997-1.1014.239-.3101.462-.6328.666-.9665l.158-.2698c.135-.2247.262-.457.382-.6968.136-.3033.248-.6163.337-.9365.039-.1298.067-.2626.083-.3971 0-.1574 0-.3147.044-.4796.045-.1648 0-.3371.053-.5094v-.6893c.016-.1247.043-.2477.082-.3672a.7532.7532 0 01.068-.1573c.175-.2477.396-.459.652-.6219l.202.2023.097.0974c.248.2248.442.4121.652.5769a9.364 9.364 0 001.117.7493l.254.1423.27.1499.285.1723c.127.0824.247.1573.374.2248l1.386.7492.472.2473.338.2023.239.1423.21.1199.307.1798c.143.0899.285.1873.42.2922.131.1164.251.2442.36.3821l.052.0525c.135.1548.27.3197.405.4945.11.1689.21.344.299.5245.12.2322.225.4645.323.7043.081.228.148.4607.202.6968l.135.7492v3.1019c0 .3821.045.7492.075 1.1463v.562c0 .4046.052.8017.09 1.2063.06.5109.158 1.0167.292 1.5134.075.2698.157.5395.254.8092.047.1515.104.2992.173.4421l.195.3671c.152.2648.327.5155.524.7493.067.0749.135.1573.21.2322.098.0979.188.2031.27.3147a.4376.4376 0 00.097.3147.3578.3578 0 00.13.1019.3608.3608 0 00.162.033h.105c.06.0003.12-.0152.172-.045a.3541.3541 0 00.158-.1573h.367l.232-.06.315-.0449h.517c.113.0287.224.0689.329.1198.237.1289.462.2767.675.4421l.082.0599.457.3522c.363.3524.694.736.989 1.1463.254.4286.468.8801.637 1.3487.076.2693.126.5453.15.8242 0 .4788-.052.9563-.157 1.4235a6.9403 6.9403 0 01-.532 1.5809c-.105.1948-.225.3821-.337.562-.12.1913-.253.374-.398.5469a3.322 3.322 0 01-.659.5769l-.15.1124-.562.3896a3.653 3.653 0 01-.667.2698l-.209.0749-.36.1274-.554.2023c-.489.1356-.992.216-1.499.2397a2.5122 2.5122 0 01-.674-.0749h-.307l-.375-.0974-.217-.0899h-.083a.4509.4509 0 00-.142 0 .4932.4932 0 00-.322.1124.967.967 0 00-.248.3521c-.052.1124-.104.2248-.164.3372-.06.1124-.113.2472-.173.3671a.3793.3793 0 00-.06.1199c-.06.1124-.09.1798-.127.2397-.135.2623-.247.4945-.36.7493-.112.2547-.217.4495-.337.6818-.18.3521-.359.6743-.539.989-.18.3147-.367.5919-.562.8916l-.098.1424c-.202.3146-.427.6218-.651.9215a8.9931 8.9931 0 01-.75.8841c-.277.2923-.584.5845-.891.8542l-.322.2772c-.203.1798-.413.3596-.63.532a9.1613 9.1613 0 01-.749.5319l-.405.2922-.359.2623-.09.0674c-.143.1049-.292.2023-.442.2997l-.068.0525c-.344.1948-.749.4046-1.139.6143l-.449.2398-.749.4046-.585.2697-.547.2623c-.3.1427-.608.2702-.921.3821h-.068l-.442.0974-.232.0599a.753.753 0 00-.285.1049.3598.3598 0 00-.124.0868.355.355 0 00-.078.1305.3355.3355 0 000 .1723.445.445 0 00-.17.0475.4477.4477 0 00-.137.1099.4315.4315 0 00-.075.2997v.959c-.008.3054.007.6109.045.9141v.3521c-.009.1641.009.3285.052.487.049.2051.086.4127.113.6219l.06.3072c.134.7051.322 1.3989.561 2.0754a5.11 5.11 0 00.817 1.5584c.108.1339.225.2591.352.3747l.278.2697.277.2772.389.3447.225.2023.135.1198c.18.1649.36.3297.554.4871.195.1573.517.412.795.6068l.239.1724.637.4345c.3.1749.61.3301.929.4646.263.1348.532.2397.81.3521.277.1124.584.2548.869.3896.637.3072 1.213.5994 1.783.8991.574.3084 1.131.646 1.671 1.0115.307.2248.607.457.906.6893l.547.4271c.487.3671.967.7492 1.431 1.1538l.442.3597.308.2397c.254.2023.494.4196.749.6444l.367.3596.749.7493.15.1423.157.1499.06.0524a14.3443 14.3443 0 011.499 1.6558l.12.1724.202.2772.337.4271c.105.1273.202.2697.307.4046l.068.0974c.12.1648.239.3296.344.5019.105.1724.203.3597.3.532l.255.4646.554.959c.188.3297.382.6668.555 1.0115.172.3446.284.6069.419.9215l.053.1124c.075.1798.15.3597.232.5395l.15.3297c.06.1348.112.2772.165.412.052.1349.067.1948.112.2923l.217.4944c.075.1649.12.2323.173.3522l.105.2398c.067.1648.134.3296.209.487.075.1573.083.1873.12.2772.021.0436.038.0887.053.1349.013.0514.03.1015.052.1498a.4125.4125 0 00.217.2023c.026.0693.07.13.128.1751a.394.394 0 00.202.0796h.337c.145.015.29.015.435 0 .252-.0227.502-.0603.749-.1123.24-.045.465-.1049.682-.1574.217-.0524.479-.1349.749-.2248l.659-.2622.345-.1424.255-.0974.622-.2847c.195-.0979.383-.2106.562-.3371l.157-.0974.375-.2248.629-.3821c.307-.1873.607-.3746.907-.5844l.861-.6069.42-.2997.419-.2997a7.067 7.067 0 00.585-.487l.217-.1948.225-.1948c.21-.1724.419-.3447.614-.532a9.953 9.953 0 00.749-.7493l.203-.2397c.165-.1948.337-.3896.494-.5919.091-.1138.174-.234.248-.3597.158-.2363.293-.4872.404-.7492l.09-.1798a9.03 9.03 0 00.435-.8841c.119-.2922.224-.5994.337-.8991.056-.1437.101-.2915.135-.4421l.045-.1498c.045-.1529.082-.3079.112-.4646.075-.3371.135-.6668.187-1.004.09-.6838.09-1.3765 0-2.0604 0-.3746-.075-.7492-.142-1.1239-.045-.2472-.105-.4945-.165-.7492l-.082-.3297a6.1431 6.1431 0 00-.24-.7492l-.142-.3297-.15-.2472c-.098-.2173-.18-.4271-.27-.6519l-.075-.1798-.067-.1798-.09-.1948-.083-.1948c-.12-.2623-.254-.5245-.382-.7867l-.15-.2922a.314.314 0 00.12-.1574.5615.5615 0 000-.3147l-.075-.1423c-.06-.1349-.09-.2248-.127-.3072-.038-.0824-.068-.1798-.105-.2623-.092-.2293-.2-.452-.322-.6668-.128-.2173-.262-.4196-.405-.6219-.584-.8391-1.169-1.6783-1.738-2.5174-.12-.2023-.247-.3971-.36-.5994l-.09-.1574-.089-.1498-.188-.2847-.082-.0899a.7117.7117 0 01-.068-.1724 6.026 6.026 0 01-.322-1.2962V68.454c-.008-.2009.008-.402.045-.5994v-.6219a7.321 7.321 0 01.083-.8991c0-.2997.104-.7493.179-1.1538a14.6 14.6 0 01.615-1.9706c.082-.2397.18-.4795.262-.7492l.127-.3297.173-.4495c.067-.1873.142-.3896.224-.5769l.075-.2023c.12-.2848.24-.577.353-.8692l.307-.8316.09-.2473c.135-.3971.277-.7867.397-1.1838s.21-.7492.307-1.0789v-.1573a.3905.3905 0 00.15-.1949c.021-.2069.056-.4122.105-.6143 0-.2098 0-.3747.052-.562v-1.1238a9.6598 9.6598 0 000-1.049 5.021 5.021 0 00-.142-.7492l-.053-.2473a8.3384 8.3384 0 00-.284-.9665c-.06-.1648-.135-.3297-.203-.4945l-.165-.4046-.149-.3821a24.5969 24.5969 0 00-.255-.6444 3.4155 3.4155 0 00-.172-.3596l-.053-.1049-.142-.2997-.098-.1948c-.172-.3447-.367-.6968-.599-1.0864-.157-.2473-.33-.4795-.502-.7493l-.172-.2397-.165-.2248-.195-.2847c-.127-.1648-.262-.3222-.397-.4795l-.247-.2548-.128-.1273-.314-.3597c-.15-.1873-.255-.3222-.368-.4495l-.329-.3147-.105-.0974c-.187-.1723-.367-.3522-.547-.532l-.277-.2697c-.248-.2473-.502-.4645-.75-.6893l-.284-.2473c-.203-.1873-.412-.3671-.622-.5469-.21-.1798-.54-.4421-.817-.6519l-.262-.1873-.18-.1348-.3-.2323-.172-.1349-.337-.2697-.292-.2622-.135-.1424-.18-.1798-.157-.1499c-.113-.1123-.233-.2247-.337-.3446a6.738 6.738 0 01-.465-.5844l-.285-.3597-.194-.2472c-.173-.2623-.323-.5095-.473-.7493l-.329-.5469-.158-.2398-.172-.2997a14.798 14.798 0 00-.285-.472 4.0623 4.0623 0 01-.397-.7492c-.127-.3597-.239-.6594-.337-.9666-.097-.3072-.202-.6668-.285-.9965-.082-.3296-.172-.6818-.247-1.0189l-.06-.2248c-.067-.2772-.135-.547-.18-.8242-.044-.2772-.119-.5994-.187-.8991l-.045-.1873c-.082-.3596-.165-.7492-.24-1.0789l-.067-.3447c-.045-.2247-.09-.457-.142-.6818l-.075-.3296-.18-.7493v-.1274a1.6374 1.6374 0 00-.112-.457c-.045-.1499-.135-.4571-.218-.6893l-.045-.1199c-.15-.3971-.292-.8017-.464-1.1913-.173-.3896-.427-.9366-.675-1.3936l-.157-.2622a.3839.3839 0 00.096-.2175.3846.3846 0 00-.051-.2321 13.172 13.172 0 00-.877-1.1763c-.344-.4121-.659-.8017-1.019-1.1538-.157-.1499-.329-.2922-.494-.4271l-.097-.0824-.667-.5395-.585-.3147-.637-.4795c-.239-.1873-.532-.4046-.846-.6069l-.63-.3971-.232-.1348a15.2735 15.2735 0 00-1.925-.9441c-.338-.1423-.682-.2697-1.027-.3896-.345-.1199-.659-.2248-.996-.3222l-.817-.2322-.307-.0825a8.0451 8.0451 0 00-1.027-.2172 6.7949 6.7949 0 00-.951-.075h-.982a3.5716 3.5716 0 01-.801-.1873c-.21-.1063-.41-.229-.6-.3671l-.157-.1199-.749-.487-.225-.1349c-.135-.0824-.27-.1648-.412-.2397a9.8546 9.8546 0 00-1.087-.4571c-.374-.1348-.749-.2397-1.026-.3221-.277-.0825-.675-.1424-1.019-.2023l-.277-.0525-1.784-.3297c-.367-.0599-.749-.1273-1.093-.1648l-1.004-.0824-.75-.0599-1.378-.1199c-.75-.0525-1.282-.0824-1.806-.0824h-.397" fill="#2C2C2C"/><path d="M159.733 81.9403a1.2384 1.2384 0 00-.225.3672c-.068.1423-.127.2997-.195.442l-.255.5095c-.15.3072-.292.6069-.442.9066-.15.2997-.322.6444-.472.959a9.2156 9.2156 0 01-.584.989c-.105.1724-.217.3372-.33.5095l-.127.2023c-.06.0907-.112.1859-.158.2847a.3183.3183 0 000 .2023 1.1017 1.1017 0 00-.082.1049l-.749 1.0265-.292.3447-.75.8241c-.247.2623-.509.517-.749.7493-.479.487-.989.9365-1.498 1.3936l-.188.1723-.202.1274c-.39.2547-.787.487-1.184.7492a3.1317 3.1317 0 01-.344.1873l-.825.4496c-.352.1873-.749.3596-1.086.5319l-.285.1349-.562.1049-.959.1873-1.865.3372c-.622.1049-1.244.1648-1.866.2247h-.375l-.427-.0599-.824-.1199-.277-.0449-.532-.1124h.105c-.749-.1798-1.499-.3746-2.248-.547l-1.206-.2847c-.18 0-.352-.0899-.532-.1423l-.337-.0974a.967.967 0 00-.435-.075.3875.3875 0 00-.193.0945.3848.3848 0 00-.114.1828c-.225-.0899-.457-.1799-.682-.2548a.396.396 0 00-.252-.0054.3947.3947 0 00-.205.1478.3734.3734 0 00-.062.1385.3879.3879 0 00-.003.1518.3799.3799 0 00.163.2491c.224.1273.457.2399.696.3372l.495.2248v.0674l-.652-.2323a.3983.3983 0 00-.45.1424.3858.3858 0 00-.084.2397c0 .0873.03.1719.084.2398.091.0896.195.1654.308.2248l.232.1423.592.3297.607.2922c.247.1049.479.1948.749.2847.457.1649.929.2997 1.394.4346.464.1349.959.2847 1.453.3896a.3665.3665 0 00.352-.1723h.128l.045.0599a.4238.4238 0 00.262.1349h.599c.022.0414.051.078.087.1077a.3443.3443 0 00.123.0646c.166.0612.336.1113.509.1499.144.0289.289.0465.435.0524h2.023l.547-.0824c.366-.0688.729-.1563 1.086-.2623.382-.1123.75-.2247 1.124-.3521.66-.2173 1.296-.487 1.933-.7492.315-.1274.615-.2773.922-.4196.307-.1424.629-.2922.929-.4571.3-.1648.607-.3371.899-.5169.311-.191.611-.3986.899-.6219a13.7447 13.7447 0 001.693-1.4011c.233-.2398.457-.487.682-.7493.225-.2622.525-.5244.749-.8016.241-.2865.461-.5894.66-.9066.202-.2922.434-.562.644-.8467.21-.2847.367-.5394.547-.8092l.584-.8616c.368-.5619.705-1.1464 1.012-1.7383.075-.1498.15-.3146.217-.4645.068-.1498.158-.3072.225-.4645.067-.1574.195-.4346.3-.6519.15-.3371.277-.6818.397-1.0339v-.1499a.9879.9879 0 000-.3596 1.1343 1.1343 0 00-.06-.2697 1.0079 1.0079 0 00-.09-.1799 1.314 1.314 0 00-.15-.2098 1.419 1.419 0 00-.187-.1798 2.2398 2.2398 0 00-.36-.2322.7442.7442 0 00-.247-.09.4934.4934 0 00-.307.1274" fill="#2C2C2C"/><path d="M126.848 81.2435c-.106.043-.206.0983-.299.1649l-.173.1049a.6167.6167 0 00-.24.2772.3245.3245 0 00-.037.1498.389.389 0 00-.258.1477.385.385 0 00-.079.2869c.021.3841.099.7629.232 1.1239.12.3533.263.6986.427 1.0339.158.3447.33.6743.517 1.004.09.1574.18.3222.277.4795.098.1574.225.3372.338.5095l.119.1723a.3638.3638 0 00-.06.2623c.039.2011.133.3878.27.5394l.3.4196.697.9066.075.1124.209.3447c.098.1798.225.3446.338.5169.112.1724.194.2997.299.4421l.435.5994c.036.0508.076.0984.12.1423l.322.3971c.105.1274.21.2473.322.3672.112.1198.322.3596.495.5319l.509.4945c.15.1499.307.2847.457.4196.292.2622.599.502.907.7493.157.1123.307.2247.472.3296l.217.1499a.5888.5888 0 00.198.1179.585.585 0 00.229.0319h.105l.202.1274c.262.1648.54.3147.817.457l.232.1124.749.4121.502.2772.472.2398c.08.032.168.0369.251.0139a.3939.3939 0 00.207-.1413.393.393 0 00.079-.236.393.393 0 00-.079-.236 1.2197 1.2197 0 00-.27-.2098l-.232-.1423-.368-.2323-.352-.2248h.053c.217.1199.442.2248.667.3297l1.858.8017a.3973.3973 0 00.433-.0936.4033.4033 0 00.084-.1312.4026.4026 0 00-.005-.3086.4037.4037 0 00-.22-.2159l-.555-.2397v-.0525a.4028.4028 0 00.017-.2519.4124.4124 0 00-.136-.2126c-.18-.1274-.375-.2323-.562-.3447l-.547-.3221-.105-.0825c-.12-.0974-.24-.1798-.36-.2622l-.577-.4196-.914-.6443c-.285-.2023-.562-.4121-.832-.6219-.269-.2098-.561-.4271-.839-.6518l-.607-.5095-.269-.2248-.974-.8841c-.285-.2548-.555-.5245-.832-.7942l-.232-.2248c-.068-.1049-.135-.2098-.195-.3147-.157-.2397-.315-.487-.465-.7492l-.839-1.3037-.899-1.4311-.464-.7492-.135-.2922a6.3985 6.3985 0 00-.39-.7493.2566.2566 0 00-.09-.0899v-.0599c-.09-.3447-.195-.6818-.314-1.019a.7538.7538 0 00-.218-.3072l-.067-.0449a.4128.4128 0 00-.225-.0675h-.15" fill="#2C2C2C"/><path d="M149.783 106.666c.001.979.293 1.936.839 2.75a4.9462 4.9462 0 002.225 1.82c.905.374 1.901.471 2.862.278.96-.193 1.842-.666 2.534-1.359a4.9603 4.9603 0 001.351-2.538 4.9509 4.9509 0 00-2.114-5.081 4.9458 4.9458 0 00-2.752-.83c-.651 0-1.295.128-1.896.377-.601.25-1.147.615-1.606 1.076-.46.461-.824 1.008-1.071 1.61a4.9337 4.9337 0 00-.372 1.897zM138.836 123.344c.003.978.296 1.933.842 2.744a4.946 4.946 0 002.225 1.815c.905.372 1.899.466 2.858.273a4.9573 4.9573 0 002.528-1.361 4.9471 4.9471 0 001.055-5.393 4.945 4.945 0 00-4.578-3.038 4.9392 4.9392 0 00-3.494 1.456 4.9381 4.9381 0 00-1.067 1.609 4.9432 4.9432 0 00-.369 1.895zM122.503 110.929c-.228 0-.456.015-.682.045v.247c.01.266-.01.532-.06.794.007.154-.008.308-.045.457 0 .375 0 .749-.052 1.124 0 .824-.068 1.648-.083 2.473v1.243c0 .412 0 .832-.067 1.252v1.198c-.015.205-.015.41 0 .615v.337c.337.076.681.111 1.026.105 1.312 0 2.57-.521 3.497-1.449a4.9455 4.9455 0 000-6.993 4.9455 4.9455 0 00-3.497-1.448h-.037zM125.631 100.96c.003.978.296 1.933.842 2.745.545.811 1.32 1.443 2.224 1.814.905.372 1.9.467 2.858.273a4.942 4.942 0 002.528-1.361 4.944 4.944 0 001.056-5.3922 4.9505 4.9505 0 00-1.828-2.2137 4.9466 4.9466 0 00-2.75-.8251c-.65.001-1.293.1302-1.893.3802a4.9426 4.9426 0 00-1.602 1.0766 4.9488 4.9488 0 00-1.067 1.6085 4.9415 4.9415 0 00-.368 1.8947zM135.562 109.663c0 .592.176 1.172.505 1.665.329.492.797.877 1.345 1.103.548.227 1.15.287 1.732.171a2.9997 2.9997 0 001.534-.82c.419-.419.705-.953.82-1.535.116-.581.057-1.184-.17-1.731a2.9938 2.9938 0 00-1.104-1.345 2.991 2.991 0 00-1.665-.505 2.9956 2.9956 0 00-2.997 2.997zM155.852 119.485c0 .593.175 1.172.505 1.665.329.493.797.877 1.345 1.104.547.227 1.15.286 1.731.171a3.0003 3.0003 0 001.535-.821c.419-.419.704-.953.82-1.534a3.002 3.002 0 00-.17-1.732 3.0044 3.0044 0 00-1.104-1.345 3.0015 3.0015 0 00-1.665-.505c-.795 0-1.557.316-2.12.878a2.9956 2.9956 0 00-.877 2.119zM161.096 91.1636a2.9977 2.9977 0 00-2.997 2.997 2.9976 2.9976 0 002.997 2.997c.282.0011.562-.0393.832-.1199v-.9216l.037-.502c0-.2997.045-.5994.075-.8991l.113-.9665a1.3143 1.3143 0 01.052-.4496c.042-.172.067-.3476.075-.5244l.09-.487a2.141 2.141 0 01.082-.4121c0-.1424.053-.2323.083-.3447a3.08 3.08 0 00-1.499-.3896l.06.0225z" fill="#F77849"/><path d="M122.083 83.0642a2.9972 2.9972 0 00-2.997 2.997c0 .5245.134 1.0403.39 1.4985l.202-.2023c.195-.1873.375-.3821.555-.5769l.075-.0824.464-.4796.142-.1573c.113-.1199.225-.2398.345-.3522l.277-.2772.517-.5095.869-.8691c0-.0662.024-.1302.068-.1798a.3085.3085 0 01.112-.0599h.06a.2147.2147 0 01.07-.0831.2112.2112 0 01.102-.0368.2.2 0 01.115.0381.2013.2013 0 01.073.0967c.097.2783.173.5639.225.8542.045.1873.082.3821.119.5694.075.4271.15.8616.24 1.2887.09.4271.158.7493.202 1.1164-.009.145.011.2903.06.4271.381-.4327.628-.9658.713-1.5354a2.9988 2.9988 0 00-.233-1.6766 2.9937 2.9937 0 00-1.104-1.283 2.9973 2.9973 0 00-1.623-.48l-.038-.045z" fill="#2C2C2C"/><path d="M121.724 81.6931c-.233.1798-.457.3521-.675.5395-.217.1873-.419.3896-.622.5919-.397.3821-.749.7492-1.153 1.1838-.405.4345-.682.7492-1.019 1.1014l-.517.5844-.248.2922a6.3378 6.3378 0 00-.382.4945.417.417 0 00-.051.1985.417.417 0 00.051.1986.3514.3514 0 00.143.1349.41.41 0 00.299.0449h.098l.18-.0899c.122-.0742.235-.1622.337-.2622l.067-.045a.345.345 0 00.09.1723 1.457 1.457 0 00-.06.1574.3655.3655 0 00.098.3821l.052.0449a3.1378 3.1378 0 00-.247.3072.3896.3896 0 00-.049.2454.39.39 0 00.581.2866 2.579 2.579 0 00.592-.472l.217-.2098.202-.2023c.195-.1873.375-.3821.555-.5769l.075-.0824.464-.4796.142-.1573c.113-.1199.225-.2398.345-.3521l.277-.2773.517-.5095.869-.8691a.2654.2654 0 01.015-.0969.247.247 0 01.053-.0829.1645.1645 0 01.097-.0599h.06a.2147.2147 0 01.07-.0831.2148.2148 0 01.103-.0368l.097-.0974.607-.6294.292-.2847c.097-.0974.202-.1873.292-.2922a.3719.3719 0 00.112-.2218.3757.3757 0 00-.052-.2427.4227.4227 0 00-.195-.1532.4256.4256 0 00-.247-.0192h-.105a.4155.4155 0 00-.18.1163.4182.4182 0 00-.097.1909l-.06.06h-.09a.395.395 0 00-.191-.1638.398.398 0 00-.251-.0161.5462.5462 0 00-.195.1049l-.097.1049-.06-.0674a.6756.6756 0 00-.12-.0824.368.368 0 00-.39-.1124h-.067a.5282.5282 0 000-.0974.482.482 0 00-.24-.1798h-.105a.3228.3228 0 00-.187.0524" fill="#2C2C2C"/><path d="M138.447 70.2671v-.1049a11.0405 11.0405 0 01-.682 2.6823c-.105.2397-.225.472-.352.7043-.15.2628-.32.5133-.51.7492l.045-.0524-.045.0524c-.5.6142-1.071 1.1674-1.7 1.6484a33.7427 33.7427 0 01-5.035 2.922c-.854.4496-1.694.9216-2.518 1.4311-.824.5095-1.626 1.0639-2.405 1.6408a30.6773 30.6773 0 00-10.242 13.4265 43.3683 43.3683 0 00-1.843 6.0992 78.6216 78.6216 0 00-2.046 13.861c-.149 2.48-.187 4.967-.127 7.447 0 1.199.09 2.398.172 3.589.045.592.09 1.184.143 1.768.052.585.097.959.157 1.431h.749c-.105-.831-.172-1.678-.239-2.517-.068-.839-.105-1.648-.105-2.465-.09-1.723-.12-3.444-.09-5.162.043-3.441.293-6.877.749-10.287v.104c.335-2.537.803-5.056 1.401-7.545a44.6097 44.6097 0 012.083-6.6903v-.0375a30.9538 30.9538 0 013.926-6.7432l-.06.075a31.058 31.058 0 015.477-5.492 34.785 34.785 0 014.825-3.0719 43.0677 43.0677 0 005.08-2.8921 11.3349 11.3349 0 002.083-1.9256 7.5895 7.5895 0 001.251-2.2477c.286-.8765.48-1.7806.577-2.6973.098-.9508.12-1.9078.068-2.8621l-.045-.6968a3.6375 3.6375 0 01-.57-.1874l-.24-.1123a18.6288 18.6288 0 010 4.1957" fill="#2C2C2C"/><path d="M121.439 104.71c.212 8.301-.144 16.607-1.064 24.86h.749c.92-8.253 1.276-16.559 1.064-24.86a.389.389 0 00-.114-.275.3859.3859 0 00-.275-.115.3983.3983 0 00-.39.39M147.348 66.2062l-.24.0599c0 .2623-.037.5245-.052.7942-.054.9545-.029 1.9118.075 2.8621.086.9185.28 1.8237.577 2.6973.141.4231.321.832.539 1.2213a7.52 7.52 0 00.704 1.0415c.614.727 1.316 1.3739 2.091 1.9255a42.4107 42.4107 0 005.08 2.8846 34.9163 34.9163 0 014.832 3.0719 31.3679 31.3679 0 015.515 5.492l-.06-.0749a30.9514 30.9514 0 013.926 6.7432v.06a44.3302 44.3302 0 012.083 6.6912 77.7155 77.7155 0 011.408 7.552.2651.2651 0 010-.105c.456 3.411.706 6.846.75 10.287 0 1.713-.03 3.434-.09 5.163 0 .824-.09 1.648-.15 2.465-.06.816-.143 1.685-.247 2.517h.749c.06-.472.112-.952.15-1.431.037-.48.105-1.176.142-1.768.082-1.192.142-2.39.172-3.589.06-2.48 0-4.968-.127-7.448a79.9687 79.9687 0 00-2.023-13.853 45.9088 45.9088 0 00-1.843-6.1066 30.3904 30.3904 0 00-5.994-9.6129 32.3328 32.3328 0 00-4.226-3.8061c-.749-.577-1.581-1.1314-2.397-1.6409-.817-.5095-1.664-.9815-2.525-1.431a33.9702 33.9702 0 01-5.035-2.9221 10.0864 10.0864 0 01-1.701-1.6483 6.251 6.251 0 01-.502-.7493c-.127-.2323-.247-.4645-.352-.7043a11.344 11.344 0 01-.682-2.6823v.1049a17.7175 17.7175 0 010-4.1808 3.8065 3.8065 0 01-.562.1274" fill="#2C2C2C"/><path d="M164.176 104.71c-.208 8.301.147 16.607 1.064 24.86h.749a183.6593 183.6593 0 01-1.064-24.86.389.389 0 00-.114-.275.3865.3865 0 00-.276-.115c-.103 0-.202.041-.275.115a.389.389 0 00-.114.275M145.692 52.3976v.2173c-.05.374-.151.7395-.3 1.0864a3.9054 3.9054 0 01-.442.7493 2.5318 2.5318 0 01-.959.7492 2.1486 2.1486 0 01-.524.1349c-.15.015-.3.015-.45 0a1.9256 1.9256 0 01-.502-.1349 3.0347 3.0347 0 01-.502-.2922 3.9182 3.9182 0 01-.494-.502 4.0768 4.0768 0 01-.405-.7043 4.6138 4.6138 0 01-.292-1.1014.4577.4577 0 00-.112-.2772.3976.3976 0 00-.127-.0845.3856.3856 0 00-.151-.0279.3546.3546 0 00-.146.0276.3481.3481 0 00-.123.0848.3729.3729 0 00-.088.1265.3731.3731 0 00-.032.1507c.03.2523.075.5025.135.7493.06.2311.141.4567.239.6743.144.3402.336.6582.57.944.262.3364.591.6145.966.8167.366.2022.774.3151 1.192.3297.252.0085.504-.0167.749-.0749a2.555 2.555 0 00.749-.3222 3.6658 3.6658 0 001.416-1.6559c.207-.4766.341-.9818.397-1.4985v-.2472a.4043.4043 0 00-.189-.2319.4058.4058 0 00-.298-.0378.401.401 0 00-.165.1018.4052.4052 0 00-.097.1679M142.95 43.429a.4228.4228 0 00-.12.2698 4.425 4.425 0 01-.247.7792c-.3.6893-.697 1.3411-1.064 2.0005-.18.3221-.353.6443-.502.9815a4.4163 4.4163 0 00-.353 1.004 2.268 2.268 0 000 .8991c.062.3041.216.5816.442.7942.124.1276.265.2362.42.3221.177.1038.366.1867.562.2473.265.0888.539.1516.817.1873h.427a3.902 3.902 0 00.509-.0524.4053.4053 0 00.27-.4796.427.427 0 00-.18-.2322.5096.5096 0 00-.3 0h-.074c-.195.015-.39.015-.585 0a4.9932 4.9932 0 01-.809-.2248 1.819 1.819 0 01-.39-.2173 1.1353 1.1353 0 01-.194-.1873 1.181 1.181 0 01-.098-.1648 1.687 1.687 0 01-.052-.2098 1.3839 1.3839 0 010-.3522c.046-.2809.127-.5551.239-.8166.33-.7493.75-1.4536 1.154-2.1729.188-.3446.36-.6968.517-1.0639.068-.1648.128-.3222.18-.4945.047-.185.082-.3726.105-.5619a.4575.4575 0 00-.112-.2772.388.388 0 00-.128-.0845.3774.3774 0 00-.15-.0279.3562.3562 0 00-.146.0275.3497.3497 0 00-.123.0849l-.015.0224z" fill="#2C2C2C"/><path d="M163.764 43.4366v.0825c0 .3446-.075.6893-.12 1.0264-.045.2698-.082.5395-.127.8167a32.2587 32.2587 0 01-1.761 6.481l-.06.1573-.045.1049v.06c-.053.1124-.097.2247-.142.3371a31.1836 31.1836 0 01-.922 1.9631c0 .0674-.067.1273-.105.1948v.0674l-.067.1274-.053.0974-.052.0974-.068.1198v.075l-.082.1423v.045l-.083.1498v.045a.876.876 0 01-.082.1498v.045l-.082.1424v.0524l-.083.1424v.0449l-.082.1424v.0524l-.083.1349a.116.116 0 010 .0524l-.075.1349-.044.0599-.083.1274c.002.02.002.04 0 .0599l-.082.1199-.045.0675c0 .0449-.053.0749-.075.1198l-.045.0675-.075.1124a.4567.4567 0 00-.053.0749l-.074.1049a1.0807 1.0807 0 01-.06.0824l-.068.0974-.06.0899-.075.0974a.719.719 0 01-.06.0824l-.067.0974-.06.0824a.9398.9398 0 00-.075.0974l-.067.0825-.068.0974-.06.0749a23.1471 23.1471 0 01-4.001 4.0309 18.882 18.882 0 01-4.218 2.3826 17.0108 17.0108 0 01-3.821 1.1014h-.06l-.27.045c-1.2.1573-2.413.1874-3.619.0899h-.344a3.3054 3.3054 0 01-.382-.045h-.083a16.1573 16.1573 0 01-2.15-.4645h-.217a15.8515 15.8515 0 01-1.312-.4421h-.194l-.188-.0749h-.097a19.3122 19.3122 0 01-2.076-1.0639l-.112-.0674-.112-.075-.113-.0749-.097-.0599-.075-.0525h-.06l-.052-.0374-.517-.1574-.098-.0674c-.359-.2473-.749-.502-1.071-.7493a23.1877 23.1877 0 01-3.687-3.6338l-.307-.487a27.4672 27.4672 0 01-2.292-3.5365l-.098-.1798-.075-.1348v-.0525a28.428 28.428 0 01-1.034-2.1803.58.58 0 01-.052-.1199v-.0899l-.06-.0824-.068-.1573v-.045a31.9968 31.9968 0 01-2.015-7.6573v-.2323l-.442-.3221c-.127-.0825-.262-.1574-.397-.2323.127 1.1463.3 2.2477.539 3.4091.083.412.18.8241.278 1.2287.389 1.5329.89 3.0353 1.498 4.4955l.045.1124.202.472a27.3838 27.3838 0 003.462 5.8441l.247.3147.202.2398a21.2528 21.2528 0 002.248 2.4275l.12.1124c.27.2473.547.4795.824.7493l.135.1049.052.0449.083.0675.112.0824c.218.1723.442.3371.667.502l.15.1049c.225.1648.449.3146.682.457a18.3023 18.3023 0 003.956 1.8956l.135.045.149.0449c.375.1199.75.2248 1.124.3147 2.077.5173 4.235.6292 6.354.3297l.464-.075c.293-.0449.577-.0974.87-.1648a17.128 17.128 0 004.113-1.4985l.105-.0524.404-.2173a19.7334 19.7334 0 002.833-1.8731 22.6205 22.6205 0 002.337-2.0754l.255-.2698a25.392 25.392 0 002.435-3.0794c.307-.457.607-.929.892-1.4086a30.0203 30.0203 0 002.42-5.2447 31.59 31.59 0 001.116-3.971v-.2173c.225-1.1164.397-2.2477.517-3.3716a.2028.2028 0 01-.142.0599.1868.1868 0 01-.15-.0674h-.142a.2077.2077 0 01-.09-.1199h-.18v.0375l.015-.045zm-40.594 1.1089v-.0674.0674zM161.456 52.5842l.007-.0068-.007.0068zM161.456 52.5842l.007-.0068-.007.0068z" fill="#2C2C2C"/><path d="M121.057 43.3542c-.493.0011-.98.1031-1.431.2997a3.8315 3.8315 0 00-1.889 1.9181 6.2066 6.2066 0 00-.561 2.9595 6.6784 6.6784 0 00.884 3.042 5.4006 5.4006 0 002.39 2.1878c.265.1187.538.2188.816.2997.324.0926.655.1553.989.1873a7.1666 7.1666 0 001.499 0c.252-.0304.502-.0754.749-.1349.292-.0805.575-.1884.847-.3221a.392.392 0 00.178-.2285.3905.3905 0 00-.028-.2885.4307.4307 0 00-.24-.1873.412.412 0 00-.3 0l-.18.0899a4.9879 4.9879 0 01-.929.2472 6.6842 6.6842 0 01-1.641 0 5.4505 5.4505 0 01-1.296-.3596 4.8532 4.8532 0 01-.974-.562 5.4454 5.4454 0 01-.831-.8316 5.8038 5.8038 0 01-.645-1.1014 6.506 6.506 0 01-.412-1.5509v.1048a6.5398 6.5398 0 010-1.6183v-.03a5.039 5.039 0 01.345-1.2812c.131-.3217.305-.6242.517-.8991a3.2 3.2 0 01.532-.5245c.175-.1352.366-.2484.569-.3371.241-.0971.492-.165.749-.2023.289-.03.581-.03.87 0 .339.0573.672.1451.996.2622a.3678.3678 0 00.291-.0338.3623.3623 0 00.111-.0999.38.38 0 00.063-.136l-.3-.2248-.622-.3521h-.037l-.323-.1049a4.001 4.001 0 00-.666-.06l-.09-.1274z" fill="#2C2C2C"/><path d="M121.124 46.1788a3.3413 3.3413 0 00-1.963.8167.3888.3888 0 00-.112.2735c0 .1023.04.2005.112.2734.036.0364.08.0652.127.0845a.384.384 0 00.15.0279.4224.4224 0 00.278-.1124l.059-.0524c.186-.1403.387-.2584.6-.3522.218-.0802.444-.1379.674-.1723.249-.0225.5-.0225.749 0 .27.045.534.1204.787.2248l.157.0674a.3899.3899 0 00.487-.163.3863.3863 0 00.046-.2701.3922.3922 0 00-.143-.2337 4.5732 4.5732 0 00-.974-.3447 3.6393 3.6393 0 00-.749-.0824h-.262M165.809 43.4141a4.9974 4.9974 0 00-1.378.2172h-.083l-.225.075a.3904.3904 0 00-.232.502.3936.3936 0 00.174.2006c.079.045.171.0614.261.0466.322-.1214.656-.2093.996-.2622.289-.03.58-.03.869 0 .481.0497.938.2341 1.319.5319.198.1494.381.3175.547.502.208.2804.382.5848.517.9066.177.4291.296.8802.352 1.3412a.0778.0778 0 000 .0599c.06.5378.06 1.0806 0 1.6184v-.1049a6.8787 6.8787 0 01-.412 1.5509v.0375a5.758 5.758 0 01-.659 1.1164 5.3022 5.3022 0 01-.817.8167 5.1059 5.1059 0 01-.974.5694 5.64 5.64 0 01-1.296.3596 6.2062 6.2062 0 01-1.581 0 5.2907 5.2907 0 01-.914-.2397l-.21-.1274a.397.397 0 00-.292 0c-.05.001-.1.0118-.146.0319a.3718.3718 0 00-.122.0853.3916.3916 0 00-.081.1256.3871.3871 0 00-.026.1468.3672.3672 0 00.076.2278.3692.3692 0 00.201.1318c.271.1346.554.2401.847.3147.247.0601.497.1051.749.1349a7.1666 7.1666 0 001.499 0c.334-.0327.665-.0954.989-.1873.273-.0827.541-.1828.801-.2997a5.4413 5.4413 0 002.39-2.1878 6.6918 6.6918 0 00.885-3.042 6.2116 6.2116 0 00-.562-2.997 3.8582 3.8582 0 00-1.866-1.8881 3.6081 3.6081 0 00-1.431-.2997l-.165-.0149z" fill="#2C2C2C"/><path d="M165.809 46.2537a3.238 3.238 0 011.956.8092.3848.3848 0 01.085.1269c.02.0476.031.0987.031.1503a.3886.3886 0 01-.031.1502.3842.3842 0 01-.085.127.3618.3618 0 01-.117.0778.363.363 0 01-.138.0271.4179.4179 0 01-.277-.1124l-.068-.0524a3.0964 3.0964 0 00-.592-.3447 3.6499 3.6499 0 00-.681-.1798c-.25-.0225-.5-.0225-.75 0a3.2075 3.2075 0 00-.749.2248l-.157.0749a.4656.4656 0 01-.3 0 .3967.3967 0 01-.232-.1798.3718.3718 0 01-.051-.1439.3733.3733 0 01.009-.1524.372.372 0 01.068-.1367.3856.3856 0 01.116-.099 4.427 4.427 0 01.974-.3447c.246-.0537.498-.0813.749-.0824h.24M151.574 18.2544a.3879.3879 0 00-.118.0931.3751.3751 0 00-.089.28.3646.3646 0 00.042.1439 9.282 9.282 0 01.749 1.5509v-.0749c.324.9438.537 1.9218.637 2.9146a14.469 14.469 0 01-.113 3.4165 13.0825 13.0825 0 01-.899 3.0944v-.1049a9.9217 9.9217 0 01-1.258 2.0979v-.0524a7.394 7.394 0 01-1.409 1.3261 6.8786 6.8786 0 01-1.251.6519 8.063 8.063 0 01-1.918.4196c-1.416.0695-2.834.062-4.248-.0225a15.8426 15.8426 0 00-2.151.0749 8.1054 8.1054 0 00-2.068.502 8.6165 8.6165 0 00-3.192 2.3227c-.906.989-1.67 2.0979-2.51 3.1468l.06-.0824a12.2675 12.2675 0 01-2.247 2.2477l.082-.0599a11.9968 11.9968 0 01-2.652 1.4011c-.872.3073-1.778.5086-2.698.5994-.412 0-.824.0524-1.236.0524a.3798.3798 0 00-.147.0233.3742.3742 0 00-.127.078.3812.3812 0 00-.123.2659.3791.3791 0 00.024.1491.3833.3833 0 00.351.248 11.9901 11.9901 0 003.604-.4796 11.5975 11.5975 0 003.364-1.6408c1.73-1.2288 2.884-2.997 4.196-4.6528a11.828 11.828 0 012.142-2.0979c.467-.3288.97-.6029 1.499-.8167a8.6366 8.6366 0 011.94-.4271 23.8195 23.8195 0 013.102 0c.958.06 1.919.06 2.877 0 .467-.0312.93-.0963 1.386-.1948.498-.105.983-.2633 1.447-.472a6.6743 6.6743 0 002.067-1.4985 10.1927 10.1927 0 002.301-4.1208 14.496 14.496 0 00.502-2.4576c.091-.8334.111-1.6731.06-2.51a11.4273 11.4273 0 00-1.446-5.1473.44.44 0 00-.15-.149.437.437 0 00-.203-.0608.3587.3587 0 00-.179.0225zm-2.346 14.6103l-.06.045.06-.045z" fill="#2C2C2C"/><path d="M153.177 25.155a.3887.3887 0 00-.112.2734c0 .1024.04.2006.112.2735.428.494.916.932 1.453 1.3037.553.3742 1.134.7049 1.739.989a18.2439 18.2439 0 013.446 1.9406c.279.255.53.5388.749.8466.211.3236.39.6674.532 1.0265a7.658 7.658 0 01.337 1.6408 25.052 25.052 0 010 2.5999v1.3337c.009.4714.046.9418.113 1.4085a7.5447 7.5447 0 002.248 4.9301.3661.3661 0 00.269.1274.3814.3814 0 00.152-.0188.3873.3873 0 00.133-.0768.3886.3886 0 00.091-.1228.366.366 0 00.036-.1488.3941.3941 0 00-.054-.1554.416.416 0 00-.11-.1218 5.7458 5.7458 0 01-.84-.9216 6.6784 6.6784 0 01-.749-1.4535.3968.3968 0 000 .0974 11.0621 11.0621 0 01-.592-2.7797c-.097-1.2812 0-2.5699 0-3.8511a10.9248 10.9248 0 00-.187-1.9181 5.793 5.793 0 00-.629-1.7383 7.454 7.454 0 00-3.207-2.6448c-.622-.3222-1.266-.6144-1.896-.944a9.4524 9.4524 0 01-1.791-1.1689l.075.0675a9.0508 9.0508 0 01-.809-.7942.3894.3894 0 00-.284-.1274.4047.4047 0 00-.263.0974M128.917 11.5708a18.898 18.898 0 00-3.829 2.4276 19.3259 19.3259 0 00-1.671 1.5509 22.178 22.178 0 00-1.73 2.1054c-1.117 1.4985-2.121 3.0719-3.207 4.5929a23.7251 23.7251 0 01-1.611 2.0829 20.2557 20.2557 0 01-1.956 1.978c-.462.3973-.944.77-1.446 1.1164-.562.3896-1.153.7492-1.738 1.0939-1.109.6743-2.248 1.3261-3.334 2.0005-1.086.6743-2.158 1.3636-3.184 2.1278a23.1666 23.1666 0 00-2.87 2.5549 20.2239 20.2239 0 00-2.248 2.9221 15.1104 15.1104 0 00-1.5506 3.1618 13.9512 13.9512 0 00-.7493 3.4016 13.0189 13.0189 0 000 1.7083c.0134.6357.076 1.2695.1873 1.8956a13.59 13.59 0 001.2363 3.469c.5619 1.1389 1.1983 2.2477 1.7533 3.3866.479.9664.846 1.9845 1.094 3.0344.113.6024.156 1.2159.127 1.8282a.0443.0443 0 010-.0449.0776.0776 0 00-.005.0262c0 .009.002.0179.005.0262a10.952 10.952 0 01-.532 2.6448 26.5949 26.5949 0 01-3.0867 5.7093c-.5994.9291-1.1987 1.8656-1.7382 2.8322a15.7307 15.7307 0 00-1.2962 2.952 19.1576 19.1576 0 00-.6518 2.7572 20.0426 20.0426 0 00-.2473 2.997 10.886 10.886 0 001.3337 5.5969 6.5868 6.5868 0 001.4535 1.6783c.3139.2608.6498.494 1.004.6968a7.532 7.532 0 001.2437.5844c.7163.26 1.4533.4605 2.2033.5994.735.1376 1.462.3126 2.18.5245.471.1663.921.3877 1.341.6593.376.2648.718.5742 1.019.9216.249.3157.479.6459.689.989.23.3824.438.7777.622 1.1838a22.678 22.678 0 002.038 3.8062 7.5369 7.5369 0 001.574 1.5884 9.6443 9.6443 0 002.405 1.2888c.07.024.146.03.22.017a.4424.4424 0 00.201-.0893.45.45 0 00.135-.1746.44.44 0 00.035-.2178.4008.4008 0 00-.091-.1743.4132.4132 0 00-.163-.1104 10.716 10.716 0 01-1.926-.959 7.6156 7.6156 0 01-1.386-1.2063 11.6038 11.6038 0 01-1.573-2.5324c-.465-.9591-.899-1.9406-1.431-2.8772a7.8789 7.8789 0 00-1.064-1.4085 6.3797 6.3797 0 00-1.184-.8617 8.372 8.372 0 00-2.518-.8991c-.921-.2023-1.858-.3671-2.757-.6593a8.5348 8.5348 0 01-1.8655-.9441 6.1002 6.1002 0 01-1.1538-1.0414l.0599.0749a6.983 6.983 0 01-.959-1.4985v.0525a9.51 9.51 0 01-.6968-2.1054 14.1521 14.1521 0 01-.2472-3.514v-.0674a19.2576 19.2576 0 01.9065-4.7278c1.3787-3.971 4.4959-7.0279 5.9489-10.9839.353-.9348.58-1.9124.674-2.9071a7.8047 7.8047 0 000-1.5734 8.4226 8.4226 0 00-.314-1.4985 16.4294 16.4294 0 00-1.221-2.9221c-.487-.974-1.027-1.9255-1.499-2.907l.045.0974a13.9348 13.9348 0 01-1.1314-3.0645 13.3715 13.3715 0 01-.2023-3.2817 14.4983 14.4983 0 01.6444-3.3341v-.0974a15.4276 15.4276 0 011.8053-3.5964.088.088 0 000 .0599 19.3464 19.3464 0 013.537-3.956 43.9795 43.9795 0 016.174-4.1508c.539-.3222 1.079-.6369 1.61-.9665.532-.3297 1.169-.7493 1.739-1.1089a17.3021 17.3021 0 002.742-2.3826 42.5553 42.5553 0 004.113-5.4845 35.9797 35.9797 0 012.248-2.997 17.7515 17.7515 0 012.046-2.1354 19.1764 19.1764 0 014.053-2.6523 22.2608 22.2608 0 015.11-1.7008h-.068a25.829 25.829 0 016.534-.4495c2.224.1394 4.422.5598 6.541 1.2512a24.1864 24.1864 0 014.495 2.1054.3981.3981 0 00.525-.1723.409.409 0 00.014-.2979.4074.4074 0 00-.194-.2266 25.1335 25.1335 0 00-11.434-3.4615c-.487 0-1.056-.045-1.581-.045a23.7727 23.7727 0 00-10.287 2.2478l-.037.0599zM99.1643 41.6381v-.045.045z" fill="#2C2C2C"/><path d="M152.323 12.8523a.3795.3795 0 00-.264.1276.3997.3997 0 00-.076.129.391.391 0 00-.02.148.3837.3837 0 00.036.1488.3766.3766 0 00.092.1227.3743.3743 0 00.132.0769.3835.3835 0 00.152.0187h1.409a14.354 14.354 0 013.222.6369 17.9921 17.9921 0 013.971 1.9106h.067-.045a19.7134 19.7134 0 013.746 3.1693l-.067-.075a16.3306 16.3306 0 012.278 3.484c.245.5158.457 1.0463.636 1.5884.209.6837.377 1.3793.502 2.083v-.0975c.345 1.7683.577 3.5515.997 5.2972.202.884.48 1.7489.832 2.5849.359.8568.816 1.669 1.363 2.4201.605.7789 1.28 1.5011 2.016 2.1578.704.6743 1.446 1.3112 2.187 1.9406a42.4945 42.4945 0 014.271 3.941l-.067-.0749a17.273 17.273 0 012.435 3.5589 12.5382 12.5382 0 011.318 6.6084v-.0974a16.3992 16.3992 0 01-.749 3.7986c-.285.8542-.637 1.6709-.966 2.5025-.33.8317-.645 1.6184-.929 2.4426a16.316 16.316 0 00-.615 2.3002 10.3347 10.3347 0 00-.187 2.2477c.024.74.147 1.4733.367 2.1803a9.9297 9.9297 0 001.079 2.3826c.24.4046.509.7493.749 1.1688.24.4196.54.8017.802 1.2213.464.7492.892 1.4985 1.281 2.2477l-.045-.0899a18.2995 18.2995 0 011.499 4.1584c.186.9622.256 1.9431.209 2.922a11.2496 11.2496 0 01-.524 2.6823v-.0974a12.6927 12.6927 0 01-1.311 2.6973 17.4638 17.4638 0 01-2.937 3.3641l-.06.045a18.7957 18.7957 0 01-3.851 2.5999l.09-.045a18.0297 18.0297 0 01-4.496 1.4985h.098c-.323.0599-.645.1199-.975.1648a.3922.3922 0 00-.196.1537.3935.3935 0 00-.062.2409.3843.3843 0 00.095.2299c.057.064.132.1079.216.1248a17.8761 17.8761 0 003.364-.7942 18.1874 18.1874 0 003.139-1.4236 17.9753 17.9753 0 002.848-2.0155 19.419 19.419 0 002.502-2.5849 14.2875 14.2875 0 001.693-2.7122c.415-.8828.717-1.8142.899-2.7722a12.3455 12.3455 0 00-.382-5.7243 19.7797 19.7797 0 00-1.783-4.1358c-.39-.7493-.817-1.3936-1.266-2.0605-.255-.3821-.525-.7492-.749-1.1388a11.3525 11.3525 0 01-.675-1.1763 9.2735 9.2735 0 01-.749-2.1654v.1049a8.2398 8.2398 0 01-.15-2.1428c.098-1.115.33-2.2143.689-3.2742.36-1.0939.795-2.1653 1.237-3.2368.225-.5619.449-1.1163.644-1.6858a19.401 19.401 0 00.517-1.7832c.257-1.1157.388-2.2567.39-3.4016a13.6793 13.6793 0 00-.427-3.2966 14.0315 14.0315 0 00-1.289-3.1918 17.4164 17.4164 0 00-2.113-2.997 47.4342 47.4342 0 00-5.065-4.6678 30.6354 30.6354 0 01-2.817-2.6823 11.592 11.592 0 01-1.611-2.4126 12.3365 12.3365 0 01-.749-2.0305 21.1547 21.1547 0 01-.555-2.2477v.0974c-.217-1.0789-.382-2.1728-.577-3.2592-.089-.5245-.194-1.049-.307-1.5659a15.1862 15.1862 0 00-.397-1.4985 13.1543 13.1543 0 00-1.191-2.5774 15.4295 15.4295 0 00-1.821-2.3452 19.2856 19.2856 0 00-4.713-3.9186 16.2884 16.2884 0 00-5.604-2.0754c-.647-.1044-1.3-.1571-1.955-.1573h-.75.068zM182.6 58.4739zm1.446 30.9589zM127.463 80.5917a.4052.4052 0 00-.27.487 25.1847 25.1847 0 002.165 4.7502 21.6349 21.6349 0 003.484 4.4356 17.526 17.526 0 002.593 2.1128 15.4618 15.4618 0 002.997 1.5809 14.4071 14.4071 0 0011.313-.3072 16.394 16.394 0 003.994-2.5774 19.373 19.373 0 002.727-2.8696 23.2952 23.2952 0 001.813-2.7123c.263-.472.51-.9515.75-1.4385l.044-.0974.045-.0824v-.0749c0-.09.083-.1724.12-.2623v-.0524c.165-.3597.315-.7493.457-1.0864v-.045a.5282.5282 0 010-.0974.1857.1857 0 01.009-.081.175.175 0 01.044-.0688.3972.3972 0 00-.039-.2941.3963.3963 0 00-.231-.1855.3796.3796 0 00-.15-.0306.387.387 0 00-.15.0306.3972.3972 0 00-.179.2323l-.045.1199-.045.1124v.0824l-.165.3896c-.09.2173-.187.4271-.277.6443a.5348.5348 0 00-.075.1499v.1349a.2353.2353 0 010 .0749c-.24.4945-.495.9815-.75 1.4985a23.9623 23.9623 0 01-1.708 2.5774 20.2177 20.2177 0 01-3.379 3.4091 16.4942 16.4942 0 01-3.469 2.0379 14.1148 14.1148 0 01-3.574.974h.105a14.9177 14.9177 0 01-3.746 0 15.138 15.138 0 01-3.529-.8841 16.172 16.172 0 01-3.492-2.0454 19.2397 19.2397 0 01-3.364-3.3941 23.7631 23.7631 0 01-2.952-5.0799v-.1199c-.225-.5469-.427-1.1014-.622-1.6558a.3985.3985 0 00-.14-.2038.3992.3992 0 00-.234-.0809h-.105l.03-.0075zm4.061 7.0953l.037.0525-.037-.0525z" fill="#2C2C2C"/><path d="M125.282 82.0602a.3804.3804 0 00-.134.064.3619.3619 0 00-.1.1107.3739.3739 0 00-.05.1407.3746.3746 0 00.007.1491c.165.472.337.9441.525 1.4161v.0899c0 .0749.067.1573.105.2398.202.487.419.974.644 1.446v.1199c.032.0526.059.1077.082.1648l.143.2622c.262.5095.539 1.019.831 1.4985v.045a24.3525 24.3525 0 003.679 4.7128 19.3262 19.3262 0 005.2 3.7462c.99.4791 2.024.8629 3.087 1.1463 3.084.8988 6.367.8545 9.425-.1273a18.8176 18.8176 0 006.511-3.8811 23.9228 23.9228 0 004.728-5.949l.262-.4796.113-.1798c.21-.3896.404-.7492.592-1.1838v-.0749l.105-.2023a.0446.0446 0 010-.045l.052-.1199c.172-.3821.337-.7492.494-1.1613l.045-.1049a.7456.7456 0 00.06-.1423l.06-.1574a.4501.4501 0 000-.0899v-.0749a.384.384 0 00-.039-.2908.3885.3885 0 00-.23-.1812.3908.3908 0 00-.301.0325.3917.3917 0 00-.117.0997.3777.3777 0 00-.069.1375l-.113.3072a.3034.3034 0 000 .1124.3968.3968 0 010 .0974v.0599l-.18.4346v-.06c-.105.2548-.209.502-.329.7493v.0824c0 .0824-.075.1648-.105.2473-.21.4345-.427.8616-.652 1.2887l-.307.5469a25.3007 25.3007 0 01-1.933 2.9221v.0524a22.1518 22.1518 0 01-3.747 3.7463l-.052.0449a18.3269 18.3269 0 01-3.963 2.3077h-.098a16.6204 16.6204 0 01-4.008 1.0789h.075a16.1352 16.1352 0 01-4.076 0h.097a16.3284 16.3284 0 01-4.053-1.0789h.045a18.4323 18.4323 0 01-3.934-2.2478h-.067a22.258 22.258 0 01-3.852-3.8885 24.035 24.035 0 01-1.633-2.4201c-.292-.502-.577-1.004-.839-1.4985v-.0749a.4095.4095 0 00-.037-.0824v-.06l-.158-.3147c-.187-.3821-.359-.7492-.532-1.1613l-.09-.2398a28.4526 28.4526 0 01-.584-1.5584.4131.4131 0 00-.375-.2847h-.105l-.105-.2847zm24.373 14.378h-.029.029zm-15.936-2.2927l-.06-.0449.06.0449zm19.818-.0449h.045a.1895.1895 0 00-.06.0524l.015-.0524zm3.791-3.7762v.0374-.0374zM163.344 84.8324a58.4411 58.4411 0 00-1.858 10.0849 19.2267 19.2267 0 00.315 5.2447c.158.806.41 1.59.749 2.338a8.589 8.589 0 001.304 2.038c.061.075.126.148.194.217.035.037.077.067.124.089.046.021.097.033.148.034a.3842.3842 0 00.279-.104.3771.3771 0 00.089-.124.3962.3962 0 00.035-.148.4044.4044 0 00-.025-.15.3832.3832 0 00-.08-.129c-.15-.155-.292-.32-.427-.495a9.334 9.334 0 01-1.057-1.813 12.24 12.24 0 01-.749-2.9968v.1049a23.2786 23.2786 0 01.113-6.2112v.1049c.39-2.6379.928-5.2519 1.61-7.8297a.384.384 0 00-.039-.2908.3885.3885 0 00-.23-.1812h-.098a.3957.3957 0 00-.238.0787.3952.3952 0 00-.144.206l-.015-.0674zm-.187 17.1056v-.053.053zM123.514 83.7086a.3963.3963 0 00-.231.1855.4018.4018 0 00-.039.294c.426 1.6244.751 3.2734.974 4.9376v-.1049a30.636 30.636 0 01.09 8.0319v-.1274a18.4095 18.4095 0 01-1.206 4.7127c-.402.915-.905 1.782-1.498 2.585a.3807.3807 0 00.127.524c.047.021.098.031.15.031.051 0 .102-.01.15-.031.097-.028.18-.092.232-.179 2.083-2.885 2.847-6.4963 2.997-10.0028a32.67 32.67 0 00-.277-5.477 41.6962 41.6962 0 00-1.004-5.1473.3916.3916 0 00-.138-.2098.3898.3898 0 00-.237-.0824h-.105M133.202 48.8386c1.026 0 1.858-1.1613 1.858-2.5849 0-1.4235-.832-2.5849-1.858-2.5849-1.027 0-1.858 1.1539-1.858 2.5849 0 1.4311.831 2.5849 1.858 2.5849zM152.922 48.449c-1.026 0-1.858-1.1613-1.858-2.5849 0-1.4235.832-2.5924 1.858-2.5924 1.027 0 1.858 1.1614 1.858 2.5924 0 1.4311-.831 2.5849-1.858 2.5849zM153.881 36.4161c.484.0627.955.1939 1.401.3896a5.47 5.47 0 011.169.7493c.173.1423.345.2922.502.4495.174.1801.335.373.48.5769a.3987.3987 0 010 .2923.3918.3918 0 01-.064.139.3714.3714 0 01-.116.1007.396.396 0 01-.292 0 .4072.4072 0 01-.24-.1873l-.037-.0524a5.0361 5.0361 0 00-.75-.7493 5.779 5.779 0 00-1.101-.6443 4.5811 4.5811 0 00-1.012-.3147 4.164 4.164 0 00-.749 0l-.277.0524a.3904.3904 0 01-.271-.0616.3884.3884 0 01-.13-.502.3908.3908 0 01.206-.1856c.276-.0599.557-.0901.839-.0899h.465M13.1334 101.238a.4121.4121 0 00-.181.226 177.1833 177.1833 0 00-2.444 28.453h.7543a173.928 173.928 0 011.5765-22.667v.105c.2565-1.901.5406-3.794.8524-5.68a.3865.3865 0 000-.302.3789.3789 0 00-.2338-.181h-.1056a.3806.3806 0 00-.1962.061" fill="#2C2C2C"/><path d="M46.3009 72.7391a4.162 4.162 0 00-.6865.0679h-.1357l-.4677.0755-.4677.0678-.528.083-.3018.0377h-.6411c-.6261.083-1.3352.1735-2.0216.2188-.3621 0-.7543.0453-1.0862.0754h-.4602l-.7543.0528h-4.4807c-.5582 0-1.2823-.0678-2.0442-.1659l.1056.0528-.2565-.0679h-.2489l-.4752-.083-.4451-.0754c-.1734 0-.3469-.0453-.5129-.0603h-.2263a1.2522 1.2522 0 00-.9731.5581 1.764 1.764 0 00-.1885.3772 2.2568 2.2568 0 00-.1207.5356l-.0528.3243v.1509l-.1509.0453c-.1282 0-.2489.0603-.3696.0905l-.1961.0528a6.4985 6.4985 0 00-1.1768.3847 4.9275 4.9275 0 00-.9957.6487 3.763 3.763 0 00-.4375.4149 1.3286 1.3286 0 00-.181.2263 1.0596 1.0596 0 00-.1358.2187 1.517 1.517 0 00-.0755.1961.298.298 0 000 .1057c-.007.0727-.007.146 0 .2187a.6576.6576 0 000 .1207.445.445 0 00.4149.4903.4148.4148 0 00.3923-.2791.9893.9893 0 00.3243.1886c.1685.0802.3424.1482.5205.2037.5884.1735 1.2296.2941 1.7425.3922h.2489l.5809.083 1.3427.1433c.528.0453 1.0107.0981 1.5086.1584h.083c.5733.0679 1.2748.1584 1.9989.1961h.4375l.7544.0378h6.2684l.5355-.0378h.6412l.6035-.0452.5054-.0377.6713-.0453.9052-.1131h.1584c.3395-.0378.6337-.0755.9278-.0981l.7544-.0981h.2791l.6638-.1056h.181l1.1541-.1735c.3244-.0377.6487-.0754.9806-.098h.4979a1.0185 1.0185 0 00.4828-.1358.4989.4989 0 00.2263-.3244.7094.7094 0 000-.3545 2.1602 2.1602 0 00-.1358-.3017 2.7745 2.7745 0 00-.6035-.7543l-.2414-.2113c-.1659-.1584-.3394-.3168-.528-.4676-.1886-.1509-.4224-.2942-.6412-.4375a3.8414 3.8414 0 00-.3847-.2264 2.4367 2.4367 0 00-.3168-.1508l-.1659-.0679-.4149-.1433h-.0755l-.2941-.1056-.1056-.0528v-.0906a1.421 1.421 0 00-.0528-.1659c-.0378-.1132-.0906-.2263-.1358-.3319l-.0453-.0754a2.9705 2.9705 0 00-.1584-.3998l-.0754-.1509a.6303.6303 0 00-.0528-.0981.944.944 0 00-.1735-.3168.8005.8005 0 00-.347-.181c-.083 0-.1735 0-.2565-.0453h-.3319M63.9222 107.151a.353.353 0 00-.1886.061.2763.2763 0 00-.1509 0h-.098c-.2339.06-.4677.105-.7016.151h-.1357l-.1811.037-1.0862.212-.8147.158c-.3998.083-.7996.166-1.1993.234l-2.0895.354-.7543.136-1.3276.211-.8901.151-.8147.136-.6261.106-1.0183.166-.6035.075h-.6261c-.347 0-.6638.075-.9882.098l-.7166.06h-.2564l-1.3653.098-1.2824.061-1.0636.045h-.2338c-.7091.038-1.4182.068-2.1272.083H30.7697c-.7543 0-1.5087-.06-2.3837-.151l-.7543-.068-.7015-.068c-1.0108-.083-2.0065-.173-3.0173-.301l-.7543-.113-.9279-.136.0981.045-.264-.068-.2565-.038c-.3998-.052-.7543-.098-1.0937-.128h-.7016l-.5959-.038h-.4903l-.6713-.045h-.5809l-.4299-.045h-.2037c-.2942-.038-.5959-.091-.8901-.151l-.9957-.188-.6185-.136-.3395-.083-.4903-.113-.2866-.046h-.1434a1.4601 1.4601 0 00-.3998.053.5277.5277 0 00-.1834.093.5157.5157 0 00-.1334.156.2695.2695 0 01-.0377.083 1.378 1.378 0 00-.098.219c-.0467.13-.082.264-.1057.4a4.9573 4.9573 0 00-.0678.52V110.146c.0072.108.0072.217 0 .325v.248l-.166.264c0 .197-.0603.378-.1056.566l-.0528.211c-.067.294-.1501.583-.2489.868a.4004.4004 0 00-.0019.235.4035.4035 0 00.1301.195.2652.2652 0 00-.1509.188.4075.4075 0 00.0374.313.4098.4098 0 00.1053.122.4085.4085 0 00.144.071 4.84 4.84 0 001.1692.211h.528l.1282.045a.2648.2648 0 00.1886.129h.3696l.3847.09.1585.038.3017.06.2414.038.3847.06h.1358c.4525.068.9127.113 1.3653.151.2464 0 .4978.023.7543.068a.4069.4069 0 00.2866-.121H18.5044l.5356.053.5883.181.5431.068.5054.068c.7544.098 1.5087.158 2.263.219l.9052.067h.0981l1.2597.099c.7543.052 1.4634.098 2.2026.135l.6336.038h.2339c.4677.038.9429.068 1.4181.083h5.8158c.4074 0 .8147.038 1.2296.045H43.8496c.7544 0 1.5087-.075 2.263-.128l1.2673-.098h.0829l.958-.068c.7544-.06 1.4483-.136 2.263-.241l.5733-.076.5356-.068.528-.083.2866-.045.2716-.038 2.2177-.354.8901-.143.3394-.061.8826-.143c1.3653-.219 2.7231-.468 4.0809-.717.4828-.083.9655-.173 1.4407-.271a7.169 7.169 0 01.596-.113h.1508l.5658-.114.2036-.045h.1735a.2686.2686 0 00.1057 0 .424.424 0 00.2489-.188.4468.4468 0 00.0452-.317 1.7683 1.7683 0 010-.211v-.189a4.4503 4.4503 0 00-.0905-.709V110.735l-.0453-.295a14.557 14.557 0 01-.1056-1.297v-.272a1.2426 1.2426 0 010-.166v-.829a2.0653 2.0653 0 00-.0679-.461 1.3495 1.3495 0 00-.0528-.158.4263.4263 0 00-.1077-.128.4361.4361 0 00-.1487-.076.349.349 0 00-.1206 0M64.7667 119.334h-.0754c-.177.019-.3515.057-.5205.113l-.5657.166-.4149.143-.5356.174c-.5129.151-1.0334.264-1.6067.392l-.4752.098c-.5809.128-1.2069.219-1.735.294l-.5355.083c-.3018.046-.5959.106-.8901.166h-.1886a.3479.3479 0 00-.1811.106l-.3771.038-.3923.052-.3997.053-.6111.076-.9353.181-.3017.045-.3018.038-1.0787.151-.6411.098-.2791.037h-.2339c-.3847.046-.7543.083-1.1692.106-.4148.023-.7543.068-1.1767.09l-1.0334.076-1.3276.113-.8675.045h-1.4408c-.792.038-1.569.076-2.3685.076H32.7533l-1.2673-.046c-.3847 0-.7543-.045-1.1541-.06l-1.041-.053h-.2715l-1.0108-.06-.8373-.083h-.2942l-.6638-.045h-4.2469c-.4526 0-.8976 0-1.3502-.061l-.8222-.068c-.6336-.045-1.2673-.098-1.9009-.181l-.875-.135-.6563-.106h-.098l-.7544-.128-.2715-.045h-.1207l-.3998-.091-.3244-.06c-.8448-.166-1.6972-.332-2.5571-.468a.2869.2869 0 00-.1132-.098.4185.4185 0 00-.2036-.06h-.1132a.4198.4198 0 00-.2489.188.4987.4987 0 00-.1132.204.4154.4154 0 000 .317c.0244.042.055.08.0906.113v.211c.0321.25.0472.502.0452.754v2.746a4.4146 4.4146 0 01-.1207.528l-.0603.166a1.3916 1.3916 0 00-.1132.513c.0039.11.0499.215.1285.292a.4312.4312 0 00.294.123.366.366 0 00.1961-.053l.347.045h.1584l.3319.038c.5959.098 1.1767.196 1.7726.309l.347.076c.5054.105.9882.196 1.5087.264H16.4448l-.0981-.045c.3532.077.711.133 1.0712.165h1.0787c.7543.053 1.5086.129 2.2629.212l.4224.045.6488.068c.2413 0 .4827.045.7543.068h.694c.2816.03.5607.053.8373.068h.2489l.8373.06h.445l.6714.06H27.39c.5431.046 1.0862.076 1.6369.106l.6185.038c.3847 0 .7544 0 1.1617.037.4073.038.7015 0 1.0485.046.347.045.7543.052 1.0938.06.3394.008.6864 0 1.0259 0H47.1382c.7543-.038 1.5086-.091 2.2102-.158h.4526l.6411-.061c.3546-.038.7091-.075 1.0636-.128l1.2673-.181.9278-.143 1.1843-.174 1.1767-.181c.4375-.06.8901-.136 1.3503-.211l.2791-.045.3394-.061 2.0065-.332.9354-.173c.2112 0 .4224-.091.6261-.136l.4676-.113c.6488-.136 1.2975-.279 1.9386-.453l.6412-.143h.1207l.2112-.038a.377.377 0 00.1309.09.3968.3968 0 00.1558.031.43.43 0 00.2512-.088.4263.4263 0 00.1486-.221 2.2481 2.2481 0 000-.249v-.128c.0341-.111.0569-.225.0679-.34v-.777-.611a4.3072 4.3072 0 00-.0604-.437l-.0302-.559v-.211l-.0528-.332a.7465.7465 0 00-.0679-.301 3.5555 3.5555 0 00-.0603-.476v-.324a5.442 5.442 0 01-.0377-.566v-.226a.4833.4833 0 00-.2339-.4.5687.5687 0 00-.3394-.098" fill="#3E768C"/><path d="M63.4471 101.441a.3574.3574 0 00-.1313.063.3582.3582 0 00-.095.111.423.423 0 00-.0452.302c.3168 1.89.6034 3.784.8599 5.68v-.098a174.1088 174.1088 0 011.569 22.418h.7543a175.7472 175.7472 0 00-2.444-28.204.3677.3677 0 00-.1735-.234.3896.3896 0 00-.1961-.06.3077.3077 0 00-.1132 0M37.9663 41.8122c-.1811.5808-.4074 1.139-.6412 1.6972s-.5129 1.2296-.7543 1.8557a12.0096 12.0096 0 00-.5507 1.8405 6.7071 6.7071 0 00-.113.8599 4.2597 4.2597 0 00.0452.8222 2.15 2.15 0 00.6034 1.1919 2.414 2.414 0 001.1164.6034 5.105 5.105 0 00.679.1207 5.554 5.554 0 00.709 0 11.8437 11.8437 0 001.4633-.1131.4605.4605 0 00.2792-.1132.3842.3842 0 00.1131-.2791.3996.3996 0 00-.1131-.2791.3785.3785 0 00-.2792-.1056 9.384 9.384 0 01-2.3458.0604h.1055a3.3414 3.3414 0 01-.7543-.1886 2.1522 2.1522 0 01-.3395-.1886 1.6028 1.6028 0 01-.2263-.2263 1.9579 1.9579 0 01-.1584-.2716 2.5539 2.5539 0 01-.1358-.4676 4.8401 4.8401 0 010-.9354 12.8222 12.8222 0 01.8751-2.8664c.3771-.9429.8146-1.8707 1.1239-2.8438a.4.4 0 00-.2791-.4828h-.1056a.4153.4153 0 00-.3772.2867l.0604.0226zm-1.222 5.8083a.096.096 0 000 .0452v-.0452zm.7996 2.1573h.0528-.0528zM28.7856 47.9673c1.0335 0 1.8783-1.1617 1.8783-2.6024 0-1.4408-.8448-2.6024-1.8783-2.6024-1.0334 0-1.8707 1.1692-1.8707 2.6024 0 1.4332.8373 2.6024 1.8707 2.6024zM48.6466 47.5751c-1.0334 0-1.8782-1.1692-1.8782-2.6024 0-1.4332.8448-2.6326 1.8782-2.6326 1.0335 0 1.9085 1.1994 1.9085 2.6326s-.8373 2.6024-1.8708 2.6024M28.5896 36.1398a6.707 6.707 0 00-.8674.0528 6.916 6.916 0 00-.9656.2263 6.2689 6.2689 0 00-2.9418 1.8481.7533.7533 0 00-.1509.5733.7547.7547 0 00.5751.6549.7534.7534 0 00.3075.0089.8675.8675 0 00.528-.3093l.0452-.0528a5.234 5.234 0 01.9807-.7543 6.588 6.588 0 011.2823-.5356 6.3883 6.3883 0 011.1315-.1584c.3222.001.6433.0364.958.1056l.2338.0755a.7999.7999 0 001.0108-.4451.754.754 0 00-.4375-1.0183 5.205 5.205 0 00-1.6595-.2716h-.0302zm-1.2295 1.7199h-.0905.0905zm-2.1423 1.1843l-.083.0829.083-.0829zM48.2927 35.7398a6.7886 6.7886 0 01.875.0528 7.178 7.178 0 01.9655.2263 6.3067 6.3067 0 012.9419 1.8481.7546.7546 0 01.1433.5733.7996.7996 0 01-.3093.5205.7546.7546 0 01-.5732.1433.8296.8296 0 01-.5205-.3093l-.0528-.0528a4.995 4.995 0 00-.9807-.7543 6.3929 6.3929 0 00-1.2823-.5356 6.3033 6.3033 0 00-1.1239-.1584 4.525 4.525 0 00-.958.1056l-.2339.0679a.7991.7991 0 01-.5972-.0137.799.799 0 01-.4211-.4238.7548.7548 0 01-.0012-.607.754.754 0 01.4462-.4113 5.1375 5.1375 0 011.6596-.2716h.0226zm1.2295 1.7199h.0905-.0905zm2.1499 1.1843l.0754.0754-.0754-.0754z" fill="#2C2C2C"/><path d="M63.9524 106.789l-.4073.083H63.2585l-.7544.144-.3771.075h-.0453c-1.0938.211-2.18.407-3.2737.588l-.9354.151-2.5572.37h.1056l-.4148.053h-.249c-1.1164.143-2.2629.271-3.3642.392l-1.5087.151c-4.6692.422-9.3536.611-14.0379.596-4.6844-.015-9.3989-.264-14.0757-.755a183.3044 183.3044 0 01-4.1261-.482h.1056c-.7544-.091-1.4257-.196-2.1423-.302-.9429-.143-1.8858-.294-2.8287-.46a.4219.4219 0 00-.3018.037.428.428 0 00-.1206.114v.407a.367.367 0 00.1018.127.365.365 0 00.1471.069c.8071.143 1.6142.279 2.4214.4a143.757 143.757 0 0027.9099 1.471 145.51 145.51 0 006.9171-.453l1.2522-.128c1.0938-.106 2.1951-.234 3.2964-.37h.4149c1.1088-.143 2.2252-.301 3.3416-.475h-.0603.1131l.5431-.083h.0981c.9806-.166 1.9612-.339 2.9343-.52l.7015-.136.3998-.076.3546-.075h.2338l.4451-.09a.388.388 0 00.2172-.162.3855.3855 0 00-.0752-.502.3893.3893 0 00-.2552-.091h-.0905M65.0759 112.643c-1.2069.272-2.4138.528-3.6207.754-2.1348.408-4.2921.755-6.4495 1.049h.1056c-1.6142.211-3.2285.397-4.8427.558-1.2371.121-2.4742.219-3.7189.309-4.4052.31-8.8255.408-13.2383.332-4.4128-.075-8.901-.362-13.3289-.86-.9052-.105-1.8104-.218-2.7156-.339h.1056c-.8448-.113-1.6896-.241-2.5345-.37h-.0377c-.8222-.128-1.652-.264-2.4742-.407h-.0528l-.4752-.091c0 .227-.0453.453-.0754.672a.498.498 0 000 .105h.3847c.875.159 1.75.302 2.6325.438h.0453c1.8255.281 3.656.533 5.4915.754 4.3147.475 8.6521.755 12.9894.83 4.3374.075 8.7502 0 13.1101-.324h.3093c1.2069-.086 2.4063-.184 3.5981-.295h.2188c3.6811-.369 7.3471-.882 10.9754-1.569 1.2145-.226 2.4289-.482 3.6434-.754a1.173 1.173 0 010-.234v-.558h-.0905M65.3251 118.866l-.4828.113h-.1735c-.7543.174-1.5086.332-2.2629.491l-.6412.128-.7015.136c-2.097.399-4.2091.754-6.3212 1.026h.098a140.0844 140.0844 0 01-14.219 1.161c-4.8276.156-9.6578.081-14.4905-.226a136.42 136.42 0 01-9.2556-.92c-1.75-.242-3.4849-.513-5.2199-.823a.4236.4236 0 00-.3017.046.4056.4056 0 00-.181.234.3997.3997 0 00.0445.293.405.405 0 00.2346.182c4.5622.814 9.1653 1.381 13.789 1.697 4.8126.347 9.6402.445 14.4604.324 3.681-.095 7.3546-.329 11.0206-.701 3.5152-.362 7.0152-.86 10.4851-1.509h.1056l.6638-.128h.1509l.3092-.06.1811-.038c.7543-.151 1.5086-.309 2.2629-.483l.3621-.083.264-.06a.3942.3942 0 00.1935-.169.3943.3943 0 00.0472-.253.3957.3957 0 00-.1193-.228.396.396 0 00-.2345-.105h-.0981M65.2653 125.157l-.6714.151c-3.3491.755-6.7361 1.358-10.1381 1.811h.0981c-4.6447.613-9.3174.993-14.0002 1.139a148.67 148.67 0 01-14.8828-.249 128.706 128.706 0 01-8.9689-.898 112.6876 112.6876 0 01-5.846-.935v.792c4.3807.794 8.7993 1.363 13.2384 1.704 4.9408.385 9.9042.513 14.8601.408a145.22 145.22 0 0013.2836-.898c4.1919-.475 8.3545-1.18 12.469-2.112l.3319-.075.347-.083.7543-.189c0-.266-.0151-.53-.0453-.792l-.9127.219" fill="#2C2C2C"/><path d="M36.8419 1.2745h-.2489a22.7195 22.7195 0 00-4.7673.528 24.5773 24.5773 0 00-4.9484 1.6445 21.53 21.53 0 00-4.4354 2.6853A16.9338 16.9338 0 0018.972 9.821a13.6229 13.6229 0 00-2.0517 4.6089 15.6448 15.6448 0 00-.3093 2.6401c0 .4752-.0604.9505-.1056 1.4182h-.0981a7.5448 7.5448 0 00-1.5086.1508 5.974 5.974 0 00-1.6369.611 6.5182 6.5182 0 00-2.3837 2.3309 11.2631 11.2631 0 00-1.3125 3.4095 20.6011 20.6011 0 00-.4375 3.9527 30.9796 30.9796 0 00.181 3.6811 28.289 28.289 0 00.5507 3.3869 23.32 23.32 0 00.9127 3.1153 15.5088 15.5088 0 002.8212 5.0464 7.132 7.132 0 00-.7543 1.0636 7.8018 7.8018 0 00-.7544 1.818 6.1556 6.1556 0 00.166 3.8772 5.5 5.5 0 00.3621.7543c.1424.2455.3065.4778.4903.694a6.0807 6.0807 0 001.6897 1.3955 6.6002 6.6002 0 002.2629.7996 6.7049 6.7049 0 001.041.0754 7.9644 7.9644 0 001.1767-.0905c0 .3545 0 .7166.0453 1.0711.07 1.0232.2547 2.0353.5507 3.0173.1417.4519.3157.893.5204 1.3201.2157.4291.4654.8403.7468 1.2295a13.2462 13.2462 0 003.6962 3.4548 19.0172 19.0172 0 004.7447 2.1423c.5808.181 1.1843.347 1.7953.4827a12.7298 12.7298 0 01-.083 2.1121 13.2646 13.2646 0 01-.8448 3.0928h-.1283a1.9522 1.9522 0 01-.2942 0 .437.437 0 00-.1961-.0453.3323.3323 0 00-.2037.0679 2.462 2.462 0 00-.5808.6185 2.5827 2.5827 0 00-.3319.8223 1.8242 1.8242 0 00-.0452.3545 1.9165 1.9165 0 000 .4375 3.9691 3.9691 0 00-1.0636.2112 6.596 6.596 0 00-1.5087.7091 4.528 4.528 0 00-1.1843 1.0485 2.8748 2.8748 0 00-.347.5884 1.886 1.886 0 00-.1282.5581.3248.3248 0 00-.0905.1585l-1.3955.4375-1.6746.5204-1.2824.3923a47.5813 47.5813 0 00-5.6272 2.0819 20.1327 20.1327 0 00-9.0217 8.1014 27.7754 27.7754 0 00-2.5496 5.6726 39.2294 39.2294 0 00-1.4407 6.1171c-.3546 2.173-.5431 4.345-.7543 6.789-.2113 2.444-.3546 5.047-.4526 7.544-.1962 4.872-.1886 9.693 0 14.332h.8297c-.2037-4.368-.2037-8.879-.0528-13.488.083-2.263.2112-4.654.3847-7.075.0905-1.2.1886-2.384.3017-3.576.1132-1.191.2037-2.104.332-3.077a37.8208 37.8208 0 012.4741-9.633 24.4244 24.4244 0 013.0173-5.2274 19.7106 19.7106 0 013.4472-3.4624 19.4177 19.4177 0 012.263-1.5086 22.5858 22.5858 0 012.5647-1.2597c1.7802-.7544 3.6057-1.3201 5.6348-1.9462.9957-.3017 1.9914-.611 2.9796-.9278l.792-.264 1.222.3017c1.1918.2716 2.4516.5054 3.7716.694h.083c1.6897.2414 3.4397.4149 5.2199.5129a76.6385 76.6385 0 002.6024.0905h.8675a63.809 63.809 0 004.1639-.1357c1.1314-.0679 2.2629-.1735 3.2813-.3018h.1659a49.8724 49.8724 0 002.1272-.3017l1.6218-.2942 1.305-.2791.1885-.0453.4149.1358.4149.1358c.9882.3168 1.9839.6261 3.0173.9278 2.0291.6261 3.8546 1.1994 5.6348 1.9462.883.3654 1.7422.7861 2.5722 1.2597a18.715 18.715 0 015.7329 4.971 24.7687 24.7687 0 013.0173 5.2274 37.8314 37.8314 0 012.4666 9.6331c.1282.973.2263 1.946.3319 3.092.1056 1.147.2112 2.376.3017 3.576.1735 2.421.3018 4.805.3847 7.075.1585 4.526.1358 8.962-.0452 13.163h.7543c.2112-4.526.2188-9.24 0-14.075a187.9948 187.9948 0 00-.4526-7.544c-.2037-2.542-.3847-4.578-.7543-6.788a40.1016 40.1016 0 00-1.4483-6.118 27.7757 27.7757 0 00-2.5496-5.6725 21.0461 21.0461 0 00-3.9904-4.8579 21.3306 21.3306 0 00-5.1143-3.3039 48.1398 48.1398 0 00-5.6348-2.0819l-1.2823-.3923-1.6746-.5205c-.4149-.1282-.8298-.2564-1.2447-.3998a.1275.1275 0 000-.0754 1.2038 1.2038 0 000-.2489 5.0734 5.0734 0 00-.6185-1.2069 6.2752 6.2752 0 00-1.041-1.1315 5.9664 5.9664 0 00-2.4214-1.2522 2.511 2.511 0 00-.1357-.6411 4.6774 4.6774 0 00-.8901-1.4257.3998.3998 0 00-.2791-.1132H46.2483a12.7569 12.7569 0 01-.6562-2.6401 11.3082 11.3082 0 01-.0679-2.3686 30.4872 30.4872 0 005.0313-1.3578 17.2437 17.2437 0 004.7221-2.7004 9.7454 9.7454 0 00.8825-.8223 6.254 6.254 0 00.8901-1.2068 8.4628 8.4628 0 00.5733-1.2598c.1734-.4926.312-.9967.4149-1.5086a18.0438 18.0438 0 00.3093-1.9914c.0679-.5658.1207-1.1391.1659-1.7124a.1812.1812 0 00.083.0453 8.6529 8.6529 0 001.3653.1207 6.855 6.855 0 001.0485-.083 6.4788 6.4788 0 002.263-.792 6.2115 6.2115 0 001.6897-1.403 6.9452 6.9452 0 00.4903-.6865 6.7474 6.7474 0 00.3621-.7543 6.186 6.186 0 00.1584-3.8697 7.801 7.801 0 00-.7544-1.8179 7.462 7.462 0 00-1.1314-1.5087 6.704 6.704 0 00-.5432-.4827 15.9234 15.9234 0 001.3578-2.874 29.443 29.443 0 00.9278-2.9192 31.2552 31.2552 0 00.9731-6.1628 29.7572 29.7572 0 00-.3017-6.2458 24.4034 24.4034 0 00-1.6143-5.8536 21.2845 21.2845 0 00-.8146-1.6821c.3547-.6112.677-1.2407.9655-1.8858a14.8742 14.8742 0 001.5086-6.0346 7.8715 7.8715 0 00-.1508-1.667 2.6031 2.6031 0 00-1.222-1.7275 3.5831 3.5831 0 00-1.0787-.4073 6.6154 6.6154 0 00-1.5086-.1433c-.3546 0-.7544 0-1.0712.0453-.709.0528-1.4332.1508-2.1347.2489l-.5356.0754c-.4677.0604-.958.1207-1.4483.1433H56.3638c-.43 0-.8901-.0603-1.388-.1282a37.6482 37.6482 0 01-7.9505-2.3308c-1.3352-.498-2.7156-1.0109-4.0885-1.4333a21.6405 21.6405 0 00-6.1326-1.041l.0377.0076zm-14.1963 31.327c.3017-2.2026.6939-4.4505 1.2069-6.8568a61.583 61.583 0 0013.5778 2.8514c1.1616.098 2.3308.1509 3.4699.1509 1.139 0 2.4364-.0604 3.6207-.1735a31.5826 31.5826 0 006.8795-1.4257 32.6788 32.6788 0 003.153-1.1843c.4979 2.3987.8826 4.6014 1.1692 6.7436.264 2.0216.4526 4.0055.5507 5.8988.0528 1.0184.0829 2.0518.098 3.1682 0 .6638 0 1.3276.0528 1.9914v.9429a49.0272 49.0272 0 01-.1206 8.2976 15.6065 15.6065 0 01-.9731 3.7716 9.706 9.706 0 01-1.1315 1.9763 6.1744 6.1744 0 01-.8524.8675 5.5525 5.5525 0 01-1.1315.6638 6.0853 6.0853 0 01-1.4558.3922 8.1406 8.1406 0 01-.9128.0528 9.467 9.467 0 01-1.1993-.0754 12.9179 12.9179 0 01-3.0173-.8524 14.5153 14.5153 0 01-2.9268-1.7047 12.9554 12.9554 0 01-1.1692-1.0486.4751.4751 0 00-.2489-.1131.2939.2939 0 00-.1433-.0754 10.2755 10.2755 0 00-2.3837-.3169 6.6977 6.6977 0 00-1.7651.2339.423.423 0 00-.1283.0679.3765.3765 0 00-.1885.098c-.4074.3998-.7544.7544-1.1466 1.0335l-.0603.0452a14.265 14.265 0 01-2.8665 1.6595 12.8243 12.8243 0 01-2.9494.8524h-.098c-.347 0-.7544.0528-1.1391.0528a8.1728 8.1728 0 01-.8524-.0452 6.4812 6.4812 0 01-1.5086-.3923 5.548 5.548 0 01-1.1239-.6713 5.8464 5.8464 0 01-.777-.8223 10.1666 10.1666 0 01-1.1315-1.9763 15.7125 15.7125 0 01-.9655-3.7716 49.6981 49.6981 0 01-.166-8.3956l.0378-.8675c0-.6638.0452-1.3276.0603-1.9914 0-1.1089.0377-2.1498.0981-3.1606.098-1.8934.2791-3.8697.5431-5.8913h.0151zm-7.5433 11.164a4.9715 4.9715 0 01.9279-.5582c.2788-.1122.57-.1907.8674-.2338a2.1287 2.1287 0 01.3093 0 2.723 2.723 0 01.3545 0c.2246.0403.4446.1034.6563.1885a4.265 4.265 0 01.611.3546c.254.21.4888.4422.7015.694 0 .4903-.0528.9806-.0754 1.5086v.2188a3.4604 3.4604 0 00-.4074-.4074 4.2974 4.2974 0 00-1.2823-.7015 3.2287 3.2287 0 00-.9882-.1509 3.0256 3.0256 0 00-.4526 0 3.29 3.29 0 00-1.5086.6261.4072.4072 0 00-.181.2339.3997.3997 0 00.0377.3092.4292.4292 0 00.3545.2037.3095.3095 0 00.1886-.0603 3.4409 3.4409 0 01.6412-.3697 2.6165 2.6165 0 01.5883-.1584 2.1287 2.1287 0 01.3093 0h.3545c.2364.0459.4686.1115.694.1962.232.1116.4541.2428.6638.3922.2263.1823.4336.387.6186.611.0949.1286.183.262.264.3998a.3515.3515 0 00.0679.0905v2.2856c0 .6487-.0151 1.2974-.0453 1.9462 0 .792-.0528 1.5765-.0453 2.361l-.264.0377h-.0829a7.5466 7.5466 0 01-.7544.0453 6.6955 6.6955 0 01-.7543-.0453 6.5634 6.5634 0 01-1.5086-.3998 6.4216 6.4216 0 01-1.3126-.7543 5.9302 5.9302 0 01-1.056-.9127 5.0174 5.0174 0 01-.5884-1.0033 4.9145 4.9145 0 01-.3319-1.2672 6.1448 6.1448 0 010-1.4408 7.5413 7.5413 0 01.4602-1.6444 7.9044 7.9044 0 01.9051-1.5539 7.074 7.074 0 011.0636-1.041zm44.1732-.1584a4.0106 4.0106 0 01.6261-.3696 3.3179 3.3179 0 01.6487-.181h.6713c.2864.0451.5672.121.8373.2262.3346.1525.6509.3423.9429.5658l-.0603-.0679c.3921.323.7509.6843 1.0711 1.0787a7.9508 7.9508 0 01.9278 1.5841 7.1699 7.1699 0 01.4602 1.6444 5.8298 5.8298 0 010 1.4483 5.153 5.153 0 01-.3319 1.2597 5.8786 5.8786 0 01-.5658.9806 6.5606 6.5606 0 01-.9504.9354 6.7864 6.7864 0 01-1.3201.7543 7.3007 7.3007 0 01-1.5086.3998h-.7543a7.3838 7.3838 0 01-.8223-.0453h-.4148a.3648.3648 0 00-.1358 0c.1207-1.5086.181-3.138.2037-5.1445v-1.5689c.0754-.1283.1584-.249.2489-.3772a4.2516 4.2516 0 01.611-.611 4.338 4.338 0 01.6713-.3847 3.6566 3.6566 0 01.6865-.2037h.6638c.2035.0323.4032.0854.5959.1584a3.644 3.644 0 01.6336.3696.309.309 0 00.1886.0604.4144.4144 0 00.3545-.2037.4374.4374 0 00.0453-.3093.4224.4224 0 00-.1886-.2338 3.3413 3.3413 0 00-1.5086-.6261 2.8755 2.8755 0 00-.4451 0 3.0196 3.0196 0 00-.9881.1584 3.8397 3.8397 0 00-1.2824.7015 3.3171 3.3171 0 00-.2942.2641v-1.7802a5.1578 5.1578 0 01.4677-.4375l.0151-.0453zM38.3807 67.9868c.5432 0 1.0863 0 1.6294-.0377a33.3587 33.3587 0 004.6919-.5582 11.8348 11.8348 0 00.1131 2.5119c.1295.8346.3366 1.6554.6186 2.4515h-.2791l-1.6822.1811h-.3093c-.5883.0528-1.1013.0981-1.6142.1282-1.3578.0905-2.7307.1282-4.1035.1282h-1.5615c-.7015 0-1.3879-.0452-2.0668-.0829h-.1961l-1.3126-.0905H31.969l-.694-.0604c.0604-.1358.1207-.2791.1735-.43a13.2636 13.2636 0 00.6261-2.4666 12.0672 12.0672 0 00.1282-2.263c.8298.166 1.6973.3018 2.6477.3998a31.446 31.446 0 003.5302.1886zm-.9353 5.665c1.3502 0 2.6929 0 3.9828-.1207.6261-.0377 1.2145-.0905 1.8104-.1433h.347l1.5086-.166h.4752l1.2371-.181h.1735l.1283.0905c.1937.2494.3583.5202.4903.8071.0634.1631.1089.3325.1357.5054a1.901 1.901 0 010 .2942 1.9943 1.9943 0 01-.0754.2866 1.6514 1.6514 0 01-.1282.2188 1.3965 1.3965 0 01-.2112.2112 2.861 2.861 0 01-.4225.2338 4.6199 4.6199 0 01-.7543.2037.3476.3476 0 00-.2414.1811.4222.4222 0 00-.0452.3017.4073.4073 0 00.1886.2414.3398.3398 0 00.1885.0528h.1207a3.1677 3.1677 0 001.4332-.5431 1.992 1.992 0 00.6714-.8902c.2182.062.4324.1376.6412.2264a5.725 5.725 0 011.139.6713c.3526.2812.6761.5971.9655.9429.2085.2708.3856.5643.528.875l.0529.1056h-.3621l-.1358.0377-1.1843.2565c-.5129.0981-.9957.1886-1.5086.264-.513.0755-1.0485.1735-1.5615.2414l-.2715.0377h-.2641a55.1446 55.1446 0 01-3.319.3168c-1.4256.0981-2.8739.1509-4.3147.1509h-.9504c-.8223 0-1.6068-.0453-2.3988-.083-1.6369-.0905-3.1908-.2338-4.6768-.4299l-.3017-.0453h-.1584c-1.305-.1886-2.5798-.4224-3.7716-.694-.43-.098-.8524-.1961-1.2748-.3092l.0452-.1509a1.9083 1.9083 0 01.2263-.4451 3.679 3.679 0 01.5582-.5883 6.0385 6.0385 0 011.0711-.6714l.0755-.0528a7.2108 7.2108 0 011.1466-.3621 3.2674 3.2674 0 01.4676-.0377h.1283c.1538.2073.3427.386.5582.528.2064.1409.4327.2502.6713.3244a4.768 4.768 0 001.5087.2037.4155.4155 0 00.3243-.1207.4227.4227 0 00.1132-.3017.4153.4153 0 00-.4225-.3772h-.4601a4.5845 4.5845 0 01-.875-.1584 3.0119 3.0119 0 01-.4677-.2339 2.211 2.211 0 01-.2338-.2263 3.0323 3.0323 0 01-.166-.2564c0-.0981-.0679-.2037-.098-.3093a2.2502 2.2502 0 010-.3243 2.5453 2.5453 0 01.098-.4149 2.171 2.171 0 01.1811-.347 1.9692 1.9692 0 01.2036-.2339l.5733.0679h.083c.4752.0604.9504.1056 1.4181.1434h.0905l1.5087.1056h.347c.5657 0 1.139.0528 1.7047.0679h1.7652" fill="#2C2C2C"/><path d="M41.451 51.0223a6.7022 6.7022 0 00-1.1013.0829 7.879 7.879 0 00-1.569.43.378.378 0 00-.1056.0603 7.795 7.795 0 00-1.569-.445 7.644 7.644 0 00-1.1012-.083h-.4375a7.9148 7.9148 0 00-3.0174.8222 11.3152 11.3152 0 00-2.5647 1.7199 15.704 15.704 0 00-2.1649 2.3686.4372.4372 0 00-.0905.2942.4311.4311 0 00.0785.1966.4319.4319 0 00.1629.1353 3.0174 3.0174 0 001.5086.3771 5.1516 5.1516 0 00.9354-.0905 11.3833 11.3833 0 002.9494-.9731c.7543-.3621 1.5086-.7543 2.3233-1.2295.6186-.347 1.1618-.6865 1.6672-1.0334a12.5504 12.5504 0 001.4104-1.1466c.4133.4041.8599.7725 1.3352 1.1013.1358.0981.2791.1886.4224.2791-.0377.083-.0678.1735-.1055.2489a2.6581 2.6581 0 01-.2264.3395 2.8515 2.8515 0 01-.43.3771 2.8832 2.8832 0 01-.4601.2263 2.6395 2.6395 0 01-.5205.1056 2.1137 2.1137 0 01-.4148 0 1.5091 1.5091 0 01-.3244-.1131l-.2263-.1509a2.3858 2.3858 0 01-.2263-.2565 2.2612 2.2612 0 01-.1735-.3319.3848.3848 0 00-.3621-.2263.3634.3634 0 00-.181.0453.4146.4146 0 00-.181.5431c.1001.2469.2431.4742.4224.6714.1692.1874.3744.3387.6034.445.3009.145.6316.2173.9656.2112.1456.0115.2919.0115.4375 0a2.9745 2.9745 0 00.709-.2187 3.2556 3.2556 0 00.6261-.3923 2.7906 2.7906 0 00.5054-.5506 2.0291 2.0291 0 00.264-.4903c.166.1131.3546.2263.5431.3319.8072.4601 1.5087.8674 2.3234 1.2295.924.4647 1.9057.8046 2.9193 1.0108.3091.0525.6218.0802.9353.083a2.9357 2.9357 0 001.5086-.3696.415.415 0 00.2414-.3319.4597.4597 0 00-.083-.2942 15.3792 15.3792 0 00-2.1724-2.3686 11.3134 11.3134 0 00-2.5572-1.7274 7.928 7.928 0 00-3.0173-.8147h-.43" fill="#2C2C2C"/><path d="M240.853 92.4424a.3978.3978 0 00-.11.2753c0 .1024.039.201.11.2753.106.1153.222.2213.347.3168.179.1155.372.2092.573.2791.227.0677.459.1131.694.1358.204 0 .415 0 .626.0528a.399.399 0 00.249-.0453.3632.3632 0 00.115-.098.3647.3647 0 00.066-.1358.3683.3683 0 00.012-.1548.383.383 0 00-.049-.1469.381.381 0 00-.098-.115.3806.3806 0 00-.136-.0661c-.264-.0452-.528-.0528-.8-.0829a3.027 3.027 0 01-.581-.1509l-.211-.1207a2.0841 2.0841 0 01-.226-.2187.3622.3622 0 00-.272-.1207.4136.4136 0 00-.286.1207" fill="#419A6F"/><path d="M268.409 101.441a.3746.3746 0 00-.132.063.3622.3622 0 00-.095.111.4234.4234 0 00-.045.302c.317 1.89.604 3.784.86 5.68v-.098a174.1984 174.1984 0 011.569 22.418h.754c-.051-9.452-.868-18.884-2.444-28.204a.3695.3695 0 00-.062-.135.3753.3753 0 00-.111-.099.3728.3728 0 00-.196-.06.3066.3066 0 00-.113 0M242.935 41.8123c-.188.5808-.415 1.139-.649 1.6972-.233.5582-.512 1.2296-.754 1.8557a12.0407 12.0407 0 00-.55 1.8405c-.058.2835-.093.571-.106.8599-.019.2749-.004.5511.045.8223.067.4505.276.868.596 1.1918.312.2971.697.5055 1.116.6034.224.0555.451.0958.679.1207.237.0151.473.0151.709 0a12.0707 12.0707 0 001.509-.1131.4802.4802 0 00.279-.1131.4168.4168 0 00.106-.2792.4287.4287 0 00-.106-.2791.3752.3752 0 00-.279-.1056 9.4463 9.4463 0 01-2.353.0604h.105a3.338 3.338 0 01-.716-.1886 1.7765 1.7765 0 01-.332-.1886 1.6526 1.6526 0 01-.234-.2263 2.018 2.018 0 01-.159-.2715 2.5347 2.5347 0 01-.135-.4677 4.7158 4.7158 0 010-.9354 13.184 13.184 0 01.875-2.8664c.384-.9429.814-1.8707 1.124-2.8438a.4031.4031 0 00-.042-.2981.3987.3987 0 00-.237-.1846h-.099a.3983.3983 0 00-.235.0814.3986.3986 0 00-.142.2052l-.015.0226zm-1.229 5.8083zm.762 2.1574h.052-.052zM253.367 48.2164c-1.033 0-1.87-1.1692-1.87-2.6024 0-1.4332.837-2.6024 1.87-2.6024 1.034 0 1.879 1.1616 1.879 2.6024 0 1.4408-.845 2.6024-1.879 2.6024zM253.013 35.4759a6.781 6.781 0 01.875.0528c.326.0566.649.1322.966.2263a6.37 6.37 0 012.942 1.8481c.061.081.105.1735.13.272.024.0985.029.201.013.3013a.759.759 0 01-.094.2929.752.752 0 01-.203.2311.7532.7532 0 01-.586.1398.799.799 0 01-.52-.3093l-.053-.0528a5.0053 5.0053 0 00-.98-.7543 5.9725 5.9725 0 00-1.283-.5281 5.6873 5.6873 0 00-1.124-.1659 5.113 5.113 0 00-.958.1056l-.234.0755a.8079.8079 0 01-.598-.0194.8102.8102 0 01-.42-.4257.7556.7556 0 01-.001-.607.7543.7543 0 01.446-.4113 5.2053 5.2053 0 011.66-.2716h.022zm1.23 1.7198h.09-.09zm2.15 1.1843l.075.083-.075-.083zM246.994 52.584v.1509a.1146.1146 0 010 .0452v.1207c0 .0981 0 .1961-.038.2942a5.5946 5.5946 0 01-.294 1.0938 4.9001 4.9001 0 01-.528.875 4.4687 4.4687 0 01-.649.6562c-.217.1589-.45.2954-.694.4074a3.643 3.643 0 01-.694.1886 3.4845 3.4845 0 01-.792 0 3.643 3.643 0 01-.694-.1886 3.9993 3.9993 0 01-.694-.4074 4.0588 4.0588 0 01-.626-.626 4.6662 4.6662 0 01-.528-.8977 5.434 5.434 0 01-.317-1.1541v-.1207a.3986.3986 0 00-.113-.2791.4216.4216 0 00-.279-.1131.3855.3855 0 00-.272.1131.4059.4059 0 00-.088.1274.3778.3778 0 00-.032.1517c.042.3757.117.7468.226 1.1089.065.2202.148.4346.249.6411.232.5061.557.9641.958 1.3503a3.6444 3.6444 0 002.362 1.0932 3.6427 3.6427 0 002.488-.7613 4.5272 4.5272 0 001.147-1.2975c.225-.3877.397-.8037.513-1.2371a5.712 5.712 0 00.173-1.0636.3428.3428 0 010-.0905v-.1659a.39.39 0 00-.141-.2054.3916.3916 0 00-.472 0 .39.39 0 00-.141.2054l-.03-.0151zm-.317 1.75zm-5.431.8298v.0377-.0377zm1.388 1.1088h.037-.037zM218.095 101.238a.4187.4187 0 00-.181.226 176.275 176.275 0 00-2.436 28.453h.754c.031-7.582.558-15.154 1.577-22.667v.105c.256-1.901.54-3.794.852-5.68.015-.05.019-.103.012-.155a.378.378 0 00-.05-.147.38.38 0 00-.233-.181h-.106a.3773.3773 0 00-.196.061" fill="#2C2C2C"/><path d="M231.213 77.7105a.4158.4158 0 00-.287.1131l-.219.1961-.09.0528-.377.1207-.151.0453c-.159.0452-.309.0905-.468.1508a2.647 2.647 0 00-.415.1961.8375.8375 0 00-.286.249 1.021 1.021 0 00-.098.4677c.014.2018.049.4015.105.5959.068.2414.136.4827.219.7166.083.2338.226.5733.354.8599l.121.264c.159.3847.279.7091.392 1.0335l.114.362.218.6337.113.3168c.076.1885.144.3771.212.5733.068.1961.196.5581.301.8372.117.3139.25.6211.4.9203l.302.6563.106.2338c.158.3244.316.6412.497.9505l.264.4903c.091.1584.174.3243.272.4828.181.3017.362.6109.566.9051.203.2942.317.4451.482.6714l.068.0905.121.1584c.181.2489.362.4979.558.7543l.43.4904.257.2941c.234.2716.482.5281.754.7544.272.2262.407.3545.619.528l.181.1508c.294.2414.565.4602.86.6563l.475.3093.415.264.241.1659c.226.1509.445.3018.686.4376.327.182.67.3311 1.026.445l.204.0679.596.181c.295.088.595.161.898.2188l.49.1056c.166.0301.332.0528.498.0679h.12c.295.0377.589.0603.883.083h.256a6.7547 6.7547 0 001.509-.2037 8.3033 8.3033 0 001.252-.3621l.656-.2414c.138-.0442.272-.0997.4-.1659l.46-.2641.589-.3092c.216-.1121.422-.2407.618-.3847l.257-.1735c.166-.1056.332-.2112.49-.3319.302-.2188.588-.4526.875-.694a12.6552 12.6552 0 001.509-1.5086 6.079 6.079 0 00.633-.8675l.068-.1056c.166-.2791.34-.5582.528-.8222l.076-.0981c.203-.2603.387-.5351.55-.8222l.506-.9278a9.093 9.093 0 01.566-.958c.193-.2875.372-.5846.535-.8901.317-.6172.599-1.2519.845-1.9009l.158-.4375.159-.4375c.083-.2263.151-.4602.226-.7015v-.1056l.053-.1811c.075-.2565.151-.5054.211-.7543l.158-.5808.046-.1886.098-.3545.098-.347c.045-.1886.09-.3772.128-.5658v-.2414c.036-.1615.061-.3253.076-.4903a1.1519 1.1519 0 00-.053-.3545.8937.8937 0 00-.362-.4601 1.3242 1.3242 0 00-.506-.1962l-.294-.0603h-.143a1.5066 1.5066 0 00-.257-.0453h-.151a1.0076 1.0076 0 01-.203-.0528l-.136-.0603h-.136a.4063.4063 0 00-.203.0528.5834.5834 0 00-.181.181 1.461 1.461 0 00-.091.1886c-.073.2011-.128.408-.166.6186v.2489c-.045.2036-.09.4073-.143.611-.053.2036-.166.5506-.264.8147-.098.264-.151.4827-.212.7543v.1131a6.0427 6.0427 0 01-.173.6337c-.06.1659-.128.3243-.189.4752l-.105.264-.113.2715-.113.2791v.0528a18.17 18.17 0 01-1.117 2.2027l-.317.5506c-.105.1886-.203.3696-.317.5507a10.122 10.122 0 01-.641.9655c-.226.2867-.475.5658-.716.8298-.242.264-.264.3168-.393.4827-.128.166-.218.2641-.324.3923-.105.1282-.37.3922-.566.5884l-.249.2489-.105.1056-.272.2715c-.113.1056-.234.2037-.347.2942l-.49.3621c-.166.1056-.332.2112-.498.3017a9.9202 9.9202 0 01-.377.1962l-.257.1282-.362.1735a4.1172 4.1172 0 01-.565.181c-.258.0782-.51.174-.755.2867h-.128a4.429 4.429 0 01-.664.1357l-.437.0755-.257.0452c-.401.0378-.804.0554-1.207.0529h-1.207a1.295 1.295 0 01-.226-.068l-.392-.2112c-.113-.0679-.226-.1357-.347-.1961l-.211-.1056a5.1586 5.1586 0 01-.536-.2791l-.415-.2489c-.173-.1056-.347-.2263-.52-.347l-.106-.083-1.109-.7543a3.9348 3.9348 0 01-.354-.3545l-.189-.1962-.151-.1508a5.0606 5.0606 0 01-.392-.4074c-.098-.1433-.181-.2941-.271-.445-.091-.1509-.159-.2565-.227-.3545l-.083-.1207c-.135-.1962-.264-.3998-.399-.611-.136-.2112-.34-.5281-.521-.7543l-.211-.2942c-.128-.1735-.264-.347-.377-.5281l-.212-.3394a12.2366 12.2366 0 01-.331-.5356c-.106-.181-.189-.3092-.272-.4677l-.272-.4677-.06-.098a8.2652 8.2652 0 01-.437-.8071c-.038-.0981-.083-.2414-.136-.3847l-.098-.2791a18.4485 18.4485 0 00-.317-.8222c-.113-.2716-.143-.3395-.219-.513l-.158-.3394a25.8906 25.8906 0 00-.302-.694l-.038-.083c-.158-.3771-.332-.8222-.482-1.2974a6.2783 6.2783 0 01-.159-.5507v-.1282a2.6686 2.6686 0 00-.068-.264.6901.6901 0 00-.068-.1282c.05-.0377.098-.078.144-.1207l.068-.0604a.38.38 0 00.085-.1238.3735.3735 0 00.028-.1477.4279.4279 0 00-.027-.1585.4232.4232 0 00-.086-.1357.3896.3896 0 00-.128-.0851.3888.3888 0 00-.152-.0281M221.859 111.934c-.054 0-.108.012-.157.034a.4009.4009 0 00-.13.094.3854.3854 0 00-.113.272v8.207c-.003.048-.003.095 0 .143.005.103.034.203.085.292.051.089.123.165.209.221.137.111.283.209.438.294.126.073.246.153.362.242.196.158.392.316.581.482.188.166.392.317.588.468l.121.091.075.052c.157.126.323.24.498.34.106.06.219.105.324.158l.204.098.091.053c.023.069.059.133.105.189.047.054.097.104.151.151l.068.06.188.173c.129.121.264.234.4.34l.136.105c.241.189.483.385.754.566.378.287.755.581 1.109.898l.204.158.075.068.068.053c.073.069.151.132.234.189.11.09.239.155.377.188h.136c.045.008.091.008.136 0l.143-.038c.149-.053.29-.124.422-.211.247-.169.482-.356.702-.558l.332-.279c.271-.196.566-.37.852-.536l.498-.294.234-.166.091-.06.347-.234.256-.158c.145-.084.286-.174.422-.272l.098-.06c.34-.242.702-.491 1.026-.755l.31-.264.301-.271.362-.294.295-.219.286-.219c.105-.078.213-.151.325-.219.087-.051.17-.109.249-.173a.79.79 0 00.226-.438c.064-.35.097-.706.098-1.063v-1.079V117.607v-.589-.415-1.094-1.335V113.284v-.339-.453a.4303.4303 0 00-.049-.239.4493.4493 0 00-.17-.176.9827.9827 0 00-.317-.068l-.596-.045h-.912c-.355 0-.709 0-1.064.038H231.303c-.362 0-.754-.045-1.086-.091a7.0453 7.0453 0 00-.883-.052h-.181c-.219 0-.43 0-.649.052H223.609c-.309 0-.619 0-.92.046H222.274a.515.515 0 00-.174-.185.5066.5066 0 00-.241-.079" fill="#A3C0B6"/><path d="M236.373 109.105h-.966c-.422 0-.845 0-1.275.038H224.613l-1.562-.113h-1.41c-.105.012-.206.04-.302.083a.322.322 0 00-.098 0 .429.429 0 00-.294.107.432.432 0 00-.144.278 8.097 8.097 0 000 1.41v.083c-.011.116-.011.232 0 .347.009.057.03.111.061.159s.072.089.12.12c.088.059.189.093.295.098.141.031.285.048.43.053h.143c.234 0 .475 0 .709-.053l.385-.045h14.279c.101 0 .201-.021.294-.06.1-.049.182-.127.236-.224a.5477.5477 0 00.066-.319c.004-.066.004-.131 0-.197v-.233-.996a.7576.7576 0 00-.053-.234.5789.5789 0 00-.166-.189.6697.6697 0 00-.279-.113 1.697 1.697 0 00-.324-.06h-.641" fill="#F4DBD8"/><path d="M233.514 48.6085c1.033 0 1.871-1.1692 1.871-2.6024 0-1.4332-.838-2.6024-1.871-2.6024-1.034 0-1.871 1.1616-1.871 2.6024 0 1.4407.837 2.6024 1.871 2.6024zM233.31 35.8757c-.29-.0012-.58.0164-.868.0528a8.1498 8.1498 0 00-.965.2263 6.3278 6.3278 0 00-2.942 1.8481.7475.7475 0 00-.134.2712.7509.7509 0 00-.017.3021.759.759 0 00.094.2929.7548.7548 0 00.789.3709.832.832 0 00.528-.3093l.045-.0528a5.218 5.218 0 01.981-.7543c.406-.224.836-.4012 1.282-.5281.371-.0926.75-.1482 1.131-.1659.322.0049.643.0403.958.1056l.234.0754c.194.076.411.0719.602-.0116a.7926.7926 0 00.417-.4334.7858.7858 0 00-.446-1.0184 5.1991 5.1991 0 00-1.659-.2715h-.03zm-1.23 1.7198h-.083.083zm-2.142 1.1843l-.083.083.083-.083zM220.962 116.362c0 .822-.046 1.652-.061 2.474 0 .415 0 .837-.037 1.252v.89c-.002.052.007.104.026.152.02.048.049.092.087.128l.196.143.309.241.453.347 1.026.755 1.863 1.433 3.998 3.07c.06.035.129.053.2.053.07 0 .139-.018.199-.053l4.579-3.176 2.142-1.508 1.094-.755c.108-.069.211-.145.309-.226a.4309.4309 0 00.121-.279v-.687c.071-2.972.143-5.946.219-8.923h-.445l-.34-.038-.226 9.474-7.656 5.281-7.385-5.62.226-9.173h-.543l-.241-.037-.113 4.812" fill="#2C2C2C"/><path d="M220.721 108.668h-.091a.4007.4007 0 00-.275.117.4007.4007 0 00-.117.275v2.882c.002.102.044.2.117.272.074.072.172.112.275.112h17.395c.103 0 .201-.04.275-.112.073-.072.115-.17.117-.272v-2.882a.4007.4007 0 00-.117-.275.4007.4007 0 00-.275-.117h-17.304zm16.912 2.881h-16.596v-2.074h16.596v2.074z" fill="#2C2C2C"/><path d="M247.439 0c-.956-.0012-1.909.077-2.852.2339a12.1183 12.1183 0 00-2.911.8599 8.02 8.02 0 00-2.316 1.5086 6.6622 6.6622 0 00-.845 1.0033c-.135.1948-.256.399-.362.611a3.5352 3.5352 0 00-.475-.5356 5.5182 5.5182 0 00-1.019-.7543 7.2496 7.2496 0 00-2.331-.8147 10.5529 10.5529 0 00-1.863-.1584 15.163 15.163 0 00-3.175.3696 15.3421 15.3421 0 00-5.002 2.1197 13.5262 13.5262 0 00-3.952 3.8395 9.778 9.778 0 00-1.335 3.0173 9.0669 9.0669 0 00-.234 1.6142 8.3598 8.3598 0 00.053 1.5087h-.363l-.535.0754a3.4287 3.4287 0 00-.483.1132 8.9808 8.9808 0 00-2.738 1.3653 11.012 11.012 0 00-2.768 2.9418 11.3821 11.3821 0 00-1.562 3.6736 8.9155 8.9155 0 00-.083 3.8093 6.813 6.813 0 00.551 1.6067c.252.5155.571.995.95 1.4257a7.3177 7.3177 0 002.98 1.9839 10.0314 10.0314 0 00-1.616 3.6579 10.0256 10.0256 0 00-.059 3.9984 9.0065 9.0065 0 001.573 3.6836 9.0065 9.0065 0 003.014 2.6377 7.8053 7.8053 0 00-.642 1.6067 6.1563 6.1563 0 00.166 3.8772c.102.2603.223.5124.362.7543.147.2427.311.4746.491.694a6.0775 6.0775 0 001.689 1.3955 6.5985 6.5985 0 002.263.7996c.345.0518.693.077 1.041.0754a8.0315 8.0315 0 001.177-.0905c0 .3545 0 .7166.045 1.0711.069 1.0228.251 2.0349.543 3.0173.148.4508.325.8917.528 1.3201.217.44.469.8614.755 1.2597a13.562 13.562 0 003.696 3.4548 19.092 19.092 0 004.752 2.1423c.581.181 1.184.3394 1.795.4827.032.7051.004 1.4117-.083 2.1121a12.6384 12.6384 0 01-.829 3.0173 11.702 11.702 0 01-1.426 2.4818 10.0015 10.0015 0 01-1.592 1.6067 8.2732 8.2732 0 01-1.652.973c-.331.1358-.678.249-1.018.3621l-.204.0679-1.553.5054-1.683.5129-1.289.4074a46.1449 46.1449 0 00-5.628 2.0744 21.2577 21.2577 0 00-5.114 3.3039 20.7823 20.7823 0 00-3.998 4.8654 27.4294 27.4294 0 00-2.55 5.6725 39.2492 39.2492 0 00-1.44 6.1178c-.347 2.172-.543 4.337-.755 6.789-.211 2.451-.354 5.046-.452 7.543-.196 4.88-.189 9.693 0 14.332h.792c-.189-4.292-.211-8.803-.053-13.412.083-2.263.211-4.654.385-7.083.09-1.192.188-2.384.301-3.568.114-1.184.204-2.112.332-3.078a37.7836 37.7836 0 012.475-9.6322 24.39 24.39 0 013.017-5.2275 19.4504 19.4504 0 013.447-3.4623 20.11 20.11 0 012.263-1.5087 25.4649 25.4649 0 012.565-1.2597c1.78-.7543 3.605-1.3201 5.635-1.9461l.316-.0906 1.63-.5054a40.4707 40.4707 0 001.863 5.8687l.038.0754a30.844 30.844 0 002.798 5.3934 19.2246 19.2246 0 004.33 4.7673c.457.3486.936.6685 1.433.958.484.2875.988.5396 1.509.7543 1.012.4027 2.081.642 3.168.7091h.543a10.1687 10.1687 0 002.859-.4375 11.5038 11.5038 0 003.093-1.5086 17.2142 17.2142 0 004.164-4.0809 31.2483 31.2483 0 004.405-8.6974l.053-.1735.052-.1508v-.083c.174-.5431.34-1.0711.483-1.5992l.045-.1433v-.2112c0-.0754 0-.1282.046-.181l.045-.1735.045-.1811.061-.2187.045-.1962 1.071.3395c2.029.6261 3.855 1.1994 5.635 1.9461.88.3654 1.737.7862 2.564 1.2598a19.363 19.363 0 012.263 1.5086 19.688 19.688 0 013.448 3.4623 24.4369 24.4369 0 013.017 5.2275 37.8225 37.8225 0 012.474 9.6324c.128.973.226 1.946.332 3.093.106 1.147.211 2.376.302 3.568.173 2.429.301 4.813.384 7.083.151 4.526.136 8.961-.052 13.163h.792c.211-4.526.218-9.24 0-14.076-.098-2.474-.249-5.001-.453-7.543-.204-2.542-.392-4.579-.754-6.789a39.2605 39.2605 0 00-1.441-6.1174 27.76 27.76 0 00-2.55-5.6724 20.1275 20.1275 0 00-9.112-8.1618 47.5462 47.5462 0 00-5.627-2.082l-1.282-.3922-1.675-.5205-1.561-.4978-.204-.0679c-.34-.1207-.687-.2339-1.018-.3696a8.208 8.208 0 01-1.652-.9656 10.0608 10.0608 0 01-1.592-1.6142 11.6385 11.6385 0 01-1.426-2.4742 13.0503 13.0503 0 01-.829-3.0173c-.099-.7856-.12-1.579-.061-2.3686a30.6163 30.6163 0 005.054-1.5086 17.4031 17.4031 0 004.73-2.7005c.309-.2575.604-.532.882-.8222.344-.3636.641-.7691.883-1.2069a7.771 7.771 0 00.581-1.2598c.173-.4925.312-.9967.415-1.5086.136-.6582.239-1.3228.309-1.9914.068-.5657.121-1.139.166-1.7123.024.0251.056.041.09.0452a7.826 7.826 0 001.358.1207 6.882 6.882 0 001.056-.0829 6.4435 6.4435 0 002.263-.7921 6.0954 6.0954 0 001.69-1.403c.179-.2168.343-.4462.49-.6865.139-.242.26-.4942.362-.7543a6.0843 6.0843 0 00.159-3.8697 7.1819 7.1819 0 00-.755-1.8179 7.0458 7.0458 0 002.965-2.0216 11.646 11.646 0 001.35-1.7425 13.51 13.51 0 001.064-1.9913c.505-1.1919 1.976-5.2803-.566-7.6715a4.1394 4.1394 0 00-.483-.3998c.091-.032.177-.0751.257-.1282a4.851 4.851 0 00.754-.5733 4.708 4.708 0 00.988-1.4182 7.5373 7.5373 0 00.603-3.7112 10.592 10.592 0 00-.995-3.8697 7.1107 7.1107 0 00-2.301-2.8362 4.5092 4.5092 0 00-.905-.4828 4.431 4.431 0 00-.415-.1358 7.4022 7.4022 0 00.754-1.6143 6.3331 6.3331 0 00.295-2.0819 7.1982 7.1982 0 00-1.275-3.8395 10.7359 10.7359 0 00-3.108-3.0173 12.3831 12.3831 0 00-4.119-1.7424 10.1534 10.1534 0 00-2.225-.249c-.271 0-.543 0-.815.0377a7.886 7.886 0 00-2.504.6261 5.345 5.345 0 00-.407-1.124 6.5037 6.5037 0 00-.913-1.335 7.4373 7.4373 0 00-1.245-1.1617c-.478-.3571-.982-.6774-1.508-.958A15.3158 15.3158 0 00251.617.528a19.264 19.264 0 00-4.005-.5204h-.385L247.439 0zm.958 30.354a8.8324 8.8324 0 002.775-.4375 6.89 6.89 0 003.229-2.2253c.313-.3937.581-.8213.8-1.2748.092-.1883.173-.3823.241-.5808.162.272.355.525.573.7543a6.8868 6.8868 0 001.796 1.4483 5.5992 5.5992 0 002.036.7015h.468c.334.001.667-.0447.988-.1358a8.9893 8.9893 0 00-.339 3.568c.039.3379.099.673.181 1.0032.099.3635.225.719.377 1.0636a6.234 6.234 0 001.011 1.5766 7.539 7.539 0 00-1.434 3.8923c-.015.3632.005.727.061 1.0862.061.3787.175.7469.339 1.0938a3.547 3.547 0 001.448 1.5086v4.3072c0 1.7877-.045 3.3567-.113 4.7824-.045.8222-.105 1.6369-.173 2.4591-.061.6185-.121 1.2295-.204 1.8481a12.5073 12.5073 0 01-.792 3.0852 6.978 6.978 0 01-.754 1.3125 8.9313 8.9313 0 01-1.509 1.4634 17.1787 17.1787 0 01-3.719 2.1045 32.1914 32.1914 0 01-7.98 2.1121c-1.439.1877-2.887.281-4.338.2791a34.0137 34.0137 0 01-4.382-.2866 25.0567 25.0567 0 01-6.088-1.5916 17.0516 17.0516 0 01-3.598-2.0367l-.06-.0453a13.0842 13.0842 0 01-2.218-2.2101c-.196-.2565-.385-.513-.558-.7544a7.6584 7.6584 0 01-.573-1.0937v-.0679a10.6989 10.6989 0 01-.687-2.7156 30.1414 30.1414 0 01-.113-4.7597v-.2942c0-.6714.045-1.3352.053-1.999 0-1.0032 0-2.0065.06-3.0173.06-1.0108.083-1.8104.136-2.7155.216-.1373.422-.2885.618-.4526.282-.2533.535-.5366.755-.8449a4.7805 4.7805 0 00.845-2.0894c.061-.4018.086-.8083.075-1.2145a3.8903 3.8903 0 00-.181-1.0033c-.075-.2489-.166-.4903-.256-.7543l-.121-.347a5.082 5.082 0 01-.264-.9127 1.86 1.86 0 010-.2112.8914.8914 0 01.136-.2339c.196-.2489.414-.4827.633-.7166.268-.2617.519-.5388.755-.8297.092-.1376.17-.2842.233-.4375.096-.2011.179-.4076.249-.6186a7.053 7.053 0 00.332-1.3351 7.5367 7.5367 0 00-.241-3.4473l.196.1509a8.472 8.472 0 001.788.9127 9.472 9.472 0 003.251.5658c.279 0 .566 0 .852-.0378a7.6776 7.6776 0 003.772-1.3276 5.695 5.695 0 001.365-1.3879 5.157 5.157 0 00.498-.8901c.107.1345.205.2756.294.4224.222.3254.474.6285.755.9052.482.513 1.024.9663 1.614 1.3502a9.6374 9.6374 0 003.907 1.4333c.417.0598.838.0901 1.26.0905l-.06.0528zM221.09 43.1247c.27-.1074.55-.1834.837-.2264.103-.0076.207-.0076.31 0 .118-.0075.236-.0075.354 0 .224.0434.444.1065.656.1886.218.103.425.2268.619.3697.251.2021.484.4268.694.6713 0 .5205-.06 1.0032-.083 1.5086v.2112a3.3117 3.3117 0 00-.4-.3997 4.205 4.205 0 00-1.282-.7016 3.2337 3.2337 0 00-.988-.1508 3.0044 3.0044 0 00-.453 0 3.3713 3.3713 0 00-1.509.6261.4095.4095 0 00-.181.2338.4037.4037 0 00-.012.1585.3858.3858 0 00.05.1508.4306.4306 0 00.362.2036.3312.3312 0 00.189-.0603c.196-.1474.409-.2715.633-.3696.19-.0756.387-.1288.589-.1584.103-.0074.206-.0074.309 0h.355c.236.0458.468.1114.694.1961.232.1099.455.2412.663.3922.227.1823.434.387.619.611.095.1286.183.262.264.3998a.238.238 0 00.068.083v2.2931c0 .6488 0 1.2975-.045 1.9462 0 .7921-.053 1.5766-.053 2.361l-.257.0378h-.075c-.204 0-.483.0377-.754.0377a6.634 6.634 0 01-.755-.0453 6.967 6.967 0 01-1.508-.3998 5.5762 5.5762 0 01-2.263-1.6746 5.565 5.565 0 01-.581-1.0032 5.303 5.303 0 01-.325-1.1994 6.3444 6.3444 0 010-1.5086 7.2835 7.2835 0 01.461-1.6445 7.748 7.748 0 01.905-1.5539c.324-.4075.694-.777 1.101-1.1013l-.083.0528a6.897 6.897 0 01.913-.5431h.053l-.091.0076zm43.306.4073a3.587 3.587 0 01.633-.3772c.209-.0844.427-.1451.649-.181.118-.0078.237-.0078.355 0h.309c.293.0409.579.1195.852.2338.331.1522.645.3394.936.5582l-.061-.0679c.392.3212.748.6828 1.064 1.0787a7.601 7.601 0 01.928 1.5841c.219.5279.376 1.0799.467 1.6444.053.4814.053.967 0 1.4483a5.14 5.14 0 01-.339 1.2597 5.3836 5.3836 0 01-.566.9807 6.1281 6.1281 0 01-.943.9353 7.247 7.247 0 01-1.32.7543 6.9555 6.9555 0 01-1.508.3998h-.755a7.6093 7.6093 0 01-.822-.0452H263.86a.2572.2572 0 00-.136 0c.114-1.5087.174-3.1531.196-5.1521V47.017l.257-.3772c.184-.2221.389-.4266.611-.611.212-.148.437-.2767.671-.3847.222-.0902.452-.1585.687-.2037h.671c.201.0332.398.0863.588.1584.224.0999.437.2238.634.3696a.3106.3106 0 00.189.0604.4154.4154 0 00.204-.0551.411.411 0 00.15-.1486.433.433 0 00.045-.3093.4227.4227 0 00-.188-.2338 3.3047 3.3047 0 00-1.509-.6261 2.8742 2.8742 0 00-.445 0c-.336-.0025-.67.051-.988.1584a3.973 3.973 0 00-1.282.7015 2.529 2.529 0 00-.302.2716v-1.7123c.146-.1579.303-.3066.468-.4451h.037l-.022-.098zm-21.053 24.4551c.543 0 1.086 0 1.629-.0377a33.3672 33.3672 0 004.692-.5582c-.052.8389-.014 1.6811.113 2.5119.25 1.682.837 3.2959 1.727 4.7447.423.7071.93 1.3606 1.509 1.9461a8.8165 8.8165 0 001.924 1.4634c.294.1542.596.2927.905.4149a.2684.2684 0 00-.098.1584l-.046.1735v.347a1.5806 1.5806 0 00-.045.1659l-.045.166a.5354.5354 0 000 .1132v.1659c-.113.3772-.219.7543-.34 1.1164l-.037.1131v.0755l-.098.3093v.0754c-.174.5205-.362 1.0259-.566 1.5086l-.174.43V83.4734a23.0563 23.0563 0 01-2.979 4.8804 14.1395 14.1395 0 01-2.429 2.4893 9.7566 9.7566 0 01-2.173 1.2899 8.5175 8.5175 0 01-1.931.528c-.3.0331-.602.0507-.905.0528a8.6326 8.6326 0 01-.882-.0528h-.091a9.2747 9.2747 0 01-1.908-.5506h-.083a11.8684 11.8684 0 01-2.037-1.2371 15.0786 15.0786 0 01-2.406-2.444l-.053-.0679a23.3331 23.3331 0 01-2.836-4.9785v-.0755a35.0831 35.0831 0 01-1.728-5.5216 8.4024 8.4024 0 001.863-1.4106 10.4304 10.4304 0 001.509-1.9462 12.525 12.525 0 001.101-2.2629c.296-.8004.505-1.6297.627-2.4742.112-.7488.157-1.5061.135-2.263.823.166 1.69.3018 2.64.4074 1.173.1226 2.352.183 3.531.181l-.015-.0302zm-12.296 17.2438l-.158-.3771a42.74 42.74 0 01-1.894-5.9592l.279-.0829.189-.0604c.573-.181 1.154-.3772 1.712-.611.376 1.6659.88 3.3002 1.509 4.888a24.2595 24.2595 0 002.882 5.3859 13.1785 13.1785 0 004.797 4.2468c.474.2242.966.4084 1.471.5507.493.14.998.231 1.509.2715h.603a8.1475 8.1475 0 002.565-.4375 9.7336 9.7336 0 002.927-1.6142 14.2766 14.2766 0 002.519-2.5647 23.1287 23.1287 0 003.138-5.6273c.219-.5431.4-1.0485.573-1.5539l.068-.181.038-.1433.045-.1207c.158-.4979.287-.9203.407-1.3503V79.6414l.061-.2263v-.2036l.06-.2565.038-.1358a.407.407 0 000-.1207c.256.0981.52.181.792.2716l.181.0603c.377.1207.754.2489 1.146.3621l-.082.3319v.4526c0 .0905-.038.1282-.046.1735l-.113.4149a55.0292 55.0292 0 01-.483 1.5765l-.045.1358-.106.3243c-.279.8147-.588 1.6445-.935 2.4742a29.3532 29.3532 0 01-3.319 5.9139l-.181.2338a17.8943 17.8943 0 01-3.078 3.138 13.0096 13.0096 0 01-2.602 1.5087h-.038c-.78.2954-1.589.5078-2.414.6336a9.799 9.799 0 01-1.154.0679 10.943 10.943 0 01-1.109-.0604h-.098a11.1132 11.1132 0 01-2.398-.6789 12.6429 12.6429 0 01-2.58-1.5086h-.038a19.1465 19.1465 0 01-3.077-3.1606 28.4213 28.4213 0 01-3.561-6.2458v.1131z" fill="#2C2C2C"/></g><defs><clipPath id="clip0"><path fill="#fff" d="M0 0h282v130H0z"/></clipPath></defs></svg>