<svg width="67" height="34" viewBox="0 0 67 34" fill="none" xmlns="http://www.w3.org/2000/svg">
<g clip-path="url(#clip0)">
<path d="M53.2302 18.7439C54.6848 20.7866 56.1249 22.8089 57.6116 24.8924C56.4922 24.8924 55.4428 24.8924 54.3904 24.8924C54.1805 24.8924 54.1368 24.7027 54.0493 24.5773C52.8571 22.8935 51.6648 21.2097 50.49 19.5172C50.3297 19.2866 50.1723 19.1933 49.8924 19.1991C48.9421 19.2166 47.9917 19.2224 47.0414 19.1962C46.6974 19.1874 46.6421 19.3041 46.645 19.6135C46.6595 21.2535 46.645 22.8964 46.6595 24.5364C46.6625 24.8282 46.5838 24.907 46.2952 24.8983C45.5926 24.8778 44.8901 24.8749 44.1875 24.8983C43.896 24.907 43.8231 24.8253 43.8261 24.5364C43.8377 22.234 43.8319 19.9286 43.8319 17.6262C43.8319 14.7722 43.8377 11.9154 43.8231 9.06141C43.8202 8.7229 43.9252 8.66454 44.2342 8.66746C46.5633 8.67913 48.8925 8.67621 51.2188 8.6733C52.4169 8.67038 53.5625 8.87757 54.644 9.42326C56.4368 10.3279 57.2151 12.1868 57.1073 14.1011C56.9732 16.4473 55.6905 17.8859 53.5304 18.6271C53.4313 18.6592 53.3468 18.6972 53.2302 18.7439ZM46.645 13.9377C46.645 14.7372 46.6566 15.5368 46.6391 16.3393C46.6333 16.6194 46.7004 16.7187 47.0006 16.7157C48.3241 16.6982 49.6475 16.7187 50.971 16.7011C51.6502 16.6924 52.3119 16.564 52.9124 16.2197C53.8861 15.6623 54.303 14.7927 54.2301 13.7013C54.1543 12.572 53.5479 11.8162 52.4839 11.4368C52.0408 11.2792 51.5773 11.1946 51.108 11.1917C49.7292 11.1771 48.3503 11.1946 46.9744 11.18C46.6829 11.1771 46.6391 11.288 46.6421 11.5418C46.6537 12.3385 46.645 13.1381 46.645 13.9377Z" fill="#D9CBCB"/>
<path d="M29.7718 16.8296C31.0427 15.4814 32.2234 14.2295 33.404 12.9806C34.6925 11.6178 35.9839 10.2608 37.2665 8.89514C37.4181 8.73172 37.5697 8.66168 37.8 8.6646C38.829 8.67919 39.858 8.67044 40.96 8.67044C40.0971 9.56631 39.2809 10.4155 38.4617 11.2618C37.1587 12.61 35.8614 13.9611 34.5438 15.2947C34.3106 15.531 34.2989 15.6711 34.5001 15.9337C36.7272 18.8402 38.9398 21.7525 41.1582 24.6649C41.199 24.7174 41.2311 24.7758 41.3127 24.8954C40.6626 24.8954 40.0679 24.8983 39.4703 24.8954C38.9485 24.8925 38.348 25.0355 37.9253 24.8254C37.5056 24.6153 37.2578 24.0491 36.9429 23.6348C35.4766 21.7058 34.0074 19.7799 32.5586 17.8422C32.3545 17.5708 32.2583 17.5971 32.0485 17.8189C31.3692 18.5426 30.6725 19.2488 29.9729 19.952C29.8126 20.1125 29.763 20.2789 29.763 20.4977C29.7718 21.8342 29.7572 23.1737 29.7747 24.5102C29.7776 24.8049 29.7251 24.9187 29.3986 24.9071C28.6961 24.8779 27.9935 24.875 27.291 24.9012C26.9791 24.9129 26.9383 24.802 26.9383 24.5306C26.947 21.2331 26.9441 17.9385 26.9441 14.641C26.9441 12.7792 26.9499 10.9174 26.9383 9.05563C26.9354 8.76965 26.9733 8.64709 27.3085 8.66168C28.011 8.69378 28.7136 8.68503 29.4161 8.66168C29.7076 8.65293 29.7776 8.73464 29.7747 9.02353C29.763 11.466 29.7688 13.9056 29.7688 16.3481C29.7718 16.4678 29.7718 16.5845 29.7718 16.8296Z" fill="#D9CBCB"/>
<path d="M66.643 16.7595C66.643 19.3509 66.6371 21.9422 66.6488 24.5335C66.6488 24.8195 66.5905 24.9158 66.2932 24.9041C65.6052 24.8808 64.9143 24.8749 64.2293 24.907C63.8853 24.9216 63.8299 24.8049 63.8299 24.4926C63.8386 20.273 63.8328 16.0563 63.8445 11.8366C63.8445 11.4718 63.8066 11.3609 63.4072 11.4893C62.2995 11.8453 61.1772 12.1518 60.0636 12.4844C59.8391 12.5515 59.705 12.5457 59.6409 12.2626C59.5214 11.7286 59.3669 11.2004 59.2036 10.6781C59.1453 10.4942 59.1716 10.4125 59.3552 10.3542C61.0635 9.80847 62.7601 9.22484 64.48 8.72876C65.1213 8.54199 65.8209 8.6879 66.4972 8.68206C66.7654 8.67915 66.643 8.90676 66.643 9.02349C66.6517 10.9524 66.6488 12.8842 66.6488 14.8131C66.6459 15.4639 66.6459 16.1117 66.643 16.7595Z" fill="#D9CBCB"/>
<path d="M18.1095 8.52728C18.1387 8.60607 18.0891 8.65276 18.0366 8.69362C14.9145 8.68778 11.7954 8.68194 8.67329 8.67903C7.87747 8.67903 7.07873 8.6907 6.2829 8.69654C6.23043 8.69362 6.17796 8.68778 6.12549 8.68486C6.1284 8.64401 6.1284 8.60024 6.13132 8.55938C6.81637 7.86194 7.31485 7.02151 7.89787 6.24528C9.24757 4.44478 10.6002 2.64719 11.9032 0.814591C12.1569 0.455657 12.393 0.40313 12.7603 0.40313C16.3983 0.411885 20.0364 0.406049 23.6715 0.414803C23.759 0.414803 24.033 0.254304 23.9251 0.586974C23.8435 0.487757 23.7327 0.493593 23.622 0.493593C19.9023 0.493593 16.1826 0.493593 12.4629 0.496511C12.3726 0.496511 12.2531 0.452739 12.2035 0.560711C12.151 0.671601 12.2705 0.727046 12.3259 0.8C13.0168 1.73381 13.7164 2.6647 14.4015 3.60143C15.5734 5.2035 16.7365 6.81432 17.8996 8.42223C17.9521 8.49226 18.0191 8.5302 18.1095 8.52728Z" fill="#EADBDB"/>
<path d="M12.101 16.7682C12.3021 16.704 12.3138 16.9024 12.3808 16.99C14.2698 19.5375 16.153 22.088 18.0274 24.6443C18.0799 24.7143 18.2606 24.7814 18.1148 24.9244C17.9458 24.9303 17.7767 25.0587 17.6105 24.9215C13.9725 24.9215 10.3373 24.9215 6.69926 24.9186C6.53893 24.9157 6.38152 24.9157 6.22119 24.9127C6.76923 24.0052 7.44845 23.194 8.06937 22.3419C9.39574 20.518 10.7367 18.7058 12.0689 16.8878C12.0718 16.8586 12.0718 16.8324 12.0747 16.8032C12.0893 16.7974 12.0981 16.7857 12.101 16.7682Z" fill="#C2B7B7"/>
<path d="M18.1146 24.9941C18.5168 25.3589 18.785 25.8287 19.1057 26.2577C20.2747 27.8189 21.4261 29.3918 22.5834 30.9618C23.0907 31.6505 23.5921 32.345 24.0964 33.0337C23.9885 33.1766 23.8544 33.13 23.7407 33.13C20.0385 33.1329 16.3363 33.13 12.6342 33.127C12.4855 33.127 12.3281 33.1679 12.1969 33.0599C12.3718 32.8119 12.5409 32.5638 12.7187 32.3187C14.5202 29.8791 16.3189 27.4366 18.1146 24.9941Z" fill="#EADBDB"/>
<path d="M18.1089 8.52721C18.0185 8.53012 17.9514 8.49219 17.899 8.41923C16.7329 6.81133 15.5698 5.20342 14.4008 3.59844C13.7158 2.65879 13.0162 1.73082 12.3253 0.797005C12.2728 0.724052 12.1533 0.668607 12.2028 0.557717C12.2524 0.449745 12.3748 0.493517 12.4623 0.493517C16.182 0.490599 19.9017 0.490599 23.6213 0.490599C23.7321 0.490599 23.8429 0.484763 23.9245 0.58398C22.4903 2.53331 21.056 4.48556 19.6247 6.4378C19.1146 7.13233 18.6132 7.82977 18.1089 8.52721Z" fill="#D9CBCB"/>
<path d="M18.1153 24.9945C16.3167 27.437 14.518 29.8795 12.7223 32.322C12.5445 32.5643 12.3754 32.8152 12.2005 33.0633C11.3289 31.896 10.4573 30.7316 9.58861 29.5615C8.45755 28.0382 7.32649 26.512 6.19543 24.9887C6.20126 24.9624 6.21 24.9362 6.22166 24.9128C6.38199 24.9158 6.53941 24.9158 6.69974 24.9187C7.12826 25.1025 7.57136 25.0062 8.01445 25.0062C11.0578 24.9916 14.0983 25.0004 17.1416 24.9975C17.2991 24.9975 17.474 25.0587 17.6139 24.9216C17.783 25.0587 17.952 24.9274 18.1182 24.9245C18.1036 24.9479 18.1065 24.9712 18.1153 24.9945Z" fill="#C5BABA"/>
<path d="M6.28027 8.69634C7.07609 8.6905 7.87483 8.67883 8.67066 8.67883C11.7928 8.68175 14.9119 8.68759 18.034 8.69342C16.1625 11.2381 14.291 13.7827 12.4195 16.3273C12.3117 16.4732 12.2067 16.625 12.0989 16.7738C12.0901 16.7534 12.0784 16.7359 12.0639 16.7213C11.612 15.9129 10.994 15.2272 10.4547 14.4831C9.29449 12.8868 8.10221 11.311 6.942 9.71186C6.7117 9.38795 6.4027 9.10197 6.28027 8.69634Z" fill="#C5BABA"/>
<path d="M6.22228 24.9156C6.21062 24.9389 6.20187 24.9652 6.19604 24.9914C6.16689 24.9914 6.14065 24.9944 6.1115 24.9944C6.11442 24.9681 6.11442 24.9418 6.11442 24.9156C6.1115 24.8339 6.11733 24.7551 6.0532 24.685C5.43811 24.008 4.96587 23.223 4.41491 22.4964C3.5841 21.4021 2.7912 20.2786 1.9808 19.1697C1.4036 18.3789 0.820585 17.5939 0.240479 16.806C0.351253 16.7943 0.462027 16.7797 0.572801 16.7681L0.581546 16.8031C0.712726 16.9577 0.890547 16.8906 1.04505 16.8906C4.721 16.8935 8.39695 16.8935 12.07 16.8935C10.7349 18.7116 9.39391 20.5237 8.07045 22.3476C7.44954 23.1968 6.7674 24.008 6.22228 24.9156Z" fill="#D9CBCB"/>
<path d="M0.23565 16.8032C0.815757 17.5911 1.39877 18.3761 1.97597 19.1669C2.78637 20.2758 3.57928 21.3993 4.41008 22.4936C4.96104 23.2202 5.43328 24.0052 6.04837 24.6822C6.1125 24.7523 6.10667 24.8311 6.10959 24.9128C4.07776 24.9157 2.04593 24.9186 0.0141018 24.9215C0.0111867 22.336 0.00827163 19.7476 0.00244141 17.1621C0.00244141 16.9579 0.124876 16.7653 0.0694889 16.5522L0.0928097 16.5493C0.116131 16.5552 0.142367 16.5581 0.165688 16.561C0.151112 16.6515 0.154027 16.739 0.23565 16.8032Z" fill="#EADBDB"/>
<path d="M0.0178146 24.9216C2.04965 24.9187 4.08148 24.9158 6.11331 24.9128C6.11331 24.9391 6.11331 24.9654 6.11039 24.9916C4.19225 27.5859 2.27411 30.1772 0.353052 32.7685C0.28309 32.8619 0.236448 33.0253 0.0906923 32.9757C-0.0259121 32.9378 0.00323902 32.7889 0.00323902 32.681C0.00615413 30.0984 0.0119843 27.51 0.0178146 24.9216Z" fill="#C2B7B7"/>
<path d="M6.12835 8.55946C6.12544 8.60031 6.12543 8.64408 6.12252 8.68494C6.10211 8.69369 6.07879 8.69953 6.05547 8.69953C6.00883 8.67618 5.96219 8.63241 5.91555 8.63533C4.08194 8.71412 2.24834 8.64992 0.414736 8.67035C0.277726 8.67326 0.140716 8.68202 0.0124512 8.6149C0.0124512 5.9477 0.0124512 3.28343 0.0124512 0.616229C0.0503476 0.607475 0.0853289 0.59872 0.123226 0.589966C0.455548 1.03936 0.78787 1.48584 1.12019 1.93524C2.68852 4.05966 4.25977 6.18116 5.82809 8.30558C5.9068 8.41355 5.96219 8.5507 6.12835 8.55946Z" fill="#C5BABA"/>
<path d="M0.015104 8.61206C0.143369 8.67918 0.280379 8.67042 0.417389 8.66751C2.25099 8.64708 4.0846 8.71128 5.9182 8.63249C5.96484 8.62957 6.01148 8.67626 6.05813 8.69669C6.00565 8.75505 5.95318 8.8105 5.90071 8.86886C5.79868 8.74046 5.65293 8.76964 5.51883 8.76964C3.83973 8.76964 2.16063 8.7784 0.481522 8.76089C0.134624 8.75797 0.0675759 8.88637 0.0734061 9.19277C0.0879817 9.96317 0.0763213 10.7365 0.0792364 11.5069C0.0850666 13.1877 0.0938119 14.8686 0.0996421 16.5495L0.0763213 16.5524C-0.00821688 16.4794 0.00344351 16.3802 0.00635862 16.2839C0.00635862 13.7276 0.00927371 11.1713 0.015104 8.61206Z" fill="#C5BABA"/>
<path d="M12.1017 16.7744C12.1017 16.7744 12.0988 16.7685 12.1017 16.7685C12.0988 16.786 12.0901 16.7977 12.0755 16.8065C8.48994 16.8035 4.90144 16.8006 1.31586 16.7948C1.12346 16.7948 0.933975 16.7773 0.741577 16.7656C0.898993 16.6897 1.06516 16.7247 1.2284 16.7247C4.84022 16.7218 8.45495 16.7218 12.0667 16.7218C12.0813 16.7364 12.093 16.7539 12.1017 16.7744Z" fill="#C2B7B7"/>
<path d="M12.0692 16.7219C8.45734 16.7219 4.84261 16.7219 1.23079 16.7248C1.06754 16.7248 0.901382 16.6898 0.743966 16.7657C0.688579 16.7773 0.636107 16.789 0.58072 16.7978L0.571975 16.7628C0.475776 16.6752 0.248398 16.789 0.245483 16.5556C0.688579 15.9573 1.13167 15.3591 1.57185 14.7609C3.01483 12.797 4.45781 10.8331 5.9037 8.86914C5.95618 8.81077 6.00865 8.75533 6.06112 8.69696C6.08444 8.69696 6.10485 8.69113 6.12817 8.68237C6.18064 8.68529 6.23311 8.69113 6.28558 8.69405C6.4051 9.09967 6.71411 9.38273 6.95023 9.70956C8.11044 11.3087 9.29981 12.8845 10.463 14.4808C10.9994 15.2249 11.6174 15.9136 12.0692 16.7219Z" fill="#C2B7B7"/>
<path d="M0.577637 16.7975C0.633024 16.7858 0.685496 16.7741 0.740883 16.7654C0.93328 16.7741 1.12276 16.7946 1.31516 16.7946C4.90074 16.8004 8.48924 16.8033 12.0748 16.8062C12.0719 16.8354 12.0719 16.8617 12.069 16.8909C8.39304 16.8909 4.71709 16.8909 1.04405 16.888C0.886638 16.885 0.708817 16.9522 0.577637 16.7975Z" fill="#D9CBCB"/>
<path d="M17.6081 24.9247C17.4682 25.0618 17.2933 25.0005 17.1359 25.0005C14.0925 25.0035 11.052 24.9976 8.00869 25.0093C7.56559 25.0122 7.12249 25.1056 6.69397 24.9218C10.3349 24.9218 13.973 24.9218 17.6081 24.9247Z" fill="#C5BABA"/>
<path d="M0.244458 16.5583C0.247373 16.7918 0.471836 16.678 0.57095 16.7655C0.460176 16.7772 0.349402 16.7918 0.238628 16.8035C0.15409 16.7393 0.15409 16.6517 0.171581 16.5613L0.209477 16.5583H0.244458Z" fill="#C2B7B7"/>
<path d="M0.24519 16.5581H0.207294L0.169397 16.561C0.146076 16.5581 0.11984 16.5552 0.0965198 16.5494C0.0906896 14.8685 0.0819444 13.1876 0.0761142 11.5068C0.0731991 10.7364 0.0848595 9.96307 0.0702839 9.19268C0.0644537 8.88627 0.131501 8.75787 0.478399 8.76079C2.1575 8.7783 3.83661 8.76954 5.51571 8.76954C5.6498 8.76954 5.79556 8.74036 5.89759 8.86876C4.45461 10.8327 3.01163 12.7966 1.56865 14.7605C1.12847 15.3617 0.685371 15.9599 0.24519 16.5581Z" fill="#DAD1D1"/>
</g>
<defs>
<clipPath id="clip0">
<rect width="67" height="34" fill="white"/>
</clipPath>
</defs>
</svg>
