<svg width="330" height="255" fill="none" xmlns="http://www.w3.org/2000/svg"><g clip-path="url(#clip0)"><path d="M123.771 199.255a.6808.6808 0 00-.256.122.6978.6978 0 00-.185.216.8206.8206 0 00-.088.588c.618 3.687 1.177 7.379 1.677 11.075v-.191a339.2578 339.2578 0 013.061 43.712h1.471a342.521 342.521 0 00-4.767-54.993.7208.7208 0 00-.123-.263.7134.7134 0 00-.216-.193.7752.7752 0 00-.382-.118.5867.5867 0 00-.221 0" fill="#2C2C2C"/><path d="M90.1019 142.864a7.2772 7.2772 0 00-1.3312.145h-.2633l-.907.16-.9069.145-1.024.177-.5852.08h-1.2434c-1.2142.177-2.5893.37-3.9205.467-.7021 0-1.4628.096-2.1065.161h-.8923l-1.4629.112H66.7694c-1.0826 0-2.4869-.144-3.9644-.353l.2048.112-.4974-.145h-.4827l-.9216-.177-.8631-.16c-.3364 0-.6729-.097-.9947-.129h-.4389c-.377.023-.7439.143-1.0715.35-.3276.206-.6069.494-.8156.84a3.9283 3.9283 0 00-.3657.804 5.241 5.241 0 00-.234 1.142l-.1024.692v.322l-.2926.096c-.2487 0-.4828.129-.7168.193l-.3804.113c-.7826.193-1.5468.467-2.282.82-.6921.374-1.3405.838-1.931 1.383a7.653 7.653 0 00-.8484.885 2.8013 2.8013 0 00-.3511.482c-.1047.143-.1931.3-.2633.467a3.366 3.366 0 00-.1463.418.685.685 0 000 .225 2.6583 2.6583 0 000 .467 1.5107 1.5107 0 000 .257c-.0121.127-.0006.256.0337.378a.9856.9856 0 00.1658.333.8714.8714 0 00.2715.235c.104.058.2174.091.3335.099.1674 0 .3306-.057.4669-.164.1364-.106.2391-.257.2938-.431.1844.177.398.314.6291.402.3266.171.6639.316 1.0093.435 1.1411.369 2.3845.627 3.3792.836h.4828l1.1264.177 2.6039.305c1.024.097 1.9602.21 2.9257.338h.1609c1.1118.145 2.4722.338 3.8766.418h.8484l1.4629.081H81.237l1.0386-.081h1.2435l1.1703-.096.9801-.081 1.3019-.096 1.7554-.241h.3072c.6583-.081 1.2288-.161 1.7994-.209l1.4628-.209h.5413l1.2873-.226h.3511l2.2381-.37c.6291-.08 1.2581-.16 1.9018-.209H99.5812c.3292-.009.6508-.108.9358-.289.113-.076.21-.177.285-.296.076-.119.128-.254.154-.396.059-.248.059-.508 0-.756a4.739 4.739 0 00-.263-.643c-.302-.607-.6977-1.152-1.1703-1.608l-.4681-.451c-.3218-.338-.6583-.675-1.024-.997-.3657-.322-.8192-.627-1.2434-.933a7.1257 7.1257 0 00-.7461-.482 4.49 4.49 0 00-.6144-.322l-.3218-.145-.8046-.305h-.1463l-.5705-.226-.2048-.112v-.193a3.1767 3.1767 0 00-.1024-.354c-.0731-.241-.1755-.483-.2633-.708l-.0877-.161a6.741 6.741 0 00-.3073-.852l-.1462-.322a1.3768 1.3768 0 00-.1024-.209 2.0717 2.0717 0 00-.3365-.675c-.1918-.188-.423-.321-.6729-.386-.1609 0-.3365 0-.4974-.097H90.219M124.24 210.05a.6351.6351 0 00-.365.127.5009.5009 0 00-.292 0h-.19c-.453.127-.906.223-1.359.318h-.263l-.35.08-2.104.445-1.577.334c-.774.175-1.548.35-2.323.494l-4.046.747-1.46.287-2.571.445-1.724.318-1.577.287-1.212.223-1.972.35-1.1689.159h-1.2123c-.672 0-1.2854.159-1.9135.207l-1.3877.127h-.4966l-2.6438.207-2.4831.127-2.0596.095h-.4528c-1.373.08-2.746.144-4.1191.175H60.0436c-1.4607 0-2.9213-.127-4.6157-.318l-1.4607-.143-1.3584-.143c-1.9573-.175-3.8854-.366-5.8427-.637l-1.4606-.238-1.7966-.287.1898.096-.5112-.143-.4966-.08c-.7742-.111-1.4607-.207-2.118-.27h-1.3584l-1.1539-.08h-.9495l-1.3-.095h-1.1247l-.8325-.096h-.3944c-.5697-.079-1.154-.191-1.7236-.318l-1.9281-.398-1.1977-.286-.6573-.175-.9495-.239-.555-.095h-.2776a2.6096 2.6096 0 00-.7741.111.9855.9855 0 00-.3553.195c-.1053.09-.1931.203-.2582.33a.6118.6118 0 01-.073.175 3.0706 3.0706 0 00-.1899.462 5.4248 5.4248 0 00-.2045.843c-.0616.363-.1055.729-.1315 1.098V216.366c.014.228.014.457 0 .684v.525l-.3213.557c0 .414-.1169.796-.2045 1.193l-.1022.446c-.1297.619-.2907 1.23-.4821 1.83a.9155.9155 0 00-.0036.495c.0442.161.132.305.2519.411a.5308.5308 0 00-.1902.161.5763.5763 0 00-.1019.237.9345.9345 0 00-.0247.338.9127.9127 0 00.0971.322.8467.8467 0 00.2038.256c.0829.07.1777.121.2789.15.7348.25 1.4953.4 2.264.446h1.0225l.2483.095a.5442.5442 0 00.1544.181.504.504 0 00.2107.09h.7158l.7449.191.3068.079.5842.127.4674.08.745.127h.2629c.8764.143 1.7674.239 2.6438.318.4771 0 .964.048 1.4607.144.2086-.002.4082-.093.555-.255h.3214l1.037.111 1.1394.382 1.0516.143.9787.144c1.4607.206 2.9213.334 4.382.461l1.7528.143h.1899l2.4393.207c1.4607.111 2.8337.207 4.2651.286l1.227.08h.4528c.9056.08 1.8258.143 2.7461.175h11.2617c.7888 0 1.5775.08 2.3809.095h13.7741c1.4606 0 2.9213-.159 4.382-.27l2.4539-.207h.1607l1.855-.143c1.4607-.127 2.8045-.286 4.382-.509l1.1101-.159 1.0367-.143 1.023-.175.555-.096.526-.079 4.294-.748 1.724-.303.657-.127 1.709-.302c2.644-.461 5.273-.987 7.902-1.512.935-.175 1.87-.365 2.79-.572.38-.096.76-.175 1.154-.239h.292l1.096-.239.394-.095h.336c.067.014.137.014.204 0 .202-.061.374-.203.482-.398.105-.203.136-.441.088-.668a4.147 4.147 0 010-.446v-.397c-.021-.503-.08-1.003-.175-1.496v-.891l-.088-.62c-.102-.891-.175-1.814-.204-2.737v-.573a2.555 2.555 0 010-.35v-1.75c-.01-.328-.054-.653-.132-.97a2.6876 2.6876 0 00-.102-.334.8672.8672 0 00-.209-.27.788.788 0 00-.288-.16.5386.5386 0 00-.233 0M126.116 233.818h-.147c-.345.039-.685.115-1.015.227l-1.104.332-.809.287-1.045.347c-1.001.302-2.016.529-3.135.786l-.927.196c-1.133.257-2.354.438-3.384.589l-1.045.166c-.589.091-1.163.211-1.737.332h-.368a.6638.6638 0 00-.353.212l-.736.075-.765.106-.78.105-1.192.151-1.825.363-.588.09-.589.076-2.104.302-1.251.196-.545.076h-.456c-.7503.09-1.4714.166-2.2808.211-.8094.045-1.4716.136-2.2957.181l-2.0161.151-2.59.227-1.6923.09H86.5303c-1.5452.076-3.0609.151-4.6208.151H63.6617l-2.4723-.09c-.7505 0-1.4716-.091-2.2516-.121l-2.0308-.106h-.5297l-1.972-.12-1.6335-.167h-.5739l-1.295-.09h-8.2851c-.883 0-1.7512 0-2.6342-.121l-1.604-.136c-1.2362-.09-2.4723-.196-3.7084-.362l-1.7071-.272-1.2803-.211h-.1913l-1.4716-.257-.5298-.091h-.2354l-.78-.181-.6328-.121c-1.6482-.332-3.3111-.664-4.9887-.936a.5639.5639 0 00-.2207-.196.8036.8036 0 00-.3974-.121h-.2207c-.2029.057-.3767.193-.4856.377a1.005 1.005 0 00-.2208.408.8506.8506 0 000 .634.981.981 0 00.1766.227v.423c.0627.5.0922 1.005.0883 1.51v5.496c-.0574.357-.136.71-.2354 1.057l-.1178.332A2.8611 2.8611 0 0021 247.635c.0075.221.0972.43.2505.584a.8281.8281 0 00.5736.247.6921.6921 0 00.3826-.106l.6769.091h.3091l.6475.075c1.1626.196 2.2957.393 3.4582.619l.677.151c.986.212 1.9278.393 2.9432.529h.9271l-.1913-.091c.689.156 1.3869.267 2.0897.332H35.8484c1.4716.106 2.9432.257 4.4148.423l.8241.091 1.2656.136c.4709 0 .9418.09 1.4716.135H45.1784c.5494.061 1.0939.106 1.6335.136h.4856l1.6335.121h.8682l1.3097.121h2.0897c1.0595.091 2.1191.151 3.1934.211l1.2067.076c.7505 0 1.4716 0 2.2662.075.7947.076 1.3686 0 2.0456.091.6769.091 1.4716.106 2.1338.121.6622.015 1.3391 0 2.0014 0H91.7251c1.4716-.076 2.9432-.181 4.3118-.317h.8829l1.2509-.121c.6916-.076 1.3833-.151 2.0753-.257l2.472-.362 1.81-.287 2.31-.347 2.296-.363c.854-.121 1.737-.272 2.634-.423l.545-.09.662-.121 3.914-.664 1.825-.348c.412 0 .824-.181 1.222-.272l.912-.226c1.266-.272 2.531-.559 3.782-.906l1.251-.287h.235l.412-.075c.073.077.16.138.256.18.096.041.199.062.304.061a.81.81 0 00.49-.177c.14-.111.242-.266.29-.442a4.596 4.596 0 000-.498v-.257c.066-.221.111-.449.132-.679v-1.556-1.223a8.9018 8.9018 0 00-.118-.876l-.059-1.117v-.423l-.103-.664a1.5433 1.5433 0 00-.132-.604c-.018-.32-.058-.638-.118-.952v-.649c-.043-.376-.068-.754-.073-1.132v-.454a.9842.9842 0 00-.129-.459.9573.9573 0 00-.328-.341 1.0808 1.0808 0 00-.662-.196" fill="#47656A"/><path d="M25.6209 198.858a.8082.8082 0 00-.3532.441A345.3364 345.3364 0 0020.5 254.777h1.4715a339.0009 339.0009 0 013.0755-44.197v.206a376.6254 376.6254 0 011.6628-11.075.7489.7489 0 000-.588.737.737 0 00-.192-.224.7433.7433 0 00-.2641-.129h-.206a.7323.7323 0 00-.3826.117M74.0636 82.9885c-.3532 1.1325-.7946 2.2209-1.2508 3.3093-.4562 1.0884-1.0007 2.3974-1.4715 3.6182a23.4017 23.4017 0 00-1.0743 3.5887 13.105 13.105 0 00-.2207 1.6767 8.3087 8.3087 0 00.0883 1.6031 4.1912 4.1912 0 001.1772 2.3239 4.7088 4.7088 0 002.1779 1.1766c.4356.108.8781.187 1.3244.235.4606.03.9226.03 1.3832 0a23.111 23.111 0 002.8547-.22.8987.8987 0 00.5445-.221.7491.7491 0 00.2207-.5441.7795.7795 0 00-.2207-.5442.7366.7366 0 00-.5445-.2059c-1.5145.2305-3.052.27-4.5764.1177h.206a6.5198 6.5198 0 01-1.4715-.3677 4.1968 4.1968 0 01-.6622-.3677 3.131 3.131 0 01-.4415-.4412 3.8365 3.8365 0 01-.309-.5295 4.9652 4.9652 0 01-.2648-.9119 9.4183 9.4183 0 010-1.8238 24.9895 24.9895 0 011.7069-5.589c.7358-1.8385 1.5893-3.6476 2.1926-5.5449a.7795.7795 0 00-.5445-.9413h-.206a.8095.8095 0 00-.7357.5589l.1177.0441zm-2.3839 11.3251a.191.191 0 000 .0883v-.0883zm1.5598 4.2065h.103-.103zM56.1552 94.9903c2.016 0 3.6641-2.265 3.6641-5.0742 0-2.8093-1.6481-5.0743-3.6641-5.0743-2.0159 0-3.6493 2.2797-3.6493 5.0743 0 2.7945 1.6334 5.0742 3.6493 5.0742zM94.9004 94.2254c-2.016 0-3.6641-2.2798-3.6641-5.0743s1.6481-5.133 3.6641-5.133 3.723 2.3385 3.723 5.133-1.6334 5.0743-3.6494 5.0743M55.7723 71.928a13.062 13.062 0 00-1.6923.1029 13.4802 13.4802 0 00-1.8835.4413 12.229 12.229 0 00-5.739 3.6034 1.4716 1.4716 0 00-.2943 1.1178 1.4717 1.4717 0 001.7217 1.2943 1.6925 1.6925 0 001.0301-.603l.0883-.103a10.197 10.197 0 011.913-1.4708 12.8475 12.8475 0 012.5015-1.0442 12.4677 12.4677 0 012.2073-.3089c.6285.002 1.255.071 1.8689.2059l.4561.1471a1.5606 1.5606 0 001.1599-.0389 1.5596 1.5596 0 00.812-.8289 1.4705 1.4705 0 00-.8535-1.9855 10.1578 10.1578 0 00-3.2374-.5295h-.0588zm-2.3986 3.3534h-.1766.1766zm-4.1791 2.3091l-.1619.1618.1619-.1618zM94.2088 71.1491a13.2518 13.2518 0 011.707.1029 13.9928 13.9928 0 011.8836.4412 12.3 12.3 0 015.7386 3.6035 1.4721 1.4721 0 01.28 1.1178 1.559 1.559 0 01-.603 1.0148 1.4746 1.4746 0 01-1.119.2795 1.6178 1.6178 0 01-1.015-.6031l-.103-.1029a9.7362 9.7362 0 00-1.9131-1.4708 12.4904 12.4904 0 00-2.5016-1.0443 12.3121 12.3121 0 00-2.1926-.3088 8.8306 8.8306 0 00-1.8688.2059l-.4562.1324a1.5598 1.5598 0 01-1.9866-.8531 1.471 1.471 0 01-.0024-1.1834 1.4718 1.4718 0 01.8706-.8022 10.025 10.025 0 013.2374-.5294h.0441zm2.3986 3.3534h.1766-.1766zm4.1936 2.3091l.147.1471-.147-.1471z" fill="#2C2C2C"/><path d="M124.758 209.682l-.795.162H123.404l-1.472.28-.735.147h-.089c-2.133.412-4.252.794-6.386 1.147l-1.825.294-4.988.721h.206l-.809.103h-.486c-2.178.279-4.415.529-6.563.765l-2.9431.294c-9.1088.823-18.247 1.191-27.3851 1.162-9.1382-.03-18.3352-.515-27.4587-1.471-2.688-.284-5.3711-.598-8.0492-.941h.206c-1.4715-.177-2.7812-.383-4.1792-.589-1.8394-.279-3.6788-.573-5.5182-.897a.8249.8249 0 00-.5886.074.8284.8284 0 00-.2354.22v.795c.0466.096.1146.18.1987.247a.7118.7118 0 00.2869.135c1.5745.279 3.149.544 4.7236.779a280.4225 280.4225 0 0054.4464 2.868 282.003 282.003 0 0013.4939-.882l2.4427-.25c2.1333-.206 4.2823-.456 6.4303-.721h.81c2.163-.279 4.341-.588 6.519-.926h-.118.221l1.059-.162h.191c1.913-.324 3.826-.662 5.725-1.015l1.368-.265.78-.147.692-.147H123.831l.868-.176a.7566.7566 0 00.424-.316.7518.7518 0 00-.147-.978.7543.7543 0 00-.498-.177h-.176M126.951 221.096c-2.355.53-4.709 1.03-7.064 1.471-4.164.794-8.373 1.471-12.581 2.044h.206c-3.149.412-6.298.775-9.4475 1.089-2.4133.235-4.8266.426-7.2546.603-8.5937.603-17.2168.794-25.8253.647-8.6084-.147-17.364-.706-26.0018-1.677a319.0219 319.0219 0 01-5.2975-.662h.206c-1.6481-.22-3.2962-.47-4.9443-.72h-.0736a278.719 278.719 0 01-4.8266-.794h-.103l-.9271-.177c0 .441-.0883.883-.1471 1.309a.9988.9988 0 000 .206h.7505c1.7069.309 3.4139.588 5.1356.853h.0883c3.5611.549 7.132 1.039 10.7127 1.471 8.4171.926 16.8784 1.471 25.3396 1.618 8.4613.147 17.0697 0 25.5752-.633h.6033c2.3544-.166 4.6941-.358 7.0191-.573h.4268c7.1813-.721 14.3323-1.721 21.4103-3.06 2.37-.441 4.739-.941 7.108-1.47a2.316 2.316 0 010-.456v-1.089h-.177M127.436 233.23l-.942.221h-.339c-1.471.338-2.943.647-4.414.956l-1.251.25-1.368.265c-4.091.779-8.212 1.471-12.332 2h.191a273.0347 273.0347 0 01-27.7378 2.265c-9.4177.304-18.8404.157-28.268-.441a265.8631 265.8631 0 01-18.0556-1.795c-3.414-.47-6.7985-1-10.183-1.603a.8227.8227 0 00-.5886.089.7935.7935 0 00-.3531.455.7816.7816 0 00.0869.573.7806.7806 0 00.4575.354 249.9394 249.9394 0 0026.8995 3.309c9.3883.677 18.8061.868 28.2092.633 7.181-.186 14.3473-.642 21.4989-1.368 6.8571-.706 13.6851-1.677 20.4541-2.942h.206l1.295-.25h.294l.604-.117.353-.074c1.471-.294 2.943-.603 4.414-.941l.707-.162.515-.118c.159-.064.292-.18.377-.329.085-.15.118-.323.092-.493a.7633.7633 0 00-.232-.444.7725.7725 0 00-.458-.204h-.191M127.318 245.497l-1.31.294c-6.533 1.471-13.14 2.647-19.777 3.53h.191a273.6879 273.6879 0 01-27.3113 2.221c-9.6797.323-19.3697.161-29.0332-.486-5.8861-.382-11.7182-.965-17.4964-1.75a220.916 220.916 0 01-11.4043-1.824v1.545a254.2922 254.2922 0 0025.8252 3.324c9.6385.75 19.3212 1 28.9891.794 8.6526-.186 17.2904-.77 25.9139-1.75a224.948 224.948 0 0024.324-4.119l.647-.147.677-.161 1.472-.368c0-.52-.03-1.035-.088-1.544l-1.781.426" fill="#2C2C2C"/><path d="M71.8712 3.9473h-.4856a44.3434 44.3434 0 00-9.3001 1.0296 47.9596 47.9596 0 00-9.6532 3.2063 42 42 0 00-8.6525 5.236 33.028 33.028 0 00-6.7691 7.1922 26.5566 26.5566 0 00-4.0025 8.9866 30.502 30.502 0 00-.6033 5.1477c0 .9266-.1178 1.8532-.2061 2.7651h-.1913a14.7205 14.7205 0 00-2.943.2942c-1.1171.2386-2.193.64-3.1932 1.1913a12.7106 12.7106 0 00-4.65 4.5448 21.953 21.953 0 00-2.5605 6.648 40.1495 40.1495 0 00-.8535 7.7069 60.3799 60.3799 0 00.3532 7.1775 55.1284 55.1284 0 001.0742 6.6038 45.4446 45.4446 0 001.7806 6.0744 30.2323 30.2323 0 005.5035 9.8396 13.8897 13.8897 0 00-1.4716 2.0739 15.2038 15.2038 0 00-1.4715 3.5446 11.9975 11.9975 0 00.3237 7.5602c.1978.507.4339.999.7064 1.47.2777.479.5979.932.9565 1.354a11.8594 11.8594 0 003.2962 2.721 12.8864 12.8864 0 004.4146 1.559c.672.101 1.351.151 2.0307.147a15.4744 15.4744 0 002.2955-.177c0 .691 0 1.397.0883 2.089a26.688 26.688 0 001.0742 5.883c.2766.881.616 1.741 1.0154 2.574.4207.837.9079 1.638 1.4568 2.397a25.8217 25.8217 0 007.2105 6.736 37.0764 37.0764 0 009.2559 4.177c1.1331.353 2.3103.677 3.5022.942a24.8108 24.8108 0 01-.1619 4.118 25.8427 25.8427 0 01-1.6481 6.03h-.2501c-.191.015-.3829.015-.5739 0a.8466.8466 0 00-.3826-.088.647.647 0 00-.3973.132 4.8154 4.8154 0 00-1.1331 1.206 5.0313 5.0313 0 00-.6475 1.604c-.052.227-.0815.458-.0883.691a3.755 3.755 0 000 .853 7.7363 7.7363 0 00-2.0748.412 12.8603 12.8603 0 00-2.9431 1.382 8.832 8.832 0 00-2.3103 2.045 5.5985 5.5985 0 00-.6769 1.147 3.6756 3.6756 0 00-.2501 1.088.632.632 0 00-.1766.309l-2.7223.853-3.2668 1.015-2.5016.765a92.9638 92.9638 0 00-10.9776 4.059 39.2714 39.2714 0 00-17.5994 15.797 54.1421 54.1421 0 00-4.9738 11.06 76.4283 76.4283 0 00-2.8106 11.928c-.6916 4.236-1.0595 8.472-1.4715 13.237-.412 4.766-.6916 9.84-.883 14.708-.3825 9.501-.3678 18.9 0 27.945h1.6187c-.3973-8.516-.3973-17.311-.103-26.298.1619-4.412.412-9.074.7505-13.796.1766-2.338.3679-4.647.5886-6.971s.3973-4.104.6475-6.001a73.7124 73.7124 0 014.8266-18.782 47.6342 47.6342 0 015.8861-10.193 38.4579 38.4579 0 016.7249-6.751 37.9068 37.9068 0 014.4145-2.941 43.9193 43.9193 0 015.0032-2.456c3.4728-1.471 7.0339-2.574 10.9923-3.795a374.1889 374.1889 0 005.8126-1.809l1.545-.515 2.3839.588c2.325.53 4.7825.986 7.3576 1.354h.1619c3.2962.47 6.7102.809 10.183 1 1.7217.088 3.3992.147 5.0767.176h1.6923c2.7076 0 5.4299-.088 8.1228-.265 2.2073-.132 4.4146-.338 6.4011-.588h.3238c1.4715-.176 2.7959-.368 4.1497-.588l3.1638-.574 2.5455-.544.368-.088.809.265.81.264c1.927.618 3.87 1.221 5.886 1.809 3.958 1.221 7.519 2.339 10.992 3.795 1.723.712 3.399 1.533 5.018 2.456a36.5178 36.5178 0 0111.184 9.693 48.3195 48.3195 0 015.886 10.192 73.7174 73.7174 0 014.812 18.782c.25 1.898.441 3.795.647 6.031.206 2.235.412 4.633.589 6.971.338 4.721.588 9.369.75 13.796.309 8.825.265 17.473-.088 25.666h1.471c.412-8.825.427-18.018 0-27.445-.191-4.825-.485-9.752-.882-14.708-.398-4.957-.751-8.928-1.472-13.238a78.2476 78.2476 0 00-2.825-11.928 54.1748 54.1748 0 00-4.974-11.06 41.0637 41.0637 0 00-7.784-9.472 41.6629 41.6629 0 00-9.977-6.442 93.8548 93.8548 0 00-10.993-4.059l-2.501-.765-3.267-1.015c-.809-.25-1.619-.5-2.428-.78a.2457.2457 0 000-.147c.017-.161.017-.324 0-.485a9.8791 9.8791 0 00-1.207-2.353 12.2347 12.2347 0 00-2.0304-2.206 11.6387 11.6387 0 00-4.7236-2.442 4.8977 4.8977 0 00-.2649-1.25 9.1144 9.1144 0 00-1.7364-2.78.78.78 0 00-.5445-.221H90.2211a24.8572 24.8572 0 01-1.2802-5.147 22.054 22.054 0 01-.1325-4.619 59.4958 59.4958 0 009.8151-2.647 33.6463 33.6463 0 009.2115-5.265c.607-.499 1.182-1.034 1.722-1.604.671-.712 1.254-1.502 1.736-2.353.44-.787.814-1.608 1.119-2.456.338-.961.608-1.944.809-2.942.273-1.282.475-2.578.603-3.883.133-1.103.236-2.221.324-3.338.045.043.101.073.162.088.88.149 1.771.227 2.663.235.685-.001 1.369-.055 2.046-.162 1.555-.235 3.052-.759 4.414-1.544a12.1115 12.1115 0 003.297-2.736c.345-.426.665-.873.956-1.338.266-.475.502-.966.706-1.471a12.0483 12.0483 0 00.309-7.545 15.1808 15.1808 0 00-1.471-3.5446 14.546 14.546 0 00-2.207-2.9416c-.336-.3327-.69-.6469-1.06-.9413a31.0405 31.0405 0 002.649-5.6037 57.2956 57.2956 0 001.81-5.692 60.9114 60.9114 0 001.898-12.0163 58.0476 58.0476 0 00-.588-12.1782 47.556 47.556 0 00-3.15-11.4134 41.1613 41.1613 0 00-1.589-3.2799 39.2678 39.2678 0 001.884-3.6769 29.0127 29.0127 0 002.943-11.7664 15.3527 15.3527 0 00-.294-3.2505 5.0957 5.0957 0 00-.834-1.9371 5.0833 5.0833 0 00-1.55-1.431 6.9963 6.9963 0 00-2.105-.7942 12.9055 12.9055 0 00-2.943-.2794c-.691 0-1.471 0-2.089.0882-1.383.103-2.796.2942-4.165.4854l-1.044.147c-.913.1177-1.869.2354-2.826.2795h-2.016c-.839 0-1.736-.1177-2.707-.25a73.4688 73.4688 0 01-15.5102-4.5448c-2.6046-.9707-5.2975-1.9709-7.9757-2.7945a42.2366 42.2366 0 00-11.9635-2.0297l.0736.0147zM44.1771 65.0294c.5886-4.2947 1.3538-8.6777 2.3544-13.3695a120.191 120.191 0 0026.4875 5.5596c2.2661.1912 4.547.2941 6.769.2941 2.222 0 4.753-.1176 7.0633-.3383a61.6281 61.6281 0 0013.4207-2.7798 63.8736 63.8736 0 006.151-2.3091c.971 4.6771 1.721 8.9719 2.28 13.1489.515 3.9417.883 7.8099 1.075 11.5016.103 1.9856.162 4.0006.191 6.1773 0 1.2943 0 2.5886.103 3.8829v1.8385a95.637 95.637 0 01-.235 16.1784 30.3907 30.3907 0 01-1.899 7.354 18.909 18.909 0 01-2.207 3.854c-.497.617-1.054 1.183-1.663 1.691-.682.517-1.423.952-2.207 1.295-.911.371-1.8654.628-2.8402.764-.5911.068-1.1855.102-1.7805.103a18.3019 18.3019 0 01-2.3397-.147 25.1965 25.1965 0 01-5.8861-1.662 28.2907 28.2907 0 01-5.7096-3.324 25.12 25.12 0 01-2.2808-2.044.9287.9287 0 00-.4856-.221.5765.5765 0 00-.2796-.147 20.0983 20.0983 0 00-4.6501-.618 13.128 13.128 0 00-3.4433.456.8224.8224 0 00-.2502.133.732.732 0 00-.3679.191c-.7946.779-1.4715 1.471-2.2367 2.015l-.1177.088a27.8344 27.8344 0 01-5.5918 3.236 25.055 25.055 0 01-5.7537 1.662h-.1913c-.6769 0-1.4715.103-2.222.103a16.2026 16.2026 0 01-1.6628-.088 12.6824 12.6824 0 01-2.943-.765 10.866 10.866 0 01-2.1926-1.309 11.4086 11.4086 0 01-1.5157-1.603 19.8358 19.8358 0 01-2.2073-3.854 30.6274 30.6274 0 01-1.8835-7.354 96.831 96.831 0 01-.3238-16.3698l.0736-1.6914c0-1.2943.0883-2.5886.1177-3.8829 0-2.1621.0736-4.1918.1913-6.1626.1913-3.6917.5445-7.5452 1.0595-11.4869h.0295zM29.4618 86.7971a9.7063 9.7063 0 011.81-1.0884 7.3598 7.3598 0 011.6922-.4559 4.1618 4.1618 0 01.6034 0c.2303-.015.4613-.015.6916 0a6.5136 6.5136 0 011.2802.3677c.4158.197.8145.4282 1.1919.6913.4956.4094.9536.8622 1.3686 1.3531 0 .956-.103 1.912-.1472 2.9416v.4265a6.7499 6.7499 0 00-.7946-.7942 8.3897 8.3897 0 00-2.5016-1.3679 6.3 6.3 0 00-1.9277-.2941 5.887 5.887 0 00-.8829 0 6.418 6.418 0 00-2.9431 1.2207.794.794 0 00-.3531.456.7792.7792 0 00.0735.603.839.839 0 00.6917.3971.6032.6032 0 00.3678-.1176 6.7144 6.7144 0 011.2508-.7207 5.0946 5.0946 0 011.1478-.3089 4.1618 4.1618 0 01.6034 0h.6916c.4612.0894.914.2173 1.3538.3824a8.843 8.843 0 011.2949.7648 8.3838 8.3838 0 011.2067 1.1914c.1852.2506.3571.5108.515.7795a.6926.6926 0 00.1324.1765v4.4565c0 1.2649-.0294 2.5295-.0883 3.7945 0 1.544-.103 3.074-.0882 4.604l-.5151.073h-.1619c-.4887.054-.9798.084-1.4715.089-.4918-.002-.983-.032-1.4715-.089a12.8096 12.8096 0 01-2.9431-.779 12.565 12.565 0 01-2.5604-1.471 11.5324 11.5324 0 01-2.0601-1.78 9.7761 9.7761 0 01-1.1478-1.956 9.5648 9.5648 0 01-.6475-2.4708 11.9766 11.9766 0 010-2.8092c.1768-1.0993.478-2.175.8976-3.2064a15.4117 15.4117 0 011.7659-3.0298 13.784 13.784 0 012.0748-2.0297zm86.1722-.3088a7.863 7.863 0 011.222-.7207 6.47 6.47 0 011.265-.353h1.31c.559.0881 1.106.236 1.633.4412.653.2973 1.27.6673 1.84 1.1031l-.118-.1324a14.8867 14.8867 0 012.09 2.1033c.72.9563 1.327 1.9928 1.81 3.0886a14.004 14.004 0 01.897 3.2064c.118.9376.118 1.8863 0 2.8239a10.04 10.04 0 01-.647 2.4563c-.306.671-.675 1.312-1.104 1.912-.554.669-1.176 1.28-1.854 1.824-.801.585-1.664 1.078-2.575 1.471-.951.364-1.937.625-2.943.779h-1.472c-.536 0-1.071-.029-1.604-.088H114.575a.6948.6948 0 00-.265 0c.235-2.942.353-6.119.397-10.031v-3.0592c.147-.2501.309-.4854.486-.7354a8.2916 8.2916 0 011.192-1.1914 8.4424 8.4424 0 011.309-.7501 7.135 7.135 0 011.34-.3971h1.295c.397.063.786.1665 1.162.3089.435.1979.849.4394 1.236.7206a.6055.6055 0 00.368.1177.8071.8071 0 00.398-.1075.8192.8192 0 00.294-.2896.8558.8558 0 00.088-.6031.8272.8272 0 00-.368-.4559 6.5202 6.5202 0 00-2.943-1.2207 5.5894 5.5894 0 00-.868 0 5.8855 5.8855 0 00-1.928.3088 7.4959 7.4959 0 00-2.502 1.3678c-.201.1601-.393.332-.573.5148v-3.471c.286-.303.59-.5879.912-.8531l.029-.0882zM74.8731 134.024c1.0595 0 2.119 0 3.1785-.073a65.031 65.031 0 009.1529-1.089 23.0604 23.0604 0 00.2207 4.898 26.4504 26.4504 0 001.2066 4.78h-.5444l-3.2815.353h-.6033c-1.1478.103-2.1485.191-3.1491.25-2.6488.177-5.3269.25-8.0051.25h-3.0461c-1.3685 0-2.7076-.088-4.0319-.162h-.3826l-2.5605-.176h-.6622l-1.3538-.118c.1177-.264.2355-.544.3385-.838.5603-1.56.9693-3.171 1.2213-4.81.2217-1.459.3055-2.937.2502-4.412 1.6187.324 3.3109.588 5.165.78 2.2869.251 4.5861.374 6.8868.367zm-1.8247 11.046c2.634 0 5.2533 0 7.7696-.235 1.2214-.074 2.3692-.177 3.5317-.28H85.0266l2.9431-.323h.927l2.4133-.353h.3385l.2501.176c.3781.486.699 1.014.9565 1.574.1238.318.2126.648.2649.985a3.741 3.741 0 010 .574c-.0352.19-.0844.376-.1472.559a3.1987 3.1987 0 01-.2501.426 2.702 2.702 0 01-.412.412 5.6267 5.6267 0 01-.8241.456 8.923 8.923 0 01-1.4715.397.6787.6787 0 00-.4709.353.8246.8246 0 00-.0883.589.7951.7951 0 00.3679.47c.1098.07.2378.106.3679.103h.2354a6.1759 6.1759 0 002.7959-1.059 3.8835 3.8835 0 001.3097-1.735c.4257.12.8435.268 1.2508.441.7887.349 1.5344.788 2.222 1.309a13.1388 13.1388 0 011.8835 1.838c.407.528.752 1.101 1.03 1.706l.103.206h-.706l-.265.074-2.3104.5c-1.0006.191-1.9424.368-2.9431.515-1.0006.147-2.0454.338-3.046.47l-.5298.074h-.515c-2.222.279-4.4146.485-6.4747.618-2.7812.191-5.6065.294-8.4171.294h-1.8542c-1.6039 0-3.1343-.088-4.6794-.162-3.1932-.176-6.2246-.456-9.1235-.838l-.5886-.089h-.309c-2.5457-.367-5.0326-.823-7.3576-1.353-.8388-.191-1.6629-.382-2.4869-.603l.0883-.294a3.736 3.736 0 01.4414-.868 7.1833 7.1833 0 011.089-1.147 11.7863 11.7863 0 012.0895-1.309l.1472-.103a14.1217 14.1217 0 012.2367-.706c.302-.046.6069-.071.9124-.073h.2501c.3001.404.6686.752 1.0889 1.029a4.914 4.914 0 001.3097.633 9.308 9.308 0 002.943.397.814.814 0 00.3422-.049.7944.7944 0 00.2906-.187.8213.8213 0 00.2207-.588.8102.8102 0 00-.2669-.53.8098.8098 0 00-.5571-.205h-.8977a8.992 8.992 0 01-1.7069-.309 5.8682 5.8682 0 01-.9124-.456 4.3577 4.3577 0 01-.4561-.441 5.8696 5.8696 0 01-.3238-.5c0-.192-.1324-.397-.1913-.603a4.4283 4.4283 0 010-.633c.0412-.274.1051-.545.1913-.809.0971-.235.2153-.462.3532-.676.1202-.163.2531-.315.3973-.456l1.1184.132h.1618c.9271.118 1.8542.206 2.7665.28h.1766l2.943.205h.6769c1.1037 0 2.222.103 3.3257.133h3.4434" fill="#2C2C2C"/><path d="M80.8624 100.947c-.7194-.005-1.438.049-2.1484.162a15.3816 15.3816 0 00-3.0608.838.7429.7429 0 00-.206.118 15.1444 15.1444 0 00-3.0608-.868 14.8557 14.8557 0 00-2.1484-.162h-.8535a15.4559 15.4559 0 00-5.8861 1.603 22.079 22.079 0 00-5.0032 3.354 30.5906 30.5906 0 00-4.2233 4.618.852.852 0 00-.1766.574.8395.8395 0 00.4709.647 5.8885 5.8885 0 002.9431.735 10.066 10.066 0 001.8247-.176 22.1944 22.1944 0 005.7536-1.898c1.4716-.706 2.9431-1.47 4.5323-2.397 1.2067-.677 2.2662-1.339 3.2521-2.015a24.4733 24.4733 0 002.7517-2.236 19.9839 19.9839 0 002.6046 2.148c.2649.191.5445.367.8241.544-.0736.162-.1324.338-.206.485-.13.232-.2776.453-.4415.662a5.515 5.515 0 01-.8387.735 5.576 5.576 0 01-.8977.442 5.2427 5.2427 0 01-1.0153.206 4.2093 4.2093 0 01-.8094 0 3.009 3.009 0 01-.6327-.221l-.4415-.294a4.6666 4.6666 0 01-.4414-.5 4.4534 4.4534 0 01-.3385-.647.7544.7544 0 00-.2863-.328.7584.7584 0 00-.42-.114.7042.7042 0 00-.3532.089.8057.8057 0 00-.3886.459.808.808 0 00.0355.6c.1954.481.4744.924.824 1.309.3301.365.7305.66 1.1772.867.587.283 1.2321.424 1.8836.412.284.023.5694.023.8535 0a5.8213 5.8213 0 001.3832-.426 6.3864 6.3864 0 001.2214-.765c.3753-.312.7069-.673.9859-1.074.2148-.293.3881-.615.515-.956.3238.221.6916.441 1.0595.647 1.5746.898 2.9431 1.692 4.5323 2.398a22.795 22.795 0 005.6948 1.971c.603.102 1.2131.156 1.8247.161a5.7209 5.7209 0 002.9431-.72.8083.8083 0 00.3211-.262.807.807 0 00.1498-.385.8977.8977 0 00-.1619-.574 29.9878 29.9878 0 00-4.238-4.618 22.0534 22.0534 0 00-4.9885-3.368 15.4673 15.4673 0 00-5.8861-1.589h-.8387" fill="#2C2C2C"/><path d="M219.887 154.046a4.479 4.479 0 00-.455.276c-.309.244-.65.439-.975.667-.325.227-.553.373-.797.585-.244.211-.406.39-.601.585a.8435.8435 0 00-.179.572c.013.206.1.4.246.546.147.146.341.233.547.246.206.012.41-.051.572-.178l.683-.65c.504-.341 1.008-.65 1.48-1.008.108-.091.229-.167.357-.227a.8399.8399 0 00.602-1.024.8383.8383 0 00-.388-.512.838.838 0 00-.636-.089.9612.9612 0 00-.423.114" fill="#44A8A3"/><path d="M208.687 184.156a.86.86 0 00-.504.39l-.098.113-5.332 7.459a.8627.8627 0 00-.085.635c.055.215.19.401.378.518.097.056.205.092.317.106.111.014.225.006.333-.025.212-.06.392-.2.504-.39l5.446-7.588a.845.845 0 00.091-.637.8358.8358 0 00-.384-.516.957.957 0 00-.422-.114h-.228" fill="#F77849"/><path d="M209.11 183.457a.86.86 0 00-.504.39l-2.13 2.974a.8418.8418 0 00-.084.64c.058.217.199.401.393.513.097.057.205.094.317.108.112.014.225.005.334-.027.207-.06.385-.193.504-.373l2.129-2.99a.8112.8112 0 00.111-.312.8223.8223 0 00-.02-.331.8329.8329 0 00-.148-.296.8153.8153 0 00-.252-.215.9463.9463 0 00-.422-.113h-.228M196.591 208.318a.8217.8217 0 00-.248.218.8348.8348 0 00-.143.297.8473.8473 0 00-.016.329.83.83 0 00.114.309l6.194 8.677c.117.186.295.324.504.39.109.029.224.035.335.019a.8442.8442 0 00.315-.116.8467.8467 0 00.394-.513.8452.8452 0 00-.085-.641l-6.21-8.66a.7753.7753 0 00-.211-.248.7832.7832 0 00-.293-.142.5428.5428 0 00-.227 0 .777.777 0 00-.423.113M213.075 228.856a.9271.9271 0 00-.504.39l-4.877 6.889a.867.867 0 00-.078.639c.058.215.196.4.387.515.097.057.205.094.317.108a.832.832 0 00.333-.027.857.857 0 00.504-.39l4.877-6.873a.8446.8446 0 00-.308-1.154.8274.8274 0 00-.423-.13h-.228M204.509 245.933a.9328.9328 0 00-.504.39l-3.934 5.509a.8424.8424 0 00-.084.64c.058.217.199.401.393.513a.8295.8295 0 00.65.082.8639.8639 0 00.504-.39c1.301-1.837 2.618-3.673 3.934-5.493a.842.842 0 00.085-.64.846.846 0 00-.393-.513.8089.8089 0 00-.423-.13h-.228M209.76 171.141a.8424.8424 0 00-.393.513.8424.8424 0 00.084.64c1.626 2.178 3.138 4.371 4.715 6.581.117.188.303.323.518.378.215.054.443.024.636-.085a.8452.8452 0 00.393-.513.8443.8443 0 00-.084-.641l-4.715-6.581a.8639.8639 0 00-.504-.39h-.227a.7866.7866 0 00-.423.114" fill="#F77849"/><path d="M212.702 201.054a398.228 398.228 0 01-2.308 53.913h1.625a398.2286 398.2286 0 002.309-53.913.8453.8453 0 00-.846-.845.8447.8447 0 00-.845.845" fill="#2C2C2C"/><path d="M300.082 155.98l-.569.504c-1.041.78-2.114 1.479-3.251 2.177l-1.285.845-1.463.618c-.78.308-1.626.65-2.308.975l-.862.357-1.886.748c-.318.141-.644.266-.975.373l-1.723.65-2.65.91-2.471.829c-1.138.373-2.26.731-3.414 1.056l-.813.179-1.626.097-2.081.195c-1.381.146-2.747.341-4.113.52-1.365.179-2.845.341-4.259.536-.225 0-.44.088-.601.244a.8714.8714 0 00-.244.601c.007.218.094.427.244.585l.113.098h-.097a.7945.7945 0 00-.29.135.7856.7856 0 00-.214.238.8777.8777 0 00-.081.667c.065.209.203.388.39.503.198.109.431.138.65.082h.488-.163l1.382-.163a.312.312 0 000 .114.6671.6671 0 000 .244c-.65 0-1.301.097-1.935.113-.634.017-1.625 0-2.536 0-.91 0-1.755 0-2.633-.113l-2.488-.147c-1.625-.13-3.397-.325-5.088-.52l-4.194-.455c-1.707-.243-3.414-.503-5.089-.893-.796-.195-1.625-.423-2.373-.634-.858-.258-1.699-.567-2.52-.926h-.097l-1.74-.731.195.081c-.715-.325-1.43-.65-2.129-1.008-.699-.357-1.447-.844-2.195-1.251-1.382-.763-2.845-1.397-4.162-2.258-.618-.39-1.219-.796-1.821-1.219-.601-.422-1.316-.959-2.016-1.397-.699-.439-1.251-.796-1.836-1.251l-1.854-1.398c-.325-.26-.666-.536-1.008-.78a.757.757 0 00-.316-.114.7581.7581 0 00-.334.033.8063.8063 0 00-.293.142.8128.8128 0 00-.211.248.8295.8295 0 00-.108.317.8159.8159 0 00.027.333c.065.209.203.388.39.504l.39.292-.162-.13 1.983 1.511c.631.504 1.288.976 1.967 1.414.699.455 1.398.91 2.065 1.397.666.488 1.316.943 1.999 1.381.683.439 1.366.829 2.065 1.187.699.357 1.528.763 2.276 1.186l2.243 1.267c.781.423 1.626.796 2.406 1.138l.732.292c.78.341 1.625.699 2.373.991.748.293 1.431.455 2.146.666 1.447.39 2.91.683 4.373.943 1.463.26 3.252.455 4.796.634.748.081 1.496.146 2.227.243l2.552.276c1.626.195 3.349.277 5.024.374.878 0 1.772.081 2.666.098.894.016 1.626 0 2.552 0 .927 0 1.626-.098 2.488-.179l2.503-.276c.862-.114 1.707-.179 2.569-.309l2.243-.374c1.252-.227 2.52-.455 3.772-.715l.91-.178c.465-.074.927-.172 1.382-.293.439-.097.878-.195 1.301-.325.422-.13.959-.341 1.43-.536l.488-.146c.715-.244 1.414-.472 2.113-.748l2.179-.845c.764-.325 1.512-.682 2.243-1.056l2.179-1.072c1.414-.683 2.812-1.381 4.161-2.178.537-.308 1.057-.633 1.626-.991.569-.357.878-.65 1.333-.926l1.626-1.024c.374-.26.764-.536 1.17-.796.379-.225.743-.474 1.089-.747.199-.187.354-.414.456-.666.07-.217.088-.448.054-.673-.033-.226-.119-.44-.25-.627a3.6227 3.6227 0 00-1.251-1.122c-.26-.204-.568-.339-.894-.389-.386.042-.743.221-1.008.503l-.049-.065zm-64.523 12.463h.081-.081zm11.379 1.251h.163-.163z" fill="#F77849"/><path d="M219.317 154.941a.8345.8345 0 00-.235.492c-.021.186.022.373.122.532a.663.663 0 000 .178c0 .179 0 .358-.082.52v.114a.8603.8603 0 00-.222.577c0 .213.079.418.222.577.191.181.397.344.618.487l.341.26.618.455 1.496 1.154c.959.715 1.918 1.43 2.893 2.096.472.341.927.666 1.415.975l1.024.65.683.422 1.626.894c.636.363 1.299.678 1.983.942.109.029.223.036.335.019a.8273.8273 0 00.315-.116h.081l.521.227 1.625.732c.878.389 1.789.698 2.699 1.039.91.342 1.739.585 2.601.862.862.276 1.626.503 2.422.747.797.244 1.837.488 2.764.699l.975.195c.537.097 1.073.211 1.626.276l1.431.179 1.365.097h.553c1.073.26 2.195.406 3.251.569l1.024.162 1.837.179c.927.098 1.838.13 2.764.163h2.374c.455 0 1.203 0 1.82-.147a6.5132 6.5132 0 001.626-.357c.173-.043.338-.115.488-.211a.709.709 0 00.195-.179h1.365a.866.866 0 00.594-.252c.157-.158.248-.37.252-.593a.8385.8385 0 00-.07-.327.8383.8383 0 00-.19-.274.9385.9385 0 00-.586-.244h-1.755l-.147-.081h.277c.455 0 .926-.098 1.365-.195.102-.02.197-.064.277-.13h.179c.373 0 .731 0 1.105-.081l1.138-.098 3.251-.39a.9385.9385 0 00.586-.244.828.828 0 00.19-.274.8346.8346 0 00.07-.327.8358.8358 0 00-.07-.319.8362.8362 0 00-.19-.266.7907.7907 0 00-.265-.193.803.803 0 00-.321-.067l-3.251.39-1.138.098c-.39 0-.797.081-1.203.081h-.764a.8287.8287 0 00-.813-.666c-2.471.113-4.877.211-7.397.26h-2.763l-1.626-.081h-2.357a.9804.9804 0 00-.391-.244l-.438-.146a4.4909 4.4909 0 00-.797-.13l-.715-.098-1.122-.13-2.243-.276c-1.366-.228-2.748-.423-4.097-.683l-1.398-.276-2.227-.65a.9305.9305 0 000-.211.8838.8838 0 00-.111-.417.874.874 0 00-.296-.314 8.0085 8.0085 0 00-1.626-.699l-1.024-.357-2.178-.65-2.081-.667-.325-.097-.781-.292-.357-.293c-.358-.263-.733-.502-1.122-.715l-1.365-.747c-.797-.423-1.626-.813-2.423-1.235-.796-.423-1.772-.926-2.617-1.446-.374-.228-.764-.455-1.122-.699-.357-.244-.731-.488-1.122-.715a.7832.7832 0 00-.422-.114c-.225 0-.441.087-.602.244l.065-.13zm1.138.13l.13.097a.3052.3052 0 00-.113-.081l-.017-.016zM221.692 183.181c-.191.115-.329.3-.384.516a.8428.8428 0 00.092.638l5.023 7.051c.116.186.295.324.504.39.221.05.453.015.65-.097a.8416.8416 0 00.393-.513.8448.8448 0 00-.084-.641l-5.04-7.035a.9201.9201 0 00-.504-.39h-.211a.987.987 0 00-.439.113M248.093 182.774a.9599.9599 0 00-.488.39l-5.186 7.247a.845.845 0 00-.091.637c.054.216.193.402.384.517.197.112.429.147.65.097a.9236.9236 0 00.504-.39l5.186-7.263c.109-.193.14-.42.085-.635a.8568.8568 0 00-.378-.518 1.0992 1.0992 0 00-.439-.114h-.227M264.772 182.921a.8558.8558 0 00-.387.515c-.058.215-.03.444.078.639l5.365 7.506c.116.186.295.324.504.39.221.05.453.015.65-.097a.8479.8479 0 00.384-.517.845.845 0 00-.091-.637c-1.772-2.502-3.561-4.988-5.349-7.49a.8561.8561 0 00-.504-.39h-.228a.776.776 0 00-.422.113M290.572 182.921a.941.941 0 00-.52.39l-4.877 6.906a.876.876 0 00-.08.646c.058.218.197.406.389.524.103.043.213.066.325.066.112 0 .222-.023.325-.066.21-.056.39-.189.504-.374l4.877-6.922a.8455.8455 0 00.092-.637.8479.8479 0 00-.384-.517.7793.7793 0 00-.423-.113h-.228M304.114 182.823a.8488.8488 0 00-.393.513.8452.8452 0 00.085.641c1.636 2.307 3.262 4.609 4.877 6.905.112.19.292.33.504.39.108.032.221.041.333.027.112-.014.22-.051.317-.108.191-.115.329-.3.384-.516a.841.841 0 00-.092-.637l-4.877-6.906a.9719.9719 0 00-.52-.39h-.211a.9105.9105 0 00-.423.114M234.34 203.037a.8424.8424 0 00-.393.513.8424.8424 0 00.084.64l5.544 7.751c.116.185.295.324.504.39.221.05.453.015.65-.098a.8424.8424 0 00.393-.513.8424.8424 0 00-.084-.64c-1.853-2.568-3.707-5.167-5.544-7.751a.9292.9292 0 00-.504-.39h-.211a.817.817 0 00-.439.114M258.677 201.77a.9201.9201 0 00-.504.39l-5.202 7.279a.8575.8575 0 00-.078.639c.057.215.196.4.387.515a.829.829 0 00.316.107c.112.014.226.005.334-.026a.9236.9236 0 00.504-.39c1.723-2.421 3.463-4.874 5.186-7.279a.845.845 0 00.091-.637.8479.8479 0 00-.384-.517 1.048 1.048 0 00-.439-.114h-.211M274.088 202.208a.8388.8388 0 00-.252.215.8167.8167 0 00-.148.296.8585.8585 0 00-.02.331c.016.11.054.216.111.311l5.674 7.946c.114.185.294.318.504.374.108.031.222.04.334.026a.829.829 0 00.316-.107.8495.8495 0 00.394-.513.8446.8446 0 00-.085-.641l-5.673-7.881a.879.879 0 00-.521-.373.5116.5116 0 00-.227 0 .6992.6992 0 00-.407.113M301.935 203.995a.9292.9292 0 00-.504.39l-4.877 6.727a.8455.8455 0 00-.092.637c.055.216.193.402.384.517.198.112.429.147.651.097a.9236.9236 0 00.504-.39l4.877-6.727a.8489.8489 0 00.114-.313.8307.8307 0 00-.015-.333.8442.8442 0 00-.143-.301.8435.8435 0 00-.249-.223 1.0468 1.0468 0 00-.439-.113h-.211M221.691 206.433a.8063.8063 0 00-.293.142.8128.8128 0 00-.211.248c-1.967 2.729-3.918 5.476-5.885 8.222-.109.193-.14.42-.085.635.054.215.19.401.378.518.097.056.205.092.317.106.111.014.225.006.333-.025a.7906.7906 0 00.293-.142.809.809 0 00.211-.247c1.967-2.73 3.918-5.476 5.885-8.222a.845.845 0 00.091-.637.8451.8451 0 00-.384-.517.7856.7856 0 00-.422-.114h-.228M315.478 204.759a.8427.8427 0 00-.309 1.153l4.877 6.825c.054.095.126.179.213.246.086.067.186.117.291.146.106.028.217.036.325.021a.826.826 0 00.309-.104.848.848 0 00.393-.513.8443.8443 0 00-.084-.641l-4.877-6.825a.7987.7987 0 00-.212-.247.7963.7963 0 00-.292-.143.5832.5832 0 00-.228 0 .789.789 0 00-.423.114M223.399 223.835a.8427.8427 0 00-.309 1.153l5.901 8.255c.119.177.289.313.488.39.226.05.464.016.666-.098.191-.115.329-.3.384-.516a.845.845 0 00-.091-.637c-1.951-2.746-3.934-5.493-5.885-8.255a.9945.9945 0 00-.504-.39h-.228a.7832.7832 0 00-.422.114M248.743 224.777a.9364.9364 0 00-.504.39l-4.795 6.646c-.11.193-.14.421-.086.636.055.215.19.4.378.518.203.114.443.143.667.081a.896.896 0 00.504-.39l4.877-6.711a.8605.8605 0 00-.309-1.153.9612.9612 0 00-.423-.114h-.227M262.334 225.525a.8452.8452 0 00-.393.513.8448.8448 0 00.084.641c1.74 2.421 3.447 4.874 5.17 7.247.122.187.306.325.52.39.107.028.218.034.327.017.11-.016.214-.056.307-.115a.8073.8073 0 00.251-.21.8072.8072 0 00.168-.619.8078.8078 0 00-.11-.308l-5.17-7.247a.86.86 0 00-.504-.39h-.227a.9737.9737 0 00-.423.113M288.946 224.648a.9945.9945 0 00-.504.39l-4.974 7.003a.845.845 0 00-.091.637c.054.216.192.402.384.517.213.087.453.087.666 0a.8795.8795 0 00.488-.39c1.625-2.324 3.332-4.664 5.007-7.004a.8418.8418 0 00.084-.64.8424.8424 0 00-.393-.513.9612.9612 0 00-.423-.114h-.227M302.57 226.11a.8467.8467 0 00-.394.513.8452.8452 0 00.085.641c1.398 1.949 2.796 3.883 4.178 5.833.112.189.292.329.504.39a.812.812 0 00.52 0v-.878-.877c-1.252-1.771-2.52-3.526-3.788-5.297a.8128.8128 0 00-.211-.248.8063.8063 0 00-.293-.142h-.211c-.153.005-.303.044-.439.114M327.996 226.061a.7853.7853 0 00-.293.143.7825.7825 0 00-.211.247l-5.333 7.458a.852.852 0 00-.111.312.8394.8394 0 00.02.331c.029.107.079.208.148.296.069.088.155.161.252.215.094.057.199.094.309.108.109.014.22.005.325-.027.216-.06.402-.199.52-.39l5.316-7.458c.059-.094.098-.2.114-.309a.8162.8162 0 00-.016-.33.8178.8178 0 00-.143-.297.8459.8459 0 00-.247-.218.777.777 0 00-.423-.113h-.227M218.149 244.812a.8153.8153 0 00-.252.215.8167.8167 0 00-.148.296.8212.8212 0 00-.02.331c.016.11.053.216.111.311l4.227 5.899c.116.185.295.323.504.39.103.044.213.066.325.066.112 0 .222-.022.325-.066.191-.115.329-.3.387-.515a.8575.8575 0 00-.078-.639l-4.227-5.914a.9201.9201 0 00-.504-.39h-.227a.777.777 0 00-.423.113M245.053 245.609a.9236.9236 0 00-.504.39l-4.145 5.801a.8236.8236 0 00-.112.312c-.015.11-.008.222.02.33.029.108.079.209.148.296.069.088.155.161.252.215.098.057.205.094.317.108.112.014.225.005.334-.027a.8715.8715 0 00.487-.389c1.398-1.934 2.764-3.851 4.146-5.801a.845.845 0 00.091-.637.8479.8479 0 00-.384-.517c-.136-.07-.286-.109-.439-.114h-.211M258.14 245.235a.8388.8388 0 00-.393.513.8424.8424 0 00.084.64l4.747 6.662c.119.19.305.329.52.39.216.049.443.014.634-.097a.842.842 0 00.247-.213.846.846 0 00.145-.291.83.83 0 00-.083-.634l-4.747-6.662a.8956.8956 0 00-.52-.39h-.212a.7856.7856 0 00-.422.114M285.809 245.348a.8639.8639 0 00-.504.39l-4.373 6.11a.8446.8446 0 00.308 1.154c.103.043.214.066.326.066.111 0 .222-.023.325-.066a.867.867 0 00.504-.39l4.373-6.11a.8443.8443 0 00.084-.641.848.848 0 00-.393-.513.7857.7857 0 00-.423-.113.5428.5428 0 00-.227 0M300.374 246.242a.848.848 0 00-.393.513.8443.8443 0 00.084.641l4.113 5.752c.122.181.298.318.504.39.222.05.453.015.651-.097a.8479.8479 0 00.384-.517.85.85 0 00-.092-.637l-4.097-5.736a.8639.8639 0 00-.504-.39.5428.5428 0 00-.227 0 .778.778 0 00-.423.114M326.581 247.054a.9201.9201 0 00-.504.39l-3.788 5.313a.8448.8448 0 00-.084.641c.057.216.199.401.393.513.194.112.424.142.641.084a.8452.8452 0 00.513-.393l3.788-5.313a.8289.8289 0 00.083-.633.8419.8419 0 00-.145-.292.842.842 0 00-.247-.213.8223.8223 0 00-.439-.13h-.211M234.112 171.124a.9328.9328 0 00-.504.39l-4.291 6.012a.841.841 0 00-.092.637c.055.216.193.402.384.517.097.057.205.094.317.108.112.014.225.005.333-.027a.9068.9068 0 00.504-.374l4.292-6.028a.7976.7976 0 00.113-.306.8096.8096 0 00-.159-.618.8098.8098 0 00-.246-.213.8647.8647 0 00-.439-.13h-.212M247.832 173.025a.8452.8452 0 00-.393.513.8448.8448 0 00.084.641l3.756 5.248c.119.183.297.32.504.39.108.031.221.04.333.026.112-.014.22-.05.317-.107a.8452.8452 0 00.393-.513.8443.8443 0 00-.084-.641l-3.756-5.265a.9898.9898 0 00-.504-.389h-.227a.777.777 0 00-.423.113M268.316 171.985a.9328.9328 0 00-.504.39l-3.544 4.956-.65.927a.8418.8418 0 00-.084.64c.058.217.199.401.393.513.094.058.199.095.308.109.11.014.22.004.326-.028a.9707.9707 0 00.52-.39l.634-.893 1.415-1.983 2.113-2.973a.8362.8362 0 00.108-.306.8427.8427 0 00-.018-.324.8241.8241 0 00-.141-.292.8344.8344 0 00-.242-.216.821.821 0 00-.422-.13h-.228" fill="#F77849"/><path d="M246.923 171.693a.8405.8405 0 00-.384.517.845.845 0 00.091.637l3.69 5.183c.128.182.31.319.521.39.108.032.221.041.333.027.112-.014.22-.051.317-.108.191-.115.329-.3.384-.517a.841.841 0 00-.092-.637l-3.69-5.183a.941.941 0 00-.52-.39h-.211c-.153.005-.303.044-.439.114M279.711 171.368a.85.85 0 00-.252.214.8457.8457 0 00-.148.297.8545.8545 0 00-.02.33c.016.111.054.217.112.312l3.836 5.379c.117.185.295.323.504.39.22.048.45.02.65-.082a.8427.8427 0 00.309-1.153c-1.284-1.804-2.568-3.591-3.836-5.395-.128-.181-.31-.318-.521-.39h-.13a.7856.7856 0 00-.422.114M302.878 167.224a.8618.8618 0 00-.503.39l-6.389 8.953a.8787.8787 0 00-.08.647c.058.218.197.405.388.523.199.109.432.138.651.082a.9328.9328 0 00.504-.39l6.372-8.937a.841.841 0 00.092-.637.8479.8479 0 00-.384-.517.817.817 0 00-.439-.114h-.212zM320.859 184.887c0 .081-.146.178-.228.276l-.471.552-.081.098c-.214.296-.41.606-.586.926-.357.552-.715 1.121-1.04 1.706a.8443.8443 0 00-.084.641c.058.216.199.401.393.513.095.055.2.09.308.105a.8274.8274 0 00.617-.168.838.838 0 00.213-.246c.325-.552.666-1.089 1.008-1.625.162-.292.357-.585.536-.861.163-.195.342-.39.504-.601l-.081.113.146-.178a.8607.8607 0 000-1.186.8775.8775 0 00-.618-.244.7724.7724 0 00-.318.06.7698.7698 0 00-.267.184M310.877 168.443a.8476.8476 0 00-.243.594c0 .222.087.435.243.593.276.292.537.585.813.861l.894.829c.52.519 1.105.958 1.626 1.446.52.487.829.747 1.268 1.088.435.33.837.7 1.203 1.105.078.08.172.143.275.186a.8504.8504 0 00.652 0 .8456.8456 0 00.276-.186c.152-.157.24-.366.244-.585a.9151.9151 0 00-.244-.601 7.2787 7.2787 0 00-1.154-1.072c-.439-.342-.862-.715-1.285-1.089-.422-.374-1.121-.91-1.625-1.414l-.895-.845c-.308-.292-.585-.601-.877-.91a.7703.7703 0 00-.259-.182.7525.7525 0 00-.31-.061.8809.8809 0 00-.618.243M309.592 228.563a.821.821 0 00-.19.266.8001.8001 0 00-.07.319c.011.226.103.44.26.602.275.356.568.697.878 1.023.244.26.504.504.732.78.227.276.812.975 1.235 1.43.423.455.748.748 1.122 1.154.374.406.861.975 1.333 1.413.159.152.371.235.59.233.22-.002.43-.089.586-.243a.8469.8469 0 00.252-.583.8457.8457 0 00-.225-.593c-.472-.438-.878-.926-1.301-1.381-.422-.455-.764-.764-1.138-1.154-.374-.389-.812-.958-1.219-1.429-.406-.472-.488-.52-.731-.764-.244-.244-.635-.715-.927-1.073a.752.752 0 00-.273-.19.7525.7525 0 00-.329-.053.829.829 0 00-.585.243zM311.104 247.445a.8269.8269 0 00-.252.215.8247.8247 0 00-.148.296.8212.8212 0 00-.02.331c.016.11.053.216.111.312.325.438.683.877 1.024 1.316l-.13-.163c.515.782 1.091 1.521 1.723 2.21.342.358.7.699 1.041 1.04l.52.536c.138.154.285.301.439.439.163.127.366.19.572.178a.847.847 0 00.547-.246c.146-.146.233-.34.246-.546a.8478.8478 0 00-.178-.572c-.212-.195-.423-.423-.618-.634l-.748-.764c-.244-.243-.504-.471-.731-.715l-.569-.682c-.179-.228-.342-.471-.504-.699-.163-.227-.504-.666-.764-.991l-.407-.569a.9863.9863 0 00-.504-.39h-.227a.8216.8216 0 00-.423.13" fill="#F77849"/><path d="M305.43 201.054c-.459 18.002.313 36.015 2.309 53.913h1.625a398.2248 398.2248 0 01-2.292-53.913.8618.8618 0 00-.252-.593.8592.8592 0 00-.593-.252.8453.8453 0 00-.846.845M259.359 68.1557a.8246.8246 0 00-.244.5849 7.9895 7.9895 0 01-.52 1.7386 44.7208 44.7208 0 01-2.309 4.3547c-.39.6987-.748 1.3974-1.073 2.1286-.334.6955-.59 1.4257-.764 2.1773a4.886 4.886 0 000 1.9498c.129.6576.459 1.2592.943 1.7224.27.273.577.5081.91.6987.397.2118.81.3911 1.236.5362a9.333 9.333 0 001.772.4062h.845c.371-.0129.74-.0509 1.106-.1137a.8168.8168 0 00.292-.1436.8288.8288 0 00.212-.2464.8339.8339 0 00.081-.6499.8603.8603 0 00-.39-.5037.9917.9917 0 00-.65-.0813h-.098a8.441 8.441 0 01-1.284 0 11.2497 11.2497 0 01-1.756-.4874 4.8505 4.8505 0 01-.845-.4713l-.407-.4062a4.1207 4.1207 0 01-.211-.3574 3.6073 3.6073 0 01-.13-.455 6.0814 6.0814 0 010-.7637c.106-.608.281-1.2021.52-1.7711.715-1.6249 1.626-3.1523 2.52-4.7121.413-.7496.787-1.5197 1.122-2.3074.13-.3575.26-.6987.373-1.0724.109-.3994.185-.807.228-1.2187a.7787.7787 0 00-.056-.3271.7739.7739 0 00-.188-.2741.8273.8273 0 00-.276-.1831.8266.8266 0 00-.325-.0606.799.799 0 00-.586.2437l-.048.0651zm-1.642 14.1039h.097-.097zM254.06 87.5404h-.147a4.8763 4.8763 0 00-2.503.8612 4.56 4.56 0 00-1.626 1.9011 6.2694 6.2694 0 000 4.7609c.15.3735.324.7371.52 1.0887.193.3303.41.6453.65.9424a8.2343 8.2343 0 001.805 1.6249c.63.4254 1.3.7899 2 1.0886.804.3328 1.636.5938 2.487.7798 1.68.376 3.41.469 5.121.276 1.67-.159 3.296-.627 4.796-1.3807a9.4606 9.4606 0 001.885-1.2837 7.5716 7.5716 0 001.626-1.9011c.374-.5771.659-1.207.845-1.8686a5.3068 5.3068 0 00.195-2.0473 5.0074 5.0074 0 00-.592-1.9143 5.0292 5.0292 0 00-1.293-1.5305 6.5065 6.5065 0 00-3.918-1.3324h-.472a9.6367 9.6367 0 00-3.462 1.1862l-1.22.5687-.422.1625h-.212a6.9101 6.9101 0 01-1.414-.4063l-1.089-.5037-1.138-.5361a6.5102 6.5102 0 00-2.504-.5688l.082.0325zm6.649 11.6829a16.5418 16.5418 0 01-2-.13 15.3953 15.3953 0 01-3.121-.8124l-.504-.2438c.3-.3386.626-.6536.975-.9424a7.9537 7.9537 0 011.626-.9262 9.4652 9.4652 0 011.739-.455h1.041c.38.0034.76.0306 1.138.0813.606.0923 1.2.2502 1.772.4712a9.0085 9.0085 0 011.463.8287c.408.3265.779.6971 1.105 1.1049l-.26.1625c-.997.4035-2.04.6818-3.105.8287-.62.0783-1.244.1163-1.869.1137M239.575 79.3025c2.227 0 4.031-2.5023 4.031-5.6058 0-3.1036-1.804-5.6059-4.031-5.6059-2.228 0-4.032 2.5186-4.032 5.6059 0 3.0872 1.804 5.6058 4.032 5.6058zM282.362 78.4577c-2.227 0-4.032-2.5023-4.032-5.6058 0-3.1035 1.805-5.6058 4.032-5.6058 2.227 0 4.031 2.5186 4.031 5.6058 0 3.0873-1.804 5.6058-4.031 5.6058zM284.444 52.3624c1.048.1494 2.07.4391 3.04.8612.914.4257 1.767.9722 2.536 1.6249.386.2989.75.6247 1.089.9749.383.3864.731.805 1.041 1.2512a.787.787 0 01.108.3081.7794.7794 0 01-.027.3256.8195.8195 0 01-.142.2998.8264.8264 0 01-.248.2202.8624.8624 0 01-.634 0 .972.972 0 01-.52-.3901l-.082-.1137a10.7612 10.7612 0 00-1.625-1.6249 11.7841 11.7841 0 00-2.39-1.3973c-.724-.285-1.476-.492-2.243-.6175a8.1354 8.1354 0 00-1.626 0l-.602.0975a.8276.8276 0 01-.328.0222.8356.8356 0 01-.311-.1069.8454.8454 0 01-.245-.2193.84.84 0 01-.14-.2972.8453.8453 0 01.091-.6352.8433.8433 0 01.511-.3885 8.6642 8.6642 0 011.82-.195h1.008" fill="#2C2C2C"/><path d="M257.603.9348a74.3753 74.3753 0 00-13.33 1.17 51.299 51.299 0 00-8.129 2.161 54.4886 54.4886 0 00-11.38 5.7196 64.667 64.667 0 00-10.095 8.2218 69.1965 69.1965 0 00-8.356 10.123 61.5716 61.5716 0 00-6.064 11.3741 56.9425 56.9425 0 00-3.576 13.6815c-1.317 9.6355-.586 19.4985.146 28.9553l.179 2.486c.406 5.3459.683 9.8467.699 14.4614a121.0428 121.0428 0 01-.537 15.1605c-.127.809-.295 1.612-.504 2.404l-.195.845a16.2244 16.2244 0 00-.487 3.689c.017.517.099 1.03.243 1.527.163.525.447 1.004.83 1.398.715.735 1.662 1.2 2.682 1.316h.634c.811-.02 1.613-.174 2.373-.455 1.067-.402 2.074-.949 2.992-1.625.92-.653 1.775-1.393 2.552-2.21l.471-.504v1.999c0 .455 0 1.284.082 1.917v.634c0 1.479.162 3.25.357 4.972.176 1.767.497 3.517.96 5.232a15.478 15.478 0 002.015 4.566 9.0062 9.0062 0 003.593 3.152 8.719 8.719 0 002.683.764h.78c.748-.011 1.494-.093 2.227-.244.971-.201 1.919-.5 2.829-.893 1.008-.407 1.99-.873 2.942-1.398.943-.503 1.87-1.04 2.796-1.625.927-.585 1.626-.926 2.358-1.365 1.398-.763 2.975-1.511 4.877-2.323l.13-.114c3.412-1.354 6.896-2.52 10.437-3.493-.131.167-.245.347-.342.536l-.146.276c-.326.57-.695 1.113-1.106 1.625a22.3303 22.3303 0 01-3.706 3.591 67.6006 67.6006 0 01-9.478 5.59l-1.43.747c-1.984 1.024-3.788 2.031-5.479 3.087-1.691 1.056-3.544 2.324-5.218 3.575a68.3154 68.3154 0 00-9.169 8.271 65.6705 65.6705 0 00-13.006 20.863 97.8389 97.8389 0 00-4.015 13.243 175.1733 175.1733 0 00-4.39 30.044c-.308 5.183-.406 10.626-.276 16.151 0 2.453.195 5.069.374 7.783.098 1.284.195 2.567.309 3.835.114 1.267.211 2.08.341 3.103h1.724c-.212-1.868-.358-3.737-.504-5.492-.147-1.755-.244-3.558-.342-5.346-.179-3.672-.244-7.442-.179-11.195.098-7.387.641-14.761 1.626-22.082.764-5.622 1.788-11.13 3.04-16.363 1.12-4.948 2.631-9.8 4.519-14.51a67.6641 67.6641 0 018.584-14.624 64.0548 64.0548 0 016.974-7.604c3.1 2.831 6.508 5.306 10.161 7.377a65.3802 65.3802 0 0012.826 5.524 74.477 74.477 0 0013.494 2.795c2.748.298 5.51.449 8.274.455 1.626 0 3.431 0 5.186-.178a71.142 71.142 0 0022.093-5.021l.195-.082.781-.308c2.352-1 4.643-2.14 6.86-3.413 1.122-.633 2.244-1.332 3.495-2.161l.163-.113.146-.098.65-.455.261-.179c.796-.568 1.479-1.072 2.145-1.624l.147-.114.244-.179.162-.146.163-.13.146-.146.146-.098.147-.114.146-.113c.079-.072.14-.161.179-.26a75.3967 75.3967 0 015.625 6.369 66.5192 66.5192 0 018.535 14.624 96.7483 96.7483 0 014.568 14.624c1.251 5.232 2.276 10.74 3.04 16.362.987 7.322 1.53 14.696 1.625 22.082 0 3.754 0 7.524-.195 11.196-.081 1.787-.195 3.575-.325 5.346s-.292 3.542-.536 5.459h1.723c.179-1.056.276-2.096.358-3.136.081-1.04.227-2.551.308-3.834.196-2.714.309-5.33.391-7.784.13-5.524 0-10.968-.277-16.151a176.7163 176.7163 0 00-4.389-30.044 97.7435 97.7435 0 00-4.016-13.243 66.457 66.457 0 00-13.005-20.863 68.4445 68.4445 0 00-9.169-8.271c-1.626-1.251-3.414-2.453-5.218-3.574-1.805-1.121-3.495-2.064-5.479-3.088l-1.43-.747a65.8319 65.8319 0 01-9.478-5.59 22.1296 22.1296 0 01-3.69-3.574 14.349 14.349 0 01-1.122-1.625c-.277-.504-.537-1.008-.764-1.528a23.129 23.129 0 01-1.35-5.004c2.946-.841 5.84-1.856 8.665-3.039 2.164-.917 4.27-1.965 6.308-3.136a47.3856 47.3856 0 005.283-3.574 61.1792 61.1792 0 0016.127-19.6451 99.7732 99.7732 0 003.17-6.6133l.488-.2112a11.653 11.653 0 005.202-4.7446 14.498 14.498 0 001.935-6.6133 13.6443 13.6443 0 00-1.22-6.4995c-.194-.3913-.411-.771-.65-1.1374.342-1.6248.667-3.4447.943-5.2159.509-3.3323.834-6.69.975-10.0579a57.894 57.894 0 00-.438-10.0742 33.3644 33.3644 0 00-2.488-9.0669 21.275 21.275 0 00-3.658-5.362 17.3703 17.3703 0 00-5.202-3.916 26.7011 26.7011 0 00-3.056-7.8156 28.3411 28.3411 0 00-5.43-6.6458 43.8002 43.8002 0 00-15.769-8.8718 73.187 73.187 0 00-19.02-3.5585c-1.724-.1137-3.414-.1624-5.007-.1624l-.017-.0488zm30.628 47.1701a12.6392 12.6392 0 002.244-.2437 13.9746 13.9746 0 003.495-1.1699 17.8918 17.8918 0 003.69-2.4048 25.2776 25.2776 0 004.081-4.3384c-.163 1.6248-.342 3.4447-.521 5.1508-.536 5.0046-1.073 10.1067.26 15.0788a9.263 9.263 0 001.74 3.5423c.428.5024.993.8694 1.626 1.0562-.098 1.1049-.179 2.2585-.293 3.3797v.1787c-.081.7475-.179 1.4949-.276 2.2423-.098.7475-.147 1.0724-.244 1.6249a72.3256 72.3256 0 01-3.821 14.1852l-.146.3412v.2437l-.13.2763-.228.5687v.1787c-.601 1.4299-1.235 2.7785-1.999 4.2571l-.211.4225-.082.1463-.146.2762-.098.2113-.13.1949-.146.2762-.081.1463-.179.3087-.244.4225-.146.2762-.098.1625-.146.2438-.081.1624-.098.195-.162.2112-.147.26-.097.1462-.163.26-.081.1625-.163.26-.097.13-.179.26-.13.2112-.114.2112-.13.1788-.146.2275-.163.2437-.195.26-.114.1625-.162.2437-.114.1625-.146.2274-.147.1788-.146.2112-.13.1791-.163.211-.13.179-.146.211-.146.179-.163.211-.114.162a50.7888 50.7888 0 01-8.681 8.742 44.0604 44.0604 0 01-8.827 5.216l-.147.081a39.3365 39.3365 0 01-8.242 2.34l-.715.114c-1.617.217-3.246.325-4.877.325-1.024 0-2.032 0-3.008-.13H256.839l-.861-.13h-.212a42.0944 42.0944 0 01-4.633-.991h-.228l-.26-.098c-.959-.276-1.918-.601-2.893-.975l-.228-.097h-.179l-.439-.179a40.94 40.94 0 01-4.714-2.389l-.244-.146-.211-.13-.326-.195-.243-.146-.277-.163-.162-.13-.244-.146-.293-.195c-.829-.552-1.625-1.105-2.341-1.625a50.9028 50.9028 0 01-7.998-7.88l-.342-.423-.325-.422a54.669 54.669 0 01-3.365-4.8748c.067-4.3203.612-8.62 1.626-12.8202a54.415 54.415 0 015.023-12.7391v-.1787a62.2642 62.2642 0 019.624-12.6415l-.211.1137 2.926-2.7136a7.2605 7.2605 0 00-.358 2.3399c.045.3807.127.7561.244 1.1211.124.3796.299.7404.521 1.0725.206.3504.469.6636.78.9261.397.3512.84.6464 1.317.8774.656.3423 1.365.573 2.097.6825.488.0884.983.1319 1.479.13h.846a18.7564 18.7564 0 004.877-1.1049 38.2411 38.2411 0 005.153-2.2261c1.788-.9099 3.512-1.9011 4.796-2.681 1.284-.78 2.568-1.6249 3.836-2.3886 2.163-1.3811 4-2.6323 5.641-3.8347a86.454 86.454 0 007.219-5.8658 1.6001 1.6001 0 000 .7474c.096.395.273.7657.52 1.0887.281.3735.628.6928 1.024.9424.358.2076.74.3713 1.138.4875.489.1355.99.2226 1.496.26h.731l.065-.0813zm17.005 26.7617c.276-1.4299.504-2.876.715-4.4359a12.1726 12.1726 0 011.951-.4712 7.7036 7.7036 0 011.057 0c.276-.0162.553-.0162.829 0a6.998 6.998 0 011.625.4062c.433.2129.847.4629 1.236.7475a6.675 6.675 0 011.122 1.1211c.467.5889.85 1.2396 1.138 1.9336.376.9446.633 1.9327.764 2.9411a15.8983 15.8983 0 010 3.2497 15.3883 15.3883 0 01-.894 3.3472 13.1533 13.1533 0 01-1.431 2.4861 11.6477 11.6477 0 01-1.837 1.8523 10.85 10.85 0 01-2.097 1.2187c-.896.377-1.835.6391-2.796.7799H304.732a14.4563 14.4563 0 01-1.626-.0974 10.839 10.839 0 01-2.016-.5363l-.276-.1299c.618-1.3324 1.219-2.8436 1.788-4.436a70.308 70.308 0 002.341-8.1244h.146a.7014.7014 0 00.391-.0974l.341-.1463a8.5626 8.5626 0 011.626-.4874c.298-.0162.596-.0162.894 0h.699a7.917 7.917 0 011.447.3737c.454.2111.889.4612 1.3.7475l.147.1137c.077.0819.17.1472.274.1919a.8258.8258 0 00.327.0681c.23.001.451-.0863.618-.2438a.9553.9553 0 00.202-.3225.9455.9455 0 00.058-.3762.8152.8152 0 00-.26-.5524 7.158 7.158 0 00-2.114-1.2837 7.4143 7.4143 0 00-2.162-.4874h-.569a7.7002 7.7002 0 00-1.625.1787 8.6265 8.6265 0 00-1.398.4225l-.049.0487zm-71.481 85.8424h-.163a63.3251 63.3251 0 01-6.048-2.974 62.0016 62.0016 0 01-6.145-3.981l-.179-.113a78.9826 78.9826 0 0110.584-6.711l2.357-1.235a68.3189 68.3189 0 008.681-5.053 23.6296 23.6296 0 004.536-4.176 15.004 15.004 0 001.528-2.259c.473-.846.87-1.732 1.187-2.649a25.5238 25.5238 0 001.251-5.865c.215-2.062.269-4.137.163-6.207v-.715c2.881.76 5.848 1.142 8.827 1.137 1.703-.005 3.403-.124 5.089-.357l1.024-.163 1.853-.341v.439c-.106 2.07-.052 4.145.163 6.207.195 1.996.615 3.963 1.252 5.865.318.913.71 1.799 1.17 2.649.445.798.962 1.554 1.544 2.259a23.6296 23.6296 0 004.536 4.176 68.0727 68.0727 0 008.649 5.037l2.39 1.251a76.7566 76.7566 0 0110.469 6.646l1.317 1.056-.195.081-.147.097-.146.098-.146.097-.195.147c-.764.503-1.431.942-2.114 1.365l-.244.162-.39.211-.227.147-.244.13a65.2482 65.2482 0 01-7.056 3.558h-.162a71.5779 71.5779 0 01-17.265 4.68c-3.342.434-6.709.656-10.079.666-3.262.005-6.521-.207-9.754-.634a66.272 66.272 0 01-3.626-.585c-4.789-.88-9.47-2.27-13.964-4.143h-.081zm.308 6.093h-.178a61.0729 61.0729 0 01-12.892-7.474c-1.122-.862-2.227-1.788-3.251-2.73l.471-.374 1.739-1.462c.228.211.488.406.764.617a60.524 60.524 0 006.162 3.965 68.7423 68.7423 0 0020.483 7.296c4.484.823 9.032 1.247 13.591 1.267h.309c4.393-.007 8.778-.399 13.103-1.17a66.9652 66.9652 0 0021.784-7.783l.325-.26.212-.114.178-.114.277-.162.227-.13.212-.13c.796-.487 1.463-.91 2.129-1.365l.212-.13.146-.114.179-.113.163-.13.227-.147.293-.195.211-.178c.797.715 1.626 1.446 2.39 2.177a.3929.3929 0 00-.212.13l-.13.097-.146.147-.325.243-.163.13-.146.114-.227.179-.244.195-.13.13-1.025.747-.536.374-.293.195-.26.195-.162.13-.163.098c-1.317.877-2.52 1.624-3.788 2.388a72.973 72.973 0 01-6.584 3.25l-.195.081-.325.146a71.5318 71.5318 0 01-17.444 4.631 73.977 73.977 0 01-9.754.634 75.9282 75.9282 0 01-9.949-.666 69.8098 69.8098 0 01-17.265-4.599v-.016z" fill="#2C2C2C"/></g><defs><clipPath id="clip0"><path fill="#fff" d="M0 0h330v255H0z"/></clipPath></defs></svg>