<svg width="283" height="130" fill="none" xmlns="http://www.w3.org/2000/svg"><path d="M138.239 10.0127a6.9721 6.9721 0 00-1.116 0c-.367.0599-.75.0824-1.154.1424l-.262.0374c-.33.045-.66.0974-.989.1724l-.705.1723-.599.1498-.165.075-.442.1048h-.09c-.187.045-.367.09-.547.1499l-.554.1873h-.367a2.4098 2.4098 0 00-.457.1199c-.188.0674-.36.1423-.54.2248-.39.1798-.749.3821-1.139.5919l-.307.1648c-.225.1274-.45.2473-.667.3821-.217.1349-.547.3447-.809.5245l-.195.1349-.097.0674c-.285.1873-.577.3821-.862.5844a8.1564 8.1564 0 00-.682.5619l-.135.1199a14.8268 14.8268 0 00-1.573 1.5734c-.232.2847-.464.5695-.674.8617l-.292.4195-.293.4196-.607.8691c-.119.1874-.254.3672-.382.5395l-.217.2997-.405.5544a47.819 47.819 0 00-.876 1.2213c-.188.2772-.382.562-.585.8392-.112.1573-.239.3147-.359.4645l-.218.2772c-.387.4999-.8.98-1.236 1.4386l-.344.3671c-.329.368-.676.7182-1.042 1.049l-.067.0749c-.173.1274-.36.2847-.555.4345l-.202.1649-.854.6968c-.3.2322-.615.442-.922.6518l-.921.6219-.75.457-.277.1649-.974.5994-.614.3671-.42.2622c-.344.2098-.674.4271-1.004.6519l-1.034.6668c-.359.2248-.749.4571-1.071.6968-.322.2398-.749.532-1.094.8092a5.812 5.812 0 00-.749.6818.349.349 0 00-.143.0244.3476.3476 0 00-.12.0805c-.149.1648-.299.3297-.449.4795l-.195.2023-.419.3896a2.5684 2.5684 0 00-.345.4646c-.247.2922-.465.5394-.674.8092l-.39.5619-.187.2772-.083.1124c-.367.5395-.749 1.0939-1.064 1.6708-.142.2697-.284.5395-.419.8167s-.2925.6593-.4274.9965a42.5869 42.5869 0 00-.3746.974c-.1199.3222-.1948.6219-.2772.9291l-.06.2098c-.0674.2472-.1348.4945-.1873.7492a11.259 11.259 0 00-.1873 1.1688c-.0449.4196 0 .562-.0449.8467v1.0864c.0107.3613.0432.7216.0974 1.0789.0299.3255.0824.6484.1573.9665.0192.133.0597.262.1199.3822l.0674.2247c.0824.2473.1649.502.2548.7493.0688.2026.1566.3983.2622.5844l.1573.3371.2244.4721c.068.1573.135.3147.21.4645.075.1499.165.3072.255.457l.09.1424c.105.1948.225.3896.33.5919l.224.4421.105.2247c.21.4346.435.8617.652 1.2887.217.4271.337.6968.502 1.049l.112.2472c.156.3853.277.7841.36 1.1913l.09.3747c.052.1873.097.3821.135.5769.007.1272.007.2548 0 .3821v.9291c-.015.134-.04.2667-.075.3971l-.053.2697-.044.2398-.068.3446c-.045.2622-.097.517-.15.7493l-.09.3971a6.0218 6.0218 0 01-.142.6368c-.09.3263-.2.6466-.33.959a4.8731 4.8731 0 01-.367.6369c-.082.1349-.15.2473-.21.3596-.06.1124-.157.2698-.239.3971-.18.2698-.353.547-.51.8317-.09.1574-.172.3297-.255.4945l-.217.4271-.367.6818c-.1873.3746-.3747.7492-.5844 1.1089l-.4196.7043-.0675.1199-.2172.3671c-.1049.1798-.2098.3596-.3072.5394-.1798.3222-.3447.6594-.5095.989l-.0674.1424-.1049.2173-.1424.3072a.398.398 0 000-.1873.3892.3892 0 00-.3222-.2098h-.1273c-.2248.0524-.3072.2622-.3747.4495-.0674.1873-.1423.3896-.1948.5545-.1199.3821-.2098.7492-.2997 1.1538a14.2495 14.2495 0 00-.3147 1.7757v.2098a5.7173 5.7173 0 01-.0974.5919 17.3128 17.3128 0 00-.1573 2.3302c-.0051.4405.0174.8809.0674 1.3187 0 .2697.045.5469.06.8241s.0749.7493.1273 1.1314c.0598.3837.15.762.2698 1.1314.1028.3736.2331.7393.3896 1.0938.1561.3173.3391.6206.5469.9066.2168.3143.4681.6034.7493.8617l.2322.2172.1499.1274.1274.1199.2622.2398a6.612 6.612 0 001.7762 1.1463 5.459 5.459 0 001.018.3522l.57.1348.547.1274.599.1573.405.1049.382.0825.195.0449c.216.0399.428.095.637.1648.2.1004.393.2156.577.3447.183.1498.358.3099.524.4795l.15.1648.165.1649c.142.1423.292.2772.442.4121.08.0675.18.107.284.1123a.3804.3804 0 00.27-.1123.4401.4401 0 00.083-.1124c.149.1573.307.3221.457.502.157.2068.3.4246.427.6518.115.1865.24.3666.374.5395l.083.1199c.303.4707.555.9731.749 1.4984.082.2098.157.4196.232.6294.114.3573.254.7055.42 1.0415.053.1243.116.2446.187.3596l.045.0824.045.0899c.045.0824.09.1649.142.2473.142.2267.297.4444.465.6518.136.1789.289.3444.457.4945.225.1948.457.3896.689.5695.239.1835.489.3512.75.502.208.118.426.2182.651.2997l.143.0524c.218.1033.426.2262.622.3671.06.053.137.0823.217.0824a.453.453 0 00.36-.2023.4048.4048 0 00.033-.161.405.405 0 00-.033-.1611c.149-.3522.314-.7493.449-1.1464l.135-.427c.067-.2398.135-.4646.225-.6969.157-.3746.277-.6967.382-1.0264l.067-.2023c.083-.2548.158-.5095.255-.7493a30.5355 30.5355 0 011.753-3.5814c.36-.6143.75-1.2212 1.102-1.8356.299-.4945.622-.9815.966-1.446l-.112-.1874.21-.2023c.187-.1873.367-.3821.547-.5769l.074-.0824.465-.4795.142-.1574c.113-.1198.225-.2397.345-.3521l.277-.2772.517-.5095.869-.9066c0-.0662.024-.1302.068-.1798a.3.3 0 01.097-.06h.06a.1927.1927 0 01.069-.0819.1898.1898 0 01.103-.0305.2.2 0 01.115.0381.202.202 0 01.073.0968l.569-.4495c.247-.2023.487-.3971.749-.5994.263-.2023.413-.3447.622-.5095l.54-.3971.637-.472c.284-.2248.577-.4346.876-.6444.3-.2098.577-.4196.884-.6069.308-.1873.592-.3371.892-.502.3-.1648.667-.3746.996-.5769.188-.1124.368-.2472.547-.3746l.323-.2248.067-.0599h.082c.184-.0095.364-.0527.532-.1274.226-.0757.446-.1658.66-.2697.289-.145.569-.3076.839-.487l.337-.1724c.187-.1049.367-.2173.547-.3296l.157-.0975c.472-.2945.927-.6146 1.364-.959l.689-.5544.315-.2623c.142-.1348.277-.2547.277-.4495l.098-.1499.142-.2622.135-.2622c.112-.1873.232-.3747.352-.5545a6.547 6.547 0 00.24-.3821c.075-.1274.217-.3447.314-.5245.106-.2414.189-.4922.248-.7492.082-.3372.164-.6818.224-1.019.06-.3372.135-.7492.195-1.0939.06-.3446.113-.7492.143-1.1314a8.7044 8.7044 0 000-1.0714 1.8476 1.8476 0 00-.165-.6818 1.6106 1.6106 0 00-.292-.4121.5657.5657 0 00-.315-.1348.3213.3213 0 00-.113-.1499 1.3759 1.3759 0 00-.367-.1798h-.09l-.217-.0899-.225-.0824-.749-.3222c-.502-.2323-.981-.502-1.498-.7493a12.259 12.259 0 01-1.289-.8466c-.465-.3596-.922-.7493-1.371-1.1089-.27-.2248-.532-.457-.794-.6968l-.45-.3971c-.382-.3372-.749-.6743-1.109-1.034-.359-.3596-.891-.9965-1.453-1.7007l-.352-.4346-.345-.4945c-.195-.2398-.375-.487-.555-.7493l-.187-.2622a.4272.4272 0 00-.143-.1148.4218.4218 0 00-.179-.0425h-.097c-.12-.1948-.248-.4046-.368-.6144l-.045-.06a22.4945 22.4945 0 01-.562-1.0939 7.111 7.111 0 01-.404-1.1613v-.1648a.398.398 0 00-.158-.1836.398.398 0 00-.235-.0576.394.394 0 00-.225.0898.394.394 0 00-.131.2038l-.54.0675-.247.0449a2.474 2.474 0 01-.465.0674l-.614-.0449h-.217a5.4369 5.4369 0 01-.989-.1573c-.3-.09-.6-.1949-.892-.2997a5.5669 5.5669 0 01-.809-.3597 7.0423 7.0423 0 01-1.259-1.004l.068.0824a4.8833 4.8833 0 01-.607-.8166 5.5268 5.5268 0 01-.502-1.2363 7.0278 7.0278 0 01-.143-1.0414v-.2923-.5919a5.338 5.338 0 01.06-.5919l.045-.3821v-.2098c.014-.2518.047-.5022.098-.7492.037-.1049.075-.2173.12-.3222l.067-.1648.052-.1649c.039-.1363.089-.2691.15-.3971l.09-.1124.367-.3371c.195-.1798.39-.3522.577-.5395l-.082.06c.232-.1959.483-.3691.749-.517a3.897 3.897 0 01.667-.2323h.435c.304.0226.605.0753.899.1574.115.0325.228.0751.337.1273l.112.0675.472.2997.337.2322.203.1499c.092.0637.19.1189.292.1648l.097.045c.049.015.101.015.15 0a.3458.3458 0 00.308-.1189.3519.3519 0 00.075-.1531.3627.3627 0 00-.008-.1701h.112c.332-.0414.662-.0989.989-.1723h.187c.168-.0098.334-.04.495-.0899l.539-.1424c.293-.0824.577-.1798.855-.2847.331-.1283.654-.2785.966-.4495.315-.1649.622-.3447.922-.5395l.075-.0524c.261-.171.511-.3587.749-.562l.09-.0674c.247-.2023.494-.3971.749-.6144.233-.2109.456-.4334.667-.6668l.09-.0974.224-.2323.45-.4645.135-.1499c.187-.2023.374-.3971.547-.6069.196-.2355.374-.486.532-.7492.105-.1499.217-.2847.329-.4196l.15-.1948c.128-.1498.248-.3072.382-.4495.135-.1424.383-.3971.585-.5844l.082-.075.3-.2772.405-.3671c.075-.0754.158-.1432.247-.2023l.322-.2023c.202-.1199.42-.2323.629-.3447a7.6337 7.6337 0 011.559-.5769h-.105c.592-.0974 1.364-.2323 2.158-.3147.344 0 .682-.0449 1.019-.0524.337-.0075.614-.045.921-.0749h3.379l.338-.0375h.157l.554-.0824c.328-.0542.652-.1344.967-.2398.228-.0839.448-.1867.659-.3072l.487-.3296.12-.0825c.255-.1948.51-.3971.749-.6143.365-.3361.699-.7048.997-1.1014.239-.3101.462-.6328.667-.9666l.157-.2697c.135-.2248.262-.457.382-.6968.136-.3033.249-.6164.337-.9366.039-.1297.067-.2625.083-.3971 0-.1573 0-.3146.045-.4795.045-.1648 0-.3371.052-.5095v-.6893c.016-.1247.044-.2476.082-.3671a.81.81 0 01.068-.1573c.175-.2478.396-.459.652-.6219l.202.2023.097.0974c.248.2248.443.4121.652.5769a9.364 9.364 0 001.117.7493l.254.1423.27.1499.285.1723c.127.0824.247.1573.374.2248l1.387.7492.472.2473.337.2023.24.1423.209.1199.308.1798c.142.0899.284.1873.419.2922.131.1163.252.2442.36.3821l.052.0525c.135.1548.27.3197.405.4945.11.1689.21.344.299.5245.12.2322.225.4645.323.7042.081.2281.148.4608.202.6968l.135.7493v3.1019c0 .3821.045.7492.075 1.1463v.562c0 .4045.052.8016.09 1.2062.06.5109.158 1.0168.292 1.5135.075.2697.157.5395.255.8092.046.1514.104.2992.172.4421l.195.3671c.152.2647.328.5155.524.7492.068.075.135.1574.21.2323.098.0979.188.2031.27.3147a.4377.4377 0 00.097.3147.3594.3594 0 00.292.1348h.105a.3467.3467 0 00.173-.0449.3516.3516 0 00.157-.1574h.367l.232-.0599.315-.045h.517c.114.0288.224.069.33.1199.236.1289.461.2767.674.4421l.082.0599.457.3522c.363.3524.694.736.989 1.1463.255.4285.468.8801.637 1.3487.076.2693.126.5453.15.8241 0 .4789-.052.9564-.157 1.4236a6.9403 6.9403 0 01-.532 1.5809c-.105.1948-.225.3821-.337.5619-.12.1914-.253.3741-.397.547a3.3593 3.3593 0 01-.66.5769l-.15.1124-.562.3896c-.212.1116-.436.202-.666.2697l-.21.075-.36.1273-.554.2023a6.7989 6.7989 0 01-1.499.2398 2.5122 2.5122 0 01-.674-.0749h-.307l-.375-.0974-.217-.0899h-.083a.4509.4509 0 00-.142 0 .495.495 0 00-.322.1123.9656.9656 0 00-.247.3522c-.053.1124-.105.2248-.165.3371-.06.1124-.113.2473-.173.3672a.3572.3572 0 00-.059.1199c-.06.1123-.09.1798-.128.2397-.135.2623-.247.4945-.359.7493-.113.2547-.218.4495-.338.6818-.179.3521-.359.6743-.539.989-.18.3147-.367.5919-.562.8916l-.097.1423c-.203.3147-.428.6219-.652.9216a9.0048 9.0048 0 01-.75.8841c-.277.2922-.584.5844-.891.8542l-.322.2772c-.203.1798-.412.3596-.63.532a9.1613 9.1613 0 01-.749.5319l-.405.2922-.359.2623-.09.0674c-.142.1049-.292.2023-.442.2997l-.068.0524c-.344.1948-.749.4046-1.138.6144l-.45.2398-.749.4046-.585.2697-.547.2622c-.3.1428-.608.2703-.921.3822h-.068l-.442.0974-.232.0599a.753.753 0 00-.285.1049.3598.3598 0 00-.124.0868.3543.3543 0 00-.078.1305.3355.3355 0 000 .1723.4466.4466 0 00-.17.0474.4507.4507 0 00-.137.1099.4317.4317 0 00-.075.2997v.9591c-.008.3054.007.6109.045.9141v.3521c-.009.1641.009.3285.052.487.049.2051.087.4127.113.6219l.06.3072c.134.705.322 1.3988.562 2.0754.179.563.456 1.0903.816 1.5584.108.1338.226.2591.352.3747l.278.2697.277.2772.39.3447.224.2023.135.1198c.18.1649.36.3297.555.487.194.1574.517.4121.794.6069l.24.1724.636.4345c.3.1749.61.3301.929.4646.263.1348.532.2397.81.3521.277.1124.584.2547.869.3896.637.3072 1.214.5994 1.783.8991.574.3084 1.132.646 1.671 1.0115.307.2248.607.457.906.6893l.547.4271c.487.3671.967.7492 1.431 1.1538l.442.3597.308.2397c.254.2023.494.4196.749.6444l.367.3596.749.7492.15.1424.157.1498.06.0525a14.336 14.336 0 011.499 1.6558l.12.1724.202.2772.337.4271c.105.1273.203.2697.307.4045l.068.0974c.12.1649.24.3297.345.502.104.1724.202.3597.299.532l.255.4645.554.9591c.188.3296.383.6668.555 1.0114.172.3447.285.6069.419.9216l.053.1124c.075.1798.15.3597.232.5395l.15.3296c.06.1349.112.2773.165.4121.052.1349.067.1948.112.2922l.217.4945c.075.1649.12.2323.173.3522l.105.2397c.067.1649.135.3297.21.487.074.1574.082.1874.119.2773a.9427.9427 0 01.053.1348c.013.0515.03.1016.052.1499a.4144.4144 0 00.218.2023c.025.0693.069.13.127.1751a.394.394 0 00.202.0796h.337c.145.015.29.015.435 0 .252-.0227.502-.0603.749-.1124.24-.0449.465-.1049.682-.1573.217-.0524.48-.1349.749-.2248l.66-.2622.344-.1424.255-.0974.622-.2847c.195-.0979.383-.2106.562-.3371l.157-.0974.375-.2248.629-.3821c.307-.1873.607-.3747.907-.5844l.861-.6069.42-.2997.42-.2997c.203-.1519.398-.3145.584-.487l.217-.1949.225-.1948c.21-.1723.42-.3446.614-.5319.263-.2365.513-.4866.75-.7493l.202-.2397c.165-.1948.337-.3896.494-.5919.091-.1138.174-.234.248-.3597.158-.2363.293-.4872.404-.7492l.09-.1798c.161-.2864.307-.5816.435-.8841.12-.2923.224-.5994.337-.8991.056-.1437.101-.2915.135-.4421l.045-.1498c.045-.1529.083-.3079.112-.4646.075-.3371.135-.6668.187-1.004.09-.6838.09-1.3765 0-2.0604 0-.3746-.075-.7492-.142-1.1239-.045-.2472-.105-.4945-.165-.7492l-.082-.3297a6.1431 6.1431 0 00-.24-.7492l-.142-.3297-.15-.2473c-.098-.2172-.18-.427-.27-.6518l-.075-.1798-.067-.1798-.09-.1948-.083-.1948c-.119-.2623-.254-.5245-.382-.7867l-.15-.2922a.314.314 0 00.12-.1574.5615.5615 0 000-.3147l-.075-.1423c-.06-.1349-.09-.2248-.127-.3072-.037-.0825-.067-.1799-.105-.2623a5.4843 5.4843 0 00-.322-.6668c-.127-.2173-.262-.4196-.405-.6219-.584-.8391-1.168-1.6783-1.738-2.5174-.12-.2023-.247-.3971-.36-.5994l-.089-.1574-.09-.1498-.188-.2847-.082-.09a.6685.6685 0 01-.067-.1723 5.9714 5.9714 0 01-.323-1.2962v-1.019a2.7378 2.7378 0 01.045-.5994v-.6218a7.321 7.321 0 01.083-.8991c0-.2997.105-.7493.18-1.1539.158-.6705.363-1.329.614-1.9705.082-.2397.18-.4795.262-.7492l.128-.3297.172-.4495c.067-.1874.142-.3897.225-.577l.075-.2023c.119-.2847.239-.5769.352-.8691l.307-.8317.09-.2472c.135-.3971.277-.7867.397-1.1838s.21-.7493.307-1.0789v-.1574a.3898.3898 0 00.15-.1948c.021-.2069.056-.4122.105-.6144 0-.2097 0-.3746.052-.5619v-1.1239a9.658 9.658 0 000-1.0489 5.0224 5.0224 0 00-.142-.7493l-.053-.2472a8.3326 8.3326 0 00-.284-.9665c-.06-.1649-.135-.3297-.203-.4945l-.164-.4046-.15-.3821a24.5969 24.5969 0 00-.255-.6444 3.4155 3.4155 0 00-.172-.3596l-.053-.1049-.142-.2997-.098-.1948c-.172-.3447-.367-.6968-.599-1.0864-.157-.2473-.33-.4796-.502-.7493l-.172-.2397-.165-.2248-.195-.2847c-.127-.1649-.262-.3222-.397-.4796l-.247-.2547-.128-.1274-.314-.3596c-.15-.1873-.255-.3222-.367-.4495l-.33-.3147-.105-.0974c-.187-.1724-.367-.3522-.547-.532l-.277-.2697c-.247-.2473-.502-.4646-.749-.6893l-.285-.2473c-.202-.1873-.412-.3671-.622-.5469-.21-.1799-.539-.4421-.817-.6519l-.262-.1873-.18-.1349-.299-.2322-.173-.1349-.337-.2697-.292-.2623-.135-.1423-.18-.1798-.157-.1499c-.113-.1124-.232-.2248-.337-.3446a6.738 6.738 0 01-.465-.5844l-.285-.3597-.194-.2472c-.173-.2623-.323-.5095-.472-.7493l-.33-.5469-.157-.2398-.173-.2997c-.09-.1573-.187-.3147-.284-.472a4.005 4.005 0 01-.398-.7493c-.127-.3596-.239-.6593-.337-.9665-.097-.3072-.202-.6668-.284-.9965-.083-.3297-.173-.6818-.248-1.019l-.06-.2247c-.067-.2773-.134-.547-.179-.8242-.045-.2772-.12-.5994-.188-.8991l-.045-.1873c-.082-.3597-.165-.7493-.239-1.0789l-.068-.3447c-.045-.2248-.09-.457-.142-.6818l-.075-.3297-.18-.7492v-.1274a1.6365 1.6365 0 00-.112-.457c-.045-.1499-.135-.4571-.218-.6893l-.045-.1199c-.149-.3971-.292-.8017-.464-1.1913-.172-.3896-.427-.9366-.674-1.3936l-.158-.2623a.3768.3768 0 00.096-.2174.3846.3846 0 00-.051-.2321c-.27-.4079-.563-.8006-.876-1.1763-.345-.4121-.66-.8017-1.019-1.1539-.158-.1498-.33-.2922-.495-.427l-.097-.0824-.667-.5395-.346-.8147-.637-.4795c-.24-.1873-.532-.4046-.847-.6069l-.629-.3971-.232-.1349a15.2993 15.2993 0 00-1.926-.944c-.337-.1424-.682-.2697-1.027-.3896-.344-.1199-.659-.2248-.996-.3222l-.817-.2323-.307-.0824a8.0843 8.0843 0 00-1.026-.2173 6.797 6.797 0 00-.952-.0749h-.981c-.274-.0313-.046-.4069-.543 0-.209-.1063-.31-.0459-.5-.184h-.5l-.592-.6122h-.636c-.135-.0824-.13-.3129-.272-.3878-.353-.174-.629-.3696-1-.5-.375-.1349.051.0824-.227 0-.277-.0824-.428-.4234-.773-.4833l-.5-.3297-.359.1798c-.367-.0599-.552-.1423-.896-.1798l-.745-.1498-.832-.3447-1.668-.1798c-.749-.0524-1.476-.0127-2-.0127h-2" fill="#2C2C2C"/><path d="M160.102 81.9404a1.238 1.238 0 00-.225.3671c-.067.1424-.127.2997-.195.4421l-.254.5095c-.15.3072-.293.6069-.443.9066-.149.2997-.322.6443-.472.959a9.2352 9.2352 0 01-.584.989c-.105.1723-.217.3372-.33.5095l-.127.2023c-.06.0907-.112.1859-.157.2847a.3052.3052 0 000 .2023.9702.9702 0 00-.083.1049l-.749 1.0265-.292.3446-.749.8242c-.248.2622-.51.517-.75.7492-.479.4871-.989.9366-1.498 1.3936l-.188.1724-.202.1273c-.389.2548-.787.4871-1.184.7493-.11.0697-.226.1323-.344.1873l-.824.4496c-.353.1873-.75.3596-1.087.5319l-.285.1349-.562.1049-.959.1873-1.865.3372c-.622.1048-1.244.1648-1.866.2247h-.374l-.427-.0599-.825-.1199-.277-.0449-.532-.1124h.105c-.749-.1799-1.498-.3747-2.248-.547l-1.206-.2847c-.18 0-.352-.0899-.532-.1424l-.337-.0974a.9683.9683 0 00-.435-.0749.3867.3867 0 00-.193.0945.3923.3923 0 00-.114.1827c-.225-.0899-.457-.1798-.682-.2547a.3981.3981 0 00-.457.1424.3902.3902 0 00-.062.1385.3879.3879 0 00-.003.1518.3794.3794 0 00.163.2491c.224.1273.457.2399.696.3372l.495.2247v.0675l-.652-.2323a.3967.3967 0 00-.248-.0028.3919.3919 0 00-.201.1452.3808.3808 0 000 .4795c.09.0896.194.1654.307.2248l.232.1423.592.3297.607.2922c.247.1049.479.1948.749.2847.457.1648.929.2997 1.394.4346.464.1348.959.2847 1.453.3896a.3665.3665 0 00.201-.0353.36.36 0 00.151-.1371h.128l.045.06a.4237.4237 0 00.262.1348h.599a.3404.3404 0 00.088.1077.3386.3386 0 00.122.0647c.166.0612.337.1113.51.1498.143.029.288.0465.434.0525h2.023l.547-.0824c.366-.0689.729-.1564 1.086-.2623.383-.1124.75-.2248 1.124-.3521.66-.2173 1.297-.487 1.933-.7493.315-.1273.615-.2772.922-.4196.307-.1423.629-.2922.929-.457.3-.1648.607-.3372.899-.517.311-.1909.611-.3985.899-.6218a13.8384 13.8384 0 001.694-1.4011c.232-.2398.457-.487.681-.7493.225-.2622.525-.5245.75-.8017.24-.2864.461-.5894.659-.9066.202-.2922.435-.5619.644-.8466.21-.2847.367-.5395.547-.8092l.585-.8616c.367-.562.704-1.1464 1.011-1.7383.075-.1498.15-.3147.217-.4645.068-.1499.158-.3072.225-.4646.068-.1573.195-.4345.3-.6518.15-.3372.277-.6818.397-1.034v-.1498a.9457.9457 0 000-.3596 1.135 1.135 0 00-.06-.2698 1.007 1.007 0 00-.09-.1798 1.3096 1.3096 0 00-.15-.2098 1.348 1.348 0 00-.187-.1798 2.2403 2.2403 0 00-.36-.2323.7462.7462 0 00-.247-.0899.4946.4946 0 00-.307.1274" fill="#2C2C2C"/><path d="M127.217 81.2436a1.447 1.447 0 00-.299.1648l-.173.1049a.6097.6097 0 00-.239.2772.3143.3143 0 00-.038.1499.3892.3892 0 00-.258.1476.3895.3895 0 00-.079.287c.021.3841.099.7629.232 1.1238.121.3534.263.6987.427 1.034.158.3446.33.6743.517 1.004.09.1573.18.3221.278.4795.097.1573.224.3372.337.5095l.12.1723a.3544.3544 0 00-.06.2622c.038.2012.132.3878.269.5395l.3.4196.697.9066.075.1123.21.3447c.097.1798.224.3447.337.517.112.1723.195.2997.299.442l.435.5994c.036.0508.076.0984.12.1424l.322.3971c.105.1274.21.2472.322.3671.113.1199.322.3597.495.532l.509.4945c.15.1498.307.2847.457.4196.292.2622.6.502.907.7492.157.1124.307.2248.472.3297l.217.1498a.5822.5822 0 00.199.118.582.582 0 00.228.0319h.105l.202.1274c.263.1648.54.3146.817.457l.232.1124.75.4121.502.2772.472.2398a.3893.3893 0 00.457-.1274.3935.3935 0 00.079-.236.393.393 0 00-.079-.236 1.2168 1.2168 0 00-.27-.2098l-.232-.1424-.367-.2323-.353-.2247h.053c.217.1198.442.2247.667.3296l1.858.8017a.3957.3957 0 00.305-.0047.3945.3945 0 00.128-.0889.4071.4071 0 00.08-.4397.4088.4088 0 00-.221-.2159l-.554-.2398v-.0524a.4101.4101 0 00.016-.252.4066.4066 0 00-.136-.2126c-.18-.1273-.375-.2322-.562-.3446l-.547-.3222-.105-.0824c-.12-.0974-.24-.1798-.36-.2622l-.577-.4196-.914-.6444a24.0818 24.0818 0 01-.831-.6218c-.27-.2098-.562-.4271-.84-.6519l-.606-.5095-.27-.2248-.974-.8841c-.285-.2547-.555-.5244-.832-.7942l-.232-.2247c-.068-.1049-.135-.2098-.195-.3147-.157-.2398-.315-.487-.464-.7493l-.84-1.3037-.899-1.431-.464-.7493-.135-.2922a6.2561 6.2561 0 00-.39-.7492.2566.2566 0 00-.09-.0899v-.06c-.09-.3446-.194-.6818-.314-1.0189a.7432.7432 0 00-.218-.3072l-.067-.045a.4127.4127 0 00-.225-.0674h-.15" fill="#2C2C2C"/><path d="M150.152 106.666c.001.979.293 1.936.839 2.75.545.813 1.32 1.447 2.225 1.82.906.374 1.902.471 2.862.278.96-.193 1.842-.666 2.534-1.359a4.953 4.953 0 001.351-2.538c.19-.961.09-1.957-.286-2.861a4.9546 4.9546 0 00-1.827-2.22 4.9515 4.9515 0 00-2.753-.83c-.651 0-1.295.128-1.896.377-.601.25-1.147.615-1.606 1.076a4.959 4.959 0 00-1.071 1.61 4.9337 4.9337 0 00-.372 1.897M139.205 123.344a4.944 4.944 0 003.067 4.559 4.939 4.939 0 002.858.273 4.9533 4.9533 0 002.528-1.361 4.9414 4.9414 0 001.345-2.536 4.943 4.943 0 00-.29-2.856 4.9422 4.9422 0 00-1.828-2.214 4.9393 4.9393 0 00-2.749-.825c-.65.001-1.293.13-1.893.38-.6.25-1.144.616-1.602 1.076a4.954 4.954 0 00-1.067 1.609 4.962 4.962 0 00-.369 1.895zM122.872 110.929c-.228 0-.456.015-.682.045v.247c.01.266-.01.532-.06.794.008.154-.008.308-.045.457 0 .375 0 .749-.052 1.124 0 .824-.068 1.648-.083 2.473v1.243c0 .412 0 .832-.067 1.252v1.198c-.015.205-.015.41 0 .615v.337c.337.076.681.111 1.027.105 1.311 0 2.569-.521 3.496-1.449a4.9417 4.9417 0 001.449-3.496c0-1.312-.521-2.57-1.449-3.497a4.945 4.945 0 00-3.496-1.448h-.038zM126 100.96c.003.978.296 1.933.842 2.745.545.811 1.32 1.443 2.224 1.814.905.372 1.9.467 2.858.273a4.942 4.942 0 002.528-1.361 4.9436 4.9436 0 001.056-5.3921 4.9438 4.9438 0 00-1.828-2.2138 4.9457 4.9457 0 00-2.75-.825 4.9299 4.9299 0 00-1.892.3801c-.6.25-1.145.6158-1.602 1.0766a4.9322 4.9322 0 00-1.067 1.6086A4.923 4.923 0 00126 100.96M135.931 109.663c0 .592.176 1.172.505 1.665.33.492.798.877 1.345 1.103.548.227 1.15.287 1.732.171a2.9997 2.9997 0 001.534-.82c.419-.419.705-.953.821-1.535a2.999 2.999 0 00-.171-1.731 2.9938 2.9938 0 00-1.104-1.345 2.991 2.991 0 00-1.665-.505 2.9956 2.9956 0 00-2.997 2.997zM156.221 119.485c0 .593.176 1.172.505 1.665.329.493.797.877 1.345 1.104.548.227 1.15.286 1.731.171a3.0003 3.0003 0 001.535-.821c.419-.419.705-.953.82-1.534a3.002 3.002 0 00-.17-1.732 3.0044 3.0044 0 00-1.104-1.345 2.9966 2.9966 0 00-3.784.373 2.9966 2.9966 0 00-.878 2.119zM161.466 91.1637c-.795 0-1.558.3157-2.12.8778a2.9963 2.9963 0 00-.877 2.1192c0 .7948.315 1.5571.877 2.1191a2.9983 2.9983 0 002.12.8778c.281.0012.561-.0392.831-.1198v-.9216l.038-.502c0-.2997.045-.5994.075-.8991l.112-.9665a1.314 1.314 0 01.052-.4496c.042-.172.067-.3476.075-.5244l.09-.4871a2.142 2.142 0 01.083-.412c0-.1424.052-.2323.082-.3447a3.078 3.078 0 00-1.498-.3896l.06.0225z" fill="#F77849"/><path d="M122.452 83.0643a2.9977 2.9977 0 00-2.997 2.997c.001.5245.135 1.0403.39 1.4985l.202-.2023c.195-.1873.375-.3821.555-.5769l.075-.0825.464-.4795.143-.1573c.112-.1199.224-.2398.344-.3522l.277-.2772.517-.5095.87-.8691a.2649.2649 0 01.067-.1798.3103.3103 0 01.112-.06h.06a.2144.2144 0 01.07-.083.2138.2138 0 01.103-.0368c.041.0007.081.014.114.0381a.2013.2013 0 01.073.0967 5.48 5.48 0 01.225.8542c.045.1873.082.3821.12.5694.075.4271.149.8616.239 1.2887.09.4271.158.7492.203 1.1164-.01.1449.01.2903.06.427a2.9987 2.9987 0 00.479-3.2119 2.9937 2.9937 0 00-1.104-1.283 2.9982 2.9982 0 00-1.623-.4801l-.038-.0449z" fill="#2C2C2C"/><path d="M122.093 81.6931c-.232.1799-.457.3522-.675.5395-.217.1873-.419.3896-.621.5919-.398.3821-.75.7492-1.154 1.1838-.405.4346-.682.7493-1.019 1.1014l-.517.5844-.247.2922a6.1327 6.1327 0 00-.383.4945.4173.4173 0 00-.051.1986.417.417 0 00.051.1985.3577.3577 0 00.143.1349c.09.0525.198.0686.299.0449h.098l.18-.0899c.122-.0741.235-.1621.337-.2622l.067-.045a.3458.3458 0 00.09.1724 1.4554 1.4554 0 00-.06.1573.3678.3678 0 00-.007.2053c.018.0676.054.129.105.1768l.052.045a3.1142 3.1142 0 00-.247.3072.3895.3895 0 00-.049.2454.3982.3982 0 00.111.2243c.061.0605.14.0995.224.1107a.3906.3906 0 00.246-.0485c.219-.1271.419-.2862.592-.472l.217-.2098.202-.2023c.195-.1873.375-.3821.555-.5769l.075-.0824.464-.4795.143-.1574c.112-.1199.224-.2397.344-.3521l.277-.2772.517-.5095.87-.8692a.2451.2451 0 01.014-.0969.247.247 0 01.053-.0829.165.165 0 01.097-.0599h.06a.2147.2147 0 01.07-.0831.2148.2148 0 01.103-.0368l.097-.0974.607-.6294.292-.2847c.098-.0974.202-.1873.292-.2922a.372.372 0 00.112-.2217.3698.3698 0 00-.052-.2428.424.424 0 00-.195-.1532.4255.4255 0 00-.247-.0191h-.105a.4153.4153 0 00-.18.1162.4185.4185 0 00-.097.191l-.06.0599h-.09a.3948.3948 0 00-.191-.1637.3961.3961 0 00-.251-.0161.5431.5431 0 00-.195.1049l-.097.1049-.06-.0675a.6809.6809 0 00-.12-.0824.3658.3658 0 00-.178-.1149.3654.3654 0 00-.211.0025h-.068a.5282.5282 0 000-.0974.4778.4778 0 00-.24-.1798h-.104a.324.324 0 00-.188.0525" fill="#2C2C2C"/><path d="M138.816 70.2672v-.1049a11.0405 11.0405 0 01-.682 2.6823c-.105.2397-.225.472-.352.7043a5.781 5.781 0 01-.509.7492l.045-.0524-.045.0524a10.154 10.154 0 01-1.701 1.6483 33.7346 33.7346 0 01-5.035 2.9221c-.854.4496-1.693.9216-2.518 1.4311-.824.5095-1.625 1.0639-2.405 1.6408a30.6773 30.6773 0 00-10.242 13.4265 43.367 43.367 0 00-1.843 6.0991 78.5272 78.5272 0 00-2.045 13.861c-.15 2.48-.188 4.967-.128 7.447 0 1.199.09 2.398.173 3.589.044.592.089 1.184.142 1.768.052.585.097.96.157 1.432h.749c-.104-.832-.172-1.679-.239-2.518-.068-.839-.105-1.648-.105-2.465-.09-1.723-.12-3.444-.09-5.162.043-3.441.294-6.876.749-10.287v.104c.335-2.537.803-5.056 1.401-7.544a44.5847 44.5847 0 012.083-6.6912v-.0375a30.9514 30.9514 0 013.926-6.7432l-.06.0749a31.0575 31.0575 0 015.477-5.4919 34.8451 34.8451 0 014.825-3.072 43.053 43.053 0 005.08-2.892 11.3028 11.3028 0 002.083-1.9256 7.5888 7.5888 0 001.251-2.2478c.286-.8764.48-1.7805.577-2.6972.098-.9509.12-1.9078.068-2.8622l-.045-.6968a3.6268 3.6268 0 01-.57-.1873l-.239-.1124a18.7476 18.7476 0 010 4.1958" fill="#2C2C2C"/><path d="M121.808 104.71c.212 8.301-.144 16.607-1.064 24.86h.75a182.366 182.366 0 001.063-24.86.389.389 0 00-.114-.275.3859.3859 0 00-.275-.115.3983.3983 0 00-.39.39M147.717 66.2062l-.24.06c0 .2622-.037.5244-.052.7942-.054.9544-.029 1.9117.075 2.8621.087.9185.28 1.8237.577 2.6973.141.4231.322.832.539 1.2212.205.3663.441.7147.705 1.0415a11.323 11.323 0 002.09 1.9256 42.4245 42.4245 0 005.08 2.8846 34.8976 34.8976 0 014.832 3.0719 31.327 31.327 0 015.515 5.492l-.06-.075a30.9538 30.9538 0 013.926 6.7432v.06a44.3338 44.3338 0 012.083 6.6912 78.0785 78.0785 0 011.409 7.552.2327.2327 0 010-.105c.455 3.411.705 6.846.749 10.287 0 1.714-.03 3.434-.09 5.163 0 .824-.09 1.648-.15 2.465-.06.816-.142 1.685-.247 2.517h.749c.06-.472.112-.952.15-1.431.037-.48.105-1.176.142-1.768.083-1.192.143-2.39.173-3.589.059-2.48 0-4.968-.128-7.448a79.9687 79.9687 0 00-2.023-13.853 45.7699 45.7699 0 00-1.843-6.1066 30.39 30.39 0 00-5.994-9.6128 32.3336 32.3336 0 00-4.226-3.8062c-.749-.5769-1.581-1.1314-2.397-1.6409-.817-.5094-1.664-.9815-2.525-1.431a34.0036 34.0036 0 01-5.035-2.9221 10.0825 10.0825 0 01-1.701-1.6483 6.251 6.251 0 01-.502-.7493c-.127-.2322-.247-.4645-.352-.7043a11.3427 11.3427 0 01-.682-2.6823v.1049a17.7175 17.7175 0 010-4.1808 3.7938 3.7938 0 01-.562.1274" fill="#2C2C2C"/><path d="M164.545 104.71c-.208 8.301.148 16.607 1.064 24.86h.749a183.6593 183.6593 0 01-1.064-24.86.389.389 0 00-.114-.275.3859.3859 0 00-.275-.115c-.104 0-.203.041-.276.115a.389.389 0 00-.114.275M146.061 52.3976v.2173c-.05.374-.151.7395-.299 1.0864-.12.2653-.268.5166-.442.7492-.254.324-.584.5812-.959.7493a2.1632 2.1632 0 01-.525.1348c-.149.0151-.3.0151-.449 0a1.9007 1.9007 0 01-.502-.1348 2.955 2.955 0 01-.502-.2922 3.8676 3.8676 0 01-.495-.502 4.1429 4.1429 0 01-.405-.7043 4.6612 4.6612 0 01-.292-1.1014.4577.4577 0 00-.112-.2772.3853.3853 0 00-.127-.0845.384.384 0 00-.15-.0279.3578.3578 0 00-.147.0275.3497.3497 0 00-.123.0849.3906.3906 0 00-.12.2772c.03.2522.075.5024.135.7492.061.2312.141.4567.24.6744.143.3402.335.6581.569.944.262.3364.591.6145.967.8167a2.648 2.648 0 001.191.3297 2.833 2.833 0 00.749-.075c.266-.0664.519-.1752.749-.3221a3.6663 3.6663 0 001.416-1.6559c.208-.4766.341-.9818.398-1.4985v-.2472a.4103.4103 0 00-.19-.232.4048.4048 0 00-.297-.0378.3993.3993 0 00-.166.1019.4046.4046 0 00-.097.1679M143.319 43.4291a.4277.4277 0 00-.12.2697c-.058.267-.141.5279-.247.7792-.3.6894-.697 1.3412-1.064 2.0005-.18.3222-.352.6444-.502.9815a4.417 4.417 0 00-.352 1.004 2.2316 2.2316 0 000 .8991c.061.3041.216.5817.442.7942.123.1277.264.2363.419.3222.177.1037.366.1867.562.2473.266.0888.539.1515.817.1873h.427c.171-.0064.341-.0239.509-.0525a.402.402 0 00.229-.1868.4038.4038 0 00.041-.2927.423.423 0 00-.18-.2323.508.508 0 00-.299 0h-.075c-.195.015-.39.015-.585 0a4.9828 4.9828 0 01-.809-.2247 1.819 1.819 0 01-.39-.2173 1.1391 1.1391 0 01-.194-.1873 1.182 1.182 0 01-.098-.1649 1.6783 1.6783 0 01-.052-.2098 1.3831 1.3831 0 010-.3521c.046-.2809.127-.5552.24-.8167.329-.7492.749-1.4535 1.153-2.1728.188-.3446.36-.6968.517-1.0639.068-.1649.128-.3222.18-.4945.047-.185.082-.3727.105-.562a.4577.4577 0 00-.112-.2772.3956.3956 0 00-.127-.0844.386.386 0 00-.15-.028.3562.3562 0 00-.147.0276.3508.3508 0 00-.123.0848l-.015.0225z" fill="#2C2C2C"/><path d="M164.133 43.4366v.0824c0 .3447-.075.6894-.12 1.0265-.045.2697-.082.5395-.127.8167a32.2587 32.2587 0 01-1.761 6.481l-.06.1573-.045.1049v.0599c-.052.1124-.097.2248-.142.3372a31.181 31.181 0 01-.922 1.963c0 .0675-.067.1274-.105.1948v.0675l-.067.1273-.053.0974-.052.0975-.068.1198v.075l-.082.1423v.045l-.082.1498v.045a.956.956 0 01-.083.1498v.045l-.082.1423v.0525l-.083.1423v.045l-.082.1423v.0525l-.082.1349a.1537.1537 0 010 .0524l-.075.1349-.045.0599-.083.1274c.002.0199.002.04 0 .0599l-.082.1199-.045.0674c0 .045-.053.075-.075.1199l-.045.0674-.075.1124a.456.456 0 00-.052.075l-.075.1048a.7115.7115 0 01-.06.0825l-.068.0974-.06.0899-.075.0974a.8543.8543 0 01-.059.0824l-.068.0974-.06.0824a.9398.9398 0 00-.075.0974l-.067.0824-.068.0974-.06.075a23.1122 23.1122 0 01-4.001 4.0309 18.882 18.882 0 01-4.218 2.3826 17.016 17.016 0 01-3.821 1.1014h-.06l-.27.045a17.1831 17.1831 0 01-3.618.0899h-.345a3.3054 3.3054 0 01-.382-.045h-.083a16.1573 16.1573 0 01-2.15-.4645h-.217a15.8296 15.8296 0 01-1.311-.4421h-.195l-.188-.0749h-.097a19.2225 19.2225 0 01-2.075-1.0639l-.113-.0675-.112-.0749-.113-.0749-.097-.0599-.075-.0525h-.06l-.052-.0375-.517-.1573-.098-.0674c-.359-.2473-.749-.502-1.071-.7493a23.1396 23.1396 0 01-3.686-3.6338l-.308-.487a27.4672 27.4672 0 01-2.292-3.5365l-.098-.1798-.075-.1349v-.0524a28.446 28.446 0 01-1.034-2.1803.5823.5823 0 01-.052-.1199v-.0899l-.06-.0824-.067-.1574v-.0449a31.9533 31.9533 0 01-2.016-7.6573v-.2323l-.442-.3222c-.127-.0824-.262-.1573-.397-.2322.127 1.1463.3 2.2477.539 3.409.083.4121.18.8242.278 1.2288.39 1.5329.89 3.0353 1.498 4.4955l.045.1124.202.472a27.3838 27.3838 0 003.462 5.8441l.247.3147.203.2398a21.154 21.154 0 002.247 2.4275l.12.1124c.27.2473.547.4795.824.7493l.135.1049.053.0449.082.0674.112.0825c.218.1723.442.3371.667.502l.15.1048c.225.1649.45.3147.682.4571a18.3023 18.3023 0 003.956 1.8956l.135.0449.15.045c.374.1199.749.2248 1.124.3147a16.645 16.645 0 006.353.3296l.465-.0749c.292-.0449.577-.0974.869-.1648a17.128 17.128 0 004.113-1.4985l.105-.0525.405-.2172a19.7716 19.7716 0 002.832-1.8732 22.6088 22.6088 0 002.337-2.0754l.255-.2697a25.392 25.392 0 002.435-3.0794c.307-.457.607-.9291.892-1.4086a29.9474 29.9474 0 002.42-5.2447 31.59 31.59 0 001.116-3.971v-.2173c.225-1.1164.397-2.2477.517-3.3716a.201.201 0 01-.142.0599.1868.1868 0 01-.15-.0674h-.142a.2077.2077 0 01-.09-.1199h-.18v.0375l.015-.045zm-40.594 1.1089v-.0674.0674zM161.825 52.5842l.007-.0068-.007.0068zM161.825 52.5842l.007-.0068-.007.0068zM121.426 43.3542c-.493.0011-.98.1031-1.431.2997a3.8257 3.8257 0 00-1.888 1.9181 6.1952 6.1952 0 00-.562 2.9595 6.691 6.691 0 00.884 3.042 5.4011 5.4011 0 002.39 2.1878 6.27 6.27 0 00.817.2997c.323.0926.654.1553.989.1873.498.0524 1 .0524 1.498 0 .252-.0304.502-.0755.749-.1349.292-.0805.575-.1884.847-.3222a.3839.3839 0 00.178-.2284.3908.3908 0 00-.028-.2886.4278.4278 0 00-.24-.1873.413.413 0 00-.3 0l-.179.0899a5.0268 5.0268 0 01-.93.2473 6.6761 6.6761 0 01-1.64 0 5.4547 5.4547 0 01-1.297-.3596 4.8628 4.8628 0 01-.974-.562 5.4499 5.4499 0 01-.831-.8316 5.807 5.807 0 01-.645-1.1014 6.5054 6.5054 0 01-.412-1.551v.1049a6.5406 6.5406 0 010-1.6184v-.0299a5.038 5.038 0 01.345-1.2812c.131-.3218.305-.6242.517-.8991a3.2 3.2 0 01.532-.5245 2.701 2.701 0 01.569-.3372 3.271 3.271 0 01.75-.2023c.288-.0299.58-.0299.869 0 .339.0574.673.1452.996.2623a.3678.3678 0 00.291-.0339.3522.3522 0 00.111-.0998.3634.3634 0 00.063-.1361l-.3-.2247-.622-.3522h-.037l-.323-.1049a4.0009 4.0009 0 00-.666-.0599l-.09-.1274z" fill="#2C2C2C"/><path d="M121.493 46.1789a3.3407 3.3407 0 00-1.963.8167.3887.3887 0 00-.112.2734c0 .1024.04.2006.112.2735.036.0364.08.0651.127.0845a.384.384 0 00.15.0279.4224.4224 0 00.278-.1124l.06-.0524c.185-.1403.386-.2585.599-.3522.218-.0802.444-.1379.674-.1723.25-.0225.5-.0225.75 0 .269.045.533.1204.786.2248l.158.0674a.39.39 0 00.486-.163.3863.3863 0 00.046-.2701.3875.3875 0 00-.143-.2337 4.5484 4.5484 0 00-.974-.3447 3.6393 3.6393 0 00-.749-.0824h-.262M166.178 43.4141a4.9976 4.9976 0 00-1.378.2173h-.083l-.225.0749a.3923.3923 0 00-.13.0793.3787.3787 0 00-.09.1234.3875.3875 0 00-.012.2993.3978.3978 0 00.435.2473c.322-.1215.656-.2094.996-.2623.289-.0299.58-.0299.869 0 .481.0498.938.2342 1.319.532.198.1494.381.3175.547.502.208.2804.382.5848.517.9066.178.429.296.8802.352 1.3411a.0883.0883 0 000 .06c.06.5378.06 1.0806 0 1.6184v-.1049a6.8263 6.8263 0 01-.412 1.5509v.0375a5.7603 5.7603 0 01-.659 1.1163 5.2496 5.2496 0 01-.817.8167 5.0954 5.0954 0 01-.974.5694 5.6402 5.6402 0 01-1.296.3597 6.2062 6.2062 0 01-1.581 0 5.291 5.291 0 01-.914-.2398l-.21-.1273a.396.396 0 00-.292 0 .3833.3833 0 00-.146.0319.3825.3825 0 00-.122.0853.3905.3905 0 00-.081.1256.3871.3871 0 00-.026.1468.3624.3624 0 00.077.2278c.05.0652.121.1116.2.1318.271.1346.555.2401.847.3147.247.0601.497.1051.749.1349a7.1666 7.1666 0 001.499 0c.334-.0327.665-.0954.989-.1874.273-.0826.541-.1828.802-.2997a5.4508 5.4508 0 002.39-2.1878 6.6903 6.6903 0 00.884-3.0419 6.2 6.2 0 00-.562-2.997 3.8578 3.8578 0 00-1.866-1.8881 3.6009 3.6009 0 00-1.431-.2997l-.165-.015z" fill="#2C2C2C"/><path d="M166.178 46.2537c.724.043 1.413.328 1.956.8092a.388.388 0 01.116.2773.3876.3876 0 01-.116.2772.3635.3635 0 01-.117.0778.363.363 0 01-.138.0271.4189.4189 0 01-.277-.1124l-.067-.0525a3.1638 3.1638 0 00-.592-.3446 3.6727 3.6727 0 00-.682-.1798 4.164 4.164 0 00-.749 0 3.215 3.215 0 00-.75.2247l-.157.075a.4656.4656 0 01-.3 0 .3995.3995 0 01-.232-.1799.3708.3708 0 01-.051-.1438.3914.3914 0 01.009-.1524.372.372 0 01.068-.1367.3842.3842 0 01.116-.099 4.427 4.427 0 01.974-.3447c.247-.0537.498-.0813.75-.0824h.239M151.943 18.2545a.3875.3875 0 00-.118.093.3866.3866 0 00-.072.1311.3764.3764 0 00-.017.149.382.382 0 00.042.1438c.297.4926.548 1.0118.749 1.551v-.0749c.324.9438.537 1.9218.637 2.9145.098 1.1393.06 2.2862-.112 3.4166a13.0839 13.0839 0 01-.899 3.0944v-.1049a9.9704 9.9704 0 01-1.259 2.0979v-.0525c-.41.502-.883.9479-1.409 1.3262a6.8456 6.8456 0 01-1.251.6518 8.0533 8.0533 0 01-1.918.4196c-1.416.0695-2.834.062-4.248-.0225a15.8483 15.8483 0 00-2.151.075 8.1072 8.1072 0 00-2.068.502 8.6036 8.6036 0 00-3.191 2.3226c-.907.989-1.671 2.0979-2.51 3.1469l.06-.0825a12.3048 12.3048 0 01-2.248 2.2478l.082-.0599a11.9923 11.9923 0 01-2.652 1.401c-.872.3074-1.777.5086-2.697.5994-.412 0-.825.0525-1.237.0525a.3798.3798 0 00-.274.1012.3816.3816 0 00-.123.2659.3791.3791 0 00.024.1491.3837.3837 0 00.203.2154.3847.3847 0 00.148.0326 11.989 11.989 0 003.604-.4795 11.5902 11.5902 0 003.364-1.6408c1.731-1.2288 2.884-2.997 4.196-4.6529a11.8048 11.8048 0 012.143-2.0979 7.4242 7.4242 0 011.498-.8166 8.622 8.622 0 011.941-.4271 23.769 23.769 0 013.101 0c.959.0599 1.919.0599 2.878 0a9.658 9.658 0 001.386-.1948 7.1137 7.1137 0 001.446-.472 6.6935 6.6935 0 002.068-1.4985 10.2027 10.2027 0 002.3-4.1209c.238-.8031.406-1.6253.502-2.4575a14.82 14.82 0 00.06-2.51 11.414 11.414 0 00-1.446-5.1473.4367.4367 0 00-.352-.2098.359.359 0 00-.18.0225zm-2.345 14.6103l-.06.0449.06-.0449z" fill="#2C2C2C"/><path d="M153.546 25.155a.3885.3885 0 00-.112.2734c0 .1024.04.2006.112.2735.428.494.916.932 1.453 1.3037a12.905 12.905 0 001.739.989 18.218 18.218 0 013.446 1.9405c.279.2551.53.5389.749.8467.212.3236.39.6674.532 1.0265.172.533.285 1.0832.338 1.6408a25.052 25.052 0 010 2.5999v1.3337c.008.4714.045.9418.112 1.4085a7.5447 7.5447 0 002.248 4.9301.3647.3647 0 00.269.1274.3792.3792 0 00.152-.0188.3873.3873 0 00.133-.0768.375.375 0 00.091-.1228.384.384 0 00.037-.1488.4122.4122 0 00-.055-.1554.416.416 0 00-.11-.1218 5.6934 5.6934 0 01-.839-.9216 6.6821 6.6821 0 01-.75-1.4535.3968.3968 0 000 .0974 11.0621 11.0621 0 01-.592-2.7797c-.097-1.2812 0-2.5699 0-3.8511a10.9248 10.9248 0 00-.187-1.9181 5.766 5.766 0 00-.629-1.7383 7.4482 7.4482 0 00-3.207-2.6448c-.622-.3222-1.266-.6144-1.896-.9441a9.413 9.413 0 01-1.79-1.1688l.075.0675a8.9437 8.9437 0 01-.81-.7942.3894.3894 0 00-.284-.1274.4067.4067 0 00-.263.0974M129.286 11.5708a18.93 18.93 0 00-3.829 2.4276 19.1683 19.1683 0 00-1.67 1.5509 22.0363 22.0363 0 00-1.731 2.1054c-1.117 1.4985-2.121 3.0719-3.207 4.5929a23.7103 23.7103 0 01-1.611 2.0829 20.3363 20.3363 0 01-1.955 1.978c-.462.3974-.945.77-1.446 1.1164-.562.3896-1.154.7492-1.739 1.0939-1.109.6743-2.247 1.3262-3.334 2.0005-1.086.6743-2.158 1.3636-3.184 2.1279a23.2308 23.2308 0 00-2.87 2.5549 20.2944 20.2944 0 00-2.248 2.922 15.1206 15.1206 0 00-1.5505 3.1619 13.955 13.955 0 00-.7492 3.4015 12.9842 12.9842 0 000 1.7083c.0134.6358.076 1.2695.1873 1.8956a13.59 13.59 0 001.2363 3.469c.5621 1.1389 1.1991 2.2478 1.7531 3.3866.479.9664.847 1.9845 1.094 3.0345.113.6023.156 1.2159.127 1.8281a.0443.0443 0 010-.0449.0776.0776 0 00-.005.0262c0 .009.002.0179.005.0262a10.9529 10.9529 0 01-.532 2.6449 26.5802 26.5802 0 01-3.0865 5.7092c-.5994.9291-1.1988 1.8657-1.7383 2.8322a15.7303 15.7303 0 00-1.2961 2.952 19.146 19.146 0 00-.6519 2.7573 20.0412 20.0412 0 00-.2472 2.9969 10.8869 10.8869 0 001.3336 5.5969 6.5858 6.5858 0 001.4536 1.6783c.3139.2609.6498.494 1.0039.6968a7.5301 7.5301 0 001.2439.5844 13.827 13.827 0 002.203.5994c.735.1376 1.463.3127 2.18.5245.471.1664.922.3877 1.341.6593.376.2648.718.5743 1.019.9216.249.3157.479.646.689.989.23.3825.438.7777.622 1.1838a22.6742 22.6742 0 002.038 3.8062 7.5345 7.5345 0 001.574 1.5884 9.6443 9.6443 0 002.405 1.2888c.07.024.146.03.22.017a.4378.4378 0 00.201-.0893.4517.4517 0 00.171-.3923.4124.4124 0 00-.092-.1743.3985.3985 0 00-.163-.1104 10.7428 10.7428 0 01-1.926-.9591 7.6156 7.6156 0 01-1.386-1.2063 11.6397 11.6397 0 01-1.573-2.5324c-.465-.959-.899-1.9406-1.431-2.8771a7.8326 7.8326 0 00-1.064-1.4086 6.3746 6.3746 0 00-1.184-.8616 8.3607 8.3607 0 00-2.517-.8991c-.922-.2023-1.859-.3672-2.758-.6594a8.5397 8.5397 0 01-1.8653-.944 6.0943 6.0943 0 01-1.1538-1.0415l.0599.075a6.9803 6.9803 0 01-.959-1.4985v.0524a9.5049 9.5049 0 01-.6968-2.1054 14.1514 14.1514 0 01-.2473-3.5139v-.0675a19.257 19.257 0 01.9066-4.7277c1.3786-3.971 4.4957-7.028 5.9487-10.984.353-.9347.58-1.9124.675-2.9071a7.954 7.954 0 000-1.5734 8.5141 8.5141 0 00-.315-1.4985 16.4253 16.4253 0 00-1.221-2.922c-.487-.9741-1.027-1.9256-1.499-2.9071l.045.0974a13.9436 13.9436 0 01-1.1312-3.0644 13.367 13.367 0 01-.2023-3.2817 14.499 14.499 0 01.6443-3.3342v-.0974a15.3996 15.3996 0 011.8062-3.5964.078.078 0 000 .06 19.3071 19.3071 0 013.536-3.956 43.9802 43.9802 0 016.174-4.1509c.539-.3221 1.079-.6368 1.611-.9665s1.168-.7492 1.738-1.1089a17.3021 17.3021 0 002.742-2.3826 42.655 42.655 0 004.114-5.4845 35.7487 35.7487 0 012.247-2.997 17.8286 17.8286 0 012.046-2.1353 19.173 19.173 0 014.053-2.6524 22.2557 22.2557 0 015.11-1.7007h-.067a25.82 25.82 0 016.533-.4496c2.224.1394 4.422.5599 6.541 1.2513a24.1624 24.1624 0 014.495 2.1053.3978.3978 0 00.525-.1723.409.409 0 00.014-.2979.4077.4077 0 00-.194-.2266 25.1257 25.1257 0 00-11.433-3.4615c-.487 0-1.057-.045-1.581-.045a23.777 23.777 0 00-10.288 2.2478l-.037.0599zM99.5334 41.6381v-.0449z" fill="#2C2C2C"/><path d="M152.692 12.8523a.3798.3798 0 00-.339.2566.3729.3729 0 00-.021.148.3828.3828 0 00.036.1488.3766.3766 0 00.092.1227.3743.3743 0 00.132.0769.3817.3817 0 00.152.0187h1.409c1.095.0884 2.176.3021 3.222.6369a17.9966 17.9966 0 013.971 1.9106h.067-.045a19.7134 19.7134 0 013.746 3.1693l-.067-.0749a16.2876 16.2876 0 012.278 3.484c.245.5157.457 1.0462.637 1.5884.208.6837.376 1.3792.502 2.0829v-.0974c.344 1.7682.576 3.5514.996 5.2972.202.8839.48 1.7488.832 2.5849a12.011 12.011 0 001.363 2.42c.605.7789 1.28 1.5011 2.016 2.1579.704.6743 1.446 1.3111 2.188 1.9405a42.5925 42.5925 0 014.27 3.941l-.067-.0749a17.2756 17.2756 0 012.435 3.5589 12.5488 12.5488 0 011.319 6.6084v-.0974a16.4017 16.4017 0 01-.75 3.7987c-.284.8541-.637 1.6708-.966 2.5025-.33.8316-.645 1.6183-.929 2.4425a16.3197 16.3197 0 00-.615 2.3002 10.3347 10.3347 0 00-.187 2.2477c.024.74.147 1.4733.367 2.1803a9.9297 9.9297 0 001.079 2.3826c.24.4046.51.7493.749 1.1689.24.4195.54.8017.802 1.2212.465.7493.892 1.4985 1.281 2.2478l-.045-.0899a18.297 18.297 0 011.499 4.1583c.186.9622.256 1.9431.21 2.922a11.2502 11.2502 0 01-.525 2.6823v-.0974a12.6927 12.6927 0 01-1.311 2.6973 17.4674 17.4674 0 01-2.937 3.3642l-.06.0449a18.7957 18.7957 0 01-3.851 2.5999l.09-.045a18.0256 18.0256 0 01-4.496 1.4985h.098c-.323.06-.645.1199-.974.1649a.3833.3833 0 00-.196.1536.3878.3878 0 00-.063.2409.3855.3855 0 00.096.2299.389.389 0 00.215.1248 17.8606 17.8606 0 003.364-.7942 18.1894 18.1894 0 003.14-1.4236 18.0056 18.0056 0 002.847-2.0154 19.425 19.425 0 002.502-2.5849 14.2914 14.2914 0 001.693-2.7123c.415-.8828.717-1.8141.9-2.7722a12.3593 12.3593 0 00-.383-5.7243 19.782 19.782 0 00-1.783-4.1358c-.389-.7493-.816-1.3936-1.266-2.0604-.255-.3822-.524-.7493-.749-1.1389a11.5158 11.5158 0 01-.675-1.1763 9.2728 9.2728 0 01-.749-2.1653v.1049a8.2843 8.2843 0 01-.15-2.1429c.098-1.115.33-2.2143.69-3.2742.359-1.0939.794-2.1653 1.236-3.2367.225-.562.449-1.1164.644-1.6858a19.41 19.41 0 00.517-1.7832c.257-1.1157.388-2.2568.39-3.4016a13.6304 13.6304 0 00-.427-3.2967 14.0315 14.0315 0 00-1.289-3.1918 17.4203 17.4203 0 00-2.113-2.997 47.3383 47.3383 0 00-5.065-4.6678 30.7639 30.7639 0 01-2.817-2.6823 11.592 11.592 0 01-1.611-2.4126 12.427 12.427 0 01-.749-2.0304 20.9181 20.9181 0 01-.554-2.2478v.0974c-.218-1.0789-.383-2.1728-.577-3.2592-.09-.5245-.195-1.0489-.308-1.5659a14.9205 14.9205 0 00-.397-1.4985 13.1543 13.1543 0 00-1.191-2.5774 15.4344 15.4344 0 00-1.821-2.3452 19.2968 19.2968 0 00-4.712-3.9185 16.299 16.299 0 00-5.605-2.0754 12.28 12.28 0 00-1.955-.1574h-.75.068zm30.277 45.6217a.0592.0592 0 010 0zm1.446 30.9588M127.832 80.5917a.4052.4052 0 00-.27.4871 25.1258 25.1258 0 002.166 4.7502 21.5633 21.5633 0 003.484 4.4355 17.4733 17.4733 0 002.592 2.1129 15.4618 15.4618 0 002.997 1.5809 14.409 14.409 0 0011.314-.3072 16.4073 16.4073 0 003.993-2.5774 19.373 19.373 0 002.727-2.8696 23.2952 23.2952 0 001.813-2.7123c.263-.472.51-.9515.75-1.4385l.045-.0974.045-.0824v-.075c0-.0899.082-.1723.119-.2622v-.0525c.165-.3596.315-.7492.458-1.0864v-.0449a.3968.3968 0 010-.0974.1754.1754 0 01.052-.1499.3966.3966 0 00-.038-.294.401.401 0 00-.232-.1855.3796.3796 0 00-.299 0 .395.395 0 00-.18.2323l-.045.1199-.045.1123v.0825l-.165.3896c-.09.2173-.187.427-.277.6443a.5335.5335 0 00-.075.1499v.1348a.2359.2359 0 010 .075c-.24.4945-.495.9815-.749 1.4985a23.9808 23.9808 0 01-1.709 2.5774 20.2134 20.2134 0 01-3.379 3.409 16.4903 16.4903 0 01-3.469 2.038 14.119 14.119 0 01-3.574.974h.105a14.927 14.927 0 01-3.746 0 15.1506 15.1506 0 01-3.529-.8841 16.1684 16.1684 0 01-3.492-2.0455 19.2391 19.2391 0 01-3.364-3.394 23.7655 23.7655 0 01-2.952-5.0799v-.1199c-.224-.547-.427-1.1014-.622-1.6558a.3933.3933 0 00-.14-.2039.4005.4005 0 00-.234-.0809h-.105l.03-.0075zm4.061 7.0954l.037.0525-.037-.0525z" fill="#2C2C2C"/><path d="M125.652 82.0602a.3786.3786 0 00-.135.064.3634.3634 0 00-.1.1108.3739.3739 0 00-.05.1407.3746.3746 0 00.007.1491c.165.472.338.944.525 1.416v.09c0 .0749.067.1573.105.2397.202.487.419.974.644 1.4461v.1198c.032.0526.06.1078.083.1649l.142.2622c.262.5095.539 1.019.832 1.4985v.045a24.3082 24.3082 0 003.678 4.7127 19.3266 19.3266 0 005.2 3.7463c.99.479 2.024.8629 3.087 1.1463 3.084.8988 6.367.8544 9.426-.1274a18.8237 18.8237 0 006.511-3.8811 23.94 23.94 0 004.727-5.949l.262-.4795.113-.1798c.21-.3896.404-.7493.592-1.1838v-.075l.105-.2023a.0443.0443 0 010-.0449l.052-.1199c.172-.3821.337-.7492.495-1.1613l.045-.1049a.8973.8973 0 00.06-.1424l.059-.1573a.4501.4501 0 000-.0899v-.075a.3883.3883 0 00-.038-.2908.3935.3935 0 00-.231-.1812.3874.3874 0 00-.3.0325.384.384 0 00-.187.2373l-.113.3071a.3034.3034 0 000 .1124.3181.3181 0 010 .0974v.06l-.179.4345v-.0599c-.105.2547-.21.502-.33.7492v.0825c0 .0824-.075.1648-.105.2472-.21.4346-.427.8616-.652 1.2887l-.307.547a25.2995 25.2995 0 01-1.933 2.922v.0525a22.1784 22.1784 0 01-3.746 3.7462l-.053.045a18.3306 18.3306 0 01-3.963 2.3076h-.098a16.616 16.616 0 01-4.008 1.079h.075a16.1352 16.1352 0 01-4.076 0h.097a16.3286 16.3286 0 01-4.053-1.079h.045a18.4276 18.4276 0 01-3.934-2.2477h-.067a22.218 22.218 0 01-3.851-3.8886 24.0214 24.0214 0 01-1.634-2.4201c-.292-.5019-.577-1.0039-.839-1.4984v-.075a.412.412 0 00-.037-.0824v-.0599l-.158-.3147c-.187-.3821-.359-.7493-.532-1.1613l-.09-.2398a28.5142 28.5142 0 01-.584-1.5584.4127.4127 0 00-.375-.2848h-.104l-.105-.2847zm24.373 14.3781h-.03.03zm-15.937-2.2927l-.06-.045.06.045zm19.818-.045h.045a.191.191 0 00-.06.0525l.015-.0525zm3.791-3.7762v.0375zM163.713 84.8325a58.5372 58.5372 0 00-1.858 10.0848 19.2663 19.2663 0 00.315 5.2447c.158.806.41 1.59.749 2.338a8.589 8.589 0 001.304 2.038c.061.076.126.148.195.217a.404.404 0 00.123.089c.047.021.097.033.148.034a.3842.3842 0 00.279-.104.3771.3771 0 00.089-.124.3962.3962 0 00.035-.148.4044.4044 0 00-.025-.15.3832.3832 0 00-.08-.129c-.15-.155-.292-.32-.427-.495a9.3044 9.3044 0 01-1.057-1.813c-.375-.963-.627-1.97-.749-2.9967v.1049a23.2786 23.2786 0 01.113-6.2112v.1048c.39-2.6378.928-5.2518 1.611-7.8296a.3934.3934 0 00-.039-.2908.3935.3935 0 00-.231-.1812h-.098a.395.395 0 00-.238.0787.401.401 0 00-.144.206l-.015-.0674zm-.187 17.1055v-.053zM123.883 83.7087a.3961.3961 0 00-.269.4795 41.241 41.241 0 01.974 4.9375v-.1049c.382 2.6618.412 5.3623.089 8.032v-.1274a18.4098 18.4098 0 01-1.206 4.7126c-.402.915-.905 1.782-1.498 2.585a.3805.3805 0 00-.045.289c.024.098.086.183.172.236a.39.39 0 00.3 0c.097-.029.18-.093.232-.18 2.083-2.885 2.847-6.4963 2.997-10.0027a32.669 32.669 0 00-.277-5.477 41.6978 41.6978 0 00-1.004-5.1474.3904.3904 0 00-.375-.2922h-.105M133.571 48.8386c1.027 0 1.858-1.1613 1.858-2.5849 0-1.4235-.831-2.5849-1.858-2.5849-1.026 0-1.858 1.1539-1.858 2.5849 0 1.4311.832 2.5849 1.858 2.5849zM153.292 48.4491c-1.027 0-1.859-1.1613-1.859-2.5849 0-1.4236.832-2.5924 1.859-2.5924 1.026 0 1.858 1.1613 1.858 2.5924s-.832 2.5849-1.858 2.5849zM154.251 36.4162a5.138 5.138 0 011.401.3896c.419.1991.812.4509 1.168.7492.173.1424.345.2922.502.4496.174.18.335.3729.48.5769a.3985.3985 0 010 .2922.36.36 0 01-.064.139.3688.3688 0 01-.116.1007.396.396 0 01-.292 0 .4068.4068 0 01-.24-.1873l-.037-.0524a5.0821 5.0821 0 00-.749-.7493 5.8178 5.8178 0 00-1.102-.6443 4.5894 4.5894 0 00-1.011-.3147c-.25-.0225-.5-.0225-.75 0l-.277.0524a.3866.3866 0 01-.27-.0616.3873.3873 0 01-.161-.2261.3881.3881 0 01.03-.2759.3908.3908 0 01.206-.1856c.276-.0599.557-.0901.84-.0899h.464M13.5025 101.238a.4125.4125 0 00-.181.226 177.1833 177.1833 0 00-2.444 28.453h.7543c.0309-7.582.5576-15.154 1.5765-22.667v.105c.2565-1.901.5406-3.794.8524-5.68a.3847.3847 0 000-.302.3818.3818 0 00-.2338-.181h-.1056a.38.38 0 00-.1961.061" fill="#2C2C2C"/><path d="M46.6701 72.7391a4.149 4.149 0 00-.6864.0679h-.1358l-.4676.0754-.4677.0679-.528.083-.3018.0377h-.6412c-.626.083-1.3351.1735-2.0215.2188-.3621 0-.7544.0452-1.0863.0754h-.4601l-.7543.0528h-4.4807c-.5582 0-1.2823-.0679-2.0442-.166l.1056.0528-.2565-.0679h-.2489l-.4752-.0829-.4451-.0755c-.1735 0-.347-.0452-.5129-.0603h-.2263a1.2522 1.2522 0 00-.9731.5582 1.7668 1.7668 0 00-.1886.3772 2.2659 2.2659 0 00-.1207.5355l-.0528.3244v.1508l-.1508.0453c-.1283 0-.249.0603-.3697.0905l-.1961.0528a6.5053 6.5053 0 00-1.1767.3847 4.9275 4.9275 0 00-.9957.6487 3.7715 3.7715 0 00-.4375.4149 1.3243 1.3243 0 00-.1811.2263 1.0642 1.0642 0 00-.1357.2188 1.5059 1.5059 0 00-.0755.1961.2974.2974 0 000 .1056c-.007.0728-.007.146 0 .2188a.6565.6565 0 000 .1206.4456.4456 0 00.2429.4439.4464.4464 0 00.172.0465.4145.4145 0 00.3922-.2791.9888.9888 0 00.3244.1886c.1684.0801.3424.1482.5205.2036.5884.1735 1.2295.2942 1.7425.3923h.2489l.5808.0829 1.3427.1434c.528.0452 1.0108.098 1.5087.1584h.0829c.5733.0679 1.2748.1584 1.999.1961h.4375l.7543.0377H42.099l.5355-.0377h.6412l.6035-.0453.5054-.0377.6713-.0452.9052-.1132h.1584c.3394-.0377.6336-.0754.9278-.0981l.7543-.098h.2791l.6638-.1056h.1811l1.1541-.1735c.3243-.0377.6487-.0755.9806-.0981h.4979a1.018 1.018 0 00.4827-.1358.498.498 0 00.2263-.3243.7094.7094 0 000-.3545 2.1666 2.1666 0 00-.1358-.3018 2.7757 2.7757 0 00-.6034-.7543l-.2414-.2112c-.1659-.1584-.3394-.3168-.528-.4677-.1886-.1509-.4224-.2942-.6412-.4375a3.8405 3.8405 0 00-.3847-.2263 2.4504 2.4504 0 00-.3168-.1509l-.166-.0678-.4148-.1434h-.0755l-.2942-.1056-.1056-.0528v-.0905a1.398 1.398 0 00-.0528-.166c-.0377-.1131-.0905-.2262-.1358-.3318l-.0452-.0755a2.9757 2.9757 0 00-.1584-.3998l-.0754-.1508a.6264.6264 0 00-.0529-.0981.941.941 0 00-.1734-.3168.8001.8001 0 00-.347-.1811c-.083 0-.1735 0-.2565-.0452h-.3319M64.2914 107.151a.353.353 0 00-.1886.061.276.276 0 00-.1508 0h-.0981c-.2338.06-.4677.105-.7015.151h-.1358l-.181.037-1.0862.212-.8147.158c-.3998.083-.7996.166-1.1994.234l-2.0895.354-.7543.136-1.3276.211-.8901.151-.8147.136-.626.106-1.0184.166-.6034.075H50.9852c-.347 0-.6638.075-.9882.098l-.7166.06h-.2565l-1.3653.098-1.2823.061-1.0636.045h-.2339c-.709.038-1.4181.068-2.1272.083H31.1389c-.7543 0-1.5086-.06-2.3836-.151l-.7543-.068-.7016-.068c-1.0108-.083-2.0065-.173-3.0173-.301l-.7543-.113-.9278-.136.0981.045-.264-.068-.2565-.038c-.3998-.052-.7543-.098-1.0938-.128h-.7015l-.5959-.038h-.4903l-.6714-.045h-.5808l-.43-.045h-.2036c-.2942-.038-.596-.091-.8901-.151l-.9957-.188-.6186-.136-.3394-.083-.4903-.113-.2867-.046h-.1433a1.4596 1.4596 0 00-.3998.053.5282.5282 0 00-.1835.093.5154.5154 0 00-.1333.156.2718.2718 0 01-.0377.083c-.0389.07-.0717.143-.0981.219-.0466.13-.082.264-.1056.4a4.9575 4.9575 0 00-.0679.52V110.146c.0072.108.0072.217 0 .325v.248l-.1659.264c0 .197-.0604.378-.1056.566l-.0528.211c-.067.294-.1501.583-.249.868a.4013.4013 0 00-.0019.235.4036.4036 0 00.1302.195.264.264 0 00-.1509.188.4077.4077 0 00.0374.313.4206.4206 0 00.1052.122.4093.4093 0 00.144.071 4.841 4.841 0 001.1692.211h.5281l.1282.045a.2656.2656 0 00.0797.086.269.269 0 00.1089.043H14.6947l.3847.09.1584.038.3017.06.2414.038.3847.06h.1358c.4526.068.9127.113 1.3653.151.2464 0 .4979.023.7544.068a.4069.4069 0 00.2866-.121h.1659l.5356.053.5884.181.5431.068.5054.068c.7543.098 1.5086.158 2.263.219l.9052.067h.098l1.2597.099c.7544.052 1.4634.098 2.2027.135l.6336.038h.2338c.4677.038.9429.068 1.4182.083H35.8761c.4073 0 .8147.038 1.2295.045h7.1133c.7543 0 1.5086-.075 2.263-.128l1.2672-.098h.083l.958-.068c.7543-.06 1.4483-.136 2.263-.241l.5732-.076.5356-.068.528-.083.2867-.045.2715-.038 2.2177-.354.8901-.143.3395-.061.8826-.143c1.3653-.219 2.7231-.468 4.0808-.717a44.375 44.375 0 001.4408-.271c.1961-.046.3922-.083.5959-.113h.1509l.5657-.114.2037-.045h.1735a.2681.2681 0 00.1056 0 .4237.4237 0 00.2489-.188c.0539-.097.07-.21.0453-.317a1.7272 1.7272 0 010-.211v-.189a4.4503 4.4503 0 00-.0905-.709V110.735l-.0453-.295a14.557 14.557 0 01-.1056-1.297v-.272a1.21 1.21 0 010-.166v-.829a2.071 2.071 0 00-.0679-.461 1.3684 1.3684 0 00-.0528-.158.4277.4277 0 00-.1077-.128.4357.4357 0 00-.1488-.076.3495.3495 0 00-.1207 0M65.1359 119.334h-.0755c-.177.019-.3514.057-.5205.113l-.5657.166-.4149.143-.5355.174c-.513.151-1.0335.264-1.6068.392l-.4752.098c-.5808.128-1.2069.219-1.7349.294l-.5356.083c-.3017.046-.5959.106-.8901.166h-.1886a.3352.3352 0 00-.181.106l-.3772.038-.3922.052-.3998.053-.611.076-.9354.181-.3017.045-.3017.038-1.0787.15-.6412.099-.2791.037h-.2338c-.3847.046-.7543.083-1.1692.106-.4149.023-.7543.068-1.1768.09l-1.0334.076-1.3276.113-.8675.045h-1.4407c-.7921.038-1.569.076-2.3686.076h-9.3536l-1.2673-.046c-.3847 0-.7543-.045-1.1541-.06l-1.0409-.053h-.2716l-1.0108-.06-.8373-.083h-.2942l-.6638-.045H22.3356c-.4526 0-.8977 0-1.3503-.061l-.8222-.068c-.6336-.045-1.2672-.098-1.9009-.181l-.875-.135-.6562-.106h-.0981l-.7543-.128-.2716-.045h-.1207l-.3998-.091-.3243-.06c-.8449-.166-1.6972-.332-2.5572-.468a.2866.2866 0 00-.1131-.098.4191.4191 0 00-.2037-.06h-.1131a.42.42 0 00-.249.188.4985.4985 0 00-.1131.204.4154.4154 0 000 .317.489.489 0 00.0905.113v.211c.0321.25.0472.502.0453.754v2.746a4.4537 4.4537 0 01-.1207.528l-.0604.166a1.3935 1.3935 0 00-.1131.513c.0038.11.0498.215.1284.292a.4312.4312 0 00.294.123.3658.3658 0 00.1961-.053l.347.045h.1584l.3319.038c.5959.098 1.1768.196 1.7727.309l.347.076c.5054.105.9881.196 1.5086.264H16.8139l-.098-.046c.3531.078.7109.134 1.0711.166h1.0787c.7543.053 1.5086.129 2.263.212l.4224.045.6487.068c.2414 0 .4828.045.7543.068h.694c.2816.03.5607.052.8373.068h.2489l.8373.06h.4451l.6713.06h1.0712c.5431.046 1.0862.076 1.6368.106l.6186.038c.3847 0 .7543 0 1.1616.037.4074.038.7016 0 1.0486.046.3469.045.7543.052 1.0937.06.3395.007.6865 0 1.0259 0h13.1629c.7544-.038 1.5087-.091 2.2102-.159h.4526l.6412-.06c.3545-.038.709-.075 1.0636-.128l1.2672-.181.9278-.143 1.1843-.174 1.1768-.181c.4375-.06.8901-.136 1.3502-.211l.2791-.045.3395-.061 2.0065-.332.9353-.173c.2112 0 .4224-.091.6261-.136l.4677-.113c.6487-.136 1.2974-.279 1.9386-.453l.6412-.143h.1207l.2112-.038c.037.039.0815.069.1308.09a.3968.3968 0 00.1558.031.4303.4303 0 00.2513-.088.4267.4267 0 00.1485-.221 2.2004 2.2004 0 000-.249v-.128a1.707 1.707 0 00.0679-.34v-.777-.611a4.279 4.279 0 00-.0604-.437l-.0301-.559v-.211l-.0528-.332a.7499.7499 0 00-.0679-.301 3.5557 3.5557 0 00-.0604-.476v-.324a5.4975 5.4975 0 01-.0377-.566v-.226a.484.484 0 00-.0658-.23.485.485 0 00-.168-.17.5692.5692 0 00-.3395-.098" fill="#3E768C"/><path d="M63.8163 101.441a.3578.3578 0 00-.1314.063.3592.3592 0 00-.0949.111.4225.4225 0 00-.0453.302c.3169 1.89.6035 3.784.86 5.68v-.098a174.1088 174.1088 0 011.569 22.418h.7543a175.7587 175.7587 0 00-2.444-28.204.3679.3679 0 00-.1735-.234.3902.3902 0 00-.1961-.06.3077.3077 0 00-.1132 0M38.3354 41.8121c-.181.5808-.4073 1.139-.6412 1.6972-.2338.5582-.5129 1.2296-.7543 1.8557a12.0092 12.0092 0 00-.5506 1.8405 6.7292 6.7292 0 00-.1132.86 4.2602 4.2602 0 00.0453.8222c.0695.4513.2808.8687.6034 1.1918a2.4146 2.4146 0 001.1164.6035c.2234.0554.4502.0957.6789.1207.2361.015.473.015.7091 0a11.826 11.826 0 001.4634-.1132.4601.4601 0 00.2791-.1131.3846.3846 0 00.1131-.2791.3998.3998 0 00-.1131-.2791.376.376 0 00-.2791-.1056 9.3856 9.3856 0 01-2.346.0603h.1056a3.3428 3.3428 0 01-.7543-.1886 2.1468 2.1468 0 01-.3394-.1886 1.6074 1.6074 0 01-.2263-.2262 1.9595 1.9595 0 01-.1584-.2716 2.5447 2.5447 0 01-.1358-.4677 4.839 4.839 0 010-.9353 12.8227 12.8227 0 01.875-2.8665c.3772-.9429.8147-1.8707 1.1239-2.8438a.3993.3993 0 00-.2791-.4827h-.1056a.4144.4144 0 00-.3771.2866l.0603.0226zm-1.222 5.8083a.099.099 0 000 .0453v-.0453zm.7996 2.1574h.0528-.0528zM29.1548 47.9673c1.0334 0 1.8783-1.1617 1.8783-2.6024 0-1.4408-.8449-2.6024-1.8783-2.6024s-1.8707 1.1692-1.8707 2.6024c0 1.4332.8373 2.6024 1.8707 2.6024zM49.0158 47.575c-1.0334 0-1.8782-1.1692-1.8782-2.6024 0-1.4332.8448-2.6326 1.8782-2.6326s1.9085 1.1994 1.9085 2.6326-.8373 2.6024-1.8708 2.6024M28.9588 36.1398a6.7086 6.7086 0 00-.8675.0528 6.9179 6.9179 0 00-.9655.2263 6.2687 6.2687 0 00-2.9419 1.8481.7549.7549 0 00-.1508.5733.753.753 0 00.2967.524.7534.7534 0 00.5858.1398.8672.8672 0 00.528-.3093l.0453-.0528a5.2292 5.2292 0 01.9806-.7543 6.5888 6.5888 0 011.2824-.5356 6.3857 6.3857 0 011.1315-.1584c.3221.001.6433.0364.9579.1056l.2339.0754a.7994.7994 0 001.0108-.445.754.754 0 00-.1735-.8578.7537.7537 0 00-.264-.1605 5.205 5.205 0 00-1.6595-.2716h-.0302zm-1.2296 1.7199h-.0905.0905zM25.587 39.044l-.083.0829.083-.0829zM48.6618 35.7398a6.7886 6.7886 0 01.875.0528 7.183 7.183 0 01.9656.2263 6.3059 6.3059 0 012.9418 1.8481.7548.7548 0 01.1433.5733.7995.7995 0 01-.3092.5205.7546.7546 0 01-.5733.1433.8299.8299 0 01-.5205-.3093l-.0528-.0528a4.9914 4.9914 0 00-.9806-.7543 6.3913 6.3913 0 00-1.2824-.5356 6.3033 6.3033 0 00-1.1239-.1584 4.5258 4.5258 0 00-.958.1056l-.2338.0679a.7994.7994 0 01-1.0184-.4375.7547.7547 0 01.1787-.8595.7553.7553 0 01.2664-.1588 5.1373 5.1373 0 011.6595-.2716h.0226zm1.2296 1.7199h.0905-.0905zm2.1498 1.1843l.0754.0754-.0754-.0754z" fill="#2C2C2C"/><path d="M64.3216 106.789l-.4074.083H63.6276l-.7543.144-.3772.075h-.0452c-1.0938.211-2.18.407-3.2738.588l-.9354.151-2.5571.37h.1056l-.4149.053h-.2489c-1.1164.143-2.263.271-3.3643.392l-1.5086.151c-4.6693.422-9.3537.611-14.038.596-4.6843-.015-9.3989-.264-14.0757-.755a183.3722 183.3722 0 01-4.1261-.482h.1056c-.7543-.091-1.4257-.196-2.1423-.302-.9429-.143-1.8858-.294-2.8287-.46a.4168.4168 0 00-.3017.038.41.41 0 00-.1207.113v.407a.3662.3662 0 00.1019.127.3652.3652 0 00.147.069c.8071.143 1.6143.279 2.4214.4a143.757 143.757 0 0027.9099 1.471c2.3083-.096 4.614-.247 6.9172-.453l1.2522-.128c1.0937-.106 2.195-.234 3.2963-.37H55.1867c1.1089-.143 2.2253-.301 3.3417-.475h-.0604.1132l.5431-.083h.098c.9807-.166 1.9613-.339 2.9344-.52l.7015-.136.3998-.075.3545-.076h.2338l.4451-.09a.3883.3883 0 00.2173-.162.386.386 0 00.0567-.265.386.386 0 00-.132-.237.3892.3892 0 00-.2551-.091h-.0906M65.4452 112.643c-1.2069.272-2.4139.528-3.6208.754-2.1347.408-4.2921.755-6.4494 1.049h.1056c-1.6143.211-3.2285.397-4.8428.558-1.2371.121-2.4742.219-3.7188.309-4.4052.31-8.8256.408-13.2384.332a141.276 141.276 0 01-13.3288-.86c-.9052-.105-1.8104-.218-2.7156-.339h.1056c-.8448-.113-1.6897-.241-2.5345-.37h-.0377c-.8222-.128-1.652-.264-2.4742-.407h-.0528l-.4752-.091c0 .227-.0453.453-.0755.672a.5118.5118 0 000 .105H12.4766c.875.159 1.7501.302 2.6326.438h.0453c1.8254.282 3.6559.533 5.4914.754 4.3148.475 8.6521.755 12.9895.83 4.3373.075 8.7501 0 13.1101-.324h.3093c1.2069-.086 2.4063-.184 3.5981-.295h.2188c3.6811-.369 7.3471-.882 10.9754-1.569 1.2144-.226 2.4289-.482 3.6433-.754a1.173 1.173 0 010-.234v-.558h-.0905M65.6941 118.866l-.4827.113h-.1735c-.7543.174-1.5087.332-2.263.491l-.6412.128-.7015.136c-2.097.399-4.2091.754-6.3212 1.026h.0981a140.0868 140.0868 0 01-14.219 1.161 151.339 151.339 0 01-14.4906-.226 136.4108 136.4108 0 01-9.2555-.92c-1.75-.242-3.485-.513-5.2199-.823a.4239.4239 0 00-.3018.046.4056.4056 0 00-.181.234.3998.3998 0 00.0446.293.4045.4045 0 00.2345.182c4.5623.814 9.1654 1.381 13.789 1.697 4.8126.347 9.6403.445 14.4604.324 3.6811-.095 7.3546-.329 11.0206-.701 3.5152-.362 7.0153-.86 10.4851-1.509h.1056l.6638-.128h.1509l.3093-.06.181-.038c.7543-.151 1.5087-.309 2.263-.483l.3621-.083.264-.06a.394.394 0 00.1934-.169.3937.3937 0 00-.072-.481.3963.3963 0 00-.2346-.105h-.098M65.6344 125.157l-.6714.151c-3.3492.755-6.7361 1.358-10.1381 1.811h.0981a140.454 140.454 0 01-14.0002 1.139 148.67 148.67 0 01-14.8828-.249c-3.0173-.196-6.007-.496-8.9689-.898a112.6705 112.6705 0 01-5.846-.935v.792c4.3807.794 8.7993 1.363 13.2383 1.704 4.9408.385 9.9043.513 14.8602.408a145.22 145.22 0 0013.2836-.898c4.1919-.475 8.3544-1.18 12.469-2.112l.3319-.075.347-.083.7543-.189c0-.266-.0151-.53-.0453-.792l-.9127.219" fill="#2C2C2C"/><path d="M37.2112 1.2745h-.249a22.721 22.721 0 00-4.7673.528 24.5744 24.5744 0 00-4.9483 1.6445 21.5246 21.5246 0 00-4.4354 2.6853 16.9338 16.9338 0 00-3.4699 3.6887 13.6224 13.6224 0 00-2.0518 4.6089 15.655 15.655 0 00-.3093 2.6401c0 .4752-.0603.9505-.1056 1.4181h-.098a7.5466 7.5466 0 00-1.5087.1509 5.9765 5.9765 0 00-1.6369.611 6.5172 6.5172 0 00-2.3836 2.3309 11.2612 11.2612 0 00-1.3125 3.4095 20.601 20.601 0 00-.4375 3.9526 30.9796 30.9796 0 00.181 3.6811 28.2746 28.2746 0 00.5507 3.3869 23.3259 23.3259 0 00.9127 3.1154 15.5086 15.5086 0 002.8211 5.0464 7.1269 7.1269 0 00-.7543 1.0636 7.8025 7.8025 0 00-.7543 1.8179 6.1552 6.1552 0 00.166 3.8773 5.505 5.505 0 00.362.7543c.1424.2455.3065.4777.4903.694a6.0822 6.0822 0 001.6897 1.3955 6.5977 6.5977 0 002.263.7995 6.704 6.704 0 001.041.0755 7.9654 7.9654 0 001.1767-.0905c0 .3545 0 .7166.0453 1.0711a13.6873 13.6873 0 00.5506 3.0173c.1418.4519.3157.893.5205 1.32.2157.4292.4654.8404.7468 1.2296a13.2448 13.2448 0 003.6962 3.4548 19.0166 19.0166 0 004.7446 2.1423c.5809.181 1.1843.347 1.7953.4827.031.7052.0032 1.4116-.0829 2.1121a13.26 13.26 0 01-.8449 3.0928h-.1282a1.9522 1.9522 0 01-.2942 0 .436.436 0 00-.1961-.0453.3314.3314 0 00-.2037.0679 2.4603 2.4603 0 00-.5808.6185 2.5785 2.5785 0 00-.3319.8222 1.8263 1.8263 0 00-.0453.3546 1.928 1.928 0 000 .4375 3.9699 3.9699 0 00-1.0636.2112 6.5911 6.5911 0 00-1.5086.7091 4.5248 4.5248 0 00-1.1843 1.0485 2.8722 2.8722 0 00-.347.5883 1.8843 1.8843 0 00-.1282.5582.325.325 0 00-.0906.1585l-1.3954.4375-1.6746.5204-1.2824.3923a47.5506 47.5506 0 00-5.6272 2.0819 20.1328 20.1328 0 00-9.0217 8.1014 27.7743 27.7743 0 00-2.5497 5.6726 39.2294 39.2294 0 00-1.4407 6.1171c-.3545 2.173-.5431 4.345-.7543 6.789-.2112 2.444-.3546 5.047-.4526 7.544-.1962 4.872-.1886 9.693 0 14.332h.8297c-.2036-4.368-.2036-8.879-.0528-13.488.083-2.263.2112-4.654.3847-7.075.0905-1.2.1886-2.384.3018-3.576.1131-1.191.2036-2.104.3319-3.077a37.8208 37.8208 0 012.4741-9.633 24.4275 24.4275 0 013.0173-5.2275 19.7109 19.7109 0 013.4473-3.4623 19.3966 19.3966 0 012.263-1.5086 22.5526 22.5526 0 012.5647-1.2597c1.7802-.7544 3.6056-1.3201 5.6347-1.9462a194.662 194.662 0 002.9796-.9278l.7921-.264 1.222.3017c1.1918.2716 2.4515.5054 3.7716.694h.0829c1.6897.2413 3.4398.4149 5.22.5129a76.881 76.881 0 002.6024.0905h.8674c1.388 0 2.7835-.0452 4.1639-.1357 1.1315-.0679 2.263-.1736 3.2813-.3018h.166a49.8724 49.8724 0 002.1272-.3017l1.6218-.2942 1.3049-.2791.1886-.0453.4149.1358.4149.1358c.9881.3168 1.9838.6261 3.0173.9278 2.0291.6261 3.8545 1.1994 5.6347 1.9462a22.7189 22.7189 0 012.5723 1.2597 18.7147 18.7147 0 015.7328 4.971 24.7575 24.7575 0 013.0173 5.2274 37.8274 37.8274 0 012.4667 9.6331c.1282.973.2263 1.946.3319 3.092.1056 1.147.2112 2.376.3017 3.576.1735 2.421.3017 4.805.3847 7.075.1584 4.526.1358 8.962-.0453 13.163h.7544c.2112-4.526.2187-9.24 0-14.075-.0981-2.475-.249-5.001-.4526-7.544-.2037-2.542-.3847-4.578-.7544-6.788a40.0898 40.0898 0 00-1.4483-6.118 27.7678 27.7678 0 00-2.5496-5.6725 21.0457 21.0457 0 00-3.9903-4.8579 21.3326 21.3326 0 00-5.1143-3.3039 48.1465 48.1465 0 00-5.6348-2.0819l-1.2824-.3923-1.6746-.5205c-.4149-.1282-.8297-.2564-1.2446-.3998a.1275.1275 0 000-.0754 1.2038 1.2038 0 000-.2489 5.0771 5.0771 0 00-.6185-1.2069 6.2825 6.2825 0 00-1.041-1.1315 5.967 5.967 0 00-2.4214-1.2522 2.5128 2.5128 0 00-.1358-.6412 4.6743 4.6743 0 00-.8901-1.4256.3995.3995 0 00-.2791-.1132H46.6176a12.7508 12.7508 0 01-.6563-2.6401 11.3218 11.3218 0 01-.0679-2.3686 30.4884 30.4884 0 005.0314-1.3578 17.2431 17.2431 0 004.722-2.7004 9.7609 9.7609 0 00.8826-.8223 6.2589 6.2589 0 00.8901-1.2069 8.457 8.457 0 00.5733-1.2597c.1733-.4926.3119-.9967.4148-1.5086a18.0238 18.0238 0 00.3093-1.9914c.0679-.5658.1207-1.1391.166-1.7124a.1809.1809 0 00.0829.0453 8.6542 8.6542 0 001.3654.1207 6.856 6.856 0 001.0485-.083 6.4776 6.4776 0 002.2629-.792 6.207 6.207 0 001.6897-1.4031 6.9274 6.9274 0 00.4903-.6864 6.7126 6.7126 0 00.3621-.7543 6.1853 6.1853 0 00.1584-3.8697 7.7964 7.7964 0 00-.7543-1.8179 7.4587 7.4587 0 00-1.1315-1.5087 6.6668 6.6668 0 00-.5431-.4827 15.9302 15.9302 0 001.3578-2.874 29.4958 29.4958 0 00.9278-2.9192 31.2564 31.2564 0 00.9731-6.1628 29.7572 29.7572 0 00-.3018-6.2458 24.3986 24.3986 0 00-1.6142-5.8536 21.2517 21.2517 0 00-.8147-1.6821 20.107 20.107 0 00.9656-1.8858 14.8762 14.8762 0 001.5086-6.0346 7.8718 7.8718 0 00-.1509-1.667 2.6017 2.6017 0 00-1.222-1.7275 3.5835 3.5835 0 00-1.0786-.4073 6.6163 6.6163 0 00-1.5087-.1433c-.3545 0-.7543 0-1.0711.0453-.7091.0528-1.4332.1508-2.1348.2489l-.5355.0754c-.4677.0603-.958.1207-1.4483.1433H56.733c-.4299 0-.89-.0603-1.3879-.1282a37.6486 37.6486 0 01-7.9506-2.3309c-1.3351-.4978-2.7155-1.0108-4.0884-1.4332a21.6415 21.6415 0 00-6.1326-1.041l.0377.0076zm-14.1964 31.327c.3018-2.2026.694-4.4505 1.2069-6.8568a61.5843 61.5843 0 0013.5778 2.8514c1.1617.098 2.3309.1508 3.4699.1508 1.1391 0 2.4365-.0603 3.6208-.1735a31.577 31.577 0 006.8794-1.4256 32.6806 32.6806 0 003.1531-1.1843c.4978 2.3987.8825 4.6014 1.1692 6.7436.264 2.0216.4526 4.0055.5506 5.8988.0528 1.0184.083 2.0518.0981 3.1682 0 .6638 0 1.3276.0528 1.9914v.9429a49.0376 49.0376 0 01-.1207 8.2976 15.6077 15.6077 0 01-.9731 3.7716 9.6967 9.6967 0 01-1.1315 1.9763 6.1846 6.1846 0 01-.8523.8675 5.5552 5.5552 0 01-1.1315.6638 6.0907 6.0907 0 01-1.4559.3922 8.1388 8.1388 0 01-.9127.0528 9.4675 9.4675 0 01-1.1994-.0754 12.9255 12.9255 0 01-3.0173-.8524 14.513 14.513 0 01-2.9267-1.7048 12.9256 12.9256 0 01-1.1692-1.0485.475.475 0 00-.249-.1131.294.294 0 00-.1433-.0755 10.2792 10.2792 0 00-2.3836-.3168 6.699 6.699 0 00-1.7652.2339.4203.4203 0 00-.1282.0679.3768.3768 0 00-.1886.098c-.4073.3998-.7543.7543-1.1465 1.0334l-.0604.0453a14.2642 14.2642 0 01-2.8664 1.6595 12.8257 12.8257 0 01-2.9494.8524h-.0981c-.347 0-.7543.0528-1.139.0528a8.1456 8.1456 0 01-.8524-.0453 6.4747 6.4747 0 01-1.5086-.3922 5.5419 5.5419 0 01-1.124-.6714 5.8507 5.8507 0 01-.7769-.8222 10.1666 10.1666 0 01-1.1315-1.9763 15.7127 15.7127 0 01-.9656-3.7716 49.6877 49.6877 0 01-.1659-8.3956l.0377-.8675c0-.6638.0453-1.3276.0604-1.9914 0-1.1089.0377-2.1498.098-3.1606.0981-1.8934.2791-3.8697.5431-5.8913h.0151zm-7.5432 11.164a4.9675 4.9675 0 01.9278-.5582c.2788-.1122.57-.1907.8675-.2338a2.1287 2.1287 0 01.3093 0 2.723 2.723 0 01.3545 0c.2246.0402.4445.1034.6562.1885a4.254 4.254 0 01.611.3546c.2541.21.4889.4422.7016.694 0 .4903-.0528.9806-.0755 1.5086v.2187a3.4587 3.4587 0 00-.4073-.4073 4.2998 4.2998 0 00-1.2823-.7015 3.2292 3.2292 0 00-.9882-.1509 3.0256 3.0256 0 00-.4526 0 3.289 3.289 0 00-1.5086.6261.407.407 0 00-.1811.2338.4003.4003 0 00.0377.3093.43.43 0 00.3546.2037.3087.3087 0 00.1885-.0604 3.4436 3.4436 0 01.6412-.3696 2.6135 2.6135 0 01.5884-.1584 2.1287 2.1287 0 01.3093 0h.3545c.2364.0459.4685.1115.694.1961.232.1117.4541.2429.6638.3923a4.304 4.304 0 01.6185.611c.095.1286.1831.262.264.3998a.356.356 0 00.0679.0905v2.2856c0 .6487-.0151 1.2974-.0452 1.9462 0 .792-.0528 1.5765-.0453 2.361l-.264.0377h-.083a7.5446 7.5446 0 01-.7543.0453 6.6955 6.6955 0 01-.7543-.0453 6.5642 6.5642 0 01-1.5087-.3998 6.4209 6.4209 0 01-1.3125-.7543 5.9343 5.9343 0 01-1.0561-.9127 5.017 5.017 0 01-.5883-1.0033 4.9064 4.9064 0 01-.3319-1.2672 6.1448 6.1448 0 010-1.4408 7.541 7.541 0 01.4601-1.6444 7.902 7.902 0 01.9052-1.5539 7.0646 7.0646 0 011.0636-1.041zm44.1731-.1584a4.0152 4.0152 0 01.6261-.3696 3.32 3.32 0 01.6487-.1811h.6714c.2864.0452.5671.1211.8373.2263.3346.1525.6509.3423.9429.5658l-.0604-.0679c.3921.323.751.6843 1.0712 1.0787a7.9576 7.9576 0 01.9278 1.584c.2183.5279.3728 1.08.4601 1.6445a5.8298 5.8298 0 010 1.4483 5.1485 5.1485 0 01-.3319 1.2597 5.871 5.871 0 01-.5657.9806 6.5562 6.5562 0 01-.9505.9354c-.4103.3-.8531.5531-1.32.7543a7.3016 7.3016 0 01-1.5087.3998h-.7543a7.4048 7.4048 0 01-.8222-.0453H59.1016a.3648.3648 0 00-.1358 0c.1207-1.5086.1811-3.138.2037-5.1445v-1.5689c.0754-.1283.1584-.249.2489-.3772a4.2567 4.2567 0 01.611-.611 4.339 4.339 0 01.6714-.3847 3.6578 3.6578 0 01.6864-.2037h.6638c.2036.0323.4032.0854.5959.1584.2232.1016.4355.2254.6337.3696a.3088.3088 0 00.1886.0604.4147.4147 0 00.3545-.2037.4373.4373 0 00.0452-.3093.4218.4218 0 00-.1885-.2338 3.3417 3.3417 0 00-1.5087-.6261 2.8742 2.8742 0 00-.445 0 3.018 3.018 0 00-.9882.1584 3.8392 3.8392 0 00-1.2823.7015 3.303 3.303 0 00-.2942.2641v-1.7802a5.1731 5.1731 0 01.4677-.4376l.015-.0452zM38.75 67.9868c.5431 0 1.0862 0 1.6293-.0377a33.3735 33.3735 0 004.6919-.5582 11.8349 11.8349 0 00.1132 2.5119c.1294.8346.3365 1.6554.6185 2.4515h-.2791l-1.6821.1811h-.3093c-.5884.0528-1.1013.098-1.6143.1282-1.3577.0905-2.7306.1282-4.1035.1282h-1.5614c-.7015 0-1.388-.0452-2.0669-.0829h-.1961l-1.3125-.0905h-.3395l-.6939-.0604c.0603-.1358.1207-.2791.1735-.43a13.2714 13.2714 0 00.6261-2.4666 12.0756 12.0756 0 00.1282-2.263c.8297.166 1.6972.3018 2.6477.3998 1.1722.129 2.3508.192 3.5302.1886zm-.9354 5.665c1.3503 0 2.693 0 3.9829-.1207.626-.0377 1.2144-.0905 1.8103-.1433h.347l1.5087-.166h.4752l1.2371-.181h.1735l.1282.0905c.1938.2494.3583.5202.4903.8071.0635.1631.109.3325.1358.5054a1.9262 1.9262 0 010 .2942 2.0075 2.0075 0 01-.0754.2866 1.652 1.652 0 01-.1283.2188 1.3965 1.3965 0 01-.2112.2112 2.865 2.865 0 01-.4224.2338 4.6327 4.6327 0 01-.7543.2037.348.348 0 00-.2414.181.4226.4226 0 00-.0453.3018.4076.4076 0 00.1886.2414.3399.3399 0 00.1886.0528h.1207a3.168 3.168 0 001.4332-.5431 1.991 1.991 0 00.6713-.8902c.2183.062.4324.1376.6412.2263a5.731 5.731 0 011.1391.6714c.3525.2812.676.5971.9655.9429.2085.2708.3856.5643.528.875l.0528.1056h-.3621l-.1357.0377-1.1843.2565c-.513.0981-.9957.1886-1.5087.264-.5129.0754-1.0485.1735-1.5614.2414l-.2716.0377h-.264a55.1523 55.1523 0 01-3.319.3168c-1.4257.0981-2.874.1509-4.3147.1509h-.9505c-.8222 0-1.6067-.0453-2.3987-.083-1.6369-.0905-3.1908-.2338-4.6768-.43l-.3018-.0452h-.1584c-1.305-.1886-2.5798-.4224-3.7716-.694-.4299-.098-.8524-.1961-1.2748-.3093l.0453-.1508a1.9083 1.9083 0 01.2263-.4451 3.6747 3.6747 0 01.5582-.5883 6.0313 6.0313 0 011.0711-.6714l.0754-.0528a7.2173 7.2173 0 011.1466-.3621 3.2555 3.2555 0 01.4677-.0377h.1282c.1538.2073.3427.386.5582.528.2065.1409.4327.2502.6714.3244.4887.1482.9981.217 1.5086.2037a.4157.4157 0 00.3244-.1207.4222.4222 0 00.1131-.3017.4148.4148 0 00-.4224-.3772h-.4601a4.5855 4.5855 0 01-.8751-.1584 3.0153 3.0153 0 01-.4676-.2339 2.212 2.212 0 01-.2339-.2263 3.0066 3.0066 0 01-.1659-.2564c0-.0981-.0679-.2037-.0981-.3093a2.2807 2.2807 0 010-.3244 2.5573 2.5573 0 01.0981-.4148 2.1704 2.1704 0 01.181-.347 1.961 1.961 0 01.2037-.2339l.5733.0679h.0829c.4753.0604.9505.1056 1.4182.1433h.0905l1.5086.1057h.347c.5658 0 1.139.0528 1.7048.0678h1.7651" fill="#2C2C2C"/><path d="M41.8203 51.0222a6.7124 6.7124 0 00-1.1013.083 7.8618 7.8618 0 00-1.569.43.3767.3767 0 00-.1056.0603 7.7904 7.7904 0 00-1.569-.445 7.6453 7.6453 0 00-1.1013-.083h-.4375a7.9116 7.9116 0 00-3.0173.8222 11.3152 11.3152 0 00-2.5647 1.7199 15.703 15.703 0 00-2.1649 2.3685.4374.4374 0 00-.0905.2942.429.429 0 00.2413.3319 3.0179 3.0179 0 001.5087.3772c.3139-.0017.627-.032.9353-.0905a11.382 11.382 0 002.9494-.9731c.7544-.3621 1.5087-.7543 2.3234-1.2296.6185-.3469 1.1616-.6864 1.667-1.0334a12.5628 12.5628 0 001.4106-1.1465c.4132.404.8598.7725 1.3351 1.1013.1358.098.2791.1885.4225.2791-.0377.0829-.0679.1735-.1056.2489a2.6493 2.6493 0 01-.2263.3394 2.857 2.857 0 01-.43.3772 2.8873 2.8873 0 01-.4601.2263 2.6467 2.6467 0 01-.5205.1056 2.1147 2.1147 0 01-.4149 0 1.5091 1.5091 0 01-.3244-.1131l-.2262-.1509a2.3858 2.3858 0 01-.2263-.2565 2.2516 2.2516 0 01-.1735-.3319.3858.3858 0 00-.1468-.168.3857.3857 0 00-.2153-.0583.3617.3617 0 00-.1811.0453.415.415 0 00-.181.5431c.1002.2469.2432.4742.4224.6713.1692.1874.3745.3388.6035.4451.3009.1449.6316.2173.9655.2112.1456.0115.2919.0115.4375 0a2.9738 2.9738 0 00.7091-.2187 3.2587 3.2587 0 00.6261-.3923 2.7911 2.7911 0 00.5054-.5507 2.0307 2.0307 0 00.264-.4903c.1659.1132.3545.2263.5431.3319.8071.4602 1.5086.8675 2.3233 1.2296.924.4647 1.9057.8046 2.9192 1.0108.3091.0525.6219.0802.9354.083a2.9349 2.9349 0 001.5087-.3697.4154.4154 0 00.2413-.3319.4606.4606 0 00-.0829-.2942 15.3838 15.3838 0 00-2.1725-2.3685 11.315 11.315 0 00-2.5571-1.7274 7.9289 7.9289 0 00-3.0173-.8147h-.43" fill="#2C2C2C"/><path d="M241.222 92.4424a.3978.3978 0 00-.11.2753c0 .1025.039.201.11.2753.106.1153.223.2213.347.3168.179.1155.372.2092.573.2791.227.0677.459.1132.694.1358.204 0 .415 0 .626.0528a.3997.3997 0 00.249-.0452.3648.3648 0 00.115-.0981.364.364 0 00.066-.1358.3854.3854 0 00.013-.1547.402.402 0 00-.05-.147.3794.3794 0 00-.098-.1149.3792.3792 0 00-.136-.0662c-.264-.0452-.528-.0528-.8-.0829a3.0388 3.0388 0 01-.581-.1509l-.211-.1207a2.0841 2.0841 0 01-.226-.2187.3592.3592 0 00-.123-.0895.3604.3604 0 00-.149-.0312.4136.4136 0 00-.286.1207" fill="#419A6F"/><path d="M268.778 101.441a.3746.3746 0 00-.132.063.3622.3622 0 00-.095.111.4234.4234 0 00-.045.302c.317 1.891.604 3.784.86 5.68v-.098a174.1984 174.1984 0 011.569 22.418h.754c-.051-9.452-.868-18.884-2.444-28.204a.3609.3609 0 00-.062-.135.3753.3753 0 00-.111-.099.37.37 0 00-.196-.06.3066.3066 0 00-.113 0M243.304 41.8123c-.188.5808-.415 1.139-.648 1.6972-.234.5582-.513 1.2296-.755 1.8556a12.0453 12.0453 0 00-.55 1.8406c-.058.2835-.093.571-.106.8599-.019.2749-.004.5511.045.8222.067.4505.276.868.596 1.1919.312.2971.697.5054 1.117.6034.223.0555.45.0958.679.1207.236.0151.472.0151.709 0a12.069 12.069 0 001.508-.1131.4804.4804 0 00.279-.1132.4115.4115 0 00.106-.2791.4283.4283 0 00-.106-.2791.3755.3755 0 00-.279-.1056 9.4463 9.4463 0 01-2.353.0603h.105a3.3378 3.3378 0 01-.716-.1885 1.7765 1.7765 0 01-.332-.1886 1.6526 1.6526 0 01-.234-.2263 1.9122 1.9122 0 01-.158-.2716 2.5388 2.5388 0 01-.136-.4676 4.8722 4.8722 0 010-.9354c.182-.9855.476-1.9472.875-2.8664.385-.9429.814-1.8708 1.124-2.8438a.4031.4031 0 00-.042-.2981.3989.3989 0 00-.237-.1847h-.098a.4002.4002 0 00-.378.2866l-.015.0227zm-1.229 5.8083zm.762 2.1573h.052-.052zM253.736 48.2164c-1.033 0-1.87-1.1692-1.87-2.6024 0-1.4332.837-2.6024 1.87-2.6024 1.034 0 1.879 1.1617 1.879 2.6024 0 1.4408-.845 2.6024-1.879 2.6024zM253.382 35.4759a6.781 6.781 0 01.875.0528c.326.0567.649.1322.966.2263a6.3658 6.3658 0 012.942 1.8481c.061.081.105.1735.13.272.025.0986.029.201.013.3013a.7578.7578 0 01-.094.2929.7508.7508 0 01-.203.2311.7443.7443 0 01-.278.1309.751.751 0 01-.307.0089.7983.7983 0 01-.521-.3093l-.053-.0528a4.9758 4.9758 0 00-.98-.7543 5.967 5.967 0 00-1.283-.528 5.68 5.68 0 00-1.124-.166 5.1222 5.1222 0 00-.958.1056l-.233.0755a.8085.8085 0 01-1.019-.4451.7544.7544 0 01-.064-.3033.7549.7549 0 01.243-.5562.7616.7616 0 01.266-.1588 5.2098 5.2098 0 011.66-.2716h.022zm1.23 1.7199h.091-.091zm2.15 1.1843l.075.0829-.075-.0829zM247.363 52.5839v.1509a.1151.1151 0 010 .0453v.1206c0 .0981 0 .1962-.038.2942a5.5928 5.5928 0 01-.294 1.0938 4.8966 4.8966 0 01-.528.875 4.425 4.425 0 01-.649.6563 3.9681 3.9681 0 01-.694.4073 3.6158 3.6158 0 01-.694.1886 3.473 3.473 0 01-.792 0 3.6356 3.6356 0 01-.694-.1886 4.0051 4.0051 0 01-.694-.4073 4.1087 4.1087 0 01-.626-.6261 4.6662 4.6662 0 01-.528-.8977 5.4324 5.4324 0 01-.317-1.1541v-.1207a.3988.3988 0 00-.113-.2791.4216.4216 0 00-.279-.1131.3859.3859 0 00-.272.1131.407.407 0 00-.088.1274.3778.3778 0 00-.032.1517c.042.3757.117.7468.226 1.1089.065.2202.148.4347.249.6412.232.506.557.964.958 1.3502a3.6444 3.6444 0 002.362 1.0932 3.6406 3.6406 0 002.488-.7613 4.5282 4.5282 0 001.147-1.2974c.225-.3878.398-.8038.513-1.2371.091-.3483.149-.7044.173-1.0636a.4561.4561 0 010-.0905v-.166a.3923.3923 0 00-.377-.2845.3923.3923 0 00-.377.2845l-.03-.0151zm-.317 1.7501zm-5.431.8297v.0377-.0377zm1.388 1.1089h.038-.038zM218.465 101.238a.416.416 0 00-.182.226 176.3883 176.3883 0 00-2.436 28.453h.754c.031-7.582.558-15.154 1.577-22.667v.105c.256-1.901.54-3.794.852-5.68.015-.05.019-.103.012-.155a.3932.3932 0 00-.049-.147.3866.3866 0 00-.099-.114.38.38 0 00-.135-.067h-.106a.3802.3802 0 00-.196.061" fill="#2C2C2C"/><path d="M231.582 77.7105a.4155.4155 0 00-.287.1132l-.218.1961-.091.0528-.377.1207-.151.0452c-.158.0453-.309.0905-.468.1509a2.681 2.681 0 00-.415.1961.8361.8361 0 00-.286.2489c-.069.146-.103.3063-.098.4677.014.2018.049.4016.105.5959.068.2414.136.4828.219.7166.083.2339.226.5733.355.86l.12.264c.159.3847.279.709.393 1.0334l.113.3621.218.6336.114.3168c.075.1886.143.3772.211.5733.068.1961.196.5582.302.8373.116.3138.249.6211.399.9203l.302.6562.106.2339c.158.3243.316.6412.498.9504l.264.4903c.09.1584.173.3244.271.4828.181.3017.362.611.566.9052.204.2942.317.445.483.6713l.068.0906.12.1584c.181.2489.362.4978.558.7543l.43.4903.257.2942c.234.2715.483.528.754.7543.272.2263.407.3545.619.528l.181.1509c.294.2414.565.4601.86.6563l.475.3092.415.264.241.166c.226.1509.445.3017.687.4375.326.1821.67.3311 1.025.4451l.204.0678.596.1811c.295.088.595.161.898.2187l.49.1056c.166.0302.332.0529.498.0679h.121c.294.0378.588.0604.882.083h.257a6.7266 6.7266 0 001.508-.2037 8.2913 8.2913 0 001.252-.362l.657-.2414c.137-.0443.271-.0998.399-.166l.461-.264.588-.3092c.216-.1121.423-.2408.618-.3848l.257-.1735c.166-.1056.332-.2112.49-.3319.302-.2187.589-.4525.875-.6939a12.6634 12.6634 0 001.509-1.5087c.237-.2697.449-.56.634-.8674l.067-.1057c.166-.2791.34-.5582.528-.8222l.076-.098c.203-.2603.387-.5351.551-.8222l.505-.9279c.169-.3306.358-.6505.566-.958.193-.2875.372-.5845.535-.89.317-.6173.6-1.2519.845-1.901l.159-.4375.158-.4374c.083-.2263.151-.4602.226-.7016v-.1056l.053-.181c.075-.2565.151-.5054.211-.7544l.159-.5808.045-.1886.098-.3545.098-.347c.045-.1886.091-.3771.128-.5657v-.2414c.036-.1616.062-.3254.076-.4903a1.1519 1.1519 0 00-.053-.3545.8889.8889 0 00-.362-.4602 1.3178 1.3178 0 00-.506-.1961l-.294-.0604h-.143a1.5162 1.5162 0 00-.257-.0452h-.15a1.0129 1.0129 0 01-.204-.0528l-.136-.0604h-.136a.4053.4053 0 00-.203.0529.5834.5834 0 00-.181.181 1.461 1.461 0 00-.091.1886c-.073.2011-.128.408-.166.6185v.2489c-.045.2037-.09.4074-.143.611-.053.2037-.166.5507-.264.8147s-.151.4828-.211.7543v.1132a6.2932 6.2932 0 01-.174.6336c-.06.166-.128.3244-.188.4752l-.106.264-.113.2716-.113.2791v.0528a18.1687 18.1687 0 01-1.117 2.2026l-.317.5507c-.105.1886-.203.3696-.316.5506-.196.3338-.41.6562-.642.9656-.226.2866-.475.5657-.716.8297-.242.264-.264.3168-.392.4828-.129.1659-.219.264-.325.3922-.105.1283-.369.3923-.565.5884l-.249.2489-.106.1056-.272.2716c-.113.1056-.233.2037-.347.2942l-.49.3621c-.166.1056-.332.2112-.498.3017a9.8995 9.8995 0 01-.377.1961l-.256.1283-.362.1734c-.184.074-.373.1345-.566.1811-.258.0782-.51.1739-.755.2866h-.128a4.4292 4.4292 0 01-.664.1358l-.437.0754-.257.0453c-.401.0377-.804.0554-1.206.0528h-1.207a1.3052 1.3052 0 01-.227-.0679l-.392-.2112c-.113-.0679-.226-.1358-.347-.1961l-.211-.1056a5.1586 5.1586 0 01-.536-.2791l-.415-.2489c-.173-.1057-.347-.2264-.52-.3471l-.106-.0829c-.377-.2565-.754-.513-1.109-.7543a3.949 3.949 0 01-.354-.3546l-.189-.1961-.15-.1509a4.8889 4.8889 0 01-.393-.4073c-.098-.1433-.181-.2942-.271-.445a6.4312 6.4312 0 00-.227-.3546l-.083-.1207c-.135-.1961-.264-.3998-.399-.611-.136-.2112-.34-.528-.521-.7543l-.211-.2942c-.128-.1735-.264-.347-.377-.528l-.211-.3395a11.4086 11.4086 0 01-.332-.5355c-.106-.1811-.189-.3093-.272-.4677l-.271-.4677-.061-.098a8.4737 8.4737 0 01-.437-.8072c-.038-.098-.083-.2414-.136-.3847l-.098-.2791a18.5436 18.5436 0 00-.317-.8222c-.113-.2715-.143-.3394-.219-.5129l-.158-.3395a26.0257 26.0257 0 00-.302-.6939l-.038-.083c-.158-.3772-.331-.8222-.482-1.2975a6.6303 6.6303 0 01-.159-.5506v-.1282a2.6705 2.6705 0 00-.068-.2641.6857.6857 0 00-.067-.1282c.049-.0376.097-.0779.143-.1207l.068-.0603a.3525.3525 0 00.085-.1238.3572.3572 0 00.028-.1478.4279.4279 0 00-.027-.1585.4243.4243 0 00-.086-.1357.3893.3893 0 00-.128-.085.3873.3873 0 00-.151-.0281M222.228 111.934a.4065.4065 0 00-.157.034.4009.4009 0 00-.13.094.3854.3854 0 00-.113.272v8.207c-.003.048-.003.095 0 .143.005.103.034.203.085.292.052.089.123.165.209.221.137.111.284.209.438.294.126.073.247.153.362.242.196.158.392.317.581.482.188.166.392.317.588.468l.121.091.075.052c.157.126.324.24.498.34.106.06.219.105.324.158l.204.098.091.053c.023.069.059.133.105.189.047.054.097.104.151.151l.068.06.189.173c.128.121.264.234.399.34l.136.106c.242.188.483.384.754.565.378.287.755.581 1.109.898l.204.158.075.068.068.053c.073.069.151.132.234.189.11.09.239.155.377.188h.136c.045.008.091.008.136 0l.143-.038c.149-.053.291-.124.423-.211.246-.169.481-.356.701-.558l.332-.279c.272-.196.566-.37.852-.536l.498-.294.234-.166.091-.06.347-.234.256-.158c.145-.084.286-.174.423-.272l.098-.06c.339-.242.701-.491 1.025-.755l.31-.264.301-.271.363-.294.294-.219.286-.219c.105-.078.213-.151.325-.219.087-.051.17-.109.249-.173a.79.79 0 00.226-.438c.065-.35.097-.706.098-1.063v-1.079V117.607v-.589-.415-1.093V114.174 113.284v-.339-.453a.4303.4303 0 00-.049-.239.4493.4493 0 00-.17-.176.9827.9827 0 00-.317-.068l-.595-.045h-.913c-.355 0-.709 0-1.064.038H231.672c-.362 0-.754-.045-1.086-.091a7.0453 7.0453 0 00-.883-.052h-.181c-.219 0-.43 0-.648.052H223.978c-.309 0-.619 0-.92.046H222.643a.5065.5065 0 00-.174-.185.503.503 0 00-.241-.079" fill="#A3C0B6"/><path d="M236.742 109.105h-.966c-.422 0-.845 0-1.275.038H224.982l-1.562-.113h-1.41c-.104.012-.206.04-.302.083a.269.269 0 00-.098 0 .429.429 0 00-.294.107.432.432 0 00-.144.278 8.097 8.097 0 000 1.41v.083c-.011.115-.011.232 0 .347.009.057.03.111.061.159s.072.089.121.12a.573.573 0 00.294.098c.141.03.285.048.43.053h.143c.234 0 .475 0 .709-.053l.385-.045h14.279c.101 0 .201-.021.294-.06.1-.049.183-.127.236-.225a.5429.5429 0 00.066-.318c.004-.066.004-.131 0-.197v-.233-.996a.7576.7576 0 00-.053-.234.5676.5676 0 00-.166-.189.6697.6697 0 00-.279-.113 1.697 1.697 0 00-.324-.06h-.641" fill="#F4DBD8"/><path d="M233.883 48.6085c1.033 0 1.871-1.1692 1.871-2.6024 0-1.4332-.838-2.6024-1.871-2.6024s-1.871 1.1617-1.871 2.6024c0 1.4408.838 2.6024 1.871 2.6024zM233.679 35.8757c-.29-.0012-.58.0164-.868.0528a8.1498 8.1498 0 00-.965.2263 6.3278 6.3278 0 00-2.942 1.8481.7475.7475 0 00-.134.2712.7505.7505 0 00-.017.302.7588.7588 0 00.094.293.752.752 0 00.203.2311.7605.7605 0 00.278.1308.7577.7577 0 00.308.009.8294.8294 0 00.528-.3093l.045-.0528c.296-.2894.625-.5426.981-.7544a6.1267 6.1267 0 011.282-.528c.371-.0926.75-.1482 1.131-.1659.322.0049.643.0403.958.1056l.234.0754a.786.786 0 001.019-.445.7882.7882 0 00-.012-.6014.7836.7836 0 00-.433-.417 5.2097 5.2097 0 00-1.66-.2715h-.03zm-1.23 1.7198h-.083.083zm-2.142 1.1843l-.083.083.083-.083zM221.331 116.362c0 .822-.046 1.652-.061 2.474 0 .415 0 .837-.037 1.252v.89c-.002.052.007.104.026.152.02.048.049.092.087.128l.196.143.309.241.453.347 1.026.755 1.863 1.433 3.998 3.07c.06.035.129.053.2.053.07 0 .139-.018.2-.053l4.578-3.176 2.143-1.508 1.093-.755c.108-.069.211-.145.31-.226a.4348.4348 0 00.12-.279v-.687c.071-2.972.144-5.946.219-8.923h-.445l-.339-.038-.227 9.474-7.656 5.281-7.385-5.62.226-9.173h-.543l-.241-.037-.113 4.812" fill="#2C2C2C"/><path d="M221.09 108.668h-.091a.4007.4007 0 00-.275.117.4007.4007 0 00-.117.275v2.882c.002.102.044.2.117.272.074.072.172.112.275.112h17.395c.103 0 .201-.04.275-.112.073-.072.115-.17.117-.272v-2.882a.4007.4007 0 00-.117-.275.4007.4007 0 00-.275-.117H221.09zm16.912 2.881h-16.595v-2.074h16.595v2.074z" fill="#2C2C2C"/><path d="M247.808 0c-.956-.0012-1.909.077-2.852.2339a12.1317 12.1317 0 00-2.911.8599 8.02 8.02 0 00-2.316 1.5086 6.6622 6.6622 0 00-.845 1.0033c-.135.1948-.256.399-.362.611a3.5352 3.5352 0 00-.475-.5356 5.5182 5.5182 0 00-1.019-.7543 7.2524 7.2524 0 00-2.33-.8147 10.5722 10.5722 0 00-1.864-.1584 15.163 15.163 0 00-3.175.3696 15.3279 15.3279 0 00-5.001 2.1197 13.5297 13.5297 0 00-3.953 3.8395 9.8016 9.8016 0 00-1.335 3.0173 9.0669 9.0669 0 00-.234 1.6142 8.4522 8.4522 0 00.053 1.5087h-.362l-.536.0754a3.4616 3.4616 0 00-.483.1132 8.9808 8.9808 0 00-2.738 1.3653 11.012 11.012 0 00-2.768 2.9418 11.404 11.404 0 00-1.562 3.6736 8.9155 8.9155 0 00-.083 3.8093 6.813 6.813 0 00.551 1.6067c.252.5155.571.995.95 1.4257a7.3177 7.3177 0 002.98 1.9839 10.0314 10.0314 0 00-1.616 3.6579 10.0256 10.0256 0 00-.059 3.9984 9.0065 9.0065 0 001.573 3.6836 9.0065 9.0065 0 003.014 2.6377 7.8053 7.8053 0 00-.642 1.6067 6.1563 6.1563 0 00.166 3.8772c.102.2603.223.5124.363.7543.146.2427.31.4746.49.694a6.0775 6.0775 0 001.689 1.3955c.7.4026 1.467.6736 2.263.7996.345.0518.693.077 1.041.0754a8.0315 8.0315 0 001.177-.0905c0 .3545 0 .7166.045 1.0711.069 1.0228.251 2.0349.544 3.0173.147.4508.324.8917.528 1.3201.216.44.468.8614.754 1.2597a13.5764 13.5764 0 003.696 3.4548 19.092 19.092 0 004.752 2.1423c.581.181 1.185.3394 1.796.4827.031.7051.004 1.4117-.083 2.1121a12.6873 12.6873 0 01-.83 3.0173 11.702 11.702 0 01-1.426 2.4818 10.0367 10.0367 0 01-1.591 1.6067 8.3297 8.3297 0 01-1.652.973c-.332.1358-.679.249-1.019.3621l-.203.0679-1.554.5054-1.682.5129-1.29.4074a46.1449 46.1449 0 00-5.628 2.0744 21.2803 21.2803 0 00-5.114 3.3039 20.7823 20.7823 0 00-3.998 4.8654 27.3732 27.3732 0 00-2.549 5.6725 39.139 39.139 0 00-1.441 6.1178c-.347 2.172-.543 4.337-.754 6.789-.212 2.451-.355 5.046-.453 7.543-.196 4.88-.189 9.693 0 14.332h.792c-.189-4.292-.211-8.803-.053-13.412.083-2.263.211-4.654.385-7.083.09-1.192.188-2.384.302-3.568.113-1.184.203-2.112.331-3.078a37.8666 37.8666 0 012.475-9.6322 24.39 24.39 0 013.017-5.2275 19.4504 19.4504 0 013.447-3.4623 20.201 20.201 0 012.263-1.5087 25.4649 25.4649 0 012.565-1.2597c1.78-.7543 3.606-1.3201 5.635-1.9461l.316-.0906 1.63-.5054a40.4707 40.4707 0 001.863 5.8687l.038.0754a30.844 30.844 0 002.798 5.3934 19.2246 19.2246 0 004.33 4.7673c.458.3486.936.6685 1.433.958.484.2875.989.5396 1.509.7543 1.012.4027 2.081.642 3.168.7091h.543a10.1687 10.1687 0 002.859-.4375 11.5038 11.5038 0 003.093-1.5086 17.2142 17.2142 0 004.164-4.0809 31.2483 31.2483 0 004.405-8.6974l.053-.1735.053-.1508v-.083c.173-.5431.339-1.0711.482-1.5992l.046-.1433v-.2112c0-.0754 0-.1282.045-.181l.045-.1735.045-.1811.061-.2187.045-.1962 1.071.3395c2.029.6261 3.855 1.1994 5.635 1.9461.88.3654 1.737.7861 2.565 1.2598.788.4493 1.544.9534 2.263 1.5086a19.7165 19.7165 0 013.447 3.4623 24.4369 24.4369 0 013.017 5.2275 37.8225 37.8225 0 012.474 9.6324c.128.973.227 1.946.332 3.093.106 1.147.211 2.376.302 3.568.173 2.429.302 4.813.385 7.083.15 4.526.135 8.961-.053 13.163h.792c.211-4.526.219-9.24 0-14.076-.098-2.474-.249-5.001-.453-7.543-.203-2.542-.392-4.579-.754-6.789a39.2605 39.2605 0 00-1.441-6.1174 27.8105 27.8105 0 00-2.549-5.6724 20.135 20.135 0 00-9.113-8.1618 47.5462 47.5462 0 00-5.627-2.082l-1.282-.3922-1.675-.5205-1.561-.4978-.204-.0679c-.339-.1207-.686-.2339-1.018-.3696a8.208 8.208 0 01-1.652-.9656 10.0608 10.0608 0 01-1.592-1.6142 11.6385 11.6385 0 01-1.426-2.4742 13.0503 13.0503 0 01-.829-3.0173 11.9449 11.9449 0 01-.061-2.3686 30.6163 30.6163 0 005.054-1.5086 17.4031 17.4031 0 004.73-2.7005c.309-.2575.604-.532.882-.8222.344-.3636.641-.7691.883-1.2069a7.771 7.771 0 00.581-1.2598c.173-.4925.312-.9967.415-1.5086.136-.6582.239-1.3228.309-1.9914.068-.5657.121-1.139.166-1.7123.024.0251.056.041.09.0452a7.826 7.826 0 001.358.1207 6.882 6.882 0 001.056-.0829 6.4365 6.4365 0 002.263-.7921 6.0954 6.0954 0 001.69-1.403c.18-.2168.343-.4462.49-.6865.14-.242.261-.4942.362-.7543a6.0775 6.0775 0 00.159-3.8697 7.1819 7.1819 0 00-.755-1.8179 7.0458 7.0458 0 002.965-2.0216 11.646 11.646 0 001.35-1.7425c.41-.6328.766-1.2989 1.064-1.9913.505-1.1919 1.976-5.2803-.566-7.6715a4.1394 4.1394 0 00-.483-.3998c.091-.032.177-.0751.257-.1282a4.851 4.851 0 00.754-.5733 4.708 4.708 0 00.988-1.4182 7.5492 7.5492 0 00.604-3.7112 10.6132 10.6132 0 00-.996-3.8697 7.1107 7.1107 0 00-2.301-2.8362 4.5092 4.5092 0 00-.905-.4828 4.431 4.431 0 00-.415-.1358 7.3561 7.3561 0 00.754-1.6143 6.3068 6.3068 0 00.295-2.0819 7.1897 7.1897 0 00-1.275-3.8395 10.7359 10.7359 0 00-3.108-3.0173 12.3831 12.3831 0 00-4.119-1.7424 10.1534 10.1534 0 00-2.225-.249c-.271 0-.543 0-.814.0377a7.8853 7.8853 0 00-2.505.6261 5.345 5.345 0 00-.407-1.124 6.5037 6.5037 0 00-.913-1.335 7.4373 7.4373 0 00-1.245-1.1617 11.736 11.736 0 00-1.508-.958A15.3247 15.3247 0 00251.987.528a19.2821 19.2821 0 00-4.006-.5204h-.385L247.808 0zm.958 30.354a8.8386 8.8386 0 002.776-.4375 6.8872 6.8872 0 003.228-2.2253c.313-.3937.582-.8213.8-1.2748.092-.1883.173-.3823.241-.5808.162.272.355.525.573.7543a6.8868 6.8868 0 001.796 1.4483 5.5992 5.5992 0 002.036.7015h.468c.334.001.667-.0447.988-.1358a8.9893 8.9893 0 00-.339 3.568c.039.3379.099.673.181 1.0032.099.3635.225.719.377 1.0636a6.2615 6.2615 0 001.011 1.5766 7.5479 7.5479 0 00-1.434 3.8923c-.015.3632.005.727.061 1.0862.061.3787.175.7469.339 1.0938.32.637.825 1.1628 1.449 1.5086v4.3072a99.271 99.271 0 01-.114 4.7824c-.045.8222-.105 1.6369-.173 2.4591-.06.6185-.121 1.2295-.204 1.8481a12.5073 12.5073 0 01-.792 3.0852 6.978 6.978 0 01-.754 1.3125 8.8941 8.8941 0 01-1.509 1.4634 17.1787 17.1787 0 01-3.719 2.1045 32.1799 32.1799 0 01-7.98 2.1121c-1.438.1877-2.887.281-4.338.2791a34.0137 34.0137 0 01-4.382-.2866 25.0686 25.0686 0 01-6.088-1.5916 17.0765 17.0765 0 01-3.598-2.0367l-.06-.0453a13.0842 13.0842 0 01-2.218-2.2101c-.196-.2565-.385-.513-.558-.7544a7.6637 7.6637 0 01-.573-1.0937v-.0679a10.6989 10.6989 0 01-.687-2.7156 30.2615 30.2615 0 01-.113-4.7597v-.2942c0-.6714.045-1.3352.053-1.999 0-1.0032 0-2.0065.06-3.0173.061-1.0108.083-1.8104.136-2.7155a5.973 5.973 0 00.619-.4526c.281-.2533.534-.5366.754-.8449a4.7805 4.7805 0 00.845-2.0894c.061-.4018.086-.8083.075-1.2145a3.8903 3.8903 0 00-.181-1.0033c-.075-.2489-.166-.4903-.256-.7543l-.121-.347a5.082 5.082 0 01-.264-.9127 1.86 1.86 0 010-.2112.8914.8914 0 01.136-.2339c.196-.2489.415-.4827.633-.7166.268-.2617.52-.5388.755-.8297.092-.1376.17-.2842.234-.4375.095-.2011.178-.4076.248-.6186.154-.4331.266-.8803.332-1.3351a7.5367 7.5367 0 00-.241-3.4473l.196.1509a8.472 8.472 0 001.788.9127 9.4761 9.4761 0 003.251.5658c.279 0 .566 0 .852-.0378a7.6776 7.6776 0 003.772-1.3276 5.695 5.695 0 001.365-1.3879 5.157 5.157 0 00.498-.8901c.107.1345.205.2756.294.4224.222.3254.475.6285.755.9052.482.513 1.024.9663 1.614 1.3502a9.6374 9.6374 0 003.907 1.4333 8.946 8.946 0 001.26.0905l-.06.0528zm-27.307 12.7707c.27-.1074.551-.1834.837-.2264.103-.0076.207-.0076.31 0 .118-.0075.236-.0075.354 0 .224.0434.444.1065.657.1886.217.103.424.2268.618.3697.251.2021.484.4268.694.6713 0 .5205-.06 1.0032-.083 1.5086v.2112a3.3117 3.3117 0 00-.4-.3997 4.205 4.205 0 00-1.282-.7016 3.2337 3.2337 0 00-.988-.1508 3.0044 3.0044 0 00-.453 0 3.3722 3.3722 0 00-1.508.6261.4014.4014 0 00-.194.3923.4028.4028 0 00.05.1508.4306.4306 0 00.362.2036.3312.3312 0 00.189-.0603c.196-.1474.409-.2715.634-.3696a2.595 2.595 0 01.588-.1584c.103-.0074.206-.0074.309 0h.355c.236.0458.468.1114.694.1961.233.1099.455.2412.663.3922.227.1823.434.387.619.611.095.1286.183.262.264.3998.016.0323.04.0606.068.083v2.2931c0 .6488 0 1.2975-.045 1.9462 0 .7921-.053 1.5766-.053 2.361l-.257.0378h-.075c-.204 0-.483.0377-.754.0377a6.6248 6.6248 0 01-.755-.0453 6.967 6.967 0 01-1.508-.3998 5.5829 5.5829 0 01-2.263-1.6746 5.565 5.565 0 01-.581-1.0032 5.2492 5.2492 0 01-.324-1.1994 6.2411 6.2411 0 010-1.5086 7.2296 7.2296 0 01.46-1.6445 7.796 7.796 0 01.905-1.5539c.324-.4075.694-.777 1.101-1.1013l-.083.0528a6.897 6.897 0 01.913-.5431h.053l-.091.0076zm43.306.4073c.198-.1471.41-.2735.633-.3772.209-.0844.427-.1451.649-.181.118-.0078.237-.0078.355 0h.309c.293.0409.58.1195.852.2338.331.1522.645.3394.936.5582l-.061-.0679c.392.3212.748.6828 1.064 1.0787a7.601 7.601 0 01.928 1.5841c.219.5279.376 1.0799.467 1.6444.053.4814.053.967 0 1.4483a5.14 5.14 0 01-.339 1.2597 5.3836 5.3836 0 01-.566.9807 6.0838 6.0838 0 01-.943.9353c-.412.297-.854.5498-1.32.7543a6.9555 6.9555 0 01-1.508.3998h-.755a7.6093 7.6093 0 01-.822-.0452H264.229a.2536.2536 0 00-.135 0c.113-1.5087.173-3.1531.196-5.1521V47.017l.256-.3772c.184-.2221.389-.4266.611-.611.212-.148.437-.2767.671-.3847.222-.0902.452-.1585.687-.2037h.671c.201.0332.398.0863.589.1584.224.0999.436.2238.633.3696a.3106.3106 0 00.189.0604.4154.4154 0 00.204-.0551.411.411 0 00.15-.1486.4387.4387 0 00.046-.3093.4244.4244 0 00-.189-.2338 3.3047 3.3047 0 00-1.509-.6261 2.8742 2.8742 0 00-.445 0c-.336-.0025-.67.051-.988.1584a3.973 3.973 0 00-1.282.7015 2.529 2.529 0 00-.302.2716v-1.7123c.147-.1579.303-.3066.468-.4451h.037l-.022-.098zm-21.053 24.4551c.543 0 1.086 0 1.629-.0377a33.3672 33.3672 0 004.692-.5582c-.052.8389-.014 1.6811.113 2.5119.25 1.682.837 3.2959 1.727 4.7447.423.7071.93 1.3606 1.509 1.9461a8.8404 8.8404 0 001.924 1.4634c.294.1542.596.2927.905.4149a.2684.2684 0 00-.098.1584l-.045.1735v.347a1.3736 1.3736 0 00-.046.1659l-.045.166a.713.713 0 000 .1132v.1659c-.113.3772-.219.7543-.339 1.1164l-.038.1131v.0755l-.098.3093v.0754c-.174.5205-.362 1.0259-.566 1.5086l-.173.43V83.4734a23.0605 23.0605 0 01-2.98 4.8804 14.1395 14.1395 0 01-2.429 2.4893 9.75 9.75 0 01-2.172 1.2899 8.546 8.546 0 01-1.931.528 8.8438 8.8438 0 01-.906.0528 8.6326 8.6326 0 01-.882-.0528h-.091a9.2747 9.2747 0 01-1.908-.5506h-.083a11.8621 11.8621 0 01-2.037-1.2371 15.0786 15.0786 0 01-2.406-2.444l-.053-.0679a23.3331 23.3331 0 01-2.836-4.9785v-.0755a35.0831 35.0831 0 01-1.728-5.5216 8.4312 8.4312 0 001.864-1.4106 10.4675 10.4675 0 001.508-1.9462 12.596 12.596 0 001.102-2.2629c.295-.8004.505-1.6297.626-2.4742.112-.7488.157-1.5061.135-2.263.823.166 1.69.3018 2.641.4074 1.172.1226 2.351.183 3.53.181l-.015-.0302zm-12.296 17.2438l-.158-.3771a42.74 42.74 0 01-1.894-5.9592l.28-.0829.188-.0604c.573-.181 1.154-.3772 1.712-.611.376 1.6659.88 3.3002 1.509 4.888a24.2595 24.2595 0 002.882 5.3859 13.1785 13.1785 0 004.797 4.2468c.474.2242.966.4084 1.471.5507.493.14.998.231 1.509.2715h.603a8.1475 8.1475 0 002.565-.4375 9.7216 9.7216 0 002.927-1.6142 14.2766 14.2766 0 002.519-2.5647 23.0955 23.0955 0 003.138-5.6273c.219-.5431.4-1.0485.573-1.5539l.068-.181.038-.1433.045-.1207c.159-.4979.287-.9203.408-1.3503V79.6414l.06-.2263v-.2036l.06-.2565.038-.1358a.407.407 0 000-.1207c.256.0981.52.181.792.2716l.181.0603c.377.1207.754.2489 1.147.3621l-.083.3319v.4526c0 .0905-.038.1282-.046.1735l-.113.4149a55.0292 55.0292 0 01-.483 1.5765l-.045.1358-.105.3243c-.28.8147-.589 1.6445-.936 2.4742a29.3532 29.3532 0 01-3.319 5.9139l-.181.2338a17.9238 17.9238 0 01-3.077 3.138 13.045 13.045 0 01-2.603 1.5087h-.038c-.78.2954-1.589.5078-2.413.6336-.383.0453-.769.068-1.155.0679-.37-.0013-.74-.0215-1.108-.0604h-.098a11.1057 11.1057 0 01-2.399-.6789 12.6429 12.6429 0 01-2.58-1.5086h-.038a19.1867 19.1867 0 01-3.077-3.1606 28.4616 28.4616 0 01-3.561-6.2458v.1131z" fill="#2C2C2C"/></svg>