<svg width="140" height="140" fill="none" xmlns="http://www.w3.org/2000/svg"><mask id="a" mask-type="alpha" maskUnits="userSpaceOnUse" x="0" y="0" width="140" height="140"><path d="M69.5011 139.066c38.3839 0 69.5009-31.131 69.5009-69.5331C139.002 31.1309 107.885 0 69.5011 0 31.1167 0 0 31.1309 0 69.5329c0 38.4021 31.1167 69.5331 69.5011 69.5331z" fill="#C4C4C4"/></mask><g mask="url(#a)"><path d="M138.339 69.5329c0 38.0361-30.82 68.8701-68.8379 68.8701-38.0181 0-68.8384-30.834-68.8384-68.8701C.6627 31.4967 31.483.6627 69.5011.6627c38.0179 0 68.8379 30.834 68.8379 68.8702z" fill="#fff" stroke="#F3F4F7" stroke-width="1.3254"/><path d="M92.3013 118.824a195.0899 195.0899 0 001.1371 26.577h-.8008a196.4162 196.4162 0 01-1.1371-26.577.4193.4193 0 01.1248-.29.418.418 0 01.2916-.119.411.411 0 01.294.117.4062.4062 0 01.1224.292M46.6255 118.824a195.122 195.122 0 01-1.1371 26.577h-.8008a195.1107 195.1107 0 001.0971-26.577.4062.4062 0 01.1224-.292.411.411 0 01.294-.117.418.418 0 01.2916.119.4191.4191 0 01.1247.29M66.3811 62.9217v.2802c.051.3994.156.79.3122 1.1611a3.596 3.596 0 00.4805.8008c.1437.1758.3047.3367.4805.4804.1702.1249.3526.2322.5445.3203.1797.0739.368.125.5605.1522.1598.016.3207.016.4805 0a3.1224 3.1224 0 00.5365-.1442 3.1931 3.1931 0 00.5365-.3123 3.34 3.34 0 00.5285-.5365 4.69 4.69 0 00.4324-.7527 4.91 4.91 0 00.3123-1.1771.4643.4643 0 01.1201-.2883.4248.4248 0 01.5925 0 .369.369 0 01.1202.2883 7.3688 7.3688 0 01-.1442.8008 4.8098 4.8098 0 01-.2562.7207 4.5794 4.5794 0 01-.6086 1.0009 3.643 3.643 0 01-1.041.8728 2.9468 2.9468 0 01-1.2732.3524 2.9086 2.9086 0 01-.8007-.0801 2.8596 2.8596 0 01-.8008-.3443 4.0037 4.0037 0 01-1.5134-1.7777 5.108 5.108 0 01-.4164-1.6015v-.0641a1.6715 1.6715 0 010-.2002.408.408 0 01.4084-.4164.4164.4164 0 01.4164.4164l-.008.0481zM69.409 53.4932a.3943.3943 0 00-.0899-.1317l-.0081.048a.3996.3996 0 00-.2962-.1201.3933.3933 0 00-.2883.1201.417.417 0 00-.1281.2963c.0198.2037.0601.4049.1201.6006.056.1842.1121.3523.1841.5285.1632.3863.3476.7632.5526 1.1291.4503.7553.8619 1.533 1.2331 2.3302.1215.2791.2076.5723.2563.8728.012.1252.012.2512 0 .3764a1.837 1.837 0 01-.0641.2242 2.0095 2.0095 0 01-.1041.1761l-.2002.2002a2.1803 2.1803 0 01-.4244.2322 4.6802 4.6802 0 01-.8568.2323c-.2104.02-.4222.02-.6326 0h-.064a.4243.4243 0 00-.3123 0 .3913.3913 0 00-.1922.2482.4071.4071 0 00.04.3203.4009.4009 0 00.2483.1922c.1774.0305.3566.0492.5365.056l.4244-.04a4.0436 4.0436 0 00.8728-.1922c.2112-.0708.415-.162.6086-.2722.1634-.0885.312-.202.4404-.3364a1.6009 1.6009 0 00.4724-.8488 2.4027 2.4027 0 000-.9609 5.1716 5.1716 0 00-.3763-1.073c-.1602-.3603-.3444-.7047-.5365-1.049-.3924-.7046-.8088-1.4013-1.1371-2.146a3.898 3.898 0 01-.2482-.8568.3932.3932 0 00-.0302-.1566zM58.7488 58.013c1.0971 0 1.9859-1.2331 1.9859-2.7626 0-1.5294-.8888-2.7626-1.9859-2.7626-1.097 0-1.9859 1.2412-1.9859 2.7626 0 1.5214.8889 2.7626 1.9859 2.7626z" fill="#2C2C2C"/><path d="M58.0105 47.5728h-.3827a8.5726 8.5726 0 00-.8749.1641l-.3359.0859a7.6393 7.6393 0 00-1.6325.6721l-.3047.1719a7.9381 7.9381 0 00-1.3279 1.0081l-.1874.1876a7.6072 7.6072 0 00-.8593 1.0081 7.4496 7.4496 0 00-1.1014 2.1804c0 .1172-.0781.2344-.1093.3438a7.5683 7.5683 0 00-.2812 1.7662 5.8943 5.8943 0 000 .7424v.2969c.0363.4966.12.9886.2499 1.4692.0391.1563.0938.3204.1485.4767a6.795 6.795 0 00.3202.7815l.0391.086a7.2833 7.2833 0 001.0779 1.6723c.3522.428.7504.8158 1.1873 1.1566a8.5196 8.5196 0 001.1795.7815h.0391l.3281.1641a7.333 7.333 0 00.9686.383l.3593.1094a8.6774 8.6774 0 001.3591.2422h.7499a8.5274 8.5274 0 001.6638-.1797 7.6589 7.6589 0 001.7732-.6018 7.9667 7.9667 0 002.7651-2.1725 7.9962 7.9962 0 001.8123-4.6889 7.9442 7.9442 0 00-.1094-1.7739 7.77 7.77 0 00-1.2498-3.0791 8.243 8.243 0 00-2.3434-2.2507 7.8081 7.8081 0 00-2.3433-.9924h-.0469l-.289-.0626-.4296-.0703a8.1281 8.1281 0 00-1.1483-.086h-.6483l-.0157.0079zm.9139.7736c.2422 0 .4765 0 .7187.0625a8.0849 8.0849 0 011.8122.4924 7.7396 7.7396 0 011.6482.969 7.952 7.952 0 011.281 1.2817 7.1681 7.1681 0 011.4451 3.5635 8.7897 8.7897 0 010 1.8131 8.297 8.297 0 01-.5077 1.8833 7.5257 7.5257 0 01-.9608 1.6411 8.081 8.081 0 01-1.2576 1.2739 8.595 8.595 0 01-1.6091.9534 8.2722 8.2722 0 01-1.9841.5314h.1094a8.2986 8.2986 0 01-1.9685 0h-.2968a8.1759 8.1759 0 01-1.492-.4377l-.2655-.125a8.413 8.413 0 01-1.367-.8362 8.0307 8.0307 0 01-1.2576-1.266l-.0859-.1094c-.1016-.1485-.2031-.297-.2969-.4454a7.9714 7.9714 0 01-.5389-1.0238 7.5382 7.5382 0 01-.2812-.7815v-.1875-.2266V57.1068v-.1875-.0703a.5895.5895 0 010-.1173 7.0192 7.0192 0 01-.0391-.9065v-.211c0-.2188 0-.4298.0547-.6486a8.0916 8.0916 0 01.4921-1.8131 7.8156 7.8156 0 01.9686-1.6567 7.6353 7.6353 0 011.3045-1.3051 8.1113 8.1113 0 011.5622-.9221 7.9036 7.9036 0 011.8356-.508h.1172a9.3685 9.3685 0 011.1483-.0469l-.2891-.3673zm5.7101 3.1181l.039.0469-.039-.0469zm1.1873 5.0875a.1728.1728 0 010 .0625v-.0625zM79.1338 47.9019a5.5896 5.5896 0 00-.8592.2345l-.1875.0625c-.2812.1016-.5546.2188-.828.3438a8.2258 8.2258 0 00-1.8278 1.2738l-.1719.1563h-.039a7.6774 7.6774 0 00-1.2342 1.563c0 .0625-.0703.125-.1094.1876a8.0965 8.0965 0 00-.8826 2.3444 7.734 7.734 0 00-.1719 1.563v.1719c.0001.2742.0157.5482.0469.8206.0312.3291.086.6555.164.9768.0726.3271.1692.6484.289.9612.0391.1173.086.2267.1328.3439a.7902.7902 0 00.0547.1172l.0469.125a7.555 7.555 0 001.2107 1.8756v.0469a8.5959 8.5959 0 001.8513 1.563 7.6056 7.6056 0 001.5622.7814l.1563.0547a8.0959 8.0959 0 006.6005-.7814 8.2974 8.2974 0 002.5074-2.3445 7.9501 7.9501 0 001.3045-3.3682 7.9747 7.9747 0 00-.5067-4.2772 7.9709 7.9709 0 00-2.6569-3.3891 7.3312 7.3312 0 00-1.4529-.8597 8.302 8.302 0 00-2.9604-.7111h-.4219a8.5877 8.5877 0 00-1.5622.1719l-.0547-.0078zm2.7808.719h-.1093a7.8554 7.8554 0 011.8747.5157 8.2679 8.2679 0 011.5622.93c.5091.405.968.8694 1.367 1.3832l-.0625-.0781a8.2099 8.2099 0 01.9608 1.6411 8.3886 8.3886 0 01.4921 1.7974 8.7888 8.7888 0 010 1.9225 8.5334 8.5334 0 01-.5077 1.8755 8.1561 8.1561 0 01-.9374 1.6177 8.4332 8.4332 0 01-1.3748 1.3676l.0781-.0703a7.9373 7.9373 0 01-1.6481.969 7.8096 7.8096 0 01-1.8435.5001h.1094a8.2116 8.2116 0 01-2.0544 0 7.9414 7.9414 0 01-1.8513-.5157h-.1406l-.0937-.0469-.1015-.0547-.0938-.0469h-.164a8.6005 8.6005 0 01-.9686-.633l-.4374-.3751-.0625-.0547h-.0469a.468.468 0 00-.0625-.0626l-.0781-.0781a18.248 18.248 0 01-.3984-.4455l-.0625-.0781-.039-.0547a8.0491 8.0491 0 01-.9686-1.6646.2851.2851 0 000-.0703v-.0547a7.9335 7.9335 0 01-.3437-1.1878v-.0938c0-.1173 0-.2423-.0625-.3673v-.211a7.8549 7.8549 0 010-1.7662 9.7976 9.7976 0 01.1484-.7815 8.7701 8.7701 0 01.3203-1.0003 8.4226 8.4226 0 01.5468-1.055l.0468-.0703a6.0758 6.0758 0 01.3593-.5158l.1719-.211.0625-.0703.0468-.0547.0469-.0469.0625-.0625a7.9979 7.9979 0 01.7811-.7034l.0625-.0547a6.591 6.591 0 01.6796-.4688 6.0919 6.0919 0 01.7811-.4064l.1797-.0782a8.5956 8.5956 0 011.2263-.3907c.2188-.0469.4375-.0938.664-.125a8.212 8.212 0 012.0075 0l-.125-.4142zm1.8903.9143h.0703-.0703zm4.3509 7.6507v0zm-4.5696 5.3063h-.0937.0937z" fill="#2C2C2C"/><path d="M69.6979 53.1926a9.7454 9.7454 0 00-3.4526.844.4225.4225 0 00-.1797.5471.4058.4058 0 00.539.1797c.2422-.1016.4843-.2032.7343-.2892a9.484 9.484 0 012.2731-.4688h-.1094a9.1845 9.1845 0 012.07.1015c.4776.0954.9476.226 1.406.3908a.41.41 0 00.5156-.2657.4106.4106 0 00-.2656-.5158 10.0222 10.0222 0 00-1.6638-.4376 8.0627 8.0627 0 00-1.4373-.1251h-.4296M57.7241 45.1612a5.4845 5.4845 0 00-1.4974.4164 5.8534 5.8534 0 00-1.2492.8007 6.2018 6.2018 0 00-.5365.4805 4.6589 4.6589 0 00-.5125.6166.3849.3849 0 00-.04.3123.4085.4085 0 00.1922.2562.4725.4725 0 00.3123 0 .4558.4558 0 00.2562-.2002l.04-.056a5.3048 5.3048 0 01.8008-.8008 6.1963 6.1963 0 011.1771-.6886 5.3816 5.3816 0 011.1051-.3043 4.6344 4.6344 0 01.8007 0l.2963.056a.4163.4163 0 00.2082-.8007 4.3264 4.3264 0 00-.8968-.0961 3.4283 3.4283 0 00-.4965 0M79.8266 57.5971c-1.0971 0-1.9859-1.2331-1.9859-2.7626 0-1.5294.8888-2.7626 1.9859-2.7626 1.097 0 1.9939 1.2412 1.9939 2.7626 0 1.5215-.8889 2.7626-1.9859 2.7626M80.8496 44.7446a5.4859 5.4859 0 011.4974.4163 5.5512 5.5512 0 011.2492.7608c.188.1496.3671.31.5365.4804.1883.1904.3597.3967.5125.6166a.3596.3596 0 01.04.3123.409.409 0 01-.1922.2562.424.424 0 01-.3122 0 .4403.4403 0 01-.2563-.1921l-.04-.0561a5.3041 5.3041 0 00-.8008-.8007 5.8082 5.8082 0 00-1.1771-.6887 5.3926 5.3926 0 00-1.1051-.3043 4.012 4.012 0 00-.8007 0l-.2963.0561a.4164.4164 0 01-.2082-.8008 4.3266 4.3266 0 01.8969-.0961 3.4556 3.4556 0 01.4964 0" fill="#2C2C2C"/><path d="M70.7854 17.3833c-.8007 0-1.7136 0-2.6345.0801a37.4227 37.4227 0 00-6.0136.8007 24.4565 24.4565 0 00-5.5093 1.8978 13.4435 13.4435 0 00-4.244 3.2031 9.8643 9.8643 0 00-1.3853 2.0739h-.0801a20.2337 20.2337 0 00-2.6185 1.1051 17.1602 17.1602 0 00-5.7414 4.8045 20.055 20.055 0 00-2.4583 4.2601 28.506 28.506 0 00-1.6016 4.8045 51.7133 51.7133 0 00-.9689 5.237c-.2162 1.6015-.3843 3.3391-.5285 5.3971-.1041 1.5455-.1842 3.0909-.2642 4.6364v.7927c-.0881 1.6576-.1762 3.3712-.3043 5.0769-.1842 2.5143-.5125 5.0688-.9849 7.7993-.4725 2.7306-1.065 5.4212-1.7937 8.2238-.3364 1.2812-.7287 2.6666-1.1531 4.1159-.2563.8488-.5285 1.7057-.8008 2.5545l-.1762.5525-.096.3283-.2002.6486a53.465 53.465 0 00-1.9939 8.1597 30.2871 30.2871 0 00-.3203 4.18 23.7931 23.7931 0 00.3763 4.1882 29.36 29.36 0 00.9689 3.867 24.4998 24.4998 0 001.5295 3.764c1.1422 2.39 2.9 4.432 5.0928 5.918a84.0053 84.0053 0 00-2.0579 14.285c-.1522 2.595-.2002 5.277-.1362 7.968 0 1.217.0961 2.506.1842 3.843 0 .625.0961 1.258.1522 1.89.056.633.096 1.017.1601 1.522h.8568c-.0881-.937-.1601-1.858-.2322-2.715-.0721-.857-.1201-1.754-.1602-2.634-.088-1.77-.1201-3.628-.096-5.526.0495-3.637.3169-7.269.8007-10.874.3423-2.689.818-5.358 1.4254-8a47.1771 47.1771 0 012.2261-7.15 31.8463 31.8463 0 019.6651-12.7164c-.1.4293-.1.8759 0 1.3052.0927.3904.2353.7672.4244 1.1211.2237.4101.4923.7942.8008 1.145a10.3333 10.3333 0 002.0179 1.8741c.6906.502 1.4313.931 2.2101 1.281 1.0326.445 2.1256.733 3.2431.857.383.041.7678.062 1.1531.064.828-.006 1.6538-.089 2.4663-.248a18.042 18.042 0 003.5393-1.105c.5125-.209 1.017-.433 1.5215-.665l.1601-.072c.5286-.24 1.1371-.521 1.7217-.841.3513-.193.6909-.407 1.017-.6406l-.0401 25.7926v19.723h.8648V100.494a13.5334 13.5334 0 003.2751 1.802 16.5575 16.5575 0 004.8767 1.161 12.5383 12.5383 0 004.8045-.513c.3526-.12.6976-.262 1.033-.424a9.0498 9.0498 0 001.049-.609 7.8244 7.8244 0 001.7296-1.601 7.6956 7.6956 0 001.1931-2.1862 7.3285 7.3285 0 00.3284-1.3693 4.5781 4.5781 0 00.048-.4644 35.6814 35.6814 0 014.7645 4.9809 32.8155 32.8155 0 014.196 7.167 47.5468 47.5468 0 012.2577 7.206c.641 2.65 1.146 5.331 1.514 8.032.484 3.606.751 7.237.801 10.874 0 1.898 0 3.756-.096 5.526-.049.88-.097 1.753-.169 2.634-.056.745-.136 1.722-.256 2.691h.857c.088-.529.144-1.033.192-1.546.048-.512.104-1.265.152-1.89.08-1.337.144-2.626.184-3.843.064-2.691 0-5.373-.136-7.968a87.2674 87.2674 0 00-1.849-13.453 13.3619 13.3619 0 003.163-2.61c.76-.843 1.433-1.761 2.009-2.739a20.2484 20.2484 0 002.339-6.358c.435-2.3.617-4.642.544-6.9823a52.9811 52.9811 0 00-.648-6.9666c-.345-2.2021-.801-4.3962-1.234-6.2539-.288-1.3213-.592-2.6345-.896-3.9558l-.273-1.1691c-.232-1.025-.464-2.0499-.688-3.0669-.689-3.1069-1.185-5.6774-1.554-8.0877-.472-2.9868-.801-6.0377-.993-8.3599v.1121c-.056-.9369-.136-1.8737-.224-2.8106v-.2082c-.192-2.114-.392-4.3001-.625-6.4061-.192-1.6015-.392-3.203-.624-4.7325-.272-1.7056-.529-3.1069-.801-4.3961a35.6316 35.6316 0 00-2.154-6.5102 32.3463 32.3463 0 00-3.4272-5.8055 28.2506 28.2506 0 00-16.3195-11.0825 31.6916 31.6916 0 00-5.2529-.8008 43.5759 43.5759 0 00-3.083-.1121l.008-.016zm-1.9778 60.5534a18.1523 18.1523 0 01-2.4023-.1522l-.2883-.048a19.066 19.066 0 01-4.0759-1.1531h-.08a21.1064 21.1064 0 01-4.3802-2.5945 24.7036 24.7036 0 01-4.276-4.3l-.0641-.0801-.0721-.0961-.072-.0961-.0721-.0961-.072-.0961-.0721-.1041-.0641-.0881-.0721-.1041-.072-.096-.0481-.0721-.0881-.1121-.056-.0881-.0721-.1041-.08-.1201-.0641-.0721-.0721-.1281-.048-.0801-.0881-.1201-.1281-.2002-.0881-.1361-.04-.0721-.1282-.2002-.1201-.2082-.1281-.2082-.0801-.1201-.04-.0801-.0721-.1281-.048-.0801-.1202-.2082-.048-.088-.064-.1202-.0401-.072-.0721-.1281-.056-.1041-.0641-.1041-.064-.1362-.0401-.072-.1121-.2082a40.42 40.42 0 01-.9849-2.098v-.0801a5.0678 5.0678 0 01-.1522-.3683v-.1041l-.072-.1682a35.7862 35.7862 0 01-1.9058-7.0467v-.0881a7.6796 7.6796 0 001.5454-1.6655c.404-.5647.7602-1.162 1.065-1.7857a18.343 18.343 0 001.3934-3.9558c.3923-1.6015.6726-3.2431.8968-4.5883v-.2002c.2002-1.2092.4084-2.4583.6726-3.6595a20.3413 20.3413 0 011.7217-4.9487c.2173-.3991.4552-.7866.7127-1.1611a9.9054 9.9054 0 001.2011 1.033 18.6338 18.6338 0 004.7004 2.4503 41.0303 41.0303 0 005.245 1.4894c.6326.1442 1.2652.2723 1.8978.4084l.3203.0641.4244.0961.3924.072 2.4023.5205c1.2652.2883 2.4022.5766 3.3872.8809.8007.2482 1.5214.5044 2.2181.8007a18.4225 18.4225 0 012.6345 1.3053c.7199.441 1.4052.9363 2.0499 1.4814a20.4701 20.4701 0 011.7056 1.6015c1.065 1.1371 2.082 2.4023 2.9789 3.5794l.056.064.0881.1121c.5445.7047 1.065 1.3613 1.6015 2.0019l.1041.1282c.2402.2962.4885.5925.7527.8728.1415.1522.2912.2965.4485.4324.1751.1505.3657.282.5685.3924l-.0721.5285-.0881.7287a34.8978 34.8978 0 01-2.186 8.1997l-.0561.1362v.088l-.04.1122a.3834.3834 0 00-.0401.096l-.048.1282c-.3764.8488-.7367 1.6015-1.1211 2.3302l-.0801.1601-.1281.2242a28.2498 28.2498 0 01-2.4423 3.7796l-.3363.4164a24.7133 24.7133 0 01-3.9397 3.8837c-.3684.2803-.7447.5525-1.1371.8007l-.1201.0801-.0881.0561-.0961.072-.0881.0561-.0801.048-.1121.0721-.1361.0801-.1041.064-.1682.0961a19.2087 19.2087 0 01-2.2501 1.1451l-.2002.0721h-.2642c-.5045.1922-.9689.3523-1.4574.4965-.0961 0-.1201 0-.1361.048a.283.283 0 00-.0881 0 19.7741 19.7741 0 01-2.4023.5045l-.4564.048h-.2963c-.5285.0401-1.041.0561-1.5535.0561l.0481.2002zm22.0689-21.6045c.1281-.6806.2482-1.4093.3443-2.1701a7.8067 7.8067 0 01.9049-.2082 3.7974 3.7974 0 01.5204 0h.4084a3.205 3.205 0 01.8008.2082c.212.0992.4133.22.6006.3604.2043.1655.392.3506.5605.5525.2225.2953.4105.615.5605.9529.1826.466.3063.9528.3684 1.4494a6.7556 6.7556 0 010 1.6015 8.0056 8.0056 0 01-.4324 1.6015 6.4627 6.4627 0 01-.7207 1.2492 5.487 5.487 0 01-.8889.8888 5.2818 5.2818 0 01-1.0329.6086 5.8126 5.8126 0 01-1.3774.3764l-.112.048h-.8248a5.6028 5.6028 0 01-.8008-.056 5.1145 5.1145 0 01-.9609-.2483l-.0881.2243.1442-.2963v-.0721a33.7743 33.7743 0 001.6015-4.8045c.0881-.3444.1681-.6967.2562-1.041a.4007.4007 0 00.1682 0l.0801-.0401h.088c.2591-.1023.5272-.18.8008-.2322h.7847c.2465.0339.4882.0957.7207.1842.2192.1031.4283.2264.6246.3683l.0641.0561a.4883.4883 0 00.3123.1281.4566.4566 0 00.3123-.1281.4734.4734 0 00.1281-.3523.3687.3687 0 00-.1281-.2723 3.7377 3.7377 0 00-1.041-.6326 3.5393 3.5393 0 00-1.073-.2402h-.2803a4.0029 4.0029 0 00-1.4254.2722l.0321-.3363zm-49.3668 1.4814c.073-.471.1965-.9328.3683-1.3773a4.4552 4.4552 0 01.5606-.9529 3.2674 3.2674 0 01.5525-.5525 2.7148 2.7148 0 01.6086-.3604 2.9575 2.9575 0 01.7287-.2002h.2642c.154.0262.3064.061.4565.1041h.1361c.1749.0682.3437.1513.5045.2483.1841.1121.3523.2322.5285.3523l.1201.1121c.072.5285.1601 1.073.2642 1.6015a2.05 2.05 0 00-.6806-.2482 3.864 3.864 0 00-.8008-.0881h-.2722a3.7938 3.7938 0 00-1.073.2403 3.6251 3.6251 0 00-1.041.6325.4006.4006 0 00-.1282.2723.456.456 0 00.1282.3523.4249.4249 0 00.3123.1282.4484.4484 0 00.3123-.1282l.064-.056a3.302 3.302 0 01.6326-.3684c.2323-.08.4706-.1416.7127-.1841h.3283c.1519-.012.3045-.012.4564 0a3.784 3.784 0 01.8008.2322c.0548.0207.1083.0447.1601.072a.5047.5047 0 00.2323.0641 39.8873 39.8873 0 001.1851 4.0038c.2562.7527.5525 1.4974.8728 2.2261h-.1201a5.8526 5.8526 0 01-.9929.2563 7.0272 7.0272 0 01-.8008.048 7.8324 7.8324 0 01-.8648-.048 6.6102 6.6102 0 01-1.4334-.3844 5.7198 5.7198 0 01-1.033-.6086 5.184 5.184 0 01-.8888-.8888 6.282 6.282 0 01-.7047-1.2172 7.1121 7.1121 0 01-.4484-1.6736 7.2066 7.2066 0 010-1.6015v-.0721l-.008.0641zm27.2338 21.084a17.9378 17.9378 0 004.2921-.5205h.0801a.9502.9502 0 00-.0481.3363 21.0478 21.0478 0 00.0721 3.0669c.1179.9592.3436 1.902.6726 2.8107.157.4523.3498.8915.5766 1.3132.2249.3899.4792.7619.7607 1.1131a11.6544 11.6544 0 002.2421 2.0579 33.0224 33.0224 0 004.26 2.4904c.4004.2002.8008.4004 1.1691.6086l.1602.0881.1682.088a.7994.7994 0 00-.2082.2002l-.0881.0961-.0641.0801-.0801.0881c-.1922.2162-.3923.4244-.6005.6326l-.1442.1441c-.4057.3868-.8306.753-1.2732 1.097l-.4724.3123a19.2982 19.2982 0 01-3.3552 1.8498 19.283 19.283 0 01-7.431 1.4334 21.211 21.211 0 01-2.6906-.1682 19.8312 19.8312 0 01-4.9086-1.3373 18.1703 18.1703 0 01-3.7236-2.178 15.0558 15.0558 0 01-2.6024-2.5945l.8888-.5045a33.5442 33.5442 0 004.2761-2.4823 11.8623 11.8623 0 002.2501-2.0259 8.0124 8.0124 0 00.7527-1.1131 7.5558 7.5558 0 00.5765-1.3132 12.0105 12.0105 0 00.6246-2.8908 19.9175 19.9175 0 00.0801-3.0669v-.2242c.2873.0797.5787.1438.8728.1922l.4885.0721a17.888 17.888 0 002.5224.1761" fill="#2C2C2C"/><path d="M65.988 106.427a2.709 2.709 0 00-.3604 0c-.2192.03-.4309.101-.6246.208a1.3953 1.3953 0 00-.3523.216l-.1361.112a1.692 1.692 0 00-.1121.112.9913.9913 0 00-.1442.169l-.08.104c-.1187.173-.213.361-.2803.56a2.7172 2.7172 0 00-.1121.593 2.564 2.564 0 000 .28c.0306.368.1516.723.3523 1.033.2014.306.4768.557.8008.729.1583.089.328.156.5045.2.1864.058.3812.085.5765.08a2.1202 2.1202 0 001.3933-.489l.0721-.056c.1614-.136.2993-.299.4084-.48.1013-.157.1821-.327.2402-.505a2.6174 2.6174 0 00.0321-1.073 3.193 3.193 0 00-.2083-.608 2.4817 2.4817 0 00-.8007-.857 1.4558 1.4558 0 00-.4484-.224l-.1922-.064a2.0619 2.0619 0 00-.3123-.048h-.2482M65.9628 115.901h-.2643a2.019 2.019 0 00-.5685.128c-.1103.04-.2174.088-.3203.144l-.1282.08a1.9272 1.9272 0 00-.4564.401 1.9761 1.9761 0 00-.3603.56c-.0588.143-.107.291-.1442.441-.0284.193-.0284.39 0 .584v.104c0 .184.0561.289.0801.393.0429.16.1076.313.1922.456.0984.171.2166.33.3523.473.1554.151.3305.28.5205.384.1654.094.3434.164.5285.208.1726.045.3503.066.5285.064.1978.003.3948-.024.5846-.08.1456-.034.2857-.087.4164-.16a2.07 2.07 0 00.5285-.368c.1162-.107.2185-.228.3043-.361.1092-.158.1955-.33.2562-.512.0676-.191.108-.391.1201-.593a1.761 1.761 0 000-.496 2.2155 2.2155 0 00-.4885-1.065 2.2523 2.2523 0 00-.9128-.649 2.0109 2.0109 0 00-.6406-.136h-.1281zM65.8439 125.27h-.04a1.7722 1.7722 0 00-.4244 0h-.1602a2.1026 2.1026 0 00-.8007.416l-.0721.056a1.769 1.769 0 00-.3603.4c-.066.09-.1224.187-.1682.289a1.4636 1.4636 0 00-.0881.2 2.3139 2.3139 0 00-.1041 1.193c.0738.356.2345.689.4678.968.2332.28.5319.497.8695.634.1559.059.3167.104.4804.136.1252.012.2512.012.3764 0h.1201c.3537-.03.6961-.139 1.001-.321.1392-.08.2682-.177.3843-.288.1732-.166.3191-.357.4324-.568.1572-.294.2449-.62.2563-.953.0187-.149.0187-.3 0-.449a2.4078 2.4078 0 00-.1762-.56 2.1761 2.1761 0 00-.7447-.889 2.2629 2.2629 0 00-.8648-.369 1.8857 1.8857 0 00-.3524 0M65.6762 134.599a2.2233 2.2233 0 00-1.073.273l-.1201.064a1.7038 1.7038 0 00-.2002.144 2.1796 2.1796 0 00-.3844.384c-.0675.095-.129.194-.1841.296l-.0961.193c-.0366.082-.066.168-.0881.256v.192a1.457 1.457 0 000 .304c-.0141.229.0075.459.064.681.0572.202.1407.396.2483.577a2.58 2.58 0 00.3123.4c.1524.153.3247.285.5124.392.1624.087.3345.154.5125.201.1821.052.3712.076.5606.072.4501.005.8903-.132 1.2572-.393.3283-.226.5893-.537.7552-.9a2.2106 2.2106 0 00-.2471-2.252 2.1968 2.1968 0 00-.9325-.715 2.2672 2.2672 0 00-.7528-.169h-.1441z" fill="#BD475B"/></g></svg>