<svg width="69" height="97" fill="none" xmlns="http://www.w3.org/2000/svg"><g clip-path="url(#clip0)"><path d="M54.081 86.37c-.192 7.557.131 15.118.968 22.63h-.681a167.22 167.22 0 01-.968-22.63.354.354 0 01.354-.347.347.347 0 01.355.348M15.191 86.37a166.113 166.113 0 01-.968 22.63h-.682a166.12 166.12 0 00.934-22.63.348.348 0 01.355-.347.354.354 0 01.354.348M32.01 38.775v.238c.044.34.134.673.267.989.106.244.243.473.409.681.122.15.26.287.409.41.145.106.3.197.464.272.153.063.313.107.477.13.136.014.273.014.409 0 .156-.027.309-.069.457-.123a2.72 2.72 0 00.457-.266c.166-.135.317-.288.45-.457.142-.201.265-.416.368-.64.13-.322.219-.659.266-1.003a.395.395 0 01.102-.245.361.361 0 01.583.111.314.314 0 01.024.134c-.029.23-.07.457-.123.682-.056.21-.13.415-.218.614-.136.305-.31.591-.518.852a3.1 3.1 0 01-.887.743 2.477 2.477 0 01-1.766.232 2.435 2.435 0 01-.681-.293 3.41 3.41 0 01-1.289-1.514 4.35 4.35 0 01-.355-1.363v-.055a1.425 1.425 0 010-.17.347.347 0 01.348-.355.354.354 0 01.355.355l-.007.04zM34.59 30.746a.334.334 0 00-.077-.112l-.007.04a.339.339 0 00-.252-.102.335.335 0 00-.246.102.355.355 0 00-.109.253c.017.173.051.344.103.511.047.157.095.3.156.45.14.329.296.65.47.961a22.05 22.05 0 011.05 1.984c.104.238.178.488.219.744.01.106.01.213 0 .32a1.562 1.562 0 01-.054.19 1.712 1.712 0 01-.09.15l-.17.171a1.864 1.864 0 01-.361.198c-.236.089-.48.155-.73.198-.179.017-.359.017-.538 0h-.055a.361.361 0 00-.266 0 .337.337 0 00-.163.211.348.348 0 00.034.273.341.341 0 00.211.164c.151.026.304.041.457.047l.361-.034c.253-.027.503-.082.744-.164.18-.06.353-.137.518-.231a1.52 1.52 0 00.375-.287c.205-.193.346-.446.402-.722.055-.27.055-.549 0-.819a4.4 4.4 0 00-.32-.913c-.137-.307-.294-.6-.457-.893-.334-.6-.689-1.194-.968-1.828a3.316 3.316 0 01-.212-.73.333.333 0 00-.026-.132zM25.514 34.595c.934 0 1.69-1.05 1.69-2.353 0-1.302-.756-2.352-1.69-2.352-.934 0-1.691 1.057-1.691 2.352 0 1.296.757 2.353 1.69 2.353zM24.64 23.651c-.439.058-.868.177-1.274.355-.382.181-.74.41-1.064.682-.16.127-.312.264-.457.409-.16.162-.306.338-.436.525a.328.328 0 00-.034.266.347.347 0 00.163.218c.087.03.18.03.267 0a.389.389 0 00.218-.17l.034-.048c.202-.251.43-.48.681-.682a5.277 5.277 0 011.003-.586c.303-.12.619-.207.94-.26.227-.02.456-.02.682 0l.253.048a.354.354 0 00.177-.682 3.684 3.684 0 00-.764-.081c-.14-.01-.282-.01-.422 0M43.459 34.24c-.935 0-1.691-1.05-1.691-2.352 0-1.302.756-2.352 1.69-2.352.934 0 1.698 1.057 1.698 2.352s-.757 2.352-1.69 2.352M44.331 23.297A4.675 4.675 0 0146.67 24.3c.16.128.313.264.457.41.16.162.306.337.436.524a.307.307 0 01.034.266.348.348 0 01-.163.219.361.361 0 01-.266 0 .375.375 0 01-.219-.164l-.034-.048a4.513 4.513 0 00-.681-.681 4.94 4.94 0 00-1.003-.587 4.588 4.588 0 00-.94-.259 3.407 3.407 0 00-.682 0l-.253.048a.354.354 0 01-.177-.682c.251-.054.507-.081.764-.082.14-.01.282-.01.422 0" fill="#2C2C2C"/><path d="M35.76 0c-.68 0-1.458 0-2.242.068a31.868 31.868 0 00-5.12.682c-1.623.35-3.198.892-4.691 1.616a11.449 11.449 0 00-3.614 2.727 8.4 8.4 0 00-1.18 1.766h-.068c-.764.26-1.509.575-2.23.94a14.61 14.61 0 00-4.888 4.092 17.082 17.082 0 00-2.093 3.627 24.269 24.269 0 00-1.363 4.09 43.994 43.994 0 00-.825 4.46 71.562 71.562 0 00-.45 4.595 255.141 255.141 0 00-.225 3.948v.675c-.075 1.411-.15 2.87-.26 4.322a67.748 67.748 0 01-.838 6.641 85.598 85.598 0 01-1.527 7.002c-.287 1.091-.62 2.27-.982 3.505-.218.722-.45 1.452-.682 2.175l-.15.47-.082.28-.17.552A45.536 45.536 0 00.382 65.18a25.8 25.8 0 00-.273 3.56c.002 1.195.109 2.389.32 3.565.2 1.115.477 2.216.826 3.293.344 1.103.78 2.175 1.302 3.205a12.702 12.702 0 004.336 5.038 71.529 71.529 0 00-1.752 12.164 82.774 82.774 0 00-.116 6.784c0 1.036.082 2.134.157 3.272 0 .532.082 1.071.13 1.609.047.539.081.866.136 1.296h.73c-.076-.798-.137-1.582-.198-2.311a59.235 59.235 0 01-.137-2.244 75.786 75.786 0 01-.081-4.704c.042-3.097.27-6.189.681-9.259.292-2.289.697-4.562 1.214-6.811a40.186 40.186 0 011.895-6.089 27.116 27.116 0 018.23-10.827 2.448 2.448 0 000 1.112c.079.332.2.653.361.954.19.35.42.676.682.975a8.797 8.797 0 001.718 1.596c.588.427 1.219.793 1.882 1.09a9.443 9.443 0 003.743.784 11.286 11.286 0 002.1-.21 15.301 15.301 0 003.013-.942 31.11 31.11 0 001.296-.566l.136-.061c.45-.204.968-.443 1.466-.716.3-.164.588-.347.866-.545l-.034 21.96v16.793h.736V70.764a11.512 11.512 0 002.789 1.535c1.326.538 2.726.871 4.152.988a10.67 10.67 0 004.09-.436c.301-.103.595-.223.88-.362.31-.152.608-.325.893-.518a6.68 6.68 0 001.473-1.363 6.55 6.55 0 001.016-1.862 6.244 6.244 0 00.32-1.561 30.394 30.394 0 014.057 4.24 27.953 27.953 0 013.573 6.103 40.55 40.55 0 011.923 6.136 68.425 68.425 0 011.288 6.839c.412 3.07.64 6.161.682 9.258 0 1.616 0 3.198-.082 4.705-.04.75-.082 1.493-.143 2.243A48.652 48.652 0 0162.44 109h.73c.074-.45.122-.88.163-1.316.041-.436.089-1.077.13-1.609.068-1.139.122-2.236.156-3.273.055-2.29 0-4.575-.115-6.784a74.306 74.306 0 00-1.575-11.454 11.371 11.371 0 002.693-2.223 14.388 14.388 0 001.711-2.331 17.238 17.238 0 001.99-5.414c.371-1.959.527-3.952.465-5.945a45.181 45.181 0 00-.553-5.932 75.282 75.282 0 00-1.05-5.325c-.245-1.125-.504-2.243-.763-3.368l-.232-.995c-.198-.873-.396-1.746-.587-2.612-.586-2.645-1.009-4.834-1.322-6.886-.403-2.543-.682-5.14-.846-7.118v.096a70.6 70.6 0 00-.19-2.394v-.177c-.164-1.8-.335-3.661-.532-5.454a131.643 131.643 0 00-.532-4.03 75.61 75.61 0 00-.682-3.743 30.35 30.35 0 00-1.834-5.543 27.543 27.543 0 00-2.918-4.943A24.054 24.054 0 0042.852.791a26.98 26.98 0 00-4.473-.682 37.063 37.063 0 00-2.625-.095L35.761 0zm-1.683 51.558a15.475 15.475 0 01-2.046-.13l-.245-.04a16.238 16.238 0 01-3.47-.982h-.069a17.972 17.972 0 01-3.729-2.21 21.037 21.037 0 01-3.64-3.66l-.055-.069-.062-.082-.061-.081-.061-.082-.062-.082-.061-.089-.055-.075-.061-.088-.061-.082-.041-.061-.075-.096-.048-.075-.062-.089-.068-.102-.054-.061-.062-.11-.04-.068-.075-.102-.11-.17-.075-.116-.034-.061-.109-.17-.102-.178-.11-.177-.067-.103-.034-.068-.062-.109-.04-.068-.103-.177-.04-.075-.055-.103-.035-.061-.06-.11-.049-.088-.054-.088-.055-.116-.034-.062-.095-.177a34.399 34.399 0 01-.839-1.786v-.069a4.35 4.35 0 01-.13-.313v-.089l-.06-.143a30.47 30.47 0 01-1.623-6v-.075a6.54 6.54 0 001.315-1.418c.344-.48.648-.99.907-1.52a15.616 15.616 0 001.187-3.369c.334-1.363.572-2.76.763-3.906V21.906c.17-1.03.348-2.093.573-3.115a17.323 17.323 0 011.466-4.214c.185-.34.387-.67.607-.989.317.32.659.615 1.022.88a15.87 15.87 0 004.003 2.086 34.96 34.96 0 004.465 1.268c.539.123 1.078.232 1.616.348l.273.055.361.081.334.062 2.046.443c1.077.245 2.045.49 2.884.75.682.211 1.295.43 1.888.682.776.31 1.527.681 2.243 1.111.614.376 1.197.797 1.746 1.261.51.427.995.882 1.452 1.364.907.968 1.773 2.046 2.536 3.048l.048.054.075.096c.464.6.907 1.159 1.364 1.704l.089.11c.204.252.415.504.64.742.12.13.248.253.382.369.15.128.312.24.484.334l-.061.45-.075.62a29.715 29.715 0 01-1.861 6.982l-.048.116v.075l-.034.095a.328.328 0 00-.034.082l-.041.11c-.32.722-.627 1.363-.955 1.983l-.068.137-.109.19a24.057 24.057 0 01-2.08 3.218l-.286.355a21.038 21.038 0 01-3.354 3.307c-.314.238-.634.47-.968.682l-.103.068-.075.047-.082.062-.075.048-.068.04-.095.062-.116.068-.089.055-.143.081c-.616.367-1.256.693-1.916.975l-.17.062h-.225c-.43.163-.825.3-1.241.422-.082 0-.102 0-.116.041a.236.236 0 00-.075 0c-.672.186-1.355.33-2.046.43l-.388.04h-.252c-.45.035-.887.049-1.323.049l.04.17zm18.79-18.395c.11-.58.212-1.2.294-1.848.253-.074.51-.133.77-.177.148-.01.296-.01.443 0h.348c.234.03.463.089.682.177.18.085.352.188.511.307.174.141.334.299.477.47.19.252.35.524.477.812.156.397.261.811.314 1.234.054.453.054.91 0 1.364a6.817 6.817 0 01-.368 1.363c-.164.377-.37.733-.614 1.064-.222.28-.476.534-.756.756-.273.206-.568.38-.88.519-.376.154-.77.262-1.173.32l-.095.041h-.702c-.228 0-.456-.015-.682-.048a4.35 4.35 0 01-.818-.211l-.075.19.122-.251v-.062a28.751 28.751 0 001.364-4.09c.075-.294.143-.594.218-.887.047.01.096.01.143 0l.069-.034h.075c.22-.087.448-.153.681-.198h.669c.21.03.415.082.613.157.187.088.365.193.532.314l.054.047a.416.416 0 00.266.11c.1-.002.195-.04.266-.11a.404.404 0 00.08-.427.314.314 0 00-.08-.104 3.186 3.186 0 00-.886-.539 3.015 3.015 0 00-.914-.204h-.238a3.407 3.407 0 00-1.214.231l.027-.286zm-42.033 1.261c.062-.4.167-.794.314-1.172.125-.29.285-.562.477-.812.137-.175.296-.333.47-.47a2.31 2.31 0 01.519-.307 2.51 2.51 0 01.62-.17h.225c.131.022.26.051.389.088h.116c.149.058.292.129.43.212.156.095.3.197.45.3l.101.095c.062.45.137.914.225 1.364a1.746 1.746 0 00-.58-.212 3.29 3.29 0 00-.68-.075h-.233c-.313.024-.62.093-.913.205-.324.128-.624.31-.887.538a.341.341 0 00-.109.232.387.387 0 00.231.382.382.382 0 00.41-.082l.055-.047c.167-.125.348-.23.538-.314.198-.068.401-.12.607-.157h.28c.129-.01.259-.01.388 0a3.225 3.225 0 01.818.26c.061.033.129.052.198.054a34.002 34.002 0 001.01 3.409c.217.64.47 1.275.742 1.895h-.102c-.275.097-.558.17-.845.218a5.976 5.976 0 01-1.418 0 5.623 5.623 0 01-1.22-.327 4.866 4.866 0 01-.88-.518 4.406 4.406 0 01-.757-.757 5.343 5.343 0 01-.6-1.036 6.054 6.054 0 01-.382-1.425c-.05-.453-.05-.91 0-1.364v-.061l-.007.054zm23.188 17.952c1.232 0 2.459-.148 3.655-.443h.068a.811.811 0 00-.041.286 17.94 17.94 0 00.061 2.612c.1.816.293 1.62.573 2.393.134.385.298.759.491 1.118.191.332.408.649.648.948a9.922 9.922 0 001.909 1.752 28.106 28.106 0 003.627 2.12c.34.17.682.341.995.519l.137.075.143.075a.681.681 0 00-.177.17l-.075.082-.055.068-.068.075c-.164.184-.334.361-.511.538l-.123.123c-.346.33-.707.641-1.084.934l-.403.266a16.425 16.425 0 01-2.856 1.575 16.416 16.416 0 01-6.327 1.22 18.051 18.051 0 01-2.291-.142 16.893 16.893 0 01-4.18-1.14 15.472 15.472 0 01-3.17-1.854 12.814 12.814 0 01-2.216-2.209l.757-.43a28.563 28.563 0 003.64-2.113c.71-.49 1.354-1.07 1.917-1.725.24-.297.454-.614.64-.947.2-.357.364-.731.491-1.119.278-.795.457-1.622.532-2.461.09-.867.113-1.74.068-2.611v-.191c.245.068.493.122.744.163l.415.062c.712.1 1.43.15 2.148.15" fill="#2C2C2C"/><path d="M31.677 75.817a2.31 2.31 0 00-.307 0 1.537 1.537 0 00-.532.177c-.108.046-.21.108-.3.184l-.116.095c-.033.03-.065.062-.095.096a.847.847 0 00-.123.143l-.068.089a1.95 1.95 0 00-.238.477c-.051.164-.083.333-.096.504-.004.08-.004.16 0 .24a1.854 1.854 0 00.982 1.5c.135.075.28.132.43.17.158.05.324.072.49.068.433.008.854-.14 1.187-.416l.061-.048c.137-.116.255-.255.348-.409.086-.134.155-.278.204-.43a2.239 2.239 0 00.028-.913 2.723 2.723 0 00-.178-.518 2.115 2.115 0 00-.681-.73 1.253 1.253 0 00-.382-.19l-.164-.055a1.837 1.837 0 00-.266-.041h-.211M31.657 83.882h-.225c-.166.013-.33.05-.484.11a1.956 1.956 0 00-.273.122l-.11.068a1.622 1.622 0 00-.388.341c-.128.14-.232.302-.307.477-.05.122-.09.248-.122.375a1.723 1.723 0 000 .498v.089c0 .156.047.245.068.334.036.136.091.267.163.388.084.146.185.28.3.403.133.128.282.238.444.327.14.08.292.14.45.177.147.038.298.056.45.055.168.002.336-.02.497-.068.124-.03.244-.075.355-.137.165-.08.317-.186.45-.313.099-.091.186-.194.259-.307.093-.135.166-.281.218-.437.058-.162.092-.332.102-.504.02-.14.02-.283 0-.423a1.89 1.89 0 00-1.193-1.459 1.699 1.699 0 00-.545-.116h-.11zM31.554 91.86h-.034a1.516 1.516 0 00-.361 0h-.136a1.8 1.8 0 00-.682.354l-.062.047a1.518 1.518 0 00-.306.342 1.356 1.356 0 00-.144.245c-.029.055-.054.112-.075.17a1.97 1.97 0 00-.088 1.016 1.883 1.883 0 001.547 1.48c.107.01.214.01.32 0h.103a1.985 1.985 0 001.18-.518c.147-.141.271-.305.368-.484.134-.25.208-.528.218-.812a1.525 1.525 0 000-.382 2.043 2.043 0 00-.15-.477 1.917 1.917 0 00-1.37-1.07c-.1-.01-.2-.01-.3 0" fill="#FDAFA6"/></g><defs><clipPath id="clip0"><path fill="#fff" d="M0 0h69v97H0z"/></clipPath></defs></svg>