<svg width="93" height="157" viewBox="0 0 93 157" fill="none" xmlns="http://www.w3.org/2000/svg">
<path d="M32.3293 93.4558C32.2012 93.4552 32.0778 93.5039 31.9846 93.5919L31.7215 93.8277L31.6127 93.8912L31.1591 94.0364L30.9777 94.0908C30.7872 94.1452 30.6057 94.1997 30.4152 94.2723C30.2423 94.3361 30.0754 94.415 29.9163 94.5081C29.78 94.5802 29.662 94.6826 29.5716 94.8075C29.4885 94.9831 29.4481 95.1758 29.4536 95.3699C29.4707 95.6126 29.5133 95.8528 29.5806 96.0866C29.6623 96.3769 29.7439 96.6671 29.8437 96.9484C29.9435 97.2296 30.1159 97.6378 30.2701 97.9825L30.4152 98.3C30.6057 98.7627 30.7509 99.1528 30.887 99.5429L31.023 99.9783L31.2861 100.74L31.4222 101.121C31.5129 101.348 31.5945 101.575 31.6762 101.811C31.7578 102.047 31.912 102.482 32.039 102.818C32.1789 103.195 32.3394 103.565 32.5198 103.924L32.8827 104.714L33.0097 104.995C33.2002 105.385 33.3907 105.766 33.6084 106.138L33.9259 106.728C34.0348 106.918 34.1346 107.118 34.2525 107.308C34.4702 107.671 34.6879 108.043 34.9329 108.397C35.1778 108.751 35.3139 108.932 35.5135 109.204L35.5951 109.313L35.7403 109.503C35.958 109.803 36.1757 110.102 36.4116 110.411L36.9286 111L37.2371 111.354C37.5183 111.681 37.8177 111.989 38.1442 112.261C38.4708 112.533 38.6341 112.688 38.8881 112.896L39.1058 113.078C39.4596 113.368 39.7862 113.631 40.14 113.867L40.7115 114.239L41.2104 114.556L41.5007 114.756C41.7729 114.937 42.0359 115.119 42.3262 115.282C42.7187 115.501 43.132 115.68 43.56 115.817L43.8049 115.899L44.5216 116.117C44.8768 116.222 45.2371 116.31 45.6011 116.38L46.1907 116.507C46.3903 116.543 46.5899 116.57 46.7895 116.588H46.9346C47.2884 116.634 47.6422 116.661 47.996 116.688H48.3044C48.9165 116.675 49.5251 116.593 50.1187 116.443C50.6313 116.338 51.1349 116.192 51.6246 116.008L52.4138 115.718C52.5793 115.664 52.7402 115.598 52.8947 115.518L53.448 115.2L54.1556 114.829C54.4151 114.694 54.6638 114.539 54.8995 114.366L55.2079 114.157C55.4075 114.03 55.6071 113.903 55.7976 113.758C56.1604 113.495 56.5052 113.214 56.8499 112.923C57.5046 112.371 58.1115 111.764 58.6642 111.109C58.9487 110.785 59.2037 110.436 59.4262 110.066L59.5079 109.939C59.7074 109.603 59.9161 109.268 60.1429 108.95L60.2336 108.832C60.4781 108.519 60.6994 108.189 60.8958 107.843L61.5036 106.728C61.7066 106.33 61.9338 105.945 62.184 105.575C62.4166 105.23 62.6315 104.872 62.8281 104.505C63.2095 103.763 63.5487 103 63.8441 102.219L64.0346 101.693L64.2251 101.167C64.3249 100.895 64.4065 100.613 64.4972 100.323V100.196L64.5607 99.9783C64.6515 99.6698 64.7422 99.3705 64.8147 99.0711L65.0052 98.3726L65.0597 98.1458L65.1776 97.7195L65.2955 97.3022C65.35 97.0754 65.4044 96.8486 65.4498 96.6218V96.4948V96.3315C65.4933 96.1372 65.5235 95.9402 65.5405 95.7418C65.5416 95.5973 65.5202 95.4534 65.477 95.3155C65.3984 95.0872 65.2449 94.8922 65.0415 94.7621C64.8574 94.6423 64.6505 94.562 64.4337 94.5263L64.0799 94.4537H63.9076C63.8065 94.4267 63.7033 94.4085 63.5992 94.3992H63.4177C63.3341 94.3867 63.252 94.3654 63.1728 94.3357L63.0095 94.2632H62.8462C62.7604 94.2625 62.6759 94.2844 62.6013 94.3267C62.5136 94.3824 62.4393 94.4567 62.3836 94.5444C62.3419 94.6173 62.3055 94.6931 62.2747 94.7712C62.1872 95.013 62.1204 95.2619 62.0751 95.5151V95.642V95.8144C62.0207 96.0593 61.9663 96.3043 61.9028 96.5492C61.8393 96.7941 61.7032 97.2115 61.5853 97.529C61.4673 97.8465 61.4038 98.1095 61.3313 98.4361V98.5722C61.2756 98.8298 61.2059 99.0842 61.1226 99.3342C61.05 99.5338 60.9684 99.7243 60.8958 99.9057L60.7688 100.223L60.6327 100.55L60.4967 100.885V100.949C60.1095 101.861 59.661 102.746 59.1541 103.598L58.7731 104.26C58.646 104.487 58.5281 104.705 58.3921 104.922C58.1573 105.324 57.8998 105.711 57.621 106.083C57.3488 106.428 57.0494 106.764 56.7592 107.081C56.4689 107.399 56.4417 107.462 56.2874 107.662C56.1332 107.861 56.0244 107.979 55.8974 108.134C55.7704 108.288 55.4529 108.605 55.217 108.841L54.9176 109.141L54.7906 109.268L54.464 109.594C54.328 109.721 54.1828 109.839 54.0468 109.948L53.4571 110.383C53.2575 110.51 53.058 110.637 52.8584 110.746C52.6588 110.855 52.5499 110.91 52.4048 110.982L52.0964 111.136L51.6609 111.345C51.4397 111.434 51.2123 111.507 50.9805 111.563C50.6706 111.657 50.3675 111.772 50.0734 111.907H49.9827H49.9192C49.6576 111.982 49.3907 112.037 49.1209 112.071L48.5947 112.161L48.2863 112.216C47.8038 112.261 47.3194 112.282 46.8348 112.279H45.9277C45.7462 112.279 45.5648 112.279 45.3834 112.279C45.2903 112.261 45.1992 112.233 45.1112 112.198L44.6395 111.944C44.5034 111.862 44.3673 111.78 44.2222 111.708L43.9682 111.581C43.7471 111.482 43.5321 111.37 43.3241 111.245L42.8252 110.946C42.6165 110.819 42.4079 110.674 42.1992 110.529L42.0722 110.429C41.6186 110.12 41.1651 109.812 40.7387 109.522C40.5876 109.389 40.4452 109.246 40.3123 109.095L40.0855 108.859L39.9041 108.678C39.7378 108.524 39.5803 108.36 39.4324 108.188C39.3145 108.016 39.2147 107.834 39.1058 107.653C38.997 107.471 38.9153 107.344 38.8337 107.227L38.7339 107.081C38.5706 106.845 38.4164 106.601 38.2531 106.347C38.0898 106.093 37.8449 105.712 37.6271 105.439L37.3731 105.086C37.2189 104.877 37.0556 104.668 36.9196 104.451L36.6656 104.042C36.5295 103.834 36.3934 103.616 36.2664 103.398C36.1394 103.181 36.0396 103.026 35.9398 102.836L35.6132 102.273L35.5407 102.155C35.3476 101.842 35.172 101.518 35.0145 101.185C34.9692 101.067 34.9147 100.895 34.8512 100.722L34.7333 100.387C34.6154 100.06 34.4884 99.7243 34.3523 99.3977C34.2162 99.0711 34.1799 98.9895 34.0892 98.7808L33.8987 98.3726C33.7808 98.0914 33.6628 97.8193 33.5358 97.538L33.4905 97.4382C33.3 96.9847 33.0913 96.4494 32.9099 95.8779C32.8373 95.6602 32.7738 95.4425 32.7194 95.2157V95.0615C32.6976 94.9543 32.6703 94.8484 32.6378 94.744C32.6161 94.6898 32.5887 94.6381 32.5561 94.5898C32.6161 94.5445 32.6737 94.4961 32.7285 94.4446L32.8101 94.372C32.8544 94.3301 32.8894 94.2795 32.9128 94.2232C32.9363 94.1669 32.9476 94.1064 32.9462 94.0455C32.9482 93.9804 32.9371 93.9156 32.9138 93.8549C32.8904 93.7941 32.8552 93.7386 32.8101 93.6917C32.7662 93.6476 32.7138 93.6128 32.6562 93.5894C32.5985 93.566 32.5367 93.5545 32.4745 93.5556" fill="#2C2C2C"/>
<path d="M43.9227 111.172C43.8379 111.262 43.7905 111.38 43.7905 111.504C43.7905 111.627 43.8379 111.745 43.9227 111.835C44.0507 111.973 44.1903 112.101 44.34 112.216C44.5557 112.355 44.7871 112.467 45.0295 112.551C45.3017 112.633 45.5812 112.687 45.8641 112.715C46.109 112.715 46.363 112.715 46.617 112.778C46.72 112.793 46.8251 112.774 46.9163 112.724C46.97 112.694 47.0171 112.654 47.0546 112.606C47.092 112.557 47.1191 112.502 47.1341 112.443C47.1516 112.382 47.1565 112.319 47.1487 112.256C47.1409 112.194 47.1205 112.134 47.0887 112.08C47.0593 112.026 47.0192 111.979 46.9708 111.941C46.9224 111.904 46.8668 111.877 46.8075 111.862C46.49 111.807 46.1725 111.798 45.8459 111.762C45.6076 111.725 45.3736 111.664 45.1474 111.581L44.8934 111.436C44.7962 111.355 44.7052 111.267 44.6212 111.172C44.5802 111.127 44.5298 111.09 44.4735 111.065C44.4172 111.04 44.3563 111.027 44.2947 111.027C44.1653 111.029 44.0417 111.081 43.9499 111.172" fill="#2C2C2C"/>
<path d="M21.0815 134.614C21.0165 134.614 20.9523 134.628 20.893 134.655C20.8337 134.681 20.7805 134.72 20.7367 134.768C20.6499 134.854 20.6009 134.972 20.6006 135.094C20.6006 136.174 20.6006 137.036 20.6006 137.816C20.6006 138.596 20.6006 139.385 20.6006 140.165V142.279C20.6006 142.551 20.6006 142.823 20.6006 143.086C20.6006 143.349 20.6006 143.767 20.6006 144.093V144.266C20.6006 144.465 20.6006 144.665 20.6006 144.864V144.964C20.5967 145.022 20.5967 145.079 20.6006 145.137C20.6065 145.26 20.6417 145.38 20.7032 145.488C20.7647 145.595 20.8508 145.686 20.9544 145.753C21.1189 145.887 21.295 146.005 21.4806 146.107C21.6319 146.194 21.7773 146.291 21.916 146.398C22.1519 146.588 22.3878 146.779 22.6145 146.978C22.8413 147.178 23.0863 147.359 23.3221 147.541L23.4673 147.649L23.558 147.713C23.7466 147.864 23.9468 148.001 24.1567 148.121C24.2837 148.194 24.4198 148.248 24.5468 148.312L24.7917 148.43L24.9006 148.493C24.9291 148.576 24.9721 148.652 25.0276 148.72C25.0835 148.785 25.1441 148.845 25.209 148.901L25.2907 148.974L25.5175 149.183C25.6717 149.328 25.835 149.464 25.9982 149.591L26.1616 149.718C26.4518 149.945 26.7421 150.18 27.0687 150.398C27.5223 150.743 27.9759 151.097 28.4022 151.478L28.6472 151.668L28.7379 151.75L28.8195 151.813C28.9069 151.896 29.0009 151.972 29.1007 152.04C29.2327 152.149 29.3878 152.227 29.5543 152.267H29.7176C29.7717 152.276 29.8268 152.276 29.8809 152.267L30.0533 152.222C30.232 152.157 30.4025 152.072 30.5613 151.968C30.858 151.764 31.1399 151.54 31.4049 151.296L31.8041 150.961C32.1307 150.725 32.4844 150.516 32.8292 150.316L33.4279 149.963L33.7091 149.763L33.818 149.691L34.2353 149.409L34.5437 149.219C34.7184 149.118 34.8879 149.01 35.0517 148.892L35.1697 148.82C35.5779 148.529 36.0133 148.23 36.4034 147.913L36.7753 147.595L37.1382 147.268L37.5736 146.915L37.9274 146.652L38.2721 146.388C38.3976 146.294 38.5278 146.206 38.6622 146.125C38.767 146.063 38.867 145.994 38.9616 145.917C39.1059 145.775 39.2012 145.59 39.2337 145.391C39.3114 144.969 39.3509 144.541 39.3516 144.112C39.3516 143.767 39.3516 143.413 39.3516 143.068V142.814C39.3516 142.542 39.3516 142.27 39.3516 141.989V141.435C39.3516 141.29 39.3516 141.145 39.3516 141V140.728C39.3516 140.565 39.3516 140.392 39.3516 140.229C39.3516 139.92 39.3516 139.612 39.3516 139.322V138.913C39.3516 138.796 39.3516 138.678 39.3516 138.56V137.653V137.308C39.3516 137.084 39.3516 136.857 39.3516 136.627V136.237C39.3516 136.101 39.3516 135.965 39.3516 135.829C39.3516 135.693 39.3516 135.475 39.3516 135.285C39.3597 135.185 39.3392 135.085 39.2926 134.997C39.246 134.909 39.1753 134.836 39.0886 134.786C38.9671 134.737 38.8383 134.71 38.7076 134.704L37.9909 134.65H36.8933C36.4669 134.65 36.0405 134.65 35.6142 134.695H35.3964C35.1515 134.695 34.8975 134.695 34.6435 134.695H34.3169H33.6819H32.9834H32.4391C32.0037 134.695 31.5319 134.641 31.1328 134.586C30.7807 134.543 30.4262 134.522 30.0714 134.523H29.8537C29.5906 134.523 29.3366 134.523 29.0735 134.586H28.7197C28.3297 134.586 27.9396 134.586 27.5586 134.586H25.327H24.6919H24.2112H23.4401H23.1861C22.8141 134.586 22.4422 134.586 22.0793 134.641H21.8253H21.5804C21.5305 134.55 21.4586 134.474 21.3714 134.418C21.2843 134.363 21.1846 134.33 21.0815 134.323" fill="#2C2C2C"/>
<path d="M38.5334 131.212H38.1887H37.3722C36.8642 131.212 36.3562 131.212 35.8391 131.257H33.8978H33.0632H30.2057C29.6523 131.257 29.0989 131.257 28.5455 131.257H25.5973H24.3908L22.5129 131.121H22.1501H21.4153H20.8165C20.6912 131.136 20.5688 131.169 20.4537 131.221C20.4146 131.214 20.3748 131.214 20.3358 131.221C20.206 131.218 20.0798 131.264 19.9824 131.35C19.8849 131.435 19.8232 131.554 19.8096 131.684C19.7594 132.248 19.7594 132.816 19.8096 133.38V133.48C19.7953 133.618 19.7953 133.758 19.8096 133.897C19.8202 133.965 19.8451 134.03 19.8826 134.088C19.9201 134.146 19.9695 134.195 20.0273 134.233C20.1322 134.304 20.2546 134.345 20.3811 134.351C20.5513 134.387 20.7243 134.408 20.8982 134.414H21.0705C21.3518 134.414 21.6421 134.414 21.9233 134.351L22.3859 134.296H22.8395H23.0935H23.1933H25.6608H26.0055H27.3481H28.1918C28.7542 134.296 29.3166 134.296 29.8791 134.296H34.4149C34.7868 134.296 35.1587 134.296 35.5216 134.296H39.2047H39.5585C39.6801 134.296 39.8004 134.271 39.9123 134.224C40.0323 134.165 40.1314 134.071 40.1963 133.954C40.2612 133.837 40.2887 133.703 40.2751 133.57C40.2796 133.492 40.2796 133.413 40.2751 133.335V133.053C40.2751 132.763 40.2751 132.482 40.2751 132.201V131.856C40.2691 131.759 40.2477 131.664 40.2116 131.575C40.1627 131.485 40.0945 131.408 40.0121 131.348C39.9121 131.277 39.7972 131.231 39.6764 131.212C39.5491 131.175 39.4184 131.151 39.2863 131.139H39.0686H38.86H38.5153" fill="#FE9F7C"/>
<path d="M16.5556 121.75C16.4526 121.812 16.3753 121.908 16.3378 122.022C14.4376 133.33 13.4577 144.774 13.4077 156.24H14.3149C14.352 147.122 14.9854 138.016 16.2108 128.98C16.2108 129.026 16.2108 129.062 16.2108 129.107C16.5193 126.821 16.861 124.544 17.2359 122.276C17.2534 122.216 17.2584 122.153 17.2506 122.09C17.2428 122.028 17.2224 121.968 17.1906 121.914C17.1608 121.86 17.1205 121.813 17.0722 121.776C17.0239 121.739 16.9685 121.711 16.9094 121.696H16.7824C16.6985 121.698 16.6169 121.723 16.5465 121.768" fill="#2C2C2C"/>
<path d="M77.0601 121.995C77.0027 122.009 76.9489 122.035 76.9021 122.071C76.8553 122.107 76.8164 122.152 76.7879 122.204C76.7252 122.314 76.7058 122.443 76.7335 122.567C77.1145 124.841 77.4592 127.118 77.7677 129.398C77.7677 129.398 77.7677 129.316 77.7677 129.28C78.9766 138.216 79.6068 147.222 79.6546 156.24H80.5617C80.5 144.873 79.5171 133.53 77.6225 122.322C77.6086 122.263 77.5829 122.208 77.547 122.16C77.5112 122.111 77.4659 122.071 77.4139 122.04C77.3435 121.995 77.2618 121.97 77.178 121.968C77.1331 121.959 77.0869 121.959 77.0419 121.968" fill="#2C2C2C"/>
<path d="M46.4256 50.284C46.1988 50.9825 45.9266 51.6538 45.6454 52.3251C45.3642 52.9964 45.0285 53.8038 44.7382 54.5568C44.4587 55.2757 44.2373 56.0159 44.076 56.7702C44.0069 57.1111 43.9644 57.4569 43.949 57.8044C43.9261 58.135 43.9444 58.4671 44.0034 58.7932C44.0839 59.335 44.3349 59.8371 44.7201 60.2265C45.0949 60.5838 45.5584 60.8344 46.0627 60.9522C46.3312 61.0189 46.604 61.0674 46.8791 61.0974C47.1631 61.1155 47.4479 61.1155 47.7319 61.0974C48.3389 61.09 48.9449 61.0446 49.5462 60.9613C49.6697 60.9529 49.7873 60.9052 49.8818 60.8252C49.9643 60.733 50.0096 60.6133 50.0088 60.4896C50.0079 60.3661 49.9629 60.2471 49.8818 60.1539C49.8375 60.111 49.7848 60.0777 49.7271 60.0558C49.6694 60.034 49.6078 60.0242 49.5462 60.0269C48.6095 60.169 47.6586 60.1934 46.7158 60.0995H46.8428C46.5481 60.0561 46.259 59.98 45.981 59.8727C45.8403 59.8115 45.7065 59.7355 45.5819 59.6459C45.4794 59.5646 45.3853 59.4735 45.3007 59.3738C45.2285 59.2702 45.1648 59.161 45.1102 59.0472C45.0379 58.8654 44.9832 58.677 44.9469 58.4848C44.9105 58.1107 44.9105 57.734 44.9469 57.3599C45.166 56.1747 45.5191 55.0182 45.9992 53.9127C46.4618 52.7787 46.9789 51.6629 47.3509 50.4927C47.3815 50.3712 47.3637 50.2427 47.301 50.1342C47.2383 50.0258 47.1358 49.9461 47.0152 49.9121H46.8973C46.7948 49.9137 46.6955 49.948 46.6139 50.01C46.5323 50.072 46.4727 50.1585 46.4437 50.2568L46.4256 50.284ZM44.9469 57.2692C44.9426 57.2871 44.9426 57.3057 44.9469 57.3236C44.9426 57.3057 44.9426 57.2871 44.9469 57.2692ZM45.8631 59.8636H45.9266H45.8631Z" fill="#2C2C2C"/>
<path d="M35.0974 58.4574C36.3402 58.4574 37.3472 57.0513 37.3472 55.3277C37.3472 53.6041 36.3402 52.198 35.0974 52.198C33.8546 52.198 32.8477 53.595 32.8477 55.3277C32.8477 57.0604 33.8546 58.4574 35.0974 58.4574Z" fill="#2C2C2C"/>
<path d="M58.9744 57.986C57.7316 57.986 56.7246 56.5799 56.7246 54.8562C56.7246 53.1326 57.7316 51.7266 58.9744 51.7266C60.2172 51.7266 61.2332 53.1236 61.2332 54.8562C61.2332 56.5889 60.2172 57.986 58.9744 57.986Z" fill="#2C2C2C"/>
<path d="M34.8514 43.1446C34.5027 43.1432 34.1542 43.1644 33.8082 43.2081C33.416 43.2752 33.0282 43.3661 32.647 43.4802C31.2835 43.8766 30.058 44.6464 29.1091 45.7028C29.0339 45.7995 28.979 45.9105 28.9478 46.0289C28.9167 46.1474 28.9098 46.271 28.9277 46.3922C28.9407 46.5162 28.9791 46.6361 29.0405 46.7445C29.1019 46.8529 29.185 46.9475 29.2846 47.0224C29.3842 47.0973 29.4981 47.1509 29.6193 47.1798C29.7405 47.2088 29.8664 47.2124 29.9891 47.1906C30.2404 47.152 30.4675 47.019 30.6241 46.8186L30.6785 46.7551C31.0343 46.4071 31.4302 46.1026 31.8578 45.8479C32.3462 45.5786 32.8635 45.3655 33.4 45.2129C33.8458 45.1015 34.3017 45.0347 34.7607 45.0133C35.1479 45.0193 35.5337 45.0618 35.9128 45.1404L36.194 45.2311C36.4274 45.3225 36.6875 45.3175 36.9172 45.2171C37.1469 45.1167 37.3273 44.9292 37.4187 44.6959C37.5101 44.4625 37.5051 44.2023 37.4047 43.9727C37.3044 43.743 37.1168 43.5626 36.8835 43.4712C36.2403 43.2549 35.5663 43.1446 34.8877 43.1446H34.8514ZM33.3728 45.2129H33.273H33.3728ZM30.7964 46.6372L30.6967 46.737L30.7964 46.6372Z" fill="#2C2C2C"/>
<path d="M58.5452 42.6639C58.897 42.6624 59.2485 42.6836 59.5976 42.7274C59.9896 42.7955 60.3773 42.8864 60.7587 42.9995C62.1213 43.3981 63.3462 44.1676 64.2966 45.2221C64.3703 45.3195 64.4235 45.4308 64.4531 45.5492C64.4828 45.6677 64.4882 45.7909 64.469 45.9115C64.456 46.0355 64.4176 46.1554 64.3562 46.2638C64.2948 46.3722 64.2117 46.4668 64.1121 46.5417C64.0125 46.6166 63.8986 46.6702 63.7774 46.6991C63.6562 46.7281 63.5303 46.7317 63.4076 46.7098C63.1583 46.6727 62.9335 46.5391 62.7817 46.3379L62.7182 46.2744C62.3642 45.9243 61.9681 45.6196 61.5389 45.3672C61.0513 45.0963 60.5337 44.8831 59.9967 44.7322C59.5539 44.6208 59.1011 44.5539 58.645 44.5326C58.2579 44.5386 57.8721 44.5811 57.4929 44.6597L57.2117 44.7504C56.9779 44.835 56.7205 44.8267 56.4926 44.7271C56.2647 44.6275 56.0838 44.4442 55.987 44.2151C55.9363 44.1002 55.9099 43.976 55.9097 43.8503C55.9094 43.7247 55.9353 43.6003 55.9856 43.4852C56.0359 43.3701 56.1096 43.2666 56.202 43.1815C56.2944 43.0963 56.4035 43.0313 56.5223 42.9905C57.1654 42.7742 57.8395 42.6639 58.518 42.6639H58.5452ZM60.0239 44.7322H60.1328H60.0239ZM62.6093 46.1565L62.7001 46.2562L62.6093 46.1565Z" fill="#2C2C2C"/>
<path d="M51.3073 63.2383V63.4197C51.3116 63.4376 51.3116 63.4563 51.3073 63.4742V63.6193C51.3073 63.7372 51.3073 63.8552 51.262 63.9731C51.1889 64.4224 51.0704 64.8632 50.9082 65.2885C50.7338 65.6604 50.521 66.0131 50.2732 66.3408C50.0412 66.6302 49.7798 66.8947 49.493 67.13C49.2321 67.3211 48.9524 67.4852 48.6584 67.6199C48.3884 67.7229 48.1088 67.7989 47.8238 67.8467C47.5074 67.883 47.1878 67.883 46.8713 67.8467C46.5863 67.7989 46.3067 67.7229 46.0367 67.6199C45.7427 67.4852 45.4631 67.3211 45.2021 67.13C44.9247 66.907 44.6722 66.6545 44.4492 66.3771C44.1979 66.0421 43.9849 65.68 43.8142 65.2976C43.6365 64.8503 43.5087 64.3849 43.4332 63.9096C43.4332 63.8643 43.4332 63.8098 43.4332 63.7645C43.4333 63.6391 43.3845 63.5187 43.2971 63.4288C43.2057 63.3438 43.0863 63.2953 42.9615 63.2928C42.8389 63.2931 42.7214 63.342 42.6349 63.4288C42.5896 63.4723 42.5534 63.5244 42.5284 63.582C42.5035 63.6396 42.4904 63.7017 42.4897 63.7645C42.5402 64.2162 42.6313 64.6626 42.7619 65.098C42.8403 65.3628 42.9404 65.6207 43.0612 65.8691C43.3403 66.4776 43.7311 67.0284 44.2133 67.4929C44.9659 68.2658 45.9772 68.734 47.0535 68.8076C48.1298 68.8813 49.1955 68.5553 50.0464 67.892C50.6021 67.4655 51.0703 66.9357 51.4253 66.3317C51.6961 65.8654 51.9035 65.3651 52.0421 64.844C52.152 64.4252 52.2219 63.9969 52.2508 63.5649C52.2463 63.5287 52.2463 63.4922 52.2508 63.456V63.3381V63.2565C52.2226 63.1579 52.1631 63.0712 52.0813 63.0094C51.9994 62.9477 51.8997 62.9143 51.7972 62.9143C51.6947 62.9143 51.595 62.9477 51.5131 63.0094C51.4313 63.0712 51.3718 63.1579 51.3436 63.2565L51.3073 63.2383ZM50.9263 65.3429C50.9224 65.3608 50.9224 65.3794 50.9263 65.3973C50.9224 65.3794 50.9224 65.3608 50.9263 65.3429ZM44.3948 66.3408V66.3861V66.3408ZM46.0639 67.6743H46.1093H46.0639Z" fill="#2C2C2C"/>
<path d="M20 139.939C20 140.927 19.9456 141.925 19.9275 142.914C19.9275 143.413 19.9275 143.921 19.8821 144.42C19.8821 144.629 19.8821 144.828 19.8821 145.028C19.8821 145.227 19.8821 145.336 19.8821 145.49C19.88 145.553 19.891 145.615 19.9144 145.673C19.9379 145.731 19.9732 145.783 20.0182 145.826L20.254 145.998L20.626 146.289L21.1703 146.706L22.404 147.613L24.6447 149.337L29.4526 153.029C29.5257 153.071 29.6086 153.093 29.693 153.093C29.7774 153.093 29.8603 153.071 29.9334 153.029L35.4399 149.21L38.0162 147.396L39.3316 146.488C39.4608 146.405 39.585 146.314 39.7036 146.216C39.7912 146.126 39.8428 146.006 39.8487 145.881C39.8487 145.608 39.8487 145.336 39.8487 145.055C39.9334 141.481 40.021 137.904 40.1118 134.323H39.5765L39.1683 134.278L38.8962 145.672L29.6885 152.022L20.8074 145.264L21.0796 134.233H20.7983H20.4264L20.1361 134.187L20 139.975" fill="#2C2C2C"/>
<path d="M19.711 130.686H19.6021C19.4777 130.688 19.3591 130.738 19.2711 130.826C19.1831 130.914 19.1327 131.033 19.1304 131.157V134.623C19.1327 134.746 19.1835 134.864 19.2717 134.95C19.3599 135.037 19.4785 135.085 19.6021 135.085H40.5212C40.6448 135.085 40.7634 135.037 40.8516 134.95C40.9398 134.864 40.9905 134.746 40.9929 134.623V131.157C40.9906 131.033 40.9402 130.914 40.8522 130.826C40.7642 130.738 40.6456 130.688 40.5212 130.686H19.711ZM40.0495 134.151H20.092V131.656H40.0495V134.151Z" fill="#2C2C2C"/>
<path d="M51.8408 1.55019e-05C50.692 -0.00138919 49.545 0.0926721 48.4118 0.281233C47.2059 0.478034 46.0294 0.825485 44.9101 1.31541C43.8839 1.75459 42.9416 2.36846 42.1251 3.12973C41.7476 3.4975 41.4073 3.90162 41.1091 4.33624C40.9467 4.57055 40.8012 4.81611 40.6737 5.07105C40.5057 4.83742 40.3141 4.6216 40.1022 4.42696C39.7302 4.07851 39.3192 3.77412 38.8775 3.5198C38.006 3.03549 37.0579 2.70411 36.0744 2.54007C35.3346 2.41044 34.5848 2.34669 33.8337 2.34957C32.5485 2.3628 31.2684 2.51179 30.0146 2.79407C27.874 3.27912 25.8372 4.14237 24.0001 5.34319C22.1156 6.54003 20.4976 8.11177 19.2466 9.96065C18.5102 11.0708 17.9673 12.2977 17.6409 13.5893C17.4893 14.2267 17.3952 14.8764 17.3597 15.5306C17.3268 16.1361 17.348 16.7433 17.4232 17.3449H17.1419H16.9877L16.3436 17.4356C16.1471 17.467 15.9531 17.5125 15.7631 17.5717C14.5796 17.9267 13.4658 18.4821 12.4701 19.2137C11.1518 20.1778 10.0231 21.3772 9.14079 22.7516C8.25985 24.1023 7.62415 25.5979 7.26296 27.1695C6.89998 28.6715 6.86594 30.2342 7.16317 31.7506C7.30216 32.4199 7.52465 33.0691 7.82541 33.6829C8.12818 34.3028 8.5126 34.8795 8.96842 35.3974C9.94664 36.4774 11.178 37.2972 12.5517 37.7832C11.6153 39.1043 10.9544 40.6004 10.6084 42.1823C10.2625 43.7642 10.2384 45.3996 10.5378 46.9909C10.8277 48.5908 11.474 50.1048 12.4288 51.4208C13.3836 52.7368 14.6224 53.821 16.0533 54.5929C15.7251 55.2063 15.4665 55.8544 15.2823 56.5252C14.8443 58.0603 14.9143 59.6959 15.4818 61.188C15.6037 61.501 15.7493 61.8043 15.9173 62.0951C16.0938 62.387 16.2909 62.6658 16.5069 62.9297C17.077 63.6076 17.7656 64.1763 18.539 64.608C19.3797 65.0921 20.3021 65.418 21.2604 65.5696C21.6748 65.6319 22.0933 65.6622 22.5123 65.6603C22.9861 65.6587 23.4591 65.6224 23.9275 65.5514C23.9275 65.9778 23.9275 66.4132 23.9819 66.8396C24.0641 68.0696 24.2832 69.2867 24.6351 70.4682C24.8129 71.0103 25.025 71.5406 25.2701 72.0557C25.5301 72.585 25.8335 73.0917 26.1773 73.5707C27.3856 75.2219 28.8934 76.6313 30.6223 77.7255C32.4005 78.8417 34.3235 79.7086 36.3375 80.3019C37.036 80.5196 37.7617 80.7101 38.4965 80.8824C38.5347 81.7304 38.5013 82.5801 38.3967 83.4225C38.2152 84.6686 37.88 85.8874 37.3988 87.0511C36.9519 88.1125 36.3761 89.1149 35.6843 90.0357C35.1211 90.7498 34.479 91.398 33.7702 91.9679C33.1554 92.4335 32.4887 92.8262 31.7835 93.1382C31.3843 93.3015 30.9671 93.4375 30.5588 93.5736L30.3139 93.6552L28.4452 94.263L26.4222 94.8799L24.8709 95.3698C22.5634 96.0538 20.3029 96.8871 18.1035 97.8645C15.8734 98.887 13.8019 100.225 11.953 101.838C10.0622 103.532 8.44093 105.506 7.14504 107.689C5.86742 109.839 4.83873 112.128 4.07883 114.511C3.30542 116.913 2.72599 119.373 2.34615 121.868C1.92886 124.481 1.693 127.084 1.43899 130.032C1.18499 132.981 1.01263 136.101 0.894702 139.104C0.658841 144.973 0.667912 150.761 0.894702 156.34H1.84721C1.62042 151.178 1.59321 145.753 1.78372 140.211C1.8835 137.489 2.03772 134.614 2.24636 131.692C2.35522 130.259 2.47316 128.826 2.60923 127.402C2.74531 125.977 2.85416 124.862 3.00837 123.7C3.48597 119.725 4.48644 115.83 5.98386 112.116C6.92884 109.878 8.14769 107.767 9.6125 105.829C10.8139 104.273 12.2068 102.874 13.7582 101.665C14.6234 101 15.5326 100.394 16.4797 99.8512C17.4786 99.2888 18.5084 98.783 19.564 98.3362C21.7049 97.429 23.9003 96.7487 26.3405 95.9957L26.7216 95.8869L28.681 95.2791C29.2474 97.6852 29.9965 100.045 30.9217 102.337L30.9671 102.427C31.8727 104.695 33 106.868 34.3326 108.914C35.7335 111.104 37.4939 113.042 39.5397 114.647C40.09 115.066 40.6656 115.451 41.2633 115.799C41.8455 116.145 42.4518 116.448 43.0777 116.706C44.2945 117.19 45.5805 117.478 46.8877 117.559H47.5409C48.7061 117.548 49.8639 117.371 50.979 117.033C52.3028 116.618 53.5566 116.006 54.6984 115.218C56.6346 113.879 58.328 112.22 59.7059 110.311C62.0084 107.123 63.7961 103.593 65.0037 99.8512L65.0672 99.6425L65.1307 99.4611V99.3613C65.3394 98.7081 65.5389 98.0731 65.7113 97.4381L65.7657 97.2657V97.1206V97.0117C65.7657 96.921 65.7657 96.8575 65.8202 96.794L65.8746 96.5854L65.929 96.3677L66.0016 96.1046L66.056 95.8687L67.3442 96.2769C69.7845 97.0299 71.9798 97.7193 74.1207 98.6174C75.1797 99.0568 76.2099 99.5628 77.205 100.132C78.1535 100.673 79.0629 101.279 79.9265 101.947C81.4758 103.157 82.8684 104.556 84.0722 106.111C85.537 108.048 86.7559 110.16 87.7009 112.397C89.1983 116.111 90.1988 120.006 90.6764 123.982C90.8306 125.152 90.9485 126.322 91.0755 127.701C91.2025 129.08 91.3295 130.559 91.4384 131.992C91.647 134.913 91.8012 137.78 91.901 140.51C92.0825 145.953 92.0643 151.287 91.8375 156.34H92.79C93.044 150.897 93.0531 145.227 92.79 139.412C92.6721 136.437 92.4907 133.398 92.2457 130.341C92.0008 127.284 91.774 124.834 91.3386 122.176C90.9587 119.682 90.3793 117.221 89.6059 114.819C88.8424 112.438 87.8139 110.149 86.5397 107.997C83.9934 103.668 80.1637 100.238 75.5812 98.182C73.3803 97.2058 71.12 96.3696 68.8138 95.6782L67.2716 95.2065L65.2577 94.5806L63.3799 93.9818L63.135 93.9002C62.7267 93.755 62.3094 93.619 61.9103 93.4557C61.2052 93.1472 60.5385 92.7575 59.9236 92.2945C59.2147 91.7214 58.5726 91.0702 58.0095 90.3532C57.3177 89.4357 56.7419 88.4363 56.295 87.3777C55.8179 86.2126 55.4828 84.9943 55.2971 83.7491C55.1782 82.8043 55.1539 81.8501 55.2245 80.9006C57.2989 80.4717 59.3325 79.8647 61.3025 79.0862C63.3571 78.3088 65.2765 77.2129 66.9904 75.8386C67.3622 75.5289 67.7165 75.1988 68.0518 74.8498C68.4653 74.4126 68.8219 73.9249 69.1131 73.3984C69.391 72.9154 69.6248 72.4083 69.8117 71.8834C70.0201 71.291 70.1868 70.6847 70.3106 70.0691C70.4747 69.2775 70.5988 68.4782 70.6825 67.6742C70.7642 66.9938 70.8277 66.3044 70.8821 65.6149C70.911 65.6451 70.9495 65.6643 70.991 65.6694C71.53 65.7652 72.0764 65.8137 72.6239 65.8145C73.0491 65.8139 73.4737 65.7805 73.8939 65.7147C74.8527 65.5703 75.7758 65.2472 76.6154 64.7622C77.3893 64.3274 78.0778 63.7557 78.6474 63.0749C78.8634 62.8142 79.0605 62.5383 79.2371 62.2493C79.4046 61.9582 79.5502 61.655 79.6725 61.3422C80.2416 59.8532 80.3085 58.219 79.863 56.6884C79.6622 55.9216 79.3569 55.186 78.9558 54.5022C80.3341 54.0131 81.5623 53.1755 82.521 52.071C83.1274 51.4255 83.6711 50.7238 84.1448 49.9755C84.6375 49.2144 85.0654 48.4133 85.4239 47.5806C86.0317 46.1473 87.8007 41.2304 84.7435 38.3547C84.5625 38.18 84.3684 38.0192 84.1629 37.874C84.2717 37.8355 84.3753 37.7837 84.4714 37.7198C84.7957 37.5203 85.0996 37.2894 85.3785 37.0303C85.8765 36.54 86.2795 35.9618 86.5669 35.3248C87.1817 33.9222 87.4313 32.3868 87.2926 30.8616C87.1919 29.2485 86.7856 27.6692 86.0952 26.2079C85.4855 24.8495 84.5318 23.6738 83.3284 22.797C82.9887 22.5628 82.6234 22.368 82.2398 22.2164C82.0765 22.1529 81.9041 22.0984 81.7408 22.0531C82.1201 21.4448 82.4247 20.793 82.648 20.1118C82.9049 19.3028 83.0244 18.4565 83.0018 17.608C82.9433 15.9538 82.4112 14.3512 81.4687 12.9906C80.4824 11.5396 79.2106 10.3049 77.7312 9.36192C76.221 8.36866 74.5426 7.65858 72.7781 7.26638C71.8998 7.06831 71.0023 6.96791 70.1019 6.96701C69.7754 6.96701 69.4488 6.96702 69.1222 7.01237C68.0837 7.09615 67.0662 7.35053 66.1104 7.76531C65.9984 7.29779 65.8341 6.84439 65.6206 6.41365C65.3231 5.83473 64.9543 5.29531 64.5229 4.80797C64.0791 4.28653 63.5769 3.81779 63.0261 3.41095C62.4514 2.98151 61.8449 2.59637 61.2118 2.25885C59.8376 1.53658 58.3776 0.990989 56.8665 0.635039C55.2872 0.258249 53.6726 0.0484479 52.0495 0.00909596H51.5868L51.8408 1.55019e-05ZM52.9929 36.5041C54.1266 36.508 55.2537 36.3304 56.3313 35.978C57.8574 35.481 59.2063 34.5513 60.2139 33.3019C60.5907 32.8283 60.9132 32.3141 61.1755 31.7688C61.287 31.5423 61.3839 31.309 61.4658 31.0703C61.661 31.3974 61.8923 31.7017 62.1552 31.9774C62.7719 32.6752 63.5018 33.2641 64.3143 33.7192C65.0685 34.1561 65.9003 34.4426 66.7636 34.5628C66.945 34.5628 67.1355 34.5628 67.326 34.5628C67.7278 34.5639 68.1278 34.509 68.5144 34.3995C68.092 35.788 67.9532 37.2472 68.1062 38.6904C68.1531 39.0968 68.2258 39.4998 68.3239 39.8969C68.443 40.334 68.5946 40.7616 68.7775 41.176C69.0852 41.8655 69.495 42.5046 69.9931 43.072C68.9924 44.4406 68.3953 46.0622 68.2695 47.7529C68.2508 48.1897 68.2751 48.6273 68.3421 49.0593C68.4159 49.5147 68.5533 49.9574 68.7503 50.3746C69.1352 51.1408 69.7422 51.7731 70.492 52.1889V52.833C70.492 54.3389 70.492 55.8357 70.492 57.3688C70.492 59.5188 70.4376 61.4057 70.356 63.1202C70.3015 64.109 70.229 65.0888 70.1473 66.0776C70.0747 66.8214 70.0022 67.5563 69.9024 68.3001C69.7441 69.5724 69.424 70.8192 68.9499 72.0104C68.706 72.5681 68.4018 73.0974 68.0427 73.5889C67.5095 74.245 66.9005 74.8358 66.2284 75.3487C64.8486 76.375 63.3463 77.2253 61.7561 77.8797C58.6791 79.1348 55.4533 79.9885 52.1583 80.4198C50.4288 80.6455 48.6863 80.7576 46.9421 80.7554C45.1797 80.7542 43.4192 80.639 41.6715 80.4107C39.1605 80.0829 36.7009 79.4398 34.3508 78.4966C32.8144 77.8587 31.3613 77.0363 30.0236 76.0473L29.951 75.9929C28.9589 75.2168 28.0634 74.3244 27.284 73.3348C27.0481 73.0264 26.8214 72.718 26.6127 72.4277C26.3483 72.0083 26.1177 71.5684 25.9233 71.1123V71.0307C25.5059 69.983 25.2284 68.885 25.0977 67.7649C24.9019 65.8634 24.8564 63.9494 24.9617 62.0407V61.6869C24.9617 60.8795 25.0161 60.0812 25.0252 59.2829C25.0252 58.0764 25.0252 56.8699 25.0977 55.6543C25.1703 54.4387 25.1975 53.4771 25.261 52.3885C25.5205 52.2234 25.769 52.0416 26.0049 51.8442C26.3435 51.5397 26.6477 51.199 26.9121 50.8282C27.4464 50.0837 27.7948 49.2221 27.9281 48.3154C28.002 47.8322 28.0323 47.3434 28.0188 46.8548C27.9997 46.4448 27.9265 46.0391 27.8011 45.6483C27.7104 45.349 27.6015 45.0587 27.4926 44.7412L27.3475 44.3239C27.2077 43.9687 27.1014 43.6012 27.03 43.2262C27.0253 43.1416 27.0253 43.0568 27.03 42.9722C27.0702 42.8709 27.1252 42.7761 27.1933 42.691C27.4291 42.3916 27.6922 42.1104 27.9553 41.8292C28.2767 41.5144 28.5796 41.1812 28.8624 40.8313C28.9736 40.6658 29.0678 40.4895 29.1437 40.3051C29.2582 40.0634 29.3582 39.815 29.443 39.5613C29.6282 39.0404 29.7619 38.5026 29.8422 37.9556C30.0675 36.5698 29.9682 35.1507 29.5519 33.8099L29.7878 33.9913C30.4583 34.4413 31.18 34.8097 31.9377 35.089C33.1912 35.5427 34.5145 35.773 35.8476 35.7693C36.1832 35.7693 36.528 35.7693 36.8727 35.724C38.4991 35.6017 40.0641 35.0508 41.4085 34.1274C42.0477 33.6695 42.6031 33.1048 43.0504 32.4582C43.2847 32.1219 43.4852 31.7634 43.6492 31.3878C43.7776 31.5495 43.8958 31.7192 44.0029 31.8958C44.2695 32.287 44.5733 32.6516 44.9101 32.9844C45.49 33.6013 46.1418 34.1464 46.8514 34.6082C48.2736 35.518 49.8773 36.1063 51.5505 36.3318C52.0523 36.4038 52.5585 36.4402 53.0655 36.4407L52.9929 36.5041ZM20.1537 51.8624C20.4778 51.7332 20.8157 51.6419 21.1607 51.5902C21.2845 51.581 21.4088 51.581 21.5326 51.5902C21.6746 51.5812 21.817 51.5812 21.959 51.5902C22.2282 51.6423 22.4923 51.7182 22.7482 51.817C23.0099 51.9408 23.259 52.0897 23.4921 52.2615C23.7943 52.5046 24.0737 52.7748 24.3266 53.0689C24.3266 53.6948 24.2541 54.2754 24.2269 54.8832V55.1372C24.0805 54.9636 23.9196 54.8028 23.7461 54.6564C23.2851 54.2874 22.7632 54.0019 22.2039 53.8128C21.8196 53.691 21.4187 53.6297 21.0155 53.6313C20.8343 53.6177 20.6524 53.6177 20.4712 53.6313C19.8139 53.7298 19.1908 53.9884 18.6569 54.3843C18.5516 54.4474 18.474 54.5478 18.4392 54.6655C18.4215 54.7274 18.4163 54.7922 18.4241 54.8561C18.4319 54.9199 18.4525 54.9816 18.4845 55.0374C18.5305 55.1117 18.5946 55.1731 18.6707 55.216C18.7468 55.2588 18.8326 55.2816 18.92 55.2824C19.0012 55.2818 19.0803 55.2565 19.1468 55.2098C19.3826 55.0325 19.6383 54.8833 19.9088 54.7653C20.1364 54.6744 20.3739 54.6104 20.6164 54.5748C20.7402 54.5659 20.8645 54.5659 20.9883 54.5748H21.4147C21.699 54.6299 21.9781 54.7088 22.2493 54.8106C22.5294 54.9428 22.7966 55.1007 23.0476 55.2824C23.3197 55.5015 23.5689 55.7477 23.7914 56.0172C23.9056 56.1718 24.0116 56.3322 24.1089 56.498C24.1286 56.5368 24.1564 56.5708 24.1906 56.5978C24.1906 56.752 24.1906 56.9153 24.1906 57.0786C24.1906 57.641 24.1906 58.2125 24.1906 58.784V59.3555C24.1906 60.1357 24.1906 60.9158 24.1361 61.696C24.1361 62.6485 24.0726 63.592 24.0726 64.5354L23.7642 64.5808H23.6735C23.4286 64.5808 23.0929 64.6261 22.7663 64.6261C22.4631 64.6253 22.1603 64.6071 21.8592 64.5717C21.2383 64.4798 20.6297 64.3186 20.0448 64.0909C18.9805 63.6631 18.0436 62.9698 17.3234 62.077C17.0494 61.7001 16.8153 61.2957 16.6249 60.8705C16.4385 60.4067 16.3076 59.9226 16.2348 59.4281C16.162 58.8255 16.162 58.2164 16.2348 57.6138C16.341 56.9351 16.5267 56.2714 16.7881 55.6362C17.0779 54.9734 17.4432 54.3464 17.8767 53.7674C18.2668 53.2773 18.7111 52.833 19.2012 52.4429L19.1014 52.5065C19.45 52.2609 19.817 52.0425 20.1991 51.8533H20.2626L20.1537 51.8624ZM72.2338 52.3522C72.4716 52.1753 72.7269 52.0233 72.9958 51.8986C73.2469 51.7972 73.5086 51.7242 73.776 51.6809C73.9179 51.6716 74.0604 51.6716 74.2023 51.6809H74.5743C74.9266 51.7302 75.2712 51.8247 75.5994 51.9622C75.9972 52.1452 76.3743 52.3702 76.7242 52.6335L76.6516 52.5518C77.1224 52.9381 77.5511 53.3729 77.9307 53.8491C78.3783 54.4367 78.7529 55.0763 79.0466 55.7541C79.3107 56.389 79.4995 57.0528 79.609 57.7317C79.6723 58.3106 79.6723 58.8946 79.609 59.4734C79.5376 59.9937 79.4004 60.5027 79.2008 60.9884C79.016 61.4043 78.7879 61.7996 78.5204 62.1677C78.1842 62.5825 77.804 62.9597 77.3865 63.2926C76.8905 63.6497 76.3584 63.9538 75.7989 64.1998C75.2141 64.4275 74.6055 64.5887 73.9846 64.6806C73.6762 64.6806 73.3587 64.6806 73.0775 64.6806C72.7471 64.6803 72.417 64.6621 72.0886 64.6261H71.7802H71.5897C71.5363 64.6114 71.4799 64.6114 71.4264 64.6261C71.5625 62.8118 71.635 60.8342 71.6623 58.4302C71.6623 57.8043 71.6623 57.1783 71.6623 56.5433L71.9707 56.0897C72.1925 55.8227 72.4384 55.5767 72.7055 55.355C72.9603 55.177 73.2305 55.0221 73.5129 54.8923C73.7794 54.7838 74.0559 54.7017 74.3384 54.6473H74.7557H75.1458C75.3874 54.6873 75.6244 54.7511 75.8534 54.8379C76.1227 54.9579 76.3783 55.107 76.6154 55.2824C76.681 55.3308 76.7607 55.3563 76.8422 55.355C76.9283 55.3544 77.0129 55.3316 77.0876 55.2886C77.1623 55.2457 77.2247 55.1842 77.2685 55.11C77.3318 54.997 77.3512 54.8645 77.323 54.7381C77.2844 54.6197 77.2037 54.5196 77.0962 54.4568C76.5639 54.058 75.9401 53.7991 75.2818 53.7039C75.1037 53.6901 74.9248 53.6901 74.7466 53.7039C74.3427 53.7008 73.941 53.7652 73.5583 53.8944C72.9965 54.0779 72.4736 54.3639 72.0161 54.7381C71.8867 54.8372 71.7654 54.9464 71.6532 55.0647V53.0054C71.8294 52.8155 72.0172 52.6367 72.2156 52.4702H72.261L72.2338 52.3522ZM46.9149 81.7624C47.5681 81.7624 48.2212 81.7624 48.8744 81.717C50.7687 81.6269 52.6543 81.4025 54.5169 81.0457C54.4543 82.0546 54.5 83.0674 54.653 84.0666C54.9533 86.0893 55.6599 88.0303 56.7304 89.7726C57.2387 90.623 57.8478 91.4089 58.5447 92.1131C59.2316 92.8028 60.01 93.395 60.858 93.873C61.2118 94.0584 61.5751 94.225 61.9466 94.3719C61.886 94.4195 61.8443 94.487 61.8286 94.5624L61.7742 94.771V94.9797V95.0976V95.1883C61.7523 95.2538 61.7341 95.3204 61.7198 95.3879L61.6654 95.5875C61.6613 95.6328 61.6613 95.6783 61.6654 95.7236V95.8234V95.9231C61.5293 96.3767 61.4023 96.8303 61.2571 97.2657L61.2118 97.4018V97.4925L61.0938 97.8645V97.9552C60.8852 98.5811 60.6584 99.1889 60.4135 99.7695L60.2048 100.287V100.341V100.386C59.2585 102.484 58.0548 104.455 56.6216 106.256C55.7747 107.37 54.7936 108.375 53.7005 109.249C52.9005 109.877 52.0223 110.399 51.0879 110.801C50.3413 111.103 49.5619 111.316 48.7655 111.436C48.404 111.475 48.0407 111.497 47.677 111.499C47.3223 111.496 46.9681 111.475 46.6156 111.436H46.5067C45.7202 111.297 44.9508 111.075 44.2116 110.773H44.1118C43.2475 110.361 42.4269 109.863 41.6625 109.286C40.5893 108.419 39.6184 107.433 38.7686 106.346L38.7051 106.265C37.3264 104.417 36.1808 102.406 35.2942 100.278V100.187C34.4197 98.0344 33.7249 95.8134 33.2168 93.5464C34.0389 93.0877 34.793 92.5168 35.4575 91.85C36.1523 91.144 36.7613 90.3584 37.2718 89.5095C37.8034 88.6491 38.2471 87.7373 38.5963 86.788C38.9512 85.8255 39.2036 84.8281 39.3492 83.8126C39.4839 82.912 39.5385 82.0013 39.5125 81.0911C40.5013 81.2907 41.5446 81.4539 42.6876 81.5809C44.0979 81.7284 45.5151 81.8011 46.9331 81.7987L46.9149 81.7624ZM32.1282 102.5L31.9377 102.046C31.0047 99.7165 30.2436 97.3212 29.6607 94.8799L29.9964 94.7801L30.2232 94.7075C30.9126 94.4898 31.6112 94.254 32.2825 93.9727C32.7341 95.9762 33.3407 97.9416 34.0968 99.8512C34.9746 102.147 36.139 104.324 37.5621 106.328C39.0361 108.479 41.0178 110.233 43.3317 111.436C43.9019 111.705 44.4935 111.927 45.1006 112.098C45.6931 112.266 46.3009 112.376 46.9149 112.424C47.1508 112.424 47.3957 112.424 47.6407 112.424C48.6903 112.415 49.7317 112.238 50.725 111.898C52.0016 111.459 53.1925 110.802 54.2448 109.957C55.3807 109.061 56.3988 108.024 57.2747 106.873C58.8423 104.804 60.1126 102.526 61.0485 100.105C61.3116 99.452 61.5293 98.8442 61.7379 98.2364L61.8196 98.0187L61.8649 97.8463L61.9194 97.7012C62.1099 97.1025 62.2641 96.5944 62.4092 96.0774V95.9594V95.8687V95.778L62.4818 95.5058V95.3789V95.2609L62.5544 94.9525L62.5997 94.7892C62.6075 94.7411 62.6075 94.6921 62.5997 94.6441C62.9082 94.762 63.2257 94.8618 63.5523 94.9706L63.77 95.0432C64.2236 95.1884 64.6771 95.3426 65.1489 95.4786L65.0491 95.8778V95.9776V96.0864V96.2134V96.3132V96.4221C65.0491 96.5309 65.0037 96.5763 64.9947 96.6307L64.8586 97.1297C64.6681 97.7828 64.4776 98.4088 64.278 99.0256L64.2236 99.1889L64.0965 99.579C63.7609 100.559 63.389 101.557 62.9717 102.554C61.9204 105.071 60.5809 107.458 58.9802 109.667L58.7624 109.948C57.6884 111.353 56.4453 112.621 55.0612 113.722C54.0916 114.445 53.0413 115.054 51.9315 115.536H51.8862C50.948 115.891 49.975 116.147 48.9832 116.298C48.5226 116.352 48.0592 116.38 47.5953 116.38C47.1498 116.378 46.7048 116.354 46.2618 116.307H46.1439C45.1547 116.144 44.187 115.87 43.2591 115.491C42.1569 115.01 41.1155 114.401 40.1566 113.676H40.1112C38.7355 112.556 37.4935 111.28 36.41 109.875C34.6709 107.563 33.2322 105.039 32.1282 102.364V102.5Z" fill="#2C2C2C"/>
</svg>
