<svg width="143" height="109" fill="none" xmlns="http://www.w3.org/2000/svg"><g clip-path="url(#clip0)"><path d="M24.527 70.752a.378.378 0 00-.261.103l-.2.178-.082.049-.343.11-.138.04a5.12 5.12 0 00-.425.138c-.131.048-.258.108-.378.178a.762.762 0 00-.261.227.933.933 0 00-.09.426c.013.184.046.366.097.543.061.22.123.439.199.652.075.213.206.522.323.783l.11.24c.144.35.254.646.357.941l.103.33.199.577.103.288c.069.172.13.343.192.522s.179.508.275.762c.106.286.227.566.364.838l.274.598.097.213c.144.295.288.583.453.865l.24.446c.083.145.158.296.248.44.164.275.33.556.515.824.185.268.288.405.44.611l.061.083.11.144c.165.227.33.453.508.687l.392.446.233.268c.213.247.44.48.687.687.247.206.37.322.563.48l.165.138c.268.22.515.419.783.597l.432.282.378.24.22.151c.206.138.405.275.625.399.297.165.61.301.934.405l.185.062.543.165c.269.08.541.146.817.199l.447.096c.15.027.302.048.453.062h.11c.267.034.535.055.803.075h.234c.463-.01.924-.072 1.373-.185.388-.08.77-.19 1.14-.33l.598-.22a2.4 2.4 0 00.364-.15l.419-.241.535-.282c.197-.102.385-.219.564-.35l.233-.158c.151-.096.302-.192.447-.302.274-.2.535-.412.796-.632.496-.418.955-.878 1.374-1.373.215-.246.408-.51.577-.79l.061-.096c.152-.255.31-.509.481-.75l.069-.088c.185-.237.352-.487.501-.749l.46-.845c.154-.3.326-.592.515-.872.176-.262.34-.532.488-.81.289-.562.546-1.14.77-1.73l.143-.4.145-.398c.075-.206.137-.418.206-.638v-.096l.048-.165c.068-.234.137-.46.192-.687l.144-.529.041-.172.09-.322.089-.316c.041-.172.082-.344.117-.515v-.22c.033-.147.056-.296.068-.447.001-.109-.015-.218-.048-.322a.81.81 0 00-.33-.42 1.203 1.203 0 00-.46-.178l-.267-.055h-.13a1.36 1.36 0 00-.234-.04h-.138a.929.929 0 01-.185-.049l-.124-.055h-.123a.37.37 0 00-.186.048.535.535 0 00-.165.165c-.031.055-.059.113-.082.172a3.436 3.436 0 00-.151.563v.226c-.041.186-.082.371-.13.557a9.07 9.07 0 01-.24.741c-.09.24-.138.44-.193.687v.103a5.478 5.478 0 01-.158.577c-.055.151-.117.295-.172.433l-.096.24-.103.247-.103.254v.049c-.293.69-.633 1.36-1.017 2.005l-.288.501c-.096.172-.185.337-.288.502a9.274 9.274 0 01-.584.879c-.206.26-.433.515-.653.755-.22.24-.24.289-.357.44-.116.15-.199.24-.295.357-.096.117-.337.357-.515.535l-.227.227-.096.096-.247.248a5.471 5.471 0 01-.316.267l-.446.33a7.939 7.939 0 01-.454.275 9.166 9.166 0 01-.343.178l-.234.117-.33.158c-.167.067-.339.123-.514.165a5.35 5.35 0 00-.687.26h-.117c-.198.057-.4.099-.604.124l-.398.07-.234.04c-.365.035-.732.05-1.099.048H34.41a1.167 1.167 0 01-.206-.061l-.357-.193a4.714 4.714 0 00-.316-.178l-.192-.096a4.698 4.698 0 01-.488-.255l-.377-.226c-.158-.096-.316-.206-.474-.316l-.096-.076-1.01-.686a3.563 3.563 0 01-.323-.323l-.172-.179-.137-.137a4.563 4.563 0 01-.357-.37c-.09-.131-.165-.269-.247-.406a5.686 5.686 0 00-.206-.323l-.076-.11c-.123-.178-.24-.364-.364-.556a8.87 8.87 0 00-.474-.687l-.192-.268c-.117-.158-.24-.316-.343-.48l-.193-.31a11.613 11.613 0 01-.302-.487c-.096-.165-.172-.282-.247-.426l-.247-.426-.055-.089a7.593 7.593 0 01-.399-.735c-.034-.09-.075-.22-.123-.35l-.09-.254c-.089-.248-.185-.502-.288-.749-.103-.247-.13-.309-.2-.467l-.143-.309c-.09-.213-.179-.419-.275-.632l-.034-.075a14.054 14.054 0 01-.44-1.181 6.02 6.02 0 01-.144-.502v-.117a2.492 2.492 0 00-.062-.24.63.63 0 00-.062-.117 1.59 1.59 0 00.13-.11l.063-.055a.329.329 0 00.103-.247.37.37 0 00-.103-.268.35.35 0 00-.254-.103" fill="#A3C0B6"/><path d="M33.303 84.164a.364.364 0 000 .502c.097.105.203.201.316.288.163.105.339.19.522.254.206.062.418.103.632.124.185 0 .378 0 .57.048a.364.364 0 00.227-.041.337.337 0 00.164-.213.351.351 0 00-.034-.275.336.336 0 00-.213-.165c-.24-.04-.48-.048-.728-.075a2.749 2.749 0 01-.529-.138l-.192-.11a1.9 1.9 0 01-.206-.199.332.332 0 00-.247-.11.378.378 0 00-.261.11" fill="#419A6F"/><path d="M16.01 101.911a.351.351 0 00-.26.117.348.348 0 00-.104.247V109.747a.94.94 0 000 .13.59.59 0 00.268.467c.125.101.258.191.399.268.114.066.224.14.33.22.178.144.356.288.528.44.172.151.357.288.536.425l.11.083.068.048c.143.115.295.218.453.309.097.055.2.096.296.144l.185.089.083.048a.552.552 0 00.096.172c.042.049.088.095.137.138l.062.054.172.158c.116.11.24.213.364.309l.123.097c.22.171.44.35.687.515.343.261.687.529 1.01.817l.185.144.069.062.062.048c.066.063.137.12.212.172.1.082.218.141.344.171h.123c.041.007.083.007.124 0l.13-.034a1.84 1.84 0 00.385-.192c.225-.154.438-.324.639-.508l.302-.255c.247-.178.515-.336.776-.487l.453-.268.213-.151.083-.055.316-.213.233-.144c.132-.076.26-.159.385-.247l.089-.055c.309-.22.639-.447.934-.687l.282-.24.274-.248.33-.268.268-.199.26-.199c.096-.071.194-.138.296-.199.08-.047.155-.1.227-.158a.72.72 0 00.206-.398c.058-.32.088-.644.089-.969v-.982-1.044-.535-.378-.996-1.215V103.14v-.309-.412a.401.401 0 00-.2-.378.892.892 0 00-.288-.062l-.542-.041h-.831c-.323 0-.646 0-.969.035H24.61c-.33 0-.687-.042-.99-.083a6.349 6.349 0 00-.803-.048h-.165c-.199 0-.391 0-.59.048h-4.457c-.282 0-.563 0-.838.041h-.378a.47.47 0 00-.378-.24" fill="#A3C0B6"/><path d="M29.224 99.335h-.879c-.385 0-.77 0-1.16.035H18.516l-1.421-.104H15.81a.934.934 0 00-.274.076.273.273 0 00-.09 0 .391.391 0 00-.398.35 7.253 7.253 0 000 1.285v.075c-.01.105-.01.211 0 .316a.37.37 0 00.165.254c.08.054.172.085.268.089.129.028.26.044.391.048h.13c.213 0 .433 0 .646-.048l.35-.041H30a.685.685 0 00.268-.055.489.489 0 00.275-.494 1.62 1.62 0 000-.179v-.213-.906a.69.69 0 00-.048-.213.522.522 0 00-.152-.172.603.603 0 00-.254-.103 1.528 1.528 0 00-.295-.055h-.583" fill="#F4DBD8"/><path d="M58.391 92.358a.324.324 0 00-.206.158.384.384 0 00-.04.274c.287 1.722.548 3.446.782 5.172v-.09a158.515 158.515 0 011.428 20.411h.687a159.253 159.253 0 00-2.225-25.678.336.336 0 00-.158-.213.344.344 0 00-.178-.055.274.274 0 00-.103 0M35.199 38.068a19.907 19.907 0 01-.59 1.545c-.214.508-.468 1.12-.687 1.69-.212.544-.38 1.104-.502 1.675a5.08 5.08 0 00-.096.783c-.017.25-.003.502.041.749.061.41.251.79.543 1.085.284.27.635.46 1.016.55.204.05.41.087.618.11.215.013.431.013.646 0 .46-.006.918-.04 1.373-.104a.438.438 0 00.255-.103.377.377 0 00.096-.254.391.391 0 00-.096-.254.341.341 0 00-.255-.096 8.605 8.605 0 01-2.142.055h.096a3.047 3.047 0 01-.653-.172 1.636 1.636 0 01-.302-.171 1.524 1.524 0 01-.213-.206 1.796 1.796 0 01-.144-.248 2.319 2.319 0 01-.123-.425 4.406 4.406 0 010-.852c.166-.897.433-1.773.796-2.61.35-.858.742-1.703 1.024-2.589a.364.364 0 00-.255-.44h-.089a.364.364 0 00-.343.261l-.014.021zm-1.12 5.288zm.694 1.964h.048-.048zM26.62 44.256c.942 0 1.704-1.065 1.704-2.37 0-1.305-.762-2.369-1.703-2.369-.941 0-1.703 1.058-1.703 2.37 0 1.311.762 2.369 1.703 2.369zM44.697 43.899c-.941 0-1.703-1.065-1.703-2.37 0-1.304.762-2.369 1.703-2.369.94 0 1.71 1.058 1.71 2.37 0 1.311-.77 2.369-1.71 2.369zM26.436 32.663a6.096 6.096 0 00-.79.048c-.297.051-.59.12-.879.206-1.032.3-1.96.883-2.678 1.683a.687.687 0 00-.138.522.688.688 0 00.804.604c.19-.029.362-.13.48-.281l.042-.048c.269-.264.569-.494.892-.687.37-.204.762-.366 1.168-.481a5.247 5.247 0 011.03-.151c.293.004.585.037.872.096l.213.069a.716.716 0 00.522-1.333 4.739 4.739 0 00-1.51-.247h-.028zm-1.12 1.566h-.075.075zm-1.95 1.078l-.076.076.076-.076zM44.374 32.299c.267-.001.533.015.797.048.297.052.59.12.879.206a5.797 5.797 0 012.678 1.683.688.688 0 01.13.522.686.686 0 01-.803.604.728.728 0 01-.474-.282l-.048-.048a4.544 4.544 0 00-.892-.686 5.425 5.425 0 00-1.168-.481 5.179 5.179 0 00-1.023-.151 4.641 4.641 0 00-.873.096l-.212.069a.735.735 0 01-.986-.682.687.687 0 01.464-.65 4.739 4.739 0 011.51-.248h.021zm1.12 1.566h.082-.082zm1.957 1.078l.069.076-.069-.076zM38.894 47.875v.138a.09.09 0 010 .04v.11c0 .09 0 .18-.035.269-.055.34-.145.673-.267.995a4.454 4.454 0 01-.481.797c-.176.22-.374.42-.59.597-.198.145-.41.27-.633.371a3.306 3.306 0 01-.631.172c-.24.028-.482.028-.722 0a3.307 3.307 0 01-.631-.172 3.625 3.625 0 01-.632-.37 3.724 3.724 0 01-.57-.57 4.252 4.252 0 01-.481-.818 4.953 4.953 0 01-.288-1.05v-.11a.364.364 0 00-.103-.255.384.384 0 00-.255-.103.35.35 0 00-.247.103.355.355 0 00-.11.255c.038.341.107.68.206 1.01.06.2.135.395.227.583.211.46.507.878.872 1.23a3.317 3.317 0 004.416.301c.42-.323.775-.724 1.044-1.18.205-.354.362-.733.467-1.127a5.17 5.17 0 00.158-.969.344.344 0 010-.082v-.151a.357.357 0 00-.687 0l-.027-.014zm-.289 1.593zm-4.944.756v.034-.034zm1.263 1.01h.035-.035zM15.193 105.942c0 .749-.041 1.504-.055 2.253 0 .377 0 .762-.034 1.14v.81a.337.337 0 00.103.254l.178.131.282.219.412.316.934.687 1.696 1.305 3.64 2.795a.364.364 0 00.364 0l4.169-2.891 1.95-1.374.996-.687c.098-.063.192-.131.282-.206a.388.388 0 00.11-.254v-.625c.064-2.706.13-5.414.199-8.124h-.405l-.31-.035-.206 8.626-6.97 4.808-6.724-5.117.206-8.351h-.494l-.22-.034-.103 4.381" fill="#2C2C2C"/><path d="M14.973 98.937h-.082a.364.364 0 00-.357.357v2.623a.36.36 0 00.357.351h15.837a.36.36 0 00.357-.351v-2.623a.364.364 0 00-.357-.357H14.973zm15.398 2.623H15.26v-1.888h15.11v1.888z" fill="#2C2C2C"/><path d="M39.299 0a15.7 15.7 0 00-2.596.213c-.913.149-1.804.412-2.651.783a7.308 7.308 0 00-2.109 1.373 6.07 6.07 0 00-.769.914 4.562 4.562 0 00-.33.556 3.192 3.192 0 00-.432-.488 5.02 5.02 0 00-.927-.686 6.607 6.607 0 00-2.122-.742 9.615 9.615 0 00-1.697-.144 13.81 13.81 0 00-2.891.336 13.962 13.962 0 00-4.553 1.93 12.32 12.32 0 00-3.599 3.496 8.926 8.926 0 00-1.216 2.747 8.294 8.294 0 00-.213 1.47c-.024.458-.008.918.048 1.373h-.329l-.488.069a3.141 3.141 0 00-.44.103 8.18 8.18 0 00-2.492 1.243 10.035 10.035 0 00-2.52 2.678A10.378 10.378 0 005.55 20.57a8.118 8.118 0 00-.076 3.468c.105.507.274.998.501 1.463.23.47.52.906.866 1.298a6.655 6.655 0 002.713 1.806 9.134 9.134 0 00-1.525 6.971 8.2 8.2 0 004.176 5.755 7.068 7.068 0 00-.584 1.463 5.605 5.605 0 00.15 3.53c.093.237.203.467.33.687.134.22.283.432.447.632.431.513.953.943 1.538 1.27a6.008 6.008 0 002.06.728c.314.047.631.07.948.069a7.319 7.319 0 001.072-.083c0 .323 0 .653.04.976.063.93.229 1.852.495 2.747.135.41.296.812.481 1.202.197.4.427.784.687 1.146a12.363 12.363 0 003.365 3.146 17.367 17.367 0 004.327 1.95c.529.165 1.078.31 1.634.44.03.642.004 1.285-.075 1.923a11.544 11.544 0 01-.756 2.747 10.624 10.624 0 01-1.298 2.26 9.13 9.13 0 01-1.449 1.462c-.465.353-.97.65-1.504.886-.302.124-.618.227-.927.33l-.185.062-1.415.46-1.532.467-1.174.37a42.036 42.036 0 00-5.123 1.89A19.361 19.361 0 009.1 77.096a18.908 18.908 0 00-3.64 4.43 24.95 24.95 0 00-2.32 5.165 35.71 35.71 0 00-1.313 5.57c-.316 1.977-.494 3.948-.686 6.18a149.843 149.843 0 00-.412 6.868 162.09 162.09 0 000 13.049h.72a156.78 156.78 0 01-.047-12.211c.075-2.06.192-4.237.35-6.449.082-1.085.171-2.17.275-3.248.103-1.078.185-1.923.302-2.802a34.434 34.434 0 012.252-8.77 22.237 22.237 0 012.747-4.76 17.711 17.711 0 013.139-3.152 18.306 18.306 0 012.06-1.374 23.157 23.157 0 012.335-1.147c1.621-.686 3.283-1.201 5.13-1.771l.289-.083 1.483-.46a36.8 36.8 0 001.697 5.343l.034.069a28.081 28.081 0 002.548 4.91 17.499 17.499 0 003.942 4.34c.417.318.852.61 1.305.873.44.262.9.491 1.374.687a9.36 9.36 0 002.884.645h.495a9.26 9.26 0 002.602-.398 10.465 10.465 0 002.816-1.374 15.664 15.664 0 003.791-3.715 28.437 28.437 0 004.01-7.919l.049-.158.048-.137v-.076c.158-.494.31-.975.44-1.456l.04-.13v-.192c0-.069 0-.117.042-.165l.041-.158.041-.165.055-.199.042-.179.975.31c1.847.57 3.51 1.091 5.13 1.771.802.333 1.582.716 2.335 1.147.718.41 1.407.868 2.06 1.374a17.952 17.952 0 013.139 3.152 22.235 22.235 0 012.747 4.76 34.432 34.432 0 012.253 8.77c.116.886.206 1.772.302 2.815.096 1.044.192 2.164.275 3.249.157 2.211.274 4.381.35 6.449.137 4.12.123 8.159-.048 11.984h.72c.193-4.121.2-8.413 0-12.815-.089-2.253-.226-4.554-.411-6.868-.186-2.315-.357-4.169-.687-6.181a35.706 35.706 0 00-1.312-5.57 25.287 25.287 0 00-2.321-5.164 18.33 18.33 0 00-8.296-7.431 43.318 43.318 0 00-5.124-1.896l-1.167-.357-1.525-.474-1.421-.453-.186-.062c-.309-.11-.625-.213-.927-.336a7.49 7.49 0 01-1.504-.88 9.178 9.178 0 01-1.45-1.47 10.566 10.566 0 01-1.297-2.252 11.869 11.869 0 01-.756-2.747 10.833 10.833 0 01-.054-2.156 27.88 27.88 0 004.6-1.374 15.85 15.85 0 004.307-2.459c.281-.234.55-.484.803-.748.314-.331.584-.7.804-1.099.21-.366.387-.75.529-1.147.158-.448.284-.907.377-1.373.125-.6.219-1.205.282-1.814.062-.515.11-1.037.151-1.558a.138.138 0 00.083.04c.408.073.821.11 1.236.11.322 0 .643-.025.961-.075a5.864 5.864 0 002.06-.721 5.55 5.55 0 001.539-1.278c.164-.197.313-.406.446-.624.127-.22.237-.45.33-.687a5.536 5.536 0 00.144-3.523 6.55 6.55 0 00-.686-1.656 6.414 6.414 0 002.699-1.84c.459-.489.87-1.02 1.229-1.587.373-.576.697-1.182.968-1.813.46-1.085 1.8-4.807-.515-6.984a3.742 3.742 0 00-.44-.364c.083-.03.161-.068.234-.117.246-.15.476-.326.687-.522.377-.371.682-.809.9-1.291a6.868 6.868 0 00.549-3.379 9.658 9.658 0 00-.907-3.523 6.477 6.477 0 00-2.094-2.582 4.12 4.12 0 00-.824-.44 4.075 4.075 0 00-.378-.123c.287-.461.518-.955.687-1.47a5.753 5.753 0 00.267-1.896 6.545 6.545 0 00-1.16-3.495 9.773 9.773 0 00-2.83-2.747A11.278 11.278 0 0055.15 5.5a9.251 9.251 0 00-2.025-.227c-.248 0-.495 0-.742.035a7.177 7.177 0 00-2.28.57 4.85 4.85 0 00-.371-1.023A5.907 5.907 0 0048.9 3.64a6.77 6.77 0 00-1.133-1.058 10.72 10.72 0 00-1.374-.872 13.942 13.942 0 00-3.29-1.23 17.546 17.546 0 00-3.646-.473h-.35L39.298 0zm.872 27.636a8.04 8.04 0 002.527-.398 6.27 6.27 0 002.94-2.026 6.13 6.13 0 00.728-1.161c.084-.172.157-.348.22-.529.147.248.322.478.521.687.467.528 1.02.974 1.635 1.319.571.33 1.2.547 1.854.638h.426c.304.001.607-.04.9-.123a8.192 8.192 0 00-.31 3.248c.036.308.091.613.166.913.09.331.204.655.343.969.233.522.543 1.006.92 1.435a6.868 6.868 0 00-1.305 3.544c-.014.33.005.662.055.989.056.345.16.68.31.996.29.58.75 1.058 1.318 1.373v3.922a90.6 90.6 0 01-.103 4.354c-.041.748-.096 1.49-.158 2.239-.055.563-.11 1.12-.186 1.682-.12.963-.362 1.907-.72 2.81a6.307 6.307 0 01-.687 1.194 8.113 8.113 0 01-1.374 1.333 15.665 15.665 0 01-3.386 1.916 29.314 29.314 0 01-7.266 1.923 30.23 30.23 0 01-3.949.254 30.99 30.99 0 01-3.99-.261 22.811 22.811 0 01-5.542-1.45 15.521 15.521 0 01-3.276-1.854l-.055-.04a11.913 11.913 0 01-2.02-2.013c-.178-.234-.35-.467-.507-.687-.2-.317-.375-.65-.522-.996v-.061a9.726 9.726 0 01-.625-2.473 27.505 27.505 0 01-.103-4.333V46.7c0-.611.04-1.216.048-1.82 0-.914 0-1.827.055-2.747.055-.92.075-1.649.123-2.473.197-.125.385-.262.563-.412.257-.23.487-.488.687-.769a4.347 4.347 0 00.77-1.902 6.19 6.19 0 00.068-1.106 3.526 3.526 0 00-.165-.913c-.068-.227-.15-.447-.233-.687l-.11-.316a4.647 4.647 0 01-.24-.831 1.712 1.712 0 010-.192.83.83 0 01.123-.213c.179-.227.378-.44.577-.653.243-.238.473-.49.687-.755.084-.125.155-.259.213-.399.086-.183.162-.37.226-.563.14-.394.242-.801.303-1.215a6.867 6.867 0 00-.22-3.139l.178.137c.508.341 1.054.62 1.628.831.949.344 1.95.518 2.96.516.254 0 .515 0 .776-.035a6.991 6.991 0 003.434-1.209 5.18 5.18 0 001.243-1.263c.177-.255.33-.526.453-.81.097.122.187.25.268.384.202.296.432.572.687.824.439.467.932.88 1.47 1.23a8.778 8.778 0 003.557 1.304c.38.055.763.082 1.147.083l-.055.048zM15.31 39.263c.245-.098.5-.167.762-.206a1.89 1.89 0 01.282 0c.107-.007.215-.007.322 0 .204.04.404.097.598.172.198.093.387.206.563.336.229.184.44.389.632.611 0 .474-.055.914-.076 1.374v.192a3.045 3.045 0 00-.364-.364 3.834 3.834 0 00-1.167-.639 2.94 2.94 0 00-.9-.137 2.725 2.725 0 00-.412 0 3.07 3.07 0 00-1.373.57.371.371 0 00-.177.357.364.364 0 00.046.138.392.392 0 00.33.185c.061 0 .121-.02.171-.055.179-.134.373-.247.577-.336.173-.07.352-.118.536-.145.094-.006.188-.006.282 0h.322c.216.042.427.102.632.179.212.1.415.22.605.357.206.166.394.352.563.556.086.117.166.239.24.364.015.03.036.056.062.076V44.936c0 .59 0 1.181-.041 1.772 0 .72-.048 1.435-.048 2.15l-.234.034h-.069c-.185 0-.44.034-.686.034-.23 0-.46-.015-.687-.041-.47-.07-.93-.192-1.374-.364a5.083 5.083 0 01-2.06-1.525 5.094 5.094 0 01-.529-.913 4.805 4.805 0 01-.295-1.092 5.728 5.728 0 010-1.374c.08-.514.22-1.016.419-1.497a7.12 7.12 0 01.824-1.415 6.281 6.281 0 011.003-1.002l-.076.048c.264-.186.542-.352.831-.495h.048l-.082.007zm39.427.37c.18-.133.374-.248.577-.343.19-.076.389-.132.591-.164.108-.008.215-.008.323 0h.281c.267.037.528.108.776.213.302.138.587.308.852.508l-.055-.062c.356.292.681.622.968.982.34.445.623.93.845 1.442.2.48.343.983.426 1.497.048.439.048.88 0 1.319-.054.394-.158.78-.31 1.147-.139.315-.312.614-.514.893-.255.314-.542.6-.859.851-.375.27-.778.5-1.201.687a6.342 6.342 0 01-1.374.364h-.687c-.25 0-.5-.014-.748-.041h-.378a.234.234 0 00-.124 0c.103-1.374.158-2.87.179-4.69v-1.43l.233-.343c.168-.202.354-.388.557-.556.193-.135.397-.252.61-.35.203-.082.412-.145.626-.186h.611c.183.03.362.079.536.145.204.09.397.203.577.336.05.037.11.056.171.055a.379.379 0 00.323-.185.398.398 0 00.041-.282.385.385 0 00-.171-.213 3.01 3.01 0 00-1.374-.57 2.61 2.61 0 00-.405 0 2.75 2.75 0 00-.9.144 3.62 3.62 0 00-1.167.639c-.098.075-.19.158-.275.247v-1.559c.133-.144.276-.279.426-.405h.034l-.02-.09zM35.57 61.9c.494 0 .989 0 1.483-.034a30.362 30.362 0 004.272-.509c-.048.764-.013 1.531.103 2.288.227 1.53.762 3 1.573 4.32a9.307 9.307 0 001.373 1.771c.52.522 1.11.97 1.751 1.332.268.14.543.267.825.378a.247.247 0 00-.09.145l-.041.157v.316c-.017.05-.03.1-.041.151l-.041.151a.573.573 0 000 .104v.151c-.103.343-.2.686-.31 1.016l-.034.103v.069l-.09.281v.069c-.157.474-.329.934-.514 1.374l-.158.391V75.999a21.005 21.005 0 01-2.713 4.443 12.885 12.885 0 01-2.211 2.266c-.606.476-1.27.87-1.978 1.175a7.784 7.784 0 01-1.758.48c-.274.03-.55.047-.824.049a7.901 7.901 0 01-.804-.049h-.082a8.463 8.463 0 01-1.738-.5h-.076a10.796 10.796 0 01-1.854-1.127 13.732 13.732 0 01-2.19-2.225l-.049-.062a21.238 21.238 0 01-2.582-4.533v-.069a31.877 31.877 0 01-1.573-5.027 7.669 7.669 0 001.697-1.284 9.524 9.524 0 001.373-1.772 11.42 11.42 0 001.003-2.06c.269-.729.46-1.484.57-2.253a11.68 11.68 0 00.123-2.06c.75.151 1.539.275 2.404.37 1.068.112 2.14.167 3.214.165l-.013-.027zM24.375 77.6l-.144-.344a38.89 38.89 0 01-1.724-5.425l.254-.076.172-.055c.522-.165 1.05-.343 1.559-.556a30.037 30.037 0 001.373 4.45 22.106 22.106 0 002.624 4.904 12.005 12.005 0 004.368 3.867c.431.204.88.371 1.339.5.449.128.909.211 1.374.248h.549a7.417 7.417 0 002.335-.398 8.844 8.844 0 002.665-1.47c.86-.678 1.63-1.463 2.294-2.335a21.053 21.053 0 002.857-5.123c.199-.495.364-.955.521-1.415l.062-.165.035-.13.04-.11c.145-.454.262-.838.372-1.23v-.226l.055-.206v-.186l.055-.233.034-.124a.35.35 0 000-.11c.233.09.474.165.721.248l.165.055c.343.11.687.226 1.044.33l-.076.301V72.997c0 .083-.034.117-.041.158l-.103.378c-.144.495-.288.968-.44 1.435l-.04.124-.097.295a36.509 36.509 0 01-.852 2.253 26.73 26.73 0 01-3.021 5.384l-.165.213a16.296 16.296 0 01-2.802 2.857 11.861 11.861 0 01-2.37 1.374h-.034c-.71.269-1.447.462-2.198.577-.348.04-.7.061-1.05.061a9.955 9.955 0 01-1.01-.054h-.09a10.13 10.13 0 01-2.183-.619 11.531 11.531 0 01-2.349-1.373h-.034a17.47 17.47 0 01-2.802-2.878 25.898 25.898 0 01-3.242-5.686v.103z" fill="#2C2C2C"/><path d="M95.725 75.73a1.81 1.81 0 00-.193.117c-.13.104-.275.186-.412.282-.137.096-.233.158-.336.247-.103.09-.172.165-.255.248a.357.357 0 00.502.5l.288-.274c.213-.144.426-.275.625-.426a.684.684 0 01.151-.096.355.355 0 10-.178-.687.405.405 0 00-.179.048" fill="#44A8A3"/><path d="M129.603 76.548l-.241.213c-.439.33-.892.625-1.373.92l-.543.357-.618.261c-.329.13-.686.275-.975.412l-.364.151-.797.316a4.19 4.19 0 01-.412.158l-.728.275-1.119.385-1.044.35c-.481.158-.955.309-1.442.446l-.344.076-.686.041-.879.082c-.584.062-1.161.145-1.738.22-.577.076-1.202.144-1.799.227a.364.364 0 00-.254.103.366.366 0 00-.103.254c.003.092.039.18.103.247l.048.041h-.042a.332.332 0 00-.212.158.37.37 0 00-.035.282.386.386 0 00.165.213.378.378 0 00.275.034H114.652h-.069l.584-.069a.13.13 0 000 .049.255.255 0 000 .103c-.275 0-.55.04-.817.048-.268.007-.687 0-1.072 0-.384 0-.742 0-1.112-.048l-1.051-.062a63.78 63.78 0 01-2.15-.22l-1.772-.192a25.086 25.086 0 01-2.149-.378 29.724 29.724 0 01-1.003-.268 9.347 9.347 0 01-1.064-.391h-.042l-.734-.31.082.035c-.302-.137-.604-.275-.9-.426-.295-.15-.611-.357-.927-.529-.584-.322-1.202-.59-1.758-.954a18.667 18.667 0 01-.77-.515c-.253-.179-.555-.406-.85-.591a8.981 8.981 0 01-.777-.529l-.783-.59c-.137-.11-.281-.227-.426-.33a.323.323 0 00-.274-.034.335.335 0 00-.213.164.352.352 0 00-.035.275.385.385 0 00.165.213l.165.124-.069-.055.838.638c.267.213.544.413.831.598.296.192.59.385.873.59.281.207.556.399.844.584.289.186.577.35.873.502.295.15.645.322.961.501l.948.536c.329.178.686.336 1.016.48l.309.124c.33.144.687.295 1.003.419.316.124.604.192.906.281.612.165 1.23.289 1.848.399.618.11 1.373.192 2.026.268.316.034.632.062.941.103l1.078.117c.687.082 1.415.116 2.122.157.371 0 .749.035 1.126.042.378.006.687 0 1.079 0 .391 0 .686-.042 1.05-.076l1.058-.117c.364-.048.721-.075 1.085-.13l.948-.158c.529-.096 1.064-.192 1.593-.302l.385-.076c.196-.031.391-.072.584-.123.185-.042.37-.083.549-.138a7.37 7.37 0 00.604-.227l.206-.061c.303-.103.598-.2.893-.316l.92-.357c.323-.138.639-.289.948-.447l.92-.453a20.76 20.76 0 002.445-1.34c.241-.15.371-.274.564-.39l.686-.433c.158-.11.323-.227.495-.337a4.2 4.2 0 00.46-.316.79.79 0 00.192-.281.623.623 0 00-.082-.55 1.53 1.53 0 00-.529-.474.813.813 0 00-.378-.165.687.687 0 00-.426.213l-.02-.027zm-27.258 5.267h.034-.034zm4.807.53h.069-.069z" fill="#58AF9B"/><path d="M95.484 76.109a.35.35 0 00-.048.432.29.29 0 000 .076c0 .075 0 .15-.034.22v.047a.364.364 0 000 .488c.08.077.168.146.26.206l.145.11.261.192.632.488c.405.302.81.604 1.222.886.2.144.392.281.598.412l.432.275.289.178.687.378c.269.153.549.287.838.398a.348.348 0 00.274-.04h.035l.219.095.687.31c.371.164.756.295 1.14.439.385.144.735.247 1.099.364.364.117.687.213 1.023.316.337.103.776.206 1.168.295l.412.082c.227.042.453.09.687.117l.604.076.577.04h.233c.454.11.928.173 1.374.241l.433.069.776.075c.391.042.776.056 1.167.07h1.003c.192 0 .508 0 .769-.063.235-.02.465-.071.687-.15a.682.682 0 00.206-.09.288.288 0 00.082-.076h.577a.366.366 0 00.357-.357.346.346 0 00-.11-.254.397.397 0 00-.247-.103h-.742l-.061-.034h.116c.193 0 .392-.041.577-.082a.263.263 0 00.117-.055h.076c.158 0 .309 0 .467-.035l.48-.041 1.374-.165a.398.398 0 00.247-.103.346.346 0 00.11-.254.349.349 0 00-.11-.247.326.326 0 00-.247-.11l-1.374.165-.48.041c-.165 0-.337.034-.509.034h-.322a.35.35 0 00-.344-.281c-1.044.048-2.06.089-3.125.11h-1.167l-.687-.035h-.996a.413.413 0 00-.165-.103l-.185-.062a1.896 1.896 0 00-.336-.054l-.303-.042-.474-.055-.947-.116c-.577-.096-1.161-.179-1.731-.289l-.591-.117-.94-.274a.444.444 0 000-.09.375.375 0 00-.172-.309 3.389 3.389 0 00-.687-.295l-.433-.151-.92-.275-.879-.281-.137-.041-.33-.124-.151-.124a4.264 4.264 0 00-.474-.302l-.577-.316c-.336-.178-.687-.343-1.023-.522-.337-.178-.749-.391-1.106-.611-.158-.096-.323-.192-.474-.295a7.956 7.956 0 00-.474-.302.364.364 0 00-.433.055l.028-.055zm.481.054l.055.042a.123.123 0 00-.048-.035l-.007-.007zM96.487 88.045a.357.357 0 00-.124.487l2.122 2.98a.39.39 0 00.213.166.384.384 0 00.275-.042.357.357 0 00.13-.487l-2.129-2.974a.391.391 0 00-.213-.165h-.089a.412.412 0 00-.185.048M107.64 87.873a.405.405 0 00-.206.165l-2.191 3.063a.357.357 0 00.124.488.383.383 0 00.274.04.392.392 0 00.213-.164l2.191-3.07a.365.365 0 00-.124-.487.462.462 0 00-.185-.049h-.096M114.686 87.935a.364.364 0 00-.13.487l2.266 3.173a.392.392 0 00.213.165c.093.021.191.006.275-.041a.36.36 0 00.123-.488c-.748-1.057-1.504-2.108-2.259-3.166a.368.368 0 00-.213-.165h-.096a.331.331 0 00-.179.048M125.585 87.935a.403.403 0 00-.22.165l-2.06 2.918a.37.37 0 00.131.495.348.348 0 00.274 0 .356.356 0 00.213-.158l2.061-2.926a.355.355 0 00-.124-.488.332.332 0 00-.179-.047h-.096M131.306 87.894a.359.359 0 00-.13.487 916.29 916.29 0 012.06 2.92.364.364 0 00.354.175.352.352 0 00.257-.533l-2.06-2.919a.412.412 0 00-.22-.165h-.089a.384.384 0 00-.179.049M90.992 88.457a.364.364 0 00-.213.165l-.04.047-2.253 3.153a.364.364 0 00.123.487.356.356 0 00.488-.13l2.3-3.207a.357.357 0 00-.123-.488.405.405 0 00-.179-.048H91" fill="#58AF9B"/><path d="M91.17 88.161a.364.364 0 00-.212.165l-.9 1.257a.357.357 0 00.405.522.384.384 0 00.213-.158l.9-1.264a.351.351 0 00-.13-.487.405.405 0 00-.18-.048h-.095M101.83 96.437a.356.356 0 00-.131.488l2.342 3.275a.389.389 0 00.213.165.383.383 0 00.275-.041.356.356 0 00.13-.487 556.849 556.849 0 01-2.342-3.276.388.388 0 00-.213-.165h-.089a.342.342 0 00-.185.048M112.111 95.901a.392.392 0 00-.213.165l-2.198 3.077a.362.362 0 00.131.488.347.347 0 00.274.034.388.388 0 00.213-.165c.728-1.023 1.463-2.06 2.191-3.077a.358.358 0 00-.124-.487.434.434 0 00-.185-.048h-.089M118.621 96.087a.351.351 0 00-.13.487l2.397 3.359a.358.358 0 00.213.158.348.348 0 00.274-.035.356.356 0 00.131-.487l-2.397-3.331a.37.37 0 00-.22-.158.219.219 0 00-.096 0 .297.297 0 00-.172.048M130.386 96.842a.392.392 0 00-.213.165l-2.06 2.843a.356.356 0 00.123.488.387.387 0 00.275.041.389.389 0 00.213-.165l2.06-2.843a.352.352 0 00-.018-.4.37.37 0 00-.106-.095.435.435 0 00-.185-.048h-.089M85.883 98.669a.35.35 0 00-.124.487l2.617 3.668c.05.078.124.137.213.165a.338.338 0 00.141.007.336.336 0 00.133-.049.356.356 0 00.13-.487L86.37 98.8a.337.337 0 00-.213-.165.232.232 0 00-.096 0 .33.33 0 00-.178.048M96.486 97.872a.34.34 0 00-.213.165c-.83 1.154-1.655 2.315-2.486 3.475a.365.365 0 00.124.488.354.354 0 00.275.034.337.337 0 00.213-.165c.83-1.153 1.655-2.314 2.486-3.475a.357.357 0 00-.124-.487.33.33 0 00-.178-.048h-.097M136.107 97.165a.36.36 0 00-.167.217.36.36 0 00.036.27l2.06 2.885a.36.36 0 00.213.166.357.357 0 00.268-.035.358.358 0 00.131-.488l-2.061-2.884a.328.328 0 00-.213-.165.235.235 0 00-.096 0 .326.326 0 00-.178.048M97.208 105.228a.355.355 0 00-.13.487l2.493 3.489c.05.075.122.133.206.165a.4.4 0 00.281-.041.357.357 0 00.124-.488c-.824-1.16-1.662-2.321-2.486-3.489a.422.422 0 00-.213-.164h-.096a.321.321 0 00-.179.048M107.914 105.626a.387.387 0 00-.212.165l-2.026 2.809a.362.362 0 00.123.487.37.37 0 00.282.035.381.381 0 00.213-.165l2.06-2.836a.364.364 0 00-.131-.488.398.398 0 00-.178-.048h-.096M113.656 105.942a.356.356 0 00-.13.488c.735 1.023 1.456 2.06 2.184 3.063a.401.401 0 00.22.165.338.338 0 00.267-.042.325.325 0 00.106-.089.335.335 0 00.072-.261.35.35 0 00-.047-.13l-2.184-3.063a.359.359 0 00-.213-.165h-.096a.399.399 0 00-.179.048M124.898 105.571a.42.42 0 00-.213.165l-2.101 2.96a.357.357 0 00.123.488.372.372 0 00.282 0 .375.375 0 00.206-.165c.687-.982 1.408-1.971 2.115-2.96a.357.357 0 00-.309-.536h-.096M130.653 106.189a.362.362 0 00-.166.217.362.362 0 00.036.271c.591.824 1.181 1.641 1.765 2.465.047.08.123.139.213.165a.345.345 0 00.22 0v-.371-.371c-.529-.748-1.065-1.49-1.601-2.238a.333.333 0 00-.213-.165h-.089a.427.427 0 00-.185.048M141.395 106.169a.34.34 0 00-.213.165l-2.253 3.152a.36.36 0 00-.047.132.362.362 0 00.071.265.343.343 0 00.107.09.34.34 0 00.268.035.378.378 0 00.219-.165l2.246-3.152a.346.346 0 00.042-.27.352.352 0 00-.344-.266h-.096M83.376 108.263v.962l1.044 1.449a.338.338 0 00.213.165.348.348 0 00.38-.123.35.35 0 00.018-.399l-1.593-2.232a1.943 1.943 0 000 .199M92.847 107.35a.39.39 0 00-.213.165l-2.06 2.912a.364.364 0 00.13.487.354.354 0 00.488-.13l2.06-2.905a.358.358 0 00-.13-.488.353.353 0 00-.179-.055h-.096M101.734 82.949a.392.392 0 00-.213.165l-1.813 2.54a.357.357 0 00.257.534.352.352 0 00.141-.011.383.383 0 00.213-.158l1.813-2.548a.335.335 0 00.041-.267.348.348 0 00-.165-.214.359.359 0 00-.185-.055h-.089M91.446 82.956a.357.357 0 00-.13.487c.686.92 1.325 1.848 1.991 2.782a.364.364 0 00.488.123.357.357 0 00.13-.487l-1.992-2.782a.364.364 0 00-.212-.164h-.097a.33.33 0 00-.178.048M107.53 83.752a.356.356 0 00-.131.488l1.587 2.218c.05.078.125.136.213.165a.35.35 0 00.274-.034.36.36 0 00.167-.217.36.36 0 00-.036-.27l-1.587-2.226a.414.414 0 00-.212-.165h-.097a.331.331 0 00-.178.048M116.183 83.313a.39.39 0 00-.212.165l-1.498 2.094-.274.392a.356.356 0 00.13.487.331.331 0 00.268.035.41.41 0 00.22-.165l.268-.378.597-.838.893-1.257a.349.349 0 00.038-.266.354.354 0 00-.162-.214.342.342 0 00-.178-.055h-.096" fill="#58AF9B"/><path d="M107.145 83.19a.359.359 0 00-.123.487l1.559 2.19c.053.078.13.135.219.165a.352.352 0 00.275-.034.355.355 0 00.124-.488l-1.559-2.19a.399.399 0 00-.22-.165h-.089a.443.443 0 00-.186.048M120.998 83.052a.355.355 0 00-.169.216.365.365 0 00-.009.14.365.365 0 00.047.131l1.621 2.273a.391.391 0 00.213.165c.093.02.19.009.275-.034a.359.359 0 00.13-.488c-.542-.762-1.085-1.517-1.621-2.28a.447.447 0 00-.219-.165h-.055a.332.332 0 00-.179.048M130.784 81.3a.364.364 0 00-.213.165l-2.699 3.784a.372.372 0 00.131.495.376.376 0 00.274.034.391.391 0 00.213-.165l2.692-3.777a.357.357 0 00-.123-.487.345.345 0 00-.186-.049h-.089zM138.38 88.766c0 .034-.062.075-.096.116l-.2.234-.034.041c-.09.126-.173.256-.247.392-.151.233-.302.473-.44.72a.356.356 0 00.131.488.347.347 0 00.39-.026.333.333 0 00.09-.104c.138-.234.282-.46.426-.687.069-.123.151-.247.227-.364.069-.082.144-.165.213-.254l-.035.048.062-.076a.36.36 0 00.1-.25.36.36 0 00-.1-.25.37.37 0 00-.395-.079.33.33 0 00-.113.078M134.163 81.816a.357.357 0 000 .501c.117.124.226.247.343.364l.378.35c.22.22.467.406.687.612.219.206.35.316.535.46.184.14.354.296.509.467a.351.351 0 00.254.106.353.353 0 00.254-.106.368.368 0 00.103-.247.387.387 0 00-.103-.255 3.055 3.055 0 00-.488-.453 11.257 11.257 0 01-.542-.46c-.179-.158-.474-.385-.687-.597l-.378-.358c-.13-.123-.247-.254-.371-.384a.318.318 0 00-.24-.103.37.37 0 00-.261.103M133.621 107.226a.35.35 0 00-.11.247.388.388 0 00.11.255c.116.15.24.294.37.432.103.11.213.213.31.33.096.117.343.412.521.604.179.193.316.316.474.488.158.172.364.412.564.597a.355.355 0 00.496-.004.358.358 0 00.012-.497c-.199-.185-.371-.391-.55-.584-.178-.192-.322-.323-.48-.487-.158-.165-.344-.406-.516-.605-.171-.199-.206-.219-.309-.323a7.69 7.69 0 01-.391-.453.318.318 0 00-.254-.103.346.346 0 00-.247.103zM92.689 95.6c.19 7.608-.136 15.222-.976 22.787h.687c.84-7.565 1.166-15.179.975-22.788a.357.357 0 10-.714 0M131.862 95.6a167.27 167.27 0 00.976 22.787h.686a168.404 168.404 0 01-.968-22.788.364.364 0 00-.357-.357.358.358 0 00-.357.357" fill="#58AF9B"/><path d="M112.399 39.428a.348.348 0 00-.103.247c-.045.253-.119.5-.22.735a18.808 18.808 0 01-.975 1.84c-.165.296-.316.591-.453.9-.141.294-.25.603-.323.92a2.042 2.042 0 000 .825c.054.277.194.532.398.727.114.116.244.215.385.296.167.09.342.165.522.226.243.082.494.14.748.172h.357c.157-.005.313-.021.467-.048a.342.342 0 00.213-.165.354.354 0 00-.13-.487.42.42 0 00-.275-.035h-.041a3.566 3.566 0 01-.543 0 4.772 4.772 0 01-.741-.206 2.03 2.03 0 01-.357-.199l-.172-.172a1.76 1.76 0 01-.089-.15 1.438 1.438 0 01-.055-.193 2.484 2.484 0 010-.323c.045-.257.118-.508.219-.748.303-.687.687-1.333 1.065-1.992.174-.317.332-.642.474-.975.055-.151.11-.296.158-.453.046-.17.078-.342.096-.516a.328.328 0 00-.103-.254.346.346 0 00-.254-.103.34.34 0 00-.247.103l-.021.028zm-.694 5.961h.041-.041zM110.16 47.621h-.061a2.06 2.06 0 00-1.058.364 1.934 1.934 0 00-.687.804 2.655 2.655 0 000 2.012 3.093 3.093 0 00.495.858c.218.266.475.497.762.687.266.18.549.334.845.46a6.556 6.556 0 003.214.446 5.722 5.722 0 002.026-.583c.286-.148.554-.33.796-.543.272-.228.504-.5.687-.803.158-.244.278-.51.357-.79a2.24 2.24 0 00.083-.865 2.118 2.118 0 00-.797-1.456 2.748 2.748 0 00-1.655-.564h-.199a4.075 4.075 0 00-1.463.502l-.515.24-.179.069h-.089a2.897 2.897 0 01-.597-.172l-.461-.213-.48-.226a2.748 2.748 0 00-1.058-.24l.034.013zm2.809 4.938a6.967 6.967 0 01-.844-.055 6.494 6.494 0 01-1.319-.343l-.213-.103a3.77 3.77 0 01.412-.399c.213-.157.443-.288.687-.391.238-.087.484-.152.735-.193h.439c.161.002.322.013.481.035.256.039.507.106.749.199.216.097.423.214.618.35.172.138.329.295.467.467l-.11.069c-.421.17-.862.288-1.312.35-.262.033-.526.05-.79.048M104.041 44.14c.941 0 1.703-1.059 1.703-2.37 0-1.312-.762-2.37-1.703-2.37-.941 0-1.703 1.065-1.703 2.37 0 1.305.762 2.37 1.703 2.37zM122.117 43.782c-.941 0-1.703-1.058-1.703-2.37 0-1.311.762-2.369 1.703-2.369.941 0 1.703 1.065 1.703 2.37 0 1.305-.762 2.369-1.703 2.369zM122.996 32.752c.442.063.874.186 1.284.364.387.18.747.411 1.072.687a4.403 4.403 0 01.899.941.337.337 0 01.035.268.357.357 0 01-.165.22.365.365 0 01-.268 0 .412.412 0 01-.22-.165l-.034-.048a4.548 4.548 0 00-.687-.687 4.983 4.983 0 00-1.009-.59 4.633 4.633 0 00-.948-.262 3.429 3.429 0 00-.687 0l-.254.042a.35.35 0 01-.433-.255.36.36 0 01.038-.268.36.36 0 01.216-.164 3.67 3.67 0 01.77-.083h.425" fill="#2C2C2C"/><path d="M111.657 11.016a31.397 31.397 0 00-5.631.495c-1.168.21-2.316.515-3.434.913a22.995 22.995 0 00-4.808 2.417 27.308 27.308 0 00-4.264 3.476 29.257 29.257 0 00-3.53 4.278 26.031 26.031 0 00-2.562 4.808 24.08 24.08 0 00-1.511 5.782c-.556 4.073-.247 8.241.062 12.238l.075 1.051c.172 2.26.289 4.162.296 6.113a51.244 51.244 0 01-.227 6.407 10.32 10.32 0 01-.213 1.017l-.082.357a6.866 6.866 0 00-.206 1.559c.007.218.042.435.103.645.068.222.188.424.35.59.302.312.703.508 1.133.557h.268a3.103 3.103 0 001.003-.192c.45-.17.876-.401 1.263-.687a7.37 7.37 0 001.079-.934l.199-.213v.845c0 .192 0 .543.034.81v.268c0 .625.069 1.374.151 2.102.074.747.21 1.486.405 2.211.178.685.466 1.337.852 1.93a3.805 3.805 0 001.518 1.332c.358.168.74.277 1.133.323h.33c.316-.004.63-.039.94-.103.41-.085.811-.212 1.196-.378.425-.171.84-.368 1.243-.59.398-.213.79-.44 1.181-.687.391-.247.687-.391.996-.577a23.53 23.53 0 012.06-.982l.055-.048a42.343 42.343 0 014.409-1.477c-.055.071-.103.147-.144.227l-.062.117c-.138.24-.294.47-.467.686a9.447 9.447 0 01-1.566 1.518 28.49 28.49 0 01-4.004 2.363l-.604.316c-.838.432-1.6.858-2.315 1.305-.714.446-1.497.982-2.204 1.51a28.918 28.918 0 00-3.874 3.496 27.76 27.76 0 00-5.494 8.818 41.385 41.385 0 00-1.696 5.598 74.042 74.042 0 00-1.854 12.698 82.707 82.707 0 00-.117 6.827c0 1.037.082 2.142.158 3.289.041.543.082 1.085.13 1.621s.09.879.145 1.312h.727c-.089-.79-.15-1.58-.212-2.321-.062-.742-.103-1.505-.145-2.26a72.12 72.12 0 01-.075-4.732c.041-3.122.27-6.239.687-9.333a70.928 70.928 0 011.284-6.916 40.48 40.48 0 011.91-6.133 28.588 28.588 0 013.625-6.18 27.06 27.06 0 012.947-3.215 23.686 23.686 0 004.292 3.118 27.606 27.606 0 005.419 2.335c1.859.57 3.767.965 5.7 1.181 1.161.126 2.328.19 3.495.193.687 0 1.45 0 2.191-.076a30.028 30.028 0 009.334-2.122l.082-.034.33-.13a27.143 27.143 0 004.374-2.357l.069-.048.062-.04.275-.193.109-.076c.337-.24.625-.453.907-.687l.062-.047.103-.076.069-.062.068-.055.062-.062.062-.04.062-.049.061-.048a.28.28 0 00.076-.11c.842.852 1.636 1.75 2.376 2.692a28.092 28.092 0 013.606 6.181 40.862 40.862 0 011.93 6.181c.528 2.212.961 4.54 1.284 6.916.417 3.094.646 6.211.687 9.333 0 1.587 0 3.18-.083 4.732a79.91 79.91 0 01-.137 2.26 42.946 42.946 0 01-.227 2.307h.728c.076-.446.117-.886.151-1.325.035-.44.096-1.078.131-1.621.082-1.147.13-2.253.165-3.29.055-2.335 0-4.635-.117-6.826a74.758 74.758 0 00-1.854-12.699c-.433-1.903-1-3.773-1.697-5.597a28.083 28.083 0 00-5.494-8.818 28.951 28.951 0 00-3.873-3.496 27.176 27.176 0 00-2.205-1.51 32.176 32.176 0 00-2.314-1.306l-.605-.316a27.859 27.859 0 01-4.004-2.362 9.404 9.404 0 01-1.559-1.51 6.123 6.123 0 01-.473-.688 7.948 7.948 0 01-.323-.645 9.748 9.748 0 01-.57-2.116 32.696 32.696 0 003.66-1.284c.914-.388 1.804-.83 2.665-1.325a20.02 20.02 0 002.232-1.511 25.862 25.862 0 006.813-8.303c.481-.916.927-1.848 1.339-2.795l.206-.09a4.928 4.928 0 002.198-2.005 6.13 6.13 0 00.817-2.795 5.773 5.773 0 00-.515-2.747 4.703 4.703 0 00-.275-.481 39.325 39.325 0 00.811-6.456c.062-1.422 0-2.847-.186-4.258a14.058 14.058 0 00-1.051-3.832 8.989 8.989 0 00-1.545-2.266 7.342 7.342 0 00-2.198-1.655 11.264 11.264 0 00-1.291-3.304 11.958 11.958 0 00-2.294-2.809 18.5 18.5 0 00-6.661-3.75 30.904 30.904 0 00-8.036-1.504 32.22 32.22 0 00-2.115-.068l-.007-.02zm12.939 19.937a5.915 5.915 0 002.425-.598 7.58 7.58 0 001.559-1.016 10.696 10.696 0 001.723-1.833c-.068.686-.144 1.456-.219 2.177-.227 2.115-.454 4.271.109 6.373a3.93 3.93 0 00.735 1.497c.181.212.42.368.687.447-.041.467-.075.954-.124 1.428v.076c-.034.316-.075.631-.116.947a30.57 30.57 0 01-1.717 6.682l-.062.145v.103l-.055.117-.096.24v.075a24.533 24.533 0 01-.845 1.8l-.089.178-.035.062-.061.117-.042.09-.054.082-.062.116-.035.062-.075.13-.103.18-.062.116-.041.069-.062.103-.034.068-.042.083-.068.09-.062.109-.041.062-.069.11-.034.068-.069.11-.041.055-.076.11-.055.09-.048.089-.055.075-.061.096-.069.103-.083.11-.048.069-.068.103-.048.069-.062.096-.062.075-.062.09-.055.075-.068.09-.055.075-.062.09-.062.075-.069.09-.048.068a21.463 21.463 0 01-3.667 3.695 18.629 18.629 0 01-3.729 2.204l-.062.034a16.628 16.628 0 01-3.482.99l-.302.047c-.683.092-1.372.138-2.061.138-.432 0-.858 0-1.27-.055h-.295l-.364-.055h-.09a17.79 17.79 0 01-1.957-.419h-.096l-.11-.041c-.405-.117-.81-.254-1.222-.412l-.097-.041h-.075l-.186-.076c-.685-.293-1.35-.63-1.991-1.01l-.103-.061-.09-.055-.137-.083-.103-.061-.117-.07-.068-.054-.103-.062-.124-.082c-.35-.234-.687-.467-.989-.687a21.491 21.491 0 01-3.379-3.331l-.144-.179-.138-.178c-.51-.66-.985-1.348-1.421-2.06a24.72 24.72 0 01.687-5.42 23.016 23.016 0 012.122-5.383v-.076a26.293 26.293 0 014.066-5.343l-.09.048 1.236-1.147c-.104.32-.155.653-.151.989.019.16.054.32.103.474a1.9 1.9 0 00.22.453c.087.148.199.28.33.392.167.148.355.273.556.37.277.145.577.243.886.289.206.037.415.056.625.055h.357a7.906 7.906 0 002.06-.467 16.17 16.17 0 002.178-.941 31.85 31.85 0 002.025-1.133c.543-.33 1.086-.687 1.621-1.01a44.672 44.672 0 002.383-1.62 36.562 36.562 0 003.05-2.48.675.675 0 000 .316c.04.167.115.324.219.46.119.158.266.293.433.399.152.087.313.156.481.206.206.057.418.094.632.11h.309l.027-.035zm7.184 11.311c.117-.604.213-1.215.302-1.875.269-.089.544-.155.824-.199.149-.01.298-.01.447 0 .116-.006.233-.006.35 0 .235.03.465.088.687.172.182.09.357.196.522.316.176.139.335.297.473.474.198.249.36.524.481.817.159.4.268.817.323 1.243.047.457.047.917 0 1.374a6.477 6.477 0 01-.378 1.414 5.532 5.532 0 01-.604 1.051 4.95 4.95 0 01-.776.783 4.566 4.566 0 01-.886.515 4.85 4.85 0 01-1.181.33H131.567c-.23-.001-.459-.015-.687-.041a4.59 4.59 0 01-.851-.227l-.117-.055c.261-.563.515-1.202.755-1.875.398-1.124.729-2.27.989-3.434h.062a.296.296 0 00.165-.04l.144-.063c.222-.091.452-.16.687-.206.126-.007.252-.007.378 0h.295c.208.034.413.086.611.158.192.09.376.195.55.316l.061.048a.352.352 0 00.254.11.377.377 0 00.261-.103.394.394 0 00.11-.295.342.342 0 00-.11-.234 3.004 3.004 0 00-.892-.542 3.139 3.139 0 00-.914-.206h-.24c-.231 0-.461.026-.687.075a3.681 3.681 0 00-.591.179l-.02.02zm-30.198 36.283h-.068a26.619 26.619 0 01-2.555-1.257 26.221 26.221 0 01-2.596-1.683l-.076-.048a33.403 33.403 0 014.471-2.836l.996-.522a28.822 28.822 0 003.667-2.136 9.951 9.951 0 001.917-1.765 6.856 6.856 0 001.146-2.074c.274-.803.451-1.635.529-2.48a16.9 16.9 0 00.069-2.623v-.302c1.217.321 2.47.483 3.729.48a16.017 16.017 0 002.15-.15l.432-.069.783-.144v.185a16.9 16.9 0 00.069 2.624c.083.843.26 1.675.529 2.479.134.386.3.76.494 1.12.188.337.407.656.653.954a9.945 9.945 0 001.916 1.765 28.706 28.706 0 003.654 2.129l1.009.529a32.38 32.38 0 014.423 2.809l.556.446-.082.035-.062.04-.062.042-.062.041-.082.062c-.323.213-.604.398-.893.577l-.103.069-.165.089-.096.062-.103.054a27.508 27.508 0 01-2.98 1.505h-.069a30.215 30.215 0 01-7.294 1.977 33.756 33.756 0 01-4.258.282 31.153 31.153 0 01-4.12-.268 28.505 28.505 0 01-1.532-.247 28.898 28.898 0 01-5.899-1.751h-.035zm.131 2.575h-.076a25.818 25.818 0 01-5.446-3.159 20.34 20.34 0 01-1.373-1.154l.199-.158.735-.618c.096.09.206.172.322.261.833.61 1.703 1.17 2.603 1.676a29.017 29.017 0 008.654 3.083c1.894.349 3.815.528 5.741.536h.131a31.812 31.812 0 005.535-.494 28.289 28.289 0 009.203-3.29l.137-.11.089-.048.076-.048.117-.069.096-.055.089-.055c.337-.206.618-.384.9-.576l.089-.055.062-.049.075-.048.069-.054.096-.062.124-.083.089-.075c.337.302.687.61 1.01.92a.167.167 0 00-.09.055l-.054.041-.062.062-.138.103-.068.055-.062.048-.096.076-.103.082-.055.055-.433.316-.227.158-.123.082-.11.083-.069.055-.068.04c-.557.372-1.065.688-1.601 1.01-.903.504-1.831.963-2.781 1.374l-.082.034-.138.062a30.224 30.224 0 01-11.49 2.225 32.003 32.003 0 01-4.203-.281 29.485 29.485 0 01-7.293-1.944v-.007z" fill="#2C2C2C"/></g><defs><clipPath id="clip0"><path fill="#fff" d="M0 0h143v109H0z"/></clipPath></defs></svg>