<svg width="303" height="254" fill="none" xmlns="http://www.w3.org/2000/svg"><path d="M204.205 151.802a.81.81 0 00-.56.221l-.427.383-.177.103-.737.236-.294.088c-.31.089-.604.177-.914.295a5.124 5.124 0 00-.81.383 1.63 1.63 0 00-.56.487 2 2 0 00-.192.913c.028.394.097.784.207 1.164.132.472.265.943.427 1.4.162.457.442 1.12.692 1.68l.236.516c.31.751.545 1.385.766 2.018l.221.708.428 1.237.221.619c.147.369.28.737.412 1.12.133.383.383 1.09.59 1.636.227.613.488 1.213.781 1.797l.589 1.282.206.457c.31.634.619 1.253.973 1.857l.516.957c.177.31.339.634.53.944.354.589.707 1.193 1.105 1.768.398.574.619.869.943 1.311l.133.177.236.309c.353.487.707.973 1.09 1.474l.84.958.501.574c.457.531.943 1.032 1.474 1.474.53.442.795.693 1.208 1.031l.353.295c.575.472 1.106.899 1.68 1.282l.929.604.81.516.472.324c.442.295.869.59 1.34.855.638.355 1.309.647 2.004.869l.398.133 1.164.353a17.93 17.93 0 001.754.428l.958.206c.324.059.648.103.972.133h.236c.575.073 1.149.117 1.724.162h.501a13.2 13.2 0 002.947-.398c.833-.171 1.65-.408 2.446-.707l1.282-.472c.269-.086.53-.195.781-.324l.899-.516 1.149-.604c.422-.219.826-.47 1.208-.752l.501-.338c.325-.207.649-.413.958-.649a29.86 29.86 0 001.709-1.355 24.707 24.707 0 002.947-2.947c.463-.527.877-1.094 1.238-1.695l.133-.206c.324-.545.663-1.091 1.031-1.606l.148-.192a13.22 13.22 0 001.075-1.606l.988-1.813c.329-.645.698-1.27 1.105-1.871.377-.561.727-1.142 1.046-1.739a36.088 36.088 0 001.65-3.713l.31-.855.309-.854c.162-.442.295-.899.442-1.371v-.206l.103-.353c.148-.501.295-.988.413-1.474l.309-1.135.089-.368.191-.692.192-.678c.088-.369.177-.737.25-1.105v-.472c.071-.316.12-.636.148-.958a2.254 2.254 0 00-.103-.692 1.737 1.737 0 00-.708-.899 2.571 2.571 0 00-.987-.383l-.575-.118h-.28a2.921 2.921 0 00-.501-.089h-.294a1.94 1.94 0 01-.398-.103l-.265-.118h-.266a.797.797 0 00-.398.104c-.142.09-.263.211-.353.353a2.84 2.84 0 00-.177.369 7.3 7.3 0 00-.324 1.208v.486c-.089.398-.177.796-.28 1.194a19.258 19.258 0 01-.516 1.591c-.191.516-.295.943-.412 1.474v.221c-.091.418-.204.831-.339 1.237-.118.325-.251.634-.369.929l-.206.515-.221.531-.221.545v.103a35.513 35.513 0 01-2.181 4.303l-.619 1.076c-.206.368-.398.722-.619 1.075a19.756 19.756 0 01-1.252 1.886c-.442.56-.928 1.105-1.4 1.621-.471.516-.516.619-.766.943-.251.324-.427.516-.634.766-.206.251-.722.767-1.105 1.15l-.486.486-.206.206-.531.531a11.49 11.49 0 01-.678.574l-.958.708c-.324.206-.648.412-.972.589-.324.177-.501.265-.737.383l-.501.251-.707.339a8.07 8.07 0 01-1.105.353c-.504.153-.996.34-1.474.56h-.25c-.425.121-.859.21-1.297.266l-.855.147-.501.088a23.47 23.47 0 01-2.357.103h-2.358a2.524 2.524 0 01-.442-.132l-.766-.413c-.221-.132-.442-.265-.678-.383l-.413-.206a10.075 10.075 0 01-1.046-.545l-.81-.487c-.339-.206-.678-.442-1.017-.677l-.206-.163-2.166-1.473a7.554 7.554 0 01-.693-.693l-.368-.383-.295-.294a9.922 9.922 0 01-.766-.796c-.192-.28-.354-.575-.531-.87-.176-.294-.309-.5-.442-.692l-.162-.236c-.265-.383-.515-.781-.781-1.193-.265-.413-.663-1.032-1.016-1.474l-.413-.575c-.25-.338-.516-.677-.737-1.031l-.412-.663a26.206 26.206 0 01-.649-1.046c-.206-.354-.368-.604-.53-.914l-.531-.913-.117-.192a16.206 16.206 0 01-.855-1.577c-.074-.191-.162-.471-.265-.751l-.192-.545a34.833 34.833 0 00-.619-1.606c-.221-.531-.28-.664-.427-1.002l-.309-.664a58.541 58.541 0 00-.59-1.355l-.074-.162a30.4 30.4 0 01-.943-2.535 12.652 12.652 0 01-.309-1.075v-.251a5.424 5.424 0 00-.133-.516 1.298 1.298 0 00-.132-.25c.097-.074.191-.152.28-.236l.132-.118a.7.7 0 00.221-.53.8.8 0 00-.221-.575.739.739 0 00-.545-.221" fill="#A3C0B6"/><path d="M223.037 180.579a.78.78 0 000 1.076c.208.225.435.432.678.619.35.225.726.408 1.12.545.442.132.896.221 1.356.265.397 0 .81 0 1.223.103a.782.782 0 00.486-.088.716.716 0 00.353-.457.752.752 0 00-.073-.589.728.728 0 00-.457-.354c-.516-.088-1.031-.103-1.562-.162a5.867 5.867 0 01-1.135-.295l-.412-.235a4.062 4.062 0 01-.442-.428.712.712 0 00-.531-.235.811.811 0 00-.56.235" fill="#419A6F"/><path d="M185.934 218.655a.766.766 0 00-.56.251.748.748 0 00-.221.53v16.032a1.87 1.87 0 000 .28 1.256 1.256 0 00.574 1.002c.268.217.554.409.855.575.246.141.482.299.707.471.384.31.767.619 1.135.943.368.324.766.619 1.149.914l.236.177.147.103c.307.246.632.468.973.663.206.118.427.206.634.309l.397.192.177.103c.047.134.116.259.207.368.09.106.189.204.294.295l.133.118.368.339c.251.236.516.457.781.663l.265.206c.472.369.944.752 1.474 1.105.737.56 1.474 1.135 2.166 1.754l.398.309.147.133.133.103c.142.135.295.258.457.368.214.178.466.304.736.369h.266a.841.841 0 00.265 0l.28-.074c.29-.104.567-.243.825-.412.482-.331.94-.695 1.37-1.091l.649-.545c.53-.383 1.105-.722 1.665-1.046l.972-.575.457-.324.177-.118.678-.457.501-.309c.283-.163.559-.34.825-.531l.191-.118c.664-.471 1.371-.957 2.004-1.473l.605-.516.589-.53.707-.575.575-.427.56-.428c.204-.153.415-.295.634-.427.17-.101.332-.214.486-.339.234-.23.389-.53.442-.854.126-.686.19-1.381.191-2.078v-2.107-2.24-1.149-.811-2.136-2.608-1.739-.663-.884a.855.855 0 00-.427-.811 1.854 1.854 0 00-.619-.132l-1.164-.089h-1.783c-.692 0-1.385 0-2.078.074h-5.157c-.707 0-1.473-.089-2.122-.177a13.602 13.602 0 00-1.724-.103h-.353c-.428 0-.84 0-1.268.103h-9.563c-.604 0-1.208 0-1.797.088H186.744a1.003 1.003 0 00-.81-.515" fill="#A3C0B6"/><path d="M214.285 213.129h-1.887c-.825 0-1.65 0-2.49.074H191.312l-3.05-.221h-2.755a1.982 1.982 0 00-.59.162.557.557 0 00-.191 0 .84.84 0 00-.855.751 15.659 15.659 0 000 2.756v.162a3.34 3.34 0 000 .678.794.794 0 00.354.545c.17.115.369.182.574.191.277.059.558.094.84.104h.28c.457 0 .929 0 1.385-.104l.752-.088H215.95c.197 0 .393-.041.574-.118a1.062 1.062 0 00.59-1.061 3.495 3.495 0 000-.383v-.457-1.945a1.495 1.495 0 00-.103-.457 1.126 1.126 0 00-.325-.368 1.302 1.302 0 00-.545-.221 3.33 3.33 0 00-.633-.118H214.255" fill="#F4DBD8"/><path d="M276.864 198.158a.698.698 0 00-.442.339.831.831 0 00-.088.59 355.229 355.229 0 011.68 11.095v-.191a340.309 340.309 0 013.065 43.793h1.473a341.712 341.712 0 00-4.774-55.095.713.713 0 00-.339-.457.734.734 0 00-.383-.118.587.587 0 00-.221 0M227.104 81.677c-.369 1.135-.811 2.225-1.268 3.316a141.589 141.589 0 00-1.473 3.624 23.462 23.462 0 00-1.076 3.596 10.907 10.907 0 00-.206 1.68 6.5 6.5 0 00.088 1.606 4.19 4.19 0 001.164 2.328c.609.58 1.362.987 2.181 1.179a10 10 0 001.326.235c.462.03.924.03 1.386 0a23.59 23.59 0 002.947-.22.946.946 0 00.545-.222.812.812 0 00.206-.545.84.84 0 00-.206-.545.736.736 0 00-.545-.206c-1.522.23-3.066.27-4.598.118h.206a6.524 6.524 0 01-1.399-.369 3.517 3.517 0 01-.649-.368 3.298 3.298 0 01-.457-.442 3.865 3.865 0 01-.309-.53 5.004 5.004 0 01-.265-.914 9.453 9.453 0 010-1.828 25.854 25.854 0 011.709-5.599c.752-1.842 1.591-3.654 2.196-5.555a.783.783 0 00-.546-.943h-.191a.777.777 0 00-.737.56l-.029.044zm-2.402 11.346zm1.488 4.214h.103-.103zM208.699 94.953c2.019 0 3.655-2.284 3.655-5.084s-1.636-5.083-3.655-5.083c-2.018 0-3.654 2.27-3.654 5.084 0 2.814 1.636 5.083 3.654 5.083zM247.483 94.188c-2.019 0-3.654-2.285-3.654-5.084 0-2.8 1.635-5.084 3.654-5.084s3.669 2.27 3.669 5.084c0 2.814-1.65 5.084-3.669 5.084zM208.302 70.08a13.08 13.08 0 00-1.695.104 15.95 15.95 0 00-1.886.442 12.359 12.359 0 00-5.746 3.61 1.469 1.469 0 00-.295 1.12 1.466 1.466 0 00.58 1.023 1.465 1.465 0 001.144.273 1.62 1.62 0 001.031-.604l.089-.103a10.232 10.232 0 011.915-1.473 11.987 11.987 0 012.505-1.032c.724-.18 1.465-.29 2.211-.324a9.98 9.98 0 011.871.206l.457.148a1.534 1.534 0 001.966-2.044 1.534 1.534 0 00-.846-.815 10.172 10.172 0 00-3.242-.53h-.059zm-2.402 3.36h-.162.162zm-4.185 2.314l-.162.162.162-.162zM246.79 69.3c.571-.003 1.142.031 1.709.103.637.11 1.267.258 1.886.441a12.435 12.435 0 015.747 3.61 1.466 1.466 0 01.28 1.12 1.466 1.466 0 01-.58 1.024 1.464 1.464 0 01-1.144.273 1.564 1.564 0 01-1.017-.604l-.103-.103a9.756 9.756 0 00-1.915-1.474 11.651 11.651 0 00-2.505-1.031 11.14 11.14 0 00-2.196-.324 9.971 9.971 0 00-1.871.206l-.457.147a1.576 1.576 0 01-1.989-.869 1.458 1.458 0 01-.126-.593 1.48 1.48 0 01.995-1.397c1.045-.35 2.14-.53 3.242-.53h.044zm2.402 3.359h.177-.177zm4.199 2.313l.148.162-.148-.162zM235.031 102.719v.294c.007.03.007.06 0 .089v.236c0 .191 0 .383-.074.574a10.9 10.9 0 01-.575 2.137 9.573 9.573 0 01-1.031 1.709c-.377.47-.801.9-1.267 1.282-.424.31-.878.577-1.356.796a7.063 7.063 0 01-1.356.368 6.783 6.783 0 01-1.547 0 7.053 7.053 0 01-1.355-.368 7.808 7.808 0 01-1.356-.796 7.946 7.946 0 01-1.223-1.223 9.101 9.101 0 01-1.031-1.753 10.571 10.571 0 01-.619-2.255v-.236a.782.782 0 00-.221-.545.828.828 0 00-.546-.221.754.754 0 00-.53.221.77.77 0 00-.236.545c.082.734.23 1.459.442 2.166.128.431.29.85.487 1.253a8.707 8.707 0 001.871 2.638 7.12 7.12 0 009.475.648 8.834 8.834 0 002.239-2.535c.44-.757.777-1.57 1.002-2.416.179-.68.292-1.376.339-2.078a.749.749 0 010-.177v-.324a.766.766 0 00-1.473 0l-.059-.029zm-.619 3.418zm-10.609 1.621v.074-.074zm2.711 2.166h.074-.074zM184.181 227.304c0 1.606-.089 3.227-.118 4.833 0 .811 0 1.636-.074 2.446V236.322a.732.732 0 00.221.545l.383.28.604.472.885.678 2.004 1.473 3.639 2.8 7.81 5.997a.773.773 0 00.781 0l8.944-6.203 4.185-2.947 2.136-1.474a6.23 6.23 0 00.604-.442.835.835 0 00.236-.545v-1.341c.138-5.806.28-11.616.428-17.432h-.87l-.663-.073-.442 18.507-14.956 10.314-14.426-10.977.442-17.918h-1.061l-.471-.074-.221 9.401" fill="#2C2C2C"/><path d="M183.709 212.275h-.177a.783.783 0 00-.766.766v5.629a.766.766 0 00.766.751h33.98a.768.768 0 00.766-.751v-5.629a.783.783 0 00-.766-.766h-33.803zm33.036 5.628h-32.417v-4.052h32.417v4.052z" fill="#2C2C2C"/><path d="M235.901 0a33.689 33.689 0 00-5.57.457c-1.959.32-3.87.884-5.688 1.68a15.677 15.677 0 00-4.524 2.947 13.006 13.006 0 00-1.65 1.96c-.264.38-.5.779-.707 1.193a6.823 6.823 0 00-.929-1.046 10.745 10.745 0 00-1.989-1.474 14.181 14.181 0 00-4.553-1.591 20.637 20.637 0 00-3.64-.31 29.627 29.627 0 00-6.203.722 29.967 29.967 0 00-9.77 4.141 26.445 26.445 0 00-7.721 7.5 19.151 19.151 0 00-2.608 5.894 17.85 17.85 0 00-.457 3.154c-.053.983-.019 1.97.103 2.947H179.288l-1.046.147a6.764 6.764 0 00-.943.221 17.548 17.548 0 00-5.349 2.667 21.53 21.53 0 00-5.408 5.747 22.269 22.269 0 00-3.05 7.176 17.423 17.423 0 00-.162 7.441 13.252 13.252 0 001.076 3.139 12.54 12.54 0 001.856 2.785 14.277 14.277 0 005.821 3.875 19.599 19.599 0 00-3.272 14.956 17.597 17.597 0 008.959 12.348 15.156 15.156 0 00-1.252 3.139 12.026 12.026 0 00.324 7.574c.198.508.435 1.001.707 1.473.287.474.607.927.958 1.356a11.896 11.896 0 003.301 2.726 12.904 12.904 0 004.42 1.562c.673.101 1.353.15 2.034.147a15.805 15.805 0 002.299-.177c0 .693 0 1.4.088 2.093a26.896 26.896 0 001.061 5.894c.289.88.633 1.741 1.031 2.578.423.86.915 1.683 1.474 2.461a26.544 26.544 0 007.22 6.749 37.283 37.283 0 009.283 4.185c1.135.353 2.314.663 3.507.943a24.51 24.51 0 01-.162 4.125 24.754 24.754 0 01-1.621 5.894 22.754 22.754 0 01-2.785 4.848 19.557 19.557 0 01-3.109 3.139 16.197 16.197 0 01-3.227 1.901c-.648.265-1.326.486-1.989.707l-.398.133-3.035.987-3.286 1.002-2.52.796a90.073 90.073 0 00-10.992 4.052 41.51 41.51 0 00-9.991 6.454 40.524 40.524 0 00-7.809 9.504 53.48 53.48 0 00-4.981 11.081 76.64 76.64 0 00-2.814 11.95c-.678 4.244-1.061 8.473-1.474 13.262-.412 4.788-.692 9.857-.884 14.735a347.967 347.967 0 000 27.996h1.547a336.773 336.773 0 01-.103-26.199c.162-4.42.413-9.091.752-13.836.176-2.328.368-4.656.589-6.97.221-2.313.398-4.125.648-6.012a73.902 73.902 0 014.833-18.816 47.716 47.716 0 015.894-10.212 38.048 38.048 0 016.734-6.763 39.314 39.314 0 014.421-2.947 49.659 49.659 0 015.01-2.461c3.477-1.474 7.043-2.579 11.007-3.802l.619-.177 3.183-.987a79.038 79.038 0 003.639 11.464l.074.148a60.21 60.21 0 005.467 10.535 37.545 37.545 0 008.458 9.313 27.272 27.272 0 002.799 1.871 22.89 22.89 0 002.947 1.474 20.105 20.105 0 006.189 1.385h1.061a19.875 19.875 0 005.585-.855 22.456 22.456 0 006.041-2.947 33.6 33.6 0 008.134-7.972 61.01 61.01 0 008.605-16.989l.103-.339.104-.295v-.162a75.29 75.29 0 00.943-3.124l.088-.28v-.412c0-.148 0-.251.088-.354l.089-.339.088-.354.118-.427.089-.383 2.092.663c3.964 1.223 7.53 2.343 11.007 3.802a43.86 43.86 0 015.01 2.461 37.745 37.745 0 014.421 2.947 38.52 38.52 0 016.734 6.763 47.733 47.733 0 015.894 10.211 73.92 73.92 0 014.833 18.817c.25 1.901.442 3.802.648 6.042.206 2.239.413 4.641.59 6.969.338 4.745.589 9.401.751 13.837.295 8.841.265 17.505-.103 25.712h1.547c.413-8.841.427-18.05 0-27.495-.192-4.833-.486-9.77-.884-14.735-.398-4.966-.766-8.945-1.474-13.262a76.64 76.64 0 00-2.814-11.95 54.265 54.265 0 00-4.98-11.081 39.336 39.336 0 00-17.801-15.944 92.968 92.968 0 00-10.992-4.066l-2.505-.767-3.271-1.016-3.05-.973-.398-.132c-.663-.236-1.341-.457-1.989-.723a16.037 16.037 0 01-3.227-1.886 19.692 19.692 0 01-3.11-3.153 22.669 22.669 0 01-2.784-4.833 25.434 25.434 0 01-1.621-5.894 23.237 23.237 0 01-.118-4.627 59.91 59.91 0 009.872-2.947 34.01 34.01 0 009.239-5.275 21.11 21.11 0 001.724-1.606 11.597 11.597 0 001.724-2.358c.452-.784.831-1.608 1.135-2.461a21.78 21.78 0 00.81-2.947 38.96 38.96 0 00.604-3.89 83.22 83.22 0 00.325-3.345.293.293 0 00.176.089c.876.155 1.764.234 2.653.236.691-.001 1.38-.056 2.063-.163a12.563 12.563 0 004.42-1.547 11.902 11.902 0 003.301-2.741c.351-.423.671-.871.958-1.34.272-.473.508-.966.707-1.474a11.877 11.877 0 00.309-7.56 14.065 14.065 0 00-1.473-3.55 13.76 13.76 0 005.791-3.95 22.68 22.68 0 002.637-3.403 26.188 26.188 0 002.078-3.89c.987-2.328 3.861-10.315-1.105-14.986a8.02 8.02 0 00-.943-.78c.177-.063.345-.147.501-.251.527-.324 1.02-.7 1.473-1.12a9.197 9.197 0 001.931-2.77 14.745 14.745 0 001.179-7.25 20.716 20.716 0 00-1.946-7.56 13.89 13.89 0 00-4.494-5.54 8.827 8.827 0 00-1.768-.943 8.642 8.642 0 00-.81-.265 14.461 14.461 0 001.473-3.153 12.35 12.35 0 00.575-4.067 14.042 14.042 0 00-2.49-7.5 20.968 20.968 0 00-6.071-5.894 24.197 24.197 0 00-8.046-3.404 19.847 19.847 0 00-4.347-.486c-.53 0-1.06 0-1.591.073-1.687.136-3.34.55-4.892 1.223a10.391 10.391 0 00-.796-2.195A12.656 12.656 0 00256.5 7.81a14.516 14.516 0 00-2.431-2.27 22.989 22.989 0 00-2.947-1.87 29.918 29.918 0 00-7.058-2.638 37.648 37.648 0 00-7.825-1.017h-.751l.413-.015zm1.871 59.294a17.253 17.253 0 005.422-.854 13.451 13.451 0 006.307-4.347 13.159 13.159 0 001.562-2.49 9.69 9.69 0 00.472-1.135 8.289 8.289 0 001.119 1.473 13.472 13.472 0 003.507 2.83 10.958 10.958 0 003.979 1.37h.913a7.014 7.014 0 001.931-.265 17.572 17.572 0 00-.663 6.97c.076.66.194 1.314.353 1.96.194.71.44 1.404.737 2.077.5 1.12 1.166 2.158 1.975 3.08a14.727 14.727 0 00-2.8 7.603c-.03.71.009 1.42.118 2.122.12.74.343 1.459.663 2.136a6.923 6.923 0 002.829 2.947v8.414c0 3.492-.088 6.557-.221 9.342a172.238 172.238 0 01-.339 4.804 100.542 100.542 0 01-.398 3.61 24.475 24.475 0 01-1.547 6.027 13.56 13.56 0 01-1.473 2.563 17.447 17.447 0 01-2.947 2.859 33.617 33.617 0 01-7.265 4.111 62.852 62.852 0 01-15.59 4.126 64.69 64.69 0 01-8.472.545 66.434 66.434 0 01-8.562-.56 48.927 48.927 0 01-11.891-3.109 33.304 33.304 0 01-7.028-3.978l-.118-.089a25.535 25.535 0 01-4.332-4.317 59.236 59.236 0 01-1.091-1.474 15.18 15.18 0 01-1.12-2.136v-.133a20.886 20.886 0 01-1.341-5.304 59.042 59.042 0 01-.221-9.298v-.575c0-1.311.089-2.608.104-3.905 0-1.96 0-3.92.117-5.894.118-1.974.162-3.536.266-5.305.421-.268.825-.563 1.208-.884a10.104 10.104 0 001.473-1.65 9.333 9.333 0 001.651-4.082c.12-.784.169-1.578.147-2.372a7.553 7.553 0 00-.354-1.96c-.147-.486-.324-.958-.501-1.473l-.235-.678a9.963 9.963 0 01-.516-1.783 3.55 3.55 0 010-.413c.065-.164.155-.318.265-.456.383-.487.811-.943 1.238-1.4a18.822 18.822 0 001.473-1.621c.181-.269.334-.555.457-.855.186-.392.349-.796.487-1.208.3-.846.517-1.72.648-2.608.366-2.251.205-4.556-.472-6.734l.383.295c1.09.73 2.262 1.329 3.493 1.782a18.504 18.504 0 006.351 1.106c.545 0 1.105 0 1.665-.074a15.002 15.002 0 007.367-2.593 11.104 11.104 0 002.667-2.712c.381-.546.706-1.128.973-1.738.208.262.4.538.574.825.433.635.927 1.227 1.474 1.768a17.233 17.233 0 003.153 2.638 18.831 18.831 0 007.633 2.8c.815.116 1.637.175 2.461.176l-.118.103zm-53.341 24.947a7.357 7.357 0 011.635-.442c.201-.015.403-.015.604 0a5.45 5.45 0 01.693 0c.437.084.866.208 1.282.368.425.201.83.443 1.208.722.491.395.945.834 1.356 1.312 0 1.016-.118 1.96-.162 2.947v.412a6.531 6.531 0 00-.781-.78 8.232 8.232 0 00-2.505-1.371 6.305 6.305 0 00-1.93-.295 5.888 5.888 0 00-.885 0 6.594 6.594 0 00-2.947 1.223.792.792 0 00-.378.766.79.79 0 00.098.295.842.842 0 00.708.398c.132 0 .26-.042.368-.118.383-.288.799-.53 1.238-.722a5.1 5.1 0 011.149-.31c.201-.014.403-.014.604 0h.693c.462.09.915.218 1.356.384.455.215.889.471 1.296.766a8.44 8.44 0 011.209 1.194c.185.25.357.511.515.78a.483.483 0 00.133.163V96.413c0 1.266 0 2.534-.089 3.801 0 1.547-.103 3.079-.103 4.612l-.501.074h-.147c-.398 0-.943.073-1.474.073a12.953 12.953 0 01-1.473-.088 13.588 13.588 0 01-2.947-.781 10.908 10.908 0 01-4.421-3.271 10.94 10.94 0 01-1.134-1.96 10.285 10.285 0 01-.634-2.343 12.312 12.312 0 010-2.947c.173-1.102.474-2.18.899-3.212a15.294 15.294 0 011.768-3.036 13.453 13.453 0 012.152-2.151l-.163.103a13.58 13.58 0 011.783-1.06h.104l-.177.014zm84.594.796a7.01 7.01 0 011.238-.737 5.903 5.903 0 011.267-.354c.231-.015.462-.015.693 0h.604c.572.08 1.132.234 1.665.457a9.965 9.965 0 011.827 1.09l-.118-.132a14.077 14.077 0 012.078 2.107 14.846 14.846 0 011.812 3.094c.429 1.032.736 2.11.914 3.213.103.94.103 1.888 0 2.829a10.09 10.09 0 01-.663 2.46 10.56 10.56 0 01-1.105 1.916 12.054 12.054 0 01-1.842 1.827c-.806.58-1.67 1.074-2.579 1.474-.95.369-1.938.631-2.947.781h-1.473a14.878 14.878 0 01-1.607-.089h-.81a.497.497 0 00-.265 0c.221-2.947.339-6.16.383-10.064v-3.065l.501-.737c.36-.433.76-.833 1.193-1.193.414-.29.853-.54 1.312-.752a7.14 7.14 0 011.341-.398h1.311a6.01 6.01 0 011.15.31c.437.195.852.437 1.237.722.107.079.236.12.369.118a.807.807 0 00.781-1.002.826.826 0 00-.369-.457 6.453 6.453 0 00-2.947-1.223 5.602 5.602 0 00-.869 0 5.89 5.89 0 00-1.93.31 7.759 7.759 0 00-2.505 1.37 4.944 4.944 0 00-.59.53v-3.344c.286-.309.591-.6.914-.87h.073l-.044-.191zm-41.126 47.771c1.061 0 2.122 0 3.183-.074a65.192 65.192 0 009.165-1.09 23.086 23.086 0 00.221 4.907 24.61 24.61 0 003.375 9.268 19.96 19.96 0 002.947 3.802 17.283 17.283 0 003.757 2.858c.575.302 1.165.572 1.769.811a.526.526 0 00-.192.309l-.088.339v.678a2.77 2.77 0 00-.089.324l-.088.324a1.165 1.165 0 000 .221v.324c-.221.737-.428 1.474-.663 2.181l-.074.221v.148l-.192.604v.147a40.199 40.199 0 01-1.105 2.947l-.339.84V163.059a45.048 45.048 0 01-5.82 9.534 27.61 27.61 0 01-4.745 4.862 19.021 19.021 0 01-4.243 2.52 16.73 16.73 0 01-3.773 1.032c-.587.064-1.177.099-1.768.103a17.131 17.131 0 01-1.724-.103h-.177a18.193 18.193 0 01-3.728-1.076h-.162a23.146 23.146 0 01-3.978-2.417 29.486 29.486 0 01-4.701-4.774l-.103-.132a45.592 45.592 0 01-5.54-9.726v-.147a68.414 68.414 0 01-3.375-10.786 16.444 16.444 0 003.64-2.756 20.37 20.37 0 002.947-3.801 24.54 24.54 0 002.151-4.421 23.607 23.607 0 001.223-4.833c.219-1.463.308-2.942.266-4.421 1.606.325 3.3.59 5.157.796 2.291.24 4.593.358 6.896.354l-.03-.059zm-24.018 33.684l-.309-.736a83.444 83.444 0 01-3.699-11.641l.545-.162.369-.118c1.12-.354 2.254-.737 3.345-1.194a64.35 64.35 0 002.947 9.549 47.457 47.457 0 005.628 10.521 25.777 25.777 0 009.372 8.296c.926.437 1.887.797 2.873 1.075.963.274 1.95.451 2.947.531h1.179a15.935 15.935 0 005.01-.855 18.98 18.98 0 005.717-3.153 27.858 27.858 0 004.922-5.01 45.157 45.157 0 006.13-10.993 61.246 61.246 0 001.12-3.035l.132-.354.074-.28.088-.235c.31-.973.56-1.798.796-2.638v-.486l.118-.442v-.398l.118-.501.073-.265a.719.719 0 000-.236c.501.191 1.017.353 1.548.53l.353.118c.737.236 1.474.486 2.24.707l-.162.649V156.62c0 .177-.074.25-.088.339l-.221.81c-.31 1.061-.619 2.078-.944 3.08l-.088.265-.206.634a78.855 78.855 0 01-1.827 4.833 57.37 57.37 0 01-6.484 11.552l-.354.457a34.981 34.981 0 01-6.011 6.13 25.468 25.468 0 01-5.084 2.947h-.074a23.21 23.21 0 01-4.715 1.238c-.748.088-1.501.132-2.254.132a21.198 21.198 0 01-2.167-.118h-.191a21.73 21.73 0 01-4.686-1.326 24.716 24.716 0 01-5.039-2.947h-.074a37.482 37.482 0 01-6.012-6.174 55.552 55.552 0 01-6.955-12.201v.221z" fill="#2C2C2C"/><path d="M27.09 162.45c-.143.075-.28.158-.413.251-.28.221-.59.397-.884.604-.295.206-.501.339-.722.53-.221.192-.369.354-.545.531a.765.765 0 001.075 1.075l.62-.589c.456-.31.913-.59 1.34-.914.099-.082.208-.152.324-.206a.762.762 0 00-.383-1.473.857.857 0 00-.383.103" fill="#44A8A3"/><path d="M99.778 164.204l-.516.456a37.901 37.901 0 01-2.947 1.975l-1.164.766-1.326.56c-.707.28-1.474.59-2.093.884l-.78.324-1.71.678a9.016 9.016 0 01-.884.339l-1.562.59-2.402.825-2.24.751a75.42 75.42 0 01-3.094.958l-.737.162-1.473.088-1.886.177c-1.253.133-2.49.31-3.728.472-1.238.162-2.579.309-3.86.486-.204 0-.4.079-.546.221a.796.796 0 00-.221.545.812.812 0 00.221.531l.103.088h-.088a.718.718 0 00-.457.339.796.796 0 00-.074.604c.06.19.185.352.354.457.18.098.39.125.59.074H67.7h-.148l1.253-.148a.292.292 0 000 .103.596.596 0 000 .222c-.59 0-1.18.088-1.754.103-.575.014-1.473 0-2.299 0-.825 0-1.591 0-2.387-.103l-2.254-.133a135.95 135.95 0 01-4.612-.472l-3.802-.412c-1.547-.221-3.094-.457-4.612-.811a63.835 63.835 0 01-2.151-.574 20.158 20.158 0 01-2.284-.84h-.089l-1.576-.663.176.073a45.447 45.447 0 01-1.93-.913c-.634-.324-1.311-.766-1.99-1.135-1.252-.692-2.578-1.267-3.771-2.048a40.744 40.744 0 01-1.65-1.105c-.546-.383-1.194-.87-1.828-1.267-.633-.398-1.134-.722-1.665-1.135l-1.68-1.267c-.294-.236-.604-.486-.913-.707a.687.687 0 00-.59-.074.715.715 0 00-.456.353.757.757 0 00-.074.59c.059.19.184.352.354.457l.353.265-.147-.118 1.797 1.37a21.79 21.79 0 001.783 1.282c.634.413 1.268.826 1.872 1.268.604.442 1.193.854 1.812 1.252.62.398 1.238.752 1.872 1.076.633.324 1.385.692 2.063 1.075l2.033 1.15c.707.383 1.474.722 2.18 1.031l.664.265c.707.31 1.473.634 2.151.899.678.266 1.297.413 1.945.604 1.312.354 2.638.619 3.964.855s2.947.413 4.347.575c.678.073 1.356.132 2.019.221l2.313.25c1.474.177 3.035.251 4.553.339.796 0 1.606.074 2.417.089.81.014 1.473 0 2.313 0 .84 0 1.474-.089 2.255-.163l2.269-.25c.78-.103 1.547-.162 2.328-.28l2.033-.339c1.135-.206 2.284-.412 3.419-.648l.825-.162c.422-.068.84-.156 1.253-.266.398-.088.795-.176 1.178-.294.384-.118.87-.31 1.297-.487l.442-.132c.648-.221 1.282-.427 1.916-.678l1.974-.766c.693-.295 1.37-.619 2.034-.958l1.974-.972c1.282-.619 2.55-1.253 3.772-1.975.487-.28.958-.575 1.474-.899.516-.324.796-.589 1.208-.84l1.474-.928c.339-.236.692-.486 1.061-.722.343-.204.673-.43.987-.678a1.68 1.68 0 00.412-.604 1.337 1.337 0 00-.176-1.179 3.28 3.28 0 00-1.135-1.017 1.743 1.743 0 00-.81-.353c-.35.038-.674.2-.914.457l-.044-.059zm-58.484 11.301h.074-.074zm10.315 1.135h.147-.147z" fill="#58AF9B"/><path d="M26.574 163.261a.749.749 0 00-.103.928.637.637 0 000 .162c0 .162 0 .324-.074.471v.104a.779.779 0 000 1.046c.173.164.36.312.56.442l.31.236.56.412 1.355 1.046c.87.649 1.739 1.297 2.623 1.901.427.31.84.604 1.282.884l.928.59.62.383 1.473.81c.577.329 1.178.615 1.797.855a.76.76 0 00.59-.088h.073l.472.206 1.473.663c.796.354 1.621.633 2.446.943.826.309 1.577.53 2.358.781.781.25 1.474.457 2.196.678.722.221 1.665.442 2.505.633l.884.177c.486.089.972.192 1.473.251l1.297.162 1.238.088h.5c.973.236 1.99.369 2.948.516l.928.147 1.665.162c.84.089 1.665.118 2.505.148H65.607c.413 0 1.09 0 1.65-.133a5.861 5.861 0 001.474-.324c.157-.039.306-.104.442-.192a.627.627 0 00.177-.162h1.238a.78.78 0 00.766-.766.761.761 0 00-.236-.545.852.852 0 00-.53-.221h-1.592l-.132-.074h.25c.413 0 .84-.088 1.238-.177a.55.55 0 00.25-.118h.163c.338 0 .663 0 1.002-.073l1.031-.089 2.947-.353a.863.863 0 00.53-.221.778.778 0 00.236-.546.735.735 0 00-.235-.53.707.707 0 00-.53-.236l-2.948.354-1.031.088c-.354 0-.722.074-1.09.074h-.693a.753.753 0 00-.737-.604c-2.24.103-4.42.191-6.705.236h-2.505l-1.473-.074h-2.137a.903.903 0 00-.353-.221l-.398-.133c-.237-.06-.479-.1-.722-.118l-.648-.088-1.017-.118-2.034-.25c-1.237-.207-2.49-.384-3.713-.619l-1.267-.251-2.019-.589a.844.844 0 000-.192.795.795 0 00-.368-.663 7.252 7.252 0 00-1.474-.633l-.928-.325-1.975-.589-1.886-.604-.294-.089-.708-.265-.324-.265a9.108 9.108 0 00-1.017-.648l-1.237-.678c-.722-.383-1.474-.737-2.196-1.12-.722-.383-1.606-.84-2.372-1.312-.34-.206-.693-.412-1.017-.633a17.005 17.005 0 00-1.017-.648.709.709 0 00-.383-.104c-.203 0-.399.079-.545.221l.059-.117zm1.031.117l.118.089a.262.262 0 00-.103-.074l-.015-.015zM28.725 188.87a.766.766 0 00-.265 1.046l4.553 6.395a.836.836 0 00.457.354c.2.045.41.014.59-.088a.767.767 0 00.28-1.047l-4.569-6.38a.839.839 0 00-.456-.353h-.192a.878.878 0 00-.398.103M52.655 188.502a.873.873 0 00-.442.354l-4.7 6.572a.767.767 0 00.265 1.046.824.824 0 00.589.088.84.84 0 00.457-.353l4.7-6.587a.78.78 0 00-.265-1.046.985.985 0 00-.398-.103h-.206M67.773 188.635a.779.779 0 00-.28 1.046l4.862 6.807a.837.837 0 00.457.354c.2.045.41.014.59-.088a.767.767 0 00.265-1.046c-1.606-2.27-3.227-4.524-4.848-6.793a.78.78 0 00-.457-.354h-.206a.708.708 0 00-.383.103M91.158 188.634a.86.86 0 00-.472.354l-4.42 6.263a.794.794 0 00.28 1.06.748.748 0 00.59 0 .765.765 0 00.456-.338l4.42-6.278a.764.764 0 00-.265-1.046.708.708 0 00-.383-.103h-.206M103.433 188.546a.768.768 0 00-.28 1.047c1.483 2.092 2.956 4.18 4.42 6.262a.782.782 0 00.759.378.748.748 0 00.635-.566.768.768 0 00-.082-.578l-4.421-6.263a.883.883 0 00-.472-.353h-.191a.816.816 0 00-.383.103M16.938 189.754a.78.78 0 00-.457.354l-.089.103-4.833 6.763a.782.782 0 00.265 1.047.77.77 0 001.047-.28l4.936-6.882a.764.764 0 00-.265-1.046.87.87 0 00-.384-.103h-.206" fill="#58AF9B"/><path d="M17.32 189.121a.78.78 0 00-.457.354l-1.93 2.696a.766.766 0 00.87 1.12.822.822 0 00.456-.339l1.93-2.711a.756.756 0 00-.051-.852.745.745 0 00-.229-.194.871.871 0 00-.383-.104h-.206M40.189 206.877a.765.765 0 00-.28 1.046l5.025 7.028a.836.836 0 00.456.354c.201.045.411.014.59-.088a.767.767 0 00.28-1.047c-1.68-2.328-3.36-4.685-5.025-7.028a.84.84 0 00-.457-.354h-.191a.741.741 0 00-.398.103M62.248 205.727a.84.84 0 00-.457.354l-4.715 6.601a.783.783 0 00.28 1.046.753.753 0 00.589.074.836.836 0 00.457-.354c1.562-2.195 3.138-4.42 4.7-6.601a.767.767 0 00-.265-1.046.936.936 0 00-.398-.103h-.191M76.216 206.125a.75.75 0 00-.28 1.046l5.143 7.206a.767.767 0 00.456.339.753.753 0 00.59-.074.767.767 0 00.28-1.046l-5.143-7.147a.8.8 0 00-.471-.339.479.479 0 00-.207 0 .634.634 0 00-.368.104M101.458 207.746a.838.838 0 00-.457.353l-4.42 6.101a.767.767 0 00.265 1.046.824.824 0 00.59.088.839.839 0 00.456-.353l4.42-6.101a.75.75 0 00.09-.586.762.762 0 00-.355-.475.948.948 0 00-.398-.103h-.191M5.974 211.665a.754.754 0 00-.265 1.046l5.614 7.869a.845.845 0 00.457.354.742.742 0 00.59-.089.764.764 0 00.28-1.046l-5.63-7.854a.724.724 0 00-.457-.353.478.478 0 00-.206 0 .7.7 0 00-.383.103M28.725 209.956a.73.73 0 00-.457.354c-1.782 2.475-3.55 4.966-5.334 7.456a.78.78 0 00.266 1.046.77.77 0 00.59.074.728.728 0 00.457-.354c1.782-2.475 3.55-4.966 5.333-7.456a.767.767 0 00-.265-1.046.708.708 0 00-.383-.103h-.207M113.732 208.439a.766.766 0 00-.28 1.046l4.42 6.189a.753.753 0 001.032.28.766.766 0 00.28-1.047l-4.421-6.188a.714.714 0 00-.456-.354.515.515 0 00-.207 0 .707.707 0 00-.383.103M30.273 225.738a.764.764 0 00-.28 1.046l5.349 7.485a.941.941 0 00.442.354c.205.046.42.014.604-.088a.77.77 0 00.265-1.047c-1.768-2.49-3.566-4.98-5.334-7.485a.902.902 0 00-.457-.354h-.206a.708.708 0 00-.383.103M53.245 226.592a.841.841 0 00-.457.354l-4.347 6.027a.78.78 0 00.265 1.046c.184.103.401.13.604.073a.806.806 0 00.457-.353l4.42-6.086a.78.78 0 00-.28-1.046.857.857 0 00-.382-.103h-.207M65.563 227.27a.767.767 0 00-.28 1.046c1.577 2.196 3.124 4.421 4.686 6.572.11.17.277.296.472.354a.724.724 0 00.574-.088.75.75 0 00.362-.456.736.736 0 00-.082-.576l-4.686-6.572a.78.78 0 00-.456-.353h-.207a.857.857 0 00-.383.103M89.684 226.474a.902.902 0 00-.456.354l-4.51 6.351a.767.767 0 00.266 1.046.8.8 0 00.604 0 .798.798 0 00.442-.354c1.474-2.107 3.02-4.229 4.538-6.35a.766.766 0 00-.28-1.047.884.884 0 00-.383-.103H89.7M102.032 227.8a.77.77 0 00-.28 1.047c1.268 1.768 2.535 3.521 3.787 5.29a.78.78 0 00.457.353.734.734 0 00.472 0v-.795-.796c-1.135-1.606-2.284-3.198-3.434-4.804a.709.709 0 00-.456-.353h-.192a.923.923 0 00-.398.103M125.078 227.757a.719.719 0 00-.457.353l-4.833 6.764a.743.743 0 00-.082.582.74.74 0 00.362.464.7.7 0 00.575.073.81.81 0 00.472-.353l4.818-6.764a.74.74 0 00.089-.579.755.755 0 00-.354-.467.712.712 0 00-.383-.103h-.207M.596 232.251V234.313l2.24 3.11a.724.724 0 00.457.353.75.75 0 00.97-.685.754.754 0 00-.116-.435L.73 231.867a4.154 4.154 0 000 .428M20.916 230.291a.839.839 0 00-.457.353l-4.42 6.248a.78.78 0 00.28 1.046.753.753 0 00.59.074.78.78 0 00.456-.354l4.42-6.233a.766.766 0 00-.28-1.046.735.735 0 00-.383-.118h-.206M25.513 244.761a.76.76 0 00-.362.463.752.752 0 00.082.583l3.831 5.349a.839.839 0 00.457.353.747.747 0 00.59 0 .779.779 0 00.28-1.046l-3.832-5.363a.836.836 0 00-.457-.354h-.206a.708.708 0 00-.383.103M49.9 245.483a.839.839 0 00-.457.353l-3.757 5.261a.749.749 0 00.28 1.046.753.753 0 00.589.074.798.798 0 00.442-.354 670.873 670.873 0 003.757-5.26.767.767 0 00-.265-1.046.937.937 0 00-.398-.104H49.9M61.76 245.144a.767.767 0 00-.28 1.046l4.303 6.042a.825.825 0 00.472.353.796.796 0 00.798-.281.753.753 0 00.056-.839l-4.302-6.041a.812.812 0 00-.472-.354h-.191a.7.7 0 00-.383.104M86.84 245.247a.78.78 0 00-.456.354l-3.964 5.54a.766.766 0 00.28 1.046.746.746 0 00.59 0 .783.783 0 00.456-.353l3.964-5.541a.766.766 0 00-.663-1.149.479.479 0 00-.206 0M100.043 246.057a.767.767 0 00-.28 1.046l3.728 5.217a.91.91 0 00.457.353c.2.045.411.014.589-.088a.765.765 0 00.265-1.046l-3.713-5.202a.778.778 0 00-.457-.353.477.477 0 00-.206 0 .698.698 0 00-.383.103M123.797 246.794a.839.839 0 00-.457.354l-3.433 4.818a.766.766 0 101.326.766l3.433-4.818a.748.748 0 00-.28-1.032.735.735 0 00-.398-.117h-.191M13.15 245.778a.839.839 0 00-.457.353l-3.566 4.996a.765.765 0 101.327.766 622.256 622.256 0 013.566-4.981.766.766 0 00-.28-1.046.735.735 0 00-.383-.118h-.207M39.983 177.937a.841.841 0 00-.457.354l-3.89 5.452a.767.767 0 00.266 1.046.753.753 0 00.589.074.831.831 0 00.457-.339l3.89-5.467a.734.734 0 00-.265-1.031.769.769 0 00-.398-.118h-.192M17.91 177.952a.764.764 0 00-.28 1.046c1.473 1.974 2.844 3.964 4.273 5.968a.78.78 0 001.046.265.767.767 0 00.28-1.046l-4.273-5.968a.78.78 0 00-.457-.354h-.206a.708.708 0 00-.383.103M52.42 179.661a.767.767 0 00-.28 1.046l3.404 4.76c.108.165.269.29.456.353a.769.769 0 00.87-1.12l-3.404-4.774a.895.895 0 00-.457-.353h-.206a.7.7 0 00-.383.103M70.986 178.718a.839.839 0 00-.457.353l-3.212 4.495-.59.84a.765.765 0 00.28 1.046.714.714 0 00.575.073.882.882 0 00.472-.353l.574-.811 1.282-1.797 1.916-2.697a.75.75 0 00-.265-1.031.735.735 0 00-.384-.118h-.206" fill="#58AF9B"/><path d="M51.594 178.453a.765.765 0 00-.265 1.046l3.345 4.7c.115.165.28.289.471.354a.752.752 0 00.938-.542.767.767 0 00-.083-.578l-3.345-4.7a.85.85 0 00-.472-.354h-.191a.95.95 0 00-.398.103M81.315 178.157a.75.75 0 00-.38.764c.014.1.048.196.1.283l3.478 4.877a.839.839 0 00.457.353c.199.045.407.019.59-.073a.767.767 0 00.28-1.046c-1.165-1.636-2.33-3.257-3.478-4.892a.953.953 0 00-.472-.354h-.118a.708.708 0 00-.383.103M102.312 174.4a.782.782 0 00-.457.354l-5.79 8.119a.795.795 0 00.28 1.061c.18.098.39.124.589.074a.845.845 0 00.456-.354l5.777-8.104a.77.77 0 00-.266-1.047.74.74 0 00-.397-.103h-.192M118.61 190.417c0 .074-.133.162-.207.251l-.427.501-.074.088c-.194.269-.371.55-.53.84a26.884 26.884 0 00-.943 1.547.766.766 0 00.559 1.142.752.752 0 00.752-.375c.295-.501.604-.988.914-1.474.147-.265.324-.53.486-.781.147-.177.309-.354.457-.545l-.074.103.133-.162a.78.78 0 000-1.076.8.8 0 00-.56-.221.707.707 0 00-.531.221M109.562 175.506a.767.767 0 000 1.076c.251.265.486.53.737.781l.81.751c.472.472 1.002.869 1.474 1.312.471.442.751.677 1.149.987.394.299.759.634 1.09 1.002a.78.78 0 00.546.228.766.766 0 00.766-.759.827.827 0 00-.221-.545 6.554 6.554 0 00-1.046-.972c-.398-.31-.781-.649-1.164-.988-.383-.339-1.017-.825-1.474-1.282l-.81-.766c-.28-.265-.531-.545-.796-.825a.69.69 0 00-.516-.221.796.796 0 00-.56.221M108.398 230.025a.742.742 0 00-.235.531.839.839 0 00.235.545c.25.323.515.633.796.928.221.236.457.457.663.708.206.25.737.884 1.12 1.296.383.413.678.678 1.017 1.047.339.368.781.884 1.208 1.282a.77.77 0 001.066-.01.763.763 0 00.024-1.066c-.427-.398-.795-.84-1.178-1.253-.384-.412-.693-.692-1.032-1.046-.339-.353-.737-.869-1.105-1.296-.368-.428-.442-.472-.663-.693-.221-.221-.575-.648-.84-.973a.676.676 0 00-.545-.221.756.756 0 00-.531.221M109.768 247.148a.765.765 0 00-.363.464.76.76 0 00.083.583c.295.397.619.795.928 1.193l-.118-.147c.467.708.989 1.378 1.562 2.004.31.324.634.633.943.943l.472.486c.125.14.258.273.398.398a.764.764 0 001.014-.062.764.764 0 00.062-1.014 10.101 10.101 0 01-.56-.574l-.678-.693c-.221-.221-.457-.427-.663-.648l-.516-.619c-.162-.207-.31-.428-.457-.634a27.59 27.59 0 00-.692-.899l-.369-.515a.897.897 0 00-.457-.354h-.206a.734.734 0 00-.383.118M20.577 205.079a361.305 361.305 0 01-2.093 48.892h1.474a361.289 361.289 0 002.092-48.892.763.763 0 00-.766-.766.766.766 0 00-.766.766M104.626 205.079a358.863 358.863 0 002.092 48.892h1.473a361.45 361.45 0 01-2.077-48.892.78.78 0 00-.766-.766.763.763 0 00-.542.225.763.763 0 00-.225.541" fill="#58AF9B"/><path d="M62.867 84.56a.752.752 0 00-.222.53 7.201 7.201 0 01-.471 1.577 40.442 40.442 0 01-2.093 3.95 23.652 23.652 0 00-.972 1.93 9.52 9.52 0 00-.693 1.974 4.42 4.42 0 000 1.768c.117.597.416 1.142.855 1.562.245.248.523.461.825.634.36.192.734.354 1.12.486a8.48 8.48 0 001.606.368h.767c.336-.011.67-.046 1.002-.103a.736.736 0 00.456-.353.752.752 0 00.074-.59.781.781 0 00-.354-.457.898.898 0 00-.59-.073h-.088c-.387.03-.776.03-1.164 0a10.218 10.218 0 01-1.591-.442 4.416 4.416 0 01-.766-.428l-.369-.368a3.7 3.7 0 01-.191-.324 3.376 3.376 0 01-.118-.413 5.444 5.444 0 010-.692c.096-.552.255-1.09.471-1.606.649-1.474 1.474-2.859 2.284-4.274.375-.68.714-1.378 1.017-2.092.118-.324.236-.634.34-.972a6.96 6.96 0 00.205-1.106.707.707 0 00-.22-.545.75.75 0 00-.546-.22.723.723 0 00-.53.22l-.044.06zm-1.489 12.79h.089-.089zM58.063 102.139h-.132c-.814.046-1.6.317-2.27.781a4.143 4.143 0 00-1.473 1.724 5.69 5.69 0 000 4.318c.136.338.294.668.472.987.174.299.37.585.589.854.47.57 1.02 1.066 1.636 1.474.571.386 1.178.716 1.812.987a14.061 14.061 0 006.896.958 12.265 12.265 0 004.347-1.252 8.582 8.582 0 001.71-1.165 6.855 6.855 0 001.473-1.724 6.224 6.224 0 00.766-1.694c.18-.602.24-1.232.177-1.857a4.555 4.555 0 00-1.71-3.124 5.896 5.896 0 00-3.55-1.208h-.428a8.736 8.736 0 00-3.139 1.076l-1.105.516-.383.147h-.191c-.44-.077-.87-.2-1.282-.368l-.988-.457-1.031-.487a5.886 5.886 0 00-2.27-.515l.074.029zm6.027 10.595a15.045 15.045 0 01-1.812-.118 13.962 13.962 0 01-2.83-.737l-.456-.221a8.05 8.05 0 01.884-.855 7.203 7.203 0 011.473-.839 8.507 8.507 0 011.577-.413h.943c.345.003.69.028 1.031.074.55.083 1.088.227 1.607.427.464.208.908.46 1.326.751.37.297.706.633 1.002 1.002l-.236.148c-.904.366-1.849.618-2.814.751-.562.071-1.129.106-1.695.103M44.934 94.669c2.02 0 3.655-2.27 3.655-5.084 0-2.814-1.636-5.084-3.655-5.084-2.018 0-3.654 2.284-3.654 5.084s1.636 5.084 3.654 5.084zM83.717 93.902c-2.02 0-3.655-2.269-3.655-5.083 0-2.815 1.636-5.084 3.655-5.084 2.018 0 3.654 2.284 3.654 5.084s-1.636 5.083-3.654 5.083zM85.603 70.237c.949.136 1.876.399 2.755.782.829.386 1.602.881 2.299 1.473.35.271.68.566.987.884.346.35.662.73.943 1.135a.707.707 0 01.074.574.75.75 0 01-.354.472.781.781 0 01-.575 0 .884.884 0 01-.471-.354l-.074-.103a9.757 9.757 0 00-1.473-1.473 10.687 10.687 0 00-2.166-1.268 9.915 9.915 0 00-2.034-.56 7.36 7.36 0 00-1.473 0l-.545.089a.752.752 0 01-.929-.545.767.767 0 01.545-.929 7.853 7.853 0 011.65-.177h.914" fill="#2C2C2C"/><path d="M61.275 23.601a67.389 67.389 0 00-12.082 1.061 46.457 46.457 0 00-7.368 1.96 49.36 49.36 0 00-10.315 5.187 58.585 58.585 0 00-9.15 7.456 62.777 62.777 0 00-7.574 9.18A55.836 55.836 0 009.29 58.759a51.663 51.663 0 00-3.242 12.407c-1.194 8.738-.53 17.683.133 26.258l.162 2.255c.368 4.848.619 8.929.633 13.114a109.94 109.94 0 01-.486 13.748 22.127 22.127 0 01-.457 2.181l-.176.766a14.736 14.736 0 00-.443 3.345c.016.469.09.934.221 1.385.147.476.405.91.752 1.267a4.024 4.024 0 002.431 1.194h.575a6.674 6.674 0 002.151-.413c.967-.364 1.88-.86 2.711-1.473a15.856 15.856 0 002.314-2.004l.427-.457v1.812c0 .413 0 1.164.074 1.739v.575c0 1.341.147 2.947.324 4.509.16 1.602.45 3.189.87 4.744.38 1.47.998 2.869 1.827 4.141a8.169 8.169 0 003.256 2.859 7.929 7.929 0 002.431.692h.708c.678-.01 1.354-.084 2.018-.221a13.24 13.24 0 002.564-.81 24.548 24.548 0 002.667-1.268 40.147 40.147 0 002.535-1.473c.84-.531 1.473-.84 2.136-1.238 1.268-.692 2.697-1.37 4.421-2.107l.118-.103a90.994 90.994 0 019.46-3.168 3.079 3.079 0 00-.31.486l-.132.251c-.295.516-.63 1.009-1.002 1.473a20.24 20.24 0 01-3.36 3.257 61.244 61.244 0 01-8.59 5.069l-1.297.677a69.606 69.606 0 00-4.966 2.8 71.055 71.055 0 00-4.73 3.242 62.032 62.032 0 00-8.31 7.5 59.558 59.558 0 00-11.789 18.92 88.779 88.779 0 00-3.64 12.009 158.86 158.86 0 00-3.978 27.245 177.5 177.5 0 00-.25 14.647c0 2.225.177 4.597.339 7.058.088 1.164.177 2.328.28 3.478a68.62 68.62 0 00.31 2.814H2.54c-.191-1.694-.324-3.389-.457-4.98-.132-1.592-.22-3.227-.31-4.848a154.73 154.73 0 01-.161-10.153c.088-6.698.58-13.386 1.473-20.025a152.186 152.186 0 012.756-14.838 86.855 86.855 0 014.096-13.159 61.318 61.318 0 017.78-13.261 58.063 58.063 0 016.322-6.896 50.85 50.85 0 009.21 6.689 59.147 59.147 0 0011.625 5.01 67.498 67.498 0 0012.23 2.535 71.18 71.18 0 007.5.412c1.474 0 3.11 0 4.701-.162a64.408 64.408 0 0020.025-4.553l.177-.074.707-.279a58.108 58.108 0 006.218-3.095 52.184 52.184 0 003.168-1.96l.148-.103.133-.088.589-.413.236-.162a33.449 33.449 0 001.945-1.473l.132-.104.221-.162.148-.132.147-.118.133-.133.132-.088.133-.103.132-.103a.622.622 0 00.163-.236 68.158 68.158 0 015.098 5.776 60.313 60.313 0 017.736 13.262 87.62 87.62 0 014.14 13.261 152.168 152.168 0 012.756 14.839 165.816 165.816 0 011.473 20.025c0 3.403 0 6.822-.176 10.152a175.413 175.413 0 01-.295 4.848 92.133 92.133 0 01-.486 4.951h1.562c.162-.958.25-1.901.324-2.844.073-.943.206-2.313.28-3.477.177-2.461.28-4.834.353-7.059.118-5.009 0-9.946-.25-14.646a160.396 160.396 0 00-3.979-27.246 88.737 88.737 0 00-3.639-12.009 60.286 60.286 0 00-11.788-18.92 62.104 62.104 0 00-8.311-7.5c-1.474-1.134-3.094-2.225-4.73-3.242a69.335 69.335 0 00-4.966-2.799l-1.296-.678a59.724 59.724 0 01-8.59-5.069 20.063 20.063 0 01-3.346-3.242 12.973 12.973 0 01-1.017-1.473c-.25-.457-.486-.914-.692-1.385a20.95 20.95 0 01-1.223-4.539 70.137 70.137 0 007.854-2.755 52.977 52.977 0 005.717-2.844 42.974 42.974 0 004.789-3.242 55.472 55.472 0 0014.617-17.815 90.06 90.06 0 002.873-5.997l.443-.191a10.574 10.574 0 004.715-4.303 13.144 13.144 0 001.753-5.997 12.368 12.368 0 00-1.105-5.894c-.176-.355-.373-.7-.589-1.032a94.33 94.33 0 00.854-4.73c.461-3.022.756-6.067.884-9.12a52.444 52.444 0 00-.397-9.136 30.262 30.262 0 00-2.255-8.223 19.308 19.308 0 00-3.315-4.862 15.759 15.759 0 00-4.716-3.552 24.218 24.218 0 00-2.77-7.087 25.696 25.696 0 00-4.921-6.027 39.697 39.697 0 00-14.293-8.045 66.313 66.313 0 00-17.24-3.227 69.257 69.257 0 00-4.539-.148l-.015-.044zm27.761 42.776a11.443 11.443 0 002.034-.22 12.66 12.66 0 003.168-1.061 16.205 16.205 0 003.345-2.181 22.88 22.88 0 003.698-3.935c-.147 1.474-.309 3.124-.471 4.671-.486 4.539-.973 9.166.236 13.675a8.39 8.39 0 001.576 3.212c.388.456.9.788 1.474.958-.089 1.002-.162 2.048-.266 3.065v.162c-.073.677-.162 1.355-.25 2.033-.088.678-.133.973-.221 1.474a65.605 65.605 0 01-3.463 12.863l-.132.31v.221l-.118.25-.207.516v.162a52.9 52.9 0 01-1.812 3.861l-.192.383-.073.133-.133.25-.088.192-.118.176-.133.251-.073.133-.162.279-.222.384-.132.25-.089.147-.132.221-.074.148-.088.177-.148.191-.132.236-.089.133-.147.235-.074.148-.147.235-.088.118-.163.236-.117.192-.104.191-.118.162-.132.207-.147.221-.177.235-.103.148-.148.221-.103.147-.133.206-.132.162-.133.192-.118.162-.147.192-.118.162-.132.191-.133.162-.147.192-.104.147a46.084 46.084 0 01-7.868 7.928 39.926 39.926 0 01-8.001 4.73l-.133.073a35.598 35.598 0 01-7.47 2.122l-.649.104a33.174 33.174 0 01-4.42.294c-.929 0-1.843 0-2.727-.118h-.633l-.781-.118h-.192a38.077 38.077 0 01-4.2-.898h-.205l-.236-.089c-.87-.25-1.739-.545-2.623-.884l-.206-.088h-.163l-.397-.162a37.302 37.302 0 01-4.274-2.166l-.22-.133-.192-.118-.295-.177-.22-.132-.251-.148-.148-.118-.22-.132-.266-.177a63.416 63.416 0 01-2.122-1.474 46.123 46.123 0 01-7.25-7.146l-.309-.383-.295-.383a49.314 49.314 0 01-3.05-4.421c.06-3.918.555-7.817 1.474-11.626a49.36 49.36 0 014.553-11.552v-.162a56.463 56.463 0 018.723-11.464l-.192.103 2.653-2.461a6.571 6.571 0 00-.324 2.122c.04.345.114.686.22 1.017.113.344.271.671.472.972.187.318.426.602.708.84.36.319.76.586 1.193.796.595.31 1.237.52 1.9.619.443.08.892.12 1.342.117h.766a16.99 16.99 0 004.42-1.002 34.643 34.643 0 004.672-2.018 68.583 68.583 0 004.346-2.431c1.164-.708 2.329-1.474 3.478-2.167a96.795 96.795 0 005.113-3.477 78.43 78.43 0 006.542-5.32 1.475 1.475 0 000 .678c.088.359.248.695.472.988.255.338.57.628.928.854.325.189.671.337 1.032.442.443.123.897.202 1.355.236h.664l.058-.074zm15.413 24.27c.251-1.297.457-2.609.649-4.023.576-.191 1.168-.334 1.768-.428.319-.022.639-.022.958 0a6.4 6.4 0 01.751 0 6.36 6.36 0 011.474.369c.392.193.767.42 1.12.677.378.298.719.639 1.016 1.017a7.342 7.342 0 011.032 1.754c.341.856.574 1.752.692 2.667.101.98.101 1.967 0 2.947a13.985 13.985 0 01-.81 3.035 11.892 11.892 0 01-1.297 2.255c-.49.62-1.049 1.183-1.665 1.679a9.834 9.834 0 01-1.901 1.106c-.811.341-1.663.579-2.534.707h-1.709a12.958 12.958 0 01-1.474-.089 9.788 9.788 0 01-1.827-.486l-.251-.118a48.14 48.14 0 001.621-4.022 63.683 63.683 0 002.122-7.368h.133a.63.63 0 00.353-.088l.31-.133a7.762 7.762 0 011.473-.442c.27-.015.541-.015.811 0h.633c.447.071.886.185 1.312.339a7.87 7.87 0 011.179.678l.132.103a.751.751 0 00.545.236.808.808 0 00.56-.222.854.854 0 00.236-.633.734.734 0 00-.236-.501 6.484 6.484 0 00-1.915-1.164 6.724 6.724 0 00-1.96-.442h-.516a6.98 6.98 0 00-1.473.162c-.433.092-.857.22-1.267.383l-.045.044zm-64.79 77.845h-.147a57.277 57.277 0 01-5.482-2.697 56.133 56.133 0 01-5.57-3.61l-.162-.103a71.631 71.631 0 019.593-6.085l2.136-1.12a61.946 61.946 0 007.869-4.583 21.375 21.375 0 004.111-3.787c.523-.639.987-1.325 1.385-2.048a14.87 14.87 0 001.076-2.402 23.13 23.13 0 001.134-5.319c.195-1.87.244-3.752.148-5.629v-.648c2.61.689 5.3 1.036 8 1.031a34.377 34.377 0 004.613-.324l.928-.148 1.68-.309v.398a36.377 36.377 0 00.147 5.629 24.21 24.21 0 001.135 5.319c.289.828.644 1.631 1.061 2.402a13.65 13.65 0 001.4 2.048 21.378 21.378 0 004.11 3.787 61.673 61.673 0 007.84 4.568l2.166 1.135a69.55 69.55 0 019.49 6.026l1.193.958-.177.074-.132.088-.133.089-.133.088-.176.133c-.693.456-1.297.854-1.916 1.237l-.221.148-.354.191-.206.133-.221.118a59.2 59.2 0 01-6.395 3.227h-.147a64.86 64.86 0 01-15.65 4.243c-3.029.394-6.08.596-9.135.605a66.851 66.851 0 01-8.841-.575 59.986 59.986 0 01-3.286-.531 62.007 62.007 0 01-12.657-3.757h-.074zm.28 5.526h-.162a55.368 55.368 0 01-11.685-6.779 43.218 43.218 0 01-2.947-2.475l.427-.339 1.577-1.326c.206.191.442.368.692.56a54.779 54.779 0 005.585 3.595 62.248 62.248 0 0018.566 6.616 69.824 69.824 0 0012.319 1.15h.28a68.344 68.344 0 0011.876-1.061 60.695 60.695 0 0019.745-7.058l.295-.236.192-.103.162-.104.25-.147.206-.118.192-.118a45.687 45.687 0 001.93-1.237l.192-.118.133-.103.162-.104.147-.117.206-.133.266-.177.191-.162c.722.648 1.474 1.311 2.166 1.975a.348.348 0 00-.191.117l-.118.089-.133.132-.295.221-.147.118-.133.104-.206.162-.221.176-.118.118-.928.678-.486.339-.266.177-.235.177-.148.118-.147.088a86.524 86.524 0 01-3.433 2.166 66.238 66.238 0 01-5.968 2.947l-.177.074-.295.132a64.84 64.84 0 01-15.81 4.2 67.193 67.193 0 01-8.841.575 68.684 68.684 0 01-9.018-.605 63.212 63.212 0 01-15.65-4.17v-.014z" fill="#2C2C2C"/></svg>