<svg width="142" height="119" fill="none" xmlns="http://www.w3.org/2000/svg"><path d="M95.526 70.752a.378.378 0 00-.26.103l-.2.178-.082.049-.344.11-.137.04a5.12 5.12 0 00-.426.138c-.13.048-.257.108-.378.178a.762.762 0 00-.26.227.933.933 0 00-.09.426c.013.184.045.366.096.543.062.22.124.439.2.652.075.213.205.522.322.783l.11.24c.144.35.254.646.357.941l.103.33.2.577.102.288c.069.172.13.343.193.522.061.179.178.508.274.762.106.286.228.566.364.838l.275.598.096.213c.144.295.289.583.454.865l.24.446c.082.145.158.296.247.44.165.275.33.556.515.824.186.268.289.405.44.611l.062.083.11.144c.164.227.329.453.508.687l.391.446.234.268c.212.247.44.48.686.687.248.206.371.322.563.48l.165.138a9.9 9.9 0 00.783.597l.433.282.378.24.219.151c.206.138.406.275.625.399.297.165.61.301.934.405l.186.062.542.165c.269.08.542.146.818.199l.446.096c.151.027.302.048.453.062h.11c.268.034.536.055.804.075h.233c.464-.01.924-.072 1.374-.185.388-.08.769-.19 1.14-.33l.597-.22c.126-.04.247-.09.364-.15l.419-.241.536-.282a4.3 4.3 0 00.563-.35l.234-.158c.151-.096.302-.192.446-.302.275-.2.536-.412.797-.632a11.55 11.55 0 001.373-1.373c.216-.246.409-.51.577-.79l.062-.096c.151-.255.309-.509.481-.75l.068-.088c.185-.237.353-.487.502-.749l.46-.845c.153-.3.325-.592.515-.872.176-.262.339-.532.487-.81.289-.562.546-1.14.77-1.73l.144-.4.144-.398c.076-.206.137-.418.206-.638v-.096l.048-.165c.069-.234.138-.46.193-.687l.144-.529.041-.172.089-.322.09-.316c.041-.172.082-.344.116-.515v-.22c.033-.147.056-.296.069-.447a1.04 1.04 0 00-.048-.322.813.813 0 00-.33-.42 1.2 1.2 0 00-.46-.178l-.268-.055h-.13a1.372 1.372 0 00-.234-.04h-.137a.939.939 0 01-.186-.049l-.123-.055h-.124a.367.367 0 00-.185.048.528.528 0 00-.165.165 1.226 1.226 0 00-.082.172 3.43 3.43 0 00-.152.563v.226c-.041.186-.082.371-.13.557a9.132 9.132 0 01-.24.741c-.09.24-.138.44-.193.687v.103a5.478 5.478 0 01-.158.577c-.055.151-.116.295-.171.433l-.096.24-.104.247-.103.254v.049a16.54 16.54 0 01-1.016 2.005l-.288.501c-.097.172-.186.337-.289.502a9.163 9.163 0 01-.584.879c-.206.26-.432.515-.652.755-.22.24-.24.289-.357.44-.117.15-.199.24-.295.357-.097.117-.337.357-.516.535l-.226.227-.096.096-.248.248a5.154 5.154 0 01-.316.267l-.446.33a7.932 7.932 0 01-.453.275c-.151.082-.234.123-.344.178l-.233.117-.33.158a3.676 3.676 0 01-.515.165 5.403 5.403 0 00-.687.26h-.116c-.198.057-.4.099-.605.124l-.398.07-.234.04c-.365.035-.732.05-1.098.048h-1.099a1.136 1.136 0 01-.206-.061l-.357-.193a4.647 4.647 0 00-.316-.178l-.193-.096a4.688 4.688 0 01-.487-.255l-.378-.226c-.158-.096-.316-.206-.474-.316l-.096-.076-1.01-.686a3.529 3.529 0 01-.322-.323l-.172-.179-.137-.137a4.398 4.398 0 01-.357-.37c-.09-.131-.165-.269-.248-.406a5.368 5.368 0 00-.206-.323l-.075-.11c-.124-.178-.241-.364-.364-.556-.124-.192-.31-.48-.474-.687l-.192-.268c-.117-.158-.24-.316-.344-.48l-.192-.31a11.613 11.613 0 01-.302-.487c-.097-.165-.172-.282-.248-.426l-.247-.426-.055-.089a7.593 7.593 0 01-.398-.735c-.034-.09-.076-.22-.124-.35l-.089-.254c-.09-.248-.185-.502-.288-.749-.103-.247-.13-.309-.2-.467l-.144-.309c-.09-.213-.178-.419-.275-.632l-.034-.075a14.054 14.054 0 01-.44-1.181 6.02 6.02 0 01-.144-.502v-.117a2.463 2.463 0 00-.061-.24.624.624 0 00-.062-.117 1.59 1.59 0 00.13-.11l.062-.055a.329.329 0 00.103-.247.372.372 0 00-.103-.268.35.35 0 00-.254-.103" fill="#A3C0B6"/><path d="M104.303 84.164a.365.365 0 000 .502c.097.105.203.201.316.288.163.105.339.19.522.254.206.062.418.103.632.124.185 0 .378 0 .57.048a.366.366 0 00.227-.041.337.337 0 00.164-.213.353.353 0 00.012-.141.355.355 0 00-.046-.134.34.34 0 00-.213-.165c-.24-.04-.481-.048-.728-.075a2.774 2.774 0 01-.529-.138l-.192-.11a1.9 1.9 0 01-.206-.199.327.327 0 00-.247-.11.377.377 0 00-.261.11" fill="#419A6F"/><path d="M87.01 101.911a.351.351 0 00-.26.117.348.348 0 00-.104.247V109.747a.91.91 0 000 .13.588.588 0 00.268.467c.124.101.258.191.398.268.115.066.225.14.33.22.178.144.357.288.529.44.171.151.357.288.535.425l.11.083.069.048c.143.115.294.218.453.309.096.055.2.096.296.144l.185.089.082.048a.551.551 0 00.097.172c.042.049.088.095.137.138l.062.054.171.158c.117.11.24.213.364.309l.124.097c.22.171.44.35.687.515.343.261.687.529 1.01.817l.185.144.068.062.062.048c.066.063.138.12.213.172.1.082.218.141.343.171h.124c.041.007.083.007.124 0l.13-.034a1.84 1.84 0 00.385-.192c.225-.154.438-.324.639-.508l.302-.255c.247-.178.515-.336.776-.487l.453-.268.213-.151.082-.055.316-.213.234-.144c.132-.076.26-.159.384-.247l.09-.055c.309-.22.638-.447.934-.687l.281-.24.275-.248.33-.268.267-.199.261-.199c.095-.071.194-.138.296-.199.079-.047.155-.1.226-.158a.711.711 0 00.206-.398c.059-.32.089-.644.09-.969v-.982-1.044-.535-.378-.996-1.215V103.14v-.309-.412a.403.403 0 00-.199-.378.895.895 0 00-.289-.062l-.543-.041h-.83c-.323 0-.646 0-.969.035H95.61c-.33 0-.687-.042-.99-.083a6.346 6.346 0 00-.803-.048h-.165c-.199 0-.391 0-.59.048h-4.458c-.281 0-.563 0-.837.041h-.378a.47.47 0 00-.378-.24" fill="#A3C0B6"/><path d="M100.224 99.335h-.879c-.385 0-.77 0-1.16.035h-8.668l-1.422-.104h-1.284a.933.933 0 00-.275.076.273.273 0 00-.089 0 .39.39 0 00-.398.35 7.272 7.272 0 000 1.285v.075a1.56 1.56 0 000 .316.372.372 0 00.165.254c.079.054.172.085.267.089.13.028.26.044.392.048h.13c.213 0 .433 0 .646-.048l.35-.041H101a.687.687 0 00.268-.055.487.487 0 00.274-.494c.004-.06.004-.119 0-.179v-.213-.906a.651.651 0 00-.048-.213.514.514 0 00-.151-.172.597.597 0 00-.254-.103 1.52 1.52 0 00-.295-.055H100.21" fill="#F4DBD8"/><path d="M129.391 92.358a.333.333 0 00-.12.057.334.334 0 00-.086.1.387.387 0 00-.041.275c.288 1.722.549 3.446.783 5.172v-.09a158.532 158.532 0 011.428 20.411h.687a159.32 159.32 0 00-2.225-25.678.339.339 0 00-.158-.213.343.343 0 00-.179-.055.274.274 0 00-.103 0M106.199 38.068a19.992 19.992 0 01-.591 1.545c-.213.508-.467 1.12-.687 1.69a10.988 10.988 0 00-.501 1.675c-.053.259-.085.52-.096.783-.018.25-.004.502.041.749.061.41.251.79.542 1.085a2.2 2.2 0 001.017.55c.203.05.41.087.618.11.215.013.431.013.645 0 .46-.006.919-.04 1.374-.104a.436.436 0 00.254-.103.384.384 0 000-.508.334.334 0 00-.254-.096 8.607 8.607 0 01-2.143.055h.096a3.039 3.039 0 01-.652-.172 1.612 1.612 0 01-.302-.171 1.493 1.493 0 01-.213-.206 1.717 1.717 0 01-.144-.248 2.336 2.336 0 01-.124-.425 4.487 4.487 0 010-.852 12.03 12.03 0 01.797-2.61c.35-.858.741-1.703 1.023-2.589a.362.362 0 00-.254-.44h-.089a.365.365 0 00-.344.261l-.013.021zm-1.12 5.288zm.694 1.964h.048-.048zM97.62 44.256c.942 0 1.704-1.065 1.704-2.37 0-1.305-.762-2.369-1.703-2.369-.941 0-1.703 1.058-1.703 2.37 0 1.311.762 2.369 1.703 2.369zM115.697 43.899c-.941 0-1.703-1.065-1.703-2.37 0-1.304.762-2.369 1.703-2.369.941 0 1.71 1.058 1.71 2.37 0 1.311-.769 2.369-1.71 2.369zM97.435 32.663a6.096 6.096 0 00-.79.048c-.296.051-.59.12-.879.206-1.032.3-1.96.883-2.678 1.683a.687.687 0 00-.137.522.69.69 0 00.803.604c.19-.029.362-.13.481-.281l.041-.048c.27-.264.57-.494.893-.687.37-.204.761-.366 1.168-.481a5.248 5.248 0 011.03-.151c.293.004.585.037.872.096l.213.069a.716.716 0 00.522-1.333 4.739 4.739 0 00-1.511-.247h-.028zm-1.12 1.566h-.075.076zm-1.95 1.078l-.075.076.075-.076zM115.374 32.299c.266-.001.532.015.797.048.296.052.59.12.879.206a5.795 5.795 0 012.678 1.683.694.694 0 01.131.522.682.682 0 01-.271.477.68.68 0 01-.533.127.728.728 0 01-.474-.282l-.048-.048a4.543 4.543 0 00-.893-.686 5.429 5.429 0 00-1.167-.481 5.177 5.177 0 00-1.023-.151 4.64 4.64 0 00-.873.096l-.213.069a.734.734 0 01-.985-.682.675.675 0 01.221-.506.683.683 0 01.242-.145 4.743 4.743 0 011.511-.247h.021zm1.119 1.566h.083-.083zm1.958 1.078l.068.076-.068-.076zM109.893 47.875v.138a.095.095 0 010 .04v.11c0 .09 0 .18-.034.269a5.05 5.05 0 01-.268.995 4.432 4.432 0 01-.481.797 4.01 4.01 0 01-.59.597c-.198.145-.41.27-.632.371a3.316 3.316 0 01-.632.172 3.16 3.16 0 01-.721 0 3.296 3.296 0 01-.632-.172 3.627 3.627 0 01-.632-.37 3.733 3.733 0 01-.57-.57 4.3 4.3 0 01-.481-.818 4.97 4.97 0 01-.288-1.05v-.11a.365.365 0 00-.103-.255.385.385 0 00-.254-.103.348.348 0 00-.247.103.35.35 0 00-.11.255c.038.341.107.68.206 1.01.059.2.135.395.226.583.212.46.508.878.873 1.23a3.315 3.315 0 004.416.301c.42-.323.775-.724 1.043-1.18.206-.354.363-.733.468-1.127a5.12 5.12 0 00.157-.969.378.378 0 010-.082v-.151a.354.354 0 00-.343-.26.356.356 0 00-.343.26l-.028-.014zm-.288 1.593zm-4.945.756v.034-.034zm1.264 1.01h.034-.034zM86.193 105.942c0 .749-.041 1.504-.055 2.253 0 .377 0 .762-.034 1.14v.81a.337.337 0 00.103.254l.178.131.282.219.412.316.934.687 1.696 1.305 3.64 2.795a.364.364 0 00.364 0l4.169-2.891 1.95-1.374.996-.687c.098-.063.192-.131.282-.206a.393.393 0 00.11-.254v-.625c.064-2.706.13-5.414.199-8.124h-.405l-.309-.035-.206 8.626-6.971 4.808-6.724-5.117.206-8.351h-.494l-.22-.034-.103 4.381" fill="#2C2C2C"/><path d="M85.973 98.937h-.082a.364.364 0 00-.357.357v2.623a.36.36 0 00.357.351h15.837a.36.36 0 00.357-.351v-2.623a.364.364 0 00-.357-.357H85.973zm15.398 2.623h-15.11v-1.888h15.11v1.888z" fill="#2C2C2C"/><path d="M110.299 0c-.87-.001-1.739.07-2.596.213-.913.149-1.804.412-2.651.783a7.308 7.308 0 00-2.109 1.373 6.069 6.069 0 00-.769.914 4.603 4.603 0 00-.33.556 3.203 3.203 0 00-.432-.488 5.046 5.046 0 00-.927-.686 6.613 6.613 0 00-2.123-.742 9.615 9.615 0 00-1.696-.144c-.973.01-1.942.123-2.891.336a13.963 13.963 0 00-4.554 1.93 12.32 12.32 0 00-3.598 3.496 8.931 8.931 0 00-1.216 2.747 8.312 8.312 0 00-.213 1.47c-.025.458-.009.918.048 1.373h-.329l-.488.069a3.143 3.143 0 00-.44.103c-.895.269-1.739.69-2.492 1.243a10.036 10.036 0 00-2.521 2.678 10.38 10.38 0 00-1.422 3.345 8.116 8.116 0 00-.075 3.468c.105.507.274.998.501 1.463.23.47.52.906.866 1.298a6.654 6.654 0 002.712 1.806 9.135 9.135 0 00-1.524 6.971 8.2 8.2 0 004.175 5.755 7.068 7.068 0 00-.584 1.463 5.604 5.604 0 00.152 3.53c.092.237.202.467.33.687.133.22.282.432.446.632.431.513.952.943 1.538 1.27a6.008 6.008 0 002.06.728c.314.047.63.07.948.069a7.319 7.319 0 001.072-.083c0 .323 0 .653.04.976.063.93.229 1.852.495 2.747.135.41.295.812.48 1.202.198.4.427.784.688 1.146a12.362 12.362 0 003.365 3.146 17.367 17.367 0 004.327 1.95c.528.165 1.078.31 1.634.44.029.642.004 1.285-.075 1.923a11.568 11.568 0 01-.756 2.747 10.628 10.628 0 01-1.298 2.26 9.138 9.138 0 01-1.449 1.462c-.465.353-.97.65-1.504.886-.302.124-.618.227-.927.33l-.186.062-1.414.46-1.532.467-1.174.37a42.028 42.028 0 00-5.124 1.89 19.364 19.364 0 00-4.656 3.007 18.91 18.91 0 00-3.64 4.43 24.952 24.952 0 00-2.321 5.165 35.717 35.717 0 00-1.312 5.57c-.316 1.977-.494 3.948-.687 6.18a149.721 149.721 0 00-.412 6.868 162.069 162.069 0 000 13.049h.721a156.789 156.789 0 01-.048-12.211c.076-2.06.193-4.237.35-6.449.083-1.085.172-2.17.275-3.248.103-1.078.186-1.923.302-2.802a34.432 34.432 0 012.253-8.77 22.235 22.235 0 012.747-4.76 17.71 17.71 0 013.139-3.152 18.307 18.307 0 012.06-1.374 23.157 23.157 0 012.335-1.147c1.62-.686 3.283-1.201 5.13-1.771l.289-.083 1.483-.46a36.812 36.812 0 001.697 5.343l.034.069a28.074 28.074 0 002.548 4.91 17.495 17.495 0 003.942 4.34c.416.318.852.61 1.305.873.44.262.9.491 1.373.687a9.367 9.367 0 002.885.645h.494a9.26 9.26 0 002.603-.398 10.464 10.464 0 002.816-1.374 15.66 15.66 0 003.791-3.715 28.465 28.465 0 004.011-7.919l.048-.158.048-.137v-.076c.158-.494.309-.975.439-1.456l.042-.13v-.192c0-.069 0-.117.041-.165l.041-.158.041-.165.055-.199.041-.179.976.31c1.847.57 3.509 1.091 5.13 1.771a20.61 20.61 0 012.335 1.147c.718.41 1.406.868 2.06 1.374a17.965 17.965 0 013.139 3.152 22.26 22.26 0 012.747 4.76 34.435 34.435 0 012.252 8.77c.117.886.206 1.772.303 2.815.096 1.044.192 2.164.274 3.249.158 2.211.275 4.381.351 6.449.137 4.12.123 8.159-.049 11.984h.722a140.04 140.04 0 000-12.815c-.09-2.253-.227-4.554-.412-6.868-.186-2.315-.358-4.169-.687-6.181a35.707 35.707 0 00-1.312-5.57 25.324 25.324 0 00-2.321-5.164 18.329 18.329 0 00-8.297-7.431 43.293 43.293 0 00-5.123-1.896l-1.167-.357-1.525-.474-1.422-.453-.185-.062c-.309-.11-.625-.213-.927-.336a7.473 7.473 0 01-1.504-.88 9.16 9.16 0 01-1.449-1.47 10.545 10.545 0 01-1.298-2.252 11.85 11.85 0 01-.756-2.747 10.87 10.87 0 01-.055-2.156 27.884 27.884 0 004.602-1.374 15.865 15.865 0 004.306-2.459c.281-.234.549-.484.803-.748.313-.331.583-.7.804-1.099.21-.366.387-.75.529-1.147.157-.448.284-.907.377-1.373.125-.6.218-1.205.282-1.814.062-.515.11-1.037.151-1.558a.138.138 0 00.082.04c.408.073.822.11 1.237.11.322 0 .643-.025.961-.075a5.857 5.857 0 002.06-.721 5.548 5.548 0 001.539-1.278 5.34 5.34 0 00.446-.624c.127-.22.237-.45.33-.687a5.536 5.536 0 00.144-3.523 6.537 6.537 0 00-.687-1.656 6.406 6.406 0 002.699-1.84c.459-.489.871-1.02 1.23-1.587.373-.576.697-1.182.968-1.813.46-1.085 1.799-4.807-.515-6.984a3.706 3.706 0 00-.44-.364c.083-.03.161-.068.234-.117.245-.15.475-.326.687-.522.377-.371.682-.809.899-1.291a6.861 6.861 0 00.55-3.379 9.666 9.666 0 00-.907-3.523 6.47 6.47 0 00-2.094-2.582 4.135 4.135 0 00-.825-.44 4.062 4.062 0 00-.377-.123c.287-.461.517-.955.686-1.47a5.745 5.745 0 00.268-1.896 6.546 6.546 0 00-1.16-3.495 9.779 9.779 0 00-2.83-2.747 11.274 11.274 0 00-3.75-1.587 9.25 9.25 0 00-2.026-.227c-.247 0-.494 0-.741.035a7.167 7.167 0 00-2.28.57 4.894 4.894 0 00-.371-1.023 5.963 5.963 0 00-.831-1.216 6.776 6.776 0 00-1.134-1.058 10.727 10.727 0 00-1.373-.872 13.938 13.938 0 00-3.29-1.23 17.541 17.541 0 00-3.646-.473h-.351l.193-.007zm.872 27.636a8.04 8.04 0 002.527-.398 6.267 6.267 0 002.939-2.026 6.07 6.07 0 00.728-1.161 4.42 4.42 0 00.22-.529c.148.248.323.478.522.687.467.528 1.02.974 1.635 1.319.571.33 1.2.547 1.854.638h.426c.304.001.607-.04.899-.123a8.223 8.223 0 00-.309 3.248c.036.308.091.613.165.913.09.331.205.655.344.969.233.522.543 1.006.92 1.435a6.862 6.862 0 00-1.305 3.544c-.014.33.004.662.055.989.056.345.16.68.309.996.291.58.751 1.058 1.319 1.373v3.922c0 1.627-.042 3.056-.103 4.354-.042.748-.097 1.49-.158 2.239-.055.563-.11 1.12-.186 1.682-.12.963-.362 1.907-.721 2.81a6.27 6.27 0 01-.687 1.194 8.076 8.076 0 01-1.373 1.333 15.671 15.671 0 01-3.386 1.916 29.313 29.313 0 01-7.266 1.923 30.23 30.23 0 01-3.949.254 30.99 30.99 0 01-3.99-.261 22.812 22.812 0 01-5.542-1.45 15.523 15.523 0 01-3.276-1.854l-.055-.04a11.906 11.906 0 01-2.02-2.013c-.178-.234-.35-.467-.508-.687-.2-.317-.374-.65-.522-.996v-.061a9.723 9.723 0 01-.625-2.473 27.505 27.505 0 01-.103-4.333V46.7c0-.611.042-1.216.049-1.82 0-.914 0-1.827.054-2.747.055-.92.076-1.649.124-2.473a5.37 5.37 0 00.563-.412c.257-.23.487-.488.687-.769a4.348 4.348 0 00.77-1.902 6.18 6.18 0 00.068-1.106 3.522 3.522 0 00-.165-.913c-.069-.227-.151-.447-.234-.687l-.11-.316a4.639 4.639 0 01-.24-.831 1.712 1.712 0 010-.192.827.827 0 01.124-.213c.178-.227.378-.44.577-.653.243-.238.472-.49.687-.755.084-.125.155-.259.212-.399.087-.183.163-.37.227-.563.14-.394.242-.801.302-1.215a6.868 6.868 0 00-.22-3.139l.18.137a7.7 7.7 0 001.627.831c.949.344 1.95.518 2.96.516.254 0 .515 0 .776-.035a6.993 6.993 0 003.434-1.209 5.183 5.183 0 001.243-1.263c.177-.255.329-.526.453-.81.097.122.187.25.268.384.202.296.432.572.687.824.439.467.932.88 1.469 1.23a8.78 8.78 0 003.558 1.304c.38.055.763.082 1.147.083l-.055.048zM86.309 39.263a3.43 3.43 0 01.763-.206 1.89 1.89 0 01.281 0c.108-.007.216-.007.323 0 .204.04.404.097.598.172.198.093.386.206.563.336.229.184.44.389.632.611 0 .474-.055.914-.076 1.374v.192a3.037 3.037 0 00-.364-.364 3.834 3.834 0 00-1.167-.639 2.94 2.94 0 00-.9-.137 2.724 2.724 0 00-.412 0 3.07 3.07 0 00-1.374.57.37.37 0 00-.176.357.366.366 0 00.046.138.391.391 0 00.33.185c.061 0 .12-.02.171-.055.179-.134.372-.247.577-.336.172-.07.352-.118.536-.145.094-.006.188-.006.281 0h.323c.215.042.427.102.632.179.212.1.414.22.604.357.206.166.395.352.564.556.086.117.166.239.24.364.015.03.036.056.062.076V44.936c0 .59 0 1.181-.042 1.772 0 .72-.048 1.435-.048 2.15l-.233.034h-.069c-.185 0-.44.034-.687.034a6.04 6.04 0 01-.686-.041c-.47-.07-.931-.192-1.374-.364a5.083 5.083 0 01-2.06-1.525 5.094 5.094 0 01-.53-.913 4.81 4.81 0 01-.294-1.092 5.728 5.728 0 010-1.374c.08-.514.22-1.016.419-1.497a7.11 7.11 0 01.824-1.415 6.277 6.277 0 011.002-1.002l-.075.048c.264-.186.541-.352.83-.495h.049l-.082.007zm39.428.37c.18-.133.374-.248.577-.343.19-.076.388-.132.591-.164.107-.008.215-.008.323 0h.281c.267.037.528.108.776.213.301.138.587.308.852.508l-.055-.062c.356.292.681.622.968.982.339.445.623.93.845 1.442.2.48.343.983.426 1.497.048.439.048.88 0 1.319a4.7 4.7 0 01-.309 1.147c-.14.315-.313.614-.515.893-.255.314-.543.6-.859.851-.375.27-.778.5-1.202.687a6.327 6.327 0 01-1.373.364h-.687c-.25 0-.5-.014-.749-.041h-.377a.235.235 0 00-.124 0c.103-1.374.158-2.87.179-4.69v-1.43l.233-.343c.168-.202.354-.388.556-.556.193-.135.398-.252.612-.35a3.31 3.31 0 01.625-.186h.611c.183.03.362.079.536.145.203.09.397.203.576.336.05.037.11.056.172.055a.382.382 0 00.323-.185.4.4 0 00.041-.282.382.382 0 00-.172-.213 3.01 3.01 0 00-1.373-.57 2.608 2.608 0 00-.405 0 2.75 2.75 0 00-.9.144 3.632 3.632 0 00-1.168.639 2.428 2.428 0 00-.274.247v-1.559c.133-.144.275-.279.426-.405h.034l-.021-.09zM106.569 61.9c.495 0 .989 0 1.484-.034a30.384 30.384 0 004.272-.509c-.048.764-.013 1.531.103 2.288.227 1.53.762 3 1.572 4.32a9.3 9.3 0 001.374 1.771c.52.522 1.109.97 1.751 1.332.268.14.543.267.824.378a.247.247 0 00-.089.145l-.041.157v.316c-.017.05-.031.1-.041.151l-.042.151a.592.592 0 000 .104v.151c-.103.343-.199.686-.309 1.016l-.034.103v.069l-.089.281v.069c-.158.474-.33.934-.515 1.374l-.158.391V75.999a21.027 21.027 0 01-2.713 4.443 12.867 12.867 0 01-2.212 2.266c-.605.476-1.27.87-1.977 1.175a7.8 7.8 0 01-1.759.48 8.05 8.05 0 01-.824.049 7.903 7.903 0 01-.803-.049h-.083a8.456 8.456 0 01-1.737-.5h-.076a10.82 10.82 0 01-1.854-1.127 13.7 13.7 0 01-2.191-2.225l-.048-.062a21.242 21.242 0 01-2.582-4.533v-.069a31.867 31.867 0 01-1.573-5.027 7.671 7.671 0 001.696-1.284 9.528 9.528 0 001.374-1.772c.402-.651.738-1.341 1.003-2.06.268-.729.459-1.484.57-2.253.102-.682.143-1.371.123-2.06.749.151 1.539.275 2.404.37 1.068.112 2.141.167 3.214.165l-.014-.027zM95.375 77.6l-.144-.344a38.89 38.89 0 01-1.724-5.425l.254-.076.172-.055a18.31 18.31 0 001.559-.556 30.036 30.036 0 001.373 4.45 22.107 22.107 0 002.624 4.904 12.007 12.007 0 004.368 3.867 8.53 8.53 0 001.339.5c.448.128.908.211 1.373.248h.55a7.42 7.42 0 002.335-.398 8.854 8.854 0 002.665-1.47 13.017 13.017 0 002.293-2.335 21.026 21.026 0 002.857-5.123c.199-.495.364-.955.522-1.415l.062-.165.034-.13.042-.11c.144-.454.261-.838.37-1.23v-.226l.055-.206v-.186l.055-.233.035-.124a.338.338 0 000-.11c.233.09.474.165.721.248l.165.055c.343.11.686.226 1.044.33l-.076.301V72.997c0 .083-.034.117-.041.158l-.103.378c-.144.495-.289.968-.44 1.435l-.041.124-.096.295a36.388 36.388 0 01-.852 2.253 26.73 26.73 0 01-3.022 5.384l-.164.213a16.323 16.323 0 01-2.802 2.857 11.894 11.894 0 01-2.37 1.374h-.034c-.71.269-1.447.462-2.198.577a8.91 8.91 0 01-1.051.061 9.942 9.942 0 01-1.009-.054h-.089a10.12 10.12 0 01-2.184-.619 11.517 11.517 0 01-2.349-1.373h-.034a17.453 17.453 0 01-2.802-2.878 25.906 25.906 0 01-3.242-5.686v.103z" fill="#2C2C2C"/><path d="M12.976 75.715a1.8 1.8 0 00-.192.117c-.13.103-.275.185-.412.281-.138.096-.234.158-.337.247-.103.09-.172.165-.254.248a.358.358 0 00.501.5l.289-.274c.213-.144.426-.275.625-.426a.685.685 0 01.15-.096.355.355 0 00-.178-.687.406.406 0 00-.178.049" fill="#44A8A3"/><path d="M46.855 76.532l-.24.213c-.44.33-.894.625-1.374.92l-.543.357-.618.261c-.33.13-.687.275-.975.412l-.364.151-.797.316c-.134.06-.272.113-.412.158l-.728.275-1.12.385-1.043.35c-.481.158-.955.309-1.442.446l-.344.076-.687.041-.879.082c-.584.062-1.16.145-1.737.22-.577.076-1.202.144-1.8.227a.364.364 0 00-.254.103.37.37 0 00-.103.254c.003.092.04.18.103.247l.048.041h-.04a.336.336 0 00-.214.158.37.37 0 00-.034.282.385.385 0 00.165.213.378.378 0 00.274.034H31.903h-.068l.584-.069a.134.134 0 000 .049.274.274 0 000 .103c-.275 0-.55.04-.818.048-.267.006-.686 0-1.071 0-.385 0-.742 0-1.113-.048l-1.05-.062a63.599 63.599 0 01-2.15-.22l-1.772-.192a25.12 25.12 0 01-2.15-.378 29.96 29.96 0 01-1.002-.268 9.368 9.368 0 01-1.065-.391h-.04l-.736-.31.083.035c-.302-.137-.605-.275-.9-.426-.295-.15-.611-.357-.927-.529-.584-.322-1.202-.59-1.758-.954a18.766 18.766 0 01-.77-.515c-.254-.179-.556-.406-.851-.591a8.963 8.963 0 01-.776-.529l-.783-.59c-.137-.11-.282-.227-.426-.33a.324.324 0 00-.275-.034.335.335 0 00-.213.164.35.35 0 00-.034.275.385.385 0 00.165.213l.165.124-.069-.055.838.638c.267.213.544.413.831.598.295.192.59.384.872.59.282.207.556.399.845.584.288.186.577.35.872.502.296.15.646.322.962.501l.947.536c.33.178.687.336 1.017.48l.309.124c.33.144.687.295 1.003.419.316.124.604.192.906.282.611.164 1.23.288 1.848.398.618.11 1.373.192 2.026.268.315.034.631.061.94.103l1.079.117c.686.082 1.414.116 2.122.157.37 0 .748.035 1.126.042.378.007.687 0 1.078 0 .392 0 .687-.042 1.051-.076l1.058-.117c.364-.048.72-.075 1.085-.13l.948-.158c.528-.096 1.064-.192 1.593-.302l.385-.076c.196-.031.39-.072.583-.124.186-.04.371-.082.55-.137.178-.055.405-.144.604-.226l.206-.062c.302-.103.598-.2.893-.316l.92-.357c.323-.138.639-.289.948-.447l.92-.453a23.716 23.716 0 001.758-.92c.227-.13.447-.268.687-.42.24-.15.371-.274.563-.39l.687-.433c.158-.11.323-.227.495-.337.16-.095.313-.2.46-.316a.79.79 0 00.192-.281.624.624 0 00-.082-.55 1.524 1.524 0 00-.53-.474.81.81 0 00-.377-.164.686.686 0 00-.426.213l-.02-.028zM19.597 81.8h.034-.035zm4.807.528h.069-.07z" fill="#58AF9B"/><path d="M12.736 76.093a.35.35 0 00-.048.432.299.299 0 000 .076c0 .075 0 .15-.035.22v.047a.364.364 0 000 .488c.08.077.168.146.261.206l.145.11.26.192.632.488c.405.302.81.604 1.223.886.199.144.391.281.597.412l.433.275.288.178.687.378c.27.153.55.287.838.398a.35.35 0 00.275-.04h.034l.22.095.687.31c.37.164.755.295 1.14.439.384.144.735.247 1.098.364.364.117.687.213 1.024.316.336.103.776.206 1.167.295l.412.082c.227.042.454.09.687.117l.605.076.576.04h.234c.453.11.927.173 1.373.241l.433.069.776.076c.392.04.776.055 1.168.068h1.002c.193 0 .509 0 .77-.062.234-.02.465-.071.686-.15a.685.685 0 00.206-.09.295.295 0 00.083-.076h.577a.364.364 0 00.357-.357.36.36 0 00-.11-.254.398.398 0 00-.247-.103h-.742l-.062-.034h.117c.192 0 .391-.041.577-.082a.262.262 0 00.117-.055h.075c.158 0 .31 0 .467-.035l.48-.041 1.374-.165a.399.399 0 00.248-.103.358.358 0 00.11-.254.345.345 0 00-.11-.247.332.332 0 00-.248-.11l-1.373.165-.48.041c-.166 0-.337.034-.51.034h-.322a.35.35 0 00-.343-.281c-1.044.048-2.06.089-3.125.11h-1.168l-.686-.035H26.649a.418.418 0 00-.164-.103l-.186-.061a1.897 1.897 0 00-.336-.055l-.302-.042-.474-.055-.948-.116c-.577-.097-1.16-.179-1.73-.289l-.591-.117-.941-.274a.392.392 0 000-.09.372.372 0 00-.172-.309 3.386 3.386 0 00-.686-.295l-.433-.151-.92-.275-.88-.281-.137-.041-.33-.124-.15-.124a4.253 4.253 0 00-.474-.302l-.577-.316c-.337-.178-.687-.343-1.024-.522-.336-.178-.748-.391-1.105-.611-.158-.096-.323-.192-.474-.295a7.988 7.988 0 00-.474-.302.364.364 0 00-.433.055l.028-.055zm.48.054l.055.042a.123.123 0 00-.048-.035l-.007-.007zM13.738 88.029a.357.357 0 00-.123.487l2.122 2.98c.05.08.125.138.213.166a.384.384 0 00.274-.042.357.357 0 00.131-.487l-2.129-2.974a.391.391 0 00-.213-.165h-.09a.412.412 0 00-.185.048M24.892 87.857a.405.405 0 00-.207.165l-2.19 3.063a.357.357 0 00.123.488.384.384 0 00.275.04.392.392 0 00.213-.164l2.19-3.07a.364.364 0 00-.123-.488.465.465 0 00-.185-.048h-.096M31.938 87.919a.364.364 0 00-.13.487l2.266 3.173c.049.079.124.137.212.165a.358.358 0 00.398-.529c-.748-1.057-1.503-2.108-2.259-3.166a.364.364 0 00-.213-.165h-.096a.329.329 0 00-.178.049M42.837 87.919a.399.399 0 00-.22.165l-2.06 2.918a.37.37 0 00.13.495.35.35 0 00.275 0 .357.357 0 00.213-.158l2.06-2.926a.357.357 0 00-.123-.487.33.33 0 00-.179-.049h-.096M48.558 87.878a.357.357 0 00-.13.487c.69.976 1.378 1.949 2.06 2.92a.364.364 0 00.354.175.35.35 0 00.296-.264.357.357 0 00-.039-.269l-2.06-2.919a.413.413 0 00-.22-.165h-.09a.384.384 0 00-.178.048M8.244 88.44a.364.364 0 00-.213.166l-.04.047-2.253 3.153a.364.364 0 00.123.487.356.356 0 00.488-.13l2.3-3.207a.357.357 0 00-.123-.488.406.406 0 00-.179-.048h-.096" fill="#58AF9B"/><path d="M8.423 88.145a.364.364 0 00-.213.165l-.9 1.257a.357.357 0 00.405.522.384.384 0 00.213-.158l.9-1.264a.35.35 0 00-.13-.487.406.406 0 00-.18-.048h-.095M19.081 96.421a.357.357 0 00-.13.488l2.342 3.276c.049.078.125.136.213.164a.382.382 0 00.274-.041.355.355 0 00.13-.488 561.54 561.54 0 01-2.341-3.275.391.391 0 00-.213-.165h-.09a.344.344 0 00-.185.048M29.363 95.885a.391.391 0 00-.213.165l-2.198 3.077a.364.364 0 00.13.488.35.35 0 00.275.034.391.391 0 00.213-.165c.728-1.023 1.463-2.06 2.19-3.077a.357.357 0 00-.123-.487.44.44 0 00-.185-.048h-.09M35.873 96.07a.35.35 0 00-.13.488l2.396 3.359a.36.36 0 00.213.158.353.353 0 00.44-.251.357.357 0 00-.035-.271l-2.397-3.331a.37.37 0 00-.22-.158.22.22 0 00-.096 0 .296.296 0 00-.171.048M47.638 96.826a.392.392 0 00-.213.165l-2.06 2.843a.356.356 0 00.123.488.387.387 0 00.275.041.389.389 0 00.212-.165l2.06-2.843a.356.356 0 00-.123-.495.439.439 0 00-.185-.048h-.09M3.135 98.653a.35.35 0 00-.124.487l2.617 3.668c.049.078.124.137.212.165a.338.338 0 00.142.007.337.337 0 00.133-.049.356.356 0 00.13-.487l-2.623-3.66a.337.337 0 00-.213-.166.236.236 0 00-.096 0 .33.33 0 00-.178.049M13.738 97.856a.336.336 0 00-.213.165c-.83 1.154-1.655 2.315-2.486 3.475a.365.365 0 00.124.488.355.355 0 00.275.034.336.336 0 00.213-.165c.83-1.153 1.655-2.314 2.486-3.475a.357.357 0 00-.124-.487.33.33 0 00-.178-.048h-.097M53.358 97.15a.357.357 0 00-.13.487l2.06 2.884a.35.35 0 00.48.131.358.358 0 00.13-.488L53.84 97.28a.336.336 0 00-.213-.165.236.236 0 00-.096 0 .33.33 0 00-.179.048M14.46 105.212a.355.355 0 00-.131.487l2.493 3.489c.05.075.122.133.206.165a.4.4 0 00.282-.041.359.359 0 00.123-.488c-.824-1.16-1.662-2.321-2.486-3.489a.422.422 0 00-.213-.164h-.096a.322.322 0 00-.178.048M25.166 105.61a.393.393 0 00-.213.165l-2.026 2.809a.363.363 0 00.124.487.37.37 0 00.282.035.38.38 0 00.213-.165l2.06-2.836a.366.366 0 00-.13-.488.399.399 0 00-.18-.048h-.095M30.908 105.926a.355.355 0 00-.13.488c.734 1.023 1.455 2.06 2.183 3.063.052.079.13.137.22.165a.34.34 0 00.268-.042.336.336 0 00.168-.212.344.344 0 00-.038-.268l-2.184-3.063a.358.358 0 00-.212-.165h-.097a.399.399 0 00-.178.048M42.15 105.555a.419.419 0 00-.213.165l-2.101 2.96a.356.356 0 00.123.488c.09.037.192.037.282 0a.373.373 0 00.206-.165c.687-.982 1.408-1.971 2.115-2.96a.358.358 0 00-.13-.488.412.412 0 00-.179-.048h-.096M47.905 106.173a.36.36 0 00-.13.488c.59.824 1.181 1.641 1.765 2.465.047.08.123.139.213.165a.344.344 0 00.22 0v-.371-.371c-.53-.748-1.065-1.49-1.6-2.238a.332.332 0 00-.213-.165h-.09a.43.43 0 00-.185.048M58.647 106.153a.336.336 0 00-.213.165l-2.253 3.152a.347.347 0 00.024.397.338.338 0 00.107.09.337.337 0 00.268.035.378.378 0 00.22-.165l2.245-3.152a.354.354 0 00-.02-.396.352.352 0 00-.282-.14h-.096M.628 108.247v.962l1.044 1.449a.341.341 0 00.213.165.348.348 0 00.38-.123.35.35 0 00.018-.399L.69 108.069a1.927 1.927 0 000 .199M10.099 107.334a.389.389 0 00-.213.165l-2.06 2.912a.363.363 0 00.13.487.354.354 0 00.488-.13l2.06-2.905a.358.358 0 00-.13-.488.353.353 0 00-.18-.055H10.1M12.241 114.078a.356.356 0 00-.169.216.352.352 0 00.039.272l1.785 2.493c.05.078.125.136.213.164a.342.342 0 00.275 0 .36.36 0 00.13-.487l-1.785-2.5a.393.393 0 00-.213-.165h-.096a.33.33 0 00-.179.048M23.607 114.415a.391.391 0 00-.212.164l-1.752 2.452a.354.354 0 00.024.397c.03.037.065.068.107.091a.352.352 0 00.274.034.37.37 0 00.206-.165 315.01 315.01 0 001.752-2.451.359.359 0 00-.124-.488.43.43 0 00-.185-.048h-.09M29.136 114.257a.355.355 0 00-.13.487l2.005 2.816c.05.08.128.139.22.165a.374.374 0 00.371-.131.36.36 0 00.07-.261.349.349 0 00-.043-.13l-2.006-2.816a.383.383 0 00-.22-.165h-.089a.339.339 0 00-.178.048M40.825 114.305a.36.36 0 00-.213.164l-1.848 2.583a.357.357 0 00.13.487.341.341 0 00.276 0 .36.36 0 00.212-.164l1.848-2.583a.358.358 0 00-.31-.535.223.223 0 00-.095 0M46.978 114.682a.358.358 0 00-.13.488l1.737 2.431a.427.427 0 00.213.165.387.387 0 00.275-.041.358.358 0 00.123-.488l-1.73-2.424a.366.366 0 00-.213-.165.223.223 0 00-.096 0 .33.33 0 00-.179.048M58.05 115.026a.388.388 0 00-.213.165l-1.6 2.245a.358.358 0 00.617.357l1.6-2.245a.353.353 0 00-.026-.391.347.347 0 00-.104-.09.34.34 0 00-.185-.055h-.09M6.48 114.552a.389.389 0 00-.214.165l-1.662 2.328a.357.357 0 00.618.357 281.41 281.41 0 011.662-2.321.358.358 0 00-.13-.488.353.353 0 00-.179-.055H6.48M18.985 82.933a.392.392 0 00-.212.165l-1.814 2.54a.357.357 0 00.258.534.351.351 0 00.14-.011.385.385 0 00.214-.158l1.813-2.548a.345.345 0 00-.124-.48.364.364 0 00-.185-.056h-.09M8.698 82.94a.357.357 0 00-.13.487c.686.92 1.325 1.848 1.99 2.782a.364.364 0 00.488.123.357.357 0 00.13-.487l-1.99-2.782a.364.364 0 00-.214-.165h-.096a.33.33 0 00-.178.049M24.782 83.736a.357.357 0 00-.13.488l1.586 2.218c.05.078.125.136.213.165a.351.351 0 00.274-.034.357.357 0 00.13-.488L25.27 83.86a.42.42 0 00-.212-.165h-.097a.33.33 0 00-.178.048M33.435 83.297a.39.39 0 00-.213.165l-1.497 2.094-.275.392a.357.357 0 00.261.533.33.33 0 00.138-.011.412.412 0 00.22-.165l.267-.378.598-.838.893-1.257a.348.348 0 00-.124-.48.342.342 0 00-.178-.055h-.097" fill="#58AF9B"/><path d="M24.397 83.173a.357.357 0 00-.124.488l1.56 2.19a.44.44 0 00.22.165.351.351 0 00.436-.252.357.357 0 00-.038-.27l-1.56-2.19a.398.398 0 00-.22-.165h-.088a.439.439 0 00-.186.048M38.25 83.035a.35.35 0 00-.131.488l1.62 2.273c.05.079.126.137.214.165.092.02.19.009.274-.034a.357.357 0 00.13-.488c-.542-.762-1.084-1.517-1.62-2.28a.446.446 0 00-.22-.165h-.055a.33.33 0 00-.178.048M48.036 81.284a.364.364 0 00-.213.165l-2.7 3.784a.37.37 0 00.131.495.378.378 0 00.275.034.391.391 0 00.213-.165l2.692-3.777a.357.357 0 00-.124-.487.344.344 0 00-.185-.049h-.09M55.632 88.75c0 .034-.062.075-.096.117l-.2.233-.034.041a3.78 3.78 0 00-.247.392c-.151.233-.303.474-.44.72a.357.357 0 00.261.533.35.35 0 00.35-.175c.138-.234.282-.46.426-.687.069-.124.151-.247.227-.364.069-.082.144-.165.213-.254l-.035.048.062-.076a.364.364 0 000-.5.37.37 0 00-.26-.104.33.33 0 00-.248.103M51.415 81.8a.357.357 0 000 .501c.117.124.226.247.343.364l.378.35c.22.22.467.406.687.612.22.206.35.316.535.46.184.14.354.295.509.467a.358.358 0 00.61-.248.384.384 0 00-.102-.254 3.056 3.056 0 00-.488-.453 11.318 11.318 0 01-.542-.46c-.179-.158-.474-.385-.687-.597l-.378-.358c-.13-.123-.247-.254-.37-.384a.322.322 0 00-.241-.103.37.37 0 00-.261.103M50.872 107.21a.345.345 0 00-.11.247.393.393 0 00.11.255c.117.15.24.294.371.432.103.11.213.213.31.33.095.117.343.412.521.604.179.193.316.316.474.488.158.172.364.412.563.597a.357.357 0 00.508-.501c-.199-.185-.37-.391-.549-.584-.179-.192-.323-.323-.48-.487-.159-.165-.344-.406-.516-.605-.171-.199-.206-.219-.309-.323a7.538 7.538 0 01-.391-.453.319.319 0 00-.254-.103.348.348 0 00-.248.103M51.51 115.191a.357.357 0 00-.168.216.353.353 0 00.038.271c.138.186.289.371.433.557l-.055-.069c.217.33.46.643.728.934.144.151.295.295.44.44l.22.226c.058.065.12.127.185.186a.354.354 0 00.577-.26.358.358 0 00-.076-.242 4.763 4.763 0 01-.26-.267l-.317-.323c-.103-.103-.213-.199-.309-.302l-.24-.289c-.076-.096-.145-.199-.213-.295a12.165 12.165 0 00-.323-.419l-.172-.241a.422.422 0 00-.213-.164h-.096a.335.335 0 00-.178.055M9.94 95.583a168.39 168.39 0 01-.975 22.788h.687c.84-7.565 1.166-15.179.975-22.788a.357.357 0 10-.714 0M49.114 95.583c-.194 7.609.132 15.223.975 22.788h.687a168.388 168.388 0 01-.968-22.788.364.364 0 00-.358-.357.357.357 0 00-.357.357" fill="#58AF9B"/><path d="M29.65 39.412a.35.35 0 00-.102.247c-.045.253-.119.5-.22.735-.29.63-.616 1.245-.975 1.84-.165.296-.316.591-.453.9-.141.294-.25.603-.323.92a2.06 2.06 0 000 .825c.054.277.193.532.398.727.114.116.244.215.385.296.167.09.342.165.522.227.243.08.494.138.748.171h.357c.157-.005.313-.021.467-.048a.344.344 0 00.213-.165.35.35 0 00.035-.275.364.364 0 00-.165-.212.42.42 0 00-.275-.035h-.041a3.56 3.56 0 01-.543 0 4.755 4.755 0 01-.741-.206 2.06 2.06 0 01-.358-.199l-.171-.172a1.737 1.737 0 01-.09-.15 1.567 1.567 0 01-.054-.193 2.52 2.52 0 010-.323c.044-.257.118-.508.22-.748.301-.687.686-1.333 1.064-1.992.174-.317.332-.642.474-.975.055-.151.11-.295.158-.453.046-.17.078-.342.096-.516a.328.328 0 00-.103-.254.35.35 0 00-.254-.103.334.334 0 00-.247.103l-.021.028zm-.693 5.961h.041-.04zM27.412 47.605h-.061c-.38.022-.746.148-1.058.364a1.93 1.93 0 00-.687.804 2.65 2.65 0 000 2.012 3.17 3.17 0 00.494.859c.22.265.476.496.763.686.266.18.55.334.845.46a6.552 6.552 0 003.214.446 5.713 5.713 0 002.026-.583c.286-.148.554-.33.796-.543.272-.228.504-.5.687-.803.158-.244.278-.51.357-.79.084-.28.112-.574.083-.865a2.123 2.123 0 00-.797-1.456 2.747 2.747 0 00-1.655-.563h-.2a4.074 4.074 0 00-1.462.5l-.515.241-.179.069h-.089a2.906 2.906 0 01-.598-.172l-.46-.213-.48-.226a2.747 2.747 0 00-1.058-.24l.034.013zm2.81 4.938a6.976 6.976 0 01-.846-.055 6.505 6.505 0 01-1.318-.343l-.213-.103c.127-.144.265-.277.412-.399.213-.157.443-.288.687-.391.238-.088.484-.152.735-.193h.44c.16.002.32.013.48.035.256.039.507.106.748.199.217.097.424.214.619.35.172.138.329.295.467.467l-.11.069c-.421.17-.862.288-1.312.35-.262.033-.526.05-.79.048M21.293 44.123c.94 0 1.703-1.057 1.703-2.37 0-1.311-.762-2.369-1.703-2.369-.94 0-1.703 1.065-1.703 2.37 0 1.305.762 2.37 1.703 2.37zM39.369 43.766c-.941 0-1.703-1.058-1.703-2.37 0-1.311.762-2.369 1.703-2.369.94 0 1.703 1.065 1.703 2.37 0 1.305-.762 2.369-1.703 2.369zM40.248 32.736c.442.064.874.186 1.284.364.386.18.747.411 1.071.687a4.364 4.364 0 01.9.941.331.331 0 01.034.268.35.35 0 01-.164.22.364.364 0 01-.268 0 .412.412 0 01-.22-.165l-.034-.048a4.546 4.546 0 00-.687-.687 4.973 4.973 0 00-1.01-.59 4.626 4.626 0 00-.948-.262 3.442 3.442 0 00-.686 0l-.254.041a.349.349 0 01-.433-.254.357.357 0 01.254-.432 3.67 3.67 0 01.77-.083h.425" fill="#2C2C2C"/><path d="M28.91 11a31.405 31.405 0 00-5.632.495 21.66 21.66 0 00-3.434.913 23.006 23.006 0 00-4.808 2.417 27.308 27.308 0 00-4.264 3.476 29.26 29.26 0 00-3.53 4.278 26.024 26.024 0 00-2.562 4.808 24.078 24.078 0 00-1.511 5.782c-.556 4.073-.247 8.242.062 12.239l.075 1.05c.172 2.26.289 4.162.296 6.113a51.238 51.238 0 01-.227 6.407 10.3 10.3 0 01-.213 1.017l-.082.357a6.867 6.867 0 00-.206 1.559c.007.218.042.435.103.645.068.222.188.425.35.59.302.312.702.508 1.133.557h.268a3.104 3.104 0 001.003-.192c.45-.17.876-.401 1.263-.687a7.38 7.38 0 001.079-.934l.199-.213v.845c0 .192 0 .543.034.81v.268c0 .625.069 1.374.151 2.102.074.747.21 1.486.405 2.211.178.685.466 1.337.852 1.93a3.804 3.804 0 001.518 1.332c.358.168.74.277 1.133.323h.33c.316-.005.63-.039.94-.103a6.18 6.18 0 001.195-.378c.426-.171.841-.368 1.243-.59.399-.213.79-.44 1.182-.687.391-.247.687-.391.996-.577.59-.323 1.256-.639 2.06-.982l.055-.048a42.423 42.423 0 014.409-1.477c-.055.071-.103.147-.144.227l-.062.117c-.138.24-.294.47-.467.686a9.434 9.434 0 01-1.566 1.518 28.51 28.51 0 01-4.004 2.363l-.604.316c-.838.432-1.6.858-2.315 1.305-.714.446-1.497.982-2.204 1.51a28.906 28.906 0 00-3.874 3.496 27.759 27.759 0 00-5.494 8.818 41.385 41.385 0 00-1.696 5.598A74.048 74.048 0 00.49 105.308a82.738 82.738 0 00-.117 6.827c0 1.037.082 2.142.158 3.289.041.543.082 1.085.13 1.621s.09.879.144 1.312h.728c-.089-.79-.15-1.58-.212-2.321-.062-.742-.103-1.505-.145-2.26a72.113 72.113 0 01-.075-4.732c.041-3.122.27-6.239.687-9.333a70.921 70.921 0 011.284-6.916 40.48 40.48 0 011.91-6.133 28.584 28.584 0 013.625-6.18 27.071 27.071 0 012.947-3.215 23.683 23.683 0 004.292 3.118 27.601 27.601 0 005.418 2.335c1.86.57 3.768.965 5.7 1.181a33.11 33.11 0 003.496.193c.687 0 1.45 0 2.191-.076a30.026 30.026 0 009.334-2.122l.082-.034.33-.13a27.109 27.109 0 004.374-2.357l.069-.048.062-.04.275-.193.11-.076c.336-.24.624-.453.906-.686l.062-.048.103-.076.069-.062.068-.055.062-.062.062-.04.062-.049.061-.048a.288.288 0 00.076-.11c.842.852 1.636 1.75 2.376 2.692a28.1 28.1 0 013.606 6.181 40.862 40.862 0 011.93 6.181 70.93 70.93 0 011.284 6.916c.417 3.094.646 6.211.687 9.333 0 1.587 0 3.18-.083 4.732a81.428 81.428 0 01-.137 2.26 42.936 42.936 0 01-.227 2.307h.728c.076-.446.117-.886.151-1.325.035-.44.096-1.078.13-1.621.083-1.147.131-2.253.166-3.29.054-2.335 0-4.635-.117-6.826a74.73 74.73 0 00-1.854-12.699c-.433-1.903-1-3.773-1.697-5.597a28.09 28.09 0 00-5.494-8.818 28.905 28.905 0 00-3.873-3.496 27.08 27.08 0 00-2.205-1.51 32.258 32.258 0 00-2.314-1.305l-.605-.317a27.814 27.814 0 01-4.004-2.362 9.358 9.358 0 01-1.559-1.51 6.052 6.052 0 01-.474-.688 8.111 8.111 0 01-.322-.645 9.77 9.77 0 01-.57-2.115 32.718 32.718 0 003.66-1.285 24.72 24.72 0 002.665-1.325 20.015 20.015 0 002.232-1.511 25.857 25.857 0 006.813-8.303 42.22 42.22 0 001.339-2.795l.206-.09a4.924 4.924 0 002.198-2.005 6.127 6.127 0 00.817-2.795 5.769 5.769 0 00-.515-2.747 4.777 4.777 0 00-.275-.481c.144-.687.282-1.456.398-2.205.215-1.408.353-2.827.412-4.25.063-1.423 0-2.848-.185-4.259a14.1 14.1 0 00-1.05-3.832 9.003 9.003 0 00-1.546-2.266 7.349 7.349 0 00-2.198-1.655 11.293 11.293 0 00-1.29-3.304 11.977 11.977 0 00-2.295-2.809 18.503 18.503 0 00-6.661-3.75 30.905 30.905 0 00-8.036-1.504 32.246 32.246 0 00-2.115-.068L28.91 11zm12.938 19.937a5.903 5.903 0 002.424-.598 7.561 7.561 0 001.56-1.016 10.673 10.673 0 001.723-1.833c-.068.686-.144 1.456-.22 2.177-.226 2.115-.453 4.271.11 6.373.135.546.386 1.057.735 1.497.18.212.42.368.687.447-.041.466-.075.954-.124 1.428v.075c-.034.316-.075.632-.116.948a30.575 30.575 0 01-1.717 6.682l-.062.145v.103l-.055.117-.096.24v.075a24.651 24.651 0 01-.845 1.8l-.09.178-.034.062-.061.117-.042.09-.054.082-.062.116-.035.062-.075.13-.103.18-.062.116-.041.069-.062.103-.034.068-.042.083-.068.09-.062.109-.041.062-.069.11-.034.068-.069.11-.041.055-.076.11-.055.09-.048.089-.055.075-.061.096-.07.103-.082.11-.048.069-.068.103-.048.069-.062.096-.062.075-.062.09-.055.075-.069.09-.054.075-.062.09-.062.075-.069.09-.048.068a21.476 21.476 0 01-3.667 3.695 18.606 18.606 0 01-3.73 2.204l-.061.035a16.621 16.621 0 01-3.482.988l-.302.048c-.683.092-1.372.138-2.06.138-.433 0-.86 0-1.271-.055h-.295l-.364-.055h-.09a17.74 17.74 0 01-1.957-.419h-.096l-.11-.041c-.405-.117-.81-.254-1.223-.412l-.096-.041h-.075l-.186-.076c-.684-.293-1.35-.63-1.991-1.01l-.103-.061-.09-.055-.137-.083-.103-.062-.117-.068-.068-.055-.103-.062-.124-.082c-.35-.234-.687-.467-.989-.687a21.504 21.504 0 01-3.379-3.331l-.144-.178-.138-.18c-.51-.66-.985-1.347-1.421-2.06.028-1.825.258-3.643.687-5.418a23.011 23.011 0 012.122-5.384v-.076a26.317 26.317 0 014.066-5.343l-.09.048 1.236-1.147c-.104.32-.155.653-.15.989.018.161.053.32.102.474.053.16.127.313.22.453.087.148.199.28.33.392.167.148.354.273.556.37.277.145.577.243.886.289.206.037.415.056.625.055h.357a7.92 7.92 0 002.06-.467 16.14 16.14 0 002.178-.941 31.955 31.955 0 002.026-1.133c.542-.33 1.084-.687 1.62-1.01a45.173 45.173 0 002.383-1.62 36.552 36.552 0 003.05-2.48.688.688 0 000 .316c.04.167.115.324.22.46.118.158.265.293.432.399.151.087.313.157.48.206.207.057.419.094.633.11h.309l.027-.035zm7.184 11.311c.117-.604.213-1.215.302-1.874a5.14 5.14 0 01.824-.2c.149-.01.298-.01.447 0a3.01 3.01 0 01.35 0c.235.03.465.087.687.172.182.09.357.196.521.316.177.139.336.297.474.474.198.249.36.524.481.817.16.4.268.817.323 1.243a6.68 6.68 0 010 1.374 6.509 6.509 0 01-.378 1.414 5.53 5.53 0 01-.604 1.051c-.229.29-.49.552-.776.783a4.578 4.578 0 01-.886.515c-.378.16-.775.27-1.181.33H48.819c-.23-.001-.459-.015-.687-.041a4.595 4.595 0 01-.851-.227l-.117-.055c.26-.563.515-1.202.755-1.875.398-1.124.729-2.27.99-3.434h.061a.295.295 0 00.165-.04l.144-.063a3.61 3.61 0 01.687-.206 3.45 3.45 0 01.378 0h.295c.208.033.413.086.611.158.192.09.376.195.55.316l.061.048a.35.35 0 00.255.11c.096 0 .19-.036.26-.103a.398.398 0 00.11-.295.343.343 0 00-.11-.234 3.018 3.018 0 00-.892-.542 3.13 3.13 0 00-.914-.206h-.24c-.231 0-.461.026-.687.075-.202.043-.4.103-.59.179l-.021.02zM18.834 78.531h-.068a26.707 26.707 0 01-2.555-1.257 26.221 26.221 0 01-2.596-1.683l-.076-.048a33.403 33.403 0 014.471-2.836l.996-.522a28.834 28.834 0 003.667-2.136 9.96 9.96 0 001.917-1.765 6.937 6.937 0 001.147-2.074c.273-.803.45-1.635.528-2.48.09-.87.114-1.748.069-2.623v-.302c1.217.321 2.47.483 3.73.48.718-.001 1.436-.052 2.149-.15l.432-.069.783-.144v.185a16.95 16.95 0 00.069 2.624c.083.843.26 1.675.529 2.479.134.386.3.76.494 1.12.188.337.407.656.653.954a9.96 9.96 0 001.916 1.765 28.737 28.737 0 003.654 2.129l1.009.529a32.404 32.404 0 014.423 2.809l.556.446-.082.034-.062.042-.062.04-.062.042-.082.062c-.323.213-.605.398-.893.577l-.103.069-.165.089-.096.062-.103.055a27.535 27.535 0 01-2.98 1.504h-.07a30.218 30.218 0 01-7.293 1.978 33.757 33.757 0 01-4.258.281 31.147 31.147 0 01-4.12-.268 28.503 28.503 0 01-1.532-.247c-2.023-.372-4-.96-5.9-1.751h-.034zm.13 2.575h-.075a25.811 25.811 0 01-5.446-3.159c-.474-.364-.94-.755-1.373-1.154l.199-.158.735-.618c.096.09.206.172.322.261.833.61 1.703 1.17 2.603 1.676a29.013 29.013 0 008.654 3.083c1.894.349 3.815.528 5.741.536h.13a31.827 31.827 0 005.536-.494 28.28 28.28 0 009.203-3.29l.137-.11.09-.048.075-.048.117-.069.096-.055.09-.055c.336-.206.617-.384.899-.576l.09-.055.06-.048.076-.049.07-.055.095-.061.124-.083.09-.075c.336.302.686.61 1.009.92a.165.165 0 00-.09.055l-.054.041-.062.062-.138.103-.068.055-.062.048-.096.075-.103.083-.055.055-.433.316-.227.158-.123.082-.11.083-.069.055-.068.04c-.557.372-1.065.688-1.6 1.01-.904.504-1.833.963-2.782 1.374l-.082.034-.138.062a30.222 30.222 0 01-11.49 2.225 31.987 31.987 0 01-4.203-.281 29.479 29.479 0 01-7.293-1.944v-.007z" fill="#2C2C2C"/></svg>